<?xml version="1.0" encoding="iso-8859-1"?>
<!-- Generator: Adobe Illustrator 19.0.0, SVG Export Plug-In . SVG Version: 6.00 Build 0)  -->
<svg version="1.1" id="Layer_1" xmlns="http://www.w3.org/2000/svg" xmlns:xlink="http://www.w3.org/1999/xlink" x="0px" y="0px"
	 viewBox="0 0 511.996 511.996" style="enable-background:new 0 0 511.996 511.996;" xml:space="preserve">
<g>
	<g>
		<path d="M505.738,142.016L369.99,6.252c-4.172-4.172-9.625-6.25-15.093-6.25c-5.453,0-10.922,2.078-15.078,6.25L6.246,339.81
			c-8.328,8.328-8.328,21.844,0,30.172L142.01,505.745c4.172,4.156,9.625,6.25,15.094,6.25c5.453,0,10.906-2.094,15.078-6.25
			L505.738,172.17C514.082,163.842,514.082,150.344,505.738,142.016z M157.103,490.651L21.34,354.888l91.358-91.358l135.764,135.764
			L157.103,490.651z M263.242,383.917l-135.154-135.17l120.67-120.67l135.154,135.154L263.242,383.917z M399.303,248.451
			L263.539,112.687l91.358-91.357L490.66,157.092L399.303,248.451z"/>
	</g>
</g>
<g>
	<g>
		<path d="M362.444,59.047c-4.172-4.172-10.922-4.172-15.093,0c-4.156,4.156-4.156,10.922,0,15.078
			c4.172,4.172,10.922,4.172,15.093,0C366.6,69.969,366.6,63.204,362.444,59.047z"/>
	</g>
</g>
<g>
	<g>
		<path d="M407.693,104.297c-4.156-4.172-10.922-4.172-15.078,0c-4.172,4.171-4.172,10.921,0,15.078
			c4.156,4.172,10.922,4.172,15.078,0C411.865,115.219,411.865,108.469,407.693,104.297z"/>
	</g>
</g>
<g>
	<g>
		<path d="M452.942,149.547c-4.156-4.156-10.906-4.156-15.077,0c-4.172,4.172-4.172,10.921,0,15.093
			c4.171,4.156,10.921,4.156,15.077,0C457.114,160.467,457.114,153.719,452.942,149.547z"/>
	</g>
</g>
<g>
	<g>
		<path d="M339.82,126.922c-4.173-4.156-10.923-4.156-15.094,0c-4.156,4.172-4.156,10.922,0,15.094
			c4.172,4.156,10.922,4.156,15.094,0C343.976,137.844,343.976,131.094,339.82,126.922z"/>
	</g>
</g>
<g>
	<g>
		<path d="M385.068,172.17c-4.172-4.156-10.922-4.156-15.078,0c-4.172,4.172-4.172,10.922,0,15.094
			c4.156,4.156,10.906,4.156,15.078,0C389.24,183.092,389.24,176.342,385.068,172.17z"/>
	</g>
</g>
<g>
	<g>
		<path d="M164.635,437.853c-4.157-4.156-10.907-4.156-15.078,0c-4.172,4.172-4.172,10.922,0,15.094
			c4.172,4.156,10.922,4.156,15.078,0C168.807,448.775,168.807,442.025,164.635,437.853z"/>
	</g>
</g>
<g>
	<g>
		<path d="M119.385,392.604c-4.172-4.156-10.922-4.156-15.078,0c-4.172,4.172-4.172,10.922,0,15.093
			c4.156,4.156,10.922,4.156,15.078,0C123.557,403.526,123.557,396.776,119.385,392.604z"/>
	</g>
</g>
<g>
	<g>
		<path d="M74.135,347.355c-4.171-4.171-10.921-4.171-15.093,0c-4.156,4.156-4.156,10.922,0,15.078
			c4.171,4.172,10.921,4.172,15.093,0C78.291,358.277,78.291,351.511,74.135,347.355z"/>
	</g>
</g>
<g>
	<g>
		<path d="M187.275,369.98c-4.172-4.172-10.922-4.172-15.094,0c-4.156,4.171-4.172,10.921,0,15.077
			c4.172,4.172,10.922,4.172,15.094,0C191.431,380.901,191.431,374.151,187.275,369.98z"/>
	</g>
</g>
<g>
	<g>
		<path d="M142.01,324.73c-4.157-4.171-10.922-4.171-15.078,0c-4.171,4.156-4.171,10.906,0,15.078
			c4.156,4.172,10.922,4.172,15.078,0C146.182,335.652,146.182,328.886,142.01,324.73z"/>
	</g>
</g>
<g>
</g>
<g>
</g>
<g>
</g>
<g>
</g>
<g>
</g>
<g>
</g>
<g>
</g>
<g>
</g>
<g>
</g>
<g>
</g>
<g>
</g>
<g>
</g>
<g>
</g>
<g>
</g>
<g>
</g>
</svg>
