<?xml version="1.0" encoding="iso-8859-1"?>
<!-- Generator: Adobe Illustrator 19.0.0, SVG Export Plug-In . SVG Version: 6.00 Build 0)  -->
<svg version="1.1" id="Layer_1" xmlns="http://www.w3.org/2000/svg" xmlns:xlink="http://www.w3.org/1999/xlink" x="0px" y="0px"
	 viewBox="0 0 511.99 511.99" style="enable-background:new 0 0 511.99 511.99;" xml:space="preserve">
<g>
	<g>
		<path d="M511.959,30.501c-0.844,0.008-1.688,0.016-2.531,0.016c-54.938,0-60.656-30.508-104.156-30.508
			s-49.219,30.508-104.157,30.508c-0.844,0-1.688-0.008-2.531-0.016l0.031,231.635c0,8.406,6.844,15.234,15.25,15.234h80.782v42.625
			c0,22.797-8.875,44.219-25,60.328c-16.094,16.125-37.532,25-60.313,25h-67.398c10.984-42.406-6.219-81.391-39.329-99.344
			c-10.031-4.859-20.359-7.281-30.438-7.281c-18.375,0-35.953,8.062-49.563,23.953c-13.594-15.891-31.141-23.953-49.532-23.953
			c-10.078,0-20.391,2.422-30.438,7.281c-36.11,19.594-53.313,64.219-35.625,111c22.438,62.143,103.782,91.221,115.595,95.002
			c11.219-3.594,84.688-29.844,111.532-85.314h75.195c58.907,0,106.626-47.766,106.626-106.672V277.37h80.812
			c8.406,0,15.219-6.828,15.219-15.234L511.959,30.501z M218.278,409.432l-0.063,0.157l-0.062,0.156
			c-4.141,11.469-11.281,22.594-21.25,33.062c-8.594,9.049-19.312,17.627-31.828,25.502c-17.25,10.875-33.641,17.75-42.438,21.062
			c-8.844-3.312-25.219-10.188-42.469-21.062c-12.516-7.875-23.234-16.453-31.828-25.502c-4.812-5.047-8.953-10.266-12.438-15.578
			c35.656,6.344,71.829-4.938,100.438-16.156c17.953-7.031,33.5-11.344,47.531-13.188c14.078-1.844,26.375-1.188,37.438,2
			C220.481,403.041,219.481,406.244,218.278,409.432z M128.558,391.23c-37.313,14.625-71.829,22.344-102.844,11.312
			c-0.391-0.125-0.781-0.281-1.172-0.422c-4.39-15.313-4.312-30.391,0.297-43.984c4.844-14.25,14.609-26.031,27.531-33.172
			c6.906-3.266,13.875-4.922,20.703-4.922c12.594,0,24.125,5.688,33.344,16.469l16.188,18.938l16.219-18.938
			c9.219-10.781,20.75-16.469,33.344-16.469c6.844,0,13.797,1.656,20.703,4.922c12.922,7.141,22.688,18.922,27.531,33.172
			c2.203,6.5,3.359,13.344,3.5,20.375C193.308,370.933,159.855,378.949,128.558,391.23z M362.397,223.995l-10.406-13.344v-27.813
			h-0.001c26.344-0.656,51.938-8.555,73.406-16.524c12.094-4.492,23.062-7.781,33.25-9.945v54.282l-10.437,13.344H362.397z
			 M458.646,134.619c-13.688,2.57-27.375,6.75-40.688,11.695c-23.156,8.61-45.219,14.61-65.969,15.227V85.337h106.656
			L458.646,134.619L458.646,134.619z M415.959,256.042v-0.001v-10.719h42.688l21.312-27.327V64.001H330.645v153.994l21.345,27.328
			h42.656v10.719h-74.688l-0.031-205.353c23.22-2.992,38.001-11.234,50.345-18.125c11.656-6.516,20.094-11.219,35-11.219
			c14.938,0,23.344,4.703,35,11.211c12.344,6.898,27.125,15.156,50.375,18.133l0.031,205.353H415.959z"/>
	</g>
</g>
<g>
</g>
<g>
</g>
<g>
</g>
<g>
</g>
<g>
</g>
<g>
</g>
<g>
</g>
<g>
</g>
<g>
</g>
<g>
</g>
<g>
</g>
<g>
</g>
<g>
</g>
<g>
</g>
<g>
</g>
</svg>
