<?xml version="1.0" encoding="iso-8859-1"?>
<!-- Generator: Adobe Illustrator 19.0.0, SVG Export Plug-In . SVG Version: 6.00 Build 0)  -->
<svg version="1.1" id="Layer_1" xmlns="http://www.w3.org/2000/svg" xmlns:xlink="http://www.w3.org/1999/xlink" x="0px" y="0px"
	 viewBox="0 0 512 512" style="enable-background:new 0 0 512 512;" xml:space="preserve">
<g>
	<g>
		<path d="M117.328,229.336c-23.562,0-42.672,19.094-42.672,42.656s19.109,42.672,42.672,42.672S160,295.555,160,271.992
			S140.891,229.336,117.328,229.336z M117.328,293.336c-11.766,0-21.328-9.578-21.328-21.344s9.562-21.328,21.328-21.328
			s21.328,9.562,21.328,21.328S129.094,293.336,117.328,293.336z"/>
	</g>
</g>
<g>
	<g>
		<path d="M117.328,261.336c-5.891,0-10.672,4.766-10.672,10.656s4.781,10.672,10.672,10.672S128,277.883,128,271.992
			S123.219,261.336,117.328,261.336z"/>
	</g>
</g>
<g>
	<g>
		<path d="M378.656,122.664c-55.062,0-102.312,33.375-122.656,81c-20.344-47.625-67.609-81-122.672-81
			C59.688,122.664,0,182.352,0,255.992s59.688,133.344,133.328,133.344c55.062,0,102.328-33.391,122.672-81.016
			c20.344,47.625,67.594,81.016,122.656,81.016c73.641,0,133.344-59.703,133.344-133.344S452.297,122.664,378.656,122.664z
			 M212.531,335.195c-21.156,21.156-49.281,32.797-79.203,32.797s-58.047-11.641-79.188-32.797
			c-21.156-21.156-32.812-49.281-32.812-79.203c0-29.906,11.656-58.031,32.812-79.188c21.141-21.156,49.266-32.812,79.188-32.812
			s58.047,11.656,79.203,32.812c21.156,21.156,32.797,49.281,32.797,79.188C245.328,285.914,233.688,314.039,212.531,335.195z
			 M457.859,335.195c-21.156,21.156-49.281,32.797-79.203,32.797c-29.906,0-58.031-11.641-79.188-32.797
			s-32.812-49.281-32.812-79.203c0-29.906,11.656-58.031,32.812-79.188c21.156-21.157,49.281-32.812,79.188-32.812
			c29.922,0,58.047,11.656,79.203,32.812c21.156,21.156,32.797,49.281,32.797,79.188
			C490.656,285.914,479.016,314.039,457.859,335.195z"/>
	</g>
</g>
<g>
	<g>
		<path d="M394.656,229.336c-23.562,0-42.656,19.094-42.656,42.656s19.094,42.672,42.656,42.672s42.672-19.109,42.672-42.672
			S418.219,229.336,394.656,229.336z M394.656,293.336c-11.75,0-21.328-9.578-21.328-21.344s9.578-21.328,21.328-21.328
			c11.766,0,21.344,9.562,21.344,21.328S406.422,293.336,394.656,293.336z"/>
	</g>
</g>
<g>
	<g>
		<path d="M394.656,261.336c-5.891,0-10.656,4.766-10.656,10.656s4.766,10.672,10.656,10.672s10.672-4.781,10.672-10.672
			S400.547,261.336,394.656,261.336z"/>
	</g>
</g>
<g>
</g>
<g>
</g>
<g>
</g>
<g>
</g>
<g>
</g>
<g>
</g>
<g>
</g>
<g>
</g>
<g>
</g>
<g>
</g>
<g>
</g>
<g>
</g>
<g>
</g>
<g>
</g>
<g>
</g>
</svg>
