<?xml version="1.0" encoding="iso-8859-1"?>
<!-- Generator: Adobe Illustrator 19.0.0, SVG Export Plug-In . SVG Version: 6.00 Build 0)  -->
<svg version="1.1" id="Layer_1" xmlns="http://www.w3.org/2000/svg" xmlns:xlink="http://www.w3.org/1999/xlink" x="0px" y="0px"
	 viewBox="0 0 511.998 511.998" style="enable-background:new 0 0 511.998 511.998;" xml:space="preserve">
<g>
	<g>
		<path d="M423.005,48.562c-20.969-10.156-42.516-15.195-63.546-15.195c-38.39,0-75.077,16.797-103.466,49.983
			c-28.375-33.179-65.061-49.983-103.466-49.983c-21.031,0-42.562,5.039-63.53,15.195C13.607,89.444-22.298,182.653,14.654,280.291
			c46.827,129.716,216.636,190.434,241.338,198.34c24.718-7.906,194.526-68.624,241.354-198.34
			C534.298,182.653,498.378,89.444,423.005,48.562z M427.895,350.195c-19.28,20.266-43.124,39.406-70.889,56.905
			c-43.64,27.483-84.982,43.374-101.013,48.999c-16.015-5.625-57.358-21.516-101.013-48.999
			c-27.75-17.499-51.593-36.64-70.889-56.905c-22.25-23.39-38.515-48.404-48.374-74.436h152.34l34.499-77.1l64.076,192.254
			l50.797-115.154h138.84C466.409,301.775,450.159,326.806,427.895,350.195z M490.597,208.043
			c-0.438,15.328-2.859,30.866-7.188,46.374H323.522l-34.109,77.357l-63.951-191.847l-51.233,114.489l-145.637,0.016
			c-4.344-15.516-6.75-31.054-7.188-46.39c-0.578-20.217,2.282-39.748,8.5-58.044c6.031-17.781,15.062-33.937,26.843-48.03
			C68.466,87.953,82.59,76.367,98.73,67.547c17.766-8.523,35.858-12.851,53.796-12.851c16.156,0,31.733,3.523,46.312,10.476
			c15.156,7.226,28.937,18.007,40.952,32.046l16.203,18.952l16.218-18.952c12.015-14.039,25.78-24.82,40.952-32.046
			c14.578-6.953,30.155-10.476,46.296-10.476c17.952,0,36.046,4.328,53.796,12.851c16.14,8.82,30.265,20.406,41.998,34.421
			c11.781,14.093,20.812,30.25,26.844,48.03C488.3,168.294,491.159,187.825,490.597,208.043z"/>
	</g>
</g>
<g>
</g>
<g>
</g>
<g>
</g>
<g>
</g>
<g>
</g>
<g>
</g>
<g>
</g>
<g>
</g>
<g>
</g>
<g>
</g>
<g>
</g>
<g>
</g>
<g>
</g>
<g>
</g>
<g>
</g>
</svg>
