<?xml version="1.0" encoding="iso-8859-1"?>
<!-- Generator: Adobe Illustrator 19.0.0, SVG Export Plug-In . SVG Version: 6.00 Build 0)  -->
<svg version="1.1" id="Layer_1" xmlns="http://www.w3.org/2000/svg" xmlns:xlink="http://www.w3.org/1999/xlink" x="0px" y="0px"
	 viewBox="0 0 512 512" style="enable-background:new 0 0 512 512;" xml:space="preserve">
<g>
	<g>
		<path d="M490.672,32H21.328C9.547,32,0,41.555,0,53.336v405.336C0,470.453,9.547,480,21.328,480h469.344
			c11.781,0,21.328-9.547,21.328-21.328V53.336C512,41.555,502.453,32,490.672,32z M490.672,458.672H21.328v-64h469.344V458.672z
			 M490.672,202.469H323.906l-34.125,77.359L225.828,87.969l-51.234,114.5L21.5,202.477v21.336l166.922-0.016l34.5-77.094
			l64.094,192.266l50.797-115.172h152.859v149.531H21.328V53.336h469.344V202.469z"/>
	</g>
</g>
<g>
	<g>
		<path d="M53.328,416c-5.891,0-10.656,4.766-10.656,10.672c0,5.875,4.766,10.656,10.656,10.656S64,432.547,64,426.672
			C64,420.766,59.219,416,53.328,416z"/>
	</g>
</g>
<g>
	<g>
		<path d="M96,416c-5.891,0-10.672,4.766-10.672,10.672c0,5.875,4.781,10.656,10.672,10.656s10.672-4.781,10.672-10.656
			C106.672,420.766,101.891,416,96,416z"/>
	</g>
</g>
<g>
	<g>
		<path d="M138.672,416c-5.891,0-10.672,4.766-10.672,10.672c0,5.875,4.781,10.656,10.672,10.656s10.656-4.781,10.656-10.656
			C149.328,420.766,144.562,416,138.672,416z"/>
	</g>
</g>
<g>
	<g>
		<path d="M458.672,416h-64c-5.891,0-10.672,4.766-10.672,10.672c0,5.875,4.781,10.656,10.672,10.656h64
			c5.891,0,10.656-4.781,10.656-10.656C469.328,420.766,464.562,416,458.672,416z"/>
	</g>
</g>
<g>
</g>
<g>
</g>
<g>
</g>
<g>
</g>
<g>
</g>
<g>
</g>
<g>
</g>
<g>
</g>
<g>
</g>
<g>
</g>
<g>
</g>
<g>
</g>
<g>
</g>
<g>
</g>
<g>
</g>
</svg>
