<?xml version="1.0" encoding="iso-8859-1"?>
<!-- Generator: Adobe Illustrator 19.0.0, SVG Export Plug-In . SVG Version: 6.00 Build 0)  -->
<svg version="1.1" id="Layer_1" xmlns="http://www.w3.org/2000/svg" xmlns:xlink="http://www.w3.org/1999/xlink" x="0px" y="0px"
	 viewBox="0 0 511.997 511.997" style="enable-background:new 0 0 511.997 511.997;" xml:space="preserve">
<g>
	<g>
		<path d="M465.012,223.239c-10.37-56.459,64.247-164.384,5.807-210.396C459.143,3.656,444.963,0,429.4,0
			c-59.962,0-140.725,54.046-180.146,54.046c-1.598,0-3.119-0.092-4.578-0.276C207.882,49.1,142.621,19.895,90.171,19.879
			c-14.211,0-27.469,2.151-38.976,7.512c-101.749,47.41-7.589,295.275,1.306,311.807c7.728,14.349,24.304,36.24,51.02,36.24
			c1.875,0,3.795-0.107,5.761-0.338c1.475,3.703,3.38,7.835,5.792,11.983c10.523,18.128,25.564,28.068,43.477,28.774
			c0.138,0.016,0.276,0.031,0.415,0.031c5.884,0,10.662-4.778,10.662-10.678c0-5.745-4.547-10.416-10.247-10.646
			c-16.177-0.63-25.272-15.348-29.773-26.132c31.11-18.988,39.006-80.18-21.079-240c-0.614-1.659,0.569-2.366,3.38-2.366
			c15.256,0,78.321,20.894,155.735,21.907c1.628,0.031,3.226,0.031,4.793,0.031c79.165,0,100.212-26.286,106.726-26.286
			c0.677,0,1.198,0.292,1.613,0.921c0,0-17.237,21.309-7.574,116.697c7.574,74.925,68.934,84.634,14.765,108.17
			c-3.657,1.598-7.697,2.32-12.029,2.32c-36.472,0-94.145-50.452-131.999-50.452c-33.952,0-51.957,40.543-24.503,194.372
			c0,0,16.392,18.251,42.862,18.251c13.243,0,28.99-4.563,46.488-18.251c9.863-7.713-13.243-84.512-9.925-86.079
			c0.046-0.015,0.107-0.03,0.169-0.03c3.549,0,44.521,23.582,91.655,23.582c29.005,0,60.346-8.926,86.724-37.793
			C547.525,316.753,475.381,279.713,465.012,223.239z M129.762,279.605c5.131,36.01,0.906,53.616-3.534,62.051
			c-3.318,6.283-7.789,9.709-14.964,11.46c-2.688,0.661-5.3,0.999-7.743,0.999c-6.667,0-12.797-2.489-18.727-7.589
			c-6.33-5.454-10.831-12.476-13.489-17.406c-1.721-3.318-9.08-21.478-17.406-47.533c7.175,1.828,14.211,2.597,20.955,2.597
			c23.398,0,43.278-9.156,53.279-14.795C128.748,272.892,129.286,276.302,129.762,279.605z M124.216,249.955l-1.567-2.212
			c-0.384,0.277-39.083,27.208-76.446,8.296c-2.458-8.757-4.885-18.005-7.159-27.577c-4.947-20.694-8.542-40.159-10.754-58.164
			c8.204,3.81,17.36,5.73,27.315,5.73c4.532,0,9.233-0.399,14.087-1.198c13.074-2.182,24.043-6.836,29.543-9.479
			C110.358,197.229,118.716,225.512,124.216,249.955z M111.91,104.744c-12.09,0-18.266,6.314-20.878,10.093
			c-4.225,6.1-5.146,13.981-2.474,21.109c1.167,3.088,2.305,6.145,3.426,9.171c-4.717,2.504-42.647,21.478-66.061-2.289
			c-1.137-25.149,1.06-46.059,6.544-62.189c5.715-16.792,14.794-27.884,27.746-33.906c7.835-3.657,17.928-5.516,29.958-5.516
			c6.929,0,14.195,0.599,21.692,1.628c-4.962,13.028-5.101,29.343-0.307,48.147c1.26,4.978,2.75,9.679,4.271,13.934
			C114.445,104.806,113.139,104.744,111.91,104.744z M143.927,110.152c-1.137-0.261-2.243-0.492-3.334-0.722
			c-7.251-15.824-16.853-45.198-7.113-62.634c17.421,3.84,35.227,9.125,51.85,14.057c10.754,3.18,21.201,6.268,30.972,8.803
			c-3.088,6.038-5.039,12.336-5.776,18.85c-1.106,9.679,0.461,19.619,4.609,29.543c0.753,1.798,1.567,3.534,2.427,5.178
			C188.156,119.723,162.884,114.254,143.927,110.152z M334.673,118.802c-16.977,5.223-37.916,7.881-62.235,7.881
			c-1.475,0-2.996-0.015-4.517-0.031c-7.912-0.107-15.64-0.43-23.183-0.906c-2.95-3.503-7.067-9.111-9.924-15.932
			c-5.361-12.797-4.225-24.427,3.487-35.412c1.245,0.2,2.489,0.369,3.688,0.522c2.319,0.292,4.762,0.445,7.267,0.445
			c21.923,0,49.054-11.322,80.455-24.442c1.813-0.753,3.642-1.521,5.484-2.289c-3.287,12.413-2.903,25.779,1.229,39.667
			c3.257,10.908,8.188,19.864,11.737,25.426C344.397,115.437,339.957,117.173,334.673,118.802z M379.163,100.396
			c-4.716,0-8.618,1.321-12.198,3.103c-2.688-4.025-7.251-11.752-10.093-21.277c-5.085-17.068-2.489-32.308,7.696-45.382
			c22.906-8.649,45.782-15.501,64.832-15.501c11.921,0,21.154,2.704,28.222,8.265c7.251,5.7,15.424,15.378,14.364,39.729
			c-0.323,7.282-1.429,15.056-2.996,23.106c-32.999-3.088-57.319,7.466-71.729,16.653
			C392.852,103.607,386.246,100.396,379.163,100.396z M393.312,155.841c1.629-12.551,3.933-18.635,4.793-20.571
			c3.365-3.303,26.501-24.396,65.969-21.816c-2.074,7.913-4.363,15.901-6.637,23.813c-5.162,17.99-10.17,35.427-12.812,51.865
			c-9.325-4.209-20.939-6.744-34.735-7.574c-6.791-0.399-13.12-0.323-18.236-0.092C391.822,170.467,392.514,162.048,393.312,155.841
			z M262.298,490.676c-10.478,0-18.589-4.578-23.137-7.927c-3.149-18.236-5.684-35.089-7.574-50.514
			c11-3.887,32.37-9.433,49.1-1.598c0.399,1.859,0.813,3.795,1.26,5.838c2.089,9.633,4.439,20.556,6.083,30.373
			c1.152,6.897,1.629,11.414,1.798,14.303C280.272,487.465,271.024,490.676,262.298,490.676z M310.307,388.989
			c-4.209-1.752-7.312-2.688-11.276-2.688c-3.226,0-6.345,0.691-9.232,2.059c-9.218,4.332-11.953,11.952-12.414,18.758
			c-17.744-4.01-35.979-0.354-48.131,3.41c-1.459-16.238-2.074-30.495-1.829-42.693c0.646-30.741,6.683-41.172,9.249-44.229
			c1.321-1.582,2.781-2.903,7.267-2.903c13.473,0,35.781,11.706,55.752,22.337C305.068,352.303,313.61,370.615,310.307,388.989z
			 M411.671,407.87c-6.683,1.337-13.703,2.013-20.985,2.013c-22.998,0-44.905-6.637-60.376-12.536
			c3.533-13.903,2.074-27.562-1.198-39.237c16.238,7.604,31.862,13.043,46.826,13.043c7.404,0,14.318-1.367,20.524-4.071
			c2.734-1.183,5.484-2.458,8.188-3.84c1.383,1.505,5.776,6.667,8.634,14.057C417.218,387.483,416.664,397.746,411.671,407.87z
			 M394.419,237.188c-1.306-12.981-2.09-24.412-2.489-34.428c15.256-0.768,38.776,0.338,50.76,9.878
			c0.062,4.947,0.476,9.771,1.336,14.457c3.856,20.955,14.35,39.053,23.613,54.999c0.23,0.399,0.461,0.799,0.691,1.198
			c-13.335-2.627-24.704-1.105-32.969,1.214c-8.681,2.442-15.194,6.053-19.051,8.588
			C407.462,279.928,397.076,263.428,394.419,237.188z M461.662,379.034c-7.543,8.265-15.932,14.901-25.011,19.849
			c1.675-11.614-0.538-21.708-3.472-29.282c-3.35-8.68-8.02-15.163-11.077-18.819c3.61-3.887,6.453-8.449,8.051-13.888
			c2.75-9.433,0.937-17.775-2.735-25.579c5.193-3.626,26.056-15.793,54.17-0.723l0.431-0.799c2.273,5.792,3.84,11.522,4.239,17.222
			c0.508,7.113-0.752,14.181-3.841,21.616C478.5,358.018,471.525,368.249,461.662,379.034z"/>
	</g>
</g>
<g>
</g>
<g>
</g>
<g>
</g>
<g>
</g>
<g>
</g>
<g>
</g>
<g>
</g>
<g>
</g>
<g>
</g>
<g>
</g>
<g>
</g>
<g>
</g>
<g>
</g>
<g>
</g>
<g>
</g>
</svg>
