<?xml version="1.0" encoding="iso-8859-1"?>
<!-- Generator: Adobe Illustrator 19.0.0, SVG Export Plug-In . SVG Version: 6.00 Build 0)  -->
<svg version="1.1" id="Layer_1" xmlns="http://www.w3.org/2000/svg" xmlns:xlink="http://www.w3.org/1999/xlink" x="0px" y="0px"
	 viewBox="0 0 512 512" style="enable-background:new 0 0 512 512;" xml:space="preserve">
<g>
	<g>
		<path d="M512,64.004c0-5.891-4.766-10.664-10.656-10.664V32.004c5.891,0,10.656-4.773,10.656-10.664
			c0-5.891-4.766-10.672-10.656-10.672H10.672C4.781,10.668,0,15.449,0,21.34c0,5.891,4.781,10.664,10.672,10.664V53.34
			C4.781,53.34,0,58.113,0,64.004c0,5.891,4.781,10.664,10.672,10.664v21.336C4.781,96.004,0,100.777,0,106.668
			c0,5.891,4.781,10.672,10.672,10.672v21.328C4.781,138.668,0,143.449,0,149.34s4.781,10.664,10.672,10.664v21.336
			C4.781,181.34,0,186.113,0,192.004s4.781,10.664,10.672,10.664v21.336C4.781,224.004,0,228.777,0,234.668
			c0,5.891,4.781,10.664,10.672,10.664v21.344C4.781,266.676,0,271.457,0,277.332c0,5.906,4.781,10.672,10.672,10.672v21.328
			C4.781,309.332,0,314.113,0,320.004s4.781,10.672,10.672,10.672v21.328C4.781,352.004,0,356.77,0,362.676
			c0,5.875,4.781,10.656,10.672,10.656v21.344C4.781,394.676,0,399.457,0,405.332c0,5.906,4.781,10.672,10.672,10.672v21.328
			C4.781,437.332,0,442.113,0,448.004s4.781,10.672,10.672,10.672v21.328C4.781,480.004,0,484.77,0,490.676
			c0,5.875,4.781,10.656,10.672,10.656h490.672c5.891,0,10.656-4.781,10.656-10.656c0-5.906-4.766-10.672-10.656-10.672v-21.328
			c5.891,0,10.656-4.781,10.656-10.672s-4.766-10.672-10.656-10.672v-21.328c5.891,0,10.656-4.766,10.656-10.672
			c0-5.875-4.766-10.656-10.656-10.656v-21.344c5.891,0,10.656-4.781,10.656-10.656c0-5.906-4.766-10.672-10.656-10.672v-21.328
			c5.891,0,10.656-4.781,10.656-10.672s-4.766-10.672-10.656-10.672v-21.328c5.891,0,10.656-4.766,10.656-10.672
			c0-5.875-4.766-10.656-10.656-10.656v-21.344c5.891,0,10.656-4.773,10.656-10.664c0-5.891-4.766-10.664-10.656-10.664v-21.336
			c5.891,0,10.656-4.773,10.656-10.664c0-5.891-4.766-10.664-10.656-10.664v-21.336c5.891,0,10.656-4.773,10.656-10.664
			c0-5.891-4.766-10.672-10.656-10.672V117.34c5.891,0,10.656-4.781,10.656-10.672c0-5.891-4.766-10.664-10.656-10.664V74.668
			C507.234,74.668,512,69.895,512,64.004z M480,480.004H32v-448h448V480.004z"/>
	</g>
</g>
<g>
	<g>
		<path d="M256,96.004c-88.359,0-160,71.633-160,160c0,5.891,4.781,10.672,10.672,10.672s10.672-4.781,10.672-10.672
			c0-18.727,3.656-36.891,10.875-53.969c6.984-16.508,16.984-31.344,29.734-44.086c12.734-12.742,27.578-22.742,44.078-29.719
			c17.078-7.234,35.25-10.891,53.969-10.891c5.891,0,10.672-4.781,10.672-10.672S261.891,96.004,256,96.004z"/>
	</g>
</g>
<g>
	<g>
		<path d="M256,53.34c-111.922,0-202.656,90.734-202.656,202.664c0,111.922,90.734,202.672,202.656,202.672
			c111.938,0,202.672-90.75,202.672-202.672C458.672,144.074,367.938,53.34,256,53.34z M384.219,384.223
			c-16.656,16.672-36.047,29.734-57.641,38.875c-22.344,9.453-46.078,14.234-70.578,14.234c-24.484,0-48.234-4.781-70.578-14.234
			c-21.578-9.141-40.984-22.203-57.641-38.875c-16.656-16.656-29.734-36.047-38.875-57.641
			c-9.437-22.344-14.234-46.094-14.234-70.578c0-24.492,4.797-48.234,14.234-70.578c9.141-21.586,22.219-40.984,38.875-57.641
			c16.656-16.664,36.062-29.742,57.641-38.875c22.344-9.445,46.094-14.242,70.578-14.242c24.5,0,48.234,4.797,70.578,14.242
			c21.594,9.133,40.984,22.211,57.641,38.875c16.672,16.656,29.75,36.055,38.875,57.641c9.453,22.344,14.25,46.086,14.25,70.578
			c0,24.484-4.797,48.234-14.25,70.578C413.969,348.176,400.891,367.566,384.219,384.223z"/>
	</g>
</g>
<g>
</g>
<g>
</g>
<g>
</g>
<g>
</g>
<g>
</g>
<g>
</g>
<g>
</g>
<g>
</g>
<g>
</g>
<g>
</g>
<g>
</g>
<g>
</g>
<g>
</g>
<g>
</g>
<g>
</g>
</svg>
