<?xml version="1.0" encoding="iso-8859-1"?>
<!-- Generator: Adobe Illustrator 19.0.0, SVG Export Plug-In . SVG Version: 6.00 Build 0)  -->
<svg version="1.1" id="Layer_1" xmlns="http://www.w3.org/2000/svg" xmlns:xlink="http://www.w3.org/1999/xlink" x="0px" y="0px"
	 viewBox="0 0 512.001 512.001" style="enable-background:new 0 0 512.001 512.001;" xml:space="preserve">
<g>
	<g>
		<path d="M209.349,442.172h-46.547c-6.43,0-11.641,5.219-11.641,11.641s5.211,11.641,11.641,11.641h46.547
			c6.422,0,11.633-5.219,11.633-11.641S215.771,442.172,209.349,442.172z"/>
	</g>
</g>
<g>
	<g>
		<path d="M348.981,442.172c-6.422,0-11.641,5.219-11.641,11.641s5.219,11.641,11.641,11.641s11.641-5.219,11.641-11.641
			S355.403,442.172,348.981,442.172z"/>
	</g>
</g>
<g>
	<g>
		<path d="M459.685,11.625c-2,0-3.938,0.203-5.812,0.594V0h-23.282h-34.906c-12.859,0-23.281,10.422-23.281,23.266v93.094
			c0,12.859,10.422,23.266,23.281,23.266h34.859l-0.047,302.547h-23.344V232.719c0-12.844-10.406-23.266-23.266-23.266h-256
			c-12.852,0-23.266,10.422-23.266,23.266v209.453H81.505L81.45,139.625h34.867c12.852,0,23.273-10.406,23.273-23.266V23.266
			C139.591,10.422,129.169,0,116.317,0H81.403H58.13v12.219c-1.875-0.391-3.82-0.594-5.812-0.594
			c-16.07,0-29.094,13.031-29.094,29.094v40.734c0,6.422,5.211,11.641,11.641,11.641c6.422,0,11.633-5.219,11.633-11.641V69.234
			V40.719c0-3.203,2.609-5.812,5.82-5.812c3.203,0,5.812,2.609,5.812,5.812l0.023,96.469c-0.078,0.812-0.125,1.625-0.125,2.438
			l0.055,302.547c0,12.859,10.422,23.281,23.273,23.281h0.148h23.117v23.266c0,12.859,10.414,23.281,23.266,23.281h256
			c12.859,0,23.266-10.422,23.266-23.281v-23.266h23.344c12.844,0,23.266-10.422,23.266-23.281l0.109-401.453
			c0-3.203,2.594-5.812,5.812-5.812c3.203,0,5.812,2.609,5.812,5.812v28.516v12.219c0,6.422,5.219,11.641,11.625,11.641
			c6.438,0,11.656-5.219,11.656-11.641V40.719C488.778,24.656,475.747,11.625,459.685,11.625z M81.411,116.36l-0.008-93.094h34.914
			v11.656c-0.07,0-0.141-0.016-0.211-0.016c-6.422,0-11.633,5.203-11.633,11.641c0,6.422,5.211,11.625,11.633,11.625
			c0.07,0,0.141,0,0.211,0v23.297c-0.07-0.016-0.141-0.016-0.211-0.016c-6.422,0-11.633,5.203-11.633,11.641
			c0,6.422,5.211,11.625,11.633,11.625c0.07,0,0.141,0,0.211,0v11.641H81.56h-0.109h-0.023H81.411z M383.888,488.719h-256v-69.812
			h256V488.719z M383.888,395.625h-256v-69.813h98.648L243.153,305l22.219,66.641l36.188-45.828h82.328V395.625z M383.888,302.547
			h-93.594l-16.484,20.859L251.685,257l-36.352,45.547h-87.445v-69.828h256V302.547z M430.591,116.359h-0.031c0,0,0,0-0.016,0
			h-0.109h-34.75v-11.641c0.062,0,0.125,0,0.203,0c6.422,0,11.641-5.203,11.641-11.625c0-6.438-5.219-11.641-11.641-11.641
			c-0.078,0-0.141,0-0.203,0.016V58.172c0.062,0,0.125,0,0.203,0c6.422,0,11.641-5.203,11.641-11.625
			c0-6.438-5.219-11.641-11.641-11.641c-0.078,0-0.141,0.016-0.203,0.016V23.266h34.906V116.359z"/>
	</g>
</g>
<g>
</g>
<g>
</g>
<g>
</g>
<g>
</g>
<g>
</g>
<g>
</g>
<g>
</g>
<g>
</g>
<g>
</g>
<g>
</g>
<g>
</g>
<g>
</g>
<g>
</g>
<g>
</g>
<g>
</g>
</svg>
