<?xml version="1.0" encoding="iso-8859-1"?>
<!-- Generator: Adobe Illustrator 19.0.0, SVG Export Plug-In . SVG Version: 6.00 Build 0)  -->
<svg version="1.1" id="Layer_1" xmlns="http://www.w3.org/2000/svg" xmlns:xlink="http://www.w3.org/1999/xlink" x="0px" y="0px"
	 viewBox="0 0 511.998 511.998" style="enable-background:new 0 0 511.998 511.998;" xml:space="preserve">
<g>
	<g>
		<path d="M508.875,100.507l-15.086-15.094l8.016-8.016c8.328-8.328,8.328-21.828,0-30.172l-30.172-30.156
			c-4.164-4.172-9.625-6.25-15.086-6.25s-10.914,2.078-15.086,6.25L290.617,167.913c-4.172-4.172-9.625-6.25-15.086-6.25
			s-10.922,2.078-15.086,6.25L75.43,352.937c-8.328,8.312-8.328,21.812,0,30.156l15.07,15.062c0.001,0,0.002,0.005,0.003,0.005
			c-16.659,16.688-16.657,43.684,0.005,60.339c4.156,4.156,4.156,10.938,0,15.094c-8.32,8.312-21.852,8.312-30.172,0
			c-16.656-16.656-43.672-16.656-60.336,0l15.086,15.094c8.312-8.312,21.852-8.312,30.164,0c16.664,16.656,43.68,16.656,60.344,0
			c12.492-12.5,12.492-32.781,0-45.25c-8.32-8.344-8.32-21.875,0-30.188h0.008c0.008,0.031,0.016,0.031,0.023,0.031l15.062,15.062
			c4.164,4.156,9.625,6.25,15.086,6.25s10.922-2.094,15.086-6.25l185.008-185.008c8.336-8.328,8.336-21.844,0-30.172
			l105.594-105.593c4.172,4.172,9.625,6.25,15.086,6.25s10.922-2.078,15.086-6.25l7.07-7.062l15.086,15.078
			c4.172,4.172,10.922,4.172,15.086,0C513.039,111.413,513.039,104.663,508.875,100.507z M135.773,413.249l-45.257-45.25
			l52.797-52.781c4.172,4.156,10.922,4.156,15.086,0c4.164-4.188,4.164-10.938,0-15.094l15.086-15.094
			c4.164,4.188,10.922,4.188,15.086,0c4.164-4.156,4.164-10.906,0-15.062l15.477-15.492c4.164,4.172,10.922,4.172,15.086,0
			c4.164-4.156,4.164-10.922,0-15.078l56.398-56.406l45.25,45.266L135.773,413.249z M320.781,198.085l-15.078-15.094L411.297,77.397
			l15.078,15.094L320.781,198.085z M456.547,92.491l-30.164-30.172l30.164-30.172l30.172,30.172L456.547,92.491z"/>
	</g>
</g>
<g>
</g>
<g>
</g>
<g>
</g>
<g>
</g>
<g>
</g>
<g>
</g>
<g>
</g>
<g>
</g>
<g>
</g>
<g>
</g>
<g>
</g>
<g>
</g>
<g>
</g>
<g>
</g>
<g>
</g>
</svg>
