<?xml version="1.0" encoding="iso-8859-1"?>
<!-- Generator: Adobe Illustrator 19.0.0, SVG Export Plug-In . SVG Version: 6.00 Build 0)  -->
<svg version="1.1" id="Layer_1" xmlns="http://www.w3.org/2000/svg" xmlns:xlink="http://www.w3.org/1999/xlink" x="0px" y="0px"
	 viewBox="0 0 512 512" style="enable-background:new 0 0 512 512;" xml:space="preserve">
<g>
	<g>
		<path d="M410.546,18.75C398.062,6.25,381.671,0,365.296,0s-32.75,6.25-45.25,18.75c-22.422,22.422-24.719,57.328-6.906,82.328
			l-98.688,98.688l-15.094-15.078L17.186,366.859c-12.5,12.5-12.5,32.766,0,45.266c6.234,6.25,14.438,9.375,22.625,9.375
			c8.187,0,16.375-3.125,22.625-9.375l182.188-182.188l-15.094-15.078l98.688-98.688C339.28,124.047,352.296,128,365.296,128
			c16.375,0,32.766-6.25,45.25-18.734C435.546,84.266,435.546,43.75,410.546,18.75z M47.342,397.031
			c-2.703,2.719-5.891,3.125-7.531,3.125c-1.656,0-4.828-0.406-7.547-3.125c-4.156-4.156-4.156-10.922,0-15.078l136.922-136.922
			l15.094,15.078L47.342,397.031z M199.358,245.031l-15.078-15.094l15.078-15.078l15.094,15.078L199.358,245.031z M395.468,94.172
			c-8.062,8.063-18.766,12.5-30.172,12.5c-11.391,0-22.109-4.438-30.172-12.5c-16.625-16.641-16.625-43.703,0-60.344
			c8.062-8.047,18.781-12.484,30.172-12.484c11.406,0,22.109,4.438,30.172,12.484c8.062,8.062,12.5,18.781,12.5,30.172
			C407.968,75.406,403.53,86.109,395.468,94.172z"/>
	</g>
</g>
<g>
	<g>
		<path d="M503.983,175.047L488.89,99.625c-0.391-2-1.359-3.906-2.906-5.453c-4.172-4.156-10.922-4.156-15.094,0
			c-2.609,2.625-3.578,6.266-2.906,9.641l12.531,62.656h-47.328c-2.734,0-5.469,1.047-7.547,3.125L304.952,290.281l-15.078-15.094
			L107.686,457.375c-12.5,12.5-12.5,32.766,0,45.25c6.25,6.25,14.438,9.375,22.625,9.375c8.203,0,16.391-3.125,22.641-9.375
			l182.172-182.172l-15.078-15.094l117.547-117.547h55.922c2.734,0,5.469-1.047,7.547-3.125
			C503.687,182.062,504.655,178.422,503.983,175.047z M137.858,487.547c-2.719,2.719-5.891,3.125-7.547,3.125
			c-1.641,0-4.812-0.406-7.531-3.125s-3.125-5.891-3.125-7.547c0-1.641,0.406-4.812,3.125-7.531l136.922-136.938l15.094,15.094
			L137.858,487.547z M289.874,335.531l-15.078-15.078l15.078-15.094l15.078,15.094L289.874,335.531z"/>
	</g>
</g>
<g>
</g>
<g>
</g>
<g>
</g>
<g>
</g>
<g>
</g>
<g>
</g>
<g>
</g>
<g>
</g>
<g>
</g>
<g>
</g>
<g>
</g>
<g>
</g>
<g>
</g>
<g>
</g>
<g>
</g>
</svg>
