<?xml version="1.0" encoding="iso-8859-1"?>
<!-- Generator: Adobe Illustrator 19.0.0, SVG Export Plug-In . SVG Version: 6.00 Build 0)  -->
<svg version="1.1" id="Layer_1" xmlns="http://www.w3.org/2000/svg" xmlns:xlink="http://www.w3.org/1999/xlink" x="0px" y="0px"
	 viewBox="0 0 512 512" style="enable-background:new 0 0 512 512;" xml:space="preserve">
<g>
	<g>
		<path d="M379.75,265.297c9.531-18.812,14.922-40.094,14.922-62.625C394.672,126.086,332.578,64,256,64
			s-138.672,62.086-138.672,138.672c0,22.531,5.375,43.812,14.922,62.625C53.391,278.016,0,302.516,0,330.672v42.656
			C0,414.578,114.609,448,256,448s256-33.422,256-74.672v-42.656C512,302.516,458.594,278.016,379.75,265.297z M431.031,298.359
			c21.031,6.125,37.875,13.312,48.734,20.812c8.891,6.125,10.891,10.469,10.891,11.5c0,0.844-1.375,3.984-6.938,8.531
			c-28.156-15.953-75.453-28.562-133.016-35.25c6.172-5.781,11.828-12.125,16.875-18.953
			C391.094,288.453,412.391,292.922,431.031,298.359z M461.686,351.999c-8.75,3.891-19.062,7.609-30.656,10.984
			c-22.406,6.531-48.641,11.688-78,15.312c-27.453,3.375-56.453,5.281-86.375,5.625v-42.982h0.001
			c21.219-1.609,41.094-8.016,58.562-18.094c9.422,0.797,18.703,1.734,27.812,2.859c29.359,3.625,55.594,8.781,78,15.312
			C442.624,344.39,452.936,348.109,461.686,351.999z M173.031,119.703C195.188,97.539,224.656,85.344,256,85.344
			c31.328,0,60.812,12.195,82.969,34.359c22.156,22.156,34.359,51.633,34.359,82.969c0,31.344-12.203,60.812-34.359,82.969
			S287.328,320.016,256,320.016c-31.344,0-60.812-12.219-82.969-34.375s-34.375-51.625-34.375-82.969
			C138.656,171.336,150.875,141.859,173.031,119.703z M245.328,340.938v42.984c-29.906-0.344-58.922-2.25-86.375-5.625
			c-29.344-3.625-55.594-8.781-78.016-15.312c-11.562-3.375-21.875-7.094-30.625-10.984c8.75-3.891,19.062-7.609,30.625-10.984
			c22.422-6.531,48.672-11.688,78.016-15.312c9.109-1.125,18.391-2.062,27.812-2.859
			C204.234,332.922,224.109,339.328,245.328,340.938z M32.234,319.172c10.844-7.5,27.703-14.688,48.703-20.812
			c18.656-5.438,39.953-9.906,63.484-13.359c5.047,6.828,10.688,13.172,16.875,18.953c-57.578,6.688-104.859,19.297-133.031,35.25
			c-5.547-4.547-6.938-7.688-6.938-8.531C21.328,329.641,23.344,325.297,32.234,319.172z M490.657,373.328
			c-0.001,1.031-2.001,5.375-10.891,11.5c-10.859,7.5-27.703,14.688-48.734,20.812c-22.406,6.547-48.641,11.703-78,15.312
			c-30.688,3.797-63.344,5.719-97.031,5.719s-66.344-1.922-97.047-5.719c-29.344-3.609-55.594-8.766-78.016-15.312
			c-21-6.125-37.859-13.312-48.703-20.812c-8.891-6.125-10.906-10.469-10.906-11.5v-12.781c38.172,25.469,123.641,43.516,224,44.719
			v0.062h21.328v-0.062c100.359-1.203,185.828-19.25,224-44.719V373.328z"/>
	</g>
</g>
<g>
	<g>
		<path d="M256,170.664c-17.672,0-32,14.336-32,32.008s14.328,32,32,32s31.984-14.328,31.984-32S273.672,170.664,256,170.664z
			 M256,213.336c-5.891,0-10.672-4.781-10.672-10.664s4.781-10.664,10.672-10.664c5.875,0,10.656,4.781,10.656,10.664
			S261.875,213.336,256,213.336z"/>
	</g>
</g>
<g>
	<g>
		<path d="M255.999,106.672c-53.031,0-96,42.984-96,96c0,0.359-0.016,0.984,0,1.336c0,5.891,4.766,10.664,10.656,10.664
			c5.907,0,10.673-4.774,10.673-10.664c0-0.445,0-0.891,0-1.336c0-19.945,7.766-38.695,21.859-52.797
			c14.094-14.086,32.891-21.852,52.812-21.867c5.875,0,10.656-4.781,10.656-10.672C266.655,111.453,261.874,106.672,255.999,106.672
			z"/>
	</g>
</g>
<g>
</g>
<g>
</g>
<g>
</g>
<g>
</g>
<g>
</g>
<g>
</g>
<g>
</g>
<g>
</g>
<g>
</g>
<g>
</g>
<g>
</g>
<g>
</g>
<g>
</g>
<g>
</g>
<g>
</g>
</svg>
