<?xml version="1.0" encoding="iso-8859-1"?>
<!-- Generator: Adobe Illustrator 19.0.0, SVG Export Plug-In . SVG Version: 6.00 Build 0)  -->
<svg version="1.1" id="Layer_1" xmlns="http://www.w3.org/2000/svg" xmlns:xlink="http://www.w3.org/1999/xlink" x="0px" y="0px"
	 viewBox="0 0 512 512" style="enable-background:new 0 0 512 512;" xml:space="preserve">
<g>
	<g>
		<path d="M401.789,42.695C324.914,42.695,316.898,0,256.008,0s-68.922,42.695-145.797,42.695c-1.172,0-2.344-0.008-3.547-0.031
			v341.352c0,11.781,9.562,21.344,21.344,21.344h117.328v21.312h-21.328V512h64v-85.328h-21.344V405.36h117.344
			c11.781,0,21.328-9.562,21.328-21.344V42.664C404.148,42.688,402.961,42.695,401.789,42.695z M266.664,490.672h-21.328V448
			c0,5.891,4.781,10.672,10.672,10.672s10.656-4.781,10.656-10.672V490.672z M200.836,341.36l-30.172-30.188v-65.828h170.672v65.828
			l-30.172,30.188H200.836z M170.664,224.008V106.68h170.672v117.328H170.664z M384.009,384.016L384.009,384.016H266.664v-21.344
			h53.344l42.656-42.656V85.352H149.336v234.664l42.672,42.656h53.328v21.344H128.008V63.281
			c13.516-1.172,26.016-3.742,37.875-7.766c14.797-5.023,26.578-11.602,36.969-17.406c16.781-9.375,30.031-16.773,53.156-16.773
			c23.109,0,36.359,7.398,53.141,16.773c10.391,5.805,22.172,12.383,36.969,17.406c11.859,4.023,24.375,6.594,37.891,7.766V384.016z
			"/>
	</g>
</g>
<g>
	<g>
		<path d="M256.008,42.664c-5.891,0-10.672,4.781-10.672,10.672S250.117,64,256.008,64s10.656-4.773,10.656-10.664
			S261.898,42.664,256.008,42.664z"/>
	</g>
</g>
<g>
</g>
<g>
</g>
<g>
</g>
<g>
</g>
<g>
</g>
<g>
</g>
<g>
</g>
<g>
</g>
<g>
</g>
<g>
</g>
<g>
</g>
<g>
</g>
<g>
</g>
<g>
</g>
<g>
</g>
</svg>
