<?xml version="1.0" encoding="iso-8859-1"?>
<!-- Generator: Adobe Illustrator 19.0.0, SVG Export Plug-In . SVG Version: 6.00 Build 0)  -->
<svg version="1.1" id="Layer_1" xmlns="http://www.w3.org/2000/svg" xmlns:xlink="http://www.w3.org/1999/xlink" x="0px" y="0px"
	 viewBox="0 0 512 512" style="enable-background:new 0 0 512 512;" xml:space="preserve">
<g>
	<g>
		<path d="M256,0C114.609,0,0,114.625,0,256c0,141.391,114.609,256,256,256s256-114.609,256-256C512,114.625,397.391,0,256,0z
			 M421.938,421.938c-21.562,21.562-46.656,38.484-74.609,50.297c-28.906,12.234-59.641,18.438-91.328,18.438
			s-62.422-6.203-91.344-18.438c-27.938-11.812-53.031-28.734-74.594-50.297s-38.484-46.656-50.297-74.594
			C27.531,318.422,21.328,287.688,21.328,256s6.203-62.422,18.438-91.328c11.812-27.953,28.734-53.047,50.297-74.609
			c2.828-2.828,5.719-5.562,8.672-8.234c7.062,4.578,20.281,13.688,33.375,25.75c16.766,15.453,36.641,38.906,36.078,62.844
			c-0.453,19.422-9.016,24.031-21.984,31.031c-15.266,8.219-36.156,19.484-33.312,59.672c1.25,17.703,10.484,33.062,27.469,45.672
			c12.5,9.297,29.312,17.109,49.984,23.219c3.234,0.953,6.453,1.828,9.641,2.641c-0.531,1.609-1.016,3.125-1.453,4.469
			c-0.25,0.828-0.547,1.734-0.812,2.547c-1.234,0.391-1.781,0.422-1.922,0.422c-0.344-0.062-1.547-0.625-2.438-1.031
			c-3.594-1.656-9.047-4.172-18.812-5.234c-0.969-0.094-1.969-0.156-2.969-0.156c-10.828,0-22.312,6.219-34.125,18.453
			c-7.922,8.234-13.312,16.422-13.547,16.766l-4.562,6.969l35.359,38.203l20.656-8.953c18.766,19.875,42.078,30.328,67.891,30.328
			c0.016,0,0.016,0,0.016,0c22.781,0,46.594-8.078,68.844-23.359c20.531-14.109,38.312-33.594,50.078-54.859
			c17.141-31.016,19.938-62.531,8.172-88.016c33.797-16.234,57.203-50.797,57.203-90.734c0-55.469-45.125-100.578-100.578-100.578
			c-55.469,0-100.594,45.109-100.594,100.578c0,27.609,11.203,52.672,29.281,70.859c-0.844,0.094-1.672,0.156-2.5,0.156
			c-0.516,0-1.016-0.016-1.531-0.047l-45.766-17.75l-20.688,35.781l33.891,32.484c-4.125,4.172-7.438,8.594-10.109,12.953
			c-4.25-1.016-8.562-2.172-12.891-3.453c-27.203-8.078-60.031-23.281-61.922-49.828c-1.859-26.453,7.703-31.594,22.172-39.406
			c13.688-7.375,32.453-17.484,33.188-49.297c1.094-46.812-49.812-87.078-73.531-103.266C131,56.453,147.281,47.125,164.656,39.766
			C193.578,27.547,224.312,21.344,256,21.344s62.422,6.203,91.328,18.422c27.953,11.828,53.047,28.75,74.609,50.297
			c21.547,21.562,38.484,46.656,50.297,74.609c12.234,28.906,18.438,59.641,18.438,91.328s-6.203,62.422-18.438,91.344
			C460.422,375.281,443.484,400.375,421.938,421.938z M212.049,263.655l3.156-5.484l31.281,12.141l1.281,0.156
			c1.781,0.234,3.594,0.359,5.406,0.359c7.921,0.001,15.546-2.202,22.624-5.811c15,8.906,32.5,14.031,51.188,14.031
			c7.953,0,15.703-0.938,23.125-2.688c9.875,19.516,7.562,44.906-6.594,70.531c-21.531,38.953-63.688,67.219-100.266,67.219
			c-22.047,0-41.156-9.641-56.766-28.656l-5.109-6.219l-21.281,9.25l-13.453-14.547c7.375-9.188,17.844-18.922,24.938-18.922
			c0.234,0,0.453,0,0.672,0.031c6.297,0.672,9.281,2.062,12.172,3.391c2.875,1.328,6.469,2.984,11.391,2.984
			c3.984,0,8.172-1.047,13.578-3.422c5.672-2.469,7.344-7.734,9.469-14.391c3.094-9.719,7.781-24.406,22.219-34.375l10.766-7.422
			L212.049,263.655z M247.734,178.469c0-43.703,35.547-79.25,79.25-79.25c43.688,0,79.234,35.547,79.234,79.25
			c0.001,43.687-35.546,79.25-79.234,79.25C283.281,257.719,247.734,222.157,247.734,178.469z"/>
	</g>
</g>
<g>
</g>
<g>
</g>
<g>
</g>
<g>
</g>
<g>
</g>
<g>
</g>
<g>
</g>
<g>
</g>
<g>
</g>
<g>
</g>
<g>
</g>
<g>
</g>
<g>
</g>
<g>
</g>
<g>
</g>
</svg>
