<?xml version="1.0" encoding="iso-8859-1"?>
<!-- Generator: Adobe Illustrator 19.0.0, SVG Export Plug-In . SVG Version: 6.00 Build 0)  -->
<svg version="1.1" id="Layer_1" xmlns="http://www.w3.org/2000/svg" xmlns:xlink="http://www.w3.org/1999/xlink" x="0px" y="0px"
	 viewBox="0 0 512 512" style="enable-background:new 0 0 512 512;" xml:space="preserve">
<g>
	<g>
		<path d="M298.672,127.992V85.336h-64v42.656H192v64h42.672v42.672h64v-42.672h42.656v-64H298.672z M320,170.664h-42.672v42.672
			H256v-42.672h-42.672v-21.328H256v-42.672h21.328v42.672H320V170.664z"/>
	</g>
</g>
<g>
	<g>
		<path d="M448,255.992v64H170.672v-10.656c0-17.688-14.328-32-32-32H64v-98.234H0v247.562h64v-42.672h384v42.672h64V255.992H448z
			 M42.672,405.336H21.328V200.445h21.344V405.336z M64,298.664h74.672c5.875,0,10.656,4.781,10.656,10.672v10.656H64V298.664z
			 M448,362.664h-21.328c0-5.891-4.781-10.672-10.672-10.672s-10.672,4.781-10.672,10.672h-42.656
			c0-5.891-4.781-10.672-10.672-10.672s-10.672,4.781-10.672,10.672h-42.656c0-5.891-4.781-10.672-10.672-10.672
			s-10.672,4.781-10.672,10.672h-42.656c0-5.891-4.781-10.672-10.672-10.672s-10.672,4.781-10.672,10.672h-42.656
			c0-5.891-4.781-10.672-10.672-10.672s-10.672,4.781-10.672,10.672h-42.656c0-5.891-4.781-10.672-10.672-10.672
			s-10.672,4.781-10.672,10.672H64v-21.328h106.672H448V362.664z M490.672,405.336h-21.344v-128h21.344V405.336z"/>
	</g>
</g>
<g>
</g>
<g>
</g>
<g>
</g>
<g>
</g>
<g>
</g>
<g>
</g>
<g>
</g>
<g>
</g>
<g>
</g>
<g>
</g>
<g>
</g>
<g>
</g>
<g>
</g>
<g>
</g>
<g>
</g>
</svg>
