<?xml version="1.0" encoding="iso-8859-1"?>
<!-- Generator: Adobe Illustrator 19.0.0, SVG Export Plug-In . SVG Version: 6.00 Build 0)  -->
<svg version="1.1" id="Layer_1" xmlns="http://www.w3.org/2000/svg" xmlns:xlink="http://www.w3.org/1999/xlink" x="0px" y="0px"
	 viewBox="0 0 512 512" style="enable-background:new 0 0 512 512;" xml:space="preserve">
<g>
	<g>
		<path d="M512,265.316c0-17.062-11.5-32.102-27.969-36.57l-3.094-1l1.125-2.922c1.781-4.516,2.688-9.219,2.688-14
			c0-20.922-17.031-37.938-37.969-37.938H305.188h-8.219l6.438-5.266c13.5-10.484,18.375-28.828,11.781-44.641
			c-5.906-14.172-19.656-23.328-35.031-23.328c-5.031,0-9.938,1-14.625,2.953L72.688,182.48
			c-21.281,9.109-39.406,24.109-52.375,43.391C7,245.629,0,268.691,0,292.598c0,32,12.438,62.094,35.062,84.688
			c22.625,22.625,52.688,35.062,84.688,35.062c1.094,0,2.25,0,3.438-0.031h269.094c20.906,0,37.938-17.031,37.938-37.938
			c0-4.344-0.719-8.594-2.188-12.656l-1.406-3.906h4.188h15.969c20.938,0,37.969-17.031,37.969-37.969
			c0-4.781-0.906-9.5-2.688-13.969l-1.188-3.062l3.156-0.875C500.5,297.473,512,282.41,512,265.316z M21.375,292.598
			c0-26.281,10.219-50.977,28.781-69.539c10.188-10.156,22.625-18.094,36.031-22.953v-0.016l-0.125-0.141l0.188-0.062l3.531-1.469
			l2.375-0.984L24.031,315.441C22.281,308.035,21.375,300.41,21.375,292.598z M33.969,340.879l90.562-156.836l32.375-13.391
			L47.75,359.691C42.375,353.91,37.75,347.598,33.969,340.879z M64.219,373.848L189.25,157.262l84.469-34.938l0.5-0.203l0.031-0.016
			h0.031h0.031c1.875-0.719,3.844-1.078,5.844-1.078c6.719,0,12.719,4,15.281,10.172c2.312,5.469,1.031,10.297,0.062,12.703
			c-0.969,2.359-3.406,6.672-8.906,8.969L192.5,194.246L83.031,383.941C76.438,381.285,70.125,377.91,64.219,373.848z
			 M119.75,391.004c-5.219,0-10.406-0.438-15.469-1.219l112.906-195.539h24.625L128.219,390.973
			C123,390.973,119.969,391.004,119.75,391.004z M152.844,390.973l14.5-25.094l14.5,25.094
			C171.156,390.973,161.375,390.973,152.844,390.973z M206.469,390.973l-26.812-46.438l12.312-21.312l39.125,67.75
			C222.719,390.973,214.469,390.973,206.469,390.973z M474.062,281.91h-201.5v21.375h174.219c9.156,0,16.562,7.438,16.562,16.562
			s-7.406,16.562-16.562,16.562H272.562v21.406h119.719c9.156,0,16.594,7.406,16.594,16.562c0,9.125-7.438,16.562-16.594,16.562
			c-1.219,0-68.938,0-136.562,0.031l-51.406-89.094l62.125-107.633h180.344c9.156,0,16.562,7.438,16.562,16.578
			c0,9.125-7.406,16.562-16.562,16.562h-174.22v21.367h201.5c9.156,0,16.562,7.438,16.562,16.562
			C490.625,274.473,483.219,281.91,474.062,281.91z"/>
	</g>
</g>
<g>
</g>
<g>
</g>
<g>
</g>
<g>
</g>
<g>
</g>
<g>
</g>
<g>
</g>
<g>
</g>
<g>
</g>
<g>
</g>
<g>
</g>
<g>
</g>
<g>
</g>
<g>
</g>
<g>
</g>
</svg>
