<?xml version="1.0" encoding="iso-8859-1"?>
<!-- Generator: Adobe Illustrator 19.0.0, SVG Export Plug-In . SVG Version: 6.00 Build 0)  -->
<svg version="1.1" id="Layer_1" xmlns="http://www.w3.org/2000/svg" xmlns:xlink="http://www.w3.org/1999/xlink" x="0px" y="0px"
	 viewBox="0 0 512.008 512.008" style="enable-background:new 0 0 512.008 512.008;" xml:space="preserve">
<g>
	<g>
		<path d="M323.454,163.586C355.345,116.227,343.016,0,255.579,0c-6.359,0-13.125,0.617-20.297,1.922
			C110.704,24.547,98.688,157.258,98.344,203.609c0.344,46.352,12.359,179.055,136.938,201.68
			c7.172,1.312,13.938,1.922,20.297,1.922c61.204,0,85.61-56.922,83.813-107.328c26.562,78.953,14.031,212.125,14.031,212.125
			h58.453C424.22,260.031,370.251,183.649,323.454,163.586z M317.22,320.227c-2.359,18.984-9.078,35.719-18.906,47.094
			c-5.047,5.859-10.953,10.375-17.578,13.438c-7.344,3.406-15.797,5.125-25.157,5.125c-5.188,0-10.734-0.531-16.484-1.578
			c-25.016-4.547-46.438-14.5-63.656-29.594c-14.625-12.828-26.641-29.656-35.719-50.047
			c-17.031-38.219-19.859-79.648-20.031-101.055c0.172-21.406,3-62.852,20.031-101.062c9.078-20.391,21.094-37.227,35.719-50.047
			c17.219-15.094,38.641-25.047,63.656-29.594c5.75-1.047,11.297-1.57,16.484-1.57c9.36,0,17.813,1.719,25.157,5.117
			c6.609,3.062,12.516,7.586,17.578,13.438c9.828,11.391,16.531,28.117,18.891,47.094c4.672,37.539-8.688,70.945-23.297,74.633
			l-25.078,6.336l11,23.422c0.016,0.039,1.922,4.922,1.703,11.539l-0.031,0.695l0.031,0.688c0.203,6.133-1.422,10.758-1.797,11.719
			L267.83,239.01l26.078,6.586C308.517,249.289,321.892,282.695,317.22,320.227z M391.423,490.664h-15.109
			c1.078-19.797,2.094-50.188,0.797-83.406c-3.094-78.984-17.734-133.391-43.5-161.695c-9.766-10.719-21.344-17.977-34.125-21.492
			c1-2.469,3.703-10.211,3.375-20.461c0.391-12.531-3.734-21.305-3.734-21.305c2.172-0.547,4.25-1.312,6.25-2.258
			c11.797,2.719,22.625,9.211,32.328,19.383c18.203,19.133,32.141,50.508,41.422,93.266
			C390.189,343.695,394.314,410.227,391.423,490.664z"/>
	</g>
</g>
<g>
</g>
<g>
</g>
<g>
</g>
<g>
</g>
<g>
</g>
<g>
</g>
<g>
</g>
<g>
</g>
<g>
</g>
<g>
</g>
<g>
</g>
<g>
</g>
<g>
</g>
<g>
</g>
<g>
</g>
</svg>
