<?xml version="1.0" encoding="iso-8859-1"?>
<!-- Generator: Adobe Illustrator 19.0.0, SVG Export Plug-In . SVG Version: 6.00 Build 0)  -->
<svg version="1.1" id="Layer_1" xmlns="http://www.w3.org/2000/svg" xmlns:xlink="http://www.w3.org/1999/xlink" x="0px" y="0px"
	 viewBox="0 0 511.997 511.997" style="enable-background:new 0 0 511.997 511.997;" xml:space="preserve">
<g>
	<g>
		<path d="M419.003,85.662c-38.203,0-78.313,4.305-99.126,6.766c-11.453,1.359-22.781,1.922-34,1.922
			c-50.851,0-100.156-11.484-154.93-12.477c-1.367-0.023-2.75-0.031-4.094-0.031C-49.359,81.818,9.408,291.811,9.408,352.062
			c0,59.891-17.313,78.094,17.727,78.094c0.477,0,0.969,0,1.469-0.016c68.531-0.922,93.961-29.359,117.25-51.547
			c1.945,2.031,4.664,3.281,7.672,3.281c5.891,0,10.672-4.781,10.672-10.672c0-2.422-0.82-4.641-2.18-6.453
			c7.883-5.656,16.524-9.844,27.282-11.469c197.891-29.845,294.58-134.923,321.548-227.627
			C520.16,93.74,471.348,85.662,419.003,85.662z M287.94,240.318c2.062,21.68,6.781,42.367,14.062,61.758
			c-35.031,13.673-73.968,23.782-115.882,30.111c-27.04,4.062-43.336,19.751-59.094,34.907c-10.383,10-21.11,20.328-35.844,28.031
			C74.237,404,53.674,408.469,28.315,408.813c-0.398,0-0.797,0-1.18,0c-0.156,0-0.305,0-0.453,0
			c0.266-3.281,0.703-7.219,1.086-10.688c1.258-11.25,2.977-26.688,2.977-46.062c0-11.157-1.68-25.845-3.617-42.845
			c-3.227-28.281-7.25-63.5-5.266-96.969c1.031-17.415,3.641-32.836,7.75-45.853c4.461-14.094,10.852-25.867,18.992-34.992
			c7.914-8.867,17.5-15.461,29.305-20.141c13.531-5.367,29.984-8.094,48.922-8.094h0.023c1.227,0,2.477,0.016,3.711,0.039
			c25.695,0.461,50.79,3.406,75.063,6.258c26.047,3.055,52.984,6.219,80.25,6.219c5.875,0,11.547-0.148,17.109-0.438
			c-4.172,12.719-9.219,30.969-12.578,52.773C286.597,192.841,285.753,217.162,287.94,240.318z M490.379,119.693
			c-6.438,22.109-16.844,43.781-30.938,64.407c-15.547,22.758-35.25,43.704-58.563,62.243c-23.078,18.375-49.672,34.312-79.157,47.5
			c-16.688-45.047-15.125-90.305-10.312-121.954c4-26.43,10.812-47.555,14.906-58.727c35.407-4.086,66.595-6.164,92.688-6.164
			c20.938,0,38.157,1.344,51.173,3.992c14.297,2.906,19.172,6.547,20.438,7.703C490.566,118.943,490.504,119.271,490.379,119.693z"
			/>
	</g>
</g>
<g>
</g>
<g>
</g>
<g>
</g>
<g>
</g>
<g>
</g>
<g>
</g>
<g>
</g>
<g>
</g>
<g>
</g>
<g>
</g>
<g>
</g>
<g>
</g>
<g>
</g>
<g>
</g>
<g>
</g>
</svg>
