<?xml version="1.0" encoding="iso-8859-1"?>
<!-- Generator: Adobe Illustrator 19.0.0, SVG Export Plug-In . SVG Version: 6.00 Build 0)  -->
<svg version="1.1" id="Layer_1" xmlns="http://www.w3.org/2000/svg" xmlns:xlink="http://www.w3.org/1999/xlink" x="0px" y="0px"
	 viewBox="0 0 512.008 512.008" style="enable-background:new 0 0 512.008 512.008;" xml:space="preserve">
<g>
	<g>
		<path d="M373.395,106.664V21.336C373.395,9.555,363.833,0,352.051,0H159.957c-11.781,0-21.312,9.555-21.312,21.336v85.328
			c-35.344,0.031-63.969,28.672-63.969,64v277.344c0,35.344,28.656,64,64,64h234.656c35.375,0,64-28.656,64-64V170.664
			C437.332,135.336,408.707,106.695,373.395,106.664z M159.957,21.336h42.906V64c0,5.891,4.781,10.664,10.688,10.664
			c5.875,0,10.656-4.773,10.656-10.664V21.336h63.812V64c0,5.891,4.781,10.664,10.656,10.664c5.906,0,10.656-4.773,10.656-10.664
			V21.336h42.719v85.328H159.957V21.336z M416.02,448.008c0,23.516-19.156,42.656-42.688,42.656H138.676
			c-23.531,0-42.656-19.141-42.656-42.656V170.664c0-23.523,19.125-42.664,42.656-42.664h234.656
			c23.531,0,42.688,19.141,42.688,42.664V448.008z"/>
	</g>
</g>
<g>
	<g>
		<path d="M160.02,149.336h-21.344c-11.781,0-21.344,9.547-21.344,21.328v288c0,5.891,4.781,10.672,10.688,10.672
			c5.875,0,10.656-4.781,10.656-10.672v-288h21.344c5.875,0,10.656-4.773,10.656-10.664
			C170.676,154.109,165.895,149.336,160.02,149.336z"/>
	</g>
</g>
<g>
	<g>
		<path d="M288.02,277.336v-42.672h-64v42.672h-42.688v64h42.688v42.672h64v-42.672h42.656v-64H288.02z M309.332,320.008H288.02
			h-21.344v21.328v21.328h-21.344v-21.328v-21.328H224.02h-21.344v-21.344h21.344h21.312v-21.328V256h21.344v21.336v21.328h21.344
			h21.312V320.008z"/>
	</g>
</g>
<g>
</g>
<g>
</g>
<g>
</g>
<g>
</g>
<g>
</g>
<g>
</g>
<g>
</g>
<g>
</g>
<g>
</g>
<g>
</g>
<g>
</g>
<g>
</g>
<g>
</g>
<g>
</g>
<g>
</g>
</svg>
