<?xml version="1.0" encoding="iso-8859-1"?>
<!-- Generator: Adobe Illustrator 19.0.0, SVG Export Plug-In . SVG Version: 6.00 Build 0)  -->
<svg version="1.1" id="Layer_1" xmlns="http://www.w3.org/2000/svg" xmlns:xlink="http://www.w3.org/1999/xlink" x="0px" y="0px"
	 viewBox="0 0 512 512" style="enable-background:new 0 0 512 512;" xml:space="preserve">
<g>
	<g>
		<path d="M253.23,74.516c1.758-3.11,2.766-6.688,2.766-10.516V21.344C255.996,9.562,246.441,0,234.66,0H127.996
			c-11.781,0-21.336,9.562-21.336,21.344V64c0,3.828,1.016,7.406,2.773,10.516L42.66,163.344v327.328
			c0,11.781,9.555,21.328,21.336,21.328h234.656c11.797,0,21.344-9.547,21.344-21.328V163.344L253.23,74.516z M127.996,21.344
			h21.336c0,5.891,4.773,10.656,10.664,10.656c5.891,0,10.664-4.766,10.664-10.656h21.336c0,5.891,4.773,10.656,10.664,10.656
			c5.891,0,10.672-4.766,10.672-10.656h21.328V64H127.996V21.344z M298.653,490.672L298.653,490.672H63.996V170.469l63.984-85.125
			h0.016H234.66h0.016l63.977,85.125V490.672z"/>
	</g>
</g>
<g>
	<g>
		<path d="M213.332,277.344v-42.672h-64v42.672H106.66v64h42.672V384h64v-42.656h42.664v-64H213.332z M234.66,320h-42.664v42.672
			H170.66V320h-42.664v-21.328h42.664V256h21.336v42.672h42.664V320z"/>
	</g>
</g>
<g>
	<g>
		<path d="M405.34,64.188c-35.359,0-64,38.219-64,85.344c0,31.641,12.906,59.25,32.094,73.984v256.578
			c0,17.625,14.281,31.906,31.906,31.906c17.609,0,31.891-14.281,31.891-31.906V223.516c19.188-14.734,32.109-42.344,32.109-73.984
			C469.34,102.406,440.684,64.188,405.34,64.188z M440.965,184.219c-4.188,9.453-9.969,17.188-16.719,22.375L415.902,213v267.094
			c0,5.828-4.75,10.578-10.562,10.578c-5.844,0-10.578-4.75-10.578-10.578V213l-8.344-6.406
			c-6.766-5.188-12.547-12.922-16.734-22.375c-4.594-10.375-7.031-22.375-7.031-34.688c0-17.953,5.281-35.281,14.5-47.547
			c4.594-6.141,14.391-16.453,28.188-16.453c13.781,0,23.562,10.312,28.188,16.453c9.188,12.266,14.469,29.594,14.469,47.547
			C447.996,161.844,445.559,173.844,440.965,184.219z"/>
	</g>
</g>
<g>
</g>
<g>
</g>
<g>
</g>
<g>
</g>
<g>
</g>
<g>
</g>
<g>
</g>
<g>
</g>
<g>
</g>
<g>
</g>
<g>
</g>
<g>
</g>
<g>
</g>
<g>
</g>
<g>
</g>
</svg>
