<?xml version="1.0" encoding="iso-8859-1"?>
<!-- Generator: Adobe Illustrator 19.0.0, SVG Export Plug-In . SVG Version: 6.00 Build 0)  -->
<svg version="1.1" id="Layer_1" xmlns="http://www.w3.org/2000/svg" xmlns:xlink="http://www.w3.org/1999/xlink" x="0px" y="0px"
	 viewBox="0 0 512 512" style="enable-background:new 0 0 512 512;" xml:space="preserve">
<g>
	<g>
		<path d="M512,180.414V95.086c0-5.891-4.781-10.672-10.672-10.672v-57.75c0-11.781-9.547-21.328-21.328-21.328H21.328
			C9.547,5.336,0,14.883,0,26.664v458.672c0,11.781,9.547,21.328,21.328,21.328H480c11.781,0,21.328-9.547,21.328-21.328v-48.922
			c5.891,0,10.672-4.781,10.672-10.672v-85.328c0-5.891-4.781-10.672-10.672-10.672V191.086
			C507.219,191.086,512,186.305,512,180.414z M480,485.336H21.328V26.664H480V485.336z"/>
	</g>
</g>
<g>
	<g>
		<path d="M310.375,202.664v-64H203.703v64h-64v106.672h64v64h106.672v-64h64V202.664H310.375z M353.047,287.992h-64.016v64h-64v-64
			h-63.984v-64h63.984v-64h64v64h64.016V287.992z"/>
	</g>
</g>
<g>
	<g>
		<path d="M53.328,239.992c-5.891,0-10.656,4.781-10.656,10.672s4.766,10.672,10.656,10.672c5.891,0,10.672-4.781,10.672-10.672
			S59.219,239.992,53.328,239.992z"/>
	</g>
</g>
<g>
</g>
<g>
</g>
<g>
</g>
<g>
</g>
<g>
</g>
<g>
</g>
<g>
</g>
<g>
</g>
<g>
</g>
<g>
</g>
<g>
</g>
<g>
</g>
<g>
</g>
<g>
</g>
<g>
</g>
</svg>
