<?xml version="1.0" encoding="iso-8859-1"?>
<!-- Generator: Adobe Illustrator 19.0.0, SVG Export Plug-In . SVG Version: 6.00 Build 0)  -->
<svg version="1.1" id="Layer_1" xmlns="http://www.w3.org/2000/svg" xmlns:xlink="http://www.w3.org/1999/xlink" x="0px" y="0px"
	 viewBox="0 0 512 512" style="enable-background:new 0 0 512 512;" xml:space="preserve">
<g>
	<g>
		<path d="M387.922,287.938c0,0-42.781-287.938-131.938-287.938S124.078,287.938,124.078,287.938
			c-36.406,12.844-62.5,47.531-62.5,88.344c0,51.656,41.812,93.547,93.438,93.672C177.484,495.406,214.359,512,255.984,512
			c41.656,0,78.5-16.594,101-42.047c51.625-0.125,93.438-42.016,93.438-93.672C450.422,335.469,424.328,300.781,387.922,287.938z
			 M407.953,427.375c-13.625,13.641-31.75,21.188-51.031,21.234l-9.594,0.031l-6.344,7.188c-19.281,21.812-51.031,34.844-85,34.844
			c-33.938,0-65.719-13.031-84.969-34.844l-6.375-7.188l-9.594-0.031c-19.281-0.047-37.406-7.594-51.031-21.234
			C90.39,413.719,82.89,395.563,82.89,376.281c0-30.625,19.406-58.047,48.281-68.234l12.125-4.266l1.875-12.703
			c0.094-0.719,10.781-71.641,31.969-141.312c12.125-39.953,25.219-71.5,38.906-93.766c9.719-15.812,24.531-34.656,39.938-34.656
			c15.438,0,30.25,18.844,39.969,34.656c13.656,22.266,26.75,53.812,38.906,93.766c21.156,69.672,31.844,140.594,31.938,141.297
			l1.906,12.719l12.125,4.266c28.875,10.188,48.25,37.609,48.25,68.234C429.078,395.562,421.578,413.719,407.953,427.375z"/>
	</g>
</g>
<g>
	<g>
		<path d="M155.234,404.281c-15.438,0-28-12.562-28-28c0-5.891-4.781-10.672-10.656-10.672c-5.906,0-10.688,4.781-10.688,10.672
			c0,27.234,22.094,49.328,49.344,49.328c5.906,0,10.656-4.781,10.656-10.672S161.141,404.281,155.234,404.281z"/>
	</g>
</g>
<g>
</g>
<g>
</g>
<g>
</g>
<g>
</g>
<g>
</g>
<g>
</g>
<g>
</g>
<g>
</g>
<g>
</g>
<g>
</g>
<g>
</g>
<g>
</g>
<g>
</g>
<g>
</g>
<g>
</g>
</svg>
