<?xml version="1.0" encoding="iso-8859-1"?>
<!-- Generator: Adobe Illustrator 19.0.0, SVG Export Plug-In . SVG Version: 6.00 Build 0)  -->
<svg version="1.1" id="Layer_1" xmlns="http://www.w3.org/2000/svg" xmlns:xlink="http://www.w3.org/1999/xlink" x="0px" y="0px"
	 viewBox="0 0 512 512" style="enable-background:new 0 0 512 512;" xml:space="preserve">
<g>
	<g>
		<path d="M53.313,0v512h405.375V0H53.313z M74.649,490.672V21.344h362.695v469.328H74.649z"/>
	</g>
</g>
<g>
	<g>
		<path d="M260,362.672c-23.57,0-42.672,19.109-42.672,42.672c0,23.578,19.102,42.672,42.672,42.672
			c23.562,0,42.656-19.094,42.656-42.672C302.656,381.781,283.563,362.672,260,362.672z M260,426.688
			c-11.766,0-21.336-9.578-21.336-21.344s9.57-21.328,21.336-21.328c11.75,0,21.328,9.562,21.328,21.328S271.75,426.688,260,426.688
			z"/>
	</g>
</g>
<g>
	<g>
		<path d="M377.344,426.687h-22.75l31.625-47.422c1.125-1.703,1.781-3.734,1.781-5.922c0-5.891-4.766-10.672-10.656-10.672h-42.672
			c-5.891,0.001-10.672,4.782-10.672,10.673s4.781,10.672,10.672,10.672h22.734l-31.578,47.359
			c-1.125,1.703-1.828,3.781-1.828,5.984c0,5.891,4.781,10.656,10.672,10.656h42.672c5.891,0,10.656-4.766,10.656-10.656
			C388,431.453,383.234,426.687,377.344,426.687z"/>
	</g>
</g>
<g>
	<g>
		<path d="M195.991,362.672h-20.859h-21.336h-21.812c-5.891,0-10.664,4.781-10.664,10.672s4.774,10.672,10.664,10.672h21.812v53.344
			c0,5.891,4.773,10.656,10.672,10.656c5.891,0,10.664-4.766,10.664-10.656v-53.344h20.859c5.891,0,10.664-4.781,10.664-10.672
			S201.883,362.672,195.991,362.672z"/>
	</g>
</g>
<g>
	<g>
		<path d="M329.344,234.671h-32v0.001c-5.906,0-10.688,4.766-10.688,10.672v53.328v21.359c0,5.891,4.781,10.672,10.688,10.672
			c5.875,0,10.656-4.781,10.656-10.672v-21.359l21.344,0.031c17.672,0,32-14.344,32-32.016
			C361.344,248.999,347.016,234.671,329.344,234.671z M329.391,277.36L308,277.344V256h21.344c5.875,0,10.656,4.797,10.656,10.688
			C340,272.532,335.219,277.297,329.391,277.36z"/>
	</g>
</g>
<g>
	<g>
		<path d="M233.329,234.688h-53.336c-5.898,0-10.672,4.766-10.672,10.656v32v21.344v21.328c0,5.89,4.774,10.672,10.672,10.672
			c5.891,0,10.664-4.781,10.664-10.672v-21.328h21.336c5.891,0,10.664-4.781,10.664-10.672s-4.773-10.672-10.664-10.672h-21.336
			v-21.328h42.672c5.891,0,10.664-4.781,10.664-10.672S239.219,234.688,233.329,234.688z"/>
	</g>
</g>
<g>
	<g>
		<path d="M288,181.312h-53.336v-32h31.992c5.906,0,10.672-4.781,10.672-10.672s-4.766-10.672-10.672-10.672h-31.992v-32h51.867
			c5.875,0,10.75-4.766,10.75-10.672c0-5.891-4.875-10.656-10.75-10.656h-62.539c-5.891,0-10.664,4.766-10.664,10.656v42.672v21.344
			v42.672c0,5.891,4.773,10.656,10.664,10.656H288c5.891,0,10.656-4.766,10.656-10.656C298.656,186.094,293.891,181.312,288,181.312
			z"/>
	</g>
</g>
<g>
</g>
<g>
</g>
<g>
</g>
<g>
</g>
<g>
</g>
<g>
</g>
<g>
</g>
<g>
</g>
<g>
</g>
<g>
</g>
<g>
</g>
<g>
</g>
<g>
</g>
<g>
</g>
<g>
</g>
</svg>
