<?xml version="1.0" encoding="iso-8859-1"?>
<!-- Generator: Adobe Illustrator 19.0.0, SVG Export Plug-In . SVG Version: 6.00 Build 0)  -->
<svg version="1.1" id="Layer_1" xmlns="http://www.w3.org/2000/svg" xmlns:xlink="http://www.w3.org/1999/xlink" x="0px" y="0px"
	 viewBox="0 0 512 512" style="enable-background:new 0 0 512 512;" xml:space="preserve">
<g>
	<g>
		<path d="M394.531,128c0-11.734-6.438-28.469-14.281-37.188l-67.453-74.953C304.953,7.141,288.938,0,277.188,0h-42.656
			c-11.734,0-27.758,7.141-35.609,15.859L131.47,90.812c-7.852,8.719-14.281,25.453-14.281,37.188v21.344H74.672v85.328h42.516v64
			c0,11.719,9.055,24.547,20.109,28.453c0,0,28.594,10.125,84.711,13.281c-2.617,19.578-7.812,38.641-15.547,56.922
			c-11.273,26.672-27.445,50.641-48.047,71.234C140.477,486.5,119.977,501.078,97.367,512h108.109
			c44.391-45.188,73.992-104.922,80.961-171.422c58.281-2.938,87.984-13.453,87.984-13.453
			c11.062-3.906,20.109-16.734,20.109-28.453v-64.047h42.797v-85.328h-42.796V128z M117.188,213.328H95.992v-42.656h21.195V213.328z
			 M166.195,490.671c2.485-2.28,4.914-4.624,7.305-7.015c0.602-0.594,1.164-1.188,1.75-1.797l9.773,8.812H166.195z M205.391,480.297
			l-15.851-14.281c6.398-7.766,12.297-15.891,17.672-24.344l18.484,10.672C219.555,462.063,212.781,471.391,205.391,480.297z
			 M246.227,412.843c-3,7.173-6.289,14.173-9.875,21.016l-18.5-10.688c2.977-5.719,5.734-11.547,8.258-17.531
			c1.391-3.297,2.711-6.609,3.961-9.953l20.297,6.594C249.063,405.828,247.688,409.343,246.227,412.843z M256.938,381.984
			l-20.32-6.593c2.672-9.672,4.727-19.484,6.18-29.438l21.234,2.234C262.406,359.609,260.031,370.89,256.938,381.984z
			 M266.703,310.14c0,5.641-0.172,11.25-0.516,16.828l-21.242-2.234c0.289-4.844,0.43-9.703,0.43-14.594v-1.844
			c3.391,0.688,6.898,1.032,10.484,1.032c3.719,0,7.344-0.375,10.844-1.094V310.14z M287.875,256c0,17.641-14.375,32-32.016,32
			c-17.648,0-32-14.359-32-32v-32h64.016V256z M367.344,307.016c-1.188,0.375-28.219,9.266-79.438,12.109
			c0.078-2.969,0.125-5.969,0.125-8.984v-11.609c12.859-9.734,21.156-25.172,21.156-42.531v-53.344H202.531V256
			c0,17.531,8.453,33.078,21.508,42.812v11.328c0,3.016-0.07,6.016-0.188,8.984c-51.258-2.828-78.297-11.734-79.469-12.109
			c-2.531-0.953-5.852-5.672-5.852-8.344v-64h0.133v-85.328h-0.133V128c0-6.5,4.438-18.078,8.797-22.922l67.453-74.953
			c3.766-4.188,14.102-8.797,19.75-8.797h42.656c5.641,0,15.969,4.609,19.75,8.797l67.469,74.953
			c4.344,4.844,8.781,16.422,8.781,22.922v170.672h0.002C373.188,301.344,369.876,306.063,367.344,307.016z M394.656,170.625H416
			v42.656h-21.344V170.625z"/>
	</g>
</g>
<g>
</g>
<g>
</g>
<g>
</g>
<g>
</g>
<g>
</g>
<g>
</g>
<g>
</g>
<g>
</g>
<g>
</g>
<g>
</g>
<g>
</g>
<g>
</g>
<g>
</g>
<g>
</g>
<g>
</g>
</svg>
