<?xml version="1.0" encoding="iso-8859-1"?>
<!-- Generator: Adobe Illustrator 19.0.0, SVG Export Plug-In . SVG Version: 6.00 Build 0)  -->
<svg version="1.1" id="Layer_1" xmlns="http://www.w3.org/2000/svg" xmlns:xlink="http://www.w3.org/1999/xlink" x="0px" y="0px"
	 viewBox="0 0 512 512" style="enable-background:new 0 0 512 512;" xml:space="preserve">
<g>
	<g>
		<path d="M512,106.418h-21.297c0-47.133-38.203-85.336-85.328-85.352h-88c-6.031-12.195-21.688-20.891-40.031-20.891
			c-18.375,0-34.016,8.695-40.031,20.891h-13.32c-5.891,0-10.664,4.781-10.664,10.672s4.773,10.664,10.664,10.664h12.906
			c5.695,12.664,21.633,21.781,40.445,21.781c18.781,0,34.75-9.117,40.438-21.781h87.594c35.281,0.016,64,28.727,64,64.016H0
			c14.773,111.375,81.133,160.625,155.852,180.375c-4.133,6.531-6.539,14.281-6.539,22.594c0,23.406,18.992,42.406,42.414,42.406
			h53.602v21.281l-21.32-0.016c-17.68,0-32.008,14.328-32.008,32.016c0,17.672,14.328,32,32.008,32h21.32v10.734h-53.336
			c-11.789,0-21.336,9.547-21.336,21.328v42.688h170.688v-42.688c0-11.781-9.547-21.328-21.344-21.328h-10.656
			c0-0.016,0-0.016,0-0.016c0-17.688-14.344-32.062-32.016-32.062h-10.656v-21.266h42.406c17.672,0,32.016-14.328,32.016-32.016
			c0-17.656-14.344-32-32.016-32h-42.406V298.34c87.797-1.797,187.578-26.734,228.891-127.914v-0.024h-0.002
			C503.171,151.77,508.796,130.551,512,106.418z M277.344,42.849c-13.25,0-21.344-6.906-21.344-10.664
			c0-1.172,0.781-2.648,2.25-4.125c1.969,2.508,5,4.125,8.422,4.125c5.891,0,10.672-4.781,10.672-10.672
			c13.219,0,21.328,6.906,21.328,10.672C298.672,35.941,290.562,42.849,277.344,42.849z M245.328,415.73h-21.32
			c-5.883,0-10.672-4.781-10.672-10.656c0-5.891,4.789-10.672,10.672-10.672l21.32,0.047V415.73z M245.328,330.45h-53.601v-0.001
			c-11.617,0-21.07-9.453-21.07-21.062c0-7.156,3.586-13.5,9.062-17.312c21.898,4,44.109,5.812,65.609,6.266V330.45z M320,469.137
			v21.344H191.992v-21.344H320z M277.094,437.075L277.094,437.075c5.875-0.001,10.922,4.843,10.922,10.718c0,0,0,0,0,0.016h-21.344
			v-10.734H277.094z M309.078,351.794L309.078,351.794c5.891-0.001,10.672,4.78,10.672,10.655c0,5.891-4.781,10.688-10.672,10.688
			l-42.406-0.031v-21.312H309.078z M460.094,192.474c-13.844,21.156-32.344,38.562-54.969,51.727
			c-37.578,21.844-87.75,32.906-149.125,32.906s-111.547-11.062-149.125-32.906c-22.633-13.164-41.133-30.57-54.969-51.727
			c-4.508-6.883-8.57-14.242-12.18-22.047h432.555C468.656,178.23,464.594,185.59,460.094,192.474z M480.656,149.09H31.344
			c-2.25-6.844-4.227-13.953-5.898-21.336H256h230.562C484.874,135.137,482.906,142.246,480.656,149.09z"/>
	</g>
</g>
<g>
</g>
<g>
</g>
<g>
</g>
<g>
</g>
<g>
</g>
<g>
</g>
<g>
</g>
<g>
</g>
<g>
</g>
<g>
</g>
<g>
</g>
<g>
</g>
<g>
</g>
<g>
</g>
<g>
</g>
</svg>
