<?xml version="1.0" encoding="iso-8859-1"?>
<!-- Generator: Adobe Illustrator 19.0.0, SVG Export Plug-In . SVG Version: 6.00 Build 0)  -->
<svg version="1.1" id="Layer_1" xmlns="http://www.w3.org/2000/svg" xmlns:xlink="http://www.w3.org/1999/xlink" x="0px" y="0px"
	 viewBox="0 0 512.008 512.008" style="enable-background:new 0 0 512.008 512.008;" xml:space="preserve">
<g>
	<g>
		<path d="M480.766,31.254C459.954,10.426,432.642,0.012,405.33,0.012c-27.281,0-54.593,10.406-75.405,31.242L31.242,329.921
			c-41.656,41.656-41.656,109.186,0,150.842c20.843,20.812,48.125,31.233,75.437,31.233s54.593-10.422,75.436-31.233
			l298.651-298.667C522.422,140.44,522.422,72.901,480.766,31.254z M167.021,465.669c-16.125,16.125-37.562,25-60.343,25
			s-44.218-8.875-60.343-25c-16.125-16.109-25-37.53-25-60.343c0-22.781,8.875-44.218,25-60.327l142.811-142.811
			c15.656,23.367,33.812,45.577,54.468,66.218c20.625,20.656,42.844,38.797,66.218,54.452L167.021,465.669z M465.673,167.01
			L325.206,307.484c-23.812-15.594-46.03-33.688-66.53-54.156c-20.469-20.483-38.562-42.718-54.155-66.514L345.019,46.332
			c16.093-16.117,37.53-24.992,60.312-24.992c22.812,0,44.249,8.875,60.343,24.992c16.124,16.117,24.999,37.546,24.999,60.343
			C490.672,129.463,481.797,150.893,465.673,167.01z"/>
	</g>
</g>
<g>
	<g>
		<path d="M450.611,61.417c-12.501-12.492-28.906-18.741-45.281-18.741s-32.75,6.242-45.25,18.741L239.395,182.095
			c-4.156,4.164-4.156,10.921,0,15.085c4.188,4.164,10.938,4.164,15.094,0L375.174,76.503c8.062-8.055,18.781-12.492,30.156-12.492
			c11.406,0,22.124,4.438,30.187,12.492c4.156,4.164,10.906,4.164,15.094,0C454.767,72.339,454.767,65.589,450.611,61.417z"/>
	</g>
</g>
<g>
</g>
<g>
</g>
<g>
</g>
<g>
</g>
<g>
</g>
<g>
</g>
<g>
</g>
<g>
</g>
<g>
</g>
<g>
</g>
<g>
</g>
<g>
</g>
<g>
</g>
<g>
</g>
<g>
</g>
</svg>
