<?xml version="1.0" encoding="iso-8859-1"?>
<!-- Generator: Adobe Illustrator 19.0.0, SVG Export Plug-In . SVG Version: 6.00 Build 0)  -->
<svg version="1.1" id="Layer_1" xmlns="http://www.w3.org/2000/svg" xmlns:xlink="http://www.w3.org/1999/xlink" x="0px" y="0px"
	 viewBox="0 0 512 512" style="enable-background:new 0 0 512 512;" xml:space="preserve">
<g>
	<g>
		<path d="M372.858,23.602C341.78,7.602,306.687,0,271.851,0C161.069,0,52.624,76.773,82.171,204.141l-19.469,23.555l-34.398,62.977
			l33.469,26.609l-1.391,44.734l13.375,19.172c0,0-15.93,59.844,8.414,68.344c22.891,7.984,47.828,9.953,66.93,9.953
			c18.812,0,31.969-1.906,31.969-1.906L183.733,512h225.922c0,0-22.344-112.828,11.594-160.766
			C455.202,303.297,565.952,123.016,372.858,23.602z M381.405,450.422c0.594,15.156,1.969,29.125,3.375,40.25H204.046l-1.664-34.141
			l-1.117-23.453l-23.242,3.375c-0.117,0.031-12.094,1.703-28.922,1.703c-15.32,0-37.562-1.422-57.805-8.062
			c-0.914-2.734-2.047-9.641-0.695-22.25c1.211-11.359,3.75-21.094,3.766-21.172l2.555-9.562l-5.672-8.125l-9.32-13.375
			l1.164-37.656l0.336-10.719l-8.383-6.656l-19.414-15.438l24.812-45.43l18.172-21.984l6.727-8.133l-2.391-10.281
			c-5.312-22.914-5.781-44.688-1.383-64.711c4.016-18.305,12.094-35.188,24.016-50.18c15.344-19.32,37.102-35.367,62.914-46.391
			c25.562-10.922,54.383-16.695,83.352-16.695c32.711,0,64.258,7.344,91.242,21.234c28.25,14.547,50.781,31.648,66.938,50.828
			c13.922,16.516,23.453,35.023,28.328,55.008c8,32.758,4.047,70.297-11.781,111.594c-13.484,35.203-32.562,64.547-42.734,78.906
			C386.983,362.703,379.437,400.234,381.405,450.422z"/>
	</g>
</g>
<g>
	<g>
		<path d="M225.983,240.852c-1.703-0.227-3.359-0.031-4.875,0.5l-22.531,7.82c-3.695,1.297-6.539,4.562-7.078,8.703
			c-0.766,5.828,3.352,11.187,9.195,11.953c1.703,0.219,3.359,0.031,4.875-0.5L228.1,261.5c3.695-1.281,6.539-4.547,7.078-8.703
			C235.944,246.953,231.826,241.609,225.983,240.852z"/>
	</g>
</g>
<g>
	<g>
		<path d="M177.514,253.953c-1.5-0.844-3.117-1.266-4.719-1.344l-23.828-0.969c-3.906-0.172-7.758,1.828-9.781,5.484
			c-2.851,5.157-0.976,11.642,4.172,14.501c1.508,0.828,3.117,1.234,4.719,1.312l23.836,0.984c3.906,0.156,7.758-1.828,9.773-5.484
			C184.538,263.281,182.67,256.796,177.514,253.953z"/>
	</g>
</g>
<g>
	<g>
		<path d="M127.765,253.203c-1.195-1.234-2.625-2.094-4.141-2.625l-22.562-7.742c-3.695-1.266-7.953-0.445-10.938,2.477
			c-4.203,4.141-4.258,10.891-0.133,15.078c1.203,1.234,2.633,2.094,4.148,2.625l22.555,7.734c3.703,1.266,7.961,0.453,10.938-2.469
			C131.835,264.14,131.898,257.39,127.765,253.203z"/>
	</g>
</g>
<g>
	<g>
		<path d="M226.554,332.828c-3.485-4.75-10.164-5.781-14.907-2.281c-1.383,1-2.445,2.297-3.172,3.719l-10.891,21.219
			c-1.781,3.5-1.578,7.828,0.891,11.188c3.492,4.75,10.164,5.781,14.914,2.281c1.383-1,2.438-2.297,3.172-3.719l10.891-21.219
			C229.233,340.516,229.03,336.188,226.554,332.828z"/>
	</g>
</g>
<g>
	<g>
		<path d="M232.179,275.484c-5.125-2.906-11.633-1.109-14.539,4.016c-0.844,1.484-1.289,3.109-1.375,4.703l-1.242,23.812
			c-0.203,3.906,1.758,7.781,5.391,9.844c5.125,2.906,11.633,1.109,14.539-4.016c0.852-1.484,1.289-3.109,1.375-4.703l1.242-23.828
			C237.772,281.422,235.812,277.547,232.179,275.484z"/>
	</g>
</g>
<g>
	<g>
		<path d="M194.21,379.516c-0.758-5.844-6.102-9.969-11.945-9.219c-1.703,0.219-3.25,0.844-4.586,1.734l-19.797,13.297
			c-3.242,2.188-5.156,6.078-4.625,10.219c0.75,5.844,6.102,9.969,11.945,9.219c1.695-0.219,3.25-0.844,4.586-1.734l19.789-13.297
			C192.827,387.547,194.741,383.641,194.21,379.516z"/>
	</g>
</g>
<g>
	<g>
		<path d="M141.124,397.609c-1.703-0.188-3.359,0.031-4.867,0.594l-22.398,8.188c-3.672,1.344-6.469,4.656-6.938,8.812
			c-0.664,5.859,3.539,11.141,9.398,11.812c1.703,0.188,3.352-0.047,4.859-0.594l22.406-8.188c3.672-1.344,6.461-4.656,6.93-8.812
			C151.187,403.578,146.976,398.281,141.124,397.609z"/>
	</g>
</g>
<g>
</g>
<g>
</g>
<g>
</g>
<g>
</g>
<g>
</g>
<g>
</g>
<g>
</g>
<g>
</g>
<g>
</g>
<g>
</g>
<g>
</g>
<g>
</g>
<g>
</g>
<g>
</g>
<g>
</g>
</svg>
