<?xml version="1.0" encoding="iso-8859-1"?>
<!-- Generator: Adobe Illustrator 19.0.0, SVG Export Plug-In . SVG Version: 6.00 Build 0)  -->
<svg version="1.1" id="Layer_1" xmlns="http://www.w3.org/2000/svg" xmlns:xlink="http://www.w3.org/1999/xlink" x="0px" y="0px"
	 viewBox="0 0 512 512" style="enable-background:new 0 0 512 512;" xml:space="preserve">
<g>
	<g>
		<path d="M314.781,213.734l90.312-128.359L394.875,0.461V0h-0.062H117.625h-0.445l-10.281,85.375l90.305,128.359L29.625,415.719
			l64,10.953L104.953,512L256,297.297L407.031,512l11.344-85.328l64-10.953L314.781,213.734z M382.938,79.797l-82.266,116.93
			l-30.812-37.141L377,30.461L382.938,79.797z M256,142.883l-47.75-57.547h95.5L256,142.883z M356.844,21.336L321.438,64H190.547
			l-35.398-42.664H356.844z M118.914,455.078l-4.141-31.219l-2.07-15.562l-15.484-2.656l-27.594-4.719l140.297-169.109
			l33.031,46.953L118.914,455.078z M414.781,405.641l-15.5,2.656l-2.062,15.562l-4.141,31.219L129.062,79.797L135,30.461
			l307.375,370.461L414.781,405.641z"/>
	</g>
</g>
<g>
</g>
<g>
</g>
<g>
</g>
<g>
</g>
<g>
</g>
<g>
</g>
<g>
</g>
<g>
</g>
<g>
</g>
<g>
</g>
<g>
</g>
<g>
</g>
<g>
</g>
<g>
</g>
<g>
</g>
</svg>
