<?xml version="1.0" encoding="iso-8859-1"?>
<!-- Generator: Adobe Illustrator 19.0.0, SVG Export Plug-In . SVG Version: 6.00 Build 0)  -->
<svg version="1.1" id="Layer_1" xmlns="http://www.w3.org/2000/svg" xmlns:xlink="http://www.w3.org/1999/xlink" x="0px" y="0px"
	 viewBox="0 0 512 512" style="enable-background:new 0 0 512 512;" xml:space="preserve">
<g>
	<g>
		<path d="M256,64C114.617,64,0,126.078,0,202.664v106.664C0,385.922,114.617,448,256,448c141.375,0,256-62.078,256-138.672V202.664
			C512,126.078,397.375,64,256,64z M64.188,375.578c-11.086-7.938-20.328-16.531-27.258-25.406
			c-6.477-8.281-10.953-16.781-13.398-25.359c10.516,12.312,24.266,23.641,40.656,33.688V375.578z M128,407.016
			c-15.367-5.156-29.578-11.219-42.477-18.188v-18.719c13.031,6.312,27.258,11.906,42.477,16.672V407.016z M202.664,423.516
			c-14.18-1.719-28.062-4.125-41.547-7.203c-3.992-0.922-7.914-1.891-11.781-2.922v-20.625c16.867,4.188,34.727,7.406,53.328,9.562
			V423.516z M288,425.547c-10.531,0.75-21.219,1.125-32,1.125c-10.789,0-21.461-0.375-32-1.125v-21.281
			c10.484,0.703,21.164,1.062,32,1.062c10.844,0,21.516-0.359,32-1.062V425.547z M362.656,413.391
			c-3.859,1.031-7.781,2-11.781,2.922c-13.469,3.078-27.359,5.484-41.531,7.203v-21.188c18.594-2.156,36.453-5.375,53.312-9.562
			V413.391z M426.656,388.734c-12.938,7-27.219,13.109-42.656,18.281v-20.234c15.297-4.797,29.594-10.422,42.656-16.766V388.734z
			 M475.062,350.172C468.188,359,459,367.547,448,375.453v-17.062c16.312-10.016,30-21.312,40.469-33.578
			C486.031,333.391,481.547,341.891,475.062,350.172z M475.062,307.516c-10.906,13.984-27.594,27.281-48.203,38.438
			c-21.812,11.812-47.375,21.125-75.984,27.688C320.875,380.516,288.969,384,256,384c-32.961,0-64.883-3.484-94.883-10.359
			c-28.602-6.562-54.164-15.875-75.977-27.688c-20.617-11.156-37.288-24.453-48.21-38.437c-10.352-13.25-15.594-27-15.594-40.844
			c0-2.609,0.188-5.219,0.555-7.812C61.703,307.453,151.539,341.328,256,341.328c104.469,0,194.297-33.875,234.109-82.469
			c0.359,2.594,0.547,5.203,0.547,7.812C490.656,280.516,485.422,294.266,475.062,307.516z M475.062,243.516
			c-10.906,13.984-27.594,27.281-48.203,38.438c-21.812,11.812-47.375,21.125-75.984,27.688C320.875,316.516,288.969,320,256,320
			c-32.961,0-64.883-3.484-94.883-10.359c-28.602-6.562-54.164-15.875-75.977-27.688c-20.617-11.156-37.288-24.453-48.21-38.437
			c-10.352-13.258-15.594-27-15.594-40.852c0-13.844,5.242-27.586,15.594-40.844c10.922-13.984,27.594-27.281,48.211-38.445
			c21.812-11.82,47.375-21.133,75.977-27.688c30-6.867,61.922-10.352,94.883-10.352c32.969,0,64.875,3.484,94.875,10.352
			c28.609,6.555,54.172,15.867,75.984,27.688c20.609,11.164,37.297,24.461,48.203,38.445c10.359,13.258,15.594,27,15.594,40.844
			C490.656,216.516,485.422,230.258,475.062,243.516z"/>
	</g>
</g>
<g>
	<g>
		<path d="M362.657,213.446c-0.001-17.735-19.095-32.11-42.657-32.11c-19.438,0-35.844,9.789-40.984,23.18
			c-7.328-1.023-15.047-1.57-23.031-1.57c-47.141,0-85.352,19.078-85.352,42.602c0,23.531,38.211,42.625,85.352,42.625
			s85.359-19.094,85.359-42.625c0-1.375-0.156-2.766-0.406-4.125C353.907,235.915,362.657,225.454,362.657,213.446z
			 M332.594,221.789l-15.875,6.734l3.266,16.93c0.016,0.062,0.016,0.094,0.016,0.094c0,1.156-3.25,6.094-13.188,11.062
			c-13.031,6.5-31.562,10.219-50.828,10.219c-19.273,0-37.797-3.719-50.82-10.219c-9.945-4.969-13.195-9.906-13.195-11.062
			c0-1.125,3.25-6.07,13.195-11.039c13.023-6.5,31.547-10.227,50.82-10.227c6.828,0,13.578,0.453,20.078,1.359l16.797,2.344
			l6.078-15.82c1.469-3.828,9.188-9.5,21.062-9.5c13.234,0,21.344,6.984,21.344,10.781
			C341.344,215.742,338.328,219.352,332.594,221.789z"/>
	</g>
</g>
<g>
</g>
<g>
</g>
<g>
</g>
<g>
</g>
<g>
</g>
<g>
</g>
<g>
</g>
<g>
</g>
<g>
</g>
<g>
</g>
<g>
</g>
<g>
</g>
<g>
</g>
<g>
</g>
<g>
</g>
</svg>
