<?xml version="1.0" encoding="iso-8859-1"?>
<!-- Generator: Adobe Illustrator 19.0.0, SVG Export Plug-In . SVG Version: 6.00 Build 0)  -->
<svg version="1.1" id="Layer_1" xmlns="http://www.w3.org/2000/svg" xmlns:xlink="http://www.w3.org/1999/xlink" x="0px" y="0px"
	 viewBox="0 0 512 512" style="enable-background:new 0 0 512 512;" xml:space="preserve">
<g>
	<g>
		<path d="M501.328,475.172H108c54.656-30.625,103.188-83.453,103.188-83.453l-15.094-15.078L502.625,70.11
			c12.5-12.492,12.5-32.758,0-45.25c-6.25-6.25-14.438-9.375-22.625-9.375s-16.375,3.125-22.625,9.375L0,482.234
			c12.078,10.062,26.031,14.281,40.844,14.281c0.609,0,1.219-0.016,1.812-0.031v0.031h458.672c5.891,0,10.672-4.781,10.672-10.672
			S507.219,475.172,501.328,475.172z M256.438,255.953c4.172,4.156,10.922,4.156,15.094,0c4.156-4.156,4.156-10.922,0-15.086
			l30.156-30.172c4.172,4.164,10.922,4.164,15.094,0s4.172-10.914,0-15.086l30.172-30.164c4.156,4.164,10.922,4.164,15.078,0
			c4.172-4.164,4.172-10.922,0-15.086L472.453,39.938c2.719-2.719,5.891-3.125,7.547-3.125c1.641,0,4.812,0.406,7.531,3.133
			c2.719,2.719,3.125,5.891,3.125,7.539s-0.406,4.82-3.125,7.539L201.125,341.438l-10.047-20.109L256.438,255.953z M40.843,475.171
			c-1.187,0.002-2.359-0.029-3.515-0.108l137.844-137.844l10.062,20.109l-19.297,19.312l15.078,15.078l0.109,0.109
			c-9.812,9.5-24,22.531-40.516,35.516c-18.25,14.328-35.578,25.703-51.531,33.75C70.593,470.437,54.358,475.171,40.843,475.171z"/>
	</g>
</g>
<g>
</g>
<g>
</g>
<g>
</g>
<g>
</g>
<g>
</g>
<g>
</g>
<g>
</g>
<g>
</g>
<g>
</g>
<g>
</g>
<g>
</g>
<g>
</g>
<g>
</g>
<g>
</g>
<g>
</g>
</svg>
