<?xml version="1.0" encoding="iso-8859-1"?>
<!-- Generator: Adobe Illustrator 19.0.0, SVG Export Plug-In . SVG Version: 6.00 Build 0)  -->
<svg version="1.1" id="Layer_1" xmlns="http://www.w3.org/2000/svg" xmlns:xlink="http://www.w3.org/1999/xlink" x="0px" y="0px"
	 viewBox="0 0 511.996 511.996" style="enable-background:new 0 0 511.996 511.996;" xml:space="preserve">
<g>
	<g>
		<path d="M501.34,0.017c-2.969,0-5.625,1.203-7.562,3.133L354.31,142.617L127.593,310.639
			c-1.227-10.812-5.234-21.469-12.188-30.844c-12.562-16.938-31.883-25.874-51.453-25.874c-13.257,0-26.617,4.094-38.085,12.608
			c-28.382,21.047-34.32,61.141-13.265,89.531c12.562,16.922,31.882,25.859,51.452,25.859c12.852,0,25.797-3.859,37.023-11.844
			l9.109,9.125c4.172,4.156,10.922,4.156,15.086,0c4.164-4.172,4.164-10.922,0-15.094l-9.094-9.094
			c3.375-4.75,6.047-9.891,7.992-15.25l186.202-138.163l-138.148,186.21c-5.375,1.953-10.508,4.609-15.258,7.984l-9.062-9.062
			c-4.172-4.156-10.922-4.156-15.086,0c-4.164,4.172-4.164,10.938,0,15.094l9.07,9.062c-20.141,28.328-14.008,67.687,14.031,88.483
			c11.461,8.516,24.828,12.609,38.085,12.609c19.57,0,38.891-8.938,51.445-25.875c21.062-28.374,15.125-68.468-13.266-89.53
			c-9.375-6.969-20.031-10.969-30.852-12.188L369.4,157.7L508.871,18.227c1.938-1.93,3.125-4.594,3.125-7.539
			C511.996,4.798,507.215,0.017,501.34,0.017z M106.21,324.17c-1.672,11.281-7.633,21.234-16.781,28.031
			c-7.414,5.5-16.188,8.406-25.375,8.406c-13.679,0-26.187-6.297-34.32-17.25c-14.015-18.906-10.047-45.688,8.844-59.688
			c7.414-5.5,16.187-8.406,25.375-8.406c13.68,0,26.188,6.281,34.32,17.25C105.061,301.654,107.882,312.904,106.21,324.17z
			 M219.475,413.701c18.898,14.031,22.859,40.812,8.844,59.687c-8.133,10.969-20.641,17.25-34.312,17.25
			c-9.187,0-17.96-2.906-25.375-8.406c-9.156-6.781-15.117-16.718-16.781-27.999c-1.672-11.281,1.148-22.531,7.937-31.688
			c8.133-10.953,20.641-17.25,34.32-17.25C203.295,405.295,212.06,408.201,219.475,413.701z"/>
	</g>
</g>
<g>
</g>
<g>
</g>
<g>
</g>
<g>
</g>
<g>
</g>
<g>
</g>
<g>
</g>
<g>
</g>
<g>
</g>
<g>
</g>
<g>
</g>
<g>
</g>
<g>
</g>
<g>
</g>
<g>
</g>
</svg>
