<?xml version="1.0" encoding="iso-8859-1"?>
<!-- Generator: Adobe Illustrator 19.0.0, SVG Export Plug-In . SVG Version: 6.00 Build 0)  -->
<svg version="1.1" id="Layer_1" xmlns="http://www.w3.org/2000/svg" xmlns:xlink="http://www.w3.org/1999/xlink" x="0px" y="0px"
	 viewBox="0 0 512 512" style="enable-background:new 0 0 512 512;" xml:space="preserve">
<g>
	<g>
		<path d="M372.853,23.594C341.774,7.594,306.681,0,271.845,0C161.063,0,52.618,76.766,82.173,204.125l-19.477,23.562
			l-34.398,62.984l33.469,26.609l-1.391,44.734l13.375,19.172c0,0-15.93,59.844,8.422,68.328c22.883,7.984,47.82,9.969,66.922,9.969
			c18.812,0,31.969-1.922,31.969-1.922L183.728,512h89.898h21.336H409.65c0,0-22.344-112.844,11.594-160.766
			C455.212,303.297,565.962,123,372.853,23.594z M273.626,490.657h-69.578v-0.001l-1.672-34.141l-1.117-23.453l-23.242,3.391
			c-0.117,0.016-12.094,1.703-28.922,1.703c-15.32,0-37.562-1.422-57.805-8.078c-0.914-2.719-2.047-9.625-0.695-22.234
			c1.211-11.375,3.75-21.109,3.773-21.172L95.079,384h125.039l-5.539,2.297l21.539,14.422l-11.273,11.266l25.422,5.078
			l-6.102,14.734l25.43-5.031v15.938l4.031-2.703V490.657z M252.298,373.328c0-17.672,14.328-32,32-32s32.008,14.328,32.008,32
			s-14.336,32-32.008,32S252.298,391,252.298,373.328z M381.399,450.422c0.594,15.141,1.969,29.109,3.375,40.234h-89.812V437.5
			l2.297,5.547l14.422-21.531l11.281,11.266l5.062-25.422l14.734,6.094l-5.031-25.422h15.938L339.29,366.47l14.734-6.094
			l-21.547-14.438l11.266-11.266l-25.406-5.078l6.094-14.719l-25.43,5.031v-15.953l-21.562,14.391l-6.102-14.734l-14.422,21.547
			l-11.273-11.281l-5.086,25.422l-14.719-6.094l5.031,25.422H214.93l2.688,4.031H86.845l-4.922-7.047l1.164-37.672l0.336-10.703
			l-8.383-6.656l-19.414-15.438l24.82-45.438l18.164-21.984l6.727-8.141l-2.383-10.266c-5.32-22.922-5.789-44.688-1.391-64.719
			c4.023-18.297,12.102-35.188,24.016-50.188c15.352-19.312,37.109-35.359,62.922-46.391c25.555-10.922,54.375-16.688,83.344-16.688
			c32.711,0,64.273,7.344,91.242,21.234c28.25,14.547,50.781,31.656,66.938,50.828c13.922,16.516,23.453,35.031,28.344,55
			c8,32.766,4.031,70.312-11.797,111.594c-13.484,35.219-32.562,64.562-42.734,78.906
			C386.978,362.703,379.431,400.219,381.399,450.422z"/>
	</g>
</g>
<g>
</g>
<g>
</g>
<g>
</g>
<g>
</g>
<g>
</g>
<g>
</g>
<g>
</g>
<g>
</g>
<g>
</g>
<g>
</g>
<g>
</g>
<g>
</g>
<g>
</g>
<g>
</g>
<g>
</g>
</svg>
