<?xml version="1.0" encoding="iso-8859-1"?>
<!-- Generator: Adobe Illustrator 19.0.0, SVG Export Plug-In . SVG Version: 6.00 Build 0)  -->
<svg version="1.1" id="Layer_1" xmlns="http://www.w3.org/2000/svg" xmlns:xlink="http://www.w3.org/1999/xlink" x="0px" y="0px"
	 viewBox="0 0 512 512" style="enable-background:new 0 0 512 512;" xml:space="preserve">
<g>
	<g>
		<path d="M416,160c-17.672,0-32,14.328-32,32c0,13.93,8.906,25.781,21.344,30.172v167.156c0,27.062-10.547,52.516-29.688,71.656
			S331.078,490.672,304,490.672c-27.062,0-52.516-10.547-71.656-29.688c-19.125-19.141-29.672-44.594-29.672-71.656v-69.781
			C268.375,314.141,320,259.109,320,192V0h-42.656c-5.891,0-10.672,4.773-10.672,10.664s4.781,10.672,10.672,10.672h21.328V192
			c0,28.492-11.094,55.281-31.25,75.422c-20.141,20.156-46.922,31.25-75.422,31.25c-28.484,0-55.281-11.094-75.422-31.25
			c-20.14-20.141-31.234-46.93-31.234-75.422V21.336h21.328c5.891,0,10.672-4.781,10.672-10.672S112.562,0,106.672,0H64v192
			c0,67.109,51.641,122.141,117.344,127.547v69.781C181.344,457.078,236.266,512,304,512c67.75,0,122.672-54.922,122.672-122.672
			V222.172C439.094,217.781,448,205.93,448,192C448,174.328,433.672,160,416,160z M416,202.664c-5.875,0-10.656-4.781-10.656-10.664
			s4.781-10.664,10.656-10.664c5.891,0,10.672,4.781,10.672,10.664S421.891,202.664,416,202.664z"/>
	</g>
</g>
<g>
</g>
<g>
</g>
<g>
</g>
<g>
</g>
<g>
</g>
<g>
</g>
<g>
</g>
<g>
</g>
<g>
</g>
<g>
</g>
<g>
</g>
<g>
</g>
<g>
</g>
<g>
</g>
<g>
</g>
</svg>
