<?xml version="1.0" encoding="iso-8859-1"?>
<!-- Generator: Adobe Illustrator 19.0.0, SVG Export Plug-In . SVG Version: 6.00 Build 0)  -->
<svg version="1.1" id="Layer_1" xmlns="http://www.w3.org/2000/svg" xmlns:xlink="http://www.w3.org/1999/xlink" x="0px" y="0px"
	 viewBox="0 0 511.999 511.999" style="enable-background:new 0 0 511.999 511.999;" xml:space="preserve">
<g>
	<g>
		<path d="M490.672,138.672H384v-21.336C384,105.555,374.453,96,362.672,96H192c-11.781,0-21.328,9.555-21.328,21.336v21.336
			h-21.328c0-11.781-9.562-21.336-21.344-21.336H21.344C9.562,117.336,0,126.891,0,138.672v42.664
			c0,11.781,9.562,21.336,21.344,21.336h32.844l-0.016,0.062L225.5,266.672L54.172,330.609l0.016,0.062H32
			c-5.891,0-10.656,4.781-10.656,10.656C21.344,347.234,26.109,352,32,352h32h384h32c5.891,0,10.672-4.766,10.672-10.672
			c0-5.875-4.781-10.656-10.672-10.656h-22.188l0.031-0.062l-171.328-63.938l171.328-63.938l-0.031-0.062h32.859
			c11.781,0,21.328-9.555,21.328-21.336V160C512,148.219,502.453,138.672,490.672,138.672z M192,117.336h170.672v21.336H192V117.336
			z M396.984,330.672H115.031L256,278.047L396.984,330.672z M256,255.281l-140.969-52.609h281.953L256,255.281z M490.672,181.336
			H21.344v-42.664H128V160h21.344l341.328,0.008V181.336z"/>
	</g>
</g>
<g>
	<g>
		<path d="M64,352c-17.672,0-32,14.328-32,32s14.328,32,32,32s32-14.328,32-32S81.672,352,64,352z M64,394.672
			c-5.875,0-10.656-4.781-10.656-10.672c0-5.875,4.781-10.672,10.656-10.672c5.891,0,10.672,4.797,10.672,10.672
			C74.672,389.891,69.891,394.672,64,394.672z"/>
	</g>
</g>
<g>
	<g>
		<path d="M448,352c-17.672,0-32,14.328-32,32s14.328,32,32,32s32-14.328,32-32S465.672,352,448,352z M448,394.672
			c-5.875,0-10.656-4.781-10.656-10.672c0-5.875,4.781-10.672,10.656-10.672c5.891,0,10.672,4.797,10.672,10.672
			C458.672,389.891,453.891,394.672,448,394.672z"/>
	</g>
</g>
<g>
</g>
<g>
</g>
<g>
</g>
<g>
</g>
<g>
</g>
<g>
</g>
<g>
</g>
<g>
</g>
<g>
</g>
<g>
</g>
<g>
</g>
<g>
</g>
<g>
</g>
<g>
</g>
<g>
</g>
</svg>
