<?xml version="1.0" encoding="iso-8859-1"?>
<!-- Generator: Adobe Illustrator 19.0.0, SVG Export Plug-In . SVG Version: 6.00 Build 0)  -->
<svg version="1.1" id="Layer_1" xmlns="http://www.w3.org/2000/svg" xmlns:xlink="http://www.w3.org/1999/xlink" x="0px" y="0px"
	 viewBox="0 0 512.04 512.04" style="enable-background:new 0 0 512.04 512.04;" xml:space="preserve">
<g>
	<g>
		<path d="M508.895,48.411L463.614,3.129c-4.164-4.172-10.914-4.172-15.086,0c-4.164,4.172-4.164,10.922,0,15.078L388.193,78.55
			L373.13,63.488c-4.164-4.156-10.922-4.156-15.086,0c-4.164,4.172-4.164,10.922,0,15.094L183.687,252.948l16.203,44.125
			l-29.016,29.03l-17.688-17.687c-3.445-3.469-7.968-5.188-12.484-5.188s-9.039,1.719-12.484,5.188l-20.281,20.28
			c-4.367,4.344-5.969,10.438-4.805,16.062l-50.648,14.906L5.196,406.978c-6.898,6.875-6.898,18.062,0,24.969l74.913,74.905
			c3.445,3.438,7.969,5.188,12.484,5.188c4.523,0,9.039-1.75,12.484-5.188l47.296-47.281l14.914-50.655
			c1.18,0.25,2.383,0.375,3.586,0.375c4.516,0,9.039-1.719,12.484-5.188l20.281-20.281c6.898-6.875,6.898-18.062,0-24.969
			l-17.679-17.688l31.64-31.624l41.516,18.812l174.35-174.35h0.008c4.164,4.156,10.914,4.156,15.078,0
			c4.172-4.172,4.172-10.922,0-15.094l-15.078-15.078l60.336-60.343c4.164,4.172,10.922,4.172,15.086,0
			C513.059,59.332,513.059,52.566,508.895,48.411z M63.727,378.603l53.421-15.719l8.469,8.469l-34,34H36.984L63.727,378.603z
			 M133.445,448.322l-40.852,40.843l-62.492-62.499h40.18l-5,5.031l15.085,15.062l20.086-20.094h39.359L133.445,448.322z
			 M146.101,405.353h-24.32l18.922-18.938l8.469,8.469L146.101,405.353z M185.96,371.354l-15.086,15.062l-45.257-45.25
			l15.086-15.062L185.96,371.354z M254.475,302.823l-35.695-16.188l-10.367-28.25l23.695-23.711h90.515L254.475,302.823z
			 M343.951,213.346h-90.507l29.18-29.171l15.086,15.078c4.164,4.172,10.914,4.172,15.086,0c4.164-4.172,4.164-10.922,0-15.078
			c-0.008-0.016-0.008-0.016-0.008-0.016l-15.078-15.078l15.086-15.078l15.077,15.078c4.172,4.172,10.922,4.172,15.086,0
			c4.164-4.156,4.164-10.922,0-15.078l-15.086-15.094l45.258-45.25l45.257,45.25L343.951,213.346z M418.387,108.738l-15.108-15.094
			l60.335-60.343l15.109,15.109L418.387,108.738z"/>
	</g>
</g>
<g>
</g>
<g>
</g>
<g>
</g>
<g>
</g>
<g>
</g>
<g>
</g>
<g>
</g>
<g>
</g>
<g>
</g>
<g>
</g>
<g>
</g>
<g>
</g>
<g>
</g>
<g>
</g>
<g>
</g>
</svg>
