<?xml version="1.0" encoding="iso-8859-1"?>
<!-- Generator: Adobe Illustrator 19.0.0, SVG Export Plug-In . SVG Version: 6.00 Build 0)  -->
<svg version="1.1" id="Layer_1" xmlns="http://www.w3.org/2000/svg" xmlns:xlink="http://www.w3.org/1999/xlink" x="0px" y="0px"
	 viewBox="0 0 512 512" style="enable-background:new 0 0 512 512;" xml:space="preserve">
<g>
	<g>
		<path d="M405.348,0h-298.68C94.887,0,85.34,9.547,85.34,21.328v469.328c0,11.781,9.547,21.344,21.328,21.344h298.68
			c11.781,0,21.312-9.562,21.312-21.344V21.328C426.66,9.547,417.129,0,405.348,0z M405.348,490.656h-298.68V21.328h298.68V490.656z
			"/>
	</g>
</g>
<g>
	<g>
		<path d="M181.34,64c-17.672,0-32,14.328-32,32s14.328,32,32,32s32-14.328,32-32S199.012,64,181.34,64z M181.34,106.656
			c-5.875,0-10.672-4.781-10.672-10.656c0-5.891,4.797-10.672,10.672-10.672S192.012,90.109,192.012,96
			C192.012,101.875,187.215,106.656,181.34,106.656z"/>
	</g>
</g>
<g>
	<g>
		<path d="M330.66,64c-17.656,0-32,14.328-32,32s14.344,32,32,32c17.688,0,32-14.328,32-32S348.348,64,330.66,64z M330.66,106.656
			c-5.875,0-10.656-4.781-10.656-10.656c0-5.891,4.781-10.672,10.656-10.672c5.906,0,10.688,4.781,10.688,10.672
			C341.348,101.875,336.567,106.656,330.66,106.656z"/>
	</g>
</g>
<g>
	<g>
		<path d="M181.34,170.656c-17.672,0-32,14.328-32,32s14.328,32,32,32s32-14.328,32-32S199.012,170.656,181.34,170.656z
			 M181.34,213.328c-5.875,0-10.672-4.781-10.672-10.672c0-5.875,4.797-10.656,10.672-10.656s10.672,4.781,10.672,10.656
			C192.012,208.547,187.215,213.328,181.34,213.328z"/>
	</g>
</g>
<g>
	<g>
		<path d="M330.66,170.656c-17.656,0-32,14.328-32,32s14.344,32,32,32c17.688,0,32-14.328,32-32S348.348,170.656,330.66,170.656z
			 M330.66,213.328c-5.875,0-10.656-4.781-10.656-10.672c0-5.875,4.781-10.656,10.656-10.656c5.906,0,10.688,4.781,10.688,10.656
			C341.348,208.547,336.567,213.328,330.66,213.328z"/>
	</g>
</g>
<g>
	<g>
		<path d="M181.34,277.328c-17.672,0-32,14.328-32,32s14.328,32,32,32s32-14.328,32-32S199.012,277.328,181.34,277.328z M181.34,320
			c-5.875,0-10.672-4.797-10.672-10.672s4.797-10.672,10.672-10.672s10.672,4.797,10.672,10.672S187.215,320,181.34,320z"/>
	</g>
</g>
<g>
	<g>
		<path d="M330.66,277.328c-17.656,0-32,14.328-32,32s14.344,32,32,32c17.688,0,32-14.328,32-32S348.348,277.328,330.66,277.328z
			 M330.66,320c-5.875,0-10.656-4.797-10.656-10.672s4.781-10.672,10.656-10.672c5.906,0,10.688,4.797,10.688,10.672
			S336.566,320,330.66,320z"/>
	</g>
</g>
<g>
	<g>
		<path d="M181.34,384c-17.672,0-32,14.328-32,32s14.328,32,32,32s32-14.328,32-32S199.012,384,181.34,384z M181.34,426.656
			c-5.875,0-10.672-4.781-10.672-10.656c0-5.891,4.797-10.672,10.672-10.672s10.672,4.781,10.672,10.672
			C192.012,421.875,187.215,426.656,181.34,426.656z"/>
	</g>
</g>
<g>
	<g>
		<path d="M330.66,384c-17.656,0-32,14.328-32,32s14.344,32,32,32c17.688,0,32-14.328,32-32S348.348,384,330.66,384z
			 M330.66,426.656c-5.875,0-10.656-4.781-10.656-10.656c0-5.891,4.781-10.672,10.656-10.672c5.906,0,10.688,4.781,10.688,10.672
			C341.348,421.875,336.567,426.656,330.66,426.656z"/>
	</g>
</g>
<g>
	<g>
		<path d="M256.004,64c-5.883,0-10.664,4.766-10.664,10.656v362.672c0,5.891,4.781,10.672,10.664,10.672
			c5.906,0,10.656-4.781,10.656-10.672V74.656C266.66,68.765,261.91,64,256.004,64z"/>
	</g>
</g>
<g>
</g>
<g>
</g>
<g>
</g>
<g>
</g>
<g>
</g>
<g>
</g>
<g>
</g>
<g>
</g>
<g>
</g>
<g>
</g>
<g>
</g>
<g>
</g>
<g>
</g>
<g>
</g>
<g>
</g>
</svg>
