<?xml version="1.0" encoding="iso-8859-1"?>
<!-- Generator: Adobe Illustrator 19.0.0, SVG Export Plug-In . SVG Version: 6.00 Build 0)  -->
<svg version="1.1" id="Layer_1" xmlns="http://www.w3.org/2000/svg" xmlns:xlink="http://www.w3.org/1999/xlink" x="0px" y="0px"
	 viewBox="0 0 512.005 512.005" style="enable-background:new 0 0 512.005 512.005;" xml:space="preserve">
<g>
	<g>
		<path d="M506.671,24.58c-5.102-2.953-11.633-1.203-14.57,3.898l-26.68,46.203c-0.828-1.945-1.766-3.859-2.853-5.727
			c-6-10.406-14.977-18.008-25.234-22.383l46.188-26.664c5.102-2.945,6.852-9.469,3.906-14.57c-2.945-5.102-9.469-6.852-14.57-3.907
			l-83.11,47.985c0,0-0.023,0.008-0.031,0.016c-13.648,7.883-22.492,20.891-25.516,35.188
			C120.402,186.769,0.003,418.254,0.003,418.254S220.02,234.628,358.364,153.635c-80.992,138.352-264.602,358.37-264.602,358.37
			s231.462-120.407,333.618-364.19c5.367-1.133,10.656-3.109,15.672-6.008c8.414-4.859,14.992-11.672,19.516-19.524l48.001-83.133
			C513.514,34.049,511.772,27.518,506.671,24.58z M139.621,279.909c-12.625,9.656-24.914,19.141-36.68,28.312
			c2.922-3.438,5.914-6.938,8.984-10.453c36.235-41.484,75.641-78.508,117.125-110.031c43.079-32.727,88.5-59.563,135.383-80.017
			c1.164,4.984,3.062,9.898,5.758,14.562c0.039,0.062,0.07,0.117,0.102,0.172C315.677,151.713,238.278,204.542,139.621,279.909z
			 M324.724,282.347c-31.383,41.375-68.242,80.72-109.563,116.907c-3.828,3.359-7.625,6.625-11.383,9.797
			c9.172-11.766,18.664-24.047,28.312-36.672c75.368-98.657,128.196-176.048,157.454-230.673c4.609,2.688,9.586,4.656,14.742,5.859
			C383.927,194.23,357.247,239.448,324.724,282.347z M432.38,123.33c-4.867,2.813-10.383,4.297-15.945,4.297
			c-11.422,0-22.062-6.133-27.766-16.008c-4.273-7.406-5.406-16.023-3.195-24.281s7.508-15.156,14.906-19.43l0.016-0.008
			c4.867-2.805,10.375-4.289,15.938-4.289c11.422,0,22.062,6.133,27.766,16.008C452.919,94.9,447.661,114.51,432.38,123.33z"/>
	</g>
</g>
<g>
	<g>
		<path d="M423.927,88.08c-4.164-4.172-10.922-4.172-15.086,0c-4.164,4.164-4.164,10.914,0,15.078
			c4.164,4.172,10.922,4.172,15.086,0C428.091,98.994,428.091,92.244,423.927,88.08z"/>
	</g>
</g>
<g>
</g>
<g>
</g>
<g>
</g>
<g>
</g>
<g>
</g>
<g>
</g>
<g>
</g>
<g>
</g>
<g>
</g>
<g>
</g>
<g>
</g>
<g>
</g>
<g>
</g>
<g>
</g>
<g>
</g>
</svg>
