<?xml version="1.0" encoding="iso-8859-1"?>
<!-- Generator: Adobe Illustrator 19.0.0, SVG Export Plug-In . SVG Version: 6.00 Build 0)  -->
<svg version="1.1" id="Layer_1" xmlns="http://www.w3.org/2000/svg" xmlns:xlink="http://www.w3.org/1999/xlink" x="0px" y="0px"
	 viewBox="0 0 512 512" style="enable-background:new 0 0 512 512;" xml:space="preserve">
<g>
	<g>
		<path d="M501.053,68.352L439.1,6.406C434.834,2.133,429.225,0,423.631,0c-5.609,0-11.219,2.133-15.5,6.406l-46.453,46.469
			c-8.562,8.547-8.562,22.406,0,30.969l15.484,15.484L267.006,209.477c-4.266-4.273-9.875-6.414-15.469-6.414
			c-5.609,0-11.219,2.141-15.5,6.414L134.803,310.719c-4.281-4.281-11.203-4.281-15.484,0c-4.281,4.281-4.281,11.203,0,15.484
			L26.99,418.531c-21.391,21.391-21.391,56.047,0,77.438C37.662,506.656,51.678,512,65.693,512s28.031-5.344,38.719-16.031
			l209.062-209.07c8.547-8.547,8.547-22.414,0-30.969L501.053,68.352z M381.037,64.484c4.266,4.281,11.203,4.281,15.484,0
			c4.281-4.273,4.281-11.211,0-15.484l7.734-7.742c4.281,4.273,11.219,4.273,15.5,0s4.281-11.211,0-15.484l3.875-3.875l15.47,15.484
			l-46.453,46.461l-15.484-15.492L381.037,64.484z M88.928,480.484c-6.203,6.203-14.453,9.625-23.234,9.625
			c-8.766,0-17.016-3.422-23.219-9.625c-6.219-6.219-9.625-14.469-9.625-23.234c0-8.781,3.406-17.031,9.625-23.234L220.553,255.93
			l46.453,46.461L88.928,480.484z M282.49,286.906l-46.453-46.461l15.5-15.492l46.453,46.469L282.49,286.906z M297.99,240.445
			l-15.484-15.492L454.584,52.875l15.5,15.477L297.99,240.445z"/>
	</g>
</g>
<g>
</g>
<g>
</g>
<g>
</g>
<g>
</g>
<g>
</g>
<g>
</g>
<g>
</g>
<g>
</g>
<g>
</g>
<g>
</g>
<g>
</g>
<g>
</g>
<g>
</g>
<g>
</g>
<g>
</g>
</svg>
