<?xml version="1.0" encoding="iso-8859-1"?>
<!-- Generator: Adobe Illustrator 19.0.0, SVG Export Plug-In . SVG Version: 6.00 Build 0)  -->
<svg version="1.1" id="Layer_1" xmlns="http://www.w3.org/2000/svg" xmlns:xlink="http://www.w3.org/1999/xlink" x="0px" y="0px"
	 viewBox="0 0 512 512" style="enable-background:new 0 0 512 512;" xml:space="preserve">
<g>
	<g>
		<path d="M458.672,138.656C458.672,62.078,396.578,0,320,0c-23.078,0-44.844,5.656-64,15.625C236.844,5.656,215.078,0,192,0
			C115.422,0,53.328,62.078,53.328,138.656c0,21.047,4.688,40.984,13.078,58.844l41.781,90.5c-10,32,6.281,224,73.141,224
			c21.031,0,54.047-178.484,74.656-178.625c0.016,0,0.016,0,0.031,0c20.609,0,53.609,178.625,74.625,178.625
			c66.859,0,83.156-192,73.141-224l41.812-90.5C453.984,179.641,458.672,159.703,458.672,138.656z M426.281,188.438l-0.016,0.062
			l-0.047,0.062l-41.797,90.484l-3.453,7.469l2.453,7.844c2.078,6.625,3.422,38.578-2.812,82.453
			c-6.422,45.344-18.141,82.25-32.125,101.266c-3.578,4.859-7.094,8.328-10.547,10.375c-1.891-4-4.547-10.391-8.094-20.453
			c-5.281-15.062-10.953-33.906-16.453-52.141c-23.234-77.141-32.547-103.828-57.375-103.828h-0.094h-0.016h-0.062
			c-24.734,0.172-34.016,26.812-57.219,103.797c-5.5,18.219-11.188,37.078-16.484,52.156c-3.547,10.078-6.203,16.469-8.109,20.469
			c-3.438-2.047-6.969-5.516-10.547-10.375c-13.984-19.016-25.688-55.922-32.141-101.266c-6.219-43.875-4.875-75.828-2.797-82.453
			l2.453-7.844l-3.453-7.453l-41.766-90.5l-0.03-0.062l-0.031-0.062c-7.344-15.641-11.047-32.375-11.047-49.781
			c0-31.328,12.203-60.797,34.359-82.953S160.656,21.328,192,21.328c19.094,0,37.312,4.453,54.141,13.219L256,39.688l9.859-5.141
			c16.828-8.766,35.047-13.219,54.141-13.219c31.344,0,60.812,12.219,82.969,34.375s34.359,51.625,34.359,82.953
			C437.328,156.062,433.625,172.797,426.281,188.438z"/>
	</g>
</g>
<g>
	<g>
		<path d="M192,42.672c-53.016,0-96,42.969-96,95.984c0,5.906,4.766,10.688,10.672,10.688c5.891,0,10.656-4.781,10.656-10.688
			c0-19.938,7.781-38.688,21.875-52.797C153.312,71.766,172.062,64,192,64c5.891,0,10.656-4.781,10.656-10.672
			C202.656,47.453,197.891,42.672,192,42.672z"/>
	</g>
</g>
<g>
</g>
<g>
</g>
<g>
</g>
<g>
</g>
<g>
</g>
<g>
</g>
<g>
</g>
<g>
</g>
<g>
</g>
<g>
</g>
<g>
</g>
<g>
</g>
<g>
</g>
<g>
</g>
<g>
</g>
</svg>
