<?xml version="1.0" encoding="iso-8859-1"?>
<!-- Generator: Adobe Illustrator 19.0.0, SVG Export Plug-In . SVG Version: 6.00 Build 0)  -->
<svg version="1.1" id="Layer_1" xmlns="http://www.w3.org/2000/svg" xmlns:xlink="http://www.w3.org/1999/xlink" x="0px" y="0px"
	 viewBox="0 0 512 512" style="enable-background:new 0 0 512 512;" xml:space="preserve">
<g>
	<g>
		<path d="M492.5,255.563c-43.766,0-72.766,7.125-94.109,17.484l0.094-0.188c6.297-13.422,9.828-28.406,9.828-44.219
			c0-57.547-46.656-104.203-104.219-104.203c-17.344,0-33.703,4.25-48.094,11.75c-14.391-7.5-30.75-11.75-48.094-11.75
			c-57.547,0-104.203,46.656-104.203,104.203c0,15.812,3.516,30.797,9.828,44.219l0.078,0.203
			c-21.328-10.375-50.344-17.5-94.109-17.5c-6.203,0-12.688,0.141-19.5,0.438v256h512V256
			C505.203,255.703,498.703,255.563,492.5,255.563z M149.298,170.048c15.656-15.656,36.469-24.281,58.609-24.281
			c13.5,0,26.359,3.141,38.234,9.328l9.859,5.141l9.859-5.141c11.875-6.188,24.75-9.328,38.234-9.328
			c22.141,0,42.953,8.625,58.609,24.281c15.656,15.641,24.266,36.453,24.266,58.594c0,12.297-2.625,24.125-7.797,35.156
			l-0.031,0.062l-0.016,0.047L363.828,297c-28.656,26.141-45.344,55-107.828,55c-62.469,0-79.172-28.844-107.828-54.984
			l-15.281-33.094l-0.031-0.062l-0.016-0.062c-5.188-11.031-7.812-22.859-7.812-35.156
			C125.032,206.501,133.657,185.689,149.298,170.048z M490.673,490.672h-0.001H21.344V276.906
			c34.891,0.172,62.031,5.188,82.891,15.312c18.125,8.797,29.859,20.484,42.297,32.875c11.656,11.609,23.719,23.609,40.75,32.859
			c19.094,10.344,41.578,15.391,68.719,15.391c27.156,0,49.625-5.047,68.719-15.391c17.031-9.25,29.094-21.25,40.75-32.859
			c12.422-12.391,24.172-24.078,42.281-32.875c20.875-10.125,48.016-15.141,82.922-15.312V490.672z"/>
	</g>
</g>
<g>
	<g>
		<path d="M256,0c-5.891,0-10.656,4.781-10.656,10.672v64h-0.016c0,5.89,4.781,10.672,10.672,10.672s10.672-4.781,10.672-10.672v-64
			C266.672,4.781,261.891,0,256,0z"/>
	</g>
</g>
<g>
	<g>
		<path d="M343.563,15.438c-5.531-2.016-11.656,0.844-13.672,6.375L308,81.953c-2.016,5.547,0.844,11.656,6.375,13.672
			s11.656-0.828,13.672-6.375l21.891-60.141C351.954,23.578,349.094,17.453,343.563,15.438z"/>
	</g>
</g>
<g>
	<g>
		<path d="M204,81.953l-21.875-60.125c0,0,0,0,0-0.016c-2.016-5.531-8.141-8.391-13.672-6.375
			c-5.547,2.016-8.391,8.141-6.375,13.672l21.875,60.141c2.016,5.547,8.141,8.391,13.672,6.375
			C203.172,93.609,206.016,87.5,204,81.953z"/>
	</g>
</g>
<g>
</g>
<g>
</g>
<g>
</g>
<g>
</g>
<g>
</g>
<g>
</g>
<g>
</g>
<g>
</g>
<g>
</g>
<g>
</g>
<g>
</g>
<g>
</g>
<g>
</g>
<g>
</g>
<g>
</g>
</svg>
