<?xml version="1.0" encoding="iso-8859-1"?>
<!-- Generator: Adobe Illustrator 19.0.0, SVG Export Plug-In . SVG Version: 6.00 Build 0)  -->
<svg version="1.1" id="Layer_1" xmlns="http://www.w3.org/2000/svg" xmlns:xlink="http://www.w3.org/1999/xlink" x="0px" y="0px"
	 viewBox="0 0 511.999 511.999" style="enable-background:new 0 0 511.999 511.999;" xml:space="preserve">
<g>
	<g>
		<path d="M373.344,426.667c-5.906,0-10.688,4.766-10.688,10.656c0,5.906,4.781,10.672,10.688,10.672
			c5.875,0,10.656-4.766,10.656-10.672C384,431.432,379.219,426.667,373.344,426.667z"/>
	</g>
</g>
<g>
	<g>
		<path d="M501.344,405.323c-0.719,0-2.094,0.219-2.094,0.219l-44.109,8.812l-28.953-86.844c0,0,0-0.031-0.016-0.062l-0.047-0.156
			c-1.422-4.234-5.406-7.297-10.125-7.297H297.141c-1.047-7.297-2.609-14.422-4.672-21.328H384c5.891,0,10.672-4.781,10.672-10.672
			s-4.781-10.672-10.672-10.672h-21.344V170.815c0-11.781-9.531-21.336-21.312-21.336H128c-11.781,0-21.336,9.555-21.336,21.336
			V31.995c0-5.891-4.773-10.664-10.664-10.664H31.844c-5.891,0-10.664,4.773-10.664,10.664c0,5.891,4.773,10.664,10.664,10.664
			h53.492V206.37C34.883,230.339,0,281.761,0,341.323c0,82.484,66.859,149.344,149.336,149.344
			c59.57,0,110.977-34.891,134.945-85.344h46.375c-6.688,8.922-10.656,20-10.656,32c0,29.469,23.875,53.344,53.344,53.344
			c29.438,0,53.312-23.875,53.312-53.344c0-25.797-18.312-47.312-42.656-52.25v-43.75h24.312l32.547,97.641l62.562-12.516
			c4.891-0.969,8.578-5.281,8.578-10.453C512,410.104,507.219,405.323,501.344,405.323z M341.344,245.323h-77.625
			c-3.125-3.711-6.438-7.266-9.891-10.664h87.516V245.323z M222.359,236.175c6.188,4.312,12.039,9.195,17.484,14.648
			c5.445,5.438,10.328,11.281,14.648,17.469l-74.719,43.156c-0.18-0.188-0.367-0.375-0.547-0.562L222.359,236.175z M160.75,300.229
			c-0.25-0.078-0.5-0.156-0.75-0.219v-86.234c15.375,1.258,30.203,5.227,43.906,11.695L160.75,300.229z M265.187,286.761
			c6.469,13.703,10.438,28.531,11.703,43.906h-86.234c-0.062-0.25-0.141-0.5-0.211-0.75L265.187,286.761z M128,170.815h213.344
			v42.516H226.289c-22.477-13.547-48.805-21.336-76.953-21.336c-7.242,0-14.367,0.531-21.336,1.523V170.815z M138.664,213.776
			v86.234c-0.25,0.062-0.5,0.141-0.75,0.219l-43.156-74.758C108.469,219.003,123.289,215.034,138.664,213.776z M58.828,250.823
			c5.438-5.453,11.289-10.336,17.477-14.648l43.141,74.711c-0.188,0.188-0.367,0.375-0.547,0.562L44.18,268.292
			C48.492,262.104,53.383,256.261,58.828,250.823z M33.477,286.761l74.75,43.156c-0.07,0.25-0.148,0.5-0.219,0.75H21.781
			C23.039,315.292,27.008,300.464,33.477,286.761z M33.477,395.901c-6.469-13.703-10.438-28.531-11.695-43.906h86.234
			c0.062,0.25,0.141,0.5,0.211,0.75L33.477,395.901z M58.828,431.839c-5.445-5.453-10.336-11.297-14.648-17.484l74.719-43.141
			c0.18,0.188,0.359,0.375,0.547,0.547l-43.141,74.718C70.117,442.167,64.266,437.292,58.828,431.839z M138.664,468.886
			c-15.375-1.266-30.195-5.234-43.906-11.703l43.156-74.734c0.25,0.062,0.5,0.141,0.75,0.203V468.886z M128,341.323
			c0-11.75,9.57-21.328,21.336-21.328c11.758,0,21.328,9.578,21.328,21.328c0,11.766-9.57,21.344-21.328,21.344
			C137.57,362.667,128,353.089,128,341.323z M160,468.886v-86.234c0.25-0.062,0.5-0.141,0.75-0.203l43.156,74.734
			C190.203,463.651,175.375,467.62,160,468.886z M239.844,431.839c-5.445,5.453-11.297,10.328-17.484,14.641l-43.133-74.719
			c0.18-0.172,0.367-0.359,0.547-0.547l74.719,43.141C250.172,420.542,245.289,426.386,239.844,431.839z M265.188,395.901
			l-74.742-43.156c0.07-0.25,0.148-0.5,0.211-0.75h86.234C275.625,367.37,271.656,382.198,265.188,395.901z M278.687,266.667h62.656
			v10.656h-57.062C282.547,273.698,280.687,270.135,278.687,266.667z M292.469,383.995c4.031-13.516,6.188-27.828,6.188-42.672h64
			v42.672H292.469z M405.344,437.323c0,17.656-14.375,32-32,32c-17.656,0-32-14.344-32-32c0-17.641,14.344-32,32-32
			C390.969,405.323,405.344,419.683,405.344,437.323z"/>
	</g>
</g>
<g>
	<g>
		<path d="M149.336,330.667c-5.891,0-10.672,4.766-10.672,10.656c0,5.906,4.781,10.672,10.672,10.672S160,347.229,160,341.323
			C160,335.433,155.227,330.667,149.336,330.667z"/>
	</g>
</g>
<g>
</g>
<g>
</g>
<g>
</g>
<g>
</g>
<g>
</g>
<g>
</g>
<g>
</g>
<g>
</g>
<g>
</g>
<g>
</g>
<g>
</g>
<g>
</g>
<g>
</g>
<g>
</g>
<g>
</g>
</svg>
