<?xml version="1.0" encoding="iso-8859-1"?>
<!-- Generator: Adobe Illustrator 19.0.0, SVG Export Plug-In . SVG Version: 6.00 Build 0)  -->
<svg version="1.1" id="Layer_1" xmlns="http://www.w3.org/2000/svg" xmlns:xlink="http://www.w3.org/1999/xlink" x="0px" y="0px"
	 viewBox="0 0 512 512" style="enable-background:new 0 0 512 512;" xml:space="preserve">
<g>
	<g>
		<path d="M224,95.996H53.336c-5.891,0-10.672,4.781-10.672,10.672c0,5.891,4.781,10.664,10.672,10.664H224
			c5.891,0,10.664-4.773,10.664-10.664C234.664,100.777,229.891,95.996,224,95.996z"/>
	</g>
</g>
<g>
	<g>
		<path d="M128,127.996H53.336c-5.891,0-10.672,4.781-10.672,10.672s4.781,10.664,10.672,10.664H128
			c5.891,0,10.664-4.773,10.664-10.664C138.664,132.777,133.891,127.996,128,127.996z"/>
	</g>
</g>
<g>
	<g>
		<path d="M345.623,223.493c-15.016-2.539-52.75-12.883-72.031-32.773c30.688,15.898,67.953,17.289,69.938,17.352
			c0.125,0,0.219,0.016,0.344,0.016c5.875,0,10.656-4.773,10.656-10.664c0-5.773-4.594-10.469-10.312-10.656
			c-0.531-0.016-52.812-2.062-77.562-26.852v-2.805c26.25,13.109,55.281,14.469,66.125,14.469c2.469,0,3.984-0.07,4.312-0.086
			v-0.016c5.641-0.289,10.125-4.93,10.125-10.641c0-5.891-4.781-10.664-10.656-10.664c-0.188,0-0.375,0.016-0.562,0.023
			c-0.406,0.023-40.844,1.828-69.344-17.758v-15.109h-21.32v15.211c-28.359,19.378-68.781,17.683-69.203,17.659
			c-0.18-0.008-0.352-0.023-0.531-0.023c-5.891,0-10.672,4.773-10.672,10.664c0,5.711,4.484,10.352,10.125,10.641
			c0.328,0.016,1.852,0.102,4.328,0.102c10.812,0,39.75-1.352,65.953-14.391v2.883c-24.805,24.641-76.867,26.68-77.398,26.703
			c-5.727,0.18-10.32,4.875-10.32,10.648c0,5.891,4.773,10.664,10.664,10.664c0.117,0,0.227-0.016,0.336-0.016
			c1.992-0.062,39.242-1.453,69.945-17.352c-19.281,19.891-57.008,30.234-72.047,32.773c-5.047,0.844-8.898,5.219-8.898,10.508
			c0,5.891,4.773,10.664,10.664,10.664c0.602,0,1.188-0.062,1.758-0.156c2.273-0.375,43.406-7.492,72.648-29.219
			c-5.422,12.023-21.586,32.75-69.711,44.969c-4.617,1.156-8.047,5.344-8.047,10.312c0,5.906,4.781,10.688,10.672,10.688
			c0.906,0,1.781-0.125,2.617-0.344c33.375-8.469,54.164-21.078,67.117-33.562v19.312c-5.891,0-10.672,4.781-10.672,10.656
			c0,5.906,4.781,10.672,10.672,10.672v21.391c-5.383,0.547-9.578,5.094-9.578,10.609s4.195,10.078,9.578,10.609v11.938
			c-16.898-7.188-51.625-20.938-70.086-20.938c-6.359,0-10.781,1.625-11.891,5.719c-5.469,20.156,20.914,62.844,41.219,78.969
			c9.688,7.688,21.633,9.703,31.461,9.703c10.773,0,19.023-2.422,19.023-2.422s8.25,2.422,19.031,2.422
			c9.828,0,21.766-2.016,31.453-9.703c20.312-16.125,46.688-58.812,41.219-78.969c-1.109-4.094-5.547-5.719-11.891-5.719
			c-17.797,0-50.719,12.781-68.219,20.141v-11.141c0.375,0.031,0.734,0.062,1.094,0.062c5.906,0,10.672-4.781,10.672-10.672
			s-4.766-10.672-10.672-10.672c-0.359,0-0.719,0.031-1.094,0.062v-21.391c5.906,0,10.688-4.766,10.688-10.672
			c0-5.875-4.781-10.656-10.688-10.656v-19.453c12.953,12.531,33.781,25.203,67.281,33.703c0.828,0.219,1.719,0.344,2.625,0.344
			c5.875,0,10.656-4.781,10.656-10.688c0-4.969-3.422-9.156-8.047-10.312c-37.328-9.469-55.078-24.078-63.391-34.641
			c-3.016-3.82-5.016-7.352-6.359-10.359c29.25,21.75,70.422,28.875,72.703,29.25c0.562,0.094,1.156,0.156,1.75,0.156
			c5.875,0,10.656-4.773,10.656-10.664C354.529,228.712,350.685,224.337,345.623,223.493z M245.336,393.871
			c-2.367,0.391-5.633,0.797-9.297,0.797c-5.383,0-12.914-0.875-18.195-5.078c-7.617-6.047-17.102-17.953-24.172-30.359
			c-3.305-5.781-5.531-10.656-7.008-14.625c6.602,1.5,16.266,4.312,30.141,9.5c13.695,5.109,25.406,10.312,28.531,11.719V393.871z
			 M266.656,364.98c4.641-2.062,14.75-6.438,26.422-10.781c14-5.25,23.75-8.078,30.391-9.594c-1.484,3.969-3.719,8.844-7.016,14.625
			c-7.078,12.406-16.547,24.312-24.172,30.359c-5.281,4.203-12.812,5.078-18.188,5.078c-2.781,0-5.328-0.219-7.438-0.5
			L266.656,364.98L266.656,364.98z"/>
	</g>
</g>
<g>
	<g>
		<path d="M490.656,53.332H21.336C9.555,53.332,0,62.887,0,74.668v362.656c0,11.781,9.555,21.344,21.336,21.344h469.32
			c11.797,0,21.344-9.562,21.344-21.344V74.668C512,62.887,502.453,53.332,490.656,53.332z M490.656,437.324H21.336V74.668h469.32
			V437.324z"/>
	</g>
</g>
<g>
</g>
<g>
</g>
<g>
</g>
<g>
</g>
<g>
</g>
<g>
</g>
<g>
</g>
<g>
</g>
<g>
</g>
<g>
</g>
<g>
</g>
<g>
</g>
<g>
</g>
<g>
</g>
<g>
</g>
</svg>
