<?xml version="1.0" encoding="iso-8859-1"?>
<!-- Generator: Adobe Illustrator 19.0.0, SVG Export Plug-In . SVG Version: 6.00 Build 0)  -->
<svg xmlns="http://www.w3.org/2000/svg" xmlns:xlink="http://www.w3.org/1999/xlink" version="1.1" id="Layer_1" x="0px" y="0px" viewBox="0 0 512 512" style="enable-background:new 0 0 512 512;" xml:space="preserve">
<g>
	<g>
		<path d="M275.731,153.996H275.6c-5.522,0-10,4.477-10,10c0,5.523,4.478,10,10,10h0.131c5.522,0,10-4.477,10-10    C285.731,158.473,281.253,153.996,275.731,153.996z"/>
	</g>
</g>
<g>
	<g>
		<path d="M501.994,51.749h-50.332V29.999c0-4.219-2.647-7.984-6.618-9.411l-55.658-20c0,0.003-0.001,0.006-0.002,0.009    C388.328,0.218,387.193,0,386.005,0H200.002c-16.542,0-29.999,13.458-29.999,29.999v309.573c0,40.214,30.211,73.482,69.125,78.359    v14.511c0,15.837-6.575,31.372-18.041,42.622c-11.427,11.212-26.35,17.213-42.103,16.926    c-31.889-0.604-57.832-26.712-57.832-58.201v-320.13c0-15.846-6.178-30.791-17.396-42.083    c-11.173-11.248-26.089-17.608-42.002-17.91c-16.252-0.314-31.606,5.861-43.331,17.366C6.72,82.518,0.007,98.414,0.007,114.647    v16.217c0,5.523,4.478,10,10,10s10-4.477,10-10v-16.217c0-10.898,4.529-21.591,12.426-29.339    c7.86-7.714,18.167-11.83,28.944-11.646c21.933,0.415,39.776,18.358,39.776,39.997v320.13c0,20.646,8.052,40.123,22.671,54.841    c14.571,14.669,34.025,22.962,54.781,23.355c0.502,0.01,1.003,0.015,1.504,0.015c20.583,0,40.059-8.014,54.986-22.661    c15.273-14.987,24.032-35.725,24.032-56.897v-14.543c38.791-4.99,68.871-38.2,68.871-78.327V123.497h58.006    c1.178,0,2.303-0.214,3.353-0.588c0.01-0.003,0.019,0.003,0.029-0.001l55.658-20c3.971-1.426,6.618-5.191,6.618-9.411V71.748    h50.332c5.522,0,10-4.477,10-10C511.993,56.226,507.517,51.749,501.994,51.749z M307.999,339.572    c0,32.532-26.467,58.998-58.998,58.998s-58.999-26.466-58.999-58.998V173.996h53.247c5.522,0,10-4.477,10-10    c0-5.523-4.478-10-10-10h-53.247v-30.499h117.997V339.572z M376.005,103.497h-58.007H190.002V29.999c0-5.514,4.486-10,10-10    h176.004V103.497z M431.663,86.465l-35.658,12.813V24.218l35.658,12.813V86.465z"/>
	</g>
</g>
<g>
</g>
<g>
</g>
<g>
</g>
<g>
</g>
<g>
</g>
<g>
</g>
<g>
</g>
<g>
</g>
<g>
</g>
<g>
</g>
<g>
</g>
<g>
</g>
<g>
</g>
<g>
</g>
<g>
</g>
</svg>
