<?xml version="1.0" encoding="iso-8859-1"?>
<!-- Generator: Adobe Illustrator 19.0.0, SVG Export Plug-In . SVG Version: 6.00 Build 0)  -->
<svg xmlns="http://www.w3.org/2000/svg" xmlns:xlink="http://www.w3.org/1999/xlink" version="1.1" id="Layer_1" x="0px" y="0px" viewBox="0 0 512 512" style="enable-background:new 0 0 512 512;" xml:space="preserve">
<g>
	<g>
		<path d="M307.652,161h-0.125c-5.523,0-10,4.477-10,10s4.477,10,10,10h0.125c5.523,0,10-4.477,10-10S313.175,161,307.652,161z"/>
	</g>
</g>
<g>
	<g>
		<path d="M307.652,423.125h-0.125c-5.523,0-10,4.477-10,10s4.477,10,10,10h0.125c5.523,0,10-4.477,10-10    S313.175,423.125,307.652,423.125z"/>
	</g>
</g>
<g>
	<g>
		<path d="M396.001,423.127h-9.385V181h9.384c5.523,0,10-4.477,10-10v-48.935c0-3.47-1.799-6.693-4.754-8.514l-73.246-45.135V10    c0-5.523-4.477-10-10-10h-124c-5.523,0-10,4.477-10,10v58.416l-73.246,45.135c-2.955,1.821-4.754,5.043-4.754,8.514V171    c0,5.523,4.477,10,10,10h9.385v242.127h-9.385c-5.523,0-10,4.477-10,10v48.935c0,3.468,1.797,6.688,4.748,8.51l32.308,19.938    c1.579,0.974,3.397,1.49,5.252,1.49h215.371c1.854,0,3.672-0.516,5.25-1.489l32.322-19.938c2.952-1.821,4.75-5.042,4.75-8.511    v-48.935C406.001,427.604,401.524,423.127,396.001,423.127z M296.999,20h11v44h-11V20z M265.999,20h11v44h-11V20z M234.999,20h11    v44h-11V20z M203.999,20h11v44h-11V20z M385.999,161h-9.385c-5.523,0-10,4.477-10,10v252.125h-24.771c-5.523,0-10,4.477-10,10    s4.477,10,10,10l44.156,0.002v33.354L360.842,492H151.145l-25.145-15.518v-33.355l145.535-0.002c5.523,0,10-4.477,10-10    s-4.477-10-10-10h-126.15V181h131.15c5.523,0,10-4.477,10-10s-4.477-10-10-10H125.999v-33.351L196.832,84h118.333l70.834,43.649    V161z"/>
	</g>
</g>
<g>
	<g>
		<path d="M288.52,224.158c-18.086,0-26.868,11.73-32.115,18.739c-0.131,0.174-0.266,0.355-0.406,0.541    c-0.14-0.186-0.276-0.367-0.406-0.541c-5.247-7.009-14.029-18.739-32.115-18.739c-22.872,0-41.479,18.608-41.479,41.48    c0,10.375,1.194,19.815,16.216,38.739c4.664,5.876,7.324,18.882,9.671,30.358c1.673,8.18,3.253,15.906,5.648,22.11    c4.886,12.656,12.511,15.313,18.046,15.313c15.4,0,20.187-17.22,24.034-31.057c0.122-0.439,0.251-0.9,0.384-1.377    c0.134,0.476,0.262,0.938,0.384,1.377c3.847,13.837,8.634,31.057,24.034,31.057c5.536,0,13.16-2.657,18.047-15.314    c2.395-6.203,3.975-13.93,5.648-22.11c2.346-11.475,5.006-24.482,9.671-30.358c15.023-18.923,16.217-28.363,16.217-38.738    C329.999,242.766,311.392,224.158,288.52,224.158z M298.118,291.94c-7.637,9.62-10.669,24.448-13.602,38.787    c-1.181,5.776-2.804,13.713-4.518,18.507c-1.666-3.852-3.318-9.793-4.346-13.49c-3.387-12.183-7.226-25.992-19.653-25.992    s-16.266,13.809-19.651,25.992c-1.028,3.697-2.679,9.637-4.346,13.49c-1.714-4.795-3.337-12.732-4.518-18.507    c-2.933-14.339-5.965-29.167-13.602-38.787c-11.881-14.965-11.881-19.968-11.881-26.302c0-11.844,9.635-21.48,21.479-21.48    c7.531,0,11.108,4.052,16.104,10.725c3.712,4.958,8.332,11.129,16.416,11.129c8.084,0,12.704-6.171,16.416-11.129    c4.995-6.673,8.572-10.725,16.104-10.725c11.843,0,21.479,9.636,21.479,21.48C309.999,271.972,309.999,276.975,298.118,291.94z"/>
	</g>
</g>
<g>
	<g>
		<path d="M339.525,197.75h-4.5v-4.5c0-5.523-4.477-10-10-10s-10,4.477-10,10v4.5h-4.5c-5.523,0-10,4.477-10,10s4.477,10,10,10h4.5    v4.5c0,5.523,4.477,10,10,10s10-4.477,10-10v-4.5h4.5c5.523,0,10-4.477,10-10S345.048,197.75,339.525,197.75z"/>
	</g>
</g>
<g>
</g>
<g>
</g>
<g>
</g>
<g>
</g>
<g>
</g>
<g>
</g>
<g>
</g>
<g>
</g>
<g>
</g>
<g>
</g>
<g>
</g>
<g>
</g>
<g>
</g>
<g>
</g>
<g>
</g>
</svg>
