<?xml version="1.0" encoding="iso-8859-1"?>
<!-- Generator: Adobe Illustrator 19.0.0, SVG Export Plug-In . SVG Version: 6.00 Build 0)  -->
<svg xmlns="http://www.w3.org/2000/svg" xmlns:xlink="http://www.w3.org/1999/xlink" version="1.1" id="Layer_1" x="0px" y="0px" viewBox="0 0 512 512" style="enable-background:new 0 0 512 512;" xml:space="preserve">
<g>
	<g>
		<path d="M442.526,152.279c-3.897-3.912-10.229-3.926-14.142-0.03l-0.115,0.114c-3.913,3.897-3.926,10.229-0.03,14.143    c1.954,1.962,4.52,2.944,7.086,2.944c2.552,0,5.104-0.971,7.056-2.914l0.115-0.114    C446.409,162.525,446.422,156.193,442.526,152.279z"/>
	</g>
</g>
<g>
	<g>
		<path d="M498.069,96.709l-37.302-37.297c-3.905-3.904-10.236-3.904-14.142,0l-1.599,1.599l-58.09-58.083    C385.061,1.053,382.517,0,379.866,0c-0.002,0-0.004,0-0.006,0l-37.254,0.024c-5.521,0.003-9.994,4.479-9.994,10v27.23    l-27.26,0.018c-5.521,0.003-9.994,4.479-9.994,10v27.322l-27.352,0.018c-5.521,0.003-9.994,4.479-9.994,10v27.322l-27.351,0.018    c-5.521,0.003-9.994,4.479-9.994,10v37.224c0,2.652,1.054,5.196,2.93,7.072l58.089,58.08l-6.869,6.868    c-1.876,1.875-2.93,4.419-2.93,7.072c0,1.715,0.446,3.381,1.265,4.854l-81.768,32.703c-1.257,0.503-2.399,1.256-3.357,2.213    L13.929,452.11c-1.876,1.875-2.93,4.419-2.93,7.072c0,2.653,1.054,5.196,2.93,7.072l42.824,42.818    c1.953,1.952,4.512,2.928,7.071,2.928s5.118-0.976,7.071-2.928l173.342-173.318l80.37-51.783c0-0.001-0.001-0.002-0.001-0.002    c0.586-0.378,1.142-0.819,1.655-1.332l87.99-87.976c3.905-3.905,3.906-10.237,0.001-14.142    c-3.904-3.905-10.237-3.906-14.142-0.001l-80.919,80.906l-21.566-21.563c-0.001-0.001-0.001-0.001-0.002-0.002l-1.591-1.591    L452.098,82.224c0.002-0.002,0.004-0.005,0.007-0.008l1.592-1.592l23.16,23.156l-21.211,21.208    c-3.905,3.905-3.906,10.236-0.001,14.142c3.906,3.905,10.237,3.906,14.143,0.001l28.283-28.279    c1.875-1.875,2.929-4.419,2.929-7.072C501,101.127,499.946,98.584,498.069,96.709z M303.355,273.872l-70.848,45.648    c-0.597,0.385-1.151,0.833-1.654,1.334L63.824,487.859l-28.682-28.677l165.575-165.551l87.428-34.966l2.186,2.185L303.355,273.872    z M305.518,200.499l-9.688,9.687l-55.162-55.153v-23.088l23.114-0.015l55.158,55.149L305.518,200.499z M333.175,172.846    l-55.162-55.153V94.605h0.001l23.115-0.015l55.157,55.149L333.175,172.846z M370.52,135.507l-55.161-55.153V57.266l23.114-0.015    l55.157,55.149L370.52,135.507z M407.773,98.259l-55.162-55.154V20.018l23.115-0.015l55.157,55.149L407.773,98.259z"/>
	</g>
</g>
<g>
</g>
<g>
</g>
<g>
</g>
<g>
</g>
<g>
</g>
<g>
</g>
<g>
</g>
<g>
</g>
<g>
</g>
<g>
</g>
<g>
</g>
<g>
</g>
<g>
</g>
<g>
</g>
<g>
</g>
</svg>
