<?xml version="1.0" encoding="iso-8859-1"?>
<!-- Generator: Adobe Illustrator 19.0.0, SVG Export Plug-In . SVG Version: 6.00 Build 0)  -->
<svg xmlns="http://www.w3.org/2000/svg" xmlns:xlink="http://www.w3.org/1999/xlink" version="1.1" id="Layer_1" x="0px" y="0px" viewBox="0 0 512 512" style="enable-background:new 0 0 512 512;" xml:space="preserve">
<g>
	<g>
		<path d="M414.989,0c-53.482,0-96.993,43.511-96.993,96.993c0,22.673,7.9,44.155,21.719,61.165l-48.929,48.929l-30.625-30.625    c-1.876-1.875-4.419-2.929-7.071-2.929s-5.195,1.054-7.07,2.929L18.494,403.99C6.579,415.906,0.016,431.804,0.016,448.754    c0,16.951,6.563,32.849,18.478,44.765c0.021,0.02,0.04,0.04,0.061,0.059C30.463,505.457,46.338,512,63.263,512    c16.951,0,32.849-6.563,44.764-18.478l227.527-227.526c1.875-1.875,2.929-4.419,2.929-7.07c0-2.652-1.054-5.196-2.929-7.071    l-30.625-30.625l48.933-48.933c4.599,3.734,9.568,7.088,14.89,9.978c1.517,0.824,3.152,1.215,4.765,1.215    c3.548,0,6.983-1.892,8.795-5.229c2.637-4.853,0.839-10.923-4.014-13.56c-24.859-13.504-40.302-39.448-40.302-67.708    c0-42.455,34.54-76.995,76.995-76.995c42.455,0,76.996,34.54,76.996,76.995c0,28.143-15.35,54.036-40.058,67.574    c-4.843,2.654-6.618,8.731-3.964,13.574c2.654,4.844,8.73,6.619,13.574,3.965c31.116-17.05,50.446-49.664,50.446-85.113    C511.983,43.511,468.472,0,414.989,0z M314.34,258.926L93.884,479.381c-8.138,8.137-19.014,12.62-30.622,12.62    c-11.609,0-22.484-4.482-30.623-12.62c-0.019-0.019-0.037-0.037-0.055-0.055c-8.106-8.132-12.569-18.987-12.569-30.572    c0-11.609,4.482-22.484,12.62-30.623l183.787-183.788l35.118,35.117c1.953,1.953,4.512,2.929,7.071,2.929s5.118-0.977,7.071-2.929    c3.905-3.905,3.905-10.236,0-14.141l-35.118-35.117l22.526-22.526l30.623,30.623c0.001,0.001,0.002,0.002,0.002,0.003    c0,0.001,0.002,0.001,0.002,0.002L314.34,258.926z"/>
	</g>
</g>
<g>
	<g>
		<path d="M415.275,31.694h-0.285c-5.522,0-9.999,4.477-9.999,9.999c0,5.523,4.478,9.999,9.999,9.999h0.15c0.023,0,0.046,0,0.068,0    c5.491,0,9.961-4.433,9.999-9.932C425.244,36.239,420.796,31.732,415.275,31.694z"/>
	</g>
</g>
<g>
	<g>
		<path d="M450.179,42.374c-4.586-3.075-10.798-1.85-13.874,2.738c-3.075,4.588-1.849,10.799,2.738,13.874    c12.031,8.065,19.214,21.513,19.214,35.972c0,15.816-8.626,30.367-22.513,37.975c-4.843,2.654-6.617,8.731-3.964,13.574    c1.818,3.319,5.244,5.197,8.777,5.197c1.624,0,3.271-0.396,4.798-1.233c20.294-11.121,32.901-32.392,32.901-55.514    C478.255,73.816,467.76,54.159,450.179,42.374z"/>
	</g>
</g>
<g>
	<g>
		<path d="M415.193,173.988l-0.348-0.001c-0.009,0-0.019,0-0.029,0c-5.509,0-9.982,4.459-9.998,9.971    c-0.015,5.523,4.45,10.011,9.971,10.027l0.348,0.001c0.009,0,0.019,0,0.029,0c5.509,0,9.982-4.459,9.998-9.971    C425.179,178.493,420.714,174.004,415.193,173.988z"/>
	</g>
</g>
<g>
</g>
<g>
</g>
<g>
</g>
<g>
</g>
<g>
</g>
<g>
</g>
<g>
</g>
<g>
</g>
<g>
</g>
<g>
</g>
<g>
</g>
<g>
</g>
<g>
</g>
<g>
</g>
<g>
</g>
</svg>
