<?xml version="1.0" encoding="iso-8859-1"?>
<!-- Generator: Adobe Illustrator 19.0.0, SVG Export Plug-In . SVG Version: 6.00 Build 0)  -->
<svg xmlns="http://www.w3.org/2000/svg" xmlns:xlink="http://www.w3.org/1999/xlink" version="1.1" id="Layer_1" x="0px" y="0px" viewBox="0 0 512 512" style="enable-background:new 0 0 512 512;" xml:space="preserve">
<g>
	<g>
		<path d="M431.032,364.064h-0.146c-5.512,0-9.98,4.468-9.98,9.98s4.468,9.98,9.98,9.98h0.146c5.512,0,9.98-4.468,9.98-9.98    S436.544,364.064,431.032,364.064z"/>
	</g>
</g>
<g>
	<g>
		<path d="M512,180.333v-42.375c0-4.762-3.363-8.86-8.032-9.789c-4.672-0.93-9.346,1.57-11.168,5.967    c-4.905,11.838-22.699,22.221-38.08,22.221H334.284c-40.112,0-72.746,32.634-72.746,72.746v43.888    c0,4.698,3.276,8.759,7.867,9.754c0.708,0.154,1.416,0.228,2.118,0.228c3.846,0,7.436-2.233,9.081-5.849    c1.828-4.02,5.341-8.274,9.802-12.066v51.965c-4.932,1.142-9.261,3.871-12.415,7.624l-76.807-32.918    c-1.243-0.533-2.58-0.807-3.931-0.807H9.98c-5.512,0-9.98,4.468-9.98,9.98v36.57c0,5.512,4.468,9.98,9.98,9.98h185.435    l91.509,34.87c0.017,0.007,0.035,0.011,0.052,0.017c2.663,1.081,5.57,1.682,8.617,1.682H400.96c5.512,0,9.98-4.468,9.98-9.98    s-4.468-9.98-9.98-9.98H295.592c-1.671,0-3.031-1.359-3.031-3.03v-21.614c0-1.671,1.359-3.031,3.031-3.031h4.794h188.588    c1.671,0,3.031,1.359,3.031,3.031v21.614c0,1.671-1.359,3.03-3.031,3.03h-27.883c-5.512,0-9.98,4.468-9.98,9.98    s4.468,9.98,9.98,9.98h27.883c12.678,0,22.992-10.314,22.992-22.991v-21.614c0-8.317-4.438-15.616-11.071-19.653V218.921    C507.92,207.725,512,194.5,512,180.333z M272.601,355.505l-71.796-27.358c-1.135-0.433-2.339-0.655-3.553-0.655H19.961v-16.609    h175.243l77.398,33.171V355.505z M337.98,316.426h-27.613v-62.089h-0.001c2.836-0.749,5.684-1.172,8.453-1.172h19.16V316.426z     M385.67,316.426h-27.73v-63.26h27.73V316.426z M433.36,316.426h-27.729v-63.26h27.729V316.426z M480.933,316.426h-27.613v-64.652    c10.111-2,19.468-6.104,27.613-11.828V316.426z M492.038,180.333c0,29.154-23.718,52.872-52.872,52.872H318.819    c-12.427,0-26.173,5.319-37.319,13.48v-17.581c0-29.106,23.679-52.785,52.785-52.785h120.435c13.099,0,26.555-4.649,37.319-12.083    V180.333z"/>
	</g>
</g>
<g>
</g>
<g>
</g>
<g>
</g>
<g>
</g>
<g>
</g>
<g>
</g>
<g>
</g>
<g>
</g>
<g>
</g>
<g>
</g>
<g>
</g>
<g>
</g>
<g>
</g>
<g>
</g>
<g>
</g>
</svg>
