<?xml version="1.0" encoding="iso-8859-1"?>
<!-- Generator: Adobe Illustrator 19.0.0, SVG Export Plug-In . SVG Version: 6.00 Build 0)  -->
<svg xmlns="http://www.w3.org/2000/svg" xmlns:xlink="http://www.w3.org/1999/xlink" version="1.1" id="Layer_1" x="0px" y="0px" viewBox="0 0 512 512" style="enable-background:new 0 0 512 512;" xml:space="preserve">
<g>
	<g>
		<path d="M463.492,103.863c-1.306-0.311-131.462-31.943-200.339-100.92c-1.804-1.811-4.298-2.935-7.054-2.943    c-0.002,0-0.004,0-0.006,0c-0.009,0-0.017,0-0.025,0h-0.136c-0.005,0-0.011,0-0.016,0c-0.004,0-0.009,0.001-0.015,0    c-2.756,0.008-5.25,1.131-7.054,2.943C180.052,71.837,49.813,103.551,48.508,103.863c-4.504,1.074-7.682,5.098-7.682,9.728    v187.296c0,36.505,10.981,67.362,33.57,94.333c20.914,24.971,49.109,43.192,73.931,57.722    c51.191,29.966,102.347,57.584,102.858,57.859c1.458,0.787,3.09,1.199,4.747,1.199h0.136c1.657,0,3.288-0.412,4.747-1.2    c0.511-0.275,51.667-27.892,102.858-57.859c24.822-14.53,53.017-32.751,73.931-57.722c22.589-26.971,33.57-57.828,33.57-94.333    V113.591C471.174,108.961,467.996,104.936,463.492,103.863z M451.174,300.886c0,71.658-50.382,107.151-97.605,134.795    c-41.917,24.538-83.823,47.498-97.569,54.978c-13.746-7.48-55.652-30.441-97.569-54.978    c-47.223-27.644-97.605-63.137-97.605-134.795V121.337c12.367-3.338,38.397-10.941,69.389-23.335    C183.412,76.727,225.669,51.792,256,23.801c30.331,27.991,72.588,52.926,125.785,74.2c30.992,12.395,57.021,19.998,69.389,23.336    V300.886z"/>
	</g>
</g>
<g>
	<g>
		<g>
			<path d="M183.826,392.611c-0.03-0.018-0.089-0.053-0.128-0.075c-4.736-2.779-10.801-1.198-13.616,3.528     c-2.827,4.745-1.238,10.903,3.507,13.729c1.605,0.956,3.368,1.411,5.109,1.411c3.407,0,6.729-1.743,8.601-4.884     C190.125,401.575,188.571,395.438,183.826,392.611z"/>
			<path d="M414.251,141.648c-41.788-13.508-102.136-37.357-152.327-74.26c-3.525-2.591-8.324-2.591-11.848,0     c-50.191,36.903-110.539,60.752-152.327,74.26c-4.128,1.334-6.924,5.177-6.924,9.515v149.724     c0,37.995,15.478,63.628,55.204,91.423c4.526,3.164,10.759,2.065,13.926-2.461s2.065-10.76-2.46-13.927     c-34.021-23.803-46.67-44.139-46.67-75.035V158.401C151.906,144.66,207.694,121.87,256,87.769     c48.306,34.101,104.094,56.891,145.176,70.632v142.485c0,37.087-17.705,59.356-72.864,91.645     c-26.545,15.538-53.216,30.505-72.311,41.081c-15.799-8.75-31.669-17.676-46.188-25.977c-4.794-2.74-10.903-1.077-13.645,3.718     c-2.741,4.795-1.076,10.904,3.718,13.645c16.315,9.328,33.568,19.016,51.281,28.796c1.504,0.831,3.168,1.246,4.833,1.246     c1.665,0,3.33-0.415,4.833-1.246c19.36-10.689,48.535-27,77.581-44.002c61.104-35.769,82.761-64.268,82.761-108.905V151.163     C421.175,146.825,418.379,142.982,414.251,141.648z"/>
		</g>
	</g>
</g>
<g>
	<g>
		<path d="M306.813,146c-25.443,0-37.619,16.263-45.676,27.024c-1.609,2.149-3.675,4.908-5.137,6.399    c-1.462-1.49-3.528-4.25-5.137-6.399C242.806,162.263,230.63,146,205.187,146C172.551,146,146,172.551,146,205.187    c0,15.605,1.73,28.829,24.118,57.031c8.125,10.234,12.425,31.258,16.218,49.806c2.566,12.544,4.989,24.393,8.562,33.648    c5.208,13.489,12.929,20.328,22.95,20.328c9.496,0,17.212-5.871,22.932-17.449c3.901-7.894,6.595-17.586,9.201-26.959    c1.545-5.56,3.859-13.88,6.019-18.818c2.16,4.937,4.474,13.257,6.019,18.818c2.606,9.373,5.301,19.065,9.201,26.959    C276.941,360.129,284.656,366,294.152,366c10.02,0,17.742-6.839,22.949-20.328c3.573-9.254,5.997-21.103,8.562-33.648    c3.794-18.549,8.093-39.572,16.218-49.806C364.27,234.016,366,220.791,366,205.187C366,172.551,339.449,146,306.813,146z     M326.218,249.782c-11.097,13.979-15.698,36.477-20.148,58.234c-2.117,10.352-4.117,20.129-6.608,27.608    c-2.75,8.256-4.957,10.083-5.382,10.371c-0.711-0.091-2.549-1.487-4.929-6.303c-3.066-6.206-5.504-14.976-7.862-23.457    c-2.232-8.027-4.34-15.609-7.102-21.712c-4.44-9.809-10.559-14.783-18.187-14.783s-13.747,4.973-18.186,14.782    c-2.763,6.103-4.871,13.685-7.102,21.712c-2.358,8.481-4.796,17.251-7.862,23.457c-2.371,4.798-4.204,6.202-4.931,6.302    c-0.43-0.292-2.634-2.126-5.38-10.369c-2.491-7.479-4.491-17.256-6.608-27.608c-4.45-21.757-9.051-44.255-20.148-58.234    C166,224.863,166,215.745,166,205.187C166,183.579,183.579,166,205.187,166c15.433,0,22.668,9.665,29.666,19.011    c5.571,7.441,11.332,15.135,21.147,15.135s15.576-7.694,21.147-15.135C284.145,175.665,291.38,166,306.813,166    C328.421,166,346,183.579,346,205.187C346,215.745,346,224.863,326.218,249.782z"/>
	</g>
</g>
<g>
</g>
<g>
</g>
<g>
</g>
<g>
</g>
<g>
</g>
<g>
</g>
<g>
</g>
<g>
</g>
<g>
</g>
<g>
</g>
<g>
</g>
<g>
</g>
<g>
</g>
<g>
</g>
<g>
</g>
</svg>
