<?xml version="1.0" encoding="iso-8859-1"?>
<!-- Generator: Adobe Illustrator 19.0.0, SVG Export Plug-In . SVG Version: 6.00 Build 0)  -->
<svg xmlns="http://www.w3.org/2000/svg" xmlns:xlink="http://www.w3.org/1999/xlink" version="1.1" id="Layer_1" x="0px" y="0px" viewBox="0 0 512 512" style="enable-background:new 0 0 512 512;" xml:space="preserve">
<g>
	<g>
		<path d="M405.651,247.999h-0.132c-5.522,0-10,4.477-10,10s4.478,10,10,10h0.132c5.523,0,10-4.477,10-10    C415.651,252.476,411.173,247.999,405.651,247.999z"/>
	</g>
</g>
<g>
	<g>
		<path d="M506.483,204.66l-140.218-70.332V37c0-5.523-4.478-10-10-10H155.734c-5.522,0-10,4.477-10,10v97.329L5.517,204.66    C2.135,206.356,0,209.815,0,213.599V475c0,5.523,4.478,10,10,10h492c5.522,0,10-4.477,10-10V213.599    C512,209.815,509.865,206.356,506.483,204.66z M316.133,47h30.133v83.5h-30.133V47z M266,47h30.133v83.5H266V47z M215.867,47H246    v83.5h-30.133V47z M165.734,47h30.133v83.5h-30.133V47z M492,248.001h-54.914c-5.522,0-10,4.477-10,10c0,5.523,4.478,10,10,10H492    V388H172V268.001h201.088c5.522,0,10-4.477,10-10s-4.478-10-10-10H162c-5.522,0-10,4.477-10,10V398c0,5.523,4.478,10,10,10h330v57    H20V219.77l138.102-69.27h195.797L492,219.77V248.001z"/>
	</g>
</g>
<g>
</g>
<g>
</g>
<g>
</g>
<g>
</g>
<g>
</g>
<g>
</g>
<g>
</g>
<g>
</g>
<g>
</g>
<g>
</g>
<g>
</g>
<g>
</g>
<g>
</g>
<g>
</g>
<g>
</g>
</svg>
