<?xml version="1.0" encoding="iso-8859-1"?>
<!-- Generator: Adobe Illustrator 19.0.0, SVG Export Plug-In . SVG Version: 6.00 Build 0)  -->
<svg xmlns="http://www.w3.org/2000/svg" xmlns:xlink="http://www.w3.org/1999/xlink" version="1.1" id="Layer_1" x="0px" y="0px" viewBox="0 0 512 512" style="enable-background:new 0 0 512 512;" xml:space="preserve">
<g>
	<g>
		<path d="M409.894,211.979c1.559-56.53-20.263-111.543-60.306-151.588c-41.163-41.162-98.138-63.07-156.324-60.129    c-3.948,0.2-7.408,2.707-8.827,6.397c-1.42,3.689-0.534,7.869,2.261,10.664l149.184,149.183c-0.979-0.453-1.955-0.909-2.943-1.347    c-24.288-10.752-50.174-16.204-76.939-16.204c-26.766,0-52.652,5.452-76.939,16.204c-15.774,6.983-30.352,15.969-43.572,26.816    c-3.49-5.118-5.535-11.296-5.535-17.945V64.807c0-5.524-4.478-10.001-10.001-10.001s-10.001,4.478-10.001,10.001V174.03    c0,11.834,3.987,22.751,10.678,31.495c-0.143,0.145-0.283,0.292-0.426,0.437h-8.275c-2.828,0-5.525,1.197-7.421,3.296    C70.569,246.819,51.88,295.4,51.88,346.054c0,32.852,7.57,64.223,22.499,93.242c14.237,27.673,35.002,52.131,60.05,70.733    c1.724,1.28,3.814,1.971,5.963,1.971h231.216c2.147,0,4.239-0.691,5.963-1.971c25.048-18.6,45.814-43.059,60.05-70.733    c14.929-29.021,22.499-60.391,22.499-93.242C460.118,296.613,442.304,249.151,409.894,211.979z M218.235,20.573    c43.97,3.458,85.718,22.475,117.207,53.964c31.491,31.491,50.507,73.233,53.964,117.206L218.235,20.573z M255.998,168.958    c39.196,0,76.051,13,106.029,37.005h-20.915c-22.848-18.404-52.907-28.504-85.114-28.504s-62.267,10.099-85.115,28.504h-9.001    c-3.46,0-6.79-0.56-9.912-1.583C181.58,181.384,217.67,168.958,255.998,168.958z M301.417,205.962H210.58    c13.991-5.522,29.538-8.501,45.419-8.501C271.879,197.461,287.426,200.441,301.417,205.962z M368.253,491.998H143.745    c-45.718-35.17-71.863-88.174-71.863-145.944c0-44.221,15.79-86.689,44.557-120.089h279.119    c28.769,33.399,44.557,75.866,44.557,120.089C440.116,403.824,413.97,456.827,368.253,491.998z"/>
	</g>
</g>
<g>
	<g>
		<path d="M119.95,23.409c-5.524,0-10.001,4.478-10.001,10.001v0.25c0,5.524,4.478,10.001,10.001,10.001    c5.524,0,10.001-4.478,10.001-10.001v-0.25C129.952,27.887,125.474,23.409,119.95,23.409z"/>
	</g>
</g>
<g>
	<g>
		<path d="M255.998,231.685c-0.008,0-0.023,0-0.031,0c-62.867,0.017-113.999,51.177-113.983,114.045    c0.007,25.02,7.966,48.767,23.019,68.673c14.556,19.25,35.241,33.646,58.246,40.533c0.957,0.287,1.922,0.423,2.872,0.423    c4.304,0,8.279-2.8,9.577-7.135c1.584-5.292-1.42-10.865-6.712-12.45c-39.437-11.808-66.988-48.838-66.999-90.051    c-0.014-51.838,42.148-94.024,93.986-94.038c0.01,0,0.016,0,0.025,0c51.825,0,93.999,42.158,94.012,93.988    c0.011,41.213-27.521,78.259-66.953,90.087c-5.291,1.586-8.293,7.162-6.706,12.453c1.586,5.291,7.162,8.294,12.453,6.706    c23.003-6.9,43.681-21.306,58.227-40.564c15.042-19.915,22.989-43.667,22.982-68.686    C369.996,282.809,318.856,231.685,255.998,231.685z"/>
	</g>
</g>
<g>
	<g>
		<path d="M256.023,439.748c-5.524,0-10.001,4.525-10.001,10.048s4.478,10.001,10.001,10.001c5.524,0,10.001-4.478,10.001-10.001    v-0.095C266.024,444.178,261.547,439.748,256.023,439.748z"/>
	</g>
</g>
<g>
</g>
<g>
</g>
<g>
</g>
<g>
</g>
<g>
</g>
<g>
</g>
<g>
</g>
<g>
</g>
<g>
</g>
<g>
</g>
<g>
</g>
<g>
</g>
<g>
</g>
<g>
</g>
<g>
</g>
</svg>
