<?xml version="1.0" encoding="iso-8859-1"?>
<!-- Generator: Adobe Illustrator 19.0.0, SVG Export Plug-In . SVG Version: 6.00 Build 0)  -->
<svg xmlns="http://www.w3.org/2000/svg" xmlns:xlink="http://www.w3.org/1999/xlink" version="1.1" id="Layer_1" x="0px" y="0px" viewBox="0 0 512 512" style="enable-background:new 0 0 512 512;" xml:space="preserve">
<g>
	<g>
		<path d="M472.001,261.841c-5.522,0-10,4.477-10,10v0.131c0,5.523,4.478,10,10,10c5.522,0,10-4.477,10-10v-0.131    C482.001,266.318,477.523,261.841,472.001,261.841z"/>
	</g>
</g>
<g>
	<g>
		<path d="M471.999,249.409c5.522,0,10-4.477,10-10V153.5c0-33.911-27.589-61.5-61.5-61.5H91.5C57.589,92,30,119.589,30,153.5    v204.128c0,33.911,27.589,61.5,61.5,61.5h328.999c33.911,0,61.5-27.589,61.5-61.5v-54.221c0-5.523-4.478-10-10-10    c-5.522,0-10,4.477-10,10v54.221c0,22.883-18.617,41.5-41.5,41.5H91.5c-22.883,0-41.5-18.617-41.5-41.5V153.5    c0-22.883,18.617-41.5,41.5-41.5h328.999c22.883,0,41.5,18.617,41.5,41.5v85.909C461.999,244.932,466.477,249.409,471.999,249.409    z"/>
	</g>
</g>
<g>
	<g>
		<path d="M430.5,62h-349C36.561,62,0,98.561,0,143.5v225C0,413.439,36.561,450,81.5,450h349c44.939,0,81.5-36.561,81.5-81.5v-225    C512,98.561,475.439,62,430.5,62z M492,368.5c0,33.911-27.589,61.5-61.5,61.5h-349C47.589,430,20,402.411,20,368.5v-225    C20,109.589,47.589,82,81.5,82h349c33.911,0,61.5,27.589,61.5,61.5V368.5z"/>
	</g>
</g>
<g>
	<g>
		<path d="M416.521,182c-18.085,0-26.867,11.729-32.114,18.738c-0.13,0.174-0.267,0.356-0.406,0.542    c-0.14-0.186-0.276-0.368-0.406-0.542C378.347,193.729,369.564,182,351.479,182c-12.583,0-23.866,5.639-31.479,14.514    C312.387,187.639,301.103,182,288.521,182c-18.085,0-26.867,11.729-32.114,18.738c-0.13,0.174-0.267,0.356-0.406,0.542    c-0.14-0.186-0.276-0.368-0.406-0.542C250.347,193.729,241.564,182,223.479,182c-12.583,0-23.866,5.639-31.479,14.514    C184.387,187.639,173.103,182,160.521,182c-18.085,0-26.867,11.729-32.114,18.738c-0.13,0.174-0.267,0.356-0.406,0.542    c-0.14-0.186-0.276-0.368-0.406-0.542C122.347,193.729,113.564,182,95.479,182C72.607,182,54,200.607,54,223.479    c0,10.375,1.194,19.815,16.217,38.738c4.665,5.875,7.324,18.882,9.672,30.358c1.673,8.181,3.253,15.907,5.648,22.111    C90.423,327.343,98.048,330,103.583,330c15.399,0,20.187-17.22,24.033-31.057c0.122-0.44,0.25-0.902,0.384-1.379    c0.134,0.477,0.262,0.939,0.384,1.379C132.23,312.78,137.018,330,152.417,330c5.535,0,13.16-2.657,18.046-15.313    c2.396-6.204,3.976-13.93,5.648-22.111c2.348-11.476,5.007-24.482,9.672-30.358c2.413-3.039,4.465-5.832,6.217-8.425    c1.752,2.593,3.804,5.385,6.217,8.425c4.665,5.875,7.324,18.882,9.672,30.358c1.673,8.181,3.253,15.907,5.648,22.111    C218.423,327.343,226.048,330,231.583,330c15.399,0,20.187-17.22,24.033-31.057c0.122-0.44,0.25-0.902,0.384-1.379    c0.134,0.477,0.262,0.939,0.384,1.379C260.23,312.78,265.018,330,280.417,330c5.535,0,13.16-2.657,18.046-15.313    c2.396-6.204,3.976-13.93,5.648-22.111c2.348-11.476,5.007-24.482,9.672-30.358c2.413-3.039,4.465-5.832,6.217-8.425    c1.752,2.593,3.804,5.385,6.217,8.425c4.665,5.875,7.324,18.882,9.672,30.358c1.673,8.181,3.253,15.907,5.648,22.111    C346.423,327.343,354.048,330,359.583,330c15.399,0,20.187-17.22,24.033-31.057c0.122-0.44,0.25-0.902,0.384-1.379    c0.134,0.477,0.262,0.939,0.384,1.379C388.23,312.78,393.018,330,408.417,330c5.535,0,13.16-2.657,18.046-15.313    c2.396-6.204,3.976-13.93,5.648-22.111c2.348-11.476,5.007-24.482,9.672-30.358C456.806,243.295,458,233.854,458,223.479    C458,200.607,439.393,182,416.521,182z M170.119,249.782c-7.637,9.62-10.67,24.447-13.602,38.786    c-1.182,5.776-2.805,13.713-4.519,18.507c-1.667-3.853-3.318-9.792-4.346-13.489c-3.387-12.184-7.226-25.993-19.653-25.993    s-16.267,13.809-19.653,25.993c-1.027,3.697-2.679,9.637-4.346,13.489c-1.714-4.794-3.337-12.731-4.519-18.507    c-2.932-14.339-5.965-29.166-13.602-38.786C74,234.817,74,229.814,74,223.479C74,211.636,83.636,202,95.479,202    c7.531,0,11.108,4.052,16.104,10.725c3.712,4.958,8.332,11.129,16.416,11.129c8.084,0,12.704-6.171,16.416-11.129    c4.996-6.673,8.573-10.725,16.104-10.725c11.844,0,21.479,9.636,21.479,21.479C182,229.814,182,234.817,170.119,249.782z     M298.119,249.782c-7.637,9.62-10.67,24.447-13.602,38.786c-1.182,5.776-2.805,13.713-4.519,18.507    c-1.667-3.853-3.318-9.792-4.346-13.489c-3.387-12.184-7.226-25.993-19.653-25.993c-12.427,0-16.267,13.809-19.653,25.993    c-1.027,3.697-2.679,9.637-4.346,13.489c-1.714-4.794-3.337-12.731-4.519-18.507c-2.932-14.339-5.965-29.166-13.602-38.786    C202,234.817,202,229.814,202,223.479c0-11.844,9.636-21.479,21.479-21.479c7.531,0,11.108,4.052,16.104,10.725    c3.712,4.958,8.332,11.129,16.416,11.129s12.704-6.171,16.416-11.129c4.996-6.673,8.573-10.725,16.104-10.725    c11.844,0,21.479,9.636,21.479,21.479C310,229.814,310,234.817,298.119,249.782z M426.119,249.782    c-7.637,9.62-10.67,24.447-13.602,38.786c-1.182,5.776-2.805,13.713-4.519,18.507c-1.667-3.853-3.318-9.792-4.346-13.489    c-3.387-12.184-7.226-25.993-19.653-25.993s-16.267,13.809-19.653,25.993c-1.027,3.697-2.679,9.637-4.346,13.489    c-1.714-4.794-3.337-12.731-4.519-18.507c-2.932-14.339-5.965-29.166-13.602-38.786C330,234.817,330,229.814,330,223.479    c0-11.844,9.636-21.479,21.479-21.479c7.531,0,11.108,4.052,16.104,10.725c3.712,4.958,8.332,11.129,16.416,11.129    c8.084,0,12.704-6.171,16.416-11.129c4.996-6.673,8.573-10.725,16.104-10.725c11.844,0,21.479,9.636,21.479,21.479    C438,229.814,438,234.817,426.119,249.782z"/>
	</g>
</g>
<g>
</g>
<g>
</g>
<g>
</g>
<g>
</g>
<g>
</g>
<g>
</g>
<g>
</g>
<g>
</g>
<g>
</g>
<g>
</g>
<g>
</g>
<g>
</g>
<g>
</g>
<g>
</g>
<g>
</g>
</svg>
