<?xml version="1.0" encoding="iso-8859-1"?>
<!-- Generator: Adobe Illustrator 19.0.0, SVG Export Plug-In . SVG Version: 6.00 Build 0)  -->
<svg version="1.1" id="Layer_1" xmlns="http://www.w3.org/2000/svg" xmlns:xlink="http://www.w3.org/1999/xlink" x="0px" y="0px"
	 viewBox="0 0 512.002 512.002" style="enable-background:new 0 0 512.002 512.002;" xml:space="preserve">
<path style="fill:#B0DCF7;" d="M396.949,247.833c3.543-33.881-5.542-66.731-15.022-81.84v0.001
	c-10.236-17.34-20.75-31.265-41.205-43.108v-0.001c-34.801-20.054-79-18.013-117.743,7.693
	c-40.002-26.541-84.103-27.003-117.743-7.693l0.001,0.001c-17.994,10.342-31.683,25.424-41.195,43.092l-0.01,0.017
	c0,0,0-0.001-0.001-0.001c-31.657,51.255-17.241,149.9,52.082,198c-11.911,91.955,35.518,172.961,50.255,140.846
	c7.583-16.507-0.109-39.428,10.876-74.159c5.701-16.386,18.424-27.339,30.047-30.734c0.492-0.395,8.374-2.367,15.689-2.436
	c7.304,0.069,15.19,2.038,15.689,2.436c11.416,3.334,24.254,14.088,30.047,30.734c7.283,20.077,6.574,43.939,6.716,49.531
	c2.015,82.256,68.295-9.14,54.416-116.218C368.185,337.406,392.829,291.852,396.949,247.833z"/>
<path style="fill:#7AC1DD;" d="M134.972,384.091c-0.05-21.894,3.104-27.89-1.328-32.597C76.25,309.052,52.023,226.408,81.58,162.215
	c0.567-1.227,2.658-5.499,3.209-6.401c0,0,0,0.001,0.001,0.001c1.981-3.02,12.023-24.496,36.989-40.549
	c-5.626,1.997-11.212,4.558-16.545,7.619l0.001,0.001c-17.994,10.342-31.683,25.424-41.195,43.092l-0.01,0.017
	c0,0,0-0.001-0.001-0.001c-31.521,51.035-17.469,149.741,52.082,198c-12.7,98.049,42.031,183.504,52.7,133.045
	C153.064,482.527,135.095,437.253,134.972,384.091z"/>
<path style="fill:#C5E7F9;" d="M381.926,165.993L381.926,165.993c-10.236-17.339-20.75-31.264-41.205-43.108v-0.001
	c-34.503-19.882-78.362-18.107-117.068,7.257c-6.61,94.33,36.315,180.484,107.278,233.08c37.75-26.772,61.932-71.723,66.019-115.388
	C400.493,213.952,391.406,181.103,381.926,165.993z"/>
<path style="fill:#F9C146;" d="M431.27,140.219c-36.229,0-65.704-29.476-65.704-65.704c0-3.373-2.735-6.107-6.107-6.107
	c-3.374,0-6.107,2.734-6.107,6.107c0,36.228-29.476,65.704-65.704,65.704c-3.374,0-6.107,2.734-6.107,6.107
	c0,3.373,2.733,6.107,6.107,6.107c36.229,0,65.704,29.476,65.704,65.705c0,3.373,2.733,6.107,6.107,6.107
	c3.372,0,6.107-2.734,6.107-6.107c0-36.23,29.476-65.705,65.704-65.705c3.374,0,6.107-2.734,6.107-6.107
	C437.377,142.953,434.644,140.219,431.27,140.219z"/>
<path style="fill:#F79D31;" d="M332.067,146.326c20.733-10.996,34.916-32.76,35.019-57.797c-0.986-4.519-1.52-9.204-1.52-14.015
	c0-3.373-2.735-6.107-6.107-6.107c-3.374,0-6.107,2.734-6.107,6.107c0,36.353-29.637,65.704-65.704,65.704
	c-3.374,0-6.107,2.734-6.107,6.107l0,0c0,3.368,2.728,6.108,6.107,6.108c1.19,0,2.373,0.034,3.547,0.098
	c34.658,1.904,62.157,30.617,62.157,65.607c0,3.373,2.733,6.107,6.107,6.107c3.372,0,6.107-2.734,6.107-6.107
	c0-4.811,0.533-9.496,1.52-14.014C366.983,179.087,352.799,157.325,332.067,146.326z"/>
<path style="fill:#F9C146;" d="M457.837,45.674c-17.256,0-31.292-14.038-31.292-31.295c0-3.373-2.735-6.107-6.107-6.107
	c-3.374,0-6.107,2.734-6.107,6.107c0,17.257-14.039,31.295-31.295,31.295c-3.374,0-6.107,2.734-6.107,6.108
	c0,3.373,2.733,6.107,6.107,6.107c17.255,0,31.295,14.038,31.295,31.295c0,3.373,2.733,6.108,6.107,6.108
	c3.372,0,6.107-2.735,6.107-6.108c0-17.257,14.036-31.295,31.292-31.295c3.372,0,6.108-2.734,6.108-6.107
	C463.946,48.408,461.21,45.674,457.837,45.674z"/>
<path style="fill:#F79D31;" d="M411.946,51.782c8.817-6.118,14.606-16.308,14.606-27.831c0-1.063,0.257-2.063,0.702-2.952
	c-0.462-2.135-0.71-4.348-0.71-6.619c0-3.373-2.735-6.107-6.107-6.107c-3.374,0-6.107,2.734-6.107,6.107
	c0,15.008-10.621,27.578-24.74,30.6c0,0-2.913,0.695-6.555,0.695c-3.374,0-6.107,2.734-6.107,6.108l0,0
	c0,3.368,2.728,6.108,6.107,6.108c2.247,0,4.438,0.244,6.553,0.696c0,0,0.001-0.001,0.002-0.001
	c14.118,3.021,24.74,15.591,24.74,30.599c0,3.373,2.733,6.108,6.107,6.108c3.372,0,6.107-2.735,6.107-6.108
	c0-2.271,0.248-4.483,0.71-6.618c-0.445-0.89-0.702-1.89-0.702-2.952C426.554,68.091,420.764,57.9,411.946,51.782z"/>
<path style="fill:#F9C146;" d="M291.579,70.158c3.372,0,6.107-2.734,6.107-6.107c0-12.605,10.255-22.862,22.862-22.862
	c3.372,0,6.107-2.734,6.107-6.107s-2.735-6.107-6.107-6.107c-12.606,0-22.862-10.256-22.862-22.864c0-3.373-2.735-6.108-6.107-6.108
	c-3.374,0-6.107,2.734-6.107,6.108c0,12.607-10.256,22.864-22.863,22.864c-3.372,0-6.107,2.734-6.107,6.107s2.735,6.107,6.107,6.107
	c12.606,0,22.863,10.256,22.863,22.862C285.471,67.424,288.204,70.158,291.579,70.158z"/>
<path style="fill:#F79D31;" d="M286.023,35.081c6.356-4.066,10.583-11.182,10.583-19.272c0-1.659,0.664-3.161,1.738-4.263
	c-0.428-1.743-0.658-3.563-0.658-5.438c0-3.373-2.735-6.108-6.107-6.108c-3.374,0-6.107,2.734-6.107,6.108
	c0,12.606-10.256,22.862-22.863,22.862c-3.369,0-6.107,2.732-6.107,6.109l0,0c0,3.373,2.735,6.107,6.107,6.107
	c12.717,0,22.863,10.363,22.863,22.862c0,3.373,2.733,6.107,6.107,6.107c3.372,0,6.107-2.734,6.107-6.107
	c0-1.874,0.23-3.693,0.658-5.437c-1.074-1.102-1.738-2.604-1.738-4.263C296.607,46.261,292.38,39.145,286.023,35.081z"/>
<g>
</g>
<g>
</g>
<g>
</g>
<g>
</g>
<g>
</g>
<g>
</g>
<g>
</g>
<g>
</g>
<g>
</g>
<g>
</g>
<g>
</g>
<g>
</g>
<g>
</g>
<g>
</g>
<g>
</g>
</svg>
