<?xml version="1.0" encoding="UTF-8" standalone="no"?>
<!DOCTYPE svg PUBLIC "-//W3C//DTD SVG 1.1//EN"
 "http://www.w3.org/Graphics/SVG/1.1/DTD/svg11.dtd">
<!-- Generated by graphviz version 2.40.1 (20161225.0304)
 -->
<!-- Title: dependencies Pages: 1 -->
<svg width="864pt" height="211pt"
 viewBox="0.00 0.00 864.00 211.00" xmlns="http://www.w3.org/2000/svg" xmlns:xlink="http://www.w3.org/1999/xlink">
<g id="graph0" class="graph" transform="scale(1 1) rotate(0) translate(4 207)">
<title>dependencies</title>
<polygon fill="#ffffff" stroke="transparent" points="-4,4 -4,-207 860,-207 860,4 -4,4"/>
<text text-anchor="start" x="407.0091" y="-42.4" font-family="sans-serif" font-weight="bold" font-size="14.00" fill="#000000">Legend</text>
<polygon fill="#ffffb3" stroke="transparent" points="194,-10 194,-30 214,-30 214,-10 194,-10"/>
<text text-anchor="start" x="217.629" y="-15.4" font-family="sans-serif" font-size="14.00" fill="#000000"> &#160;Declarations</text>
<polygon fill="#8dd3c7" stroke="transparent" points="307,-10 307,-30 327,-30 327,-10 307,-10"/>
<text text-anchor="start" x="330.7251" y="-15.4" font-family="sans-serif" font-size="14.00" fill="#000000"> &#160;Module</text>
<polygon fill="#80b1d3" stroke="transparent" points="393,-10 393,-30 413,-30 413,-10 393,-10"/>
<text text-anchor="start" x="416.7812" y="-15.4" font-family="sans-serif" font-size="14.00" fill="#000000"> &#160;Bootstrap</text>
<polygon fill="#fdb462" stroke="transparent" points="490,-10 490,-30 510,-30 510,-10 490,-10"/>
<text text-anchor="start" x="513.6732" y="-15.4" font-family="sans-serif" font-size="14.00" fill="#000000"> &#160;Providers</text>
<polygon fill="#fb8072" stroke="transparent" points="586,-10 586,-30 606,-30 606,-10 586,-10"/>
<text text-anchor="start" x="609.7258" y="-15.4" font-family="sans-serif" font-size="14.00" fill="#000000"> &#160;Exports</text>
<g id="clust1" class="cluster">
<title>cluster_PriceListModule</title>
<polygon fill="none" stroke="#000000" stroke-dasharray="1,5" points="8,-70 8,-195 848,-195 848,-70 8,-70"/>
</g>
<g id="clust2" class="cluster">
<title>cluster_PriceListModule_declarations</title>
<polygon fill="none" stroke="#000000" points="312,-78 312,-130 840,-130 840,-78 312,-78"/>
</g>
<g id="clust6" class="cluster">
<title>cluster_PriceListModule_imports</title>
<polygon fill="none" stroke="#000000" points="16,-78 16,-130 304,-130 304,-78 16,-78"/>
</g>
<!-- PriceListComponent -->
<g id="node1" class="node">
<title>PriceListComponent</title>
<polygon fill="#ffffb3" stroke="#000000" points="831.8739,-122 700.1261,-122 700.1261,-86 831.8739,-86 831.8739,-122"/>
<text text-anchor="middle" x="766" y="-99.8" font-family="Times,serif" font-size="14.00" fill="#000000">PriceListComponent</text>
</g>
<!-- PriceListModule -->
<g id="node4" class="node">
<title>PriceListModule</title>
<polygon fill="#8dd3c7" stroke="#000000" points="469.0912,-187 466.0912,-191 445.0912,-191 442.0912,-187 358.9088,-187 358.9088,-151 469.0912,-151 469.0912,-187"/>
<text text-anchor="middle" x="414" y="-164.8" font-family="Times,serif" font-size="14.00" fill="#000000">PriceListModule</text>
</g>
<!-- PriceListComponent&#45;&gt;PriceListModule -->
<g id="edge1" class="edge">
<title>PriceListComponent&#45;&gt;PriceListModule</title>
<path fill="none" stroke="#000000" d="M766,-122.2843C766,-143.3211 766,-175 766,-175 766,-175 479.3872,-175 479.3872,-175"/>
<polygon fill="#000000" stroke="#000000" points="479.3873,-171.5001 469.3872,-175 479.3872,-178.5001 479.3873,-171.5001"/>
</g>
<!-- ManipulationComponent -->
<g id="node2" class="node">
<title>ManipulationComponent</title>
<polygon fill="#ffffb3" stroke="#000000" points="682.2688,-122 525.7312,-122 525.7312,-86 682.2688,-86 682.2688,-122"/>
<text text-anchor="middle" x="604" y="-99.8" font-family="Times,serif" font-size="14.00" fill="#000000">ManipulationComponent</text>
</g>
<!-- ManipulationComponent&#45;&gt;PriceListModule -->
<g id="edge2" class="edge">
<title>ManipulationComponent&#45;&gt;PriceListModule</title>
<path fill="none" stroke="#000000" d="M604,-122.0225C604,-139.3734 604,-163 604,-163 604,-163 479.2111,-163 479.2111,-163"/>
<polygon fill="#000000" stroke="#000000" points="479.2111,-159.5001 469.2111,-163 479.2111,-166.5001 479.2111,-159.5001"/>
</g>
<!-- ManipulationFormComponent -->
<g id="node3" class="node">
<title>ManipulationFormComponent</title>
<polygon fill="#ffffb3" stroke="#000000" points="507.6024,-122 320.3976,-122 320.3976,-86 507.6024,-86 507.6024,-122"/>
<text text-anchor="middle" x="414" y="-99.8" font-family="Times,serif" font-size="14.00" fill="#000000">ManipulationFormComponent</text>
</g>
<!-- ManipulationFormComponent&#45;&gt;PriceListModule -->
<g id="edge3" class="edge">
<title>ManipulationFormComponent&#45;&gt;PriceListModule</title>
<path fill="none" stroke="#000000" d="M414,-122.1061C414,-122.1061 414,-140.991 414,-140.991"/>
<polygon fill="#000000" stroke="#000000" points="410.5001,-140.9909 414,-150.991 417.5001,-140.991 410.5001,-140.9909"/>
</g>
<!-- SharedModule -->
<g id="node5" class="node">
<title>SharedModule</title>
<polygon fill="#8dd3c7" stroke="#000000" points="296.4231,-122 293.4231,-126 272.4231,-126 269.4231,-122 197.5769,-122 197.5769,-86 296.4231,-86 296.4231,-122"/>
<text text-anchor="middle" x="247" y="-99.8" font-family="Times,serif" font-size="14.00" fill="#000000">SharedModule</text>
</g>
<!-- SharedModule&#45;&gt;PriceListModule -->
<g id="edge4" class="edge">
<title>SharedModule&#45;&gt;PriceListModule</title>
<path fill="none" stroke="#000000" d="M247,-122.0225C247,-139.3734 247,-163 247,-163 247,-163 348.8551,-163 348.8551,-163"/>
<polygon fill="#000000" stroke="#000000" points="348.8552,-166.5001 358.8551,-163 348.8551,-159.5001 348.8552,-166.5001"/>
</g>
<!-- PriceListRoutingModule -->
<g id="node6" class="node">
<title>PriceListRoutingModule</title>
<polygon fill="#8dd3c7" stroke="#000000" points="179.7091,-122 176.7091,-126 155.7091,-126 152.7091,-122 24.2909,-122 24.2909,-86 179.7091,-86 179.7091,-122"/>
<text text-anchor="middle" x="102" y="-99.8" font-family="Times,serif" font-size="14.00" fill="#000000">PriceListRoutingModule</text>
</g>
<!-- PriceListRoutingModule&#45;&gt;PriceListModule -->
<g id="edge5" class="edge">
<title>PriceListRoutingModule&#45;&gt;PriceListModule</title>
<path fill="none" stroke="#000000" d="M102,-122.2843C102,-143.3211 102,-175 102,-175 102,-175 348.9389,-175 348.9389,-175"/>
<polygon fill="#000000" stroke="#000000" points="348.9389,-178.5001 358.9389,-175 348.9388,-171.5001 348.9389,-178.5001"/>
</g>
</g>
</svg>
