<?xml version="1.0" encoding="iso-8859-1"?>
<!-- Generator: Adobe Illustrator 19.0.0, SVG Export Plug-In . SVG Version: 6.00 Build 0)  -->
<svg xmlns="http://www.w3.org/2000/svg" xmlns:xlink="http://www.w3.org/1999/xlink" version="1.1" id="Capa_1" x="0px" y="0px" viewBox="0 0 512 512" style="enable-background:new 0 0 512 512;" xml:space="preserve">
<g>
	<g>
		<path d="M511.53,193.476c-0.436-49.293-19.405-98.451-56.931-135.979c-0.002-0.002-0.005-0.004-0.007-0.007    c-75.815-75.812-199.025-76.408-275.436,0c-0.002,0.002-0.005,0.004-0.007,0.007c-63.721,63.725-75.358,163.247-28.082,239.932    L13.143,434.882c-17.524,17.524-17.525,46.039,0,63.564c17.514,17.515,46.03,17.535,63.546,0.018L214.624,361    c75.897,46.813,175.641,36.269,239.972-28.063C500.109,287.424,514.95,222.851,511.53,193.476z M478.285,162.249    c-21.478-12.551-45.981-19.25-71.519-19.25c-24.784,0-48.598,6.306-69.615,18.15c13.852-43.342,53.392-75.309,100.632-77.904    C458.967,106.098,472.468,133.54,478.285,162.249z M323.128,30.62c30.601,1.13,59.712,10.531,84.737,27.147    c-48.627,12.795-87.146,50.773-100.708,99.086C286.279,116.429,291.601,65.875,323.128,30.62z M283.987,33.748    c-25.301,43.42-25.672,97.48-1.111,141.212c-43.379-13.831-75.378-53.389-77.973-100.656    C227.283,53.548,254.506,39.668,283.987,33.748z M179.432,104.249c12.807,48.636,50.806,87.156,99.141,100.7    c-15.749,8.178-33.336,12.519-51.592,12.519c-27.84,0-54.127-10.081-74.705-28.507    C153.392,159.31,162.439,129.907,179.432,104.249z M55.52,477.258c-5.841,5.841-15.346,5.842-21.188,0    c-5.878-5.877-5.827-15.362-0.019-21.17l134.63-134.171c3.234,3.771,6.636,7.446,10.206,11.017    c0.002,0.002,0.005,0.004,0.007,0.007c3.556,3.556,7.216,6.946,10.972,10.169L55.52,477.258z M195.964,307.186    c-21.184-22.854-34.686-50.295-40.503-79.005c21.479,12.552,45.983,19.251,71.52,19.251c24.784,0,48.598-6.305,69.614-18.15    C282.745,272.625,243.205,304.59,195.964,307.186z M310.62,359.814c-29.65-1.117-59.053-10.163-84.712-27.156    c48.636-12.807,87.155-50.806,100.7-99.141c8.179,15.75,12.519,33.336,12.519,51.593    C339.127,312.949,329.046,339.236,310.62,359.814z M349.84,356.627c12.551-21.478,19.251-45.982,19.251-71.519    c0-24.784-6.305-48.598-18.15-69.615c43.343,13.851,75.309,53.391,77.904,100.631C405.991,337.308,378.55,350.81,349.84,356.627z     M454.315,286.182c-12.806-48.636-50.805-87.155-99.14-100.7c15.75-8.178,33.336-12.519,51.592-12.519    c27.84,0,54.127,10.081,74.704,28.507C480.355,231.121,471.309,260.524,454.315,286.182z"/>
	</g>
</g>
<g>
</g>
<g>
</g>
<g>
</g>
<g>
</g>
<g>
</g>
<g>
</g>
<g>
</g>
<g>
</g>
<g>
</g>
<g>
</g>
<g>
</g>
<g>
</g>
<g>
</g>
<g>
</g>
<g>
</g>
</svg>
