<?xml version="1.0" encoding="iso-8859-1"?>
<!-- Generator: Adobe Illustrator 19.0.0, SVG Export Plug-In . SVG Version: 6.00 Build 0)  -->
<svg xmlns="http://www.w3.org/2000/svg" xmlns:xlink="http://www.w3.org/1999/xlink" version="1.1" id="Capa_1" x="0px" y="0px" viewBox="0 0 512 512" style="enable-background:new 0 0 512 512;" xml:space="preserve">
<g>
	<g>
		<circle cx="135.988" cy="166.006" r="14.999"/>
	</g>
</g>
<g>
	<g>
		<path d="M285.975,151.009h-89.992c-8.283,0-14.999,6.715-14.999,14.999c0,8.283,6.715,14.999,14.999,14.999h89.992    c8.283,0,14.999-6.715,14.999-14.999C300.974,157.724,294.258,151.009,285.975,151.009z"/>
	</g>
</g>
<g>
	<g>
		<circle cx="135.988" cy="226.001" r="14.999"/>
	</g>
</g>
<g>
	<g>
		<path d="M285.122,211.004h-89.139c-8.283,0-14.999,6.715-14.999,14.999s6.715,14.999,14.999,14.999h89.139    c8.283,0,14.999-6.715,14.999-14.999S293.405,211.004,285.122,211.004z"/>
	</g>
</g>
<g>
	<g>
		<path d="M488.236,217.658l10.606-10.606c17.543-17.543,17.543-46.09,0-63.633c-8.499-8.499-19.798-13.179-31.817-13.179    c-12.019,0-23.319,4.681-31.817,13.179l-14.245,14.245v-51.65c0-24.811-20.185-44.996-44.996-44.996h-62.502    c-2.166-6.294-5.693-12.116-10.436-17.078c-8.581-8.977-19.964-13.92-32.053-13.92h-17.568    c-6.19-17.459-22.872-29.997-42.426-29.997c-19.554,0-36.236,12.538-42.426,29.997h-17.568c-12.088,0-23.472,4.944-32.053,13.921    c-4.743,4.961-8.27,10.782-10.436,17.077H44.996C20.185,61.017,0,81.202,0,106.013v360.968c0,24.811,20.185,44.996,44.996,44.996    h330.971c24.811,0,44.996-20.185,44.996-44.996v-182.05l46.062-46.062l10.606,10.605c5.848,5.849,5.848,15.364,0,21.212    l-42.422,42.422c-5.857,5.857-5.857,15.354,0,21.211c2.929,2.929,6.767,4.394,10.605,4.394s7.677-1.464,10.605-4.394    l42.422-42.422c17.544-17.543,17.544-46.09,0-63.634L488.236,217.658z M360.968,91.014h14.999c8.27,0,14.999,6.728,14.999,14.999    v81.648l-29.997,29.997V91.014z M150.987,60.017h29.997c8.283,0,14.999-6.715,14.999-14.999c0-8.27,6.728-14.999,14.999-14.999    s14.999,6.728,14.999,14.999c0,8.283,6.715,14.999,14.999,14.999h29.997c7.99,0,14.999,7.476,14.999,15.999    c0,8.27-6.728,14.999-14.999,14.999H150.987c-8.27,0-14.999-6.728-14.999-14.999C135.988,67.493,142.996,60.017,150.987,60.017z     M89.992,91.014h18.578c6.191,17.456,22.863,29.997,42.415,29.997h119.989c19.553,0,36.225-12.541,42.416-29.997h17.579v156.641    l-47.882,47.882c-1.492,1.499-2.65,3.309-3.356,5.125l-27.425,69.847c-2.18,5.553-0.863,11.869,3.356,16.087    c4.214,4.215,10.528,5.537,16.087,3.356l59.22-23.251v55.286H89.992V91.014z M309.316,342.975L292.8,349.46l6.484-16.516    L309.316,342.975z M390.966,466.981c0,8.27-6.728,14.999-14.999,14.999H44.996c-8.27,0-14.999-6.728-14.999-14.999V106.013    c0-8.27,6.728-14.999,14.999-14.999h14.999v345.97c0,8.283,6.715,14.999,14.999,14.999H345.97c8.283,0,14.999-6.715,14.999-14.999    v-92.058l29.997-29.997V466.981z M336.117,327.355l-21.211-21.211l41.666-41.666c0.002-0.001,0.004-0.003,0.005-0.005l59.99-59.99    c0.002-0.001,0.004-0.003,0.005-0.005l8.029-8.029l21.212,21.211L336.117,327.355z M477.63,185.841l-10.606,10.606l-21.212-21.211    l10.606-10.606c2.834-2.833,6.6-4.393,10.607-4.393c4.006,0,7.772,1.56,10.605,4.393    C483.477,170.478,483.477,179.994,477.63,185.841z"/>
	</g>
</g>
<g>
	<g>
		<path d="M195.983,330.993h-14.999v-14.999c0-8.283-6.715-14.999-14.999-14.999s-14.999,6.715-14.999,14.999v14.999h-14.999    c-8.283,0-14.999,6.715-14.999,14.999s6.715,14.999,14.999,14.999h14.999v14.999c0,8.283,6.715,14.999,14.999,14.999    s14.999-6.715,14.999-14.999v-14.999h14.999c8.283,0,14.999-6.715,14.999-14.999S204.266,330.993,195.983,330.993z"/>
	</g>
</g>
<g>
</g>
<g>
</g>
<g>
</g>
<g>
</g>
<g>
</g>
<g>
</g>
<g>
</g>
<g>
</g>
<g>
</g>
<g>
</g>
<g>
</g>
<g>
</g>
<g>
</g>
<g>
</g>
<g>
</g>
</svg>
