<?xml version="1.0" encoding="iso-8859-1"?>
<!-- Generator: Adobe Illustrator 19.0.0, SVG Export Plug-In . SVG Version: 6.00 Build 0)  -->
<svg xmlns="http://www.w3.org/2000/svg" xmlns:xlink="http://www.w3.org/1999/xlink" version="1.1" id="Capa_1" x="0px" y="0px" viewBox="0 0 512 512" style="enable-background:new 0 0 512 512;" xml:space="preserve">
<g>
	<g>
		<path d="M466.991,61.02h-50.9c-9.368-28.231-31.783-50.173-59.087-57.615c-32.732-8.92-66.136-0.067-89.357,23.683    c-2.863,2.928-6.644,4.54-10.646,4.54c-4.003,0-7.785-1.613-10.648-4.542c-23.214-23.74-56.606-32.596-89.325-23.69    c-28.162,7.666-51.861,30.116-61.11,57.624H45.01c-24.812,0-44.998,20.186-44.998,44.998v269.988    c0,24.812,20.186,44.998,44.998,44.998h150.993v60.997h-59.997c-8.284,0-14.999,6.716-14.999,14.999S127.722,512,136.006,512    h239.988c8.284,0,14.999-6.716,14.999-14.999s-6.716-14.999-14.999-14.999h-59.997v-60.997H466.99    c24.812,0,44.998-20.186,44.998-44.998V106.018C511.989,81.206,491.804,61.02,466.991,61.02z M122.165,79.067    c0.007-0.035,0.012-0.071,0.019-0.107c0.423-2.218,0.96-4.439,1.62-6.657c5.581-18.729,22.098-34.789,41.102-39.962    c22.071-6.008,44.5-0.131,59.998,15.717c8.555,8.749,19.954,13.566,32.097,13.566c12.142,0,23.54-4.818,32.094-13.565    c15.505-15.855,37.942-21.73,60.02-15.712c17.97,4.898,33.311,20.582,39.082,39.957c6.715,22.541,1.078,45.508-15.078,61.437    c-27.162,26.78-42.12,66.014-42.12,110.471l-0.001,11.796c0,8.271-6.729,15-15,15c-8.272,0-14.999-6.729-14.999-14.999v-29.999    c0-24.812-20.186-44.998-44.998-44.998s-44.997,20.186-44.997,44.998v29.999c0,8.271-6.729,14.999-14.999,14.999    c-8.832,0-14.999-7.538-14.999-18.33c0-0.026,0-0.052,0-0.078v-8.344c-0.001-44.487-14.96-83.736-42.123-110.519    C124.341,119.402,118.329,99.363,122.165,79.067z M30.01,106.018c0.002-8.271,6.731-14.999,15.001-14.999h45.984    c-0.049,23.961,9.24,46.744,26.824,64.082c21.399,21.101,33.186,52.766,33.187,89.16v11.697c0,0.019,0,0.038,0,0.057v0.492h0.007    c0.037,1.305,0.204,2.528,0.484,3.67c3.16,23.739,21.238,40.832,44.507,40.832c24.812,0,44.998-20.186,44.998-44.998v-29.999    c0-8.271,6.729-14.999,14.998-14.999c8.271,0,14.999,6.729,14.999,14.999v29.999c0,24.812,20.187,44.998,44.999,44.998    c24.811,0,44.997-20.186,44.998-44.997l0.001-11.798c0-36.366,11.784-68.013,33.184-89.111    c17.586-17.339,26.876-40.123,26.827-64.085h45.983c8.271,0,14.999,6.729,14.999,14.999v224.99H30.01V106.018z M285.999,482.001    h-59.996v-60.997h59.996V482.001z M481.99,376.006c0,8.271-6.728,14.999-14.999,14.999H45.01c-8.271,0-14.999-6.729-14.999-14.999    v-14.999h451.98V376.006z"/>
	</g>
</g>
<g>
</g>
<g>
</g>
<g>
</g>
<g>
</g>
<g>
</g>
<g>
</g>
<g>
</g>
<g>
</g>
<g>
</g>
<g>
</g>
<g>
</g>
<g>
</g>
<g>
</g>
<g>
</g>
<g>
</g>
</svg>
