<?xml version="1.0" encoding="iso-8859-1"?>
<!-- Generator: Adobe Illustrator 19.0.0, SVG Export Plug-In . SVG Version: 6.00 Build 0)  -->
<svg xmlns="http://www.w3.org/2000/svg" xmlns:xlink="http://www.w3.org/1999/xlink" version="1.1" id="Capa_1" x="0px" y="0px" viewBox="0 0 512 512" style="enable-background:new 0 0 512 512;" xml:space="preserve">
<g>
	<g>
		<path d="M489.412,142.347c-2.974-2.907-6.152-5.529-9.484-7.884C472.035,75.558,421.266,30.5,361,30.5    c-27.083,0-53.636,9.282-74.769,26.135c-18.083,14.419-42.381,14.419-60.463,0C204.636,39.782,178.083,30.5,151,30.5    c-60.266,0-111.036,45.058-118.928,103.963c-3.332,2.355-6.509,4.977-9.484,7.884C8.022,156.585,0,175.462,0,195.5    c0,6.592,0,143.408,0,150c0,12.089,4.944,23.474,13.921,32.056C22.653,385.903,34.045,390.5,46,390.5h60    c5.258,0,10.305-0.915,15-2.58v48.58c0,24.813,20.187,45,45,45h60c24.813,0,45-20.187,45-45v-48.58    c4.695,1.665,9.742,2.58,15,2.58h60c11.517,0,22.032-4.354,30-11.495c7.968,7.142,18.483,11.495,30,11.495h60    c11.955,0,23.347-4.597,32.079-12.944C507.056,368.974,512,357.589,512,345.5c0-6.584,0-143.063,0-150    C512,175.462,503.978,156.585,489.412,142.347z M121,345.5c0,8.271-6.729,15-15,15H46c-8.523,0-16-7.009-16-15v-90    c0-24.393,21.065-45,46-45c24.813,0,45,20.187,45,45V345.5z M241,436.5c0,8.271-6.729,15-15,15h-60c-8.271,0-15-6.729-15-15v-91    c0-24.813,20.187-45,45-45s45,20.187,45,45V436.5z M241,285.541c-12.544-9.438-28.129-15.041-45-15.041    c-16.871,0-32.456,5.603-45,15.041V255.5c0-24.813,20.187-45,45-45s45,20.187,45,45V285.541z M361,345.5c0,8.271-6.729,15-15,15    h-60c-8.271,0-15-6.729-15-15v-90c0-24.813,20.187-45,45-45s45,20.187,45,45V345.5z M482,345.5c0,7.991-7.477,15-16,15h-60    c-8.271,0-15-6.729-15-15v-90c0-24.813,20.187-45,45-45c24.935,0,46,20.607,46,45C482,266.81,482,336.256,482,345.5z M482,195.983    c-13.228-10.031-29.237-15.483-46-15.483c-24.508,0-46.305,11.818-60,30.052c-13.695-18.234-35.492-30.052-60-30.052    s-46.305,11.818-60,30.052c-13.695-18.234-35.492-30.052-60-30.052s-46.305,11.818-60,30.052    c-13.695-18.234-35.492-30.052-60-30.052c-16.763,0-32.772,5.453-46,15.483V195.5c0-16.239,9.342-30.791,22.94-38.711    c0.467-0.234,0.918-0.492,1.356-0.772C60.805,152.51,68.213,150.5,76,150.5h20.625c8.284,0,15-6.716,15-15s-6.716-15-15-15H76    c-3.397,0-6.759,0.241-10.078,0.681C78.162,85.78,111.907,60.5,151,60.5c20.607,0,39.994,6.774,56.064,19.59    C221.331,91.468,238.252,97.481,256,97.481c17.747,0,34.669-6.014,48.936-17.392C321.006,67.274,340.393,60.5,361,60.5    c39.093,0,72.838,25.28,85.078,60.681c-3.319-0.439-6.681-0.681-10.078-0.681h-30c-8.284,0-15,6.716-15,15s6.716,15,15,15h30    c7.735,0,15.096,1.986,21.573,5.45c0.521,0.341,1.066,0.645,1.629,0.919C472.723,164.809,482,179.317,482,195.5V195.983z"/>
	</g>
</g>
<g>
</g>
<g>
</g>
<g>
</g>
<g>
</g>
<g>
</g>
<g>
</g>
<g>
</g>
<g>
</g>
<g>
</g>
<g>
</g>
<g>
</g>
<g>
</g>
<g>
</g>
<g>
</g>
<g>
</g>
</svg>
