<?xml version="1.0" encoding="iso-8859-1"?>
<!-- Generator: Adobe Illustrator 19.0.0, SVG Export Plug-In . SVG Version: 6.00 Build 0)  -->
<svg xmlns="http://www.w3.org/2000/svg" xmlns:xlink="http://www.w3.org/1999/xlink" version="1.1" id="Capa_1" x="0px" y="0px" viewBox="0 0 512 512" style="enable-background:new 0 0 512 512;" xml:space="preserve">
<g>
	<g>
		<path d="M508.778,133.135c-6.054-31.213-21.477-60.124-44.604-83.607c-23.15-23.506-51.832-39.349-82.944-45.817    c-44.613-9.272-88.871-0.976-125.766,23.359C219.274,3.387,174.869-5.455,130.771,3.711c-31.112,6.467-59.794,22.31-82.944,45.817    C24.7,73.01,9.276,101.92,3.222,133.135c-7.58,39.083-1.725,77.785,16.935,111.921l9.257,16.934    c12.958,23.705,39.18,39.023,66.803,39.023h41.099l12.911,58.099l-16.072,2.009c-8.22,1.028-14.05,8.523-13.021,16.743    c0.948,7.588,7.408,13.139,14.863,13.139c0.62,0,1.248-0.039,1.879-0.117l18.888-2.361l6.784,30.53l-14.655,2.094    c-8.2,1.171-13.897,8.769-12.728,16.968c1.069,7.481,7.485,12.88,14.829,12.88c0.706,0,1.421-0.05,2.14-0.153l16.94-2.42    l0.854,3.841c7.69,34.606,38.477,59.723,73.206,59.723h23.735c34.728,0,65.514-25.117,73.206-59.723l6.488-29.196l15.546-2.221    c8.2-1.171,13.897-8.769,12.728-16.968c-1.172-8.2-8.774-13.902-16.969-12.727l-4.351,0.622l6.392-28.768l16.937-2.117    c8.22-1.028,14.05-8.523,13.021-16.743c-1.027-8.22-8.531-14.045-16.742-13.022l-6.307,0.789l6.866-30.9h41.099    c27.623,0,53.845-15.317,66.802-39.022l9.257-16.934C510.503,210.92,516.359,172.218,508.778,133.135z M311.793,445.757    c-4.665,20.996-23.138,36.234-43.924,36.234h-23.736c-20.786,0-39.258-15.238-43.924-36.234l-0.353-1.588l115.972-16.567    L311.793,445.757z M322.782,396.308L193.33,414.8l-6.669-30.013l142.644-17.83L322.782,396.308z M336.213,335.863l-156.09,19.512    l-12.081-54.363h175.916L336.213,335.863z M465.523,230.667l-9.257,16.935c-7.774,14.223-23.664,23.413-40.48,23.413h-52.879    c-0.016,0-0.033,0-0.05,0H149.154c-0.022,0-0.044,0-0.066,0H96.216c-16.816,0-32.707-9.19-40.481-23.414l-9.257-16.934    c-15.267-27.929-20.042-59.681-13.808-91.821C42.678,87.244,85.528,43.751,136.875,33.078c9.411-1.957,18.835-2.911,28.158-2.911    c41.833,0,81.543,19.238,107.987,53.567c5.053,6.562,14.472,7.784,21.034,2.73c6.562-5.055,7.784-14.472,2.73-21.035    c-5.088-6.604-10.577-12.75-16.418-18.418c28.415-15.9,61.442-20.86,94.76-13.933c51.348,10.673,94.198,54.166,104.206,105.767    C485.565,170.987,480.79,202.738,465.523,230.667z"/>
	</g>
</g>
<g>
	<g>
		<path d="M166.011,61.039c-57.89,0-104.988,47.098-104.988,104.988c0,8.283,6.715,14.998,14.998,14.998s14.998-6.715,14.998-14.998    c0-41.35,33.641-74.991,74.991-74.991c8.283,0,14.998-6.715,14.998-14.998C181.009,67.754,174.294,61.039,166.011,61.039z"/>
	</g>
</g>
<g>
</g>
<g>
</g>
<g>
</g>
<g>
</g>
<g>
</g>
<g>
</g>
<g>
</g>
<g>
</g>
<g>
</g>
<g>
</g>
<g>
</g>
<g>
</g>
<g>
</g>
<g>
</g>
<g>
</g>
</svg>
