<?xml version="1.0" encoding="iso-8859-1"?>
<!-- Generator: Adobe Illustrator 19.0.0, SVG Export Plug-In . SVG Version: 6.00 Build 0)  -->
<svg xmlns="http://www.w3.org/2000/svg" xmlns:xlink="http://www.w3.org/1999/xlink" version="1.1" id="Capa_1" x="0px" y="0px" viewBox="0 0 512 512" style="enable-background:new 0 0 512 512;" xml:space="preserve">
<g>
	<g>
		<path d="M446.128,64.156c-8.165-28.865-31.122-51.949-59.909-60.244c-24.655-7.104-50.122-4.054-71.397,8.262    c-13.053-7.533-28-11.804-43.575-12.038c-8.885-0.138-17.863,1.034-26.691,3.469c-29.349,8.101-52.72,31.306-60.994,60.557    c-7.031,24.863-3.837,50.406,8.992,71.926c11.508,19.304,17.344,43.958,17.344,73.278v45.635    c0,24.801,20.177,44.978,44.978,44.978s44.978-20.177,44.978-44.978v-29.985c0-8.267,6.726-14.993,14.993-14.993    s14.993,6.726,14.993,14.993v29.985c0,24.801,20.177,44.978,44.978,44.978c24.801,0,44.978-20.177,44.978-44.978v-45.643    c0-29.316,5.834-53.967,17.343-73.268C449.968,114.567,453.162,89.021,446.128,64.156z M411.381,120.734    c-14.313,24.011-21.571,53.828-21.571,88.625v45.643c0,8.267-6.726,14.993-14.993,14.993c-8.267,0-14.993-6.726-14.993-14.993    v-29.985c0-24.801-20.177-44.978-44.978-44.978c-24.801,0-44.978,20.177-44.978,44.978v29.985c0,8.267-6.726,14.993-14.993,14.993    s-14.993-6.726-14.993-14.993v-45.635c0-34.801-7.257-64.62-21.572-88.632c-8.566-14.369-10.659-31.562-5.894-48.411    c5.356-18.937,21.104-34.565,40.118-39.814c6.082-1.678,12.226-2.494,18.261-2.393c21.711,0.327,41.605,12.428,51.918,31.581    c3.925,7.289,13.018,10.016,20.309,6.092c7.29-3.926,10.018-13.019,6.092-20.309c-2.681-4.977-5.791-9.635-9.274-13.94    c11.92-4.182,25.136-4.545,38.075-0.817c18.623,5.366,34.072,20.907,39.359,39.593    C422.042,89.169,419.948,106.364,411.381,120.734z"/>
	</g>
</g>
<g>
	<g>
		<path d="M503.566,318.43c-8.452-11.725-21.588-18.45-36.042-18.45c-17.539,0-33.477,10.357-40.6,26.385l-8.656,19.474    c-11.313,25.456-34.347,41.885-60.952,43.888c1.618-4.634,2.508-9.605,2.508-14.784c0-24.801-20.177-44.978-44.978-44.978    c-0.002,0-31.926,0-64.714-0.027c-13.503-0.011-32.741-2.285-47.702-13.054c-15.366-11.059-33.521-16.905-52.503-16.905    c-24.653,0-47.408,10.112-63.872,26.69c-7.022-15.71-22.786-26.691-41.076-26.691C20.177,299.979,0,320.156,0,344.957v119.941    c0,24.801,20.177,44.978,44.978,44.978c16.174,0,30.376-8.585,38.303-21.434c25.813,15.211,54.178,23.433,81.611,23.433h155.214    c82.797,0,156.547-54.36,183.515-135.269l6.05-18.149C514.244,344.745,512.018,330.155,503.566,318.43z M59.971,464.898    c0,8.267-6.726,14.993-14.993,14.993s-14.993-6.726-14.993-14.993V344.957c0-8.267,6.726-14.993,14.993-14.993    s14.993,6.726,14.993,14.993V464.898z M481.226,348.975l-6.05,18.148c-22.882,68.646-85.199,114.767-155.069,114.767H164.893    c-25.116,0-51.471-8.733-74.937-24.706v-75.572c0.502-1.066,0.9-2.201,1.144-3.408c0.005-0.028,0.011-0.055,0.016-0.083    c5.568-27.904,30.296-48.156,58.81-48.156c12.658,0,24.756,3.892,34.986,11.257c16.969,12.214,39.513,18.681,65.194,18.702    c32.801,0.027,64.739,0.027,64.739,0.027c8.267,0,14.993,6.726,14.993,14.993c0,8.267-6.726,14.993-14.993,14.993h-119.94    c-8.28,0-14.993,6.713-14.993,14.993c0,8.28,6.713,14.993,14.993,14.993h156.896c40.929,0,76.897-23.719,93.868-61.904    l8.656-19.474c2.316-5.21,7.496-8.578,13.2-8.578c4.699,0,8.97,2.187,11.717,5.998    C481.989,339.774,482.712,344.518,481.226,348.975z"/>
	</g>
</g>
<g>
</g>
<g>
</g>
<g>
</g>
<g>
</g>
<g>
</g>
<g>
</g>
<g>
</g>
<g>
</g>
<g>
</g>
<g>
</g>
<g>
</g>
<g>
</g>
<g>
</g>
<g>
</g>
<g>
</g>
</svg>
