<?xml version="1.0" encoding="iso-8859-1"?>
<!-- Generator: Adobe Illustrator 19.0.0, SVG Export Plug-In . SVG Version: 6.00 Build 0)  -->
<svg xmlns="http://www.w3.org/2000/svg" xmlns:xlink="http://www.w3.org/1999/xlink" version="1.1" id="Capa_1" x="0px" y="0px" viewBox="0 0 512 512" style="enable-background:new 0 0 512 512;" xml:space="preserve">
<g>
	<g>
		<path d="M450.08,137.742c-3.126-21.257-13.815-40.697-30.098-54.739c-16.31-14.067-37.206-21.814-58.836-21.814    c-17.053,0-33.631,4.778-47.94,13.82c-6.997,4.421-9.085,13.676-4.665,20.673c4.422,6.996,13.677,9.086,20.673,4.664    c9.512-6.009,20.554-9.186,31.933-9.186c30.01,0,54.941,21.424,59.281,50.941c1.096,7.45,7.496,12.807,14.808,12.807    c0.725,0,1.46-0.053,2.198-0.162C445.622,153.544,451.284,145.93,450.08,137.742z"/>
	</g>
</g>
<g>
	<g>
		<path d="M491.618,222.624c13.143-26.846,19.971-56.685,19.558-86.712c-0.007-0.479-0.036-0.956-0.089-1.431    c-4.006-36.457-21.449-70.279-49.117-95.236C434.092,14.098,398.286,0.25,361.147,0.25c-28.442,0-56.12,8.005-80.043,23.15    c-7.299,4.62-15.892,7.063-24.855,7.063s-17.556-2.443-24.856-7.063c-23.922-15.145-51.6-23.15-80.042-23.15    c-37.155,0-73.041,13.839-101.045,38.969C22.457,64.209,4.916,98.041,0.912,134.481c-0.053,0.476-0.082,0.953-0.089,1.431    c-0.412,30.027,6.415,59.867,19.559,86.712C7.008,237.558,0,254.098,0,270.985c0,34.32,28.41,65.545,79.997,87.921    c2.387,1.035,4.821,2.04,7.283,3.029c2.724,14.561,4.131,29.265,4.131,43.911v38.469c0,37.184,30.25,67.434,67.434,67.434    c37.184,0,67.434-30.25,67.434-67.434v-23.71c0-15.374,11.987-29.738,29.971-29.738c17.893,0,29.971,14.261,29.971,29.738v23.71    c0,37.184,30.25,67.434,67.434,67.434c37.184,0,67.434-30.25,67.434-67.434v-38.469c0-14.698,1.382-29.423,4.057-43.975    c2.406-0.97,4.786-1.956,7.12-2.971C483.684,336.534,512,305.312,512,270.985C512,254.098,504.992,237.559,491.618,222.624z     M29.971,270.985c0-6.965,2.317-13.943,6.876-20.865c15.957,22.146,29.054,42.161,40.349,74.26    C46.979,308.514,29.971,289.487,29.971,270.985z M196.308,420.606v23.71c0,20.658-16.806,37.463-37.463,37.463    c-20.658,0-37.463-16.806-37.463-37.463v-38.469c0-10.984-0.704-21.994-2.076-32.96c26.365,7.611,55.567,12.925,86.303,15.712    C199.729,397.866,196.308,408.841,196.308,420.606z M391.118,405.847v38.469c0,20.658-16.806,37.463-37.463,37.463    s-37.463-16.806-37.463-37.463v-23.71c0-11.766-3.422-22.742-9.302-32.011c30.741-2.791,59.933-8.117,86.269-15.744    C391.811,383.815,391.118,394.836,391.118,405.847z M399.336,339.51c-44.905,15.339-94.135,21.154-143.085,21.154    c-49.271,0-98.608-5.942-143.224-21.136c-9.35-37.105-26.358-72.869-50.084-104.503c-21.073-28.098-32.48-62.868-32.16-97.979    C37.742,77.085,90.562,30.22,151.352,30.22c22.757,0,44.892,6.398,64.01,18.502c12.102,7.663,26.241,11.713,40.888,11.713    s28.785-4.05,40.887-11.712c19.118-12.105,41.254-18.503,64.01-18.503c60.51,0,113.111,46.864,120.069,106.826    c0.321,35.113-11.086,69.883-32.158,97.979C425.477,266.468,408.59,302.234,399.336,339.51z M435.067,324.348    c11.115-32.008,24.281-52.301,40.086-74.228c4.561,6.921,6.877,13.9,6.877,20.865C482.029,289.487,465.116,308.5,435.067,324.348z    "/>
	</g>
</g>
<g>
</g>
<g>
</g>
<g>
</g>
<g>
</g>
<g>
</g>
<g>
</g>
<g>
</g>
<g>
</g>
<g>
</g>
<g>
</g>
<g>
</g>
<g>
</g>
<g>
</g>
<g>
</g>
<g>
</g>
</svg>
