<?xml version="1.0" encoding="iso-8859-1"?>
<!-- Generator: Adobe Illustrator 19.0.0, SVG Export Plug-In . SVG Version: 6.00 Build 0)  -->
<svg xmlns="http://www.w3.org/2000/svg" xmlns:xlink="http://www.w3.org/1999/xlink" version="1.1" id="Capa_1" x="0px" y="0px" viewBox="0 0 512 512" style="enable-background:new 0 0 512 512;" xml:space="preserve">
<g>
	<g>
		<path d="M511.975,135.794c-0.007-0.479-0.036-0.957-0.089-1.432c-4.006-36.464-21.625-70.334-49.61-95.37    C434.168,13.848,398.202,0,361,0c-5.479,0-10.929,0.303-16.33,0.891c-0.243,0.021-0.482,0.056-0.722,0.089    c-22.404,2.546-43.938,10.081-63.07,22.193c-7.306,4.625-15.908,7.07-24.879,7.07s-17.573-2.445-24.88-7.07    c-19.13-12.112-40.664-19.647-63.068-22.193c-0.24-0.033-0.479-0.068-0.722-0.089C161.928,0.303,156.479,0,151,0    C113.798,0,77.831,13.848,49.724,38.992C21.739,64.028,4.12,97.897,0.114,134.362c-0.053,0.476-0.082,0.954-0.089,1.432    c-0.576,41.99,12.982,83.616,38.179,117.21C72.25,298.398,91,353.086,91,406.993V444.5c0,37.22,30.28,67.5,67.5,67.5    c37.22,0,67.5-30.28,67.5-67.5v-46.233c0-16.542,13.458-30,30-30s30,13.458,30,30V444.5c0,37.22,30.28,67.5,67.5,67.5    c37.22,0,67.5-30.28,67.5-67.5v-37.507c0-53.906,18.75-108.593,52.797-153.988C498.993,219.41,512.551,177.784,511.975,135.794z     M241,58.789c4.897,0.957,9.917,1.455,15,1.455s10.102-0.499,15-1.455V136c0,8.271-6.729,15-15,15s-15-6.729-15-15V58.789z     M181,33.798c10.484,2.698,20.573,6.811,30,12.266V136c0,24.813,20.187,45,45,45s45-20.187,45-45V46.063    c9.427-5.455,19.516-9.567,30-12.266V136c0,41.355-33.645,75-75,75c-41.355,0-75-33.645-75-75V33.798z M449.796,235.004    C411.88,285.558,391,346.638,391,406.993V444.5c0,20.678-16.822,37.5-37.5,37.5c-20.678,0-37.5-16.822-37.5-37.5v-46.233    c0-33.084-26.916-60-60-60s-60,26.916-60,60V444.5c0,20.678-16.822,37.5-37.5,37.5S121,465.178,121,444.5v-37.507    c0-60.355-20.881-121.436-58.796-171.988c-21.093-28.124-32.511-62.927-32.189-98.074C36.982,76.91,89.983,30,151,30v106    c0,57.897,47.103,105,105,105c57.897,0,105-47.103,105-105V30c61.017,0,114.019,46.91,120.986,106.93    C482.307,172.078,470.889,206.881,449.796,235.004z"/>
	</g>
</g>
<g>
	<g>
		<circle cx="106" cy="136" r="15"/>
	</g>
</g>
<g>
	<g>
		<circle cx="346" cy="316" r="15"/>
	</g>
</g>
<g>
	<g>
		<path d="M407.8,91c-8.284,0-16.8,6.716-16.8,15s8.516,15,16.8,15s15-6.716,15-15S416.084,91,407.8,91z"/>
	</g>
</g>
<g>
	<g>
		<circle cx="437.8" cy="166" r="15"/>
	</g>
</g>
<g>
</g>
<g>
</g>
<g>
</g>
<g>
</g>
<g>
</g>
<g>
</g>
<g>
</g>
<g>
</g>
<g>
</g>
<g>
</g>
<g>
</g>
<g>
</g>
<g>
</g>
<g>
</g>
<g>
</g>
</svg>
