<?xml version="1.0" encoding="iso-8859-1"?>
<!-- Generator: Adobe Illustrator 19.0.0, SVG Export Plug-In . SVG Version: 6.00 Build 0)  -->
<svg xmlns="http://www.w3.org/2000/svg" xmlns:xlink="http://www.w3.org/1999/xlink" version="1.1" id="Capa_1" x="0px" y="0px" viewBox="0 0 512 512" style="enable-background:new 0 0 512 512;" xml:space="preserve">
<g>
	<g>
		<path d="M507.608,4.391c-5.854-5.855-15.347-5.855-21.201,0l-51.34,51.34c-9.133-5.406-19.577-8.297-30.469-8.297    c-16.017,0-31.077,6.238-42.403,17.564L234.958,192.236c-2.195-15.535-9.249-30.509-21.172-42.433    c-29.226-29.225-76.781-29.225-106.008,0c-29.226,29.227-29.226,76.781,0,106.008c11.923,11.923,26.897,18.979,42.433,21.173    l-21.23,21.23l-10.601-10.601c-5.854-5.855-15.346-5.855-21.201,0c-5.855,5.855-5.855,15.347,0,21.201l42.404,42.404    l-23.259,23.259c-28.802-19.125-68.458-16.348-94.349,9.543c-29.295,29.294-29.299,76.71,0,106.008    c29.293,29.294,76.71,29.299,106.007,0c25.898-25.897,28.661-65.555,9.543-94.349l23.259-23.259l42.404,42.404    c2.927,2.927,6.764,4.392,10.6,4.392s7.674-1.463,10.6-4.392c5.855-5.855,5.855-15.347,0-21.201l-10.601-10.601l21.23-21.23    c2.195,15.534,9.249,30.509,21.172,42.433c14.613,14.613,33.808,21.919,53.004,21.919s38.391-7.306,53.004-21.919    c29.226-29.227,29.226-76.781,0-106.008c-11.923-11.922-26.897-18.978-42.433-21.172l95.431-95.431    c0.002-0.002,0.003-0.003,0.005-0.005c0.002-0.002,0.003-0.003,0.005-0.005l31.797-31.797    c19.721-19.722,22.807-49.877,9.259-72.863l51.348-51.348C513.463,19.738,513.463,10.246,507.608,4.391z M106.778,468.825    c-17.576,17.576-46.026,17.579-63.605,0c-17.576-17.576-17.579-46.026,0-63.605c17.576-17.576,46.026-17.579,63.605,0    c8.495,8.494,13.173,19.788,13.173,31.802C119.951,449.036,115.273,460.331,106.778,468.825z M128.979,234.609    c-17.535-17.536-17.535-46.069,0-63.605c17.535-17.535,46.069-17.536,63.605,0c17.535,17.536,17.535,46.069,0,63.605    C175.047,252.145,146.514,252.144,128.979,234.609z M192.584,361.818l-42.403-42.403l31.802-31.802l42.404,42.404L192.584,361.818    z M246.654,309.882l-44.536-44.536c4.125-2.728,8.038-5.905,11.668-9.535c3.63-3.63,6.806-7.543,9.535-11.668l44.536,44.537    c-4.125,2.727-8.039,5.905-11.669,9.535C252.558,301.844,249.381,305.757,246.654,309.882z M340.995,319.415    c17.535,17.537,17.535,46.07,0,63.605c-17.535,17.535-46.071,17.535-63.606,0c-17.535-17.536-17.535-46.069,0-63.605    C294.925,301.878,323.458,301.878,340.995,319.415z M287.991,266.412l-42.404-42.404l95.407-95.407l42.404,42.404L287.991,266.412    z M425.801,128.602L404.6,149.803l-42.404-42.404l21.201-21.201c5.663-5.663,13.193-8.782,21.201-8.782    c8.01,0,15.539,3.119,21.202,8.782C437.491,97.89,437.491,116.911,425.801,128.602z"/>
	</g>
</g>
<g>
</g>
<g>
</g>
<g>
</g>
<g>
</g>
<g>
</g>
<g>
</g>
<g>
</g>
<g>
</g>
<g>
</g>
<g>
</g>
<g>
</g>
<g>
</g>
<g>
</g>
<g>
</g>
<g>
</g>
</svg>
