<?xml version="1.0" encoding="iso-8859-1"?>
<!-- Generator: Adobe Illustrator 19.0.0, SVG Export Plug-In . SVG Version: 6.00 Build 0)  -->
<svg xmlns="http://www.w3.org/2000/svg" xmlns:xlink="http://www.w3.org/1999/xlink" version="1.1" id="Capa_1" x="0px" y="0px" viewBox="0 0 512 512" style="enable-background:new 0 0 512 512;" xml:space="preserve">
<g>
	<g>
		<path d="M293.5,0h-240c-8.284,0-15,6.716-15,15v91c0,8.284,6.716,15,15,15h105v60h-15c-7.872,0-14.507,6.188-14.974,14.118    l-3.495,59.339c-0.004,0.038-0.003,0.078-0.007,0.116l-11.418,193.836c-0.07,1.182-0.106,2.39-0.106,3.591    c0,33.084,26.916,60,60,60c33.084,0,60-26.916,60-60c0-1.196-0.036-2.404-0.106-3.58l-11.42-193.887    c-0.002-0.024-0.002-0.049-0.004-0.073l-3.495-59.342c-0.47-7.972-7.13-14.118-14.974-14.118h-15v-60h105c8.284,0,15-6.716,15-15    V15C308.5,6.716,301.784,0,293.5,0z M98.5,91h-30V30h30V91z M203.447,450.195c0.035,0.595,0.053,1.202,0.053,1.805    c0.001,16.542-13.457,30-29.999,30s-30-13.458-30-30c0-0.608,0.018-1.216,0.054-1.816L154.109,271h38.783L203.447,450.195z     M189.357,211l1.767,30h-35.249l1.767-30H189.357z M218.5,91h-90V30h90V91z M278.5,91h-30V30h30V91z"/>
	</g>
</g>
<g>
	<g>
		<path d="M473.365,447.955L462.479,285.05c-0.015-0.232-0.021-0.466-0.047-0.695L458.468,225c-0.211-3.136-1.475-6.391-3.795-8.984    c-2.974-3.319-7.125-5.016-11.172-5.016h-15v-30h15c8.284,0,15-6.716,15-15V15c0-8.284-6.716-15-15-15h-60    c-8.284,0-15,6.716-15,15v151c0,8.284,6.716,15,15,15h15v30h-15c-7.67,0-14.428,6.006-14.967,14l-3.966,59.35    c-0.026,0.24-0.034,0.485-0.049,0.728l-10.883,162.868c-0.09,1.333-0.136,2.698-0.136,4.054c0,33.084,26.916,60,60,60    c33.084,0,60-26.916,60-60C473.5,450.648,473.455,449.284,473.365,447.955z M398.5,30h30v121h-30V30z M397.531,241h31.938    l2.005,30h-35.947L397.531,241z M413.5,482c-16.542,0-30-13.458-30-30c0-0.686,0.023-1.371,0.068-2.045L393.523,301h39.956    l9.954,148.964c0.045,0.669,0.068,1.354,0.068,2.036C443.5,468.542,430.042,482,413.5,482z"/>
	</g>
</g>
<g>
</g>
<g>
</g>
<g>
</g>
<g>
</g>
<g>
</g>
<g>
</g>
<g>
</g>
<g>
</g>
<g>
</g>
<g>
</g>
<g>
</g>
<g>
</g>
<g>
</g>
<g>
</g>
<g>
</g>
</svg>
