<?xml version="1.0" encoding="iso-8859-1"?>
<!-- Generator: Adobe Illustrator 19.0.0, SVG Export Plug-In . SVG Version: 6.00 Build 0)  -->
<svg xmlns="http://www.w3.org/2000/svg" xmlns:xlink="http://www.w3.org/1999/xlink" version="1.1" id="Capa_1" x="0px" y="0px" viewBox="0 0 512 512" style="enable-background:new 0 0 512 512;" xml:space="preserve">
<g>
	<g>
		<path d="M417.615,341.169c-4.691-50.286-26.322-97.693-61.098-134.193V107.5V106c0-34.268-19.28-62.518-47.3-81.049    C284.888,8.861,253.742,0,221.517,0C164.856,0,113.939,27.596,94.818,68.669c-2.163,4.646-1.804,10.073,0.95,14.394    C98.523,87.384,103.293,90,108.417,90h8.101c47.518,0,77.416,9.671,87.34,15.876c-3.875,2.342-11.314,5.652-24.083,8.664    c-17.659,4.166-40.125,6.46-63.257,6.46h-8.101c-5.124,0-9.894,2.616-12.648,6.937c-2.754,4.321-3.113,9.749-0.95,14.395    c17.085,36.697,59.557,62.618,108.824,67.728c-33.09,36.067-53.662,82.227-58.222,131.11    c-4.89,52.419,8.851,105.907,38.691,150.614C192.436,504.443,206.414,512,221.517,512c9.087,0,17.699-2.657,24.924-7.688    c9.891-6.54,16.879-16.989,19.192-28.71c2.331-11.812-0.081-23.707-6.792-33.508c-39.643-59.553-30.248-136.212,22.361-182.313    c0.06-0.052,0.119-0.105,0.178-0.159c0.047-0.042,0.09-0.087,0.136-0.13c0.116,0.102,0.224,0.211,0.341,0.312    c52.408,45.95,61.789,122.6,22.318,182.314c-6.668,9.753-9.094,21.608-6.829,33.399c2.263,11.781,9.206,22.301,19.049,28.862    c7.583,5.056,16.036,7.62,25.121,7.62c15.102,0,29.079-7.556,37.404-20.215C408.762,447.078,422.505,393.588,417.615,341.169z     M137.155,60.639C156.679,41.906,188.082,30,221.517,30c12.126,0,24.014,1.496,35.209,4.361c-0.063,0.023-0.123,0.05-0.186,0.073    c-19.608,7.166-35.776,22.625-44.018,42.089C192.35,66.782,162.784,62.194,137.155,60.639z M137.235,150.436    c21.548-1.186,41.508-4.219,57.619-8.827c4.203-1.202,8.091-2.498,11.663-3.887V180.2    C178.899,177.245,153.806,166.294,137.235,150.436z M266.517,226c0,4.173-1.891,8.291-5.192,11.312    c-30.859,27.087-50.602,64.316-55.595,104.842c-4.987,40.47,5.031,81.903,28.207,116.667c0.042,0.063,0.085,0.126,0.128,0.189    c2.138,3.104,2.896,6.934,2.137,10.785c-0.786,3.983-3.051,7.372-6.378,9.542c-0.154,0.1-0.306,0.204-0.456,0.31    c-2.245,1.584-4.812,2.354-7.85,2.354c-4.904,0-9.638-2.575-12.354-6.721c-0.024-0.037-0.048-0.073-0.073-0.11    c-54.08-80.98-44.626-184.367,22.988-251.418c2.84-2.816,4.438-6.651,4.438-10.651V196v-30.041    c8.725,6.565,18.922,11.274,30,13.532V226z M281.517,151c-23.407,0-45-18.319-45-46.276c0.789-24.682,20.939-44.724,45-44.724    c20.924,0,37.013,11.423,44.848,42.739C330.024,117.359,314.492,151,281.517,151z M353.943,475.169    c-0.024,0.037-0.048,0.073-0.073,0.11c-2.716,4.146-7.449,6.721-12.353,6.721c-3.144,0-5.839-0.82-8.48-2.581    c-3.201-2.134-5.471-5.619-6.229-9.561c-0.747-3.889,0.021-7.742,2.161-10.849c0.052-0.076,0.104-0.152,0.154-0.229    c23.038-34.794,33.006-76.208,28.07-116.612c-4.961-40.612-24.704-77.884-55.591-104.95c-0.027-0.023-0.054-0.047-0.081-0.07    c-3.227-2.787-5.004-6.746-5.004-11.148v-46.522c10.859-2.218,21.072-6.844,30-13.597V213.1c0,4,1.598,7.834,4.438,10.651    C398.57,290.802,408.023,394.189,353.943,475.169z"/>
	</g>
</g>
<g>
</g>
<g>
</g>
<g>
</g>
<g>
</g>
<g>
</g>
<g>
</g>
<g>
</g>
<g>
</g>
<g>
</g>
<g>
</g>
<g>
</g>
<g>
</g>
<g>
</g>
<g>
</g>
<g>
</g>
</svg>
