<?xml version="1.0" encoding="iso-8859-1"?>
<!-- Generator: Adobe Illustrator 19.0.0, SVG Export Plug-In . SVG Version: 6.00 Build 0)  -->
<svg xmlns="http://www.w3.org/2000/svg" xmlns:xlink="http://www.w3.org/1999/xlink" version="1.1" id="Capa_1" x="0px" y="0px" viewBox="0 0 511.999 511.999" style="enable-background:new 0 0 511.999 511.999;" xml:space="preserve">
<g>
	<g>
		<path d="M399.946,179.45c-6.764-14.506-18.787-25.515-33.857-30.999c-15.067-5.485-31.355-4.781-45.86,1.984    c-7.507,3.5-10.754,12.423-7.254,19.929c3.5,7.506,12.422,10.753,19.929,7.254c7.243-3.378,15.385-3.727,22.928-0.982    c7.54,2.744,13.553,8.245,16.931,15.489c2.544,5.457,7.953,8.663,13.601,8.663c2.122,0,4.278-0.453,6.327-1.409    C400.198,195.879,403.447,186.956,399.946,179.45z"/>
	</g>
</g>
<g>
	<g>
		<path d="M507.736,444.948l-38.991-82.476c-8.263-17.719-26.671-27.525-45.105-25.761l-14.155-30.357    c49.821-31.208,71.043-96.035,44.827-152.257c-7.585-16.267-18.382-30.03-31.281-40.902c-0.546-6.873-1.664-13.77-3.345-20.582    c-5.29-21.433-16.77-41.023-33.201-56.651c-16.353-15.554-36.453-26.094-58.128-30.48c-38.171-7.723-76.429,2.516-104.962,28.096    c-5.752,5.155-14.096,5.154-19.846,0C175.664,8.579,134.377-2.241,95.799,5.342c-45.313,8.906-82.548,45.026-92.653,89.88    c-7.835,34.776-0.921,69.508,19.471,97.796c22.365,31.027,37.391,92.657,37.392,130.751l0.001,69.098    c0.001,33.076,26.911,59.985,59.986,59.985c32.388,0,63.484-26.103,63.484-59.985v-29.993c0-16.538,13.455-29.993,29.993-29.993    c16.538,0,29.993,13.455,29.993,29.993v30c0,33.072,26.906,59.978,59.978,59.978c33.15,0,59.994-26.659,59.978-59.833    c-0.01-20.216-0.028-45.021-0.06-69.528c6.387-0.966,12.717-2.456,18.935-4.469l14.161,30.367    c-13.202,12.99-17.515,33.408-9.227,51.182c4.208,8.902,34.728,73.456,38.992,82.476c10.512,22.541,37.257,32.267,59.787,21.761    C508.449,494.341,518.338,467.678,507.736,444.948z M303.443,422.857c-16.534,0-29.986-13.452-29.986-29.986v-30    c0-33.076-26.909-59.985-59.985-59.985c-33.076,0-59.985,26.909-59.985,59.985v29.993c0,15.697-15.963,29.993-33.492,29.993    c-16.538,0-29.993-13.455-29.994-29.993l-0.001-69.098C90,280.233,73.896,212.863,46.947,175.479    c-15.298-21.224-20.463-47.385-14.542-73.665c7.537-33.449,35.338-60.391,69.179-67.042c29.078-5.716,61.246,2.581,81.946,21.139    c17.07,15.303,42.816,15.304,59.886,0c21.408-19.192,50.197-26.857,78.994-21.031c30.419,6.155,56.161,29.02,66.093,57.958    c-29.324-11.235-62.982-11.055-93.622,3.232c-60.093,28.021-86.054,99.329-58.029,159.431    c18.613,39.918,56.054,64.479,96.519,68.689c0.031,24.285,0.049,48.816,0.059,68.843    C333.437,409.729,319.892,422.857,303.443,422.857z M383.607,286.346c-45.07,21.017-98.556,1.556-119.574-43.521    c-21.017-45.069-1.555-98.555,43.52-119.573c44.982-20.975,98.615-1.427,119.574,43.521    C448.145,211.842,428.682,265.327,383.607,286.346z M420.788,401.381l-6.409-13.558c-3.492-7.491-0.243-16.426,7.242-19.924    c0.004-0.002,0.008-0.003,0.012-0.005c0.004-0.002,0.007-0.004,0.011-0.006c7.502-3.489,16.429-0.223,19.952,7.331l6.375,13.487    L420.788,401.381z M473.335,477.624c-0.001,0-0.002,0-0.002,0c-7.432,3.464-16.373,0.367-19.962-7.326l-19.763-41.803    l27.182-12.675l19.797,41.875C484.09,465.207,480.847,474.121,473.335,477.624z"/>
	</g>
</g>
<g>
</g>
<g>
</g>
<g>
</g>
<g>
</g>
<g>
</g>
<g>
</g>
<g>
</g>
<g>
</g>
<g>
</g>
<g>
</g>
<g>
</g>
<g>
</g>
<g>
</g>
<g>
</g>
<g>
</g>
</svg>
