<?xml version="1.0" encoding="iso-8859-1"?>
<!-- Generator: Adobe Illustrator 19.0.0, SVG Export Plug-In . SVG Version: 6.00 Build 0)  -->
<svg xmlns="http://www.w3.org/2000/svg" xmlns:xlink="http://www.w3.org/1999/xlink" version="1.1" id="Capa_1" x="0px" y="0px" viewBox="0 0 511.999 511.999" style="enable-background:new 0 0 511.999 511.999;" xml:space="preserve">
<g>
	<g>
		<path d="M511.982,135.885c-0.007-0.479-0.036-0.956-0.089-1.431c-4.003-36.43-21.648-70.277-49.685-95.308    C434.072,14.027,398.101,0.193,360.92,0.193c-28.45,0-56.134,8.007-80.061,23.156c-7.3,4.622-15.896,7.065-24.86,7.065    c-8.964,0-17.56-2.443-24.861-7.066c-23.926-15.149-51.61-23.156-80.06-23.156c-37.18,0-73.152,13.834-101.288,38.953    C21.754,64.176,4.109,98.023,0.107,134.454c-0.053,0.476-0.082,0.953-0.089,1.431c-0.577,41.958,12.972,83.553,38.149,117.123    c34.149,45.532,52.956,99.823,52.956,152.873v38.478c0,37.192,30.257,67.449,67.449,67.449s67.449-30.257,67.449-67.449V398.16    c0-16.53,13.448-29.977,29.977-29.977s29.977,13.448,29.977,29.977v46.198c0,37.192,30.257,67.449,67.449,67.449    s67.449-30.257,67.449-67.449V405.88c0-53.049,18.807-107.34,52.957-152.873C499.01,219.437,512.557,177.842,511.982,135.885z     M449.851,235.021c-38.016,50.688-58.953,111.366-58.953,170.859v38.478c0,20.662-16.809,37.472-37.472,37.472    c-20.662,0-37.472-16.809-37.472-37.472V398.16c0-33.059-26.896-59.955-59.955-59.955s-59.955,26.896-59.955,59.955v46.198    c0,20.662-16.809,37.472-37.472,37.472s-37.472-16.809-37.472-37.472V405.88c0-59.493-20.936-120.172-58.952-170.859    c-21.077-28.103-32.487-62.88-32.165-98C36.948,77.046,89.998,30.171,151.08,30.171c22.762,0,44.902,6.399,64.024,18.506    c12.105,7.664,26.247,11.715,40.897,11.715c14.65,0,28.791-4.051,40.896-11.714c19.124-12.107,41.262-18.506,64.025-18.506    c61.083,0,114.133,46.875,121.096,106.849C482.336,172.139,470.927,206.917,449.851,235.021z"/>
	</g>
</g>
<g>
	<g>
		<path d="M419.754,82.951c-16.312-14.06-37.206-21.804-58.835-21.804c-17.057,0-33.639,4.779-47.977,13.839    c-16.895,10.721-36.585,16.388-56.944,16.388c-20.358,0-40.034-5.657-56.925-16.374c-14.341-9.062-30.938-13.853-47.996-13.853    c-21.628,0-42.521,7.743-58.834,21.805C63.465,107.757,55.656,151.025,72.81,190.62c4.132,9.536,10.687,19.3,18.278,30.608    c18.817,28.03,44.586,66.417,55.758,133.561c1.07,6.432,6.177,11.434,12.63,12.373c6.45,0.938,12.771-2.403,15.629-8.265    c15.004-30.781,46.757-50.67,80.894-50.67c34.137,0,65.89,19.889,80.894,50.67c2.537,5.204,7.802,8.423,13.468,8.422    c0.715,0,1.438-0.051,2.161-0.156c6.453-0.938,11.559-5.94,12.63-12.373c11.173-67.149,36.943-105.536,55.76-133.565    c7.59-11.305,14.145-21.07,18.276-30.604C456.344,151.025,448.534,107.757,419.754,82.951z M411.681,178.701    c-3.041,7.019-8.888,15.728-15.658,25.814c-16.007,23.843-38.836,57.848-53.076,111.135c-6.698-7.055-14.262-13.31-22.55-18.605    c-19.246-12.296-41.515-18.796-64.397-18.796s-45.152,6.499-64.397,18.796c-8.288,5.295-15.852,11.549-22.55,18.605    c-14.239-53.283-37.068-87.286-53.073-111.129c-6.771-10.086-12.619-18.797-15.661-25.818    c-9.913-22.88-10.201-54.339,11.499-73.044c10.874-9.372,24.817-14.533,39.262-14.533c11.381,0,22.441,3.187,31.959,9.201    c21.677,13.755,46.907,21.025,72.962,21.025s51.3-7.281,72.981-21.038c9.514-6.01,20.559-9.188,31.94-9.188    c14.446,0,28.39,5.161,39.262,14.533C421.884,124.362,421.595,155.822,411.681,178.701z"/>
	</g>
</g>
<g>
	<g>
		<circle cx="255.997" cy="166.065" r="14.989"/>
	</g>
</g>
<g>
	<g>
		<circle cx="196.042" cy="226.02" r="14.989"/>
	</g>
</g>
<g>
	<g>
		<circle cx="345.929" cy="196.042" r="14.989"/>
	</g>
</g>
<g>
</g>
<g>
</g>
<g>
</g>
<g>
</g>
<g>
</g>
<g>
</g>
<g>
</g>
<g>
</g>
<g>
</g>
<g>
</g>
<g>
</g>
<g>
</g>
<g>
</g>
<g>
</g>
<g>
</g>
</svg>
