<?xml version="1.0" encoding="iso-8859-1"?>
<!-- Generator: Adobe Illustrator 19.0.0, SVG Export Plug-In . SVG Version: 6.00 Build 0)  -->
<svg xmlns="http://www.w3.org/2000/svg" xmlns:xlink="http://www.w3.org/1999/xlink" version="1.1" id="Capa_1" x="0px" y="0px" viewBox="0 0 512 512" style="enable-background:new 0 0 512 512;" xml:space="preserve">
<g>
	<g>
		<path d="M497,263h-15v-15c0-8.284-6.716-15-15-15h-31v-31.899c25.849-6.677,45-30.195,45-58.101V83c0-8.284-6.716-15-15-15h-90    c-8.284,0-15,6.716-15,15v60c0,27.906,19.151,51.424,45,58.101V233h-30c-8.284,0-15,6.716-15,15v15h-45v-15    c0-8.284-6.716-15-15-15h-30v-31.899c25.849-6.677,45-30.195,45-58.101V83c0-8.284-6.716-15-15-15h-90c-8.284,0-15,6.716-15,15v60    c0,27.906,19.151,51.424,45,58.101V233h-30c-8.284,0-15,6.716-15,15v15h-45v-15c0-8.284-6.716-15-15-15h-30v-31.899    c25.849-6.677,45-30.195,45-58.101V83c0-8.284-6.716-15-15-15H46c-8.284,0-15,6.716-15,15v60c0,27.906,19.151,51.424,45,58.101    V233H45c-8.284,0-15,6.716-15,15v15H15c-8.284,0-15,6.716-15,15v151c0,8.284,6.716,15,15,15h482c8.284,0,15-6.716,15-15V278    C512,269.716,505.284,263,497,263z M391,143V98h60v45c0,16.542-13.458,30-30,30S391,159.542,391,143z M226,143V98h60v45    c0,16.542-13.458,30-30,30S226,159.542,226,143z M61,143V98h60v45c0,16.542-13.458,30-30,30S61,159.542,61,143z M482,414H30v-61    h452V414z M482,323H30v-30h15c8.284,0,15-6.716,15-15v-15h61v15c0,8.284,6.716,15,15,15h75c8.284,0,15-6.716,15-15v-15h60v15    c0,8.284,6.716,15,15,15h75c8.284,0,15-6.716,15-15v-15h61v15c0,8.284,6.716,15,15,15h15V323z"/>
	</g>
</g>
<g>
</g>
<g>
</g>
<g>
</g>
<g>
</g>
<g>
</g>
<g>
</g>
<g>
</g>
<g>
</g>
<g>
</g>
<g>
</g>
<g>
</g>
<g>
</g>
<g>
</g>
<g>
</g>
<g>
</g>
</svg>
