<?xml version="1.0" encoding="iso-8859-1"?>
<!-- Generator: Adobe Illustrator 19.0.0, SVG Export Plug-In . SVG Version: 6.00 Build 0)  -->
<svg xmlns="http://www.w3.org/2000/svg" xmlns:xlink="http://www.w3.org/1999/xlink" version="1.1" id="Capa_1" x="0px" y="0px" viewBox="0 0 512.001 512.001" style="enable-background:new 0 0 512.001 512.001;" xml:space="preserve">
<g>
	<g>
		<path d="M457.769,322.631c-8.257-12.28-16.339-24.302-23.199-36.318c-0.057-0.111-0.124-0.216-0.184-0.326    c-11.177-19.64-19.064-39.27-19.064-59.986v-30c0-8.284-6.716-15-15-15V59.555c0-20.683-14.013-38.636-34.078-43.658    c-1.311-0.328,6.949,0.758-125.423-15.78c-7.524-0.942-14.571,3.886-16.411,11.245l-7.28,29.106    c-1.802,7.206,1.94,14.646,8.801,17.493l84.391,35.03v88.01c-7.708,0-14.162,5.843-14.926,13.513    c-1.374,13.79-25.352,254.476-26.701,268.009c-1.263,12.626,2.896,25.265,11.411,34.673c8.515,9.408,20.676,14.805,33.365,14.805    c2.297,0,106.013,0,116.851,0c20.016,0,38.886-8.028,53.136-22.605c14.1-14.424,21.864-33.387,21.864-53.395    C505.322,393.348,481.147,357.398,457.769,322.631z M249.37,35.209l0.919-3.676L359.687,45.2    c6.299,1.913,10.634,7.711,10.634,14.354v121.447h-30V82.977c0-6.063-3.65-11.53-9.25-13.854L249.37,35.209z M317.924,271.001    h7.398c8.271,0,15,6.729,15,15s-6.729,15-15,15h-10.386L317.924,271.001z M313.471,482.001c-4.292,0-8.242-1.752-11.122-4.935    c-2.88-3.182-4.231-7.287-3.803-11.563l1.445-14.501h25.331c8.284,0,15-6.716,15-15s-6.716-15-15-15H302.98l2.989-30h19.353    c8.284,0,15-6.716,15-15s-6.716-15-15-15h-16.364l2.989-30h13.375c24.813,0,45-20.187,45-45s-20.187-45-45-45h-4.409l2.989-30    h1.42h60v15c0,23.621,7.42,45.184,18.007,65.631c-21.028,27.764-35.709,60.399-42.616,95.029    c-6.303,31.603-5.989,64.186,0.78,95.339H313.471z M430.322,482.001h-38.016c-13.893-55.195-3.55-114.816,27.698-162.041    c4.213,6.534,8.555,12.993,12.871,19.411c21.829,32.463,42.447,63.125,42.447,96.63    C475.322,460.936,454.714,482.001,430.322,482.001z"/>
	</g>
</g>
<g>
	<g>
		<path d="M232.803,397.68l-27.481-41.22v-40.458c0-8.284-6.716-15-15-15V59.555c0-20.683-14.013-38.636-34.078-43.658    c-1.311-0.328,6.949,0.758-125.423-15.78c-7.529-0.942-14.57,3.886-16.411,11.245L7.13,40.468    c-1.802,7.206,1.941,14.646,8.801,17.493l84.391,35.03v208.01c-8.284,0-15,6.716-15,15v40.458L57.841,397.68    c-3.068,4.603-3.354,10.521-0.744,15.398S64.79,421,70.322,421h30v76c0,8.284,6.716,15,15,15h60c8.284,0,15-6.716,15-15v-76h30    c5.532,0,10.615-3.045,13.225-7.922C236.157,408.201,235.871,402.282,232.803,397.68z M39.37,35.209l0.919-3.676L149.687,45.2    c6.298,1.913,10.634,7.711,10.634,14.354v241.447h-30V82.977c0-6.063-3.65-11.53-9.25-13.854L39.37,35.209z M160.322,482.001h-30    v-61h30V482.001z M98.35,391.001l14.453-21.68c1.643-2.464,2.519-5.359,2.519-8.32v-30h60v30c0,2.961,0.876,5.856,2.519,8.32    l14.453,21.68H98.35z"/>
	</g>
</g>
<g>
</g>
<g>
</g>
<g>
</g>
<g>
</g>
<g>
</g>
<g>
</g>
<g>
</g>
<g>
</g>
<g>
</g>
<g>
</g>
<g>
</g>
<g>
</g>
<g>
</g>
<g>
</g>
<g>
</g>
</svg>
