<?xml version="1.0" encoding="iso-8859-1"?>
<!-- Generator: Adobe Illustrator 19.0.0, SVG Export Plug-In . SVG Version: 6.00 Build 0)  -->
<svg xmlns="http://www.w3.org/2000/svg" xmlns:xlink="http://www.w3.org/1999/xlink" version="1.1" id="Capa_1" x="0px" y="0px" viewBox="0 0 512 512" style="enable-background:new 0 0 512 512;" xml:space="preserve">
<g>
	<g>
		<path d="M489.417,22.129C475.006,8.044,456.063,0.286,436.074,0.286c-41.315,0-74.927,33.612-74.927,74.927    c0,8.276,6.709,14.985,14.985,14.985c8.276,0,14.985-6.709,14.985-14.985c0-24.789,20.167-44.956,44.956-44.956    c24.911,0,45.955,20.587,45.955,44.956c0,43.021-54.986,58.215-138.873,76.484c-61.071,13.3-118.962,25.911-146.336,60.382H91.587    L316.729,38.457c4.33-3.339,6.497-8.771,5.655-14.174c-0.842-5.403-4.559-9.917-9.7-11.781    C280.386,0.793,245.177-2.635,210.862,2.59c-35.112,5.347-68.724,19.724-97.203,41.577    C58.136,86.772,27.933,153.28,32.138,222.975C15.076,250.129,0,293.322,0,331.962c0,36.392,9.998,72.188,27.743,102.944    c17.414,30.185,42.27,55.974,71.878,74.582c2.389,1.501,5.153,2.298,7.973,2.298h207.398c2.821,0,5.585-0.796,7.973-2.298    c29.471-18.521,54.092-44.356,71.202-74.712c16.623-29.49,23.7-61.122,24.559-71.607c8.103-53.858-6.148-107.695-31.089-144.51    c-2.788-4.115-7.436-6.581-12.406-6.581H244.527c26.792-14.063,66.352-22.679,105.006-31.098    c37.854-8.244,76.996-16.769,106.813-30.954c17.235-8.2,30.082-17.603,39.273-28.746C506.488,108.103,512,92.603,512,75.213    C512,55.217,503.98,36.365,489.417,22.129z M131.903,67.946c32.499-24.938,71.222-37.877,110.274-37.877    c10.832,0,21.693,0.996,32.448,3.008L62.192,196.899C65.915,146.258,90.828,99.464,131.903,67.946z M310.584,481.816H112.005    c-37.658-24.903-64.613-62.772-76-104.898h101.87c6.961,34.159,37.236,59.941,73.419,59.941s66.457-25.783,73.419-59.941h100.763    C374.569,419.532,348.289,456.891,310.584,481.816z M166.338,361.933c0-24.789,20.167-44.956,44.956-44.956    c24.789,0,44.956,20.167,44.956,44.956s-20.167,44.956-44.956,44.956C186.505,406.889,166.338,386.722,166.338,361.933z     M366.98,242.05c17.485,29.712,26.637,66.757,23.506,104.898H284.713c-6.961-34.159-37.235-59.941-73.419-59.941    c-36.185,0-66.457,25.783-73.419,59.941H30.655c-0.442-4.971-0.684-9.969-0.684-14.985c0-21.396,5.15-44.646,15.307-69.105    c3.459-8.064,6.817-14.839,10.331-20.808h148.877c0.019,0,0.039,0.002,0.058,0.002c0.021,0,0.042-0.002,0.062-0.002H366.98z"/>
	</g>
</g>
<g>
</g>
<g>
</g>
<g>
</g>
<g>
</g>
<g>
</g>
<g>
</g>
<g>
</g>
<g>
</g>
<g>
</g>
<g>
</g>
<g>
</g>
<g>
</g>
<g>
</g>
<g>
</g>
<g>
</g>
</svg>
