<?xml version="1.0" encoding="iso-8859-1"?>
<!-- Generator: Adobe Illustrator 19.0.0, SVG Export Plug-In . SVG Version: 6.00 Build 0)  -->
<svg xmlns="http://www.w3.org/2000/svg" xmlns:xlink="http://www.w3.org/1999/xlink" version="1.1" id="Capa_1" x="0px" y="0px" viewBox="0 0 512 512" style="enable-background:new 0 0 512 512;" xml:space="preserve">
<g>
	<g>
		<path d="M489.411,219.153C503.978,204.915,512,186.038,512,166v-30c0-20.033-7.979-39.045-22.467-53.533    c-8.249-8.248-17.966-14.378-28.501-18.136C436.544,24.56,392.814,0,346,0c-29.203,0-57.001,9.176-80.39,26.535    c-5.928,4.4-13.293,4.4-19.221,0C223.001,9.176,195.203,0,166,0C119.186,0,75.456,24.56,50.968,64.331    c-10.535,3.758-20.252,9.888-28.501,18.136C7.979,96.955,0,115.967,0,136v30c0,20.038,8.022,38.915,22.589,53.153    c10.751,10.51,24.04,17.492,38.411,20.363v32.967c-14.372,2.872-27.66,9.854-38.411,20.363C8.022,307.085,0,325.962,0,346    c0,28.047,11.1,54.592,31.254,74.746c10.711,10.711,23.228,18.865,36.815,24.154C83.652,485.159,122.608,512,166,512h180    c43.392,0,82.348-26.841,97.931-67.1c13.588-5.289,26.104-13.443,36.815-24.154C500.9,400.592,512,374.047,512,346    c0-20.038-8.022-38.915-22.589-53.153c-10.751-10.51-24.04-17.492-38.411-20.363v-32.968    C465.372,236.644,478.66,229.662,489.411,219.153z M482,346c0,41.196-34.804,76-76,76h-24.375c-8.284,0-15,6.716-15,15    s6.716,15,15,15H406c0.001,0,0.002,0,0.003,0c-13.925,18.517-36.015,30-60.003,30H166c-23.988,0-46.078-11.483-60.003-30    c0.001,0,0.002,0,0.003,0h14.955c8.284,0,15-6.716,15-15s-6.716-15-15-15H106c-41.196,0-76-34.804-76-76    c0-19.282,13.168-36.188,31-42.431V331c0,33.084,26.916,60,60,60c17.908,0,33.997-7.896,45-20.377    C177.003,383.104,193.092,391,211,391s33.997-7.896,45-20.377C267.003,383.104,283.092,391,301,391    c17.908,0,33.997-7.896,45-20.377C357.003,383.104,373.092,391,391,391c33.084,0,60-26.916,60-60v-27.431    C468.832,309.812,482,326.718,482,346z M151,271v60c0,16.542-13.458,30-30,30s-30-13.458-30-30v-60H151z M91,241v-60    c0-16.542,13.458-30,30-30s30,13.458,30,30v60H91z M241,271v60c0,16.542-13.458,30-30,30s-30-13.458-30-30v-60H241z M181,241v-60    c0-16.542,13.458-30,30-30s30,13.458,30,30v60H181z M331,271v60c0,16.542-13.458,30-30,30s-30-13.458-30-30v-60H331z M271,241v-60    c0-16.542,13.458-30,30-30s30,13.458,30,30v60H271z M421,271v60c0,16.542-13.458,30-30,30s-30-13.458-30-30v-60H421z M361,241v-60    c0-16.542,13.458-30,30-30s30,13.458,30,30v60H361z M391,121c-17.908,0-33.997,7.896-45,20.377    C334.997,128.896,318.908,121,301,121c-17.908,0-33.997,7.896-45,20.377C244.997,128.896,228.908,121,211,121    s-33.997,7.896-45,20.377C154.997,128.896,138.908,121,121,121c-33.084,0-60,26.916-60,60v27.431    C43.168,202.188,30,185.282,30,166v-30c0-24.935,21.065-46,46-46h30c8.284,0,15-6.716,15-15s-6.716-15-15-15H92.568    c19.399-18.927,45.72-30,73.432-30c22.715,0,44.331,7.132,62.509,20.624c16.443,12.206,38.54,12.205,54.981,0    C301.669,37.132,323.285,30,346,30c27.712,0,54.034,11.073,73.432,30H406c-8.284,0-15,6.716-15,15s6.716,15,15,15h30    c24.935,0,46,21.065,46,46v30c0,19.282-13.168,36.188-31,42.431V181C451,147.916,424.084,121,391,121z"/>
	</g>
</g>
<g>
</g>
<g>
</g>
<g>
</g>
<g>
</g>
<g>
</g>
<g>
</g>
<g>
</g>
<g>
</g>
<g>
</g>
<g>
</g>
<g>
</g>
<g>
</g>
<g>
</g>
<g>
</g>
<g>
</g>
</svg>
