<?xml version="1.0" encoding="iso-8859-1"?>
<!-- Generator: Adobe Illustrator 19.0.0, SVG Export Plug-In . SVG Version: 6.00 Build 0)  -->
<svg xmlns="http://www.w3.org/2000/svg" xmlns:xlink="http://www.w3.org/1999/xlink" version="1.1" id="Capa_1" x="0px" y="0px" viewBox="0 0 512 512" style="enable-background:new 0 0 512 512;" xml:space="preserve">
<g>
	<g>
		<path d="M166.001,75.003c0-41.355-33.645-74.999-74.999-74.999S16.002,33.649,16.002,75.003c0,36.219,25.808,66.521,60,73.49    v41.296l-25.606,25.606c-2.813,2.813-4.394,6.628-4.394,10.607V467c0,24.813,20.187,45,45,45s45-20.187,45-45V226.002    c0-3.978-1.581-7.793-4.394-10.607l-25.606-25.606v-41.296C140.193,141.526,166.001,111.223,166.001,75.003z M106.001,467    c0,8.271-6.729,15-15,15s-15-6.729-15-15v-45h30V467z M106.001,392.001h-30V232.215l15-15l15,15V392.001z M91.001,120.003    c-24.813,0-45-20.187-45-45s20.187-45,45-45s45,20.187,45,45S115.814,120.003,91.001,120.003z"/>
	</g>
</g>
<g>
	<g>
		<path d="M271,30.004c12.02,0,23.32,4.681,31.82,13.18c5.857,5.858,15.355,5.858,21.213,0c5.858-5.858,5.858-15.355,0-21.213    C309.867,7.805,291.033,0.004,271,0.004c-20.034,0-38.868,7.801-53.033,21.967s-21.967,33-21.967,53.033    s7.801,38.867,21.967,53.033c10.561,10.561,23.719,17.579,38.033,20.47v41.284l-25.606,25.606    c-2.813,2.813-4.394,6.628-4.394,10.607V467c0,24.813,20.187,45,45,45s45-20.187,45-45V226.002c0-3.978-1.581-7.793-4.394-10.607    L286,189.79v-54.787c0-8.284-6.716-15-15-15c-12.02,0-23.321-4.681-31.82-13.18c-8.499-8.499-13.18-19.8-13.18-31.82    c0-12.02,4.681-23.321,13.18-31.82C247.68,34.685,258.98,30.004,271,30.004z M286,467c0,8.271-6.729,15-15,15s-15-6.729-15-15v-45    h30V467z M286,232.215v159.786h-30V232.215l15-15L286,232.215z"/>
	</g>
</g>
<g>
	<g>
		<path d="M491.604,215.395l-25.606-25.606v-84.786c0-3.978-1.581-7.794-4.394-10.607l-27.83-27.829    c-3.629-3.629-5.119-8.594-4.087-13.622s4.357-9.005,9.123-10.911l32.758-13.103c7.692-3.077,11.433-11.806,8.356-19.498    C476.848,1.741,468.117-2,460.427,1.077L427.67,14.18c-14.087,5.635-24.318,17.872-27.368,32.734    c-3.051,14.862,1.533,30.139,12.261,40.867l23.436,23.436v78.573l-25.606,25.606c-2.813,2.813-4.394,6.628-4.394,10.607V467    c0,24.813,20.187,45,45,45c24.813,0,45-20.187,45-45V226.002C495.998,222.024,494.417,218.209,491.604,215.395z M465.998,467    c0,8.271-6.729,15-15,15s-15-6.729-15-15v-45h30V467z M465.998,392.001h-30V232.215l15-15l15,15V392.001z"/>
	</g>
</g>
<g>
</g>
<g>
</g>
<g>
</g>
<g>
</g>
<g>
</g>
<g>
</g>
<g>
</g>
<g>
</g>
<g>
</g>
<g>
</g>
<g>
</g>
<g>
</g>
<g>
</g>
<g>
</g>
<g>
</g>
</svg>
