<?xml version="1.0" encoding="iso-8859-1"?>
<!-- Generator: Adobe Illustrator 19.0.0, SVG Export Plug-In . SVG Version: 6.00 Build 0)  -->
<svg xmlns="http://www.w3.org/2000/svg" xmlns:xlink="http://www.w3.org/1999/xlink" version="1.1" id="Capa_1" x="0px" y="0px" viewBox="0 0 512 512" style="enable-background:new 0 0 512 512;" xml:space="preserve">
<g>
	<g>
		<path d="M480.441,180.069C472.595,121.112,421.802,76,361.5,76c-27.081,0-53.635,9.282-74.77,26.135    c-18.08,14.419-42.378,14.421-60.462,0C205.136,85.282,178.582,76,151.5,76C91.279,76,40.54,120.991,32.588,179.831    c-3.402,2.374-6.649,5.019-9.69,7.958C8.132,202.062,0,220.959,0,241v60v90c0,24.813,20.187,45,45,45h61.5    c11.517,0,22.032-4.354,30-11.495c7.968,7.141,18.483,11.495,30,11.495h60c11.517,0,22.032-4.354,30-11.495    c7.968,7.141,18.483,11.495,30,11.495h60c11.517,0,22.032-4.354,30-11.495c7.968,7.141,18.483,11.495,30,11.495h60    c25.089,0,45.5-20.187,45.5-45v-60v-30v-60C512,215.92,499.531,193.693,480.441,180.069z M121.5,391c0,8.271-6.729,15-15,15H45    c-8.271,0-15-6.729-15-15v-45h31.5v15c0,8.284,6.716,15,15,15s15-6.716,15-15v-15h30V391z M121.5,316h-30v-15    c0-8.284-6.716-15-15-15s-15,6.716-15,15v15H30v-15c0-24.813,20.187-45,45-45c25.206,0,46.5,20.607,46.5,45V316z M241.5,391    c0,8.271-6.729,15-15,15h-60c-8.271,0-15-6.729-15-15v-45h30v15c0,8.284,6.716,15,15,15s15-6.716,15-15v-15h30V391z M241.5,316    h-30v-15c0-8.284-6.716-15-15-15s-15,6.716-15,15v15h-30v-15c0-24.813,20.187-45,45-45s45,20.187,45,45V316z M361.5,391    c0,8.271-6.729,15-15,15h-60c-8.271,0-15-6.729-15-15v-45h30v15c0,8.284,6.716,15,15,15s15-6.716,15-15v-15h30V391z M361.5,316    h-30v-15c0-8.284-6.716-15-15-15s-15,6.716-15,15v15h-30v-15c0-24.813,20.187-45,45-45s45,20.187,45,45V316z M482,391    c0,8.131-7.098,15-15.5,15h-60c-8.271,0-15-6.729-15-15v-45h30v15c0,8.284,6.716,15,15,15s15-6.716,15-15v-15H482V391z M482,316    h-30.5v-15c0-8.284-6.716-15-15-15s-15,6.716-15,15v15h-30v-15c0-24.813,20.187-45,45-45c25.089,0,45.5,20.187,45.5,45V316z     M482,241.197C469.338,231.667,453.575,226,436.5,226c-24.508,0-46.306,11.818-60,30.052C362.806,237.818,341.008,226,316.5,226    s-46.306,11.818-60,30.052C242.806,237.818,221.008,226,196.5,226c-24.65,0-46.557,11.957-60.236,30.372    c-2.31-3.011-4.866-5.881-7.663-8.584C114.065,233.738,95.029,226,75,226c-16.871,0-32.456,5.603-45,15.041V241    c0-15.892,9.042-30.172,22.313-38.199C54.121,202.075,62.564,196,76.5,196h20.624c8.284,0,15-6.716,15-15s-6.716-15-15-15H76.5    c-3.395,0-6.757,0.24-10.078,0.678C78.663,131.279,112.407,106,151.5,106c20.606,0,39.993,6.774,56.063,19.59    c14.267,11.377,31.188,17.391,48.936,17.391s34.67-6.014,48.937-17.391C321.507,112.774,340.894,106,361.5,106    c39.095,0,72.843,25.283,85.081,60.688c-3.3-0.44-6.661-0.688-10.081-0.688h-30c-8.284,0-15,6.716-15,15s6.716,15,15,15h30    c24.994,0,45.5,20.411,45.5,45V241.197z"/>
	</g>
</g>
<g>
</g>
<g>
</g>
<g>
</g>
<g>
</g>
<g>
</g>
<g>
</g>
<g>
</g>
<g>
</g>
<g>
</g>
<g>
</g>
<g>
</g>
<g>
</g>
<g>
</g>
<g>
</g>
<g>
</g>
</svg>
