<?xml version="1.0" encoding="iso-8859-1"?>
<!-- Generator: Adobe Illustrator 19.0.0, SVG Export Plug-In . SVG Version: 6.00 Build 0)  -->
<svg xmlns="http://www.w3.org/2000/svg" xmlns:xlink="http://www.w3.org/1999/xlink" version="1.1" id="Capa_1" x="0px" y="0px" viewBox="0 0 512.001 512.001" style="enable-background:new 0 0 512.001 512.001;" xml:space="preserve">
<g>
	<g>
		<path d="M498.848,86.364L486.423,73.94c7.963-16.716,5.043-37.363-8.778-51.184c-17.536-17.537-46.072-17.535-63.608,0    c-70.36,70.36-33.758,33.188-166.778,169.634c-22.505-3.143-46.169,3.907-63.422,21.16    c-0.001,0.001-170.652,169.652-170.652,169.653c-17.578,17.577-17.581,46.028,0,63.608l42.406,42.405    c17.745,17.745,46.214,17.394,63.576,0.031c23.616-23.478,132.258-131.484,170.651-169.653    c14.159-14.159,21.957-32.984,21.957-53.007c0-3.624-0.264-7.208-0.767-10.734l71.726-73.573l10.098,10.098    c17.536,17.536,46.071,17.537,63.608,0c27.21-27.211,14.84-14.84,42.405-42.405C516.385,132.436,516.385,103.901,498.848,86.364z     M97.999,468.012c-5.86,5.859-15.345,5.86-21.204,0l-42.406-42.405c-5.926-5.926-5.781-15.421-0.031-21.172l10.665-10.602    l63.608,63.608L97.999,468.012z M172.926,393.522l-10.322-10.321c-5.86-5.86-5.86-15.342,0-21.203l42.406-42.406    c5.858-5.859,15.342-5.861,21.202,0L236.72,330.1L172.926,393.522z M268.649,298.36l-10.664,10.602l-10.57-10.57    c-17.577-17.578-46.029-17.58-63.608,0l-42.406,42.406c-17.578,17.576-17.581,46.029,0,63.608l10.259,10.259l-21.766,21.638    l-63.608-63.608L205.01,234.783c8.768-8.769,20.286-13.152,31.804-13.152c11.517,0,23.036,4.384,31.803,13.152    c8.495,8.495,13.174,19.79,13.174,31.804S277.113,289.895,268.649,298.36z M299.212,225.002c-2.72-4.062-5.857-7.887-9.391-11.421    c-3.697-3.698-7.69-6.924-11.9-9.686c121.852-124.99,87.075-89.69,157.32-159.936c5.847-5.845,15.358-5.845,21.203,0    c5.846,5.845,5.846,15.357,0,21.202C322.882,198.722,431.096,89.722,299.212,225.002z M435.241,171.174    c-5.847,5.847-15.357,5.845-21.203,0l-10.367-10.367c20.937-21.476,17.354-17.822,20.969-21.436l21.203,21.202L435.241,171.174z     M477.646,128.769l-10.601,10.602l-21.202-21.203l21.202-21.202l10.601,10.601C483.492,113.412,483.492,122.924,477.646,128.769z"/>
	</g>
</g>
<g>
</g>
<g>
</g>
<g>
</g>
<g>
</g>
<g>
</g>
<g>
</g>
<g>
</g>
<g>
</g>
<g>
</g>
<g>
</g>
<g>
</g>
<g>
</g>
<g>
</g>
<g>
</g>
<g>
</g>
</svg>
