<?xml version="1.0" encoding="iso-8859-1"?>
<!-- Generator: Adobe Illustrator 19.0.0, SVG Export Plug-In . SVG Version: 6.00 Build 0)  -->
<svg xmlns="http://www.w3.org/2000/svg" xmlns:xlink="http://www.w3.org/1999/xlink" version="1.1" id="Capa_1" x="0px" y="0px" viewBox="0 0 511.999 511.999" style="enable-background:new 0 0 511.999 511.999;" xml:space="preserve">
<g>
	<g>
		<path d="M512,57.419c0-3.977-1.581-7.793-4.393-10.606L465.185,4.393c-5.856-5.857-15.353-5.856-21.21,0l-37.954,37.954    l-77.526-0.925c-3.607-0.05-7.176,1.26-9.895,3.572L35.257,285.915c-0.145,0.123-0.273,0.262-0.413,0.39    c-0.158,0.145-0.323,0.278-0.476,0.431l-21.21,21.21c-17.544,17.544-17.544,46.088,0,63.632l127.263,127.263    c8.771,8.771,20.294,13.157,31.815,13.157c11.523,0,23.044-4.385,31.816-13.157l21.21-21.21c0.153-0.153,0.286-0.318,0.431-0.476    c0.128-0.14,0.267-0.269,0.391-0.414l240.921-283.343c2.266-2.664,3.617-6.233,3.572-9.895l-0.925-77.525l37.954-37.954    C510.42,65.211,512,61.397,512,57.419z M182.842,477.632c-5.848,5.848-15.363,5.847-21.21,0L34.367,350.367    c-5.847-5.847-5.847-15.363,0-21.21l10.606-10.606l148.474,148.474L182.842,477.632z M376.71,253.286l-69.603-69.604l21.21-21.21    l67.888,67.888L376.71,253.286z M415.698,207.433l-76.777-76.777c-2.813-2.813-6.627-4.392-10.605-4.392    c-3.978,0-7.792,1.58-10.605,4.393l-42.421,42.421c-5.857,5.857-5.857,15.353,0,21.21l81.926,81.925l-143.45,168.709    L67.076,298.234L327.492,76.806l107.7,107.7L415.698,207.433z M364.963,71.855l40.91,0.488l33.783,33.784l0.488,40.909    L364.963,71.855z M454.58,78.63l-21.21-21.21l21.21-21.21l21.21,21.21L454.58,78.63z"/>
	</g>
</g>
<g>
	<g>
		<path d="M264.685,310.947c11.332-11.332,17.572-26.397,17.572-42.422c0-16.024-6.24-31.09-17.572-42.422l-31.816-31.816    c-5.856-5.857-15.353-5.857-21.21,0c-5.857,5.857-5.857,15.353,0,21.21c2.834,2.834,4.394,6.6,4.394,10.606    s-1.561,7.771-4.394,10.605l-39.421,39.421c-11.332,11.332-17.572,26.397-17.572,42.422s6.24,31.09,17.572,42.422l31.816,31.816    c5.843,5.844,15.339,5.871,21.21,0c5.124-5.125,5.765-13.036,1.922-18.858c-0.809-1.225-12.727-12.756-1.922-23.563    L264.685,310.947z M204.053,329.158c-3.67,3.67-6.624,7.864-8.8,12.41l-1.806-1.806c-5.665-5.665-8.786-13.198-8.786-21.21    s3.121-15.545,8.786-21.21l39.421-39.421c3.669-3.67,6.624-7.864,8.801-12.411l1.805,1.805c5.665,5.665,8.786,13.198,8.786,21.21    c-0.001,8.012-3.121,15.545-8.786,21.21L204.053,329.158z"/>
	</g>
</g>
<g>
</g>
<g>
</g>
<g>
</g>
<g>
</g>
<g>
</g>
<g>
</g>
<g>
</g>
<g>
</g>
<g>
</g>
<g>
</g>
<g>
</g>
<g>
</g>
<g>
</g>
<g>
</g>
<g>
</g>
</svg>
