<?xml version="1.0" encoding="iso-8859-1"?>
<!-- Generator: Adobe Illustrator 19.0.0, SVG Export Plug-In . SVG Version: 6.00 Build 0)  -->
<svg xmlns="http://www.w3.org/2000/svg" xmlns:xlink="http://www.w3.org/1999/xlink" version="1.1" id="Capa_1" x="0px" y="0px" viewBox="0 0 511.999 511.999" style="enable-background:new 0 0 511.999 511.999;" xml:space="preserve">
<g>
	<g>
		<path d="M490.109,148.161L437.518,95.07c-22.318-22.319-53.154-33.345-84.592-30.251c-24.083,2.369-46.784,13.113-63.921,30.251    c-8.746,8.746-253.615,253.616-275.811,275.812c-17.589,17.588-17.593,46.059,0,63.648c17.558,17.559,46.111,17.538,63.648,0    c7.094-7.094,141.342-141.341,148.516-148.515c5.861-5.862,15.351-5.863,21.215,0l53.041,53.041    c29.245,29.245,76.833,29.247,106.081,0c5.855-5.854,5.859-15.358,0-21.216l-21.216-21.216l63.472-63.472l20.857,21.002    c5.983,6.025,15.55,5.74,21.253,0.037C519.304,224.945,519.304,177.357,490.109,148.161z M55.624,413.315    c-5.851,5.85-15.367,5.85-21.216,0c-2.833-2.833-4.395-6.601-4.395-10.608s1.561-7.774,4.395-10.608l31.825-31.825l21.216,21.216    L55.624,413.315z M108.665,360.274l-21.216-21.216l21.216-21.216l21.216,21.216L108.665,360.274z M363.26,275.409l-31.825-31.825    c-19.029-19.029-17.808-51.579,5.866-68.628c17.501-12.604,43.317-9.485,60.017,7.213l29.488,29.694L363.26,275.409z     M477.66,220.492c-11.207-11.285-47.886-48.22-59.089-59.502c-27.023-27.023-69.498-31.487-98.804-10.382    c-37.923,27.309-42.251,81.491-9.548,114.193l61.83,61.831c-16.728,7.971-37.393,5.04-51.223-8.79l-53.041-53.041    c-8.5-8.5-19.803-13.182-31.824-13.182c-12.023,0-23.324,4.682-31.824,13.182l-53.041,53.041l-21.216-21.216l180.337-180.339    c12.242-12.242,28.451-19.915,45.644-21.607c22.4-2.204,44.451,5.619,60.389,21.557l52.591,53.091    C482.657,183.141,485.596,203.775,477.66,220.492z"/>
	</g>
</g>
<g>
</g>
<g>
</g>
<g>
</g>
<g>
</g>
<g>
</g>
<g>
</g>
<g>
</g>
<g>
</g>
<g>
</g>
<g>
</g>
<g>
</g>
<g>
</g>
<g>
</g>
<g>
</g>
<g>
</g>
</svg>
