<?xml version="1.0" encoding="iso-8859-1"?>
<!-- Generator: Adobe Illustrator 19.0.0, SVG Export Plug-In . SVG Version: 6.00 Build 0)  -->
<svg xmlns="http://www.w3.org/2000/svg" xmlns:xlink="http://www.w3.org/1999/xlink" version="1.1" id="Capa_1" x="0px" y="0px" viewBox="0 0 512 512" style="enable-background:new 0 0 512 512;" xml:space="preserve">
<g>
	<g>
		<path d="M136.833,247.87c-8.49-8.49-19.791-13.165-31.822-13.165c-12.032,0-23.333,4.675-31.822,13.165    c-8.49,8.49-13.165,19.791-13.165,31.823c0,12.032,4.676,23.333,13.164,31.822c8.49,8.49,19.791,13.166,31.823,13.166    c12.031,0,23.332-4.675,31.822-13.165c8.49-8.49,13.165-19.791,13.165-31.823C149.999,267.661,145.323,256.36,136.833,247.87z     M105.011,294.679c-4.018,0-7.784-1.554-10.606-4.377c-0.001,0-0.001,0-0.001,0c-2.822-2.823-4.378-6.59-4.378-10.607    c0-8.309,6.671-14.986,14.985-14.986c8.31,0,14.985,6.672,14.985,14.986C119.996,288.004,113.325,294.679,105.011,294.679z"/>
	</g>
</g>
<g>
	<g>
		<path d="M264.126,375.162c-8.49-8.49-19.791-13.165-31.822-13.165c-12.032,0.001-23.333,4.677-31.822,13.166    c-8.49,8.49-13.165,19.792-13.165,31.823s4.675,23.333,13.165,31.822c8.489,8.49,19.79,13.165,31.822,13.165    c12.031,0,23.332-4.675,31.822-13.165c8.49-8.49,13.165-19.791,13.165-31.823C277.291,394.953,272.616,383.652,264.126,375.162z     M242.91,417.593c-2.823,2.823-6.591,4.377-10.607,4.377c-4.018,0-7.784-1.554-10.606-4.377c-0.001,0-0.001,0-0.001,0    c-2.822-2.823-4.377-6.591-4.377-10.608c0-4.017,1.555-7.785,4.378-10.608c2.822-2.822,6.589-4.378,10.606-4.378    c4.017,0,7.784,1.554,10.607,4.378c2.823,2.824,4.377,6.592,4.377,10.609C247.288,411.004,245.733,414.771,242.91,417.593z"/>
	</g>
</g>
<g>
	<g>
		<path d="M495.381,0.089c-0.013,0.001-0.027,0.001-0.041,0.002l-22.248,2.472c-49.501,5.501-97.007,28.773-133.766,65.532    c-4.099,4.099,8.582-8.476-150.166,148.791c-6.72-8.968-14.902-16.923-24.237-23.501c-36.016-25.381-86.024-24.85-121.614,1.292    c-25.15,18.474-40.837,46.714-43.04,77.48c-2.204,30.784,9.155,60.84,31.166,82.461c19.093,18.754,44.464,28.939,71.846,28.938    c8.953,0,18.214-1.081,27.461-3.417c-2.272,8.656-3.451,17.66-3.451,26.847c0,28.05,10.923,54.42,30.757,74.254    c19.815,19.815,46.45,30.76,74.214,30.759c3.054,0,6.127-0.133,9.201-0.401c30.999-2.701,59.171-19.07,77.29-44.91    c24.7-35.223,24.651-84.395-0.117-119.576c-6.52-9.26-14.392-17.386-23.264-24.076c61.943-60.501,73.899-72.734,150.029-148.863    c35.549-35.549,58.289-83.587,64.032-135.266l2.472-22.248C512.977,7.039,504.798-0.926,495.381,0.089z M52.462,333.214    c-15.725-15.446-23.839-36.919-22.265-58.914c1.597-22.3,12.561-41.99,30.874-55.442c24.942-18.32,61.346-18.721,86.569-0.947    c11.015,7.762,19.451,17.667,25.075,29.44c2.094,4.382,6.181,7.481,10.966,8.313c4.778,0.831,9.676-0.703,13.128-4.122    l105.355-104.372v24.307c0,11.19-4.044,22.686-23.711,42.353L161.351,329.432C130.546,360.237,81.699,361.933,52.462,333.214z     M387.482,104.799c-13.935,13.952-21.723,32.494-21.93,52.214l-0.387,36.795c-0.125,11.842-4.774,22.944-13.093,31.263    c-34.49,34.49-90.858,89.375-91.423,89.925c-7.469,7.271-5.418,19.788,3.997,24.285c11.784,5.63,21.695,14.074,29.458,25.102    c17.624,25.034,17.659,60.018,0.086,85.079c-13.208,18.836-32.858,30.287-55.33,32.245c-22.166,1.931-43.884-5.973-59.595-21.684    c-14.167-14.167-21.969-33.003-21.969-53.038c0-20.035,7.802-38.871,21.969-53.039c4.057-4.058,76.219-75.284,120.333-118.833    c22.827-22.827,32.567-41.859,32.567-63.638v-35.151c0-12.021,4.681-23.322,13.182-31.823    c20.073-20.074,51.781-54.921,109.871-68.468L387.482,104.799z M424.186,152.956l-28.891,28.891l0.258-24.519    c0.125-11.842,4.805-22.975,13.179-31.349c0.026-0.027,0.054-0.053,0.08-0.08l67.075-68.092    C467.724,94.148,449.798,127.345,424.186,152.956z"/>
	</g>
</g>
<g>
</g>
<g>
</g>
<g>
</g>
<g>
</g>
<g>
</g>
<g>
</g>
<g>
</g>
<g>
</g>
<g>
</g>
<g>
</g>
<g>
</g>
<g>
</g>
<g>
</g>
<g>
</g>
<g>
</g>
</svg>
