<?xml version="1.0" encoding="iso-8859-1"?>
<!-- Generator: Adobe Illustrator 19.0.0, SVG Export Plug-In . SVG Version: 6.00 Build 0)  -->
<svg xmlns="http://www.w3.org/2000/svg" xmlns:xlink="http://www.w3.org/1999/xlink" version="1.1" id="Capa_1" x="0px" y="0px" viewBox="0 0 512 512" style="enable-background:new 0 0 512 512;" xml:space="preserve">
<g>
	<g>
		<path d="M510.603,152.826l-31.592-68.061c-0.024-0.053-0.049-0.105-0.074-0.158c-12.403-25.922-39.606-38.108-65.2-33.371    L393.914,8.727c-3.499-7.504-12.421-10.752-19.924-7.251c-7.505,3.499-10.752,12.42-7.252,19.924l19.828,42.521    c-20.646,17.049-28.027,46.498-16.138,71.699l4.858,10.336l-125.752,49.49c-0.085,0.034-0.17,0.068-0.255,0.103    c-20.076,8.329-38.048,20.345-53.416,35.714L68,359.124c-7.831,7.83-10.408,18.948-7.749,28.952L36.195,412.13    c-5.664,5.663-8.783,13.193-8.783,21.202c0,8.009,3.119,15.539,8.783,21.202L4.391,486.339c-5.855,5.855-5.855,15.347,0,21.202    c5.854,5.854,15.347,5.856,21.202,0l31.804-31.804c5.845,5.845,13.524,8.769,21.202,8.769c7.679,0,15.357-2.923,21.202-8.769    l24.055-24.055c2.536,0.674,5.141,1.019,7.749,1.019c7.678,0,15.357-2.923,21.202-8.769l140.488-140.487    c5.004-5.004,10.447-9.649,16.18-13.809l113.636-79.306l80.254-37.619C510.845,169.208,514.079,160.316,510.603,152.826z     M78.615,454.548c0,0-0.005-0.004-0.014-0.013c-1.566-1.566,4.575,4.575-21.202-21.202l21.202-21.202    c7.828,7.828,13.355,13.355,21.207,21.207L78.615,454.548z M131.608,422.732l-42.406-42.405l127.716-127.715l42.406,42.406    L131.608,422.732z M280.845,274.133l-40.379-40.379c6.388-4.029,13.124-7.524,20.182-10.46l127.318-50.107l8.755,18.999    C283.367,271.296,290.445,265.832,280.845,274.133z M422.887,177.323l-13.615-29.547c-0.016-0.034-0.031-0.069-0.048-0.103    l-11.669-24.827c-7.023-14.89-0.536-32.76,14.441-39.825c14.128-6.638,32.185-1.489,39.856,14.454l25.264,54.429L422.887,177.323z    "/>
	</g>
</g>
<g>
</g>
<g>
</g>
<g>
</g>
<g>
</g>
<g>
</g>
<g>
</g>
<g>
</g>
<g>
</g>
<g>
</g>
<g>
</g>
<g>
</g>
<g>
</g>
<g>
</g>
<g>
</g>
<g>
</g>
</svg>
