<?xml version="1.0" encoding="iso-8859-1"?>
<!-- Generator: Adobe Illustrator 19.0.0, SVG Export Plug-In . SVG Version: 6.00 Build 0)  -->
<svg xmlns="http://www.w3.org/2000/svg" xmlns:xlink="http://www.w3.org/1999/xlink" version="1.1" id="Capa_1" x="0px" y="0px" viewBox="0 0 512 512" style="enable-background:new 0 0 512 512;" xml:space="preserve">
<g>
	<g>
		<path d="M498.851,101.003c-13.815-13.816-34.458-16.736-51.168-8.775L377.88,22.425c-5.852-5.853-15.343-5.853-21.196,0    L229.503,149.605c-5.841,5.841-5.868,15.328,0,21.196l65.47,65.47c-0.198,0.008-0.391,0.029-0.593,0.029    c-37.763,0-68.934-3.95-94.681,16.976c-6.845,5.17-169.607,128.109-176.675,133.448c-26.537,19.211-32.417,62.747-5.521,89.644    c23.485,23.485,61.35,23.436,84.768,0.018l146.323-145.823c2.953-2.953,6.618-4.512,10.598-4.512    c37.216,0,73.517,4.685,108.876-30.674L498.85,164.593C516.383,147.061,516.383,118.535,498.851,101.003z M367.281,54.22    l57.382,57.381l-21.196,21.196l-57.382-57.382L367.281,54.22z M324.887,96.613l57.382,57.382l-21.196,21.196l-57.382-57.382    L324.887,96.613z M261.297,160.204l21.197-21.197l57.381,57.382l-21.196,21.196L261.297,160.204z M81.094,455.17    c-11.688,11.687-30.705,11.688-42.394,0c-14.001-14.001-9.533-35.996,1.931-44.187c0.249-0.178,42.377-32.002,42.621-32.186    c17.019,7.218,29.814,21.944,34.559,39.782L81.094,455.17z M477.655,143.396L346.872,274.18    c-43.191,43.191-87.616,3.33-119.455,35.168L141.08,395.39c-7.031-14.756-17.981-27.358-31.618-36.389l108.531-81.976    c0.16-0.121,0.317-0.245,0.472-0.372c29.697-24.36,78.466,5.078,107.211-23.67c2.174-2.174,85.648-85.648,88.389-88.389    l0.001-0.001l0.001-0.001l42.392-42.392c5.8-5.8,15.375-5.821,21.196,0C483.465,128.01,483.464,137.588,477.655,143.396z"/>
	</g>
</g>
<g>
</g>
<g>
</g>
<g>
</g>
<g>
</g>
<g>
</g>
<g>
</g>
<g>
</g>
<g>
</g>
<g>
</g>
<g>
</g>
<g>
</g>
<g>
</g>
<g>
</g>
<g>
</g>
<g>
</g>
</svg>
