<?xml version="1.0" encoding="UTF-8" standalone="no"?>
<!DOCTYPE svg PUBLIC "-//W3C//DTD SVG 1.1//EN"
 "http://www.w3.org/Graphics/SVG/1.1/DTD/svg11.dtd">
<!-- Generated by graphviz version 2.40.1 (20161225.0304)
 -->
<!-- Title: dependencies Pages: 1 -->
<svg width="1574pt" height="211pt"
 viewBox="0.00 0.00 1574.00 211.00" xmlns="http://www.w3.org/2000/svg" xmlns:xlink="http://www.w3.org/1999/xlink">
<g id="graph0" class="graph" transform="scale(1 1) rotate(0) translate(4 207)">
<title>dependencies</title>
<polygon fill="#ffffff" stroke="transparent" points="-4,4 -4,-207 1570,-207 1570,4 -4,4"/>
<text text-anchor="start" x="762.0091" y="-42.4" font-family="sans-serif" font-weight="bold" font-size="14.00" fill="#000000">Legend</text>
<polygon fill="#ffffb3" stroke="transparent" points="549,-10 549,-30 569,-30 569,-10 549,-10"/>
<text text-anchor="start" x="572.629" y="-15.4" font-family="sans-serif" font-size="14.00" fill="#000000"> &#160;Declarations</text>
<polygon fill="#8dd3c7" stroke="transparent" points="662,-10 662,-30 682,-30 682,-10 662,-10"/>
<text text-anchor="start" x="685.7251" y="-15.4" font-family="sans-serif" font-size="14.00" fill="#000000"> &#160;Module</text>
<polygon fill="#80b1d3" stroke="transparent" points="748,-10 748,-30 768,-30 768,-10 748,-10"/>
<text text-anchor="start" x="771.7812" y="-15.4" font-family="sans-serif" font-size="14.00" fill="#000000"> &#160;Bootstrap</text>
<polygon fill="#fdb462" stroke="transparent" points="845,-10 845,-30 865,-30 865,-10 845,-10"/>
<text text-anchor="start" x="868.6732" y="-15.4" font-family="sans-serif" font-size="14.00" fill="#000000"> &#160;Providers</text>
<polygon fill="#fb8072" stroke="transparent" points="941,-10 941,-30 961,-30 961,-10 941,-10"/>
<text text-anchor="start" x="964.7258" y="-15.4" font-family="sans-serif" font-size="14.00" fill="#000000"> &#160;Exports</text>
<g id="clust1" class="cluster">
<title>cluster_ReceptionModule</title>
<polygon fill="none" stroke="#000000" stroke-dasharray="1,5" points="8,-70 8,-195 1558,-195 1558,-70 8,-70"/>
</g>
<g id="clust2" class="cluster">
<title>cluster_ReceptionModule_declarations</title>
<polygon fill="none" stroke="#000000" points="1019,-78 1019,-130 1550,-130 1550,-78 1019,-78"/>
</g>
<g id="clust6" class="cluster">
<title>cluster_ReceptionModule_imports</title>
<polygon fill="none" stroke="#000000" points="717,-78 717,-130 1011,-130 1011,-78 717,-78"/>
</g>
<g id="clust9" class="cluster">
<title>cluster_ReceptionModule_providers</title>
<polygon fill="none" stroke="#000000" points="16,-78 16,-130 709,-130 709,-78 16,-78"/>
</g>
<!-- ReceptionComponent -->
<g id="node1" class="node">
<title>ReceptionComponent</title>
<polygon fill="#ffffb3" stroke="#000000" points="1542.094,-122 1403.906,-122 1403.906,-86 1542.094,-86 1542.094,-122"/>
<text text-anchor="middle" x="1473" y="-99.8" font-family="Times,serif" font-size="14.00" fill="#000000">ReceptionComponent</text>
</g>
<!-- ReceptionModule -->
<g id="node4" class="node">
<title>ReceptionModule</title>
<polygon fill="#8dd3c7" stroke="#000000" points="938.3118,-187 935.3118,-191 914.3118,-191 911.3118,-187 821.6882,-187 821.6882,-151 938.3118,-151 938.3118,-187"/>
<text text-anchor="middle" x="880" y="-164.8" font-family="Times,serif" font-size="14.00" fill="#000000">ReceptionModule</text>
</g>
<!-- ReceptionComponent&#45;&gt;ReceptionModule -->
<g id="edge1" class="edge">
<title>ReceptionComponent&#45;&gt;ReceptionModule</title>
<path fill="none" stroke="#000000" d="M1473,-122.2921C1473,-144.2057 1473,-178 1473,-178 1473,-178 948.2103,-178 948.2103,-178"/>
<polygon fill="#000000" stroke="#000000" points="948.2103,-174.5001 938.2103,-178 948.2102,-181.5001 948.2103,-174.5001"/>
</g>
<!-- AppointmentFormComponent -->
<g id="node2" class="node">
<title>AppointmentFormComponent</title>
<polygon fill="#ffffb3" stroke="#000000" points="1385.5503,-122 1200.4497,-122 1200.4497,-86 1385.5503,-86 1385.5503,-122"/>
<text text-anchor="middle" x="1293" y="-99.8" font-family="Times,serif" font-size="14.00" fill="#000000">AppointmentFormComponent</text>
</g>
<!-- AppointmentFormComponent&#45;&gt;ReceptionModule -->
<g id="edge2" class="edge">
<title>AppointmentFormComponent&#45;&gt;ReceptionModule</title>
<path fill="none" stroke="#000000" d="M1293,-122.1061C1293,-141.3391 1293,-169 1293,-169 1293,-169 948.2969,-169 948.2969,-169"/>
<polygon fill="#000000" stroke="#000000" points="948.2969,-165.5001 938.2969,-169 948.2968,-172.5001 948.2969,-165.5001"/>
</g>
<!-- AppointmentComponent -->
<g id="node3" class="node">
<title>AppointmentComponent</title>
<polygon fill="#ffffb3" stroke="#000000" points="1182.7162,-122 1027.2838,-122 1027.2838,-86 1182.7162,-86 1182.7162,-122"/>
<text text-anchor="middle" x="1105" y="-99.8" font-family="Times,serif" font-size="14.00" fill="#000000">AppointmentComponent</text>
</g>
<!-- AppointmentComponent&#45;&gt;ReceptionModule -->
<g id="edge3" class="edge">
<title>AppointmentComponent&#45;&gt;ReceptionModule</title>
<path fill="none" stroke="#000000" d="M1105,-122.027C1105,-138.3976 1105,-160 1105,-160 1105,-160 948.2357,-160 948.2357,-160"/>
<polygon fill="#000000" stroke="#000000" points="948.2357,-156.5001 938.2357,-160 948.2357,-163.5001 948.2357,-156.5001"/>
</g>
<!-- SharedModule -->
<g id="node5" class="node">
<title>SharedModule</title>
<polygon fill="#8dd3c7" stroke="#000000" points="1003.4231,-122 1000.4231,-126 979.4231,-126 976.4231,-122 904.5769,-122 904.5769,-86 1003.4231,-86 1003.4231,-122"/>
<text text-anchor="middle" x="954" y="-99.8" font-family="Times,serif" font-size="14.00" fill="#000000">SharedModule</text>
</g>
<!-- SharedModule&#45;&gt;ReceptionModule -->
<g id="edge4" class="edge">
<title>SharedModule&#45;&gt;ReceptionModule</title>
<path fill="none" stroke="#000000" d="M921.4723,-122.1061C921.4723,-122.1061 921.4723,-140.991 921.4723,-140.991"/>
<polygon fill="#000000" stroke="#000000" points="917.9724,-140.9909 921.4723,-150.991 924.9724,-140.991 917.9724,-140.9909"/>
</g>
<!-- ReceptionRoutingModule -->
<g id="node6" class="node">
<title>ReceptionRoutingModule</title>
<polygon fill="#8dd3c7" stroke="#000000" points="886.9298,-122 883.9298,-126 862.9298,-126 859.9298,-122 725.0702,-122 725.0702,-86 886.9298,-86 886.9298,-122"/>
<text text-anchor="middle" x="806" y="-99.8" font-family="Times,serif" font-size="14.00" fill="#000000">ReceptionRoutingModule</text>
</g>
<!-- ReceptionRoutingModule&#45;&gt;ReceptionModule -->
<g id="edge5" class="edge">
<title>ReceptionRoutingModule&#45;&gt;ReceptionModule</title>
<path fill="none" stroke="#000000" d="M854.2795,-122.1061C854.2795,-122.1061 854.2795,-140.991 854.2795,-140.991"/>
<polygon fill="#000000" stroke="#000000" points="850.7795,-140.9909 854.2795,-150.991 857.7795,-140.991 850.7795,-140.9909"/>
</g>
<!-- AppointmentService -->
<g id="node7" class="node">
<title>AppointmentService</title>
<ellipse fill="#fdb462" stroke="#000000" cx="610" cy="-104" rx="90.9109" ry="18"/>
<text text-anchor="middle" x="610" y="-99.8" font-family="Times,serif" font-size="14.00" fill="#000000">AppointmentService</text>
</g>
<!-- AppointmentService&#45;&gt;ReceptionModule -->
<g id="edge6" class="edge">
<title>AppointmentService&#45;&gt;ReceptionModule</title>
<path fill="none" stroke="#000000" d="M610,-122.027C610,-138.3976 610,-160 610,-160 610,-160 811.7464,-160 811.7464,-160"/>
<polygon fill="#000000" stroke="#000000" points="811.7465,-163.5001 821.7464,-160 811.7464,-156.5001 811.7465,-163.5001"/>
</g>
<!-- AppointmentStatusService -->
<g id="node8" class="node">
<title>AppointmentStatusService</title>
<ellipse fill="#fdb462" stroke="#000000" cx="386" cy="-104" rx="114.6237" ry="18"/>
<text text-anchor="middle" x="386" y="-99.8" font-family="Times,serif" font-size="14.00" fill="#000000">AppointmentStatusService</text>
</g>
<!-- AppointmentStatusService&#45;&gt;ReceptionModule -->
<g id="edge7" class="edge">
<title>AppointmentStatusService&#45;&gt;ReceptionModule</title>
<path fill="none" stroke="#000000" d="M386,-122.1061C386,-141.3391 386,-169 386,-169 386,-169 811.3918,-169 811.3918,-169"/>
<polygon fill="#000000" stroke="#000000" points="811.3918,-172.5001 821.3918,-169 811.3918,-165.5001 811.3918,-172.5001"/>
</g>
<!-- AppointmentHoursService -->
<g id="node9" class="node">
<title>AppointmentHoursService</title>
<ellipse fill="#fdb462" stroke="#000000" cx="139" cy="-104" rx="114.6083" ry="18"/>
<text text-anchor="middle" x="139" y="-99.8" font-family="Times,serif" font-size="14.00" fill="#000000">AppointmentHoursService</text>
</g>
<!-- AppointmentHoursService&#45;&gt;ReceptionModule -->
<g id="edge8" class="edge">
<title>AppointmentHoursService&#45;&gt;ReceptionModule</title>
<path fill="none" stroke="#000000" d="M139,-122.2921C139,-144.2057 139,-178 139,-178 139,-178 811.5456,-178 811.5456,-178"/>
<polygon fill="#000000" stroke="#000000" points="811.5457,-181.5001 821.5456,-178 811.5456,-174.5001 811.5457,-181.5001"/>
</g>
</g>
</svg>
