<?xml version="1.0" encoding="iso-8859-1"?>
<!-- Generator: Adobe Illustrator 16.0.0, SVG Export Plug-In . SVG Version: 6.00 Build 0)  -->
<!DOCTYPE svg PUBLIC "-//W3C//DTD SVG 1.1//EN" "http://www.w3.org/Graphics/SVG/1.1/DTD/svg11.dtd">
<svg version="1.1" id="Capa_1" xmlns="http://www.w3.org/2000/svg" xmlns:xlink="http://www.w3.org/1999/xlink" x="0px" y="0px"
	 width="380.379px" height="380.379px" viewBox="0 0 380.379 380.379" style="enable-background:new 0 0 380.379 380.379;"
	 xml:space="preserve">
<g>
	<circle cx="251.245" cy="230.947" r="21.652"/>
	<circle cx="216.21" cy="270.503" r="14.173"/>
	<path d="M243.991,73.83c0,0-4.075-1.678-4.075-6.357c0-5.927,0-21.657,0-21.657C239.916,11.074,212.311,0,190.19,0
		c-22.12,0-49.727,11.291-49.727,45.816c0,0,0,15.424,0,20.565c0,4.601-2.872,6.979-4.711,7.906
		c-11.267,5.674-14.152,6.3-23.127,12.928c-26.089,19.267-39.879,48.848-39.879,85.543v188.905c0,10.319,8.396,18.716,18.717,18.716
		h197.451c10.321,0,18.718-8.396,18.718-18.716V172.759C307.633,116.667,275.757,85.252,243.991,73.83z M190.191,84.326
		c16.172,0,96.854,4.264,96.854,88.433c0,0,0.724,6.431-5.026,6.431H97.52c-5,0-4.184-6.431-4.184-6.431
		C93.335,88.59,174.018,84.326,190.191,84.326z M281.527,359.791c-45.62,0-133.901,0-180.921,0c-5.381,0-7.271-2.01-7.271-6.846
		c0-26.014,0-102.473,0-146.99c0-1.633-0.316-4.766,4.684-4.766h184.625c4.375,0,4.401,2.481,4.401,3.767c0,44.2,0,121.162,0,147.21
		C287.045,356.689,285.426,359.791,281.527,359.791z"/>
</g>
<g>
</g>
<g>
</g>
<g>
</g>
<g>
</g>
<g>
</g>
<g>
</g>
<g>
</g>
<g>
</g>
<g>
</g>
<g>
</g>
<g>
</g>
<g>
</g>
<g>
</g>
<g>
</g>
<g>
</g>
</svg>
