<?xml version="1.0" encoding="iso-8859-1"?>
<!-- Generator: Adobe Illustrator 19.0.0, SVG Export Plug-In . SVG Version: 6.00 Build 0)  -->
<svg xmlns="http://www.w3.org/2000/svg" xmlns:xlink="http://www.w3.org/1999/xlink" version="1.1" id="Layer_1" x="0px" y="0px" viewBox="0 0 512.001 512.001" style="enable-background:new 0 0 512.001 512.001;" xml:space="preserve">
<path style="fill:#579ADF;" d="M492.787,250.465c25.618,25.619,25.616,67.163,0,92.779l-141.04,141.043  c-25.617,25.618-67.16,25.619-92.78-0.003c-25.62-25.618-25.618-67.16,0-92.776l141.041-141.042  C425.624,224.849,467.167,224.847,492.787,250.465z"/>
<path style="fill:#3E83C1;" d="M273.901,407.017l141.041-141.042c23.318-23.318,59.831-25.402,85.52-6.269  c-23.431-34.023-71.632-38.063-100.455-9.241L258.965,391.508c-28.202,28.201-24.997,75.021,7.263,99.047  C248.625,464.998,251.173,429.745,273.901,407.017z"/>
<path style="fill:#64B573;" d="M492.787,250.465c-25.619-25.618-67.163-25.616-92.78,0l-68.061,68.062  c52.654,52.653,73.073,73.074,92.779,92.779l68.062-68.062C518.404,317.629,518.405,276.086,492.787,250.465z"/>
<path style="fill:#52A05D;" d="M347.168,333.75l67.773-67.774c23.318-23.318,59.831-25.402,85.52-6.269  c-23.452-34.022-71.631-38.064-100.455-9.241l-68.061,68.062L347.168,333.75z"/>
<path style="fill:#72C17E;" d="M400.006,250.465l-33.232,33.232c29.124,33.867,66.519,60.408,109.048,76.513l16.966-16.966  c25.616-25.616,25.618-67.16,0-92.779C467.167,224.847,425.624,224.849,400.006,250.465z"/>
<path style="fill:#5BA862;" d="M381.46,299.457l33.481-33.481c23.318-23.318,59.831-25.402,85.52-6.269  c-23.452-34.022-71.631-38.064-100.455-9.241l-33.232,33.232C371.458,289.145,376.362,294.401,381.46,299.457z"/>
<path style="fill:#64B573;" d="M399.739,108.01c0,54.96-44.553,99.511-99.511,99.511c-54.961,0-99.514-44.552-99.514-99.511  c0-54.961,44.553-99.511,99.514-99.511C355.187,8.5,399.739,53.05,399.739,108.01z"/>
<path style="fill:#72C17E;" d="M319.875,10.442c-24.268,62.48-24.319,132.521-0.001,195.137  c45.549-9.122,79.865-49.335,79.865-97.567C399.739,59.776,365.422,19.564,319.875,10.442z"/>
<path style="fill:#4B9B56;" d="M363.125,134.155h33.137c4.528-16.67,4.745-34.822,0-52.288H204.191  c-4.634,17.059-4.643,35.19,0,52.288h132.152"/>
<path style="fill:#5BAA62;" d="M302.93,81.867c-1.631,16.926-1.745,34.17-0.001,52.288c11.294,0,82.909,0,93.333,0  c4.528-16.67,4.745-34.822,0-52.288H302.93z"/>
<circle style="fill:#64B573;" cx="99.518" cy="296.492" r="99.517"/>
<g>
	<path style="fill:#52A05D;" d="M49.748,226.128c16.808-16.808,38.132-26.33,60.065-28.601   c-28.782-2.978-58.612,6.546-80.667,28.601c-38.861,38.863-38.863,101.87,0,140.733c22.054,22.054,51.885,31.577,80.666,28.6   C27.031,386.896-9.598,285.477,49.748,226.128z"/>
	<path style="fill:#52A05D;" d="M250.461,178.364C191.14,119.044,227.714,17.6,310.527,9.031   c-28.781-2.978-58.612,6.545-80.667,28.601c-38.861,38.862-38.863,101.87,0,140.732c22.054,22.055,51.885,31.577,80.667,28.601   C288.593,204.696,267.268,195.172,250.461,178.364z"/>
</g>
<path style="fill:#3A8240;" d="M224.825,134.155c-4.641-17.103-4.643-35.187-0.006-52.288h-20.601  c-4.568,16.869-4.805,34.456,0.006,52.288H224.825z"/>
<path style="fill:#4B9B56;" d="M50.091,210.1c-15.833,9.073-28.462,22.107-36.971,36.975  c26.452,26.452,109.392,109.391,135.813,135.812c15.369-8.803,28.179-21.624,36.971-36.969L50.091,210.1z"/>
<path style="fill:#3A8240;" d="M13.132,247.085l13.991,13.991c6.261-16.468,16.818-31.178,31.299-42.647l-8.327-8.327  C34.002,219.451,21.816,231.924,13.132,247.085z"/>
<g>
</g>
<g>
</g>
<g>
</g>
<g>
</g>
<g>
</g>
<g>
</g>
<g>
</g>
<g>
</g>
<g>
</g>
<g>
</g>
<g>
</g>
<g>
</g>
<g>
</g>
<g>
</g>
<g>
</g>
</svg>
