<?xml version="1.0" encoding="iso-8859-1"?>
<!-- Generator: Adobe Illustrator 19.0.0, SVG Export Plug-In . SVG Version: 6.00 Build 0)  -->
<svg xmlns="http://www.w3.org/2000/svg" xmlns:xlink="http://www.w3.org/1999/xlink" version="1.1" id="Layer_1" x="0px" y="0px" viewBox="0 0 511.999 511.999" style="enable-background:new 0 0 511.999 511.999;" xml:space="preserve">
<path style="fill:#B0DCF7;" d="M320.375,299.654c13.677-45.598,4.801-97.213-29.27-127.919c-2.296,2.617-5.654,4.276-9.408,4.276  c-244.79,0-228.479,0.464-231.939-1.069c4.441,5.019,7.143,11.614,7.143,18.844c0,20.073-20.322,33.905-39.028,26.41  c-17.76,58.568,8.678,124.232,55.562,156.731c-12.628,97.47,48.943,181.227,48.943,100.791c0-28.288,5.985-60.154,32.988-68.481  c1.071,0,12.004-4.875,28.199-0.003c0,0,0.009,0.003,0.011,0.003c26.766,8.191,32.989,40.499,32.989,68.481  c0,80.436,61.573-3.321,48.946-100.791c18.57-12.874,34.666-31.347,45.787-54.096"/>
<path style="fill:#7AC1DD;" d="M92.602,375.338c0.423-6.227-2.202-10.604-4.818-12.074l0.021-0.013  c-39.392-30.616-64.09-87.169-52.626-141.822c-5.796,1.405-11.814,0.967-17.306-1.233c-17.761,58.568,8.677,124.232,55.561,156.731  c-11.529,88.981,38.781,166.532,47.631,118.164C106.337,480.134,87.925,433.423,92.602,375.338z"/>
<path style="fill:#BBE6FC;" d="M291.104,171.735c-2.296,2.617-5.654,4.276-9.408,4.276h-92.193  c14.833,68.233,55.486,126.824,111.226,165.026C338.124,285.942,334.965,211.264,291.104,171.735z"/>
<path style="fill:#AAE0B3;" d="M42.258,71.11c0,102.515-0.712,96.749,1.869,100.937c2.093,1.386,3.992,3.041,5.648,4.917  c3.516,1.533-12.1,1.046,231.921,1.046c6.914,0,12.522-5.606,12.522-12.521c0-8.883,0-83.141,0-92.91  C33.59,72.579,49.486,73.229,42.258,71.11z"/>
<path style="fill:#B7EABF;" d="M187.569,72.579c-6.218,34.691-5.627,70.645,1.934,105.43h92.193c6.914,0,12.522-5.606,12.522-12.521  c0-8.883,0-83.141,0-92.91C283.951,72.579,198.646,72.579,187.569,72.579z"/>
<circle style="fill:#CDE8F7;" cx="28.451" cy="193.782" r="28.451"/>
<path style="fill:#99CEE0;" d="M38.753,167.268C20.117,160.022,0,173.807,0,193.786c0,19.998,20.13,33.759,38.753,26.519  C14.596,210.912,14.63,176.647,38.753,167.268z"/>
<circle style="fill:#F2F8F9;" cx="161.412" cy="245.645" r="44.758"/>
<path style="fill:#DCEDEF;" d="M138.57,245.647c0-20.939,14.379-38.514,33.801-43.402c-28.237-7.104-55.717,14.217-55.717,43.402  c0,29.128,27.414,50.52,55.717,43.402C152.949,284.16,138.57,266.585,138.57,245.647z"/>
<path style="fill:#CDE8F7;" d="M128.964,216.986c-4.147-8.898-13.168-15.067-23.631-15.067c-14.393,0-26.062,11.669-26.062,26.063  c0,19.868,21.351,32.343,38.614,22.844C116.706,237.926,121.031,225.924,128.964,216.986z"/>
<path style="fill:#99CEE0;" d="M115.11,203.83c-17.145-6.956-35.839,5.723-35.839,24.152c0,18.472,18.743,31.1,35.85,24.156  C93.454,243.351,93.485,212.614,115.11,203.83z"/>
<circle style="fill:#F2F8F9;" cx="254.507" cy="218.16" r="16.241"/>
<g>
	<path style="fill:#D3F4D5;" d="M262.23,178.01v-44.896c0-4.267-3.461-7.727-7.726-7.727c-4.268,0-7.727,3.46-7.727,7.727v44.896   H262.23z"/>
	<path style="fill:#D3F4D5;" d="M222.539,178.01v-73.516c0-4.267-3.459-7.727-7.727-7.727c-4.267,0-7.726,3.459-7.726,7.727v73.516   H222.539z"/>
</g>
<path style="fill:#81C687;" d="M64.644,172.046c-2.589-4.198-1.869,1.342-1.869-99.467c-10.808,0-14.374,0.331-20.516-1.47  c0,102.515-0.712,96.749,1.869,100.937c2.093,1.386,3.992,3.041,5.648,4.917c3.136,1.367,3.198,1.046,25.521,1.046  c-1.78,0-3.469-0.377-5.004-1.046C68.636,175.088,66.737,173.433,64.644,172.046z"/>
<path style="fill:#6DC180;" d="M501.111,2.029c-38.036,0-431.93,0-448.633,0c-20.05,0-36.302,16.254-36.302,36.306  S32.428,74.64,52.478,74.64c4.508,0,444.132,0,448.633,0c6.013,0,10.888-4.876,10.888-10.888V12.918  C512,6.904,507.124,2.029,501.111,2.029z"/>
<path style="fill:#519E5C;" d="M36.693,38.335c0-20.051,16.252-36.306,36.302-36.306H52.478c-20.05,0-36.302,16.254-36.302,36.306  S32.428,74.64,52.478,74.64h20.516C52.945,74.64,36.693,58.386,36.693,38.335z"/>
<path style="fill:#75CC86;" d="M501.111,2.029c-2.775,0-286.78,0-290.432,0c-11.071,22.608-19.068,46.992-23.457,72.611  c4.951,0,302.467,0,313.888,0c6.013,0,10.888-4.876,10.888-10.888V12.918C512,6.904,507.124,2.029,501.111,2.029z"/>
<g>
</g>
<g>
</g>
<g>
</g>
<g>
</g>
<g>
</g>
<g>
</g>
<g>
</g>
<g>
</g>
<g>
</g>
<g>
</g>
<g>
</g>
<g>
</g>
<g>
</g>
<g>
</g>
<g>
</g>
</svg>
