<?xml version="1.0" encoding="iso-8859-1"?>
<!-- Generator: Adobe Illustrator 19.0.0, SVG Export Plug-In . SVG Version: 6.00 Build 0)  -->
<svg xmlns="http://www.w3.org/2000/svg" xmlns:xlink="http://www.w3.org/1999/xlink" version="1.1" id="Layer_1" x="0px" y="0px" viewBox="0 0 511.999 511.999" style="enable-background:new 0 0 511.999 511.999;" xml:space="preserve">
<path style="fill:#DBDADF;" d="M467.997,10.722c-13.608,0-123.11,0-137.617,0c4.464,7.186,4.596,16.441,0,23.835h137.617  c6.58,0,11.915-5.335,11.915-11.917C479.912,16.058,474.577,10.722,467.997,10.722z"/>
<path style="fill:#B8BFC1;" d="M467.997,22.64h-134.22c0,4.262-1.184,8.359-3.397,11.917h137.617c9.166,0,14.9-9.947,10.31-17.876  C476.243,20.24,472.403,22.64,467.997,22.64z"/>
<circle style="fill:#579ADF;" cx="313.225" cy="22.642" r="22.616"/>
<path style="fill:#3E83C1;" d="M324.538,3.057c-15.001-8.681-33.924,2.152-33.924,19.585c0,17.455,18.945,28.254,33.924,19.581  C309.474,33.506,309.474,11.775,324.538,3.057z"/>
<path style="fill:#DBDADF;" d="M312.762,54.36L284.426,23.76c-12.802-13.829-34.39-14.659-48.219-1.855l-3.566,3.302  c-5.068,4.701-5.369,12.62-0.672,17.693l57.681,62.294c4.699,5.076,12.626,5.382,17.699,0.681l3.558-3.294  C324.738,89.777,325.567,68.19,312.762,54.36z"/>
<path style="fill:#B8BFC1;" d="M249.52,37.039c11.028-10.212,26.358-12.855,39.615-8.193l-4.71-5.086  c-12.802-13.829-34.39-14.659-48.219-1.855l-3.566,3.302c-5.068,4.701-5.369,12.62-0.672,17.693l8.923,9.638  C240.243,44.556,245.416,40.839,249.52,37.039z"/>
<path style="fill:#DBDADF;" d="M344.642,470.062v-10.308c0-7.47-6.056-13.525-13.527-13.525h-93  c-7.472,0-13.527,6.057-13.527,13.525v10.308H344.642z"/>
<path style="fill:#D6D6D8;" d="M226.975,340.822c20.692,51.891,94.502,51.57,114.988,0H226.975z"/>
<path style="fill:#C7C7C9;" d="M227.07,341.049c0.251,0.622,0.51,1.235,0.776,1.842c0.244,0.551,0.493,1.1,0.753,1.642  c0.061,0.129,0.119,0.258,0.181,0.386c12.216,25.075,39.366,39.047,67.897,33.519c-20.485-4.241-37.258-18.598-44.881-37.615H226.98  C227.009,340.898,227.04,340.973,227.07,341.049z"/>
<path style="fill:#579ADF;" d="M70.456,178.214c-5.641,0-11.263-2.27-15.38-6.753l-17.491-19.04  c-7.801-8.491-7.241-21.697,1.253-29.497c8.489-7.801,21.695-7.242,29.495,1.25l17.491,19.041  C98.132,156.612,88.516,178.214,70.456,178.214z"/>
<path style="fill:#3E83C1;" d="M72.061,161.08l-18.917-20.59c-5.784-6.296-7.313-14.987-4.748-22.55  c-15.658,3.494-21.662,22.67-10.812,34.479l17.491,19.04c9.233,10.052,25.689,8.764,33.085-3.104  C82.241,168.219,76.382,165.787,72.061,161.08z"/>
<path style="fill:#579ADF;" d="M341.697,244.12v-10.308c0-7.47-6.057-13.526-13.525-13.526H235.17  c-7.471,0-13.526,6.058-13.526,13.526v10.308H341.697z"/>
<path style="fill:#3E83C1;" d="M255.858,220.286h-20.687c-7.471,0-13.526,6.058-13.526,13.526v10.308h20.687v-10.308  C242.33,226.343,248.387,220.286,255.858,220.286z"/>
<path style="fill:#DBDADF;" d="M464.531,403.146c-79.662-89.724-12.344-13.867-84.977-95.471c-3.964-4.454-9.653-6.984-15.604-6.998  l-132.717,0.065l-99.961-110.229c-7.743-8.541-20.945-9.187-29.489-1.44c-8.541,7.745-9.185,20.948-1.439,29.489l106.18,117.086  c3.958,4.366,9.581,6.851,15.474,6.853l132.6-0.064l78.744,88.471c4.093,4.598,9.76,6.959,15.467,6.996  C466.686,438.017,476.614,416.724,464.531,403.146z"/>
<path style="fill:#B8BFC1;" d="M443.31,411.636l-78.742-88.471l-132.602,0.065c-5.891-0.003-11.513-2.488-15.473-6.853  l-106.18-117.087c-3.278-3.615-5.035-8.066-5.346-12.583c-11.329,6.911-13.341,22.242-4.622,31.857l106.18,117.086  c3.958,4.366,9.581,6.851,15.474,6.853l132.6-0.064l78.744,88.471c13.085,14.7,37.765,4.648,36.401-15.314  C461.255,420.767,450.095,419.259,443.31,411.636z"/>
<path style="fill:#C7C7C9;" d="M258.802,446.229h-20.687c-7.472,0-13.527,6.057-13.527,13.525v10.308h20.687v-10.308  C245.274,452.286,251.33,446.229,258.802,446.229z"/>
<path style="fill:#B8BFC1;" d="M225.456,306.318l-47.477-51.686c-4.006-4.362-2.405-13.102,7.198-13.101l158.663,0.006  c11.184,0.001,20.283,9.1,20.282,20.284l-0.001,38.39c0,4.265-3.443,8.589-7.705,8.618H231.222  C228.913,308.828,226.88,307.869,225.456,306.318z M201.267,257.046l33.29,36.243h114.051l0.001-31.47  c0-2.63-2.139-4.769-4.768-4.769L201.267,257.046z"/>
<path style="fill:#B7B7B7;" d="M284.461,371.974c-4.285,0-7.759,3.474-7.759,7.759c0,5.704,0,51.166,0,58.521v7.758  c0,4.285,3.474,7.759,7.759,7.759c4.283,0,7.758-3.474,7.758-7.759v-7.758c0-8.003,0-52.877,0-58.521  C292.218,375.447,288.743,371.974,284.461,371.974z"/>
<path style="fill:#CCCCCC;" d="M94.658,195.483l-15.798-17.197c-2.899-3.154-2.691-8.063,0.465-10.96  c3.155-2.898,8.063-2.69,10.961,0.466l15.798,17.197c2.897,3.154,2.689,8.063-0.467,10.96  C102.47,198.844,97.558,198.644,94.658,195.483z"/>
<g>
	<path style="fill:#F9C146;" d="M252.109,191.728c-3.865-1.852-5.496-6.483-3.645-10.349l27.086-56.526   c1.851-3.862,6.483-5.496,10.348-3.644c3.863,1.852,5.496,6.484,3.646,10.35l-27.086,56.525   C260.602,191.955,255.961,193.578,252.109,191.728z"/>
	<path style="fill:#F9C146;" d="M152.793,87.107c-2.968,0-5.798-1.711-7.087-4.594c-1.749-3.912,0.004-8.5,3.917-10.249   l57.224-25.576c3.909-1.745,8.499,0.006,10.247,3.917c1.749,3.912-0.004,8.501-3.918,10.249l-57.222,25.577   C154.927,86.89,153.85,87.107,152.793,87.107z"/>
</g>
<path style="fill:#B0DCF7;" d="M351.766,469.028H217.461c-6.917,0-12.524,5.608-12.524,12.525v17.919  c0,6.92,5.608,12.526,12.524,12.526c4.371,0,128.469,0,134.306,0c6.92,0,12.525-5.607,12.525-12.526v-17.919  C364.292,474.636,358.686,469.028,351.766,469.028z"/>
<path style="fill:#7AC1DD;" d="M225.622,499.473v-17.919c0-6.918,5.608-12.525,12.525-12.525H217.46  c-6.917,0-12.524,5.608-12.524,12.525v17.919c0,6.92,5.608,12.526,12.524,12.526h20.688  C231.231,512,225.622,506.392,225.622,499.473z"/>
<g>
</g>
<g>
</g>
<g>
</g>
<g>
</g>
<g>
</g>
<g>
</g>
<g>
</g>
<g>
</g>
<g>
</g>
<g>
</g>
<g>
</g>
<g>
</g>
<g>
</g>
<g>
</g>
<g>
</g>
</svg>
