<?xml version="1.0" encoding="iso-8859-1"?>
<!-- Generator: Adobe Illustrator 19.0.0, SVG Export Plug-In . SVG Version: 6.00 Build 0)  -->
<svg xmlns="http://www.w3.org/2000/svg" xmlns:xlink="http://www.w3.org/1999/xlink" version="1.1" id="Layer_1" x="0px" y="0px" viewBox="0 0 512 512" style="enable-background:new 0 0 512 512;" xml:space="preserve">
<path style="fill:#A58659;" d="M357.052,501.984c0,0,1.075,9.978,11.118,9.978h44.038c0,0,9.475-0.005,8.364-9.696  c-4.024-35.397-15.309-69.753-28.148-92.435l-0.014,0.022c-13.468-25.976-30.858-49.247-51.146-69.634  c-3.546,22.895-15.957,42.854-33.612,56.278c27.086,31.155,43.641,66.546,49.394,105.492L357.052,501.984z"/>
<path style="fill:#91714D;" d="M387.476,499.93l-0.009,0.006c-6.891-46.638-26.561-89.071-58.684-126.508  c-5.621,8.892-12.779,16.718-21.131,23.069c27.086,31.155,43.641,66.546,49.394,105.492l0.006-0.004c0,0,1.075,9.978,11.118,9.978  H399.5C388.681,511.036,387.476,499.93,387.476,499.93z"/>
<path style="fill:#A58659;" d="M214.322,251.018c-51.797-33.214-67.256-85.758-71.291-122.762c0,0-1.085-12.674-9.373-14.234  c-8.336-1.568-11.813,6.283-11.813,6.283c-49.337,102.736,24.136,173.793,48.337,193.516  C174.498,286.748,191.212,263.818,214.322,251.018z"/>
<path style="fill:#91714D;" d="M134.302,114.174c-5.367-1.473-10.48,1.667-12.458,6.131  c-49.337,102.736,24.136,173.793,48.337,193.516c2.146-13.461,7.361-25.897,14.9-36.575  C158.927,253.604,108.772,195.452,134.302,114.174z"/>
<path style="fill:#AA9A79;" d="M390.562,119.275c0,0-3.477-7.852-11.812-6.282c-8.287,1.56-9.374,14.234-9.374,14.234  c-4.035,37.003-19.493,89.548-71.289,122.762c-59.4-35.295-141.768,16.201-128.737,91.728c0-0.004,0-0.007-0.002-0.011  c-43.55,44.452-71.19,99.762-77.941,161.601c-0.588,5.827,2.684,8.657,6.794,8.657h45.84c8.624,0,10.331-5.759,10.66-7.641  c0.025-0.191,0.053-0.384,0.08-0.575l0.002-0.025h0.001c5.467-39.298,21.89-75.003,48.97-106.43  c60.967,44.931,149.501-3.505,138.471-84.499c23.18-18.894,33.051-34.911,43.384-49.829  C406.3,228.488,419.383,179.285,390.562,119.275z M255.689,355.918c-16.138,0-29.221-13.08-29.221-29.219  c0-16.139,13.081-29.22,29.221-29.22c16.138,0,29.22,13.081,29.22,29.22C284.908,342.837,271.826,355.918,255.689,355.918z"/>
<path style="fill:#B5A588;" d="M378.749,112.993c-8.287,1.56-9.374,14.234-9.374,14.234c-4.035,37.003-19.493,89.548-71.289,122.762  c-10.892-6.473-21.715-9.735-34.446-10.652c17.566,40.184,44.643,75.253,78.387,102.371c1.797-10.403,1.575-18.805,0.197-28.916  c23.18-18.894,33.051-34.911,43.384-49.829c20.69-34.474,33.774-83.678,4.953-143.689  C390.562,119.275,387.085,111.423,378.749,112.993z"/>
<circle style="fill:#C6A875;" cx="255.689" cy="326.109" r="53.395"/>
<circle style="fill:#EFD1AC;" cx="255.689" cy="326.699" r="29.222"/>
<path style="fill:#E5C59A;" d="M267.774,300.098c-19.311-8.789-41.305,5.368-41.305,26.601c0,21.251,22.015,35.379,41.305,26.601  C244.971,342.919,244.968,310.478,267.774,300.098z"/>
<path style="fill:#B0DCF7;" d="M286.066,180.507L286.066,180.507c0,0-2.155,0.004-2.156,0.004l0,0  c-7.382-0.051-18.193-2.85-28.221-9.505c-9.891,6.563-20.727,9.453-28.221,9.505c0,0,0,0-0.002,0l0,0  c-14.077,0-25.855-4.371-35.367-14.669c-25.441-27.425-16.636-76.928,15.699-99.437C202.29,23.901,225.082-13.37,230.886,4.76  c2.819,8.457-2.573,39.538,17.771,45.533c2.451,1.195,26.804,6.787,30.082-25.632c0.79-7.046-0.832-27.88,7.884-24.237  c8.643,3.583,21.199,33.231,16.959,65.981C351.549,99.845,340.188,180.011,286.066,180.507z"/>
<path style="fill:#7AC1DD;" d="M227.709,67.45c-0.797-14.975,1.695-28.878,5.39-39.383c-1.634-10.805,0.517-28.006-6.672-28.006  c-8.559,0-23.157,31.403-18.629,66.342c-46.166,32.138-37.269,106.11,10.826,113.552c-30.764-23.823-25.33-74.785,3.781-100.075  C225.602,76.991,227.709,72.63,227.709,67.45z"/>
<path style="fill:#C5E7F9;" d="M303.581,66.405c5.142-39.714-14.714-76.384-22.257-63.664c-3.974,7.494-0.108,19.306-5.142,33.779  c-3.43,9.865-12.232,15.875-22.886,14.711c-12.369,39.749-15.533,82.815-8.34,125.432c3.694-1.486,7.294-3.375,10.729-5.656  c16.095,10.682,30.379,9.501,30.379,9.501C340.633,180.007,351.086,99.522,303.581,66.405z"/>
<path style="fill:#938264;" d="M189.825,384.06l-0.002,0.006c0,0-8.378-8.355-17.522,2.859  c-25.72,33.821-42.193,71.753-48.401,113.784l-0.009-0.007c0,0-0.925,8.526-8.434,11.261c30.844,0,30.95,0.34,34.053-1.032  c4.212-2.872,4.802-8.175,4.802-8.175l0.006,0.004c5.755-38.943,22.309-74.335,49.394-105.491  C198.609,393.388,193.958,388.95,189.825,384.06z"/>
<path style="fill:#C1B39D;" d="M390.562,120.305c0,0-3.477-7.852-11.812-6.283c-0.222,0.042-0.435,0.095-0.646,0.152  c24.029,76.501-18.987,132.509-45.935,158.543c-0.001,0.002-0.001,0.002-0.002,0.003c-3.058,3.056-3.102,7.127-0.938,10.569h-0.002  c5.442,9.227,9.243,19.538,10.997,30.532C366.426,294.099,439.9,223.042,390.562,120.305z"/>
<g>
</g>
<g>
</g>
<g>
</g>
<g>
</g>
<g>
</g>
<g>
</g>
<g>
</g>
<g>
</g>
<g>
</g>
<g>
</g>
<g>
</g>
<g>
</g>
<g>
</g>
<g>
</g>
<g>
</g>
</svg>
