<?xml version="1.0" encoding="iso-8859-1"?>
<!-- Generator: Adobe Illustrator 19.0.0, SVG Export Plug-In . SVG Version: 6.00 Build 0)  -->
<svg xmlns="http://www.w3.org/2000/svg" xmlns:xlink="http://www.w3.org/1999/xlink" version="1.1" id="Layer_1" x="0px" y="0px" viewBox="0 0 511.999 511.999" style="enable-background:new 0 0 511.999 511.999;" xml:space="preserve">
<path style="fill:#64B573;" d="M493.849,25.945h-328.84c-10.008,0-18.152,8.142-18.152,18.152v165.228  c0,2.03,0.997,3.933,2.668,5.087c94.095,65.084,87.947,61.404,90.704,61.404h137.966v68.007c0,5.614,6.922,8.326,10.732,4.196  l66.648-72.203h38.273c10.008,0,18.152-8.142,18.152-18.152V44.097C512,34.087,503.858,25.945,493.849,25.945z"/>
<path style="fill:#449950;" d="M166.557,95.443h0.92V44.097c0-10.01,8.144-18.152,18.152-18.152h-20.619  c-10.008,0-18.152,8.142-18.152,18.152v165.228c0,2.03,0.997,3.933,2.668,5.087l17.033,11.782V95.443H166.557z"/>
<path style="fill:#71C67D;" d="M493.849,25.945H334.04c-21.607,102.523,17.579,208.013,101.618,271.45l19.917-21.578h38.273  c10.008,0,18.152-8.142,18.152-18.152V44.097C512,34.087,503.858,25.945,493.849,25.945z"/>
<path style="fill:#B0DCF7;" d="M170.306,209.216c-2.564-0.125-6.343-0.097-6.201-0.097c-11.238,0.071-27.848,4.329-43.285,14.581  C39.2,169.496-39.737,273.235,22.196,359.218c0.856,1.478,10.365,14.636,25.166,24.919c-9.108,70.293,32.159,131.001,36.975,86.632  c0.822-7.542-0.276-26.593,4.553-39.342c3.983-12.249,12.676-20.165,21.147-22.578l0.006-0.004c6.947-2.096,13.964-2.292,21.554,0  l0.006,0.004c39.353,11.222,14.925,85.219,36.667,76.491c13.253-5.498,32.517-50.967,26.008-101.204  c18.069-12.553,33.104-32.093,41.027-56.135C254.258,270.52,223.945,211.951,170.306,209.216z"/>
<path style="fill:#7AC1DD;" d="M67.253,380.809c0.321-5.291-2.064-9.176-4.556-10.758l0.009-0.004  C12.715,330.471,5.71,247.635,54.559,212.104c-67.518,20.149-72.973,126.338-7.197,172.032  c-9.412,72.638,34.909,134.92,37.326,81.974C74.869,451.468,64.78,421.886,67.253,380.809z"/>
<g>
	<path style="fill:#B3E5BD;" d="M452.756,97.35H203.684c-4.269,0-7.732-3.462-7.732-7.732c0-4.271,3.463-7.733,7.732-7.733h249.072   c4.271,0,7.732,3.462,7.732,7.733C460.488,93.889,457.026,97.35,452.756,97.35z"/>
	<path style="fill:#B3E5BD;" d="M452.756,140.473H203.684c-4.269,0-7.732-3.462-7.732-7.732s3.463-7.732,7.732-7.732h249.072   c4.271,0,7.732,3.462,7.732,7.732S457.026,140.473,452.756,140.473z"/>
	<path style="fill:#B3E5BD;" d="M452.756,183.598H203.684c-4.269,0-7.732-3.462-7.732-7.732c0-4.271,3.463-7.733,7.732-7.733   h249.072c4.271,0,7.732,3.462,7.732,7.733S457.026,183.598,452.756,183.598z"/>
	<path style="fill:#B3E5BD;" d="M452.756,226.723H260.51c-4.269,0-7.732-3.462-7.732-7.733c0-4.27,3.463-7.732,7.732-7.732h192.244   c4.271,0,7.732,3.462,7.732,7.732C460.488,223.261,457.026,226.723,452.756,226.723z"/>
</g>
<path style="fill:#449950;" d="M385.772,275.816h-7.577v68.007c0,5.614,6.922,8.326,10.732,4.196l9.887-10.713v-47.552  C398.815,279.628,391.654,276.599,385.772,275.816z"/>
<g>
</g>
<g>
</g>
<g>
</g>
<g>
</g>
<g>
</g>
<g>
</g>
<g>
</g>
<g>
</g>
<g>
</g>
<g>
</g>
<g>
</g>
<g>
</g>
<g>
</g>
<g>
</g>
<g>
</g>
</svg>
