<?xml version="1.0" encoding="iso-8859-1"?>
<!-- Generator: Adobe Illustrator 19.0.0, SVG Export Plug-In . SVG Version: 6.00 Build 0)  -->
<svg xmlns="http://www.w3.org/2000/svg" xmlns:xlink="http://www.w3.org/1999/xlink" version="1.1" id="Layer_1" x="0px" y="0px" viewBox="0 0 512 512" style="enable-background:new 0 0 512 512;" xml:space="preserve">
<path style="fill:#B0DCF7;" d="M294.413,175.388c0-25.205,20.432-45.639,45.638-45.639h31.865  C344.134,53.624,260.754,26.808,190.614,73.178C112.181,21.327,19.467,60.928,2.623,154.471  C-8.961,217.805,19.207,289.45,74.022,327.448c-13.46,103.875,42.431,194.26,56.616,149.672  c7.008-22.067-1.935-36.807,10.431-77.073c6.369-18.308,20.631-30,32.711-33.457l0.011-0.008c11.153-3.357,21.852-3.55,33.648,0  l0.01,0.008c32.533,9.309,39.967,49.01,39.967,82.958c0,60.261,28.693,44.803,46.999-3.825L294.413,175.388L294.413,175.388z"/>
<path style="fill:#7AC1DD;" d="M93.788,324.84c0-0.014,0-0.024,0.002-0.038c0.639-7.6-3.827-10.684-3.827-10.684v-0.001  c-23.695-17.866-43.69-44.223-56.233-75.382C4.936,167.206,25.781,91.973,75.821,58.32C11.669,84.188-19.597,168.424,13.127,249.723  c13.358,33.184,35.166,59.889,60.895,77.726c-13.813,106.606,44.988,197.458,57.441,146.698  C111.58,458.835,86.722,396.057,93.788,324.84z"/>
<path style="fill:#BBE6FC;" d="M371.896,129.75c-0.955-2.624-1.984-5.207-3.08-7.747c-0.366-0.843-0.734-1.685-1.115-2.515  c-0.025-0.056-0.05-0.112-0.076-0.168c-21.324-46.336-64.68-71.434-111.276-68.802c-16.198,72.36-1.993,147.119,38.063,207.7v-82.83  c0-25.205,20.432-45.639,45.638-45.639L371.896,129.75L371.896,129.75z"/>
<rect x="360.916" y="91.531" style="fill:#B7B7B7;" width="82.302" height="36.247"/>
<rect x="360.916" y="91.531" style="fill:#8F8F99;" width="20.602" height="36.247"/>
<path style="fill:#64B573;" d="M466.359,126.75H337.052c-25.207,0-45.638,20.434-45.638,45.639v270.595  c0,25.203,20.432,45.638,45.638,45.638h129.307c25.207,0,45.641-20.435,45.641-45.638V172.389  C512,147.183,491.566,126.75,466.359,126.75z"/>
<path style="fill:#449950;" d="M312.017,442.983V172.388c0-25.205,20.432-45.639,45.639-45.639h-20.602  c-25.207,0-45.638,20.434-45.638,45.639v270.595c0,25.203,20.432,45.638,45.638,45.638h20.602  C332.448,488.62,312.017,468.186,312.017,442.983z"/>
<path style="fill:#DBDADF;" d="M291.414,199.51v217.186c11.077,0,209.457,0,220.585,0V199.51H291.414z"/>
<polyline style="fill:#B7B7B7;" points="295.624,416.696 291.414,416.696 291.414,199.51 312.017,199.51 312.017,416.696   298.029,416.696 "/>
<path style="fill:#E8E8EA;" d="M291.414,253.554c46.533,73.588,127.689,123.098,220.585,125.622V199.51H291.414V253.554z"/>
<path style="fill:#D4D4D8;" d="M312.017,199.51h-20.602v54.044c6.259,9.897,13.148,19.353,20.602,28.322V199.51z"/>
<path style="fill:#579ADF;" d="M291.414,198.48v50.852c2.952,0,215.869,0,220.585,0V198.48H291.414z"/>
<polyline style="fill:#3C80BC;" points="305.662,249.333 291.414,249.333 291.414,198.48 312.017,198.48 312.017,249.333   308.101,249.333 "/>
<g>
	<path style="fill:#F5F5F5;" d="M465.727,304.802H337.686c-4.268,0-7.726-3.459-7.726-7.726c0-4.268,3.459-7.726,7.726-7.726   h128.042c4.266,0,7.726,3.459,7.726,7.726C473.453,301.344,469.993,304.802,465.727,304.802z"/>
	<path style="fill:#F5F5F5;" d="M465.727,340.397H337.686c-4.268,0-7.726-3.459-7.726-7.726c0-4.269,3.459-7.727,7.726-7.727   h128.042c4.266,0,7.726,3.459,7.726,7.727C473.453,336.938,469.993,340.397,465.727,340.397z"/>
	<path style="fill:#F5F5F5;" d="M465.727,375.991H337.686c-4.268,0-7.726-3.459-7.726-7.726c0-4.269,3.459-7.727,7.726-7.727   h128.042c4.266,0,7.726,3.459,7.726,7.727C473.453,372.532,469.993,375.991,465.727,375.991z"/>
</g>
<path style="fill:#545C60;" d="M428.55,23.213h-52.958c-16.703,0-30.246,13.536-30.261,30.235v22.798  c0,9.01,7.306,16.316,16.317,16.316h80.845c9.013,0,16.318-7.307,16.318-16.316V53.475C458.812,36.764,445.264,23.213,428.55,23.213  z"/>
<path style="fill:#3A4144;" d="M365.935,76.246V53.448c0.014-16.699,13.558-30.235,30.261-30.235h-20.603  c-16.703,0-30.246,13.536-30.261,30.235v22.798c0,9.01,7.306,16.316,16.317,16.316h20.602  C373.24,92.562,365.935,85.256,365.935,76.246z"/>
<g>
</g>
<g>
</g>
<g>
</g>
<g>
</g>
<g>
</g>
<g>
</g>
<g>
</g>
<g>
</g>
<g>
</g>
<g>
</g>
<g>
</g>
<g>
</g>
<g>
</g>
<g>
</g>
<g>
</g>
</svg>
