<?xml version="1.0" encoding="iso-8859-1"?>
<!-- Generator: Adobe Illustrator 19.0.0, SVG Export Plug-In . SVG Version: 6.00 Build 0)  -->
<svg xmlns="http://www.w3.org/2000/svg" xmlns:xlink="http://www.w3.org/1999/xlink" version="1.1" id="Layer_1" x="0px" y="0px" viewBox="0 0 511.999 511.999" style="enable-background:new 0 0 511.999 511.999;" xml:space="preserve">
<path style="fill:#DBDADF;" d="M481.355,70.282c9.365-11.042,8.847-27.601-1.573-38.023c-10.418-10.417-26.98-10.938-38.02-1.57  L481.355,70.282z"/>
<path style="fill:#B8BFC1;" d="M485.092,41.069c0.247,0.076,0.497,0.142,0.742,0.225c-7.333-17.591-29.666-22.83-44.073-10.605  l14.847,14.847C464.709,38.779,475.712,37.291,485.092,41.069z"/>
<rect x="383.766" y="70.966" transform="matrix(-0.7071 0.7071 -0.7071 -0.7071 778.9063 -130.772)" style="fill:#DBDADF;" width="65.543" height="49.93"/>
<rect x="395.473" y="53.734" transform="matrix(-0.7071 -0.7071 0.7071 -0.7071 633.8118 435.5443)" style="fill:#B8BFC1;" width="23.274" height="65.543"/>
<path style="fill:#DBDADF;" d="M112.663,367.251L90.413,389.5c-5.701,5.701-5.701,14.942,0,20.643l12.9,12.9  c5.699,5.698,14.939,5.701,20.641,0l22.251-22.252L112.663,367.251z"/>
<path style="fill:#E8E8E8;" d="M92.655,408.385L2.262,498.776c-4.855,4.856-1.367,13.137,5.44,13.137  c4.551,0-1.912,5.1,95.833-92.646L92.655,408.385z"/>
<path style="fill:#B8BFC1;" d="M105.961,406.313l22.882-22.882l-16.181-16.181l-22.249,22.249c-5.701,5.701-5.701,14.942,0,20.643  l10.472,10.472C100.362,415.512,102.049,410.224,105.961,406.313z"/>
<path style="fill:#B0DCF7;" d="M340.379,110.179L106.108,344.448c-5.054,5.054-5.054,13.245,0,18.298l44.599,44.602  c5.054,5.054,13.245,5.054,18.298,0c10.217-10.217,223.953-223.953,234.274-234.274L340.379,110.179z"/>
<path style="fill:#89CFE5;" d="M119.96,358.811l234.271-234.27l48.792,48.789l0.257-0.256l-62.9-62.895L106.108,344.448  c-5.054,5.054-5.054,13.245,0,18.298l11.994,11.995C115.025,369.752,115.636,363.136,119.96,358.811z"/>
<path style="fill:#BBE6FC;" d="M289.546,161.01c-6.965,39.729-4.961,80.88,6.016,119.779  c5.738-5.738,103.138-103.136,107.716-107.714l-62.9-62.895L289.546,161.01z"/>
<path style="fill:#A8DFF4;" d="M285.914,192.858l68.318-68.317l48.792,48.789l0.257-0.256l-62.9-62.895l-50.833,50.832  C287.72,171.43,286.505,182.061,285.914,192.858z"/>
<path style="fill:#579ADF;" d="M122.711,327.845l-16.603,16.603c-5.054,5.054-5.054,13.245,0,18.298l44.599,44.602  c5.054,5.054,13.245,5.054,18.298,0l16.605-16.603C178.941,384.075,129.381,334.515,122.711,327.845z"/>
<path style="fill:#3481C6;" d="M119.96,358.811l16.858-16.859l-14.106-14.106l-16.603,16.603c-5.054,5.054-5.054,13.245,0,18.298  l11.994,11.995C115.025,369.752,115.636,363.136,119.96,358.811z"/>
<g>
	<path style="fill:#71BDE2;" d="M169.43,330.692c6.794,0,10.303-8.273,5.44-13.136l-20.936-20.936l-10.882,10.882   C165.888,330.337,165.294,330.692,169.43,330.692z"/>
	<path style="fill:#71BDE2;" d="M196.521,303.596c6.794,0,10.303-8.275,5.44-13.136l-20.933-20.933l-10.882,10.881   C192.97,303.232,192.384,303.596,196.521,303.596z"/>
	<path style="fill:#71BDE2;" d="M223.618,276.505c6.806,0,10.295-8.282,5.44-13.136l-20.935-20.935l-10.882,10.881   C220.04,276.113,219.47,276.505,223.618,276.505z"/>
	<path style="fill:#71BDE2;" d="M250.709,249.411c6.811,0,10.292-8.282,5.44-13.136l-20.933-20.934l-10.882,10.883   C247.131,249.023,246.561,249.411,250.709,249.411z"/>
	<path style="fill:#71BDE2;" d="M277.798,222.318c6.809,0,10.293-8.283,5.44-13.136l-20.931-20.933l-10.882,10.88   C274.256,221.962,273.663,222.318,277.798,222.318z"/>
	<path style="fill:#71BDE2;" d="M299.454,192.974c2.999,2.999,7.87,3.009,10.881,0c3.006-3.005,3.006-7.877,0-10.882l-20.935-20.935   l-10.883,10.881L299.454,192.974z"/>
	<path style="fill:#71BDE2;" d="M331.988,168.135c1.969,0,3.937-0.752,5.44-2.253c3.006-3.005,3.006-7.877,0-10.882l-20.935-20.936   l-10.882,10.882C328.447,167.781,327.852,168.135,331.988,168.135z"/>
</g>
<path style="fill:#579ADF;" d="M349.024,72.708l90.311,90.308c5.701,5.699,5.699,14.944,0,20.643l-3.44,3.44  c-5.701,5.698-14.942,5.698-20.643,0l-90.308-90.311c-5.703-5.699-5.703-14.941,0-20.642l3.438-3.438  C334.082,67.008,343.322,67.008,349.024,72.708z"/>
<path style="fill:#3481C6;" d="M427.562,177.183l-90.308-90.31c-4.886-4.883-5.572-12.361-2.086-17.99  c-4.702,1.17-6.674,3.714-10.225,7.265c-5.703,5.701-5.703,14.943,0,20.642L415.25,187.1c5.701,5.698,14.942,5.698,20.643,0  c3.739-3.739,4.384-4.252,5.524-6.093C436.611,182.204,431.319,180.94,427.562,177.183z"/>
<path style="fill:#C6C4CE;" d="M396.773,4.316c5.701-5.701,14.941-5.701,20.642,0l90.31,90.309c5.699,5.701,5.699,14.943,0,20.642  l-3.439,3.44c-5.702,5.699-14.942,5.701-20.643,0l-90.31-90.309c-5.699-5.701-5.699-14.943,0-20.642L396.773,4.316z"/>
<path style="fill:#98A2A5;" d="M495.269,107.765l-90.311-90.309c-4.465-4.467-5.414-11.104-2.881-16.513  c-3.663,1.342-5.148,3.218-8.744,6.814c-5.699,5.699-5.699,14.941,0,20.642l90.31,90.309c5.701,5.701,14.941,5.699,20.643,0  c3.622-3.623,4.973-4.698,6.322-7.571C505.439,113.027,499.418,111.913,495.269,107.765z"/>
<g>
</g>
<g>
</g>
<g>
</g>
<g>
</g>
<g>
</g>
<g>
</g>
<g>
</g>
<g>
</g>
<g>
</g>
<g>
</g>
<g>
</g>
<g>
</g>
<g>
</g>
<g>
</g>
<g>
</g>
</svg>
