<?xml version="1.0" encoding="iso-8859-1"?>
<!-- Generator: Adobe Illustrator 19.0.0, SVG Export Plug-In . SVG Version: 6.00 Build 0)  -->
<svg xmlns="http://www.w3.org/2000/svg" xmlns:xlink="http://www.w3.org/1999/xlink" version="1.1" id="Layer_1" x="0px" y="0px" viewBox="0 0 512 512" style="enable-background:new 0 0 512 512;" xml:space="preserve">
<path style="fill:#B0DCF7;" d="M353.402,242.824c29.947-74.399-36.094-137.645-97.424-96.957  c-60.938-40.43-127.858,21.369-97.422,96.957c7.341,18.238,19.327,32.918,33.472,42.724c-7.696,59.385,25.952,111.023,31.741,78.565  c1.981-11.032-2.913-49.378,22.817-57.051l0.006-0.005c6.425-1.934,12.473-1.895,18.769,0l0.006,0.005  c33.364,9.836,14.035,67.077,29.688,67.077c11.436-0.01,30.917-41.942,24.873-88.591c8.167-5.661,15.612-12.947,21.862-21.603"/>
<path style="fill:#F7414B;" d="M334.374,15.787c-43.21,11.052-65.946,38.521-78.395,52.179  c-32.472-35.629-64.37-57.25-113.841-56.286C53.343,13.342-12.643,101.527,2.054,196.916c4.813,31.269,18.205,61.373,40.355,85.678  c0.162,0.178,180.768,198.304,180.933,198.479c7.658,8.146,21.506,19.358,32.639,19.358c11.596,0,26.504-12.539,32.841-19.578  c4.552-4.994,157.278-172.533,180.729-198.259c22.149-24.304,35.543-54.408,40.355-85.678  C527.176,84.819,434.902-9.801,334.374,15.787z"/>
<path style="fill:#D82E3F;" d="M276.585,491.159L276.585,491.159c-11.235,0-25.465-11.572-32.842-19.577  C49.681,258.695,62.351,272.631,60.407,270.389C-6.257,193.456,13.607,67.239,100.21,19.325  C-2.395,55.306-34.095,198.647,42.409,282.595c0.162,0.178,180.768,198.304,180.933,198.479  c7.658,8.146,21.506,19.358,32.639,19.358c7.22,0,15.129-4.574,21.379-9.301C277.101,491.142,276.841,491.159,276.585,491.159z"/>
<path style="fill:#FC657B;" d="M358.743,11.93c-44.933,2.869-73.601,24.038-102.208,55.427  c-19.801,119.665,41.997,235.065,147.819,286.757c8.121-8.909,58.673-64.364,65.196-71.52  c22.149-24.304,35.543-54.408,40.355-85.678C525.333,96.78,452.084,5.94,358.743,11.93z"/>
<path style="fill:#B0DCF7;" d="M158.557,242.824c-7.288-18.107-8.534-36.963-6.138-50.219c8.382-52.889,59.814-75.76,103.561-46.736  c13.332-8.845,27.799-12.624,37.686-12.693c75.775-0.644,90.402,107.907,26.264,152.374c7.696,59.384-25.949,111.018-31.741,78.565  c-1.812-10.095,3.001-49.352-22.817-57.051l-0.006-0.005c-6.426-1.934-12.473-1.895-18.769,0l-0.006,0.005  c-17.015,5.017-21.786,25.934-21.95,43.594c-0.057,2.786,0.558,23.482-7.737,23.482c-11.435-0.01-30.917-41.942-24.873-88.591  c-8.167-5.661-15.613-12.947-21.862-21.603"/>
<path style="fill:#7AC1DD;" d="M212.637,284.964c0.237-5.933-2.547-10.566-6.011-12.692l0.006-0.008  c-16.782-13.977-27.68-36.435-30.806-50.173l0.005,0.004c-10.093-39.133,5.796-74.138,29.144-87.921  c-44.022,7.935-66.017,59.962-46.42,108.651l11.613,21.12c6.25,8.656,13.695,15.943,21.862,21.603  c-8.276,63.881,32.218,121.769,32.598,66.277C214.373,332.004,211.523,307.795,212.637,284.964z"/>
<path style="fill:#BBE6FC;" d="M293.667,133.175c-9.878,0.069-24.306,3.816-37.686,12.693c-0.336-0.221-0.681-0.422-1.018-0.64  c6.857,55.243,30.428,105.294,65.486,144.959c-0.146-1.54-0.317-3.087-0.518-4.639C384.368,240.875,369.083,132.534,293.667,133.175  z"/>
<g>
</g>
<g>
</g>
<g>
</g>
<g>
</g>
<g>
</g>
<g>
</g>
<g>
</g>
<g>
</g>
<g>
</g>
<g>
</g>
<g>
</g>
<g>
</g>
<g>
</g>
<g>
</g>
<g>
</g>
</svg>
