<?xml version="1.0" encoding="iso-8859-1"?>
<!-- Generator: Adobe Illustrator 19.0.0, SVG Export Plug-In . SVG Version: 6.00 Build 0)  -->
<svg version="1.1" id="Layer_1" xmlns="http://www.w3.org/2000/svg" xmlns:xlink="http://www.w3.org/1999/xlink" x="0px" y="0px"
	 viewBox="0 0 512 512" style="enable-background:new 0 0 512 512;" xml:space="preserve">
<g>
	<g>
		<path d="M492.117,192.656c-17.188-39.375-42.281-60.172-72.562-60.172c-30.289,0-55.383,20.797-72.57,60.172
			c-3.625,8.297-6.672,16.891-9.211,25.5c-2.539-8.609-5.586-17.203-9.211-25.5c-17.188-39.375-42.281-60.172-72.57-60.172
			c-30.281,0-55.375,20.797-72.562,60.172c-3.633,8.297-6.68,16.891-9.211,25.5c-2.539-8.609-5.586-17.203-9.211-25.5
			c-17.188-39.375-42.281-60.172-72.57-60.172c-30.281,0-55.375,20.797-72.562,60.172C5.219,226.203,0,264.516,0,289.188
			c0,27.438,9.484,50.594,27.43,66.953c16.516,15.078,39.609,23.375,65.008,23.375c25.406,0,48.5-8.297,65.016-23.375
			c6.836-6.234,12.438-13.453,16.766-21.516c4.32,8.062,9.93,15.281,16.766,21.516c16.516,15.078,39.609,23.375,65.008,23.375
			c25.406,0,48.5-8.297,65.016-23.375c6.836-6.234,12.445-13.453,16.766-21.516c4.32,8.062,9.93,15.281,16.766,21.516
			c16.516,15.078,39.609,23.375,65.016,23.375c25.398,0,48.492-8.297,65.008-23.375C502.508,339.781,512,316.625,512,289.188
			C512,264.516,506.773,226.203,492.117,192.656z M163.554,289.187v0.016c-0.007,21.266-7.085,38.969-20.476,51.172
			c-12.578,11.484-30.562,17.797-50.641,17.797c-20.07,0-38.055-6.312-50.633-17.797c-13.398-12.203-20.477-29.906-20.477-51.188
			c0-21.484,4.742-57.422,18.094-88c9.438-21.609,26.297-47.375,53.016-47.375c26.727,0,43.586,25.766,53.023,47.375
			c8.609,19.719,13.633,41.641,16.117,60.5h-26.469v-10.672c0-11.781-9.555-21.328-21.336-21.328H71.109
			c-11.781,0-21.336,9.547-21.336,21.328v42.672c0,11.781,9.555,21.328,21.336,21.328h42.664c11.781,0,21.336-9.547,21.336-21.328
			v-10.672h28.32c0.078,2.156,0.125,4.219,0.125,6.141V289.187z M113.773,251.016v42.672H71.109v-42.672H113.773z M202.975,201.187
			c9.439-21.609,26.298-47.375,53.017-47.375c26.727,0,43.586,25.766,53.023,47.375c8.609,19.719,13.633,41.641,16.117,60.5h-26.469
			v-10.672c0-11.781-9.555-21.328-21.336-21.328h-42.664c-11.781,0-21.336,9.547-21.336,21.328v10.672h-26.469
			C189.342,242.828,194.366,220.906,202.975,201.187z M277.328,251.016v42.672h-42.664v-42.672H277.328z M306.633,340.375
			c-12.578,11.484-30.562,17.797-50.641,17.797c-20.07,0-38.055-6.312-50.633-17.797c-13.391-12.203-20.469-29.906-20.477-51.172
			v-0.016v-0.031c0-1.922,0.039-3.984,0.125-6.141h28.32v10.672c0,11.781,9.555,21.328,21.336,21.328h42.664
			c11.781,0,21.336-9.547,21.336-21.328v-10.672h28.32c0.078,2.172,0.125,4.234,0.125,6.172
			C327.109,310.469,320.023,328.172,306.633,340.375z M470.188,340.375c-12.578,11.484-30.562,17.797-50.633,17.797
			c-20.078,0-38.062-6.312-50.641-17.797c-13.398-12.203-20.477-29.906-20.477-51.188c0-1.938,0.047-4,0.125-6.172h28.32v10.672
			c0,11.781,9.555,21.328,21.336,21.328h42.664c11.781,0,21.336-9.547,21.336-21.328v-42.672c0-11.781-9.555-21.328-21.336-21.328
			h-42.664c-11.781,0-21.336,9.547-21.336,21.328v10.672h-26.469c2.484-18.859,7.508-40.781,16.117-60.5
			c9.438-21.609,26.297-47.375,53.023-47.375c26.719,0,43.578,25.766,53.016,47.375c13.352,30.578,18.094,66.516,18.094,88
			C490.664,310.469,483.586,328.172,470.188,340.375z M398.219,293.688v-42.672h42.664v42.672H398.219z"/>
	</g>
</g>
<g>
</g>
<g>
</g>
<g>
</g>
<g>
</g>
<g>
</g>
<g>
</g>
<g>
</g>
<g>
</g>
<g>
</g>
<g>
</g>
<g>
</g>
<g>
</g>
<g>
</g>
<g>
</g>
<g>
</g>
</svg>
