<?xml version="1.0" encoding="iso-8859-1"?>
<!-- Generator: Adobe Illustrator 19.0.0, SVG Export Plug-In . SVG Version: 6.00 Build 0)  -->
<svg version="1.1" id="Layer_1" xmlns="http://www.w3.org/2000/svg" xmlns:xlink="http://www.w3.org/1999/xlink" x="0px" y="0px"
	 viewBox="0 0 512 512" style="enable-background:new 0 0 512 512;" xml:space="preserve">
<g>
	<g>
		<path d="M458.664,138.656C458.664,62.078,396.586,0,320.008,0c-23.094,0-44.859,5.641-64.016,15.625
			C236.852,5.641,215.086,0,191.992,0C115.414,0,53.336,62.078,53.336,138.656c0,21.047,4.688,40.984,13.062,58.844L108.18,288
			c-10,32,6.297,224,73.141,224c21.047,0,54.062-178.484,74.672-178.625h0.016c20.609,0,53.609,178.625,74.641,178.625
			c66.859,0,83.141-192,73.141-224l41.797-90.5C453.977,179.641,458.664,159.703,458.664,138.656z M426.273,188.438l-0.016,0.062
			l-0.031,0.047l-41.797,90.5l-3.453,7.469l2.453,7.844c2.062,6.625,3.422,38.578-2.812,82.453
			c-6.438,45.344-18.156,82.25-32.125,101.266c-3.578,4.859-7.109,8.328-10.547,10.375c-1.891-4.016-4.562-10.391-8.094-20.453
			c-5.281-15.078-10.969-33.922-16.453-52.141c-23.234-77.141-32.547-103.828-57.391-103.828h-0.078h-0.016h-0.078
			c-24.719,0.172-34,26.812-57.219,103.797c-5.5,18.234-11.172,37.078-16.469,52.156c-3.547,10.078-6.219,16.469-8.109,20.469
			c-3.453-2.047-6.984-5.516-10.547-10.375c-13.984-19.016-25.688-55.922-32.141-101.266c-6.234-43.875-4.875-75.828-2.797-82.453
			l2.438-7.844l-3.438-7.469l-41.781-90.484l-0.031-0.062l-0.031-0.062c-7.328-15.625-11.047-32.375-11.047-49.781
			c0-31.328,12.203-60.797,34.359-82.969c22.172-22.156,51.641-34.359,82.969-34.359c19.109,0,37.328,4.453,54.141,13.219
			l9.859,5.141l9.875-5.141c16.812-8.766,35.031-13.219,54.141-13.219c31.328,0,60.797,12.203,82.969,34.359
			c22.156,22.172,34.359,51.641,34.359,82.969C437.336,156.062,433.617,172.812,426.273,188.438z"/>
	</g>
</g>
<g>
	<g>
		<path d="M191.992,74.656c-35.344,0-64,28.656-64,64c0,35.359,28.656,64,64,64c35.359,0,64-28.641,64-64
			C255.992,103.312,227.352,74.656,191.992,74.656z M191.992,181.328c-23.516,0-42.656-19.141-42.656-42.672
			c0-23.516,19.141-42.656,42.656-42.656c23.531,0,42.672,19.141,42.672,42.656C234.664,162.188,215.523,181.328,191.992,181.328z"
			/>
	</g>
</g>
<g>
</g>
<g>
</g>
<g>
</g>
<g>
</g>
<g>
</g>
<g>
</g>
<g>
</g>
<g>
</g>
<g>
</g>
<g>
</g>
<g>
</g>
<g>
</g>
<g>
</g>
<g>
</g>
<g>
</g>
</svg>
