<?xml version="1.0" encoding="iso-8859-1"?>
<!-- Generator: Adobe Illustrator 19.0.0, SVG Export Plug-In . SVG Version: 6.00 Build 0)  -->
<svg version="1.1" id="Layer_1" xmlns="http://www.w3.org/2000/svg" xmlns:xlink="http://www.w3.org/1999/xlink" x="0px" y="0px"
	 viewBox="0 0 511.999 511.999" style="enable-background:new 0 0 511.999 511.999;" xml:space="preserve">
<g>
	<g>
		<path d="M458.051,53.954C418.16,14.057,384.332,0.002,357.309,0.002c-22.468,0-40.241,9.711-52.905,22.382
			c0,0-28.352,35.671-66.977,79.281l-4.055-4.055c-8.297-8.297-19.234-12.445-30.171-12.445c-10.938,0-21.875,4.148-30.172,12.445
			l-90.507,90.507c-16.594,16.594-16.594,43.75,0,60.336l3.07,3.062c-35.968,31.249-63.21,52.89-63.21,52.89
			c-27.898,27.891-41.492,80.578,31.57,153.64c39.89,39.891,73.71,53.953,100.734,53.953c22.468,0,40.242-9.719,52.906-22.391
			c0,0,21.656-27.219,52.882-63.187l3.07,3.062c8.297,8.281,19.234,12.438,30.164,12.438c10.938,0,21.875-4.156,30.172-12.438
			l90.507-90.516c16.594-16.594,16.594-43.75,0-60.344l-4.055-4.047c43.609-38.624,79.288-66.983,79.288-66.983
			C517.519,179.695,531.104,127.009,458.051,53.954z M97.607,203.203l90.507-90.507c4-4,9.359-6.203,15.086-6.203
			c5.734,0,11.093,2.203,15.085,6.203l4.891,4.891c-16.218,17.922-33.718,36.578-51.367,54.226
			c-22.945,22.953-47.609,45.648-70.148,65.617l-4.054-4.055c-3.992-4-6.195-9.359-6.195-15.086
			C91.412,212.555,93.615,207.195,97.607,203.203z M399.309,323.89l-90.515,90.5c-3.992,4-9.352,6.188-15.086,6.188
			c-5.727,0-11.086-2.188-15.078-6.188l-4.062-4.062c19.969-22.531,42.672-47.188,65.616-70.141
			c17.648-17.641,36.305-35.141,54.227-51.359l4.89,4.874c4,4,6.203,9.359,6.203,15.094S403.301,319.89,399.309,323.89z
			 M475.308,191.711c-10.147,8.117-86.054,69.241-150.209,133.397C260.943,389.264,199.818,465.17,191.717,475.31
			c-10.539,10.188-22.992,15.359-37.031,15.359c-24.828,0-54.445-16.5-85.648-47.718c-15.891-15.875-28.016-31.375-36.046-46.047
			c-6.648-12.141-10.5-23.75-11.43-34.453c-0.758-8.719,0.414-16.969,3.477-24.531c2.594-6.375,6.508-12.312,11.648-17.625
			c10.148-8.125,86.054-69.249,150.21-133.397c64.156-64.155,125.281-140.069,133.39-150.217
			c10.539-10.18,22.991-15.344,37.022-15.344c24.828,0,54.445,16.492,85.656,47.703c15.883,15.883,28.015,31.383,36.046,46.055
			c6.648,12.148,10.492,23.75,11.43,34.46c0.758,8.703-0.414,16.953-3.484,24.523C484.37,180.461,480.456,186.391,475.308,191.711z"
			/>
	</g>
</g>
<g>
	<g>
		<path d="M399.309,112.696c-12.5-12.5-28.883-18.75-45.266-18.75c-16.156,0-32.319,6.086-44.749,18.25L203.201,218.289l0.008,0.008
			L97.607,323.89c-24.992,24.984-24.992,65.5,0,90.5c12.5,12.5,28.875,18.75,45.258,18.75c16.164,0,32.32-6.094,44.757-18.25
			l106.085-106.094H293.7l105.601-105.593C424.301,178.211,424.301,137.688,399.309,112.696z M384.223,188.117L278.614,293.702
			l-14,14.016l-91.984,91.984c-8.007,7.812-18.57,12.094-29.765,12.094c-11.398,0-22.109-4.438-30.172-12.5
			c-8.055-8.047-12.5-18.766-12.5-30.156c0-11.406,4.438-22.125,12.5-30.172l105.601-105.585l15.078-15.094l90.914-90.921
			c8.008-7.797,18.569-12.086,29.757-12.086c11.398,0,22.117,4.438,30.18,12.5c8.055,8.055,12.492,18.773,12.492,30.164
			C396.715,169.344,392.277,180.055,384.223,188.117z"/>
	</g>
</g>
<g>
</g>
<g>
</g>
<g>
</g>
<g>
</g>
<g>
</g>
<g>
</g>
<g>
</g>
<g>
</g>
<g>
</g>
<g>
</g>
<g>
</g>
<g>
</g>
<g>
</g>
<g>
</g>
<g>
</g>
</svg>
