<?xml version="1.0" encoding="iso-8859-1"?>
<!-- Generator: Adobe Illustrator 19.0.0, SVG Export Plug-In . SVG Version: 6.00 Build 0)  -->
<svg version="1.1" id="Layer_1" xmlns="http://www.w3.org/2000/svg" xmlns:xlink="http://www.w3.org/1999/xlink" x="0px" y="0px"
	 viewBox="0 0 512.005 512.005" style="enable-background:new 0 0 512.005 512.005;" xml:space="preserve">
<g>
	<g>
		<path d="M505.757,104.297L407.694,6.25C403.538,2.078,398.069,0,392.616,0s-10.922,2.078-15.078,6.25l-15.094,15.078
			c-8.328,8.336-8.328,21.844,0,30.172L173.89,240.063l2.469,80.5L25.757,471.172l-7.547-7.562c-4.164-4.156-10.914-4.156-15.078,0
			c-4.172,4.188-4.172,10.938,0,15.094l30.164,30.172c4.164,4.172,10.922,4.172,15.086,0c4.164-4.172,4.164-10.922,0-15.078
			l-7.539-7.547l150.602-150.609l80.492,2.469l188.57-188.555c4.156,4.164,9.625,6.25,15.078,6.25s10.922-2.086,15.078-6.25
			l15.094-15.086C514.084,126.133,514.084,112.633,505.757,104.297z M263.374,316.516l-65.859-2.031l-2.023-65.859l75.602-75.594
			l67.883,67.883L263.374,316.516z M354.054,225.828l-67.891-67.883l91.375-91.359l67.875,67.883L354.054,225.828z M475.585,134.469
			l-98.047-98.055l15.078-15.078l98.047,98.047L475.585,134.469z"/>
	</g>
</g>
<g>
</g>
<g>
</g>
<g>
</g>
<g>
</g>
<g>
</g>
<g>
</g>
<g>
</g>
<g>
</g>
<g>
</g>
<g>
</g>
<g>
</g>
<g>
</g>
<g>
</g>
<g>
</g>
<g>
</g>
</svg>
