<?xml version="1.0" encoding="iso-8859-1"?>
<!-- Generator: Adobe Illustrator 19.0.0, SVG Export Plug-In . SVG Version: 6.00 Build 0)  -->
<svg version="1.1" id="Layer_1" xmlns="http://www.w3.org/2000/svg" xmlns:xlink="http://www.w3.org/1999/xlink" x="0px" y="0px"
	 viewBox="0 0 512.007 512.007" style="enable-background:new 0 0 512.007 512.007;" xml:space="preserve">
<g>
	<g>
		<path d="M511.973,10.687c0-5.891-4.75-10.656-10.656-10.656c-2.938,0-5.594,1.188-7.531,3.125l-84.375,84.375
			c-13.562-28.5-36.875-50.578-69.594-65.828C253.066-18.735,195.004,4.843,161.566,31.75c-26.969,21.672-48.781,54.625-61.5,92.812
			c-11.188,33.609-14.375,69.141-8.594,95.047c1.219,5.422,6.406,9.062,11.969,8.234c5.844-0.875,9.844-6.312,8.969-12.141
			c-0.031-0.266-0.094-0.5-0.156-0.75c-9-40.234,8.156-122.719,62.688-166.594c41.188-33.125,95.094-35.656,155.875-7.328
			c30.625,14.281,51.531,35.328,62.375,62.719l-27.844,27.828c-0.156-1.172-0.5-2.266-1-3.281c-0.031-0.109-0.125-0.266-0.188-0.375
			c-16.562-33.312-39.906-54.531-69.406-63.094c-51.031-14.781-102.031,14.031-107.875,17.469v0.016
			c-0.156,0.094-0.281,0.172-0.375,0.219c-3.062,1.875-5.094,5.25-5.094,9.109c0,5.891,4.781,10.672,10.656,10.672
			c2.031,0,3.938-0.578,5.562-1.562c0.469-0.297,47.062-28.219,91.188-15.438c23.625,6.859,42.625,24.5,56.438,52.438
			c1.531,3.109,4.531,5.359,8.062,5.844l-56.625,56.641c-0.219-0.406-0.438-0.797-0.688-1.188
			c-9.688-16.359-22.781-26.297-38.875-29.531c-29.719-5.969-58.938,13.969-62.906,16.828c-0.031,0-0.031,0.016-0.031,0
			c-0.125,0.109-0.219,0.188-0.281,0.219c-2.625,1.953-4.312,5.062-4.312,8.562c0,5.906,4.781,10.688,10.656,10.688
			c2.406,0,4.594-0.797,6.375-2.125c0.219-0.172,24.531-17.641,46.281-13.266c10.094,2.031,18.188,8.406,24.75,19.5
			c1.25,2.125,2.312,4.172,3.188,6.156l-98.812,98.836c-0.031-5.469,0.156-10.531,0.469-15c0-0.25,0.031-0.469,0.031-0.719
			c0-5.906-4.781-10.688-10.688-10.688c-5.625,0-10.25,4.406-10.625,9.938c-0.031,0.719-1.125,17.125,0.219,37.031L3.16,493.758
			c-1.938,1.938-3.125,4.594-3.125,7.562c0,5.875,4.781,10.656,10.656,10.656c2.969,0,5.625-1.188,7.562-3.125l90.156-90.188
			c3.781,40.469,37.844,80.438,80.531,90.75c7.156,1.719,14.312,2.594,21.438,2.594c20.219,0,40-6.938,58.188-20.5
			c27.688-20.688,50.719-56.031,68.5-105.094c4.875-7.125,29.5-44.062,51.375-93.031c14.125-31.594,24.094-61.586,29.656-89.18
			c7.094-35.156,7.031-66.609-0.188-93.484c-0.094-0.406-0.219-0.797-0.344-1.203l91.281-91.281
			C510.785,16.296,511.973,13.64,511.973,10.687z M279.41,247.695c-4.438,8.969-11.812,18.75-21.344,31
			c-7.969,10.219-17,21.812-25.312,35.094c-15.781,25.25-18.531,47.562-20.375,62.312c-0.656,5.281-1.562,12.5-2.812,14.219
			c-0.25,0.094-0.938,0.25-2.438,0.25c-3.844-0.031-6.969-1.531-9.875-4.688c-7.438-8.031-11.625-24.719-13.656-42.375
			L279.41,247.695z M369.129,284.32c-23.062,51.719-50.094,90.688-50.375,91.062l-0.812,1.188l-0.469,1.344
			c-16.406,45.719-37.156,78.188-61.688,96.5c-19.312,14.438-40.719,19.375-61.844,14.25c-18.406-4.438-36.062-16.531-48.438-33.156
			c-12.062-16.219-17.781-34.844-15.656-51.125c0.125-0.969,0.125-1.938-0.031-2.969c-0.156-1.125-0.5-2.188-1-3.156l36.062-36.062
			c3.469,17.094,9.031,29.875,16.688,38.156c6.906,7.469,15.656,11.438,25.344,11.562c0.125,0,0.25,0,0.375,0
			c12.469,0,18.469-6.5,21.344-11.969c3-5.812,3.906-12.969,4.906-21.219c1.719-13.656,4.031-32.375,17.312-53.625
			c7.719-12.375,16.031-23,24.031-33.281c11.688-15.031,21.812-28,27-42.344c3.312-9.133,4.281-18.117,2.875-27.148l95-95
			C408.91,179.281,388.598,240.656,369.129,284.32z"/>
	</g>
</g>
<g>
</g>
<g>
</g>
<g>
</g>
<g>
</g>
<g>
</g>
<g>
</g>
<g>
</g>
<g>
</g>
<g>
</g>
<g>
</g>
<g>
</g>
<g>
</g>
<g>
</g>
<g>
</g>
<g>
</g>
</svg>
