<?xml version="1.0" encoding="iso-8859-1"?>
<!-- Generator: Adobe Illustrator 19.0.0, SVG Export Plug-In . SVG Version: 6.00 Build 0)  -->
<svg version="1.1" id="Layer_1" xmlns="http://www.w3.org/2000/svg" xmlns:xlink="http://www.w3.org/1999/xlink" x="0px" y="0px"
	 viewBox="0 0 512 512" style="enable-background:new 0 0 512 512;" xml:space="preserve">
<g>
	<g>
		<path d="M502.375,106.719c-2.844-0.281-70.062-6.641-153.938,4.031C299,117.031,254.125,128,215.094,143.312
			c-4.938,1.922-9.781,3.938-14.5,6.016H75.375l340.031-85.562C405.25,23.344,350.031,0,278.156,0
			c-29.719,0-62.25,3.969-95.656,12.375C80.375,38.078,4.844,96.438,0.219,149.328H0v341.328C0,502.438,9.531,512,21.313,512h384
			c11.781,0,21.344-9.562,21.344-21.344V149.328h-162.5c26.75-7.594,55.688-13.406,86.531-17.359
			c80.625-10.312,147.344-4.234,149.531-4.031h0.031c0,0,0.031,0,0.031,0.016v-0.016c0.344,0.031,0.688,0.062,1.031,0.062
			c5.906,0,10.688-4.781,10.688-10.672C512,111.781,507.781,107.234,502.375,106.719z M213.313,192
			c18.75,0,36.906,3.656,53.969,10.891c16.531,6.969,31.344,16.984,44.094,29.719c12.75,12.75,22.75,27.578,29.719,44.078
			c7.219,17.094,10.906,35.25,10.906,53.969c0,18.734-3.688,36.891-10.906,53.969c-6.969,16.516-16.969,31.344-29.719,44.094
			c-12.75,12.734-27.562,22.734-44.094,29.719c-17.062,7.234-35.219,10.891-53.969,10.891c-18.719,0-36.875-3.656-53.969-10.891
			c-16.5-6.984-31.344-16.984-44.062-29.719c-12.75-12.75-22.75-27.578-29.75-44.094c-7.219-17.078-10.875-35.234-10.875-53.969
			c0-18.719,3.656-36.875,10.875-53.969c7-16.5,17-31.328,29.75-44.078c12.718-12.735,27.562-22.751,44.062-29.719
			C176.438,195.657,194.594,192,213.313,192z M57.75,95.672c15.219-13.094,33.938-25.125,55.625-35.734
			c22.844-11.156,47.844-20.203,74.344-26.859c30.938-7.797,61.375-11.75,90.438-11.75c47.312,0,85.688,10.969,104.625,28.641
			L23.875,140.297C28.656,126.125,40.25,110.703,57.75,95.672z M405.313,170.656v320h-192h-192v-320h137.906
			c-24.5,14.828-45.656,32-63.312,51.328c-26.438,28.547-42.594,66.719-42.594,108.672c0,88.375,71.656,160,160,160
			c88.375,0,160-71.625,160-160c0-88.359-71.625-160-160-160c-2.938,0-5.844,0.094-8.75,0.25c0.188-0.078,0.344-0.156,0.531-0.25
			h8.219H405.313z"/>
	</g>
</g>
<g>
	<g>
		<path d="M213.313,213.328C148.531,213.328,96,265.859,96,330.656C96,395.469,148.531,448,213.313,448
			c64.812,0,117.344-52.531,117.344-117.344C330.656,265.859,278.125,213.328,213.313,213.328z M281.219,398.547
			c-18.156,18.125-42.25,28.109-67.906,28.109c-25.625,0-49.75-9.984-67.875-28.109c-18.125-18.141-28.125-42.234-28.125-67.891
			c-0.001-25.64,9.999-49.75,28.125-67.875c18.125-18.141,42.25-28.125,67.875-28.125c25.656,0,49.75,9.984,67.906,28.125
			c18.125,18.125,28.094,42.234,28.094,67.875C309.313,356.312,299.344,380.406,281.219,398.547z"/>
	</g>
</g>
<g>
	<g>
		<path d="M213.313,256c-41.219,0-74.656,33.422-74.656,74.656c0,41.25,33.438,74.672,74.656,74.672
			c41.25,0,74.688-33.422,74.688-74.672C288,289.422,254.563,256,213.313,256z M213.313,384C183.906,384,160,360.078,160,330.656
			c0-29.406,23.906-53.328,53.312-53.328s53.344,23.922,53.344,53.328C266.656,360.078,242.719,384,213.313,384z"/>
	</g>
</g>
<g>
	<g>
		<path d="M213.313,298.656c-17.656,0-32,14.328-32,32s14.344,32,32,32c17.688,0,32-14.328,32-32S231,298.656,213.313,298.656z
			 M213.313,341.328c-5.875,0-10.656-4.781-10.656-10.672c0-5.875,4.782-10.656,10.656-10.656c5.906,0,10.688,4.781,10.688,10.656
			C224,336.547,219.219,341.328,213.313,341.328z"/>
	</g>
</g>
<g>
</g>
<g>
</g>
<g>
</g>
<g>
</g>
<g>
</g>
<g>
</g>
<g>
</g>
<g>
</g>
<g>
</g>
<g>
</g>
<g>
</g>
<g>
</g>
<g>
</g>
<g>
</g>
<g>
</g>
</svg>
