<?xml version="1.0" encoding="iso-8859-1"?>
<!-- Generator: Adobe Illustrator 19.0.0, SVG Export Plug-In . SVG Version: 6.00 Build 0)  -->
<svg version="1.1" id="Layer_1" xmlns="http://www.w3.org/2000/svg" xmlns:xlink="http://www.w3.org/1999/xlink" x="0px" y="0px"
	 viewBox="0 0 511.999 511.999" style="enable-background:new 0 0 511.999 511.999;" xml:space="preserve">
<g>
	<g>
		<path d="M505.531,327.472c-3.984-5.281-9.391-9.156-15.625-11.25l-161.422-53.781l-3.297-1.094h-3.453l-55.062,0.031v-74.711H288
			v10.672c0,11.781,9.562,21.328,21.344,21.328H320c0,5.891,4.781,10.672,10.672,10.672s10.672-4.781,10.672-10.672H352
			c0,5.891,4.781,10.672,10.672,10.672s10.672-4.781,10.672-10.672H384c11.781,0,21.344-9.547,21.344-21.328v-42.672
			c0-11.781-9.562-21.328-21.344-21.328h-74.656c-11.781,0-21.344,9.547-21.344,21.328v10.672h-21.328v-96
			c0-11.781-9.547-21.344-21.328-21.344h-22.688c-4.75-18.375-21.469-32-41.312-32c-23.531,0-42.672,19.141-42.672,42.672
			s19.141,42.672,42.672,42.672c19.844,0,36.562-13.625,41.312-32h22.688v192.039h-38.906L56,90.839
			c-6.094-6.891-14.828-10.844-24-10.844c-17.641,0-32,14.359-32,32c0,7.797,2.859,15.312,8.016,21.172l243.015,277.492L128,453.347
			v42.656h299.859l-124.5-145.344c8.094-6.156,15.031-13.719,20.484-22.281l146.047,48.656c3.266,1.094,6.672,1.625,10.109,1.625
			c17.641,0,32-14.344,32-32C512,339.722,509.766,333.065,505.531,327.472z M309.344,154.667H384v42.672h-10.656v-21.344
			c0-5.891-4.781-10.656-10.672-10.656S352,170.105,352,175.995c0,0.016,0,21.344,0,21.344h-10.656v-21.344
			c0-5.891-4.781-10.656-10.672-10.656S320,170.105,320,175.995v21.344h-10.656V154.667z M181.344,79.995
			c-11.766,0-21.344-9.562-21.344-21.328c0-11.766,9.578-21.328,21.344-21.328c11.75,0,21.328,9.562,21.328,21.328
			C202.672,70.434,193.094,79.995,181.344,79.995z M381.5,474.659H149.344v-6.156l108.688-37.688l29.703-10.312l-20.562-23.781
			l-61.641-71.344l93.906-0.031c-2.719,3.062-5.734,5.844-8.984,8.312l-18,13.688l14.703,17.188L381.5,474.659z M480,357.347
			c-1.172,0-2.312-0.219-3.375-0.562l-158.344-52.75l-131.094,0.031L24.016,119.042c-1.656-1.875-2.672-4.344-2.672-7.047
			c0-5.891,4.766-10.656,10.656-10.656c3.188,0,6.047,1.391,8,3.609l156.812,177.773l124.922-0.031l161.438,53.781
			c4.234,1.406,7.5,5.469,7.5,10.188C490.672,352.565,485.891,357.347,480,357.347z"/>
	</g>
</g>
<g>
</g>
<g>
</g>
<g>
</g>
<g>
</g>
<g>
</g>
<g>
</g>
<g>
</g>
<g>
</g>
<g>
</g>
<g>
</g>
<g>
</g>
<g>
</g>
<g>
</g>
<g>
</g>
<g>
</g>
</svg>
