<?xml version="1.0" encoding="iso-8859-1"?>
<!-- Generator: Adobe Illustrator 19.0.0, SVG Export Plug-In . SVG Version: 6.00 Build 0)  -->
<svg version="1.1" id="Layer_1" xmlns="http://www.w3.org/2000/svg" xmlns:xlink="http://www.w3.org/1999/xlink" x="0px" y="0px"
	 viewBox="0 0 512 512" style="enable-background:new 0 0 512 512;" xml:space="preserve">
<g>
	<g>
		<path d="M511.807,0.086L463.822,0L352.135,112.008l-5.641-5.633l-0.688-0.703v0.008c-4.172-4.133-10.891-4.117-15.047,0.031
			c-3.922,3.914-4.156,10.109-0.719,14.297c-26.078,21.422-83.109,59.305-160.296,59.305c-1.156-0.023-2.328-0.039-3.484-0.039
			c-42.5,0-85,16.242-117.422,48.727c-64.859,64.969-64.859,170.297,0,235.266C81.26,495.766,123.76,512,166.26,512
			s85-16.234,117.421-48.734c33.312-33.375,49.516-77.375,48.609-121.109c-2.312-80.281,36.422-136.07,58.578-161.25l0.219,0.219
			c0,0,0,0.008,0,0.016c4.172,4.164,10.922,4.164,15.094-0.008c4.172-4.164,4.172-10.914,0-15.078v-0.008l-6.203-6.195
			L511.635,47.875L511.807,0.086z M220.713,480.045c-17.328,7.049-35.656,10.627-54.453,10.627s-37.125-3.578-54.453-10.625
			c-17.953-7.281-34.047-18-47.875-31.844s-24.531-30-31.797-47.969c-7.047-17.375-10.609-35.75-10.609-54.594
			c0-18.859,3.562-37.219,10.609-54.594c6.25-15.469,15.047-29.562,26.172-42.016c12.781,17.984,46.953,63.828,97.172,114.047
			c49.406,49.406,91.047,78.719,108.109,89.906C250.932,464.53,236.542,473.624,220.713,480.045z M349.729,200.656
			c-26.781,42.922-40.188,92.031-38.766,142.016c0.391,19.344-2.984,38.219-10,56.125c-5.484,13.969-13.016,26.844-22.453,38.406
			c-13.266-8.5-56.656-37.938-107.937-89.219c-51.344-51.344-86.219-99.031-96.734-113.969
			c11.438-9.539,24.156-17.188,37.953-22.797c17.344-7.039,35.656-10.609,54.469-10.609c0.984,0,1.969,0.008,2.953,0.031
			c48.078,0,102.609-13.805,143.812-40.117c13.656-8.727,24.625-17.516,32.703-24.727l14.969,14.992l15.016,15.055
			C368.166,174.328,358.869,186.008,349.729,200.656z M490.338,39.024L384.9,144.773l-17.672-17.68L472.666,21.352l17.734,0.031
			L490.338,39.024z"/>
	</g>
</g>
<g>
</g>
<g>
</g>
<g>
</g>
<g>
</g>
<g>
</g>
<g>
</g>
<g>
</g>
<g>
</g>
<g>
</g>
<g>
</g>
<g>
</g>
<g>
</g>
<g>
</g>
<g>
</g>
<g>
</g>
</svg>
