<?xml version="1.0" encoding="iso-8859-1"?>
<!-- Generator: Adobe Illustrator 19.0.0, SVG Export Plug-In . SVG Version: 6.00 Build 0)  -->
<svg version="1.1" id="Layer_1" xmlns="http://www.w3.org/2000/svg" xmlns:xlink="http://www.w3.org/1999/xlink" x="0px" y="0px"
	 viewBox="0 0 512 512" style="enable-background:new 0 0 512 512;" xml:space="preserve">
<g>
	<g>
		<path d="M316.505,192l-3.75-21.336h7.156c5.875,0,10.656-4.773,10.656-10.664s-4.781-10.672-10.656-10.672h-10.938L282.567,0
			H229.23l-25.859,149.328h-11.469c-5.891,0-10.672,4.781-10.672,10.672s4.781,10.664,10.672,10.664h7.766L195.98,192l-35.891,64
			l-0.188,234.672c0,11.781,9.547,21.328,21.328,21.328h149.336c11.781,0,21.344-9.547,21.344-21.328L352.099,256L316.505,192z
			 M247.2,21.328h17.492l22.625,128h-62.289L247.2,21.328z M221.325,170.664h69.742L294.849,192h-77.211L221.325,170.664z
			 M208.48,213.328h95.492l17.782,32H190.527L208.48,213.328z M330.567,490.641v0.031H181.23l0.188-224h149.336L330.567,490.641z"/>
	</g>
</g>
<g>
	<g>
		<path d="M256.286,320.734c-3.195,2.547-43.664,36.875-42.648,72.906c0.297,26.312,19,43.188,42.648,43.688
			c23.625-0.5,42.344-17.375,42.656-43.688C299.942,357.609,259.474,323.281,256.286,320.734z M277.6,393.203h-0.002v0.188
			c-0.188,16.094-11.031,22.219-21.312,22.594c-6.117-0.219-11.336-2.281-15.086-6c-4-3.938-6.156-9.688-6.234-16.594v-0.188v-0.172
			c-0.281-9.797,4.938-21.922,15.094-35.094c2.094-2.703,4.203-5.219,6.227-7.484c2.031,2.266,4.125,4.781,6.219,7.484
			c10.156,13.172,15.375,25.297,15.094,35.094V393.203z"/>
	</g>
</g>
<g>
</g>
<g>
</g>
<g>
</g>
<g>
</g>
<g>
</g>
<g>
</g>
<g>
</g>
<g>
</g>
<g>
</g>
<g>
</g>
<g>
</g>
<g>
</g>
<g>
</g>
<g>
</g>
<g>
</g>
</svg>
