<?xml version="1.0" encoding="iso-8859-1"?>
<!-- Generator: Adobe Illustrator 19.0.0, SVG Export Plug-In . SVG Version: 6.00 Build 0)  -->
<svg version="1.1" id="Layer_1" xmlns="http://www.w3.org/2000/svg" xmlns:xlink="http://www.w3.org/1999/xlink" x="0px" y="0px"
	 viewBox="0 0 512 512" style="enable-background:new 0 0 512 512;" xml:space="preserve">
<g>
	<g>
		<path d="M490.672,122.668h-21.328c0-5.891-4.781-10.664-10.672-10.664H416c-5.891,0-10.656,4.773-10.656,10.664H352v-32
			c0-11.781-9.547-21.336-21.328-21.336H181.336c-11.781,0-21.328,9.555-21.328,21.336v32h-53.336
			c0-5.891-4.773-10.664-10.664-10.664H53.336c-5.891,0-10.664,4.773-10.664,10.664H21.336C9.555,122.668,0,132.215,0,144.004
			v277.32c0,11.781,9.555,21.344,21.336,21.344h469.336c11.781,0,21.328-9.562,21.328-21.344v-277.32
			C512,132.215,502.453,122.668,490.672,122.668z M181.336,90.668h149.336v32H181.336V90.668z M490.672,421.324H21.336v-277.32
			h469.336V421.324z"/>
	</g>
</g>
<g>
	<g>
		<path d="M256,166.574c-64.797,0-117.328,52.531-117.328,117.328S191.203,401.23,256,401.23
			c64.812,0,117.344-52.531,117.344-117.328S320.812,166.574,256,166.574z M323.875,351.793
			c-18.125,18.125-42.219,28.109-67.875,28.109c-25.641,0-49.75-9.984-67.875-28.109c-18.133-18.141-28.117-42.25-28.117-67.891
			s9.984-49.75,28.117-67.875c18.125-18.133,42.234-28.125,67.875-28.125c25.656,0,49.75,9.992,67.875,28.125
			C342.016,234.152,352,258.262,352,283.902S342.016,333.652,323.875,351.793z"/>
	</g>
</g>
<g>
	<g>
		<path d="M287.906,250.668v-32h-64v32h-31.898v64h31.898v32h64v-32H320v-64H287.906z M298.672,293.324h-10.766h-21.328v21.344
			v10.656h-21.336v-10.656v-21.344h-21.336h-10.57v-21.312h10.57h21.336v-21.344v-10.664h21.336v10.664v21.344h21.328h10.766
			V293.324z"/>
	</g>
</g>
<g>
</g>
<g>
</g>
<g>
</g>
<g>
</g>
<g>
</g>
<g>
</g>
<g>
</g>
<g>
</g>
<g>
</g>
<g>
</g>
<g>
</g>
<g>
</g>
<g>
</g>
<g>
</g>
<g>
</g>
</svg>
