<?xml version="1.0" encoding="iso-8859-1"?>
<!-- Generator: Adobe Illustrator 19.0.0, SVG Export Plug-In . SVG Version: 6.00 Build 0)  -->
<svg version="1.1" id="Layer_1" xmlns="http://www.w3.org/2000/svg" xmlns:xlink="http://www.w3.org/1999/xlink" x="0px" y="0px"
	 viewBox="0 0 512 512" style="enable-background:new 0 0 512 512;" xml:space="preserve">
<g>
	<g>
		<path d="M501.344,133.336H320h-21.328H117.336c-5.891,0-10.664,4.766-10.664,10.656s4.773,10.672,10.664,10.672h181.336v42.672H56
			L0,122.664l18.547,130.672l191.484,18.859c13.289,22.516,53.156,71.766,88.641,74.172v21.625h-64v21.344H448
			c17.688,0,32-14.328,32-32c0-5.891-4.781-10.672-10.656-10.672c-5.906,0-10.672,4.781-10.672,10.672
			c0,5.875-4.797,10.656-10.672,10.656h-53.328v-21.328c41.234,0,74.672-33.438,74.672-74.672s-33.438-74.656-74.672-74.656H320
			v-42.672h181.344c5.875,0,10.656-4.781,10.656-10.672S507.219,133.336,501.344,133.336z M373.344,367.992H320v-21.5
			c15.875,0.047,36.938,0.094,53.344,0.141V367.992z M394.672,218.665C424.078,218.664,448,242.586,448,271.992
			c0,0.094,0,0.188,0,0.266c-37.812,3.562-65-2.734-80.844-18.734c-11.297-11.406-14.406-25.75-15.156-34.859H394.672z
			 M330.594,218.664c0.75,12.5,4.75,32.891,21.141,49.609c17.141,17.484,42.984,26.281,77.016,26.281
			c4.656,0,9.484-0.172,14.469-0.5c-8.423,18.423-27.001,31.282-48.548,31.282c-8.375,0-27.812-0.062-46.609-0.109
			c-18.828-0.047-38.297-0.094-46.719-0.094c-9.828,0-24.203-8.25-39.453-22.656c-14.383-13.578-27.188-30.438-33.492-41.125
			l-5.5-9.328l-10.781-1.062l-174.806-17.22l-4.508-31.797l6.133,8.188l6.398,8.531H56H330.594z"/>
	</g>
</g>
<g>
	<g>
		<path d="M320,261.336h-10.656v-10.672c0-5.891-4.781-10.672-10.672-10.672S288,244.773,288,250.664v10.672h-10.656
			c-5.906,0-10.672,4.766-10.672,10.656s4.766,10.672,10.672,10.672H288v10.672c0,5.891,4.781,10.656,10.672,10.656
			s10.672-4.766,10.672-10.656v-10.672H320c5.906,0,10.672-4.781,10.672-10.672S325.906,261.336,320,261.336z"/>
	</g>
</g>
<g>
</g>
<g>
</g>
<g>
</g>
<g>
</g>
<g>
</g>
<g>
</g>
<g>
</g>
<g>
</g>
<g>
</g>
<g>
</g>
<g>
</g>
<g>
</g>
<g>
</g>
<g>
</g>
<g>
</g>
</svg>
