<?xml version="1.0" encoding="iso-8859-1"?>
<!-- Generator: Adobe Illustrator 19.0.0, SVG Export Plug-In . SVG Version: 6.00 Build 0)  -->
<svg version="1.1" id="Layer_1" xmlns="http://www.w3.org/2000/svg" xmlns:xlink="http://www.w3.org/1999/xlink" x="0px" y="0px"
	 viewBox="0 0 512 512" style="enable-background:new 0 0 512 512;" xml:space="preserve">
<g>
	<g>
		<path d="M490.656,160H352V21.344C352,9.562,342.438,0,330.656,0h-149.32C169.555,0,160,9.562,160,21.344V160H21.336
			C9.555,160,0,169.562,0,181.344v149.328C0,342.453,9.555,352,21.336,352H160v138.672c0,11.781,9.555,21.328,21.336,21.328h149.32
			c11.781,0,21.344-9.547,21.344-21.328V352h138.656c11.797,0,21.344-9.547,21.344-21.328V181.344
			C512,169.562,502.453,160,490.656,160z M490.656,330.672H352h-21.344V352v138.672h-149.32V352v-21.328H160H21.336V181.344H160
			h21.336V160V21.344h149.32V160v21.344H352h138.656V330.672z"/>
	</g>
</g>
<g>
	<g>
		<path d="M292.047,235.047c-7.469-4.922-16.516-7.844-25.578-10.391v-73.547c0.094-0.016,0.188-0.031,0.297-0.047
			c10.984-1.969,19.906-1.766,20.562-1.75c5.891,0,11.141-4.75,11.141-10.641c0-5.75-4.562-10.438-10.25-10.656
			c-0.812-0.031-9.844-0.344-21.75,1.484V74.672c0-5.891-4.781-10.672-10.672-10.672c-5.898,0-10.672,4.781-10.672,10.672v60.125
			c-9.117,3.297-18.227,8.156-25.68,15.328c-11.266,10.844-16.953,24.938-16.922,41.906c0.031,16.578,6.383,29.422,18.867,38.172
			c7.109,4.984,15.336,8.094,23.734,10.641v59.828c-5.977,2.453-11.75,5.297-16.758,9.109c-10.242,7.781-15.43,18.328-15.43,31.328
			c0,21.953,11.07,40.094,32.008,52.453c0.062,0.031,0.117,0.062,0.18,0.109v43.672c0,5.891,4.773,10.656,10.672,10.656
			c5.891,0,10.672-4.766,10.672-10.656v-34.406c4.391,1.344,7.531,2,8.5,2.172c0,0.016,1.516,0.234,2.156,0.234
			c5.891,0,10.672-4.781,10.672-10.672c0-5.234-3.781-9.578-8.766-10.484v-0.016c-0.062-0.016-5.5-1.047-12.562-3.828v-64.906
			c9.297-3.422,18.703-7.156,26.5-13.297c10.812-8.5,16.297-20.094,16.297-34.469C309.266,253.562,303.469,242.578,292.047,235.047z
			 M245.125,367.078c-7.211-7.219-10.859-15.906-10.859-25.969c0-7.953,3.312-12.625,10.859-16.859V367.078z M245.125,218.359
			c-13.719-4.953-21.242-11.344-21.266-26.375c-0.023-11.062,3.359-19.703,10.336-26.438c3.195-3.094,6.961-5.578,10.93-7.578
			V218.359z M266.469,292.531v-45.594c15.094,4.781,21.469,9.422,21.469,20.734C287.938,280.609,281.281,286.375,266.469,292.531z"
			/>
	</g>
</g>
<g>
</g>
<g>
</g>
<g>
</g>
<g>
</g>
<g>
</g>
<g>
</g>
<g>
</g>
<g>
</g>
<g>
</g>
<g>
</g>
<g>
</g>
<g>
</g>
<g>
</g>
<g>
</g>
<g>
</g>
</svg>
