<?xml version="1.0" encoding="iso-8859-1"?>
<!-- Generator: Adobe Illustrator 19.0.0, SVG Export Plug-In . SVG Version: 6.00 Build 0)  -->
<svg version="1.1" id="Layer_1" xmlns="http://www.w3.org/2000/svg" xmlns:xlink="http://www.w3.org/1999/xlink" x="0px" y="0px"
	 viewBox="0 0 512 512" style="enable-background:new 0 0 512 512;" xml:space="preserve">
<g>
	<g>
		<path d="M512,265.32c0-17.062-11.5-32.109-27.938-36.578l-3.188-0.859l1.219-3.062c1.781-4.516,2.656-9.219,2.656-14
			c0-20.922-17.031-37.938-37.938-37.938H305.219h-8.625l6.812-5.266c13.531-10.484,18.375-28.828,11.781-44.641
			c-5.906-14.172-19.656-23.328-35.031-23.328c-5,0-9.938,1-14.594,2.953L72.719,182.477c-21.312,9.109-39.438,24.109-52.406,43.391
			C7.031,245.617,0,268.695,0,292.602c0,32,12.469,62.078,35.062,84.688c22.625,22.609,52.688,35.062,84.688,35.062
			c1.125,0,2.281-0.016,3.469-0.047h269.062c20.938,0,37.969-17.031,37.969-37.938c0-4.328-0.75-8.578-2.188-12.641l-1.406-3.922
			h4.156h16c20.906,0,37.938-17.031,37.938-37.969c0-4.781-0.875-9.484-2.656-13.969l-1.219-3.062l3.188-0.859
			C500.5,297.477,512,282.414,512,265.32z M474.094,281.898H272.562v21.375h174.25c9.125,0,16.562,7.438,16.562,16.562
			c0,9.141-7.438,16.562-16.562,16.562h-174.25v21.406h119.719c9.156,0,16.594,7.422,16.594,16.562
			c0,9.125-7.438,16.562-16.594,16.562c-2.438,0-270.375,0.062-272.531,0.062c-26.25,0-50.969-10.234-69.562-28.812
			c-18.562-18.578-28.781-43.281-28.781-69.578c0-26.281,10.219-50.984,28.781-69.547c10.156-10.156,22.625-18.094,36.031-22.953
			l-0.031-0.016l-0.094-0.141l0.156-0.062l3.531-1.469l183.938-76.094l0.531-0.203l0.031-0.016h0.031
			c1.906-0.719,3.875-1.078,5.844-1.078c6.75,0,12.75,4,15.312,10.172c2.312,5.469,1.031,10.297,0.031,12.703
			c-0.969,2.359-3.406,6.672-8.906,8.969l-94.062,41.375h254.281c9.125,0,16.562,7.438,16.562,16.578
			c0,9.125-7.438,16.562-16.562,16.562h-174.25v21.375h201.531c9.125,0,16.562,7.422,16.562,16.562
			C490.655,274.456,483.219,281.898,474.094,281.898z"/>
	</g>
</g>
<g>
	<g>
		<path d="M245.344,252.352c-3.188,0-6.062,1.406-8,3.625c-5.938,6.719-13.156,12.531-21.281,17.562
			c-0.062-0.047-0.062-0.109-0.094-0.156c-3.188-4.984-9.781-6.438-14.75-3.281c-4.469,2.844-6.094,8.469-4.062,13.203
			c-10.781,4.641-22.375,8.344-34.125,11.281c-0.062-0.391-0.156-0.781-0.281-1.172c-1.625-5.641-7.562-8.891-13.219-7.234
			c-5.531,1.609-8.75,7.312-7.344,12.844c-12.344,2.234-24.438,3.75-35.562,4.766c-0.438-5.859-5.562-10.25-11.406-9.812
			s-10.22,5.483-9.845,11.295c-18.656,0.891-31.188,0.438-31.594,0.422c-0.156,0-0.312,0-0.438,0
			c-5.906,0-10.688,4.766-10.688,10.656c0,5.75,4.562,10.422,10.25,10.656c0.469,0.016,4.312,0.172,10.719,0.172
			c5.938,0,14.062-0.125,23.719-0.609c0,0.062,0,0.125,0,0.188c0.438,5.875,5.562,10.281,11.438,9.828
			c5.875-0.438,10.281-5.547,9.844-11.422c0-0.031,0-0.062,0-0.109c7.188-0.656,14.812-1.531,22.688-2.656
			c5.156-0.75,10.188-1.562,15.062-2.453c0.062,0.266,0.125,0.531,0.188,0.797c1.656,5.656,7.594,8.891,13.25,7.25
			c5.375-1.578,8.594-7.062,7.406-12.484c14.656-3.609,27.875-8.016,39.656-13.188c0.156,0.344,0.344,0.703,0.562,1.031
			c3.156,4.984,9.75,6.438,14.719,3.281c4.781-3.016,6.312-9.188,3.656-14.078c10.938-6.594,20.125-14.078,27.531-22.469
			c1.656-1.891,2.656-4.359,2.656-7.062C256,257.133,251.219,252.352,245.344,252.352z"/>
	</g>
</g>
<g>
</g>
<g>
</g>
<g>
</g>
<g>
</g>
<g>
</g>
<g>
</g>
<g>
</g>
<g>
</g>
<g>
</g>
<g>
</g>
<g>
</g>
<g>
</g>
<g>
</g>
<g>
</g>
<g>
</g>
</svg>
