<?xml version="1.0" encoding="iso-8859-1"?>
<!-- Generator: Adobe Illustrator 19.0.0, SVG Export Plug-In . SVG Version: 6.00 Build 0)  -->
<svg version="1.1" id="Layer_1" xmlns="http://www.w3.org/2000/svg" xmlns:xlink="http://www.w3.org/1999/xlink" x="0px" y="0px"
	 viewBox="0 0 512 512" style="enable-background:new 0 0 512 512;" xml:space="preserve">
<g>
	<g>
		<path d="M512,265.32c0-17.062-11.5-32.109-27.969-36.578l-3.094-1l1.156-2.922c1.75-4.516,2.656-9.219,2.656-14
			c0-20.922-17.031-37.938-37.969-37.938h-20.125h-21.344l8.844-8.828c4.156-4.172,4.156-10.922,0-15.094
			c-4.156-4.156-10.906-4.156-15.094,0L384,164.055l-15.094-15.094c-4.156-4.156-10.906-4.156-15.094,0
			c-4.156,4.172-4.156,10.922,0,15.094l8.844,8.828h-66.062l6.812-5.266c13.531-10.484,18.375-28.828,11.781-44.641
			c-5.906-14.172-19.656-23.328-35.031-23.328c-5.031,0-9.938,1-14.625,2.953L72.688,182.477
			c-21.281,9.109-39.406,24.109-52.375,43.391C7,245.617,0,268.695,0,292.602c0,32,12.438,62.078,35.062,84.688
			c22.624,22.61,52.688,35.062,84.688,35.062c1.094,0,2.25-0.016,3.438-0.047h269.094c20.906,0,37.938-17.031,37.938-37.938
			c0-4.328-0.719-8.578-2.188-12.641l-1.188-3.922h3.969h15.969c20.938,0,37.969-17.031,37.969-37.969
			c0-4.781-0.906-9.484-2.656-13.969l-1.062-3.094l3-0.828C500.5,297.477,512,282.414,512,265.32z M426.656,194.242h20.125
			c9.156,0,16.562,7.438,16.562,16.578c0,9.125-7.406,16.562-16.562,16.562h-20.125V194.242z M362.656,194.242h42.656v33.141
			h-42.656V194.242z M474.062,281.898h-201.5v21.375h174.219c9.156,0,16.562,7.438,16.562,16.562
			c0,9.141-7.406,16.562-16.562,16.562H272.562v21.406h119.719c9.156,0,16.594,7.422,16.594,16.562
			c0,9.125-7.438,16.562-16.594,16.562c-2.438,0-270.375,0.062-272.531,0.062c-26.25,0-50.969-10.234-69.594-28.812
			c-18.562-18.578-28.781-43.281-28.781-69.578c0-26.281,10.219-50.984,28.781-69.547c10.188-10.156,22.625-18.094,36.031-22.953
			v-0.016l-0.125-0.141l0.188-0.062l3.531-1.469l183.938-76.094l0.5-0.203l0.031-0.016h0.031h0.031
			c1.875-0.719,3.844-1.078,5.844-1.078c6.719,0,12.719,4,15.281,10.172c2.344,5.469,1.031,10.297,0.062,12.703
			c-0.969,2.359-3.406,6.672-8.906,8.969L192.5,194.242h148.812v33.141h-68.75v21.375h201.5c9.156,0,16.562,7.422,16.562,16.562
			S483.219,281.898,474.062,281.898z"/>
	</g>
</g>
<g>
</g>
<g>
</g>
<g>
</g>
<g>
</g>
<g>
</g>
<g>
</g>
<g>
</g>
<g>
</g>
<g>
</g>
<g>
</g>
<g>
</g>
<g>
</g>
<g>
</g>
<g>
</g>
<g>
</g>
</svg>
