<?xml version="1.0" encoding="iso-8859-1"?>
<!-- Generator: Adobe Illustrator 19.0.0, SVG Export Plug-In . SVG Version: 6.00 Build 0)  -->
<svg version="1.1" id="Layer_1" xmlns="http://www.w3.org/2000/svg" xmlns:xlink="http://www.w3.org/1999/xlink" x="0px" y="0px"
	 viewBox="0 0 512 512" style="enable-background:new 0 0 512 512;" xml:space="preserve">
<g>
	<g>
		<path d="M315.157,96.859c-6.609,0-11.875,1.062-15.281,2.812c-11.094,5.703-20.094,50.328-25.906,106.641l-7.281-7.297V0h-21.367
			v199.016l-7.289,7.297C232.22,150,223.228,105.375,212.134,99.672c-3.414-1.75-8.68-2.812-15.289-2.812
			c-53.672,0-196.18,69.531-159.008,398.312C39.119,506.516,43.869,512,54.283,512c14.062,0,38.461-10,78.609-29
			c25.383-12.016,46.359-13.969,62.641-13.969c7.898,0,14.695,0.453,20.344,0.453c7.312,0,12.711-0.766,16.133-4.297
			c15.18-15.656,16.414-133.391,8.555-231.203l15.438-15.438l15.437,15.438c-7.859,97.812-6.625,215.547,8.562,231.203
			c3.406,3.531,8.812,4.297,16.125,4.297c5.656,0,12.438-0.453,20.344-0.453c16.281,0,37.25,1.953,62.641,13.969
			c40.141,19,64.547,29,78.609,29c10.406,0,15.156-5.484,16.438-16.828C511.345,166.391,368.845,96.859,315.157,96.859z
			 M223.072,393.641c-1.516,33.297-4.547,48.312-6.32,54.484c-2.219,0-5.656-0.078-8.625-0.188
			c-3.727-0.125-7.945-0.266-12.594-0.266c-16.273,0-41.422,1.656-71.773,16.031c-15.352,7.25-49.25,23.297-65,26.406
			c-9.336-84.469-7.125-157.281,6.57-216.438c10.938-47.25,28.969-85.172,53.586-112.719c13.422-15.031,28.352-26.469,44.375-34.016
			c16.727-7.859,29.039-8.719,33.555-8.719c1.289,0,2.344,0.062,3.195,0.141c2.297,5.109,7.25,19.312,12.375,54.531
			c4.422,30.375,7.93,69.5,9.867,110.156C224.205,323.312,224.486,362.578,223.072,393.641z M453.251,490.109
			c-15.75-3.109-49.656-19.156-65-26.406c-30.359-14.375-55.5-16.031-71.781-16.031c-4.656,0-8.875,0.141-12.594,0.266
			c-2.969,0.109-6.406,0.188-8.625,0.188c-1.781-6.172-4.797-21.188-6.312-54.484c-1.422-31.062-1.141-70.328,0.781-110.594
			c1.938-40.656,5.438-79.781,9.875-110.156c5.125-35.219,10.078-49.422,12.375-54.531c0.844-0.078,1.906-0.141,3.188-0.141
			c4.516,0,16.828,0.859,33.562,8.719c16.016,7.547,30.938,18.984,44.375,34.016c24.609,27.547,42.625,65.469,53.578,112.719
			C460.376,332.844,462.579,405.641,453.251,490.109z"/>
	</g>
</g>
<g>
</g>
<g>
</g>
<g>
</g>
<g>
</g>
<g>
</g>
<g>
</g>
<g>
</g>
<g>
</g>
<g>
</g>
<g>
</g>
<g>
</g>
<g>
</g>
<g>
</g>
<g>
</g>
<g>
</g>
</svg>
