<?xml version="1.0" encoding="iso-8859-1"?>
<!-- Generator: Adobe Illustrator 19.0.0, SVG Export Plug-In . SVG Version: 6.00 Build 0)  -->
<svg version="1.1" id="Layer_1" xmlns="http://www.w3.org/2000/svg" xmlns:xlink="http://www.w3.org/1999/xlink" x="0px" y="0px"
	 viewBox="0 0 512 512" style="enable-background:new 0 0 512 512;" xml:space="preserve">
<g>
	<g>
		<path d="M437.344,181.332H416V170.66c0-11.781-9.547-21.328-21.328-21.328H117.344c-11.781,0-21.344,9.547-21.344,21.328v10.672
			H74.672C33.438,181.332,0,214.762,0,255.996s33.438,74.672,74.672,74.672H96v10.656c0,11.781,9.562,21.344,21.344,21.344h277.328
			c11.781,0,21.328-9.562,21.328-21.344v-10.656h21.344c41.234,0,74.656-33.438,74.656-74.672S478.578,181.332,437.344,181.332z
			 M96,309.324H74.672c-29.406,0-53.328-23.922-53.328-53.328s23.922-53.336,53.328-53.336H96V309.324z M394.672,341.324H117.344
			V170.66h277.328V341.324z M437.344,309.324H416V202.66h21.344c29.406,0,53.328,23.93,53.328,53.336
			S466.75,309.324,437.344,309.324z"/>
	</g>
</g>
<g>
	<g>
		<path d="M362.859,298.668H149.531c-0.062,0-0.125,0-0.188,0c-5.891,0-10.672,4.781-10.672,10.656
			c0,5.906,4.781,10.672,10.672,10.672c0.062,0,0.125-0.016,0.188-0.016v0.016h213.328c5.891,0,10.672-4.766,10.672-10.672
			C373.531,303.449,368.75,298.668,362.859,298.668z"/>
	</g>
</g>
<g>
	<g>
		<path d="M362.766,255.996H149.438v0.016c-0.062,0-0.125-0.016-0.188-0.016c-5.891,0-10.672,4.766-10.672,10.672
			c0,5.875,4.781,10.656,10.672,10.656c0.062,0,0.125,0,0.188,0h213.328c5.891,0,10.672-4.781,10.672-10.656
			C373.438,260.762,368.657,255.996,362.766,255.996z"/>
	</g>
</g>
<g>
</g>
<g>
</g>
<g>
</g>
<g>
</g>
<g>
</g>
<g>
</g>
<g>
</g>
<g>
</g>
<g>
</g>
<g>
</g>
<g>
</g>
<g>
</g>
<g>
</g>
<g>
</g>
<g>
</g>
</svg>
