<?xml version="1.0" encoding="iso-8859-1"?>
<!-- Generator: Adobe Illustrator 19.0.0, SVG Export Plug-In . SVG Version: 6.00 Build 0)  -->
<svg version="1.1" id="Layer_1" xmlns="http://www.w3.org/2000/svg" xmlns:xlink="http://www.w3.org/1999/xlink" x="0px" y="0px"
	 viewBox="0 0 512.001 512.001" style="enable-background:new 0 0 512.001 512.001;" xml:space="preserve">
<g>
	<g>
		<path d="M502.38,96.133c-100.484,0-60.188-53.773-134.156-64.141c-1.094-0.148-2.219-0.219-3.375-0.219
			c-28.297-0.008-78.547,42.891-78.547,42.891h-19.641V62.172C279.099,57.773,288.005,45.93,288.005,32c0-17.68-14.328-32-32-32
			s-32,14.32-32,32c0,13.93,8.906,25.773,21.336,30.172v12.492h-19.633c0,0-50.25-42.898-78.539-42.898
			c-1.164,0-2.297,0.078-3.391,0.227C69.81,42.359,110.114,96.133,9.614,96.133c-2.938,0-6.016-0.047-9.211-0.141
			c36.648,51.453,67.188,70.719,103.961,70.719c28.133,0,59.914-11.273,100.859-28.047l40.117,13.922v7.406v93.742
			c-6.359-2.625-12.578-7.469-17.961-14.18c-8.788-10.945-14.038-24.984-14.038-37.554c0-9.969,3.359-17.352,10.266-22.57
			c1.508-1.133,3.18-2.164,4.992-3.094c3.594-1.719,6.07-5.391,6.07-9.641c0-5.891-4.773-10.664-10.664-10.664
			c-1.812,0-3.516,0.453-5.008,1.25c0,0-0.078,0.039-0.109,0.055c-16.273,8.32-26.883,23.156-26.883,44.664
			c0,23.281,12.438,48.578,31.031,63.141c-18.594,11.188-31.031,31.562-31.031,54.859c0,23.047,12.195,43.266,30.484,54.516
			c-12.086,9.781-19.82,24.719-19.82,41.484c0,18.391,9.312,34.609,23.477,44.203c-7.898,7.734-12.805,18.531-12.805,30.469
			c0,4.75,0.797,9.344,2.234,13.609c1.281,4.453,5.383,7.719,10.242,7.719c5.891,0,10.672-4.781,10.672-10.672
			c0-1.328-0.227-2.609-0.672-3.781c-0.742-2.156-1.148-4.469-1.148-6.875c0-7.891,4.297-14.781,10.672-18.469V512h21.32v-39.797
			c6.375,3.688,10.688,10.578,10.688,18.469c0,2.312-0.391,4.547-1.078,6.641c-0.5,1.234-0.734,2.609-0.734,4.016
			c0,5.891,4.766,10.672,10.656,10.672c4.906,0,9-3.297,10.266-7.797c1.422-4.25,2.203-8.812,2.203-13.531
			c0-11.938-4.906-22.734-12.797-30.469c14.172-9.594,23.484-25.812,23.484-44.203c0-16.766-7.75-31.703-19.828-41.484
			c18.297-11.25,30.484-31.469,30.484-54.516c0-23.297-12.438-43.672-31.031-54.859c18.594-14.562,31.031-39.859,31.031-63.141
			c0-21.484-10.594-36.297-26.812-44.625c-0.109-0.055-0.391-0.195-0.391-0.195c-1.453-0.727-3.078-1.148-4.797-1.148
			c-5.891,0-10.656,4.773-10.656,10.664c0,4.164,2.375,7.766,5.859,9.523c1.891,0.953,3.641,2.031,5.203,3.211
			c6.906,5.219,10.25,12.602,10.25,22.57c0,12.57-5.25,26.609-14.031,37.555c-5.375,6.711-11.594,11.555-17.969,14.18v-93.742
			v-7.406l40.125-13.922c40.938,16.773,72.719,28.047,100.859,28.047c36.766,0,67.312-19.266,103.953-70.719
			C508.411,96.094,505.333,96.133,502.38,96.133z M245.341,446.172c-12.414-4.406-21.336-16.281-21.336-30.172
			c0-13.906,8.922-25.766,21.336-30.172V446.172z M245.341,361.312c-18.383-4.75-32-21.469-32-41.312
			c0-19.859,13.617-36.578,32-41.328V361.312z M245.342,130.008L245.342,130.008l-33.118-11.5l-7.617-2.648l-7.469,3.062
			c-40.906,16.758-69.203,26.453-92.773,26.453c-14.695,0-27.453-3.953-40.164-12.461c-6.773-4.531-13.68-10.445-20.82-17.852
			c35.43-5.734,50.242-21.062,63.812-38.797c4.586-5.984,8.203-10.711,13.469-14.398c6.109-4.281,14.641-7.141,26.078-8.742
			c0.008-0.008,0.141-0.023,0.43-0.023c1.859,0,12.414,0.852,37.711,17.641c14.914,9.906,26.867,20.055,26.977,20.148l5.984,5.102
			h7.867h19.633V130.008z M256.005,42.664c-5.883,0-10.664-4.789-10.664-10.664c0-5.883,4.781-10.672,10.664-10.672
			c5.875,0,10.656,4.789,10.656,10.672C266.661,37.875,261.88,42.664,256.005,42.664z M266.661,446.172v-60.344
			c12.422,4.406,21.344,16.266,21.344,30.172C288.005,429.891,279.083,441.766,266.661,446.172z M298.661,320
			c0,19.844-13.609,36.562-32,41.312v-82.641C285.052,283.422,298.661,300.141,298.661,320z M447.817,132.914
			c-12.719,8.508-25.469,12.461-40.172,12.461c-23.578,0-51.859-9.695-92.766-26.453l-7.469-3.055l-7.625,2.641l-33.125,11.5V95.992
			h19.641h7.859l6-5.102c0.109-0.102,11.75-10.016,26.625-19.922c25.531-17,36.188-17.867,38.062-17.867
			c0.281,0,0.406,0.023,0.406,0.023c11.453,1.602,19.984,4.461,26.094,8.742c5.266,3.688,8.875,8.414,13.469,14.398
			c13.562,17.734,28.375,33.062,63.812,38.797C461.489,122.469,454.583,128.383,447.817,132.914z"/>
	</g>
</g>
<g>
</g>
<g>
</g>
<g>
</g>
<g>
</g>
<g>
</g>
<g>
</g>
<g>
</g>
<g>
</g>
<g>
</g>
<g>
</g>
<g>
</g>
<g>
</g>
<g>
</g>
<g>
</g>
<g>
</g>
</svg>
