<?xml version="1.0" encoding="iso-8859-1"?>
<!-- Generator: Adobe Illustrator 19.0.0, SVG Export Plug-In . SVG Version: 6.00 Build 0)  -->
<svg version="1.1" id="Layer_1" xmlns="http://www.w3.org/2000/svg" xmlns:xlink="http://www.w3.org/1999/xlink" x="0px" y="0px"
	 viewBox="0 0 512 512" style="enable-background:new 0 0 512 512;" xml:space="preserve">
<g>
	<g>
		<path d="M405.336,213.344V96c0-11.781-9.562-21.328-21.344-21.328h-74.656V53.344C309.336,23.875,285.461,0,256,0
			c-29.453,0-53.336,23.875-53.336,53.344v21.328H128c-11.781,0-21.336,9.547-21.336,21.328v117.344
			c0,11.781,9.555,21.328,21.336,21.328V352c-11.781,0-21.336,9.562-21.336,21.344v117.328c0,11.781,9.555,21.328,21.336,21.328
			h255.992c11.781,0,21.344-9.547,21.344-21.328V373.344c0-11.781-9.562-21.344-21.344-21.344V234.672
			C395.773,234.672,405.336,225.125,405.336,213.344z M224,53.344c0-17.656,14.352-32,32-32s31.992,14.344,31.992,32v21.328H224
			V53.344z M362.664,234.672V352c-5.891,0-10.672,4.781-10.672,10.672s4.781,10.672,10.672,10.672h21.328v117.328H128V373.344
			h21.336c5.891,0,10.664-4.781,10.664-10.672S155.227,352,149.336,352V234.672c5.891,0,10.664-4.781,10.664-10.672
			s-4.805-10.656-10.695-10.656H128V96h255.992v117.344h-21.328c-5.891,0-10.672,4.766-10.672,10.656
			S356.773,234.672,362.664,234.672z"/>
	</g>
</g>
<g>
	<g>
		<path d="M287.992,261.344v-32H224v32h-32v64h32v32h63.992v-32h32v-64H287.992z M298.664,304h-32v32h-21.328v-32h-32v-21.328h32
			v-32h21.328v32h32V304z"/>
	</g>
</g>
<g>
</g>
<g>
</g>
<g>
</g>
<g>
</g>
<g>
</g>
<g>
</g>
<g>
</g>
<g>
</g>
<g>
</g>
<g>
</g>
<g>
</g>
<g>
</g>
<g>
</g>
<g>
</g>
<g>
</g>
</svg>
