<?xml version="1.0" encoding="iso-8859-1"?>
<!-- Generator: Adobe Illustrator 19.0.0, SVG Export Plug-In . SVG Version: 6.00 Build 0)  -->
<svg version="1.1" id="Layer_1" xmlns="http://www.w3.org/2000/svg" xmlns:xlink="http://www.w3.org/1999/xlink" x="0px" y="0px"
	 viewBox="0 0 512.001 512.001" style="enable-background:new 0 0 512.001 512.001;" xml:space="preserve">
<g>
	<g>
		<path d="M364.747,405.016c-2.938,2.328-40.094,33.844-39.156,66.891c0.281,24.156,17.453,39.641,39.156,40.094
			c21.688-0.453,38.844-15.938,39.125-40.094C404.81,438.859,367.653,407.344,364.747,405.016z M382.528,471.656
			c-0.062,5.875-1.844,10.719-5.188,14c-3.125,3.078-7.469,4.812-12.594,5c-5.156-0.188-9.5-1.922-12.625-5
			c-3.328-3.281-5.125-8.125-5.188-14v-0.172v-0.188c-0.25-8.438,4.531-19.453,13.438-31.016c1.453-1.891,2.922-3.672,4.359-5.328
			c1.438,1.656,2.906,3.438,4.359,5.328c8.906,11.562,13.688,22.578,13.453,31.016v0.188h0.002L382.528,471.656z"/>
	</g>
</g>
<g>
	<g>
		<path d="M365.934,239.953c0,0-35.641-239.953-109.938-239.953c-74.297,0-109.936,239.953-109.936,239.953
			c-30.336,10.703-52.086,39.609-52.086,73.625c0,43.047,34.844,77.953,77.875,78.047c18.734,21.219,49.445,35.047,84.148,35.047
			s65.406-13.828,84.156-35.047c43.031-0.094,77.875-35,77.875-78.047C418.028,279.562,396.278,250.656,365.934,239.953z
			 M380.122,353.642c-10.688,10.703-24.906,16.625-40.031,16.656l-9.594,0.016l-6.345,7.186
			c-15.391,17.438-40.875,27.844-68.156,27.844c-27.289,0-52.766-10.406-68.164-27.844l-6.344-7.188l-9.594-0.016
			c-15.125-0.031-29.336-5.953-40.023-16.656c-10.68-10.719-16.57-24.938-16.57-40.062c0-24.016,15.219-45.516,37.859-53.516
			l12.117-4.266l1.883-12.719c0.086-0.578,8.883-59.094,26.422-116.906c10.039-33.093,20.836-59.171,32.078-77.53
			c10.797-17.609,21.57-27.297,30.336-27.297c8.75,0,19.484,9.641,30.25,27.172c11.234,18.281,22.016,44.281,32.047,77.266
			c17.578,57.812,26.453,116.719,26.547,117.297l1.875,12.719l12.125,4.266c22.625,8,37.844,29.5,37.844,53.516
			C396.685,328.705,390.81,342.924,380.122,353.642z"/>
	</g>
</g>
<g>
	<g>
		<path d="M172.02,333.344c-10.898,0-19.766-8.875-19.766-19.781c0-5.891-4.773-10.656-10.664-10.656
			c-5.891,0-10.672,4.766-10.672,10.656c0,22.719,18.406,41.125,41.117,41.125c5.891,0,10.664-4.781,10.664-10.672
			S177.911,333.344,172.02,333.344z"/>
	</g>
</g>
<g>
</g>
<g>
</g>
<g>
</g>
<g>
</g>
<g>
</g>
<g>
</g>
<g>
</g>
<g>
</g>
<g>
</g>
<g>
</g>
<g>
</g>
<g>
</g>
<g>
</g>
<g>
</g>
<g>
</g>
</svg>
