<?xml version="1.0" encoding="iso-8859-1"?>
<!-- Generator: Adobe Illustrator 19.0.0, SVG Export Plug-In . SVG Version: 6.00 Build 0)  -->
<svg version="1.1" id="Layer_1" xmlns="http://www.w3.org/2000/svg" xmlns:xlink="http://www.w3.org/1999/xlink" x="0px" y="0px"
	 viewBox="0 0 512 512" style="enable-background:new 0 0 512 512;" xml:space="preserve">
<g>
	<g>
		<path d="M74.672,0v85.336H96V512h320V85.336h21.328V0H74.672z M394.673,490.673h-82.812h-85.312H117.328V85.336h277.344v257.305
			c-2.281-14.156-11.641-26.844-25.875-32.719c-5.312-2.188-10.828-3.219-16.25-3.219c-16.766,0-32.672,9.938-39.453,26.406
			l-40.672,98.625c-8.969,21.781,1.406,46.719,23.188,55.688c5.312,2.203,10.828,3.25,16.25,3.25
			c16.766,0,32.672-9.953,39.453-26.406l40.672-98.625c1.281-3.141,2.172-6.344,2.688-9.562V490.673z M316.546,380.687
			l16.266-39.453c3.312-8.016,11.047-13.203,19.734-13.203c2.781,0,5.5,0.547,8.125,1.625c5.266,2.172,9.375,6.266,11.562,11.516
			c2.188,5.281,2.188,11.062,0.016,16.344l-16.265,39.437L316.546,380.687z M347.86,416.672l-16.266,39.438
			c-3.312,8.031-11.062,13.219-19.734,13.219c-2.781,0-5.516-0.531-8.125-1.625c-10.875-4.469-16.062-16.969-11.578-27.844
			l16.265-39.438L347.86,416.672z M416,64H96V21.336h21.328C117.328,27.227,122.109,32,128,32s10.672-4.773,10.672-10.664h42.656
			C181.328,27.227,186.109,32,192,32s10.672-4.773,10.672-10.664h42.656C245.328,27.227,250.109,32,256,32
			s10.672-4.773,10.672-10.664h42.656C309.328,27.227,314.109,32,320,32s10.672-4.773,10.672-10.664h42.656
			C373.328,27.227,378.109,32,384,32s10.672-4.773,10.672-10.664H416V64z"/>
	</g>
</g>
<g>
	<g>
		<path d="M363.015,246.392c-7.75-14.172-22.375-22.211-37.484-22.211c-6.906,0-13.922,1.688-20.422,5.242l-93.594,51.156
			c-20.672,11.312-28.281,37.219-16.969,57.906c1.062,1.953,2.266,3.797,3.594,5.516l-4.781-5.984
			c-8.438-10.562-20.844-16.062-33.391-16.062c-9.328,0-18.719,3.031-26.578,9.312c-18.422,14.688-21.438,41.531-6.75,59.969
			l66.531,83.375c8.422,10.562,20.844,16.062,33.375,16.062c9.328,0,18.719-3.047,26.578-9.312
			c18.423-14.705,21.454-41.549,6.751-59.97l-60.688-76.062c8.219,9.875,20.359,15.375,32.828,15.375
			c6.922,0,13.922-1.688,20.422-5.25l93.609-51.156C366.718,292.986,374.312,267.079,363.015,246.392z M243.203,434.703
			c3.547,4.438,5.156,10.016,4.516,15.688c-0.641,5.656-3.438,10.719-7.891,14.281c-4.828,3.844-9.891,4.656-13.281,4.656
			c-6.547,0-12.625-2.922-16.703-8.031l-26.609-33.344l33.359-26.609L243.203,434.703z M203.281,384.672l-33.344,26.594
			l-26.609-33.344c-7.344-9.188-5.828-22.656,3.375-29.984c4.812-3.859,9.875-4.656,13.266-4.656c6.547,0,12.641,2.922,16.703,8.031
			L203.281,384.672z M242.203,336.735c-3.172,1.75-6.609,2.625-10.188,2.625c-7.828,0-15.016-4.25-18.75-11.109
			c-5.656-10.329-1.843-23.313,8.485-28.954l37.438-20.469l20.453,37.438L242.203,336.735z M335.814,285.578l-37.438,20.469
			l-20.469-37.438l37.437-20.468c3.188-1.75,6.609-2.625,10.188-2.625c7.828,0,15.016,4.25,18.766,11.109
			C349.939,266.953,346.126,279.937,335.814,285.578z"/>
	</g>
</g>
<g>
</g>
<g>
</g>
<g>
</g>
<g>
</g>
<g>
</g>
<g>
</g>
<g>
</g>
<g>
</g>
<g>
</g>
<g>
</g>
<g>
</g>
<g>
</g>
<g>
</g>
<g>
</g>
<g>
</g>
</svg>
