<?xml version="1.0" encoding="iso-8859-1"?>
<!-- Generator: Adobe Illustrator 19.0.0, SVG Export Plug-In . SVG Version: 6.00 Build 0)  -->
<svg version="1.1" id="Layer_1" xmlns="http://www.w3.org/2000/svg" xmlns:xlink="http://www.w3.org/1999/xlink" x="0px" y="0px"
	 viewBox="0 0 512 512" style="enable-background:new 0 0 512 512;" xml:space="preserve">
<g>
	<g>
		<path d="M249.503,415.828c-5.891,0-10.664,4.781-10.664,10.672s4.774,10.672,10.664,10.672c5.891,0,10.657-4.781,10.657-10.672
			S255.394,415.828,249.503,415.828z"/>
	</g>
</g>
<g>
	<g>
		<path d="M302.098,234.586c54.5-49.141,109.234-148.617,109.234-148.617s-45.516-14.273-58.844-27.156
			C333.629,40.586,325.848,0,325.848,0c-57.203,29.727-100.68,119.922-114.938,189.148c-9.109,9.562-14.719,22.5-14.719,36.758
			c0,11.805,3.844,22.703,10.344,31.547l9.281,142.906c-5.609,7.219-8.961,16.281-8.961,26.141c0,2.797,0.273,5.516,0.789,8.172
			c-28.25,24.531-109.531,11.156-106.914,69.781c0.234,5.281,45.102,7.547,93.039,7.547c55.156,0,114.391-2.984,114.391-7.766
			c0-35.094-4.375-21.359-16-77.734c0-9.766-3.297-18.766-8.812-25.953l10.312-144.75
			C297.895,249.547,300.832,242.344,302.098,234.586z M249.503,193.915c17.641,0,32,14.352,32,31.992
			c0.001,17.632-14.358,31.984-32,31.984c-17.633,0-31.984-14.352-31.984-31.984C217.519,208.266,231.871,193.915,249.503,193.915z
			 M263.003,386.047c-4.249-1.422-8.781-2.188-13.5-2.188c-4.625,0-9.078,0.734-13.25,2.094l-7.195-110.812
			c6.297,2.625,13.203,4.078,20.445,4.078c7.625,0,14.875-1.609,21.422-4.484L263.003,386.047z M270.832,426.5
			c0,11.766-9.578,21.328-21.329,21.328c-11.758,0-21.32-9.562-21.32-21.328s9.563-21.328,21.32-21.328
			C261.253,405.172,270.832,414.734,270.832,426.5z M286.051,487.421c-5.641,0.532-13.516,1.141-24.453,1.688
			c-19.891,1-43.985,1.562-67.829,1.562c-31.703,0-53.938-0.953-67.555-2.094c1.383-1.531,3.07-2.844,5-4.062
			c9.008-5.688,23.438-9.094,37.391-12.391c11.492-2.703,23.375-5.516,33.922-9.906c5.539-2.312,10.398-4.953,14.633-7.938
			c7.82,9.094,19.406,14.859,32.344,14.859c10.813,0,20.688-4.031,28.219-10.656c2.219,8.281,4.031,13.875,5.469,18.25
			C284.598,481.014,285.504,483.78,286.051,487.421z M249.504,172.593c-4.516,0-8.906,0.562-13.094,1.625
			c6.688-24.547,16.633-50.219,28.657-73.359c14.64-28.132,31.39-50.882,48.656-66.375c5.188,13.68,12.938,29.031,23.938,39.656
			c4.875,4.719,14.469,12.219,41.375,22.898c0.312,0.125,0.625,0.25,0.953,0.375c-6.891,11.43-16.219,26.352-27.047,42.242
			c-19.031,27.992-37.094,50.867-53.422,67.75C292.004,187.085,272.442,172.593,249.504,172.593z"/>
	</g>
</g>
<g>
	<g>
		<circle cx="249.503" cy="225.906" r="10.664"/>
	</g>
</g>
<g>
</g>
<g>
</g>
<g>
</g>
<g>
</g>
<g>
</g>
<g>
</g>
<g>
</g>
<g>
</g>
<g>
</g>
<g>
</g>
<g>
</g>
<g>
</g>
<g>
</g>
<g>
</g>
<g>
</g>
</svg>
