<?xml version="1.0" encoding="iso-8859-1"?>
<!-- Generator: Adobe Illustrator 19.0.0, SVG Export Plug-In . SVG Version: 6.00 Build 0)  -->
<svg version="1.1" id="Layer_1" xmlns="http://www.w3.org/2000/svg" xmlns:xlink="http://www.w3.org/1999/xlink" x="0px" y="0px"
	 viewBox="0 0 512 512" style="enable-background:new 0 0 512 512;" xml:space="preserve">
<g>
	<g>
		<path d="M346.125,135.922c-33.953,0-66.477,7.367-90.125,28.445c-23.648-21.07-56.18-28.445-90.125-28.445
			C86.781,135.914,0,175.945,0,175.945s37.477,197.477,256,200.133c218.531-2.656,256-200.133,256-200.133
			S425.219,135.922,346.125,135.922z M458.656,199.914c7.047-1.531,13.922-3.039,20.562-4.508
			c-6.781,5.352-13.656,10.531-20.562,15.523V199.914z M165.875,157.249c33.227,0.001,58.773,7.759,75.93,23.048L256,192.945
			l14.195-12.648c17.156-15.289,42.703-23.047,75.93-23.047c39.312,0,81.344,10.836,112,20.945
			c-73.469,16.031-167.414,34.992-200.805,34.992c-0.453,0-0.891-0.008-1.32-0.016c-32.023-0.516-126.844-19.445-201.172-35.32
			C85.367,167.843,126.883,157.249,165.875,157.249z M437.344,204.507v21.141c-8.031,5.273-16.062,10.266-24.062,14.906
			c-2.656,1.547-5.312,3.047-7.938,4.516v-33.867c8.594-1.766,17.531-3.633,26.812-5.594
			C433.875,205.242,435.609,204.875,437.344,204.507z M384,215.516v40.719c-14.406,7.047-28.688,13.008-42.656,17.836v-50.446
			C354.313,221.289,368.532,218.586,384,215.516z M320,227.313v53.305c-18.297,4.898-36.148,7.781-53.336,8.633V234.18
			C279.414,233.368,297.219,231.071,320,227.313z M245.336,233.945v55.305c-17.188-0.852-35.039-3.734-53.336-8.633v-54.031
			C214.859,230.453,232.672,232.906,245.336,233.945z M170.664,222.836v51.234c-13.984-4.828-28.25-10.789-42.664-17.836v-41.507
			C143.477,217.782,157.711,220.493,170.664,222.836z M106.664,210.454v34.617c-2.641-1.469-5.297-2.969-7.945-4.516
			c-7.992-4.641-16.023-9.633-24.055-14.906v-21.797c2.273,0.477,4.547,0.953,6.828,1.43
			C90.18,207.087,98.57,208.813,106.664,210.454z M53.336,199.344v11.578c-7.18-5.188-14.32-10.586-21.383-16.172
			C38.844,196.242,46.008,197.781,53.336,199.344z M448.781,262.353c-19.469,26.358-43.312,47.444-70.906,62.663
			c-34.688,19.125-75.688,29.125-121.875,29.719c-45.781-0.594-86.484-10.422-120.977-29.234
			c-27.5-14.984-51.328-35.797-70.82-61.828c-8.719-11.648-15.766-23.305-21.383-34.008C104.734,274.056,180.359,310.86,256,310.86
			c75.664,0,151.312-36.828,213.25-81.234C463.75,240.064,457.031,251.188,448.781,262.353z"/>
	</g>
</g>
<g>
</g>
<g>
</g>
<g>
</g>
<g>
</g>
<g>
</g>
<g>
</g>
<g>
</g>
<g>
</g>
<g>
</g>
<g>
</g>
<g>
</g>
<g>
</g>
<g>
</g>
<g>
</g>
<g>
</g>
</svg>
