<?xml version="1.0" encoding="iso-8859-1"?>
<!-- Generator: Adobe Illustrator 19.0.0, SVG Export Plug-In . SVG Version: 6.00 Build 0)  -->
<svg version="1.1" id="Layer_1" xmlns="http://www.w3.org/2000/svg" xmlns:xlink="http://www.w3.org/1999/xlink" x="0px" y="0px"
	 viewBox="0 0 512 512" style="enable-background:new 0 0 512 512;" xml:space="preserve">
<g>
	<g>
		<path d="M267.195,355.797c3.109-34.859-10.047-55.344-20.75-71.984c-7.234-11.234-12.938-20.094-12.016-31
			c0.766-9.141,6.812-15.672,14.453-23.922c7.453-8.031,15.891-17.141,20.359-30.406c4.984-14.812,3.875-31.891-3.359-52.203
			c-1.312-4.406-5.391-7.609-10.219-7.609c-5.891,0-10.672,4.781-10.672,10.672c0,1.281,0.25,2.5,0.656,3.641
			c12.469,34.578,0.922,47.016-12.406,61.406c-8.766,9.453-18.688,20.156-20.078,36.625c-1.531,18.141,7.047,31.453,15.328,44.344
			c9.953,15.469,20.219,31.438,17.328,59.859c-18.828,6.031-32.828,28.938-32.828,56.281c0,31.938,19.109,57.844,42.672,57.844
			c23.578,0,42.672-25.906,42.672-57.844C298.336,384.969,285.164,362.609,267.195,355.797z M255.664,448
			c-10.062,0-21.328-15.609-21.328-36.5s11.266-36.5,21.328-36.5c6.016,0,10.734,5.172,13,8.266
			c5.297,7.172,8.328,17.469,8.328,28.234C277.008,432.391,265.742,448,255.664,448z"/>
	</g>
</g>
<g>
	<g>
		<path d="M330.336,0H181.664c-17.672,0-32,14.328-32,32c0,13.688,8.594,25.344,20.656,29.922v364.734
			c0,47.141,38.219,85.344,85.344,85.344c47.141,0,85.344-38.203,85.344-85.344V62.172C353.43,57.781,362.336,45.938,362.336,32
			C362.336,14.328,348.008,0,330.336,0z M319.68,426.656c0,35.297-28.719,64.016-64.016,64.016s-64.016-28.719-64.016-64.016V64
			H319.68V426.656z M330.336,42.672H181.664c-5.875,0-10.672-4.781-10.672-10.672c0-5.875,4.797-10.656,10.672-10.656h148.672
			c5.875,0,10.656,4.781,10.656,10.656C340.992,37.891,336.211,42.672,330.336,42.672z"/>
	</g>
</g>
<g>
</g>
<g>
</g>
<g>
</g>
<g>
</g>
<g>
</g>
<g>
</g>
<g>
</g>
<g>
</g>
<g>
</g>
<g>
</g>
<g>
</g>
<g>
</g>
<g>
</g>
<g>
</g>
<g>
</g>
</svg>
