<?xml version="1.0" encoding="iso-8859-1"?>
<!-- Generator: Adobe Illustrator 19.0.0, SVG Export Plug-In . SVG Version: 6.00 Build 0)  -->
<svg version="1.1" id="Layer_1" xmlns="http://www.w3.org/2000/svg" xmlns:xlink="http://www.w3.org/1999/xlink" x="0px" y="0px"
	 viewBox="0 0 512 512" style="enable-background:new 0 0 512 512;" xml:space="preserve">
<g>
	<g>
		<path d="M416.113,104.852c-11.625-2.329-21.938-3.454-31.281-3.454c-36.844,0-58.704,17.469-86.845,47.375l0.156-106.47
			c0-5.891-14.312-10.656-31.953-10.656s-35.782,3.703-35.782,9.578c0,0-4.328,265.548-65.344,277.783
			C77.408,336.587-0.374,288.853,0.001,446.917c0,5.875,14.297,10.641,31.938,10.641c17.641,0,31.954-4.766,31.954-10.641
			c7.312-25.002,13-34.174,20.875-34.174c18.266,0,48.234,49.439,137.25,64.783c11.141,1.922,22.219,2.828,33.11,2.828
			C463.723,480.355,621.442,146.102,416.113,104.852z M466.191,310.228c-13.328,26.484-31.516,52-52.609,73.797
			c-22.375,23.109-47.031,41.375-73.313,54.281c-28,13.752-56.641,20.721-85.141,20.721c-9.828,0-19.75-0.844-29.485-2.531
			c-53.625-9.234-83.61-31.893-103.438-46.893c-13.453-10.156-24.062-18.188-37.438-18.188c-8.157,0-19.766,3.094-28.829,17.891
			c-3.719,6.047-7.094,14.078-10.703,25.594c-3.032,0.688-7.579,1.328-13.297,1.328c-4.156,0-7.688-0.344-10.484-0.781
			c0.547-21.453,2.828-38.953,6.781-52.156c3.609-12.016,8.562-20.5,15.125-25.922c13.047-10.781,34.672-11.281,62.063-11.922
			c19.25-0.453,41.094-0.953,63.844-5.516c22.234-4.469,39.235-24.953,51.954-62.656c8.406-24.891,15.312-58.204,20.547-99.032
			c6.61-51.562,8.891-101.594,9.641-124.204c3.781-0.578,8.812-1.062,14.781-1.062c4.219,0,7.797,0.359,10.594,0.812l-0.125,94.954
			l-0.078,53.922l36.953-39.266c26.453-28.125,43.032-40.672,71.298-40.672c8.031,0,16.891,1,27.078,3.047
			c29.641,5.953,51.234,18.891,64.172,38.484c11.781,17.812,16.562,41.719,13.828,69.157
			C487.504,257.618,479.301,284.181,466.191,310.228z"/>
	</g>
</g>
<g>
</g>
<g>
</g>
<g>
</g>
<g>
</g>
<g>
</g>
<g>
</g>
<g>
</g>
<g>
</g>
<g>
</g>
<g>
</g>
<g>
</g>
<g>
</g>
<g>
</g>
<g>
</g>
<g>
</g>
</svg>
