<?xml version="1.0" encoding="iso-8859-1"?>
<!-- Generator: Adobe Illustrator 19.0.0, SVG Export Plug-In . SVG Version: 6.00 Build 0)  -->
<svg version="1.1" id="Layer_1" xmlns="http://www.w3.org/2000/svg" xmlns:xlink="http://www.w3.org/1999/xlink" x="0px" y="0px"
	 viewBox="0 0 512.004 512.004" style="enable-background:new 0 0 512.004 512.004;" xml:space="preserve">
<g>
	<g>
		<path d="M508.875,63.462L448.539,3.126c-4.164-4.164-10.914-4.164-15.078,0c-4.172,4.164-4.172,10.922,0,15.086L441,25.751
			l-75.422,75.422l-15.086-15.086c-4.164-4.164-10.914-4.164-15.078,0c-4.172,4.172-4.172,10.922,0,15.086l-226.266,226.25
			l18.102,42.25L0,496.923l15.086,15.078l127.25-127.25l42.234,18.109l226.258-226.266c4.172,4.164,10.922,4.164,15.086,0
			s4.164-10.922,0-15.086l-15.086-15.086l75.422-75.414l7.547,7.539c4.164,4.164,10.914,4.164,15.078,0
			C513.047,74.384,513.047,67.626,508.875,63.462z M179.695,377.548l-31.672-13.562l-13.578-31.688l53.688-53.688l15.086,15.094
			c4.164,4.156,10.922,4.156,15.086,0s4.164-10.922,0-15.094l-15.086-15.078l30.164-30.164l15.086,15.086
			c4.164,4.156,10.922,4.156,15.086,0c4.164-4.172,4.164-10.922,0-15.086l-15.086-15.086l30.172-30.164l15.086,15.078
			c4.164,4.164,10.914,4.164,15.078,0s4.172-10.914,0-15.086l-15.078-15.078l56.766-56.773l45.258,45.25L179.695,377.548z
			 M395.75,131.345l-15.086-15.086l75.422-75.422l15.078,15.086L395.75,131.345z"/>
	</g>
</g>
<g>
</g>
<g>
</g>
<g>
</g>
<g>
</g>
<g>
</g>
<g>
</g>
<g>
</g>
<g>
</g>
<g>
</g>
<g>
</g>
<g>
</g>
<g>
</g>
<g>
</g>
<g>
</g>
<g>
</g>
</svg>
