<?xml version="1.0" encoding="iso-8859-1"?>
<!-- Generator: Adobe Illustrator 19.0.0, SVG Export Plug-In . SVG Version: 6.00 Build 0)  -->
<svg version="1.1" id="Layer_1" xmlns="http://www.w3.org/2000/svg" xmlns:xlink="http://www.w3.org/1999/xlink" x="0px" y="0px"
	 viewBox="0 0 512.001 512.001" style="enable-background:new 0 0 512.001 512.001;" xml:space="preserve">
<g>
	<g>
		<path d="M190.427,10.062C173.458,3.234,155.943,0,138.722,0C83.8,0.007,31.816,32.851,10.066,86.906
			c-28.594,71.024,5.812,151.782,76.844,180.36c16.969,6.844,34.484,10.062,51.719,10.062c54.906,0,106.891-32.844,128.641-86.898
			C295.865,119.398,261.459,38.648,190.427,10.062z M203.599,236.367C184.224,249.203,161.755,256,138.628,256
			c-14.984,0-29.703-2.859-43.75-8.516c-29.062-11.703-51.844-34.016-64.125-62.844c-10.875-25.523-12.359-53.446-4.438-79.696
			l216.72,87.227C233.896,210.055,220.427,225.211,203.599,236.367z M251.021,172.383L34.3,85.164
			c9.141-17.892,22.61-33.04,39.453-44.204c19.359-12.836,41.828-19.625,64.969-19.625c14.985,0,29.688,2.867,43.735,8.516
			c29.078,11.703,51.844,34.016,64.125,62.836C257.458,118.218,258.942,146.141,251.021,172.383z"/>
	</g>
</g>
<g>
	<g>
		<path d="M498.24,313.188c-23.876-49.579-73.407-78.524-125.001-78.524c-20.172,0-40.656,4.422-60.047,13.758
			c-68.984,33.219-97.984,116.063-64.765,185.063c23.875,49.594,73.421,78.516,125.015,78.516c20.172,0,40.641-4.422,60.031-13.766
			C502.475,465.017,531.458,382.173,498.24,313.188z M262.614,334.579c10.359-29.562,31.609-53.345,59.828-66.938
			C338.489,259.922,355.583,256,373.239,256c21.781,0,43.109,6.047,61.703,17.5c16.047,9.875,29.359,23.423,39,39.548
			L263.458,414.392C253.818,388.735,253.459,360.767,262.614,334.579z M484.053,412.079c-10.345,29.578-31.595,53.344-59.829,66.938
			c-16.047,7.734-33.141,11.656-50.781,11.656c-21.781,0-43.125-6.062-61.719-17.5c-16.031-9.875-29.359-23.438-39-39.562
			l210.501-101.344C492.865,357.923,493.225,385.892,484.053,412.079z"/>
	</g>
</g>
<g>
</g>
<g>
</g>
<g>
</g>
<g>
</g>
<g>
</g>
<g>
</g>
<g>
</g>
<g>
</g>
<g>
</g>
<g>
</g>
<g>
</g>
<g>
</g>
<g>
</g>
<g>
</g>
<g>
</g>
</svg>
