<?xml version="1.0" encoding="iso-8859-1"?>
<!-- Generator: Adobe Illustrator 19.0.0, SVG Export Plug-In . SVG Version: 6.00 Build 0)  -->
<svg version="1.1" id="Layer_1" xmlns="http://www.w3.org/2000/svg" xmlns:xlink="http://www.w3.org/1999/xlink" x="0px" y="0px"
	 viewBox="0 0 512.006 512.006" style="enable-background:new 0 0 512.006 512.006;" xml:space="preserve">
<g>
	<g>
		<path d="M493.372,18.547C480.997,6.188,464.794,0,448.591,0c-16.218,0-32.405,6.18-44.78,18.547L58.101,364.265l-2.188,76.655
			l0.094,0.094L3.218,493.795c-4.164,4.156-4.164,10.906,0,15.094c4.164,4.156,10.922,4.156,15.086,0l52.883-52.906l76.469-2.172
			l345.717-345.709C518.091,83.375,518.091,43.281,493.372,18.547z M478.278,93.015l-68.437,68.437
			c-4.188-3.656-10.531-3.5-14.531,0.492c-4,3.984-4.156,10.344-0.5,14.539l-30.219,30.211c-4.188-3.656-10.531-3.5-14.531,0.492
			c-3.984,3.992-4.141,10.352-0.484,14.539l-30.219,30.219c-4.188-3.703-10.578-3.562-14.578,0.445
			c-4.016,4.008-4.156,10.406-0.453,14.594l-30.219,30.219c-4.188-3.625-10.516-3.453-14.492,0.531
			c-3.977,3.969-4.148,10.297-0.531,14.484l-30.227,30.219c-4.188-3.609-10.515-3.438-14.492,0.547
			c-3.969,3.969-4.141,10.281-0.531,14.484l-75.265,75.266l-45.422,1.297l196.632-196.625c4.156-4.172,4.156-10.922,0-15.086
			c-4.156-4.172-10.906-4.172-15.078,0L77.874,419.14l1.305-45.781l75.258-75.281c4.188,3.797,10.648,3.688,14.687-0.344
			c4.031-4.047,4.148-10.5,0.359-14.688l30.211-30.211c4.188,3.703,10.578,3.562,14.586-0.445c4-4.008,4.141-10.398,0.445-14.586
			l30.21-30.211c4.18,3.789,10.641,3.68,14.68-0.359c4.039-4.039,4.148-10.5,0.359-14.68l30.211-30.211
			c4.188,3.742,10.609,3.617,14.625-0.406c4.031-4.016,4.156-10.445,0.406-14.632l30.219-30.211
			c4.188,3.656,10.547,3.5,14.531-0.492c4-3.992,4.156-10.352,0.5-14.539l68.438-68.429c7.922-7.93,18.469-12.297,29.687-12.297
			c11.219,0,21.75,4.367,29.688,12.297C494.653,50.008,494.653,76.649,478.278,93.015z"/>
	</g>
</g>
<g>
</g>
<g>
</g>
<g>
</g>
<g>
</g>
<g>
</g>
<g>
</g>
<g>
</g>
<g>
</g>
<g>
</g>
<g>
</g>
<g>
</g>
<g>
</g>
<g>
</g>
<g>
</g>
<g>
</g>
</svg>
