<?xml version="1.0" encoding="iso-8859-1"?>
<!-- Generator: Adobe Illustrator 19.0.0, SVG Export Plug-In . SVG Version: 6.00 Build 0)  -->
<svg version="1.1" id="Layer_1" xmlns="http://www.w3.org/2000/svg" xmlns:xlink="http://www.w3.org/1999/xlink" x="0px" y="0px"
	 viewBox="0 0 512 512" style="enable-background:new 0 0 512 512;" xml:space="preserve">
<g>
	<g>
		<path d="M458.672,138.672C458.672,62.094,396.586,0,320,0c-23.086,0-44.852,5.656-64,15.641C236.852,5.656,215.086,0,192,0
			C115.414,0,53.328,62.094,53.328,138.672c0,21.031,4.695,40.969,13.078,58.828l41.781,90.5c-10,32,6.281,224,73.141,224
			c21.031,0,54.047-178.484,74.656-178.625c0.008,0,0.023,0,0.023,0c20.617,0,53.609,178.625,74.641,178.625
			c66.852,0,83.141-192,73.141-224l41.805-90.5C453.977,179.641,458.672,159.703,458.672,138.672z M383.43,294.372
			c2.062,6.612,3.422,38.566-2.813,82.44c-6.438,45.344-18.156,82.266-32.133,101.281c-3.57,4.859-7.094,8.312-10.539,10.359
			c-1.891-4-4.562-10.375-8.094-20.453c-5.281-15.062-10.961-33.906-16.453-52.125c-23.242-77.156-32.547-103.828-57.383-103.828
			h-0.094h-0.008h-0.078c-24.719,0.172-34.008,26.797-57.219,103.781c-5.492,18.234-11.18,37.094-16.469,52.156
			c-3.547,10.078-6.211,16.469-8.109,20.484c-3.453-2.047-6.977-5.516-10.547-10.375c-13.984-19.016-25.695-55.938-32.141-101.281
			c-6.234-43.875-4.875-75.828-2.805-82.438l2.453-7.844l-3.445-7.469l-15.57-33.719h78.992c-0.578-3.5-0.883-7.062-0.883-10.672
			c0-35.297,28.711-64,64-64s64,28.703,64,64c0,3.609-0.305,7.172-0.883,10.672H400l-15.578,33.719l-3.445,7.453L383.43,294.372z
			 M426.281,188.438l-0.031,0.062l-0.023,0.062L409.852,224h-71.086c-5.25-42.094-41.156-74.656-84.672-74.656
			S174.672,181.906,169.422,224h-67.289l-16.359-35.438L85.75,188.5l-0.031-0.062c-7.336-15.625-11.055-32.375-11.055-49.766
			c0-31.344,12.203-60.812,34.367-82.969C131.195,33.546,160.656,21.344,192,21.344c19.102,0,37.32,4.438,54.141,13.203L256,39.688
			l9.859-5.141c16.828-8.766,35.039-13.203,54.141-13.203c31.344,0,60.805,12.203,82.969,34.359s34.367,51.625,34.367,82.969
			C437.336,156.062,433.617,172.812,426.281,188.438z"/>
	</g>
</g>
<g>
	<g>
		<path d="M192,42.672c-53.023,0-96,42.984-96,96c0,5.891,4.773,10.672,10.664,10.672s10.664-4.781,10.664-10.672
			c0-19.938,7.773-38.703,21.875-52.797C153.305,71.766,172.055,64,192,64c5.891,0,10.664-4.766,10.664-10.656
			S197.891,42.672,192,42.672z"/>
	</g>
</g>
<g>
</g>
<g>
</g>
<g>
</g>
<g>
</g>
<g>
</g>
<g>
</g>
<g>
</g>
<g>
</g>
<g>
</g>
<g>
</g>
<g>
</g>
<g>
</g>
<g>
</g>
<g>
</g>
<g>
</g>
</svg>
