<?xml version="1.0" encoding="iso-8859-1"?>
<!-- Generator: Adobe Illustrator 19.0.0, SVG Export Plug-In . SVG Version: 6.00 Build 0)  -->
<svg version="1.1" id="Layer_1" xmlns="http://www.w3.org/2000/svg" xmlns:xlink="http://www.w3.org/1999/xlink" x="0px" y="0px"
	 viewBox="0 0 512 512" style="enable-background:new 0 0 512 512;" xml:space="preserve">
<g>
	<g>
		<path d="M492.5,193.344c-43.766,0-72.781,7.125-94.109,17.484l0.086-0.188c6.297-13.422,9.828-28.406,9.828-44.219
			c0-57.547-46.656-104.203-104.211-104.203c-17.352,0-33.703,4.25-48.094,11.75c-14.391-7.5-30.75-11.75-48.102-11.75
			c-57.555,0-104.211,46.656-104.211,104.203c0,15.812,3.531,30.797,9.828,44.219l0.094,0.203
			c-21.336-10.375-50.344-17.5-94.117-17.5c-6.195,0-12.688,0.156-19.492,0.438v256h512v-256
			C505.195,193.5,498.688,193.344,492.5,193.344z M149.297,107.829c15.656-15.656,36.469-24.281,58.602-24.281
			c13.492,0,26.359,3.141,38.234,9.344L256,98.016l9.859-5.125c11.875-6.203,24.742-9.344,38.234-9.344
			c22.141,0,42.945,8.625,58.602,24.281c15.648,15.656,24.273,36.469,24.273,58.594c0,12.297-2.625,24.125-7.805,35.156
			l-0.023,0.062l-0.031,0.062l-15.281,33.078c-28.664,26.156-45.344,55-107.828,55s-79.172-28.844-107.836-54.984l-15.281-33.093
			l-0.023-0.062l-0.031-0.062c-5.18-11.031-7.805-22.859-7.805-35.156C125.024,144.298,133.649,123.485,149.297,107.829z
			 M104.228,230c18.116,8.797,29.866,20.484,42.295,32.875c11.656,11.609,23.719,23.609,40.75,32.859
			c19.094,10.359,41.578,15.391,68.727,15.391s49.625-5.031,68.719-15.391c17.031-9.25,29.086-21.25,40.742-32.859
			c12.43-12.391,24.164-24.078,42.289-32.875c3.938-1.906,8.094-3.641,12.492-5.188c-1.969,7.828-4.398,15.547-7.273,23.094
			c-8.727,22.938-21.203,43.5-37.062,61.125c-15.719,17.469-33.977,31.156-54.25,40.688c-20.805,9.781-42.898,14.734-65.656,14.734
			c-22.766,0-44.852-4.953-65.664-14.734c-20.273-9.531-38.523-23.219-54.25-40.688c-15.859-17.625-28.336-38.188-37.062-61.125
			c-2.875-7.547-5.289-15.25-7.258-23.078C96.15,226.375,100.298,228.094,104.228,230z M490.664,428.453H21.328V214.688
			c17.672,0.094,33.344,1.422,47.227,4.016C87.578,314.281,164.258,385.781,256,385.781c91.734,0,168.43-71.5,187.445-167.078
			c13.875-2.594,29.555-3.938,47.219-4.016V428.453z"/>
	</g>
</g>
<g>
	<g>
		<path d="M426.664,300.453c-2.336,1.859-31.961,26.984-31.219,53.359c0.219,19.25,13.914,31.609,31.219,31.969
			c17.305-0.359,30.992-12.719,31.211-31.969C458.625,327.438,429,302.313,426.664,300.453z M436.547,353.375v0.188
			c-0.047,3.922-1.406,10.484-9.883,10.875c-8.484-0.391-9.836-6.953-9.883-10.875v-0.172l-0.008-0.188
			c-0.164-5.703,3.289-13.469,9.719-21.844c0.055-0.078,0.117-0.141,0.172-0.219c0.055,0.062,0.109,0.141,0.164,0.219
			c6.43,8.375,9.883,16.141,9.727,21.844L436.547,353.375z"/>
	</g>
</g>
<g>
</g>
<g>
</g>
<g>
</g>
<g>
</g>
<g>
</g>
<g>
</g>
<g>
</g>
<g>
</g>
<g>
</g>
<g>
</g>
<g>
</g>
<g>
</g>
<g>
</g>
<g>
</g>
<g>
</g>
</svg>
