<?xml version="1.0" encoding="iso-8859-1"?>
<!-- Generator: Adobe Illustrator 19.0.0, SVG Export Plug-In . SVG Version: 6.00 Build 0)  -->
<svg version="1.1" id="Layer_1" xmlns="http://www.w3.org/2000/svg" xmlns:xlink="http://www.w3.org/1999/xlink" x="0px" y="0px"
	 viewBox="0 0 512 512" style="enable-background:new 0 0 512 512;" xml:space="preserve">
<g>
	<g>
		<path d="M192,42.664c-53.031,0-96,42.984-96,96c0,5.891,4.781,10.672,10.656,10.672c5.906,0,10.688-4.781,10.688-10.672
			c0-19.938,7.75-38.695,21.844-52.797C153.312,71.766,172.062,64,192,64c5.875,0,10.656-4.773,10.656-10.664
			S197.875,42.664,192,42.664z"/>
	</g>
</g>
<g>
	<g>
		<path d="M320,0c-23.094,0-44.844,5.648-64,15.633C236.844,5.648,215.094,0,192,0C115.406,0,53.343,62.086,53.343,138.664
			c0,21.039,4.688,40.977,13.062,58.836l40.438,86.219h0.469c2.406,11.859,11.375,21.344,22.938,24.484
			c-1.438,3.656-2.25,7.625-2.25,11.797c0,14.766,10,27.172,23.594,30.875c-1.469,3.641-2.25,7.625-2.25,11.797
			c0,14.75,10,27.172,23.562,30.875c-1.438,3.656-2.25,7.625-2.25,11.781c0,14.766,10,27.188,23.594,30.875
			c-1.438,3.656-2.25,7.625-2.25,11.797c0,17.672,14.312,32,32,32c0,17.672,14.312,32,32,32s32-14.328,32-32
			c17.688,0,32-14.328,32-32c0-4.172-0.812-8.141-2.25-11.797c13.594-3.688,23.594-16.109,23.594-30.875
			c0-4.156-0.812-8.125-2.25-11.781c13.562-3.703,23.562-16.125,23.562-30.875c0-4.172-0.781-8.156-2.25-11.797
			C374,347.172,384,334.766,384,320c0-4.172-0.812-8.141-2.25-11.797c11.562-3.141,20.531-12.625,22.938-24.484h0.438l40.469-86.219
			c8.375-17.859,13.062-37.797,13.062-58.836C458.656,62.086,396.594,0,320,0z M256,490.672c-5.875,0-10.656-4.781-10.656-10.672
			h21.312C266.656,485.891,261.875,490.672,256,490.672z M288,458.672h-64c-5.875,0-10.656-4.781-10.656-10.672
			s4.781-10.672,10.656-10.672h64c5.875,0,10.656,4.781,10.656,10.672S293.875,458.672,288,458.672z M309.344,416H202.656
			c-5.875,0-10.656-4.797-10.656-10.672s4.781-10.656,10.656-10.656h106.688c5.875,0,10.656,4.781,10.656,10.656
			S315.219,416,309.344,416z M330.656,373.328H181.344c-5.906,0-10.688-4.781-10.688-10.656S175.438,352,181.344,352h149.312
			c5.906,0,10.688,4.797,10.688,10.672S336.562,373.328,330.656,373.328z M352,330.672H160c-5.875,0-10.656-4.781-10.656-10.672
			s4.781-10.672,10.656-10.672h192c5.875,0,10.656,4.781,10.656,10.672S357.875,330.672,352,330.672z M373.344,288H138.656
			c-5.875,0-10.656-4.797-10.656-10.672s4.781-10.656,10.656-10.656h234.688c5.875,0,10.656,4.781,10.656,10.656
			S379.219,288,373.344,288z M426.281,188.438l-30.688,65.922c-5.75-5.594-13.594-9.031-22.25-9.031H138.656
			c-8.656,0-16.5,3.453-22.281,9.047l-30.656-65.938c-7.344-15.633-11.062-32.375-11.062-49.773
			c0-31.336,12.219-60.805,34.375-82.969c22.156-22.157,51.624-34.36,82.968-34.36c19.094,0,37.312,4.445,54.125,13.211L256,39.688
			l9.875-5.141c16.812-8.766,35.031-13.211,54.125-13.211c31.344,0,60.812,12.203,82.969,34.359
			c22.156,22.164,34.375,51.633,34.375,82.969C437.344,156.062,433.625,172.812,426.281,188.438z"/>
	</g>
</g>
<g>
</g>
<g>
</g>
<g>
</g>
<g>
</g>
<g>
</g>
<g>
</g>
<g>
</g>
<g>
</g>
<g>
</g>
<g>
</g>
<g>
</g>
<g>
</g>
<g>
</g>
<g>
</g>
<g>
</g>
</svg>
