<?xml version="1.0" encoding="iso-8859-1"?>
<!-- Generator: Adobe Illustrator 19.0.0, SVG Export Plug-In . SVG Version: 6.00 Build 0)  -->
<svg version="1.1" id="Layer_1" xmlns="http://www.w3.org/2000/svg" xmlns:xlink="http://www.w3.org/1999/xlink" x="0px" y="0px"
	 viewBox="0 0 512 512" style="enable-background:new 0 0 512 512;" xml:space="preserve">
<g>
	<g>
		<path d="M458.672,138.656C458.672,62.078,396.578,0,320,0c-23.078,0-44.859,5.641-64,15.625C236.859,5.641,215.078,0,192,0
			C115.422,0,53.328,62.078,53.328,138.656c0,21.047,4.703,40.984,13.078,58.844l41.781,90.5c-10,32,6.281,224,73.141,224
			c21.031,0,54.047-178.484,74.656-178.625c0.016,0,0.016,0,0.031,0c20.609,0,53.609,178.625,74.625,178.625
			c66.859,0,83.156-192,73.156-224l41.797-90.5C453.984,179.641,458.672,159.703,458.672,138.656z M191.999,21.329
			c19.11-0.001,37.313,4.452,54.142,13.218L256,39.688l9.859-5.141c16.828-8.766,35.047-13.219,54.141-13.219
			c12.984,0,25.625,2.094,37.578,6.125c-4.984,8.391-11.047,16.234-18.141,23.312C317.156,73.062,287.516,85.328,256,85.328
			s-61.156-12.266-83.438-34.562c-7.094-7.078-13.156-14.922-18.141-23.312C166.374,23.423,179.015,21.329,191.999,21.329z
			 M426.281,188.438l-0.031,0.062l-0.016,0.047l-41.812,90.5l-3.453,7.469l2.453,7.844c2.078,6.625,3.438,38.578-2.797,82.453
			c-6.453,45.344-18.156,82.25-32.141,101.266c-3.562,4.859-7.094,8.328-10.531,10.375c-1.906-4.016-4.562-10.391-8.094-20.453
			c-5.297-15.078-10.969-33.922-16.453-52.141c-23.25-77.141-32.547-103.828-57.391-103.828h-0.094h-0.016h-0.062
			c-24.734,0.172-34.016,26.812-57.219,103.797c-5.5,18.234-11.188,37.078-16.484,52.156c-3.531,10.078-6.203,16.469-8.109,20.469
			c-3.438-2.047-6.969-5.516-10.547-10.375c-13.969-19.016-25.688-55.922-32.125-101.266c-6.234-43.875-4.875-75.828-2.812-82.453
			l2.453-7.844l-3.453-7.469l-41.766-90.484L85.75,188.5l-0.031-0.062c-7.328-15.625-11.047-32.375-11.047-49.781
			c0-31.328,12.203-60.797,34.359-82.969c7.781-7.766,16.453-14.312,25.797-19.547c23.969,42.125,69.25,70.516,121.172,70.516
			s97.203-28.406,121.172-70.516c9.344,5.234,18.016,11.781,25.797,19.547c22.156,22.172,34.359,51.641,34.359,82.969
			C437.328,156.062,433.609,172.812,426.281,188.438z"/>
	</g>
</g>
<g>
</g>
<g>
</g>
<g>
</g>
<g>
</g>
<g>
</g>
<g>
</g>
<g>
</g>
<g>
</g>
<g>
</g>
<g>
</g>
<g>
</g>
<g>
</g>
<g>
</g>
<g>
</g>
<g>
</g>
</svg>
