<?xml version="1.0" encoding="iso-8859-1"?>
<!-- Generator: Adobe Illustrator 19.0.0, SVG Export Plug-In . SVG Version: 6.00 Build 0)  -->
<svg version="1.1" id="Layer_1" xmlns="http://www.w3.org/2000/svg" xmlns:xlink="http://www.w3.org/1999/xlink" x="0px" y="0px"
	 viewBox="0 0 511.995 511.995" style="enable-background:new 0 0 511.995 511.995;" xml:space="preserve">
<g>
	<g>
		<path d="M363.775,48.379l-30.188-30.172c4.172-4.156,4.172-10.922,0-15.078c-4.156-4.172-10.906-4.172-15.078,0L19.275,302.348
			c-4.156,4.172-4.156,10.93,0,15.086c4.172,4.156,10.922,4.156,15.094,0l193.624-193.617l30.172,30.172
			c4.156,4.172,9.625,6.25,15.078,6.25c5.469,0,10.922-2.078,15.094-6.25l75.438-75.438
			C372.103,70.223,372.103,56.723,363.775,48.379z M341.134,71.02c-4.156-4.172-10.922-4.172-15.078,0
			c-4.172,4.156-4.172,10.906,0,15.078l-7.547,7.547c-4.172-4.172-10.922-4.172-15.094,0c-4.156,4.172-4.156,10.922,0,15.078
			l-7.531,7.547c-4.172-4.156-10.922-4.156-15.094,0c-4.172,4.172-4.172,10.922,0,15.094l-7.547,7.547l-30.172-30.172l75.438-75.438
			l30.172,30.172L341.134,71.02z"/>
	</g>
</g>
<g>
	<g>
		<path d="M441.525,231.754l54.312-66.375L442.9,112.441l-66.375,54.312l-5.219-5.219c-4.312-4.328-10.172-6.5-16.031-6.5
			c-5.406,0-10.797,1.844-15,5.578l-237.155,210.54c-8.766,7.812-9.156,20.969-0.859,29.25l105.609,105.624
			c3.984,4,9.109,5.969,14.218,5.969c5.5,0,10.984-2.281,15.031-6.844l210.547-237.147c7.797-8.766,7.375-22.734-0.922-31.031
			L441.525,231.754z M441.478,141.176l25.624,25.625l-40.796,49.718l-34.547-34.546L441.478,141.176z M132.432,400.402
			l-14.156-14.156l7.984-7.094l21.25,21.25C143.354,396.246,136.604,396.246,132.432,400.402z M162.603,430.59l-15.078-15.094
			c4.156-4.156,4.156-10.906,0-15.062l30.156,30.156C173.509,426.434,166.759,426.434,162.603,430.59z M192.775,460.746v0.031
			l-15.078-15.093c4.156-4.156,4.156-10.906,0-15.094l30.156,30.156C203.681,456.59,196.947,456.59,192.775,460.746z
			 M222.024,490.026l-14.156-14.187c4.156-4.156,4.156-10.906,0.016-15.062l21.234,21.25L222.024,490.026z M431.712,253.848
			l-188.391,212.18L142.244,364.965l212.187-188.398c0.094-0.078,0.391-0.203,0.844-0.203c0.469,0,0.844,0.156,0.953,0.25
			l75.438,75.437C431.962,252.363,431.993,253.519,431.712,253.848z"/>
	</g>
</g>
<g>
</g>
<g>
</g>
<g>
</g>
<g>
</g>
<g>
</g>
<g>
</g>
<g>
</g>
<g>
</g>
<g>
</g>
<g>
</g>
<g>
</g>
<g>
</g>
<g>
</g>
<g>
</g>
<g>
</g>
</svg>
