<?xml version="1.0" encoding="iso-8859-1"?>
<!-- Generator: Adobe Illustrator 19.0.0, SVG Export Plug-In . SVG Version: 6.00 Build 0)  -->
<svg version="1.1" id="Layer_1" xmlns="http://www.w3.org/2000/svg" xmlns:xlink="http://www.w3.org/1999/xlink" x="0px" y="0px"
	 viewBox="0 0 512 512" style="enable-background:new 0 0 512 512;" xml:space="preserve">
<g>
	<g>
		<path d="M492.508,341.109c-161.133,0-122.281,96.438-236.508,96.438s-75.406-96.438-236.508-96.438
			c-6.195,0-12.68,0.156-19.492,0.438V512h512V341.547C505.203,341.266,498.695,341.109,492.508,341.109z M490.664,490.672H21.336
			V362.453c34.898,0.156,62.031,5.188,82.898,15.312c18.117,8.797,29.859,20.5,42.289,32.875
			c11.664,11.609,23.719,23.625,40.758,32.844c19.094,10.375,41.57,15.406,68.719,15.406s49.625-5.031,68.719-15.406
			c17.039-9.219,29.086-21.234,40.742-32.844c12.43-12.375,24.172-24.078,42.289-32.875c20.867-10.125,48.008-15.156,82.914-15.312
			V490.672z"/>
	</g>
</g>
<g>
	<g>
		<path d="M413.476,44.734c-13.031-5.391-26.531-7.945-39.805-7.945c-3.062,0-6.102,0.141-9.133,0.406
			c-10.43-12.438-23.914-22.609-39.945-29.25C311.562,2.555,298.055,0,284.781,0c-40.906,0-79.711,24.234-96.328,64.383
			c-6.047,14.609-8.516,29.797-7.828,44.609l3,74.852c-16.141,19.344-60.008,157.344-13.586,176.562
			c0.375,0.156,0.789,0.234,1.242,0.234c16.703,0,84.375-103.031,100.758-103.031c0.43,0,0.82,0.07,1.172,0.219
			c14.352,5.82-14.094,139.438,0.508,145.5c3.203,1.312,6.508,1.938,9.875,1.938c45.43,0,103.195-113.109,105.289-136.469
			l55.039-50.828c10.953-9.992,19.938-22.484,25.984-37.094C491.922,127.695,466.648,66.742,413.476,44.734z M450.194,172.711
			c-4.695,11.359-11.648,21.281-20.648,29.5l-0.047,0.039l-0.055,0.047l-55.031,50.828l-6.039,5.578l-0.734,8.141
			c-0.234,1.844-2.383,9.867-9.523,25.156c-6.641,14.219-15.148,29.438-23.969,42.859c-10.18,15.484-20.547,28.25-29.984,36.938
			c-5.625,5.188-10.07,8.188-13.391,9.875c0.047-2.672,0.164-5.938,0.398-9.922c0.68-11.656,2.102-25.859,3.477-39.609
			c1.742-17.422,3.547-35.43,3.977-49.508c0.258-8.586,0.016-15.047-0.773-20.344c-0.617-4.133-1.602-7.641-2.992-10.727
			c-3.641-8.07-9.414-11.797-13.625-13.508c-2.914-1.18-6.008-1.781-9.195-1.781c-16.852,0-30.047,14.406-66.469,58.969
			c-8.75,10.703-17.789,21.773-25.547,30.492c-2.656,2.984-4.891,5.375-6.75,7.312c-0.219-0.688-0.406-1.344-0.562-1.922
			c-4.204-15.999-1.931-43.765,6.241-76.179c3.367-13.352,7.664-26.992,12.094-38.422c4.75-12.242,8.078-17.875,8.984-19.047
			l5.242-6.281l-0.336-8.203l-3-74.852v-0.07l-0.008-0.062c-0.562-12.18,1.531-24.109,6.234-35.469
			c6.398-15.453,17.133-28.438,31.039-37.562c13.609-8.93,29.375-13.641,45.578-13.641c10.859,0,21.508,2.125,31.648,6.328
			c12.469,5.156,23.156,12.977,31.766,23.242l7.148,8.516l11.07-0.977c2.406-0.211,4.852-0.32,7.258-0.32
			c10.859,0,21.508,2.125,31.641,6.32c20.453,8.469,36.391,24.391,44.867,44.844C458.655,129.734,458.662,152.258,450.194,172.711z"
			/>
	</g>
</g>
<g>
</g>
<g>
</g>
<g>
</g>
<g>
</g>
<g>
</g>
<g>
</g>
<g>
</g>
<g>
</g>
<g>
</g>
<g>
</g>
<g>
</g>
<g>
</g>
<g>
</g>
<g>
</g>
<g>
</g>
</svg>
