<?xml version="1.0" encoding="iso-8859-1"?>
<!-- Generator: Adobe Illustrator 19.0.0, SVG Export Plug-In . SVG Version: 6.00 Build 0)  -->
<svg version="1.1" id="Layer_1" xmlns="http://www.w3.org/2000/svg" xmlns:xlink="http://www.w3.org/1999/xlink" x="0px" y="0px"
	 viewBox="0 0 511.997 511.997" style="enable-background:new 0 0 511.997 511.997;" xml:space="preserve">
<g>
	<g>
		<path d="M511.147,158.565c-3.531-13.211-11.719-23.242-24.344-29.805c-20.797-10.836-53.594-11.758-97.484-2.742
			c-18.562,3.812-35.047,8.578-45.734,11.953c-0.5-1.141-1.031-2.219-1.594-3.234c-16.297-29.75-64.969-39.367-86-39.367
			c-21.016,0-69.688,9.617-85.985,39.367c-0.562,1.016-1.094,2.094-1.609,3.234c-10.672-3.375-27.156-8.141-45.719-11.953
			c-43.891-9.016-76.688-8.094-97.5,2.742c-12.609,6.562-20.797,16.594-24.328,29.805c-6.125,22.867,21.875,44.047,50.781,57.336
			c0.797,3.664,2.359,7.281,4.641,10.734c6.766,10.18,19.547,18.008,34.203,20.945c4.203,0.844,8.453,1.266,12.625,1.266
			c17.125,0,31.031-7.016,37.156-18.086c13.203-2.586,23.328-7.523,30.766-12.664c5.875-4.047,10.547-8.508,14.203-12.742
			c11.641,22.273,20.188,46.414,20.109,52.273c-0.625,3.719-2.719,8.531-4.953,13.641c-5.078,11.672-11.422,26.203-7.906,43.531
			c9.094,44.953,29.704,93.328,30.563,95.359l2.781,6.469h60.359l2.766-6.469c0.875-2.031,21.484-50.406,30.578-95.359
			c3.516-17.328-2.828-31.859-7.906-43.531c-2.234-5.109-4.328-9.922-4.953-13.641c-0.078-5.859,8.469-30,20.109-52.273
			c3.656,4.234,8.328,8.695,14.203,12.742c7.438,5.141,17.562,10.086,30.766,12.664c6.125,11.07,20.031,18.086,37.156,18.086
			c4.172,0,8.406-0.422,12.625-1.266c14.656-2.938,27.438-10.766,34.188-20.945c2.297-3.453,3.859-7.07,4.656-10.734
			C489.272,202.612,517.272,181.432,511.147,158.565z M122.178,218.886c-0.859,4.242-8.234,8.633-19.078,8.633
			c-2.766,0-5.609-0.289-8.438-0.852c-10.859-2.18-17.766-7.531-20.609-11.828c-0.969-1.469-2.047-3.68-1.609-5.82
			c0.859-4.242,8.234-8.633,19.078-8.633c2.766,0,5.609,0.289,8.438,0.852c10.844,2.172,17.766,7.531,20.609,11.82
			C121.538,214.534,122.616,216.737,122.178,218.886z M158.897,200.542c-5.047,3.484-10.703,6.117-16.938,7.906
			c-0.859-2.445-2.062-4.852-3.625-7.18c-6.75-10.18-19.531-18.016-34.188-20.946c-4.203-0.844-8.453-1.266-12.625-1.266
			c-15.656,0-28.641,5.867-35.422,15.328c-7.141-3.531-13.766-7.422-19.281-11.398c-11.766-8.469-16.219-15.734-15.359-18.906
			c1.938-7.289,6.391-12.656,13.562-16.398c30.188-15.727,97.281,0.883,129.859,11.516c0.609,7.609,3.141,16.359,8.75,26.18
			C170.944,189.565,166.272,195.456,158.897,200.542z M224.46,352.128c-4.203-13.188-8.266-27.656-11.078-41.562
			c-2.172-10.75,2.266-20.922,6.562-30.766c2.828-6.484,5.5-12.625,6.5-19.094c0.391-2.5,1.578-10.117-9.547-37.523
			c-6.703-16.516-15.047-33.04-22.891-45.329c-0.922-1.438-1.75-2.836-2.516-4.211c6.641,4.367,15.328,11.375,23.719,22.032
			c17.438,22.133,27.594,52.297,29.953,88.375v62.984C238.507,347.737,231.522,349.315,224.46,352.128z M230.132,180.206
			c9.781,1.375,19.453,2.062,28.969,2.062c7.453,0,14.781-0.43,21.984-1.266c-0.047,0.062-0.094,0.117-0.141,0.172
			c-10.625,13.109-19.031,28.555-25.047,45.993c-6-17.43-14.375-32.875-24.969-45.977
			C230.663,180.854,230.397,180.534,230.132,180.206z M271.991,395.284h-32c-2.078-5.188-5.203-13.219-8.672-22.891
			c10.422-4.422,21.953-5.547,34.391-3.359c6.078,1.062,11.188,2.75,14.688,4.125C277.054,382.503,274.022,390.222,271.991,395.284z
			 M317.991,177.854c-7.844,12.289-16.188,28.813-22.891,45.329c-11.125,27.406-9.938,35.023-9.547,37.523
			c1,6.469,3.672,12.609,6.5,19.094c4.297,9.844,8.734,20.016,6.562,30.766c-2.875,14.188-7.047,28.969-11.344,42.375
			c-5.109-1.938-12.25-4.156-20.672-5.391l-0.031-63.5c2.391-36.07,12.594-66.234,30.094-88.367
			c8.453-10.688,17.188-17.711,23.859-22.079C319.757,174.995,318.913,176.409,317.991,177.854z M230.522,158.713
			c-20.984-3.234-36.875-9.109-42.844-11.547c0.297-0.742,0.641-1.469,1.031-2.18c10.328-18.836,48.704-28.289,67.282-28.289
			c18.594,0,56.969,9.453,67.297,28.289c0.391,0.727,0.75,1.477,1.062,2.234C296.429,160.127,264.882,163.995,230.522,158.713z
			 M437.944,214.839c-2.844,4.297-9.766,9.648-20.609,11.828c-2.828,0.562-5.672,0.852-8.438,0.852
			c-10.844,0-18.219-4.391-19.078-8.641c-0.438-2.141,0.625-4.344,1.609-5.82c2.844-4.289,9.75-9.648,20.609-11.82
			c2.828-0.562,5.672-0.852,8.438-0.852c10.828,0,18.203,4.391,19.078,8.633C439.991,211.159,438.913,213.37,437.944,214.839z
			 M475.179,182.987c-5.516,3.977-12.141,7.867-19.281,11.398c-6.797-9.461-19.766-15.328-35.422-15.328
			c-4.172,0-8.422,0.422-12.625,1.266c-14.656,2.938-27.438,10.766-34.203,20.946c-1.531,2.32-2.734,4.711-3.594,7.133
			c-17.922-5.195-27.391-16.227-31.703-23c5.625-9.828,8.156-18.586,8.766-26.211c32.562-10.633,99.625-27.25,129.844-11.516
			c7.188,3.75,11.625,9.109,13.578,16.406C491.397,167.252,486.944,174.518,475.179,182.987z"/>
	</g>
</g>
<g>
</g>
<g>
</g>
<g>
</g>
<g>
</g>
<g>
</g>
<g>
</g>
<g>
</g>
<g>
</g>
<g>
</g>
<g>
</g>
<g>
</g>
<g>
</g>
<g>
</g>
<g>
</g>
<g>
</g>
</svg>
