<?xml version="1.0" encoding="iso-8859-1"?>
<!-- Generator: Adobe Illustrator 19.0.0, SVG Export Plug-In . SVG Version: 6.00 Build 0)  -->
<svg version="1.1" id="Layer_1" xmlns="http://www.w3.org/2000/svg" xmlns:xlink="http://www.w3.org/1999/xlink" x="0px" y="0px"
	 viewBox="0 0 512.001 512.001" style="enable-background:new 0 0 512.001 512.001;" xml:space="preserve">
<g>
	<g>
		<path d="M426.703,406.031L394.625,21.336C394.625,9.555,385.062,0,373.281,0H159.945c-11.781,0-21.328,9.555-21.328,21.336
			l-1.836,21.969h-19.414c-11.781,0-21.328,9.547-21.328,21.336L60.492,490.688c-5.68,0.234-10.211,4.906-10.211,10.641
			c0,5.906,4.773,10.672,10.664,10.672h21.336c5.891,0,10.664-4.766,10.664-10.672c0-5.875-4.773-10.656-10.664-10.656h-0.375
			l16.016-192h17.555l-14.234,170.656h-0.297c-5.891,0-10.664,4.781-10.664,10.672s4.773,10.672,10.664,10.672h21.336
			c5.891,0,10.664-4.781,10.664-10.672c0-5.766-4.578-10.453-10.297-10.641l14.242-170.688h213.266l10.938,131.094
			c-15.656,6.328-26.703,21.656-26.703,39.562c0,23.562,19.109,42.672,42.672,42.672c15.906,0,29.781-8.703,37.109-21.625
			c1.609,0.188,3.234,0.297,4.891,0.297c23.562,0,42.656-19.109,42.656-42.672C461.719,427.047,446.625,409.641,426.703,406.031z
			 M117.258,277.329H99.703v-0.001l17.594-210.914l0.07-0.914v-0.859H135L117.258,277.329z M405.437,407.562
			c-9.844,3.328-18.062,10.109-23.219,18.922L368,256h24.781L405.437,407.562z M391,234.664h-24.781l-3.25-38.898l22.625-26.047
			L391,234.664z M156.406,64.641h174.297v0.883l0.078,0.891l14.031,168.25H142.227L156.406,64.641z M138.664,277.328L140.445,256
			h206.148l1.781,21.328H138.664z M336.766,44.18c-1.922-0.562-3.953-0.875-6.062-0.875H158.188l1.687-20.196l0.078-0.914
			l-0.008-0.859h196.664L336.766,44.18z M360.5,166.078L352.031,64.64c0-1.672-0.188-3.297-0.562-4.859l22.75-26.203l8.891,106.453
			L360.5,166.078z M377.062,490.672c-11.766,0-21.344-9.578-21.344-21.344c0-11.75,9.578-21.328,21.344-21.328
			c11.75,0,21.328,9.578,21.328,21.328C398.391,481.094,388.812,490.672,377.062,490.672z M419.719,469.328
			c0-3.703-0.469-7.281-1.344-10.688c0.219,0,0.453,0.031,0.688,0.031c5.875,0,10.656-4.781,10.656-10.672
			s-4.781-10.672-10.656-10.672c-3.781,0-7.109,1.984-9,4.969c-2.281-2.781-4.906-5.281-7.812-7.406
			c3.906-5,9.984-8.219,16.812-8.219c11.75,0,21.328,9.562,21.328,21.328C440.391,459.547,431.188,468.953,419.719,469.328z"/>
	</g>
</g>
<g>
	<g>
		<path d="M377.062,458.672c-5.906,0-10.672,4.781-10.672,10.656c0,5.906,4.766,10.672,10.672,10.672
			c5.891,0,10.656-4.766,10.656-10.672C387.719,463.453,382.953,458.672,377.062,458.672z"/>
	</g>
</g>
<g>
</g>
<g>
</g>
<g>
</g>
<g>
</g>
<g>
</g>
<g>
</g>
<g>
</g>
<g>
</g>
<g>
</g>
<g>
</g>
<g>
</g>
<g>
</g>
<g>
</g>
<g>
</g>
<g>
</g>
</svg>
