<?xml version="1.0" encoding="iso-8859-1"?>
<!-- Generator: Adobe Illustrator 19.0.0, SVG Export Plug-In . SVG Version: 6.00 Build 0)  -->
<svg version="1.1" id="Layer_1" xmlns="http://www.w3.org/2000/svg" xmlns:xlink="http://www.w3.org/1999/xlink" x="0px" y="0px"
	 viewBox="0 0 512 512" style="enable-background:new 0 0 512 512;" xml:space="preserve">
<g>
	<g>
		<path d="M490.672,53.336H21.328C9.547,53.336,0,62.883,0,74.664v362.672c0,11.781,9.547,21.328,21.328,21.328h469.344
			c11.781,0,21.328-9.547,21.328-21.328V74.664C512,62.883,502.453,53.336,490.672,53.336z M490.672,437.336H21.328V74.664h469.344
			V437.336z"/>
	</g>
</g>
<g>
	<g>
		<path d="M359.139,224.319c0-40.766-33.172-73.938-73.938-73.938c-10.031,0-20.031,2.062-29.203,6c-9.172-3.938-19.172-6-29.203-6
			c-40.764,0.002-73.936,33.174-73.936,73.939c0,10.938,2.344,21.484,6.969,31.344l17.562,38.078
			c-1.578,10.438-0.484,27.859,1.531,42.109c4.422,31.109,12.469,47.312,18.438,55.422c8.531,11.625,18.078,14.062,24.562,14.062
			c10.578,0,15.094-11.875,18.078-19.734c3.062-8.062,6.25-18.672,9.344-28.938c1.828-6.062,4.297-14.234,6.656-21.219
			c2.359,7,4.828,15.172,6.656,21.234c3.094,10.266,6.281,20.859,9.344,28.922c2.984,7.859,7.484,19.734,18.062,19.734
			c6.5,0,16.031-2.438,24.578-14.062c5.969-8.109,14-24.312,18.422-55.422c2.016-14.25,3.109-31.672,1.531-42.109l17.578-38.047
			C356.795,245.835,359.139,235.272,359.139,224.319z M332.829,246.695l-19.078,41.281l-1.719,3.75l1.219,3.906
			c0.984,3.156,1.375,18.297-1.312,37.25c-2.922,20.547-8.219,37.234-14.5,45.766c-1.266,1.719-2.484,3.016-3.688,3.906
			c-3.219-7.297-7.734-22.312-10.672-32.031c-3.047-10.125-6.203-20.594-9.203-28.516c-2.938-7.766-7.375-19.516-17.875-19.516
			h-0.078c-10.438,0.078-14.859,11.781-17.797,19.531c-3,7.906-6.156,18.375-9.203,28.484c-2.922,9.719-7.453,24.75-10.688,32.062
			c-1.188-0.906-2.422-2.203-3.688-3.922c-6.281-8.531-11.562-25.219-14.484-45.766c-2.703-18.953-2.312-34.094-1.328-37.25
			l1.234-3.922l-20.797-45.016l-0.016-0.062c-3.297-7.016-4.969-14.516-4.969-22.312c0-29.016,23.609-52.609,52.609-52.609
			c8.562,0,16.734,2,24.281,5.922l4.923,2.58l4.938-2.578c7.531-3.922,15.703-5.922,24.266-5.922c29,0,52.609,23.594,52.609,52.609
			C337.813,232.117,336.141,239.617,332.829,246.695z"/>
	</g>
</g>
<g>
	<g>
		<path d="M224,95.992H53.328c-5.891,0-10.656,4.781-10.656,10.672s4.766,10.672,10.656,10.672H224
			c5.891,0,10.672-4.781,10.672-10.672S229.891,95.992,224,95.992z"/>
	</g>
</g>
<g>
	<g>
		<path d="M128,127.992H53.328c-5.891,0-10.656,4.781-10.656,10.672s4.766,10.672,10.656,10.672H128
			c5.891,0,10.672-4.781,10.672-10.672S133.891,127.992,128,127.992z"/>
	</g>
</g>
<g>
</g>
<g>
</g>
<g>
</g>
<g>
</g>
<g>
</g>
<g>
</g>
<g>
</g>
<g>
</g>
<g>
</g>
<g>
</g>
<g>
</g>
<g>
</g>
<g>
</g>
<g>
</g>
<g>
</g>
</svg>
