<?xml version="1.0" encoding="UTF-8" standalone="no"?>
<!DOCTYPE svg PUBLIC "-//W3C//DTD SVG 1.1//EN"
 "http://www.w3.org/Graphics/SVG/1.1/DTD/svg11.dtd">
<!-- Generated by graphviz version 2.40.1 (20161225.0304)
 -->
<!-- Title: dependencies Pages: 1 -->
<svg width="1836pt" height="211pt"
 viewBox="0.00 0.00 1836.00 211.00" xmlns="http://www.w3.org/2000/svg" xmlns:xlink="http://www.w3.org/1999/xlink">
<g id="graph0" class="graph" transform="scale(1 1) rotate(0) translate(4 207)">
<title>dependencies</title>
<polygon fill="#ffffff" stroke="transparent" points="-4,4 -4,-207 1832,-207 1832,4 -4,4"/>
<text text-anchor="start" x="893.0091" y="-42.4" font-family="sans-serif" font-weight="bold" font-size="14.00" fill="#000000">Legend</text>
<polygon fill="#ffffb3" stroke="transparent" points="680,-10 680,-30 700,-30 700,-10 680,-10"/>
<text text-anchor="start" x="703.629" y="-15.4" font-family="sans-serif" font-size="14.00" fill="#000000"> &#160;Declarations</text>
<polygon fill="#8dd3c7" stroke="transparent" points="793,-10 793,-30 813,-30 813,-10 793,-10"/>
<text text-anchor="start" x="816.7251" y="-15.4" font-family="sans-serif" font-size="14.00" fill="#000000"> &#160;Module</text>
<polygon fill="#80b1d3" stroke="transparent" points="879,-10 879,-30 899,-30 899,-10 879,-10"/>
<text text-anchor="start" x="902.7812" y="-15.4" font-family="sans-serif" font-size="14.00" fill="#000000"> &#160;Bootstrap</text>
<polygon fill="#fdb462" stroke="transparent" points="976,-10 976,-30 996,-30 996,-10 976,-10"/>
<text text-anchor="start" x="999.6732" y="-15.4" font-family="sans-serif" font-size="14.00" fill="#000000"> &#160;Providers</text>
<polygon fill="#fb8072" stroke="transparent" points="1072,-10 1072,-30 1092,-30 1092,-10 1072,-10"/>
<text text-anchor="start" x="1095.7258" y="-15.4" font-family="sans-serif" font-size="14.00" fill="#000000"> &#160;Exports</text>
<g id="clust1" class="cluster">
<title>cluster_PatientsModule</title>
<polygon fill="none" stroke="#000000" stroke-dasharray="1,5" points="8,-70 8,-195 1820,-195 1820,-70 8,-70"/>
</g>
<g id="clust2" class="cluster">
<title>cluster_PatientsModule_declarations</title>
<polygon fill="none" stroke="#000000" points="976,-78 976,-130 1812,-130 1812,-78 976,-78"/>
</g>
<g id="clust8" class="cluster">
<title>cluster_PatientsModule_imports</title>
<polygon fill="none" stroke="#000000" points="687,-78 687,-130 968,-130 968,-78 687,-78"/>
</g>
<g id="clust11" class="cluster">
<title>cluster_PatientsModule_providers</title>
<polygon fill="none" stroke="#000000" points="16,-78 16,-130 679,-130 679,-78 16,-78"/>
</g>
<!-- PatientsComponent -->
<g id="node1" class="node">
<title>PatientsComponent</title>
<polygon fill="#ffffb3" stroke="#000000" points="1803.6611,-122 1678.3389,-122 1678.3389,-86 1803.6611,-86 1803.6611,-122"/>
<text text-anchor="middle" x="1741" y="-99.8" font-family="Times,serif" font-size="14.00" fill="#000000">PatientsComponent</text>
</g>
<!-- PatientsModule -->
<g id="node6" class="node">
<title>PatientsModule</title>
<polygon fill="#8dd3c7" stroke="#000000" points="1038.8781,-187 1035.8781,-191 1014.8781,-191 1011.8781,-187 935.1219,-187 935.1219,-151 1038.8781,-151 1038.8781,-187"/>
<text text-anchor="middle" x="987" y="-164.8" font-family="Times,serif" font-size="14.00" fill="#000000">PatientsModule</text>
</g>
<!-- PatientsComponent&#45;&gt;PatientsModule -->
<g id="edge1" class="edge">
<title>PatientsComponent&#45;&gt;PatientsModule</title>
<path fill="none" stroke="#000000" d="M1741,-122.0109C1741,-144.4852 1741,-180 1741,-180 1741,-180 1049.123,-180 1049.123,-180"/>
<polygon fill="#000000" stroke="#000000" points="1049.123,-176.5001 1039.123,-180 1049.1229,-183.5001 1049.123,-176.5001"/>
</g>
<!-- PatientComponent -->
<g id="node2" class="node">
<title>PatientComponent</title>
<polygon fill="#ffffb3" stroke="#000000" points="1660.2162,-122 1539.7838,-122 1539.7838,-86 1660.2162,-86 1660.2162,-122"/>
<text text-anchor="middle" x="1600" y="-99.8" font-family="Times,serif" font-size="14.00" fill="#000000">PatientComponent</text>
</g>
<!-- PatientComponent&#45;&gt;PatientsModule -->
<g id="edge2" class="edge">
<title>PatientComponent&#45;&gt;PatientsModule</title>
<path fill="none" stroke="#000000" d="M1600,-122.1289C1600,-142.5724 1600,-173 1600,-173 1600,-173 1048.9996,-173 1048.9996,-173"/>
<polygon fill="#000000" stroke="#000000" points="1048.9996,-169.5001 1038.9996,-173 1048.9996,-176.5001 1048.9996,-169.5001"/>
</g>
<!-- PatientDetailsComponent -->
<g id="node3" class="node">
<title>PatientDetailsComponent</title>
<polygon fill="#ffffb3" stroke="#000000" points="1521.8683,-122 1362.1317,-122 1362.1317,-86 1521.8683,-86 1521.8683,-122"/>
<text text-anchor="middle" x="1442" y="-99.8" font-family="Times,serif" font-size="14.00" fill="#000000">PatientDetailsComponent</text>
</g>
<!-- PatientDetailsComponent&#45;&gt;PatientsModule -->
<g id="edge3" class="edge">
<title>PatientDetailsComponent&#45;&gt;PatientsModule</title>
<path fill="none" stroke="#000000" d="M1442,-122.2667C1442,-140.5552 1442,-166 1442,-166 1442,-166 1049.1943,-166 1049.1943,-166"/>
<polygon fill="#000000" stroke="#000000" points="1049.1943,-162.5001 1039.1943,-166 1049.1943,-169.5001 1049.1943,-162.5001"/>
</g>
<!-- ExaminationFormComponent -->
<g id="node4" class="node">
<title>ExaminationFormComponent</title>
<polygon fill="#ffffb3" stroke="#000000" points="1343.7105,-122 1160.2895,-122 1160.2895,-86 1343.7105,-86 1343.7105,-122"/>
<text text-anchor="middle" x="1252" y="-99.8" font-family="Times,serif" font-size="14.00" fill="#000000">ExaminationFormComponent</text>
</g>
<!-- ExaminationFormComponent&#45;&gt;PatientsModule -->
<g id="edge4" class="edge">
<title>ExaminationFormComponent&#45;&gt;PatientsModule</title>
<path fill="none" stroke="#000000" d="M1252,-122.0091C1252,-138.0494 1252,-159 1252,-159 1252,-159 1049.0393,-159 1049.0393,-159"/>
<polygon fill="#000000" stroke="#000000" points="1049.0393,-155.5001 1039.0393,-159 1049.0393,-162.5001 1049.0393,-155.5001"/>
</g>
<!-- ExaminationsComponent -->
<g id="node5" class="node">
<title>ExaminationsComponent</title>
<polygon fill="#ffffb3" stroke="#000000" points="1142.3215,-122 983.6785,-122 983.6785,-86 1142.3215,-86 1142.3215,-122"/>
<text text-anchor="middle" x="1063" y="-99.8" font-family="Times,serif" font-size="14.00" fill="#000000">ExaminationsComponent</text>
</g>
<!-- ExaminationsComponent&#45;&gt;PatientsModule -->
<g id="edge5" class="edge">
<title>ExaminationsComponent&#45;&gt;PatientsModule</title>
<path fill="none" stroke="#000000" d="M1011.3892,-122.1061C1011.3892,-122.1061 1011.3892,-140.991 1011.3892,-140.991"/>
<polygon fill="#000000" stroke="#000000" points="1007.8893,-140.9909 1011.3892,-150.991 1014.8893,-140.991 1007.8893,-140.9909"/>
</g>
<!-- SharedModule -->
<g id="node7" class="node">
<title>SharedModule</title>
<polygon fill="#8dd3c7" stroke="#000000" points="960.4231,-122 957.4231,-126 936.4231,-126 933.4231,-122 861.5769,-122 861.5769,-86 960.4231,-86 960.4231,-122"/>
<text text-anchor="middle" x="911" y="-99.8" font-family="Times,serif" font-size="14.00" fill="#000000">SharedModule</text>
</g>
<!-- SharedModule&#45;&gt;PatientsModule -->
<g id="edge6" class="edge">
<title>SharedModule&#45;&gt;PatientsModule</title>
<path fill="none" stroke="#000000" d="M947.6361,-122.1061C947.6361,-122.1061 947.6361,-140.991 947.6361,-140.991"/>
<polygon fill="#000000" stroke="#000000" points="944.1361,-140.9909 947.6361,-150.991 951.1361,-140.991 944.1361,-140.9909"/>
</g>
<!-- PatientsRoutingModule -->
<g id="node8" class="node">
<title>PatientsRoutingModule</title>
<polygon fill="#8dd3c7" stroke="#000000" points="843.4958,-122 840.4958,-126 819.4958,-126 816.4958,-122 694.5042,-122 694.5042,-86 843.4958,-86 843.4958,-122"/>
<text text-anchor="middle" x="769" y="-99.8" font-family="Times,serif" font-size="14.00" fill="#000000">PatientsRoutingModule</text>
</g>
<!-- PatientsRoutingModule&#45;&gt;PatientsModule -->
<g id="edge7" class="edge">
<title>PatientsRoutingModule&#45;&gt;PatientsModule</title>
<path fill="none" stroke="#000000" d="M769,-122.0091C769,-138.0494 769,-159 769,-159 769,-159 925.0605,-159 925.0605,-159"/>
<polygon fill="#000000" stroke="#000000" points="925.0606,-162.5001 935.0605,-159 925.0605,-155.5001 925.0606,-162.5001"/>
</g>
<!-- PatientGuardService -->
<g id="node9" class="node">
<title>PatientGuardService</title>
<ellipse fill="#fdb462" stroke="#000000" cx="580" cy="-104" rx="90.8858" ry="18"/>
<text text-anchor="middle" x="580" y="-99.8" font-family="Times,serif" font-size="14.00" fill="#000000">PatientGuardService</text>
</g>
<!-- PatientGuardService&#45;&gt;PatientsModule -->
<g id="edge8" class="edge">
<title>PatientGuardService&#45;&gt;PatientsModule</title>
<path fill="none" stroke="#000000" d="M580,-122.2667C580,-140.5552 580,-166 580,-166 580,-166 925.0398,-166 925.0398,-166"/>
<polygon fill="#000000" stroke="#000000" points="925.0398,-169.5001 935.0398,-166 925.0397,-162.5001 925.0398,-169.5001"/>
</g>
<!-- ExaminationService -->
<g id="node10" class="node">
<title>ExaminationService</title>
<ellipse fill="#fdb462" stroke="#000000" cx="382" cy="-104" rx="89.1838" ry="18"/>
<text text-anchor="middle" x="382" y="-99.8" font-family="Times,serif" font-size="14.00" fill="#000000">ExaminationService</text>
</g>
<!-- ExaminationService&#45;&gt;PatientsModule -->
<g id="edge9" class="edge">
<title>ExaminationService&#45;&gt;PatientsModule</title>
<path fill="none" stroke="#000000" d="M382,-122.1289C382,-142.5724 382,-173 382,-173 382,-173 924.8944,-173 924.8944,-173"/>
<polygon fill="#000000" stroke="#000000" points="924.8944,-176.5001 934.8944,-173 924.8944,-169.5001 924.8944,-176.5001"/>
</g>
<!-- PatientDetailsResolveService -->
<g id="node11" class="node">
<title>PatientDetailsResolveService</title>
<ellipse fill="#fdb462" stroke="#000000" cx="149" cy="-104" rx="125.049" ry="18"/>
<text text-anchor="middle" x="149" y="-99.8" font-family="Times,serif" font-size="14.00" fill="#000000">PatientDetailsResolveService</text>
</g>
<!-- PatientDetailsResolveService&#45;&gt;PatientsModule -->
<g id="edge10" class="edge">
<title>PatientDetailsResolveService&#45;&gt;PatientsModule</title>
<path fill="none" stroke="#000000" d="M149,-122.0109C149,-144.4852 149,-180 149,-180 149,-180 924.896,-180 924.896,-180"/>
<polygon fill="#000000" stroke="#000000" points="924.896,-183.5001 934.896,-180 924.8959,-176.5001 924.896,-183.5001"/>
</g>
</g>
</svg>
