<?xml version="1.0" encoding="iso-8859-1"?>
<!-- Generator: Adobe Illustrator 19.0.0, SVG Export Plug-In . SVG Version: 6.00 Build 0)  -->
<svg xmlns="http://www.w3.org/2000/svg" xmlns:xlink="http://www.w3.org/1999/xlink" version="1.1" id="Layer_1" x="0px" y="0px" viewBox="0 0 512.001 512.001" style="enable-background:new 0 0 512.001 512.001;" xml:space="preserve">
<path style="fill:#E8E8E8;" d="M96.355,159.011H16.661c-9.171,0-16.632-7.462-16.632-16.633V62.683c0-4.226,3.425-7.651,7.651-7.651  s7.651,3.426,7.651,7.651c0,85.23-0.571,81.024,1.33,81.024h79.695c4.226,0,7.652,3.425,7.652,7.651  C104.007,155.585,100.581,159.011,96.355,159.011z"/>
<path style="fill:#D6D6D6;" d="M102.771,155.521c0-0.001,0.001-0.002,0.001-0.002c-1.465-2.386-4.089-3.981-7.092-3.981H17.737  c-9.158,0-10.151-8.905-10.236-11.729V63.36c0-3.005-1.595-5.628-3.98-7.092c-1.48,0.962-2.671,2.463-3.202,4.349  c-0.453,1.597-0.291-3.613-0.291,81.761c0,9.171,7.461,16.633,16.632,16.633h2.533h77.162  C98.864,159.011,101.31,157.761,102.771,155.521z"/>
<path style="fill:#DBDADF;" d="M355.461,39.373c-38.877,33.875-43.106,91.003-12.289,129.867c0,0,0.002,0.003,0.002,0.005  c44.786,56.448,133.03,43.92,160.934-21.773c0.002-0.002,0.002-0.004,0.003-0.005C542.767,56.417,430.748-25.668,355.461,39.373z"/>
<path style="fill:#B8BFC1;" d="M357.103,157.052c-32.109-52.573-6.084-124.097,57.769-140.684  c-76.667,1.273-120.298,91.587-71.701,152.871c0,0,0.002,0.003,0.002,0.005c23.162,29.194,60.932,42.012,96.853,33.053  C407.787,203.105,376.083,187.409,357.103,157.052z"/>
<path style="fill:#DBDADF;" d="M397.779,475.536l23.259-23.259c-22.837-22.837-94.277-94.274-116.793-116.791l-23.257,23.257  L397.779,475.536z"/>
<rect x="262.635" y="403.061" transform="matrix(-0.7071 -0.7071 0.7071 -0.7071 298.4858 946.2467)" style="fill:#B8BFC1;" width="165.165" height="16.488"/>
<path style="fill:#DBDADF;" d="M158.778,190.017l-40.95-40.952c-6.422-6.42-16.836-6.422-23.26,0  c-6.422,6.423-6.42,16.838,0.002,23.259l40.949,40.951L158.778,190.017z"/>
<path style="fill:#B8BFC1;" d="M106.472,162.463c-4.831-4.831-6.026-11.92-3.591-17.87c-12.778,2.616-17.571,18.47-8.311,27.731  l40.949,40.951l10.882-10.883L106.472,162.463z"/>
<path style="fill:#C6A875;" d="M296.194,254.542l61.815-61.814c5.829-5.832,5.829-15.285,0-21.116  c-5.831-5.832-15.288-5.832-21.115,0l-61.816,61.814L296.194,254.542z"/>
<path style="fill:#B5915D;" d="M343.869,185.039c4.991-4.992,12.27-6.286,18.462-3.908c-0.886-12.756-16.405-18.559-25.437-9.519  l-61.816,61.814l10.203,10.202L343.869,185.039z"/>
<path style="fill:#E4F3F9;" d="M480.611,98.8c-6.28-33.504-37.907-56.638-72.064-52.017l0,0c-0.001,0-0.001,0-0.002,0  c-47.909,6.481-72.527,62.156-43.395,102.059c12.848,17.48,34.318,28.189,57.758,26.145c0.06-0.005,2.897-0.28,2.939-0.322  C449.756,174.666,488.964,143.46,480.611,98.8z"/>
<path style="fill:#B6E0EF;" d="M372.624,113.41c-2.568-30.631,16.978-58.603,45.892-67.192c-3.284-0.064-6.614,0.112-9.969,0.566  l0,0c-0.001,0-0.001,0-0.002,0c-47.909,6.481-72.527,62.156-43.395,102.059c14.013,19.065,37.307,28.989,60.695,25.824  c0.001,0,0.001,0,0.002-0.001c0.999,0,6.063-1.03,9.762-2.102C401.506,171.565,375.348,145.572,372.624,113.41z"/>
<path style="fill:#C6A875;" d="M437.628,468.869L419.8,451.038l-23.26,23.259l17.831,17.831c5.139,5.138,13.469,5.138,18.608,0  l4.65-4.65C442.767,482.339,442.767,474.006,437.628,468.869z"/>
<path style="fill:#938265;" d="M425.511,479.806l-17.24-17.24l-11.732,11.732l17.831,17.831c5.139,5.138,13.469,5.138,18.608,0  l4.65-4.65c0.647-0.647,1.213-1.348,1.699-2.085C434.336,485.469,429.321,483.612,425.511,479.806z"/>
<path style="fill:#AA9A79;" d="M306.883,317.191c-23.509-23.511-92.57-92.571-93.928-93.929h-0.001l-35.431-35.431  c-5.137-5.133-13.465-5.133-18.603,0.003l-25.583,25.584c-5.138,5.139-5.136,13.471,0,18.607l62.07,62.069  c13.848,13.848,53.458,53.458,67.288,67.29c5.137,5.139,13.468,5.139,18.607,0l25.583-25.584  C312.023,330.66,312.021,322.329,306.883,317.191z"/>
<path style="fill:#938265;" d="M215.717,272.353c-70.122-70.124-67.817-66.362-68.729-72.587l-13.651,13.652  c-5.138,5.139-5.136,13.471,0,18.607l62.07,62.069c13.848,13.848,53.458,53.458,67.288,67.29c5.137,5.139,13.468,5.139,18.607,0  l14.696-14.695C287.912,346.828,292.373,349.009,215.717,272.353z"/>
<path style="fill:#B5A385;" d="M298.267,254.577l-23.225-23.225c-4.664-4.666-12.227-4.666-16.892,0L37.135,452.364  c-4.664,4.664-4.664,12.227,0,16.892l23.228,23.227c4.665,4.664,12.228,4.664,16.892,0  c48.551-48.552,176.993-176.995,221.011-221.013C302.934,266.807,302.934,259.242,298.267,254.577z"/>
<path style="fill:#A08D70;" d="M55.553,473.738L278.813,250.48c3.384-3.385,8.274-4.325,12.509-2.849l-16.28-16.281  c-4.664-4.666-12.227-4.666-16.892,0L37.135,452.364c-4.664,4.664-4.664,12.227,0,16.892l15.069,15.069  C51.562,480.593,52.673,476.619,55.553,473.738z"/>
<path style="fill:#C6A875;" d="M60.363,492.483l-23.228-23.227c-4.664-4.665-4.664-12.228,0-16.892l16.19-16.189l40.12,40.121  l-16.189,16.188C72.591,497.148,65.029,497.148,60.363,492.483z"/>
<path style="fill:#B5915D;" d="M55.553,473.738l17.669-17.667l-19.897-19.897l-16.19,16.189c-4.664,4.664-4.664,12.227,0,16.892  l15.069,15.069C51.562,480.593,52.673,476.619,55.553,473.738z"/>
<path style="fill:#CEB99B;" d="M87.682,441.936c-2.988-2.99-2.989-7.834,0-10.821l171.741-171.744c2.988-2.986,7.833-2.986,10.82,0  c2.988,2.99,2.988,7.833,0,10.822L98.503,441.936C95.515,444.923,90.669,444.922,87.682,441.936z"/>
<g>
</g>
<g>
</g>
<g>
</g>
<g>
</g>
<g>
</g>
<g>
</g>
<g>
</g>
<g>
</g>
<g>
</g>
<g>
</g>
<g>
</g>
<g>
</g>
<g>
</g>
<g>
</g>
<g>
</g>
</svg>
