<?xml version="1.0" encoding="iso-8859-1"?>
<!-- Generator: Adobe Illustrator 19.0.0, SVG Export Plug-In . SVG Version: 6.00 Build 0)  -->
<svg xmlns="http://www.w3.org/2000/svg" xmlns:xlink="http://www.w3.org/1999/xlink" version="1.1" id="Layer_1" x="0px" y="0px" viewBox="0 0 512.001 512.001" style="enable-background:new 0 0 512.001 512.001;" xml:space="preserve">
<path style="fill:#B0DCF7;" d="M445.87,172.098c-0.006,0.004-0.012,0.007-0.018,0.011c0-72.265-42.352-136.322-112.015-146.885  c0-0.001,0.002-0.002,0.002-0.003c-34.832-5.45-70.28,4.626-99.909,24.282c-29.635-19.658-64.8-29.619-99.91-24.282  c0.002,0.001,0.002,0.002,0.004,0.003C70.773,34.813,22.01,92.367,22.01,172.108c-0.006-0.003-0.012-0.007-0.018-0.011  c0,60.9,30.168,124.22,82.364,160.408c-17.039,131.519,66.049,244.499,66.049,135.979c0-73.638,30.238-95.011,63.526-95.34  c49.175,0.486,63.524,45.973,63.524,95.34c0,108.517,83.089-4.451,66.049-135.979C414.077,297.481,445.87,234.967,445.87,172.098z"/>
<path style="fill:#7AC1DD;" d="M125.125,329.675c0-0.009,0-0.016,0.003-0.024c0.473-5.468-2.02-9.893-5.154-11.819l0.006-0.004  c-47.632-36.125-76.358-96.378-76.358-156.029c0.006,0.004,0.012,0.007,0.018,0.011c0-53.081,22.855-104.087,67.007-130.647  c-57.245,20.714-88.636,78.751-88.636,140.946c-0.006-0.003-0.012-0.007-0.018-0.011c0,60.9,30.168,124.22,82.364,160.408  c-15.025,115.974,47.818,217.579,62.875,165.473C144.986,481.181,116.992,409.611,125.125,329.675z"/>
<path style="fill:#BBE6FC;" d="M333.838,25.224c0-0.001,0.002-0.002,0.002-0.003c-33.752-5.282-68.161,4.016-97.322,22.608  c-20.964,114.069,32.698,225.974,130.116,282.444c48.859-35.69,79.237-96.519,79.237-158.176c-0.006,0.004-0.012,0.007-0.018,0.011  C445.853,99.844,403.501,35.786,333.838,25.224z"/>
<path style="fill:#6DC180;" d="M386.652,0.698c-71.355,8.231-106.776,91.256-63.183,148.545  c27.877,36.67,79.336,47.755,120.277,24.118C529.753,123.704,487.268-10.833,386.652,0.698z"/>
<path style="fill:#519E5C;" d="M341.309,138.943c-25.356-33.322-25.07-78.67-0.709-111.657c0.243-0.328,5.9-7.507,6.293-7.605  c4.182-4.538,8.597-8.392,13.209-11.796c-1.42,0.735-16.89,6.729-31.047,22.096c-0.002,0-0.002,0.003-0.002,0.003  c-30.069,32.457-33.303,82.83-5.583,119.26c30.032,39.505,87.201,49.094,128.902,18.459  C413.183,184.902,367.132,172.911,341.309,138.943z"/>
<path style="fill:#F5F5F5;" d="M437.976,76.467h-24.174V52.294c0-9.103-7.383-16.482-16.483-16.482  c-9.104,0-16.481,7.379-16.481,16.482v24.174h-24.176c-9.104,0-16.481,7.38-16.481,16.483s7.377,16.483,16.481,16.483h24.176v24.174  c0,9.102,7.377,16.482,16.481,16.482c9.1,0,16.483-7.38,16.483-16.482v-24.174h24.174c9.1,0,16.481-7.38,16.481-16.483  C454.457,83.846,447.077,76.467,437.976,76.467z"/>
<g>
</g>
<g>
</g>
<g>
</g>
<g>
</g>
<g>
</g>
<g>
</g>
<g>
</g>
<g>
</g>
<g>
</g>
<g>
</g>
<g>
</g>
<g>
</g>
<g>
</g>
<g>
</g>
<g>
</g>
</svg>
