<?xml version="1.0" encoding="iso-8859-1"?>
<!-- Generator: Adobe Illustrator 19.0.0, SVG Export Plug-In . SVG Version: 6.00 Build 0)  -->
<svg xmlns="http://www.w3.org/2000/svg" xmlns:xlink="http://www.w3.org/1999/xlink" version="1.1" id="Layer_1" x="0px" y="0px" viewBox="0 0 512 512" style="enable-background:new 0 0 512 512;" xml:space="preserve">
<path style="fill:#DBDADF;" d="M367.429,92.421h-29.867v23.105c0,5.783-4.689,10.473-10.473,10.473h-4.362  c-5.785,0-10.475-4.689-10.475-10.473V92.421h-27.593v23.105c0,5.783-4.687,10.473-10.472,10.473h-4.364  c-5.783,0-10.471-4.689-10.471-10.473V92.421H120.481v23.105c0,5.783-4.689,10.473-10.475,10.473h-4.36  c-5.787,0-10.475-4.689-10.475-10.473V92.421H67.58v23.105c0,5.783-4.688,10.473-10.472,10.473h-4.365  c-5.785,0-10.47-4.689-10.47-10.473V92.421H12.404C5.554,92.421,0,97.974,0,104.824v289.912c0,6.85,5.554,12.402,12.404,12.402  c73.085,0,260.279,0,335.145,0c-1.142-10.319-1.238-21.493,0.248-32.968c-15.311-10.626-27.106-26.425-33.73-44.212  c-21.69-57.903,16.029-112.204,65.766-104.772V104.824C379.834,97.974,374.279,92.421,367.429,92.421z"/>
<path style="fill:#B8BFC1;" d="M20.654,394.736V104.824c0-6.85,5.553-12.402,12.402-12.402H12.404C5.554,92.421,0,97.974,0,104.824  v289.912c0,6.85,5.554,12.402,12.404,12.402h20.652C26.206,407.138,20.654,401.585,20.654,394.736z"/>
<path style="fill:#E6E6E8;" d="M367.429,92.421h-29.867v23.105c0,5.783-4.689,10.473-10.473,10.473h-4.362  c-5.785,0-10.475-4.689-10.475-10.473V92.421h-27.593v23.105c0,5.783-4.687,10.473-10.472,10.473h-4.364  c-5.783,0-10.471-4.689-10.471-10.473V92.421H243.04c-3.17,71.863,21.774,138.661,66.072,189.545  c6.454-38.229,37.162-61.795,70.722-56.781V104.824C379.834,97.974,374.279,92.421,367.429,92.421z"/>
<path style="fill:#F7414B;" d="M367.429,92.421c-42.207,0-312.614,0-355.025,0C5.554,92.421,0,97.974,0,104.824v71.029  c20.266,0,367.157,0,379.834,0v-71.029C379.834,97.974,374.279,92.421,367.429,92.421z"/>
<path style="fill:#D82E3F;" d="M20.654,104.824c0-6.85,5.553-12.402,12.402-12.402H12.404C5.554,92.421,0,97.974,0,104.824v71.029  h20.654V104.824z"/>
<path style="fill:#F95868;" d="M367.429,92.421c-16.924,0-107.354,0-124.389,0c-1.225,27.764,1.672,55.712,9.234,83.431  c5.341,0,122.064,0,127.56,0v-71.029C379.834,97.974,374.279,92.421,367.429,92.421z"/>
<path style="fill:#B0DCF7;" d="M449.303,223.657c-0.089,0-2.914-0.004-2.825-0.004c-9.23,0-23.805,3.709-36.972,12.453  c-13.721-9.111-28.276-12.453-36.971-12.453c1.516,0-22.81-2.456-42.964,15.858c-36.614,33.878-27.378,102.729,17.195,133.628  c-7.957,61.392,29.436,115.401,31.863,70.458c0.165-3.103,0.084-5.332,0.146-7.205c0.472-17.569,4.709-37.264,21.521-42.145  l0.006-0.005c6.174-1.855,12.211-1.863,18.411,0l0.006,0.005c31.445,9.074,14.94,60.819,27.424,65.453  c10.838,4.679,32.35-38.387,26.106-86.561C536.012,328.887,519.173,223.657,449.303,223.657z"/>
<path style="fill:#7AC1DD;" d="M366.255,372.023c0.285-4.966-1.97-8.333-3.772-9.412l0.006-0.004  c-45.296-35.895-48.206-111.006-2.201-138.118c-43.963,7.315-65.659,59.22-46.361,106.734c7.025,17.46,18.676,32.098,32.837,41.915  c-8.091,62.431,30.885,117.763,31.957,67.389C368.254,421.515,363.923,391.378,366.255,372.023z"/>
<path style="fill:#BBE6FC;" d="M449.303,223.657c-0.089,0-2.914-0.004-2.825-0.004c-9.23,0-23.805,3.709-36.972,12.453  c-13.721-9.111-28.276-12.453-36.971-12.453c1.516,0-22.81-2.456-42.964,15.858c-11.673,10.801-18.81,25.534-21.467,41.286  c41.499,48.222,99.728,81.626,165.68,91.225C535.944,326.71,518.363,223.657,449.303,223.657z"/>
<path style="fill:#96D2EA;" d="M328.009,301.578c-4.354-29.908,5.981-61.721,32.278-77.088c-6.192,0-23.26,6.791-32.302,16.536  c-9.779,9.638-17.117,23.375-19.881,39.772C314.366,288.074,321.016,295.007,328.009,301.578z"/>
<g>
	<path style="fill:#F5F5F5;" d="M308.94,228.044H48.599c-4.277,0-7.745-3.468-7.745-7.746c0-4.277,3.468-7.744,7.745-7.744h260.342   c4.277,0,7.745,3.467,7.745,7.744C316.686,224.576,313.218,228.044,308.94,228.044z"/>
	<path style="fill:#F5F5F5;" d="M287.899,263.186h-239.3c-4.277,0-7.745-3.467-7.745-7.745c0-4.278,3.468-7.745,7.745-7.745h239.3   c4.275,0,7.745,3.467,7.745,7.745C295.645,259.719,292.175,263.186,287.899,263.186z"/>
	<path style="fill:#F5F5F5;" d="M281.179,298.327H48.599c-4.277,0-7.745-3.467-7.745-7.744c0-4.278,3.468-7.745,7.745-7.745h232.58   c4.277,0,7.745,3.467,7.745,7.745C288.925,294.86,285.457,298.327,281.179,298.327z"/>
	<path style="fill:#F5F5F5;" d="M285.832,333.47H48.599c-4.277,0-7.745-3.467-7.745-7.745c0-4.277,3.468-7.745,7.745-7.745h237.232   c4.278,0,7.745,3.468,7.745,7.745C293.577,330.003,290.11,333.47,285.832,333.47z"/>
	<path style="fill:#F5F5F5;" d="M301.336,368.614H48.599c-4.277,0-7.745-3.468-7.745-7.745c0-4.278,3.468-7.745,7.745-7.745h252.737   c4.276,0,7.746,3.467,7.746,7.745C309.082,365.147,305.612,368.614,301.336,368.614z"/>
</g>
<g>
	<path style="fill:#C6A875;" d="M67.58,115.526c0,5.783-4.688,10.473-10.472,10.473h-4.365c-5.785,0-10.47-4.689-10.47-10.473   V62.291c0-5.783,4.685-10.473,10.47-10.473h4.365c5.784,0,10.472,4.689,10.472,10.473V115.526z"/>
	<path style="fill:#C6A875;" d="M120.481,115.526c0,5.783-4.689,10.473-10.475,10.473h-4.36c-5.787,0-10.475-4.689-10.475-10.473   V62.291c0-5.783,4.688-10.473,10.475-10.473h4.36c5.785,0,10.475,4.689,10.475,10.473V115.526z"/>
	<path style="fill:#C6A875;" d="M284.659,115.526c0,5.783-4.687,10.473-10.472,10.473h-4.364c-5.783,0-10.471-4.689-10.471-10.473   V62.291c0-5.783,4.688-10.473,10.471-10.473h4.364c5.785,0,10.472,4.689,10.472,10.473V115.526z"/>
	<path style="fill:#C6A875;" d="M337.562,115.526c0,5.783-4.689,10.473-10.473,10.473h-4.362c-5.785,0-10.475-4.689-10.475-10.473   V62.291c0-5.783,4.69-10.473,10.475-10.473h4.362c5.783,0,10.473,4.689,10.473,10.473V115.526z"/>
</g>
<g>
	<path style="fill:#B29166;" d="M54.924,115.526V62.291c0-4.311,2.606-8.011,6.328-9.616c-2.437-1.053-3.953-0.856-8.51-0.856   c-5.785,0-10.47,4.689-10.47,10.473v53.235c0,5.783,4.685,10.473,10.47,10.473c4.564,0,6.076,0.195,8.51-0.856   C57.531,123.535,54.924,119.836,54.924,115.526z"/>
	<path style="fill:#B29166;" d="M107.825,115.526V62.291c0-4.311,2.605-8.01,6.327-9.616c-2.435-1.052-3.945-0.856-8.505-0.856   c-5.787,0-10.475,4.689-10.475,10.473v53.235c0,5.783,4.688,10.473,10.475,10.473h4.36c1.474,0,2.874-0.308,4.145-0.856   C110.429,123.535,107.825,119.836,107.825,115.526z"/>
	<path style="fill:#B29166;" d="M272.008,115.526V62.291c0-4.311,2.605-8.011,6.325-9.616c-2.428-1.05-3.94-0.856-8.509-0.856   c-5.783,0-10.471,4.689-10.471,10.473v53.235c0,5.783,4.688,10.473,10.471,10.473c4.563,0,6.08,0.195,8.509-0.856   C274.612,123.535,272.008,119.836,272.008,115.526z"/>
	<path style="fill:#B29166;" d="M324.906,115.526V62.291c0-4.311,2.606-8.01,6.328-9.616c-2.436-1.05-3.936-0.856-8.508-0.856   c-5.785,0-10.475,4.689-10.475,10.473v53.235c0,5.783,4.69,10.473,10.475,10.473c4.569,0,6.072,0.194,8.508-0.856   C327.513,123.535,324.906,119.836,324.906,115.526z"/>
</g>
<g>
</g>
<g>
</g>
<g>
</g>
<g>
</g>
<g>
</g>
<g>
</g>
<g>
</g>
<g>
</g>
<g>
</g>
<g>
</g>
<g>
</g>
<g>
</g>
<g>
</g>
<g>
</g>
<g>
</g>
</svg>
