<?xml version="1.0" encoding="UTF-8" standalone="no"?>
<!DOCTYPE svg PUBLIC "-//W3C//DTD SVG 1.1//EN"
 "http://www.w3.org/Graphics/SVG/1.1/DTD/svg11.dtd">
<!-- Generated by graphviz version 2.40.1 (20161225.0304)
 -->
<!-- Title: dependencies Pages: 1 -->
<svg width="946pt" height="211pt"
 viewBox="0.00 0.00 946.00 211.00" xmlns="http://www.w3.org/2000/svg" xmlns:xlink="http://www.w3.org/1999/xlink">
<g id="graph0" class="graph" transform="scale(1 1) rotate(0) translate(4 207)">
<title>dependencies</title>
<polygon fill="#ffffff" stroke="transparent" points="-4,4 -4,-207 942,-207 942,4 -4,4"/>
<text text-anchor="start" x="448.0091" y="-42.4" font-family="sans-serif" font-weight="bold" font-size="14.00" fill="#000000">Legend</text>
<polygon fill="#ffffb3" stroke="transparent" points="235,-10 235,-30 255,-30 255,-10 235,-10"/>
<text text-anchor="start" x="258.629" y="-15.4" font-family="sans-serif" font-size="14.00" fill="#000000"> &#160;Declarations</text>
<polygon fill="#8dd3c7" stroke="transparent" points="348,-10 348,-30 368,-30 368,-10 348,-10"/>
<text text-anchor="start" x="371.7251" y="-15.4" font-family="sans-serif" font-size="14.00" fill="#000000"> &#160;Module</text>
<polygon fill="#80b1d3" stroke="transparent" points="434,-10 434,-30 454,-30 454,-10 434,-10"/>
<text text-anchor="start" x="457.7812" y="-15.4" font-family="sans-serif" font-size="14.00" fill="#000000"> &#160;Bootstrap</text>
<polygon fill="#fdb462" stroke="transparent" points="531,-10 531,-30 551,-30 551,-10 531,-10"/>
<text text-anchor="start" x="554.6732" y="-15.4" font-family="sans-serif" font-size="14.00" fill="#000000"> &#160;Providers</text>
<polygon fill="#fb8072" stroke="transparent" points="627,-10 627,-30 647,-30 647,-10 627,-10"/>
<text text-anchor="start" x="650.7258" y="-15.4" font-family="sans-serif" font-size="14.00" fill="#000000"> &#160;Exports</text>
<g id="clust1" class="cluster">
<title>cluster_StaffModule</title>
<polygon fill="none" stroke="#000000" stroke-dasharray="1,5" points="8,-70 8,-195 930,-195 930,-70 8,-70"/>
</g>
<g id="clust2" class="cluster">
<title>cluster_StaffModule_declarations</title>
<polygon fill="none" stroke="#000000" points="492,-78 492,-130 922,-130 922,-78 492,-78"/>
</g>
<g id="clust6" class="cluster">
<title>cluster_StaffModule_imports</title>
<polygon fill="none" stroke="#000000" points="220,-78 220,-130 484,-130 484,-78 220,-78"/>
</g>
<g id="clust9" class="cluster">
<title>cluster_StaffModule_providers</title>
<polygon fill="none" stroke="#000000" points="16,-78 16,-130 212,-130 212,-78 16,-78"/>
</g>
<!-- StaffComponent -->
<g id="node1" class="node">
<title>StaffComponent</title>
<polygon fill="#ffffb3" stroke="#000000" points="914.0424,-122 805.9576,-122 805.9576,-86 914.0424,-86 914.0424,-122"/>
<text text-anchor="middle" x="860" y="-99.8" font-family="Times,serif" font-size="14.00" fill="#000000">StaffComponent</text>
</g>
<!-- StaffModule -->
<g id="node4" class="node">
<title>StaffModule</title>
<polygon fill="#8dd3c7" stroke="#000000" points="544.2591,-187 541.2591,-191 520.2591,-191 517.2591,-187 457.7409,-187 457.7409,-151 544.2591,-151 544.2591,-187"/>
<text text-anchor="middle" x="501" y="-164.8" font-family="Times,serif" font-size="14.00" fill="#000000">StaffModule</text>
</g>
<!-- StaffComponent&#45;&gt;StaffModule -->
<g id="edge1" class="edge">
<title>StaffComponent&#45;&gt;StaffModule</title>
<path fill="none" stroke="#000000" d="M860,-122.2843C860,-143.3211 860,-175 860,-175 860,-175 554.3038,-175 554.3038,-175"/>
<polygon fill="#000000" stroke="#000000" points="554.3038,-171.5001 544.3038,-175 554.3038,-178.5001 554.3038,-171.5001"/>
</g>
<!-- DoctorComponent -->
<g id="node2" class="node">
<title>DoctorComponent</title>
<polygon fill="#ffffb3" stroke="#000000" points="788.205,-122 667.795,-122 667.795,-86 788.205,-86 788.205,-122"/>
<text text-anchor="middle" x="728" y="-99.8" font-family="Times,serif" font-size="14.00" fill="#000000">DoctorComponent</text>
</g>
<!-- DoctorComponent&#45;&gt;StaffModule -->
<g id="edge2" class="edge">
<title>DoctorComponent&#45;&gt;StaffModule</title>
<path fill="none" stroke="#000000" d="M728,-122.0225C728,-139.3734 728,-163 728,-163 728,-163 554.4993,-163 554.4993,-163"/>
<polygon fill="#000000" stroke="#000000" points="554.4993,-159.5001 544.4993,-163 554.4993,-166.5001 554.4993,-159.5001"/>
</g>
<!-- DoctorFormComponent -->
<g id="node3" class="node">
<title>DoctorFormComponent</title>
<polygon fill="#ffffb3" stroke="#000000" points="650.0393,-122 499.9607,-122 499.9607,-86 650.0393,-86 650.0393,-122"/>
<text text-anchor="middle" x="575" y="-99.8" font-family="Times,serif" font-size="14.00" fill="#000000">DoctorFormComponent</text>
</g>
<!-- DoctorFormComponent&#45;&gt;StaffModule -->
<g id="edge3" class="edge">
<title>DoctorFormComponent&#45;&gt;StaffModule</title>
<path fill="none" stroke="#000000" d="M522.055,-122.1061C522.055,-122.1061 522.055,-140.991 522.055,-140.991"/>
<polygon fill="#000000" stroke="#000000" points="518.5551,-140.9909 522.055,-150.991 525.5551,-140.991 518.5551,-140.9909"/>
</g>
<!-- SharedModule -->
<g id="node5" class="node">
<title>SharedModule</title>
<polygon fill="#8dd3c7" stroke="#000000" points="476.4231,-122 473.4231,-126 452.4231,-126 449.4231,-122 377.5769,-122 377.5769,-86 476.4231,-86 476.4231,-122"/>
<text text-anchor="middle" x="427" y="-99.8" font-family="Times,serif" font-size="14.00" fill="#000000">SharedModule</text>
</g>
<!-- SharedModule&#45;&gt;StaffModule -->
<g id="edge4" class="edge">
<title>SharedModule&#45;&gt;StaffModule</title>
<path fill="none" stroke="#000000" d="M466.9159,-122.1061C466.9159,-122.1061 466.9159,-140.991 466.9159,-140.991"/>
<polygon fill="#000000" stroke="#000000" points="463.4159,-140.9909 466.9159,-150.991 470.4159,-140.991 463.4159,-140.9909"/>
</g>
<!-- StaffRoutingModule -->
<g id="node6" class="node">
<title>StaffRoutingModule</title>
<polygon fill="#8dd3c7" stroke="#000000" points="359.8767,-122 356.8767,-126 335.8767,-126 332.8767,-122 228.1233,-122 228.1233,-86 359.8767,-86 359.8767,-122"/>
<text text-anchor="middle" x="294" y="-99.8" font-family="Times,serif" font-size="14.00" fill="#000000">StaffRoutingModule</text>
</g>
<!-- StaffRoutingModule&#45;&gt;StaffModule -->
<g id="edge5" class="edge">
<title>StaffRoutingModule&#45;&gt;StaffModule</title>
<path fill="none" stroke="#000000" d="M294,-122.0225C294,-139.3734 294,-163 294,-163 294,-163 447.606,-163 447.606,-163"/>
<polygon fill="#000000" stroke="#000000" points="447.6061,-166.5001 457.606,-163 447.606,-159.5001 447.6061,-166.5001"/>
</g>
<!-- StaffResolveService -->
<g id="node7" class="node">
<title>StaffResolveService</title>
<ellipse fill="#fdb462" stroke="#000000" cx="114" cy="-104" rx="89.7402" ry="18"/>
<text text-anchor="middle" x="114" y="-99.8" font-family="Times,serif" font-size="14.00" fill="#000000">StaffResolveService</text>
</g>
<!-- StaffResolveService&#45;&gt;StaffModule -->
<g id="edge6" class="edge">
<title>StaffResolveService&#45;&gt;StaffModule</title>
<path fill="none" stroke="#000000" d="M114,-122.2843C114,-143.3211 114,-175 114,-175 114,-175 447.7327,-175 447.7327,-175"/>
<polygon fill="#000000" stroke="#000000" points="447.7327,-178.5001 457.7327,-175 447.7326,-171.5001 447.7327,-178.5001"/>
</g>
</g>
</svg>
