<?xml version="1.0" encoding="iso-8859-1"?>
<!-- Generator: Adobe Illustrator 19.0.0, SVG Export Plug-In . SVG Version: 6.00 Build 0)  -->
<svg xmlns="http://www.w3.org/2000/svg" xmlns:xlink="http://www.w3.org/1999/xlink" version="1.1" id="Layer_1" x="0px" y="0px" viewBox="0 0 512 512" style="enable-background:new 0 0 512 512;" xml:space="preserve">
<path style="fill:#9FC95D;" d="M391.328,42.759c-46.882-29.097-117.477,2.401-127.874,55.818c-0.242,1.241,0.309,2.501,1.383,3.167  c45.885,28.482,117.87-1.271,127.881-55.851C392.943,44.664,392.392,43.418,391.328,42.759z"/>
<path style="fill:#8CB543;" d="M344.97,50.947c15.868-6.926,32.154-9.092,47.329-7.221c-0.241-0.384-0.569-0.718-0.972-0.967  C344.445,13.662,273.85,45.16,263.453,98.577c-0.242,1.241,0.309,2.501,1.383,3.167c8.873,5.507,19.157,9.023,30.17,10.381  C292.743,108.517,303.052,69.247,344.97,50.947z"/>
<path style="fill:#9FC95D;" d="M168.687,49.845c-1.204,0.384-2.044,1.474-2.112,2.736c-2.138,39.961,42.457,74.719,80.893,62.416  c1.204-0.387,2.044-1.477,2.112-2.739C251.696,72.472,207.268,37.485,168.687,49.845z"/>
<path style="fill:#8CB543;" d="M208.146,54.502c0.042-0.791,0.387-1.512,0.934-2.035c-14.035-5.949-28.408-6.461-40.393-2.621  c-1.204,0.384-2.044,1.474-2.112,2.736c-0.995,18.594,8.686,38.091,25.264,50.881c26.65,20.569,54.628,12.924,56.804,10.835  C222.92,103.389,206.881,78.162,208.146,54.502z"/>
<path style="fill:#F7414B;" d="M425.963,161.889c-42.108-30.75-96.171-33.276-139.672-11.149l-0.002-0.027  c0,0-5.31,2.709-10.625,6.059c-15.367,6.873-28.615,4.642-37.594,1.072c-6.125-3.989-12.327-7.131-12.327-7.131l-0.007,0.025  c-43.5-22.125-97.559-19.599-139.665,11.151c-59.68,43.582-72.731,127.303-29.145,186.986  c2.727,3.734,95.951,131.384,98.761,135.234c8.084,10.453,44.829,51.096,100.327,9.614c55.498,41.483,92.243,0.839,100.329-9.614  c60.486-83.567-2.952,4.05,98.761-135.234C498.692,289.192,485.642,205.472,425.963,161.889z"/>
<path style="fill:#D82E3F;" d="M175.982,477.006c-2.811-3.848-96.033-131.498-98.761-135.235  c-50.224-68.77-24.276-166.542,53.769-201.249C39.928,164.377,1.362,272.794,56.926,348.875  c2.727,3.734,95.951,131.384,98.761,135.234c7.276,9.408,37.773,43.261,84.261,19.691  C204.922,510.43,182.139,484.965,175.982,477.006z"/>
<path style="fill:#FC657B;" d="M425.963,161.889c-42.108-30.75-96.171-33.276-139.672-11.149l-0.002-0.027  c-7.587,3.87-18.165,12.465-36.508,10.161c3.238,108.801,71.904,201.171,168.013,239.096c6.056-8.291,33.409-45.749,37.313-51.094  C498.692,289.192,485.642,205.472,425.963,161.889z"/>
<path style="fill:#AA9A79;" d="M251.766,168.684c-4.202,0-7.61-3.407-7.61-7.611c0-77.623,20.283-128.396,37.298-157.319  c2.131-3.625,6.797-4.834,10.419-2.701c3.622,2.13,4.831,6.796,2.7,10.418c-16.056,27.294-35.196,75.405-35.196,149.602  C259.376,165.276,255.969,168.684,251.766,168.684z"/>
<g>
</g>
<g>
</g>
<g>
</g>
<g>
</g>
<g>
</g>
<g>
</g>
<g>
</g>
<g>
</g>
<g>
</g>
<g>
</g>
<g>
</g>
<g>
</g>
<g>
</g>
<g>
</g>
<g>
</g>
</svg>
