<?xml version="1.0" encoding="iso-8859-1"?>
<!-- Generator: Adobe Illustrator 19.0.0, SVG Export Plug-In . SVG Version: 6.00 Build 0)  -->
<svg xmlns="http://www.w3.org/2000/svg" xmlns:xlink="http://www.w3.org/1999/xlink" version="1.1" id="Layer_1" x="0px" y="0px" viewBox="0 0 512 512" style="enable-background:new 0 0 512 512;" xml:space="preserve">
<path style="fill:#B0DCF7;" d="M265.779,212.878c-2.758-1.592-4.456-4.534-4.456-7.719V86.269  c-25.331,0.126-49.405,8.648-70.143,22.409C113.705,57.272,22.918,98.101,8.212,191.249  c-10.105,55.734,16.218,126.984,69.982,164.21c-14.644,113.021,55.386,210.049,57.53,122.874c0.171-6.954-0.311-31.474,6.343-50.13  c6.092-18.822,19.288-30.839,32.526-34.732l0.01-0.007c10.895-3.28,21.594-3.479,33.158,0l0.008,0.007  c52.897,15.561,30.459,99.807,46.535,115.884c18.252,18.344,61.686-62.677,49.864-153.895  c26.394-18.275,49.783-47.363,62.437-84.369L265.779,212.878z"/>
<path style="fill:#7AC1DD;" d="M98.206,350.495c0.315-3.398-0.75-6.892-3.559-8.38l0.006-0.003  C5.669,275.998,7.658,140.087,82.765,93.001c-97.851,36.163-104.138,193.52-4.573,262.458  c-13.3,102.649,43.45,192.669,55.414,141.993C115.384,482.017,90.87,422.171,98.206,350.495z"/>
<path style="fill:#BBE6FC;" d="M261.323,205.159V86.269c-24.631,0.123-48.094,8.176-68.557,21.383  c-9.889,99.329,34.945,192.181,112.2,247.241c27.177-19.132,49.508-48.329,61.638-83.802l-100.826-58.212  C263.021,211.286,261.323,208.344,261.323,205.159z"/>
<path style="fill:#67AEEF;" d="M501.458,66.954L387.557,1.194c-2.756-1.592-6.155-1.592-8.91,0l-113.9,65.76  c-2.758,1.592-4.456,4.533-4.456,7.719v131.52c0,3.185,1.698,6.127,4.456,7.719l113.9,65.761c2.756,1.593,6.155,1.595,8.91,0  c91.525-52.839-1.433-0.029,113.901-65.761c2.758-1.592,4.457-4.534,4.457-7.719V74.671  C505.915,71.487,504.216,68.545,501.458,66.954z"/>
<path style="fill:#579ADF;" d="M381.177,0.227c-2.047,0.452,5.314-3.562-116.431,66.726c-2.758,1.592-4.456,4.533-4.456,7.719  v131.52c0,3.185,1.698,6.127,4.456,7.719l113.9,65.761c2.756,1.593,6.155,1.595,8.91,0c65.038-37.548,35.644-21.161,68.36-39.806  C345.726,216.945,303.962,81.453,381.177,0.227z"/>
<path style="fill:#3E83C1;" d="M285.567,202.484c-2.867-1.654-4.632-4.712-4.632-8.02c0-0.589-0.007-136.274,0.013-136.862  l-16.201,9.353c-2.758,1.592-4.456,4.533-4.456,7.719v131.52c0,3.185,1.698,6.127,4.456,7.719l113.9,65.761  c2.756,1.593,6.155,1.595,8.91,0l15.85-9.149L285.567,202.484z"/>
<g>
	<path style="fill:#B0DCF7;" d="M383.103,127.576c-4.275,0-7.742-3.466-7.742-7.742V39.82c0-4.276,3.467-7.742,7.742-7.742   c4.276,0,7.742,3.466,7.742,7.742v80.015C390.844,124.11,387.378,127.576,383.103,127.576z"/>
	<path style="fill:#B0DCF7;" d="M383.103,249.578c-4.275,0-7.742-3.466-7.742-7.742v-81.204c0-4.275,3.467-7.742,7.742-7.742   c4.276,0,7.742,3.467,7.742,7.742v81.204C390.844,246.113,387.378,249.578,383.103,249.578z"/>
	<path style="fill:#B0DCF7;" d="M379.091,81.548l-28.64-17.353c-3.657-2.216-4.826-6.977-2.61-10.633   c2.216-3.655,6.978-4.824,10.633-2.609l24.628,14.923l24.628-14.923c3.657-2.215,8.416-1.048,10.633,2.609   c2.215,3.657,1.047,8.417-2.609,10.633l-28.641,17.353C384.658,83.038,381.568,83.049,379.091,81.548z"/>
	<path style="fill:#B0DCF7;" d="M347.841,228.092c-2.216-3.658-1.047-8.418,2.61-10.633l28.64-17.353   c2.466-1.494,5.558-1.496,8.023,0l28.64,17.353c3.657,2.216,4.825,6.976,2.61,10.633c-2.217,3.656-6.978,4.825-10.633,2.608   l-24.628-14.921L358.473,230.7C354.821,232.914,350.059,231.752,347.841,228.092z"/>
	<path style="fill:#B0DCF7;" d="M466.708,198.037l-70.613-40.767c-3.704-2.139-4.972-6.874-2.835-10.575   c2.139-3.704,6.874-4.972,10.576-2.834l70.613,40.767c3.702,2.139,4.971,6.873,2.833,10.575   C475.147,198.906,470.412,200.173,466.708,198.037z"/>
	<path style="fill:#B0DCF7;" d="M362.654,137.959l-70.898-40.931c-3.704-2.139-4.972-6.874-2.835-10.575   c2.139-3.704,6.874-4.973,10.576-2.834l70.898,40.932c3.703,2.139,4.972,6.874,2.835,10.575   C371.089,138.83,366.355,140.096,362.654,137.959z"/>
	<path style="fill:#B0DCF7;" d="M289.899,127.733c-2.06-3.748-0.691-8.454,3.057-10.513l25.235-13.868l-0.608-28.788   c-0.09-4.274,3.301-7.813,7.576-7.903c4.271-0.042,7.814,3.301,7.905,7.576l0.707,33.478c0.061,2.882-1.484,5.559-4.012,6.949   l-29.347,16.126C296.664,132.848,291.958,131.479,289.899,127.733z"/>
	<path style="fill:#B0DCF7;" d="M433.141,207.421l-0.709-33.479c-0.061-2.884,1.485-5.562,4.013-6.95l29.349-16.126   c3.748-2.057,8.453-0.69,10.514,3.059c2.059,3.746,0.689,8.452-3.059,10.512l-25.237,13.867l0.61,28.789   c0.09,4.275-3.302,7.814-7.577,7.904C436.672,215.076,433.23,211.615,433.141,207.421z"/>
	<path style="fill:#B0DCF7;" d="M402.399,137.433c-7.868,0-10.732-10.489-3.878-14.447l68.186-39.368   c3.702-2.137,8.437-0.869,10.574,2.834c2.138,3.702,0.869,8.437-2.833,10.575C400.345,139.812,405.326,137.433,402.399,137.433z"/>
	<path style="fill:#B0DCF7;" d="M295.631,199.075c-7.868,0-10.732-10.489-3.878-14.447l72.028-41.585   c3.704-2.139,8.438-0.87,10.576,2.834c2.137,3.702,0.869,8.437-2.835,10.575C293.981,201.22,298.58,199.075,295.631,199.075z"/>
	<path style="fill:#B0DCF7;" d="M325.158,214.997c-4.274-0.09-7.667-3.629-7.576-7.903l0.608-28.789l-25.234-13.868   c-3.748-2.059-5.116-6.767-3.057-10.514c2.06-3.747,6.766-5.111,10.513-3.057l29.346,16.127c2.527,1.39,4.072,4.067,4.012,6.949   l-0.707,33.478C332.974,211.615,329.532,215.074,325.158,214.997z"/>
	<path style="fill:#B0DCF7;" d="M469.513,131.748c-2.644,0-1.183,0.437-33.069-17.085c-2.527-1.39-4.073-4.067-4.013-6.95   l0.71-33.478c0.091-4.275,3.655-7.656,7.904-7.575c4.275,0.091,7.668,3.629,7.577,7.904l-0.61,28.787l25.237,13.868   c3.748,2.061,5.115,6.767,3.057,10.514C474.897,130.297,472.247,131.748,469.513,131.748z"/>
	<path style="fill:#B0DCF7;" d="M383.103,163.623c-12.787,0-23.191-10.402-23.191-23.19c0-12.786,10.403-23.191,23.191-23.191   c12.788,0,23.191,10.403,23.191,23.191S395.891,163.623,383.103,163.623z M383.103,132.727c-4.25,0-7.708,3.458-7.708,7.707   c0,4.249,3.458,7.707,7.708,7.707s7.708-3.458,7.708-7.707C390.81,136.184,387.352,132.727,383.103,132.727z"/>
</g>
<g>
</g>
<g>
</g>
<g>
</g>
<g>
</g>
<g>
</g>
<g>
</g>
<g>
</g>
<g>
</g>
<g>
</g>
<g>
</g>
<g>
</g>
<g>
</g>
<g>
</g>
<g>
</g>
<g>
</g>
</svg>
