<?xml version="1.0" encoding="iso-8859-1"?>
<!-- Generator: Adobe Illustrator 19.0.0, SVG Export Plug-In . SVG Version: 6.00 Build 0)  -->
<svg xmlns="http://www.w3.org/2000/svg" xmlns:xlink="http://www.w3.org/1999/xlink" version="1.1" id="Layer_1" x="0px" y="0px" viewBox="0 0 512.001 512.001" style="enable-background:new 0 0 512.001 512.001;" xml:space="preserve">
<path style="fill:#B3E5BD;" d="M302.328,241.279L302.328,241.279c0-7.258-5.884-13.144-13.143-13.144h-150.32l-20.189,14.545  l-20.187-14.545l-20.91,15.268l-15.36-11.615c-7.201-5.444-17.672-5.102-22.433,2.607l0,0c-2.733,4.215-1.964,0.832-1.964,105.964  c7.598-2.226-8.605-1.542,264.507-1.542C302.328,333.061,302.328,247.098,302.328,241.279"/>
<path style="fill:#93CC9D;" d="M58.974,237.588c0.627-2.155,1.785-4.058,3.421-5.665c-9.132-6.966-21.214-4.042-24.037,5.665  c-0.771,2.619-0.536-4.357-0.536,102.771c6.445-1.888,10.326-1.542,20.617-1.542C58.438,233.888,58.203,240.205,58.974,237.588z"/>
<path id="SVGCleanerId_0" style="fill:#BFEFC7;" d="M289.186,228.136H172.479c7.422,40.842,24.046,78.47,47.634,110.681  c9.157,0,71.697,0,82.217,0c0-11.837,0-86.438,0-97.538C302.328,234.021,296.444,228.136,289.186,228.136z"/>
<path style="fill:#579ADF;" d="M272.5,125.003c-8.314,0-183.931,0-195.128,0c-32.619,0-52.757-11.099-64.388-21.311v0.002  c0,0-12.952-11.536-12.984,1.649c0.224,3.033,0.708,7.814,0.709,7.838c5.328,48.444,28.972,88.761,76.663,88.761  c9.952,0,185.214,0,195.128,0c21.247,0,38.472-17.223,38.472-38.471C310.972,142.226,293.748,125.003,272.5,125.003z"/>
<path style="fill:#3481C6;" d="M272.5,163.471c-211.217,0-196.669,0.222-201.037-0.453c-0.024,0.002-49.234,1.499-66.336-63.854  c-7.211-1.531-4.639,9.445-4.419,14.018c5.328,48.444,28.972,88.761,76.663,88.761c9.913,0,185.175,0,195.128,0  c29.669,0,48.074-32.202,33.311-57.706C299.159,155.732,286.738,163.471,272.5,163.471z"/>
<path style="fill:#71BDE2;" d="M272.5,125.003c-20.953,0-82.196,0-98.86,0c-5.093,24.788-6.757,50.604-4.599,76.94  c19.334,0,84.124,0,103.459,0c21.247,0,38.472-17.223,38.472-38.471C310.972,142.226,293.748,125.003,272.5,125.003z"/>
<path style="fill:#3DA0BF;" d="M305.813,144.237c-6.652,11.495-19.074,19.234-33.311,19.234c-23.026,0-82.854,0-103.894,0  c-0.734,12.444-0.691,24.723,0.436,38.472c19.334,0,84.124,0,103.459,0C302.423,201.943,320.352,169.378,305.813,144.237z"/>
<path id="SVGCleanerId_1" style="fill:#64B573;" d="M297.641,412.981c15.115,0,58.64,0,73.505,0  c25.909-13.556,4.793-2.51,133.623-69.932l0,0c1.534-0.643,7.231-4.582,7.231-13.111v-64.352c0-10.247-7.433-8.195-11.255-6.464  l-2.211,1.155l-0.002,0.002c-137.443,71.931-81.652,42.731-146.128,76.476c-13.09,0-293.625,0-303.854,0  c-21.047,0-38.11,17.062-38.11,38.113s17.062,38.114,38.11,38.114c11.086,0,204.889,0,222.835,0"/>
<g>
	<path id="SVGCleanerId_0_1_" style="fill:#BFEFC7;" d="M289.186,228.136H172.479c7.422,40.842,24.046,78.47,47.634,110.681   c9.157,0,71.697,0,82.217,0c0-11.837,0-86.438,0-97.538C302.328,234.021,296.444,228.136,289.186,228.136z"/>
</g>
<g>
	<path id="SVGCleanerId_1_1_" style="fill:#64B573;" d="M297.641,412.981c15.115,0,58.64,0,73.505,0   c25.909-13.556,4.793-2.51,133.623-69.932l0,0c1.534-0.643,7.231-4.582,7.231-13.111v-64.352c0-10.247-7.433-8.195-11.255-6.464   l-2.211,1.155l-0.002,0.002c-137.443,71.931-81.652,42.731-146.128,76.476c-13.09,0-293.625,0-303.854,0   c-21.047,0-38.11,17.062-38.11,38.113s17.062,38.114,38.11,38.114c11.086,0,204.889,0,222.835,0"/>
</g>
<path style="fill:#4B9B56;" d="M504.77,306.547c-6.497,3.401-127.796,66.883-133.623,69.933c-14.425,0-311.633,0-322.594,0  c-14.436,0-26.995-8.027-33.462-19.862c-13.778,25.208,4.445,56.365,33.462,56.365c12.27,0,311.503,0,322.594,0  c0.839-0.439,133.636-69.938,133.636-69.938c3.409-1.778,7.218-6.136,7.218-13.105v-36.503  C512.001,299.938,508.258,305.086,504.77,306.547z"/>
<path style="fill:#72C17E;" d="M500.746,259.121l-2.211,1.155l-0.002,0.002c-137.443,71.931-81.652,42.731-146.128,76.476  c-6.126,0-128.637,0-133.047,0c22.514,31.048,51.469,57.116,84.92,76.226c9.411,0,61.692,0,66.867,0  c0.839-0.439,133.636-69.938,133.636-69.938c3.409-1.778,7.218-6.136,7.218-13.105v-64.352  C512.001,255.338,504.568,257.39,500.746,259.121z"/>
<path style="fill:#5DAF67;" d="M504.77,306.547c-6.497,3.401-127.796,66.883-133.623,69.933c-14.315,0-102.946,0-116.536,0  c15.066,13.964,31.712,26.244,49.669,36.503c9.411,0,61.692,0,66.867,0c0.839-0.439,133.636-69.938,133.636-69.938  c3.409-1.778,7.218-6.136,7.218-13.105v-36.503C512.001,299.938,508.258,305.086,504.77,306.547z"/>
<g>
</g>
<g>
</g>
<g>
</g>
<g>
</g>
<g>
</g>
<g>
</g>
<g>
</g>
<g>
</g>
<g>
</g>
<g>
</g>
<g>
</g>
<g>
</g>
<g>
</g>
<g>
</g>
<g>
</g>
</svg>
