<?xml version="1.0" encoding="iso-8859-1"?>
<!-- Generator: Adobe Illustrator 19.0.0, SVG Export Plug-In . SVG Version: 6.00 Build 0)  -->
<svg xmlns="http://www.w3.org/2000/svg" xmlns:xlink="http://www.w3.org/1999/xlink" version="1.1" id="Layer_1" x="0px" y="0px" viewBox="0 0 512.001 512.001" style="enable-background:new 0 0 512.001 512.001;" xml:space="preserve">
<path style="fill:#A58659;" d="M373.196,118.552c0-65.472-53.07-118.545-118.542-118.545c-64.544,0-117.825,51.768-118.525,117.533  h-0.016c0,1.354-0.001,1.308-0.001,1.308h0.001l0,0h-0.001v167.441h0.038v42.547c0,6.827,5.533,12.362,12.363,12.362  c16.973,0,204.024,0,212.097,0c6.827,0,12.362-5.535,12.362-12.362c0-13.804,0-26.167,0-42.547h0.224c0-1.174,0-116.598,0-155.785  h0.024C373.189,127.804,373.196,129.91,373.196,118.552z"/>
<path style="fill:#B79465;" d="M373.196,118.552c0-53.65-35.641-98.968-84.535-113.586c-20.709,38.727-32.464,82.963-32.464,129.949  c0,82.054,35.82,155.73,92.662,206.284c6.499,0,10.686,0,11.751,0c6.827,0,12.362-5.535,12.362-12.362c0-13.804,0-26.167,0-42.547  h0.224c0-1.174,0-116.598,0-155.785h0.024C373.189,127.804,373.196,129.91,373.196,118.552z"/>
<path style="fill:#A58659;" d="M286.782,116.583c-0.026,0-0.051,0-0.077,0C287.032,117.023,287.051,116.973,286.782,116.583z"/>
<path style="fill:#916B3F;" d="M161.775,328.837V286.29h-0.038V124.172h0.024v-7.589h-0.122l0,0c0.042,0,0.08,0,0.122,0  c0.982-60.25,46.902-109.565,105.706-115.884c-69.923-7.525-130.594,46.677-131.338,116.842h-0.016c0,1.354-0.001,1.308-0.001,1.308  h0.001l0,0h-0.001c0,4.509,0,162.968,0,167.441h0.038v42.547c0,6.827,5.533,12.362,12.363,12.362c3.218,0,12.556,0,25.625,0  C167.309,341.2,161.775,335.664,161.775,328.837z M144.473,116.583h-0.435c0.14-0.005,0.289-0.009,0.435-0.014V116.583z"/>
<g>
	<path style="fill:#F9D7AF;" d="M371.808,222.063c0-14.429-11.695-26.124-26.123-26.124v52.246   C360.113,248.185,371.808,236.49,371.808,222.063z"/>
	<path style="fill:#F9D7AF;" d="M137.313,222.063c0-14.429,11.697-26.124,26.124-26.124v52.246   C149.01,248.185,137.313,236.49,137.313,222.063z"/>
</g>
<path style="fill:#FCDEB4;" d="M284.525,167.123c-16.152,17.531-43.779,17.529-59.925,0h-62.192c0,17.335,0,63.877,0,81.922  c0,50.897,41.258,92.155,92.154,92.155c50.897,0,92.155-41.257,92.155-92.155c0-18.043,0-64.578,0-81.922H284.525z"/>
<path style="fill:#FCE3C5;" d="M259.852,179.914c8.22,50.107,29.954,95.655,61.31,132.823c15.83-16.548,25.554-38.983,25.554-63.692  c0-18.043,0-64.578,0-81.922h-62.191C277.754,174.472,268.965,178.727,259.852,179.914z"/>
<g>
	<path style="fill:#F2C497;" d="M257.587,341.145c0.727-0.024,1.453-0.053,2.176-0.094c0.101-0.006,0.201-0.013,0.302-0.019   c1.597-0.096,3.199-0.227,5-0.431c-45.947-5.215-81.649-44.21-81.649-91.556c0-16.049,0-60.158,0-81.922h-21.01   c0,17.335,0,63.877,0,81.922c0,50.897,41.258,92.155,92.154,92.155c0.86,0,1.717-0.013,2.571-0.037   C257.284,341.158,257.436,341.15,257.587,341.145z"/>
	<path style="fill:#F2C497;" d="M254.561,253.864c-4.267,0-7.728-3.459-7.728-7.728v-16.544c0-4.268,3.461-7.727,7.728-7.727   c4.268,0,7.727,3.459,7.727,7.727v16.544C262.288,250.405,258.829,253.864,254.561,253.864z"/>
</g>
<path style="fill:#4F4A4C;" d="M304.472,224.546c0,4.869-3.945,8.815-8.816,8.815l0,0c-4.867,0-8.815-3.946-8.815-8.815l0,0  c0-4.867,3.948-8.816,8.815-8.816C300.527,215.73,304.472,219.679,304.472,224.546L304.472,224.546z"/>
<path style="fill:#A58659;" d="M276.828,207.56c-1.666-3.929,0.169-8.465,4.097-10.131c0.711-0.3,17.595-7.306,36.751-1.864  c4.107,1.166,6.489,5.439,5.322,9.544c-1.165,4.105-5.438,6.487-9.544,5.322c-13.751-3.909-26.372,1.174-26.494,1.227  C283,213.327,278.488,211.47,276.828,207.56z"/>
<path style="fill:#4F4A4C;" d="M204.651,224.546c0,4.864,3.941,8.815,8.815,8.815c4.87,0,8.816-3.946,8.816-8.815l0,0  c0-4.867-3.945-8.816-8.816-8.816l0,0C208.597,215.73,204.651,219.679,204.651,224.546L204.651,224.546z"/>
<path style="fill:#A58659;" d="M222.201,211.67c-0.26-0.105-12.828-5.132-26.531-1.239c-4.103,1.166-8.377-1.218-9.544-5.322  c-1.165-4.104,1.218-8.378,5.322-9.544c19.158-5.441,36.044,1.563,36.752,1.864c3.93,1.666,5.766,6.202,4.1,10.131  C230.631,211.492,226.106,213.308,222.201,211.67z"/>
<g>
	<path style="fill:#DBDADF;" d="M365.916,116.583h-79.211c12.283,15.769,11.252,37.999-2.181,52.588h81.392   c6.789,0,12.293-5.504,12.293-12.294v-28.002C378.209,122.087,372.705,116.583,365.916,116.583z"/>
	<path style="fill:#DBDADF;" d="M222.418,116.583h-79.211c-6.789,0-12.294,5.504-12.294,12.293v28.002   c0,6.79,5.505,12.294,12.294,12.294h81.392C211.11,154.529,210.18,132.298,222.418,116.583z"/>
</g>
<path style="fill:#B8BFC1;" d="M151.489,156.878v-28.002c0-6.789,5.506-12.293,12.295-12.293h-20.577  c-6.789,0-12.294,5.504-12.294,12.293v28.002c0,6.79,5.505,12.294,12.294,12.294h20.577  C156.995,169.171,151.489,163.667,151.489,156.878z"/>
<path style="fill:#F2F2F2;" d="M254.654,100.339c-22.742,0-41.245,18.504-41.245,41.246c0,22.744,18.504,41.246,41.245,41.246  c22.743,0,41.247-18.503,41.247-41.246C295.901,118.843,277.397,100.339,254.654,100.339z"/>
<path style="fill:#F5F5FC;" d="M259.129,182.585c20.648-2.237,36.773-19.768,36.773-40.999c0-21.722-16.883-39.562-38.211-41.122  C253.965,128.086,254.531,155.688,259.129,182.585z"/>
<path style="fill:#FFFFFF;" d="M263.379,141.586c0,4.869-3.948,8.815-8.817,8.815l0,0c-4.868,0-8.813-3.946-8.813-8.815l0,0  c0-4.868,3.946-8.816,8.813-8.816C259.43,132.771,263.379,136.719,263.379,141.586L263.379,141.586z"/>
<path style="fill:#64B573;" d="M354.15,361.414c-3.643,0-191.845,0-199.251,0c-35.645,0-64.541,28.897-64.541,64.54v73.753  c0,6.79,5.504,12.293,12.293,12.293h306.701c6.789,0,12.293-5.503,12.293-12.293v-73.753  C421.644,392.916,396.347,361.414,354.15,361.414z"/>
<path style="fill:#FCDEB4;" d="M308.965,361.414h-16.027v-30.785c-23.559,10.767-50.492,10.966-73.876,1.161v29.624h-18.67  C222.395,406.692,286.922,406.767,308.965,361.414z"/>
<path style="fill:#F2C497;" d="M239.314,368.128v-30.483c-7.055-1.186-13.838-3.165-20.252-5.855v29.624h-18.67  c3.127,6.438,7.375,12.231,12.474,17.145c5.423,0,9.962,0,15.251,0C228.117,378.559,239.314,378.258,239.314,368.128z"/>
<path style="fill:#4C9B57;" d="M110.963,499.707v-73.753c0-35.643,28.897-64.54,64.54-64.54h-20.605  c-35.645,0-64.541,28.897-64.541,64.54v73.753c0,6.79,5.504,12.293,12.293,12.293h20.604  C116.466,512,110.963,506.497,110.963,499.707z"/>
<path style="fill:#B3E5BD;" d="M308.965,361.414c-22.005,45.275-86.534,45.354-108.573,0h-32.898  c9.991,33.085,38.336,58.269,73.139,63.683V512h30.734c0-9.882,0-76.959,0-87.358c33.588-6.251,60.757-30.986,70.492-63.227h-32.895  V361.414z"/>
<g>
	<path style="fill:#4B9B56;" d="M153.771,512v-56.346c0-4.268-3.459-7.727-7.727-7.727c-4.268,0-7.727,3.459-7.727,7.727V512   H153.771z"/>
	<path style="fill:#4B9B56;" d="M373.685,512v-56.346c0-4.268-3.459-7.727-7.727-7.727c-4.269,0-7.728,3.459-7.728,7.727V512   H373.685z"/>
</g>
<path style="fill:#93CC9D;" d="M256,512V395.435c-23.932,0.533-45.436-13.092-55.606-34.021h-32.898  c9.991,33.085,38.336,58.269,73.139,63.683v86.903H256V512z"/>
<path style="fill:#B3E5BD;" d="M254.561,341.2c49.58,0,92.155-39.614,92.155-93.015H162.407  C162.407,301.495,204.884,341.2,254.561,341.2z"/>
<path style="fill:#BFEFC7;" d="M321.169,312.745c15.714-16.428,25.548-38.9,25.548-64.56h-66.249  C291.037,271.632,304.788,293.331,321.169,312.745z"/>
<path style="fill:#93CC9D;" d="M265.066,340.6c-44.666-5.069-81.649-42.605-81.649-92.415h-21.01  C162.407,305.593,211.491,346.713,265.066,340.6z"/>
<path style="fill:#DEDEE0;" d="M253.66,100.378c-26.889,0.65-45.595,26.264-38.883,51.726c5.294,20.081,24.602,32.803,44.661,30.45  C228.723,166.493,223.144,122.304,253.66,100.378z"/>
<g>
</g>
<g>
</g>
<g>
</g>
<g>
</g>
<g>
</g>
<g>
</g>
<g>
</g>
<g>
</g>
<g>
</g>
<g>
</g>
<g>
</g>
<g>
</g>
<g>
</g>
<g>
</g>
<g>
</g>
</svg>
