<?xml version="1.0" encoding="iso-8859-1"?>
<!-- Generator: Adobe Illustrator 19.0.0, SVG Export Plug-In . SVG Version: 6.00 Build 0)  -->
<svg xmlns="http://www.w3.org/2000/svg" xmlns:xlink="http://www.w3.org/1999/xlink" version="1.1" id="Layer_1" x="0px" y="0px" viewBox="0 0 512.001 512.001" style="enable-background:new 0 0 512.001 512.001;" xml:space="preserve">
<path style="fill:#C6A875;" d="M507.93,300.816c-77.08-77.075-72.049-72.445-74.896-73.851  c-6.804,8.805-14.711,16.713-23.516,23.518c1.46,2.952-2.917-1.872,73.849,74.894c5.427,5.428,14.226,5.428,19.65,0l4.912-4.912  C513.357,315.038,513.357,306.241,507.93,300.816z"/>
<path style="fill:#B28B52;" d="M496.641,315.258l-75.208-75.208c-3.756,3.71-7.73,7.2-11.913,10.434  c1.46,2.952-2.917-1.872,73.849,74.894c5.427,5.428,14.226,5.428,19.65,0c5.557-5.557,4.803-4.766,5.561-5.628  C504.291,320.021,499.917,318.533,496.641,315.258z"/>
<path style="fill:#B0DCF7;" d="M344.251,276.942c-106.763,9.647-177.891-107.19-121.874-197.288  c-14.41,3.567-28.45,9.855-41.491,18.513C105.236,47.945,16.258,87.728,1.925,178.928c-4.193,23.114-1.918,55.67,10.607,86.784  c12.687,31.519,33.402,56.887,57.843,73.831c-14.533,112.152,56.319,208.541,56.319,115.98c0-28.442,5.343-41.383,6.891-47.019  c5.962-17.133,19.334-28.409,31.071-31.78l0.012-0.009c10.842-3.255,21.264-3.356,32.434,0l0.01,0.009  c30.78,8.84,37.963,46.784,37.963,78.799c0,92.748,70.835-4.008,56.32-115.98C312.859,324.661,331.449,303.28,344.251,276.942z"/>
<path style="fill:#7AC1DD;" d="M90.326,338.459c0.483-5.588-1.945-8.183-3.023-9.049c-0.15-0.112-0.306-0.217-0.455-0.329  c-0.028-0.018-0.045-0.026-0.045-0.026l0.002-0.003C-1.709,262.919,0.032,120.549,86.529,79.247  C39.298,90.76,9.379,131.498,1.925,178.928c-4.193,23.114-1.918,55.67,10.607,86.784c12.687,31.519,33.402,56.887,57.843,73.831  c-12.938,99.84,41.563,186.172,53.734,140.717C105.534,463.176,83.634,404.125,90.326,338.459z"/>
<path style="fill:#BBE6FC;" d="M222.377,79.654c-14.242,3.525-28.121,9.714-41.035,18.216  c-8.846,95.96,33.249,187.943,110.348,244.09c-0.097-0.806-0.189-1.611-0.295-2.418c21.464-14.88,40.053-36.261,52.857-62.599  C237.489,286.589,166.36,169.752,222.377,79.654z"/>
<path style="fill:#EBF8FC;" d="M331.473,51.457c-53.741,0-97.463,43.722-97.463,97.463c0,53.741,43.721,97.463,97.463,97.463  c53.74,0,97.463-43.721,97.463-97.463C428.936,95.179,385.214,51.457,331.473,51.457z"/>
<path style="fill:#D9EFF9;" d="M254.695,148.919c0-50.247,38.222-91.732,87.119-96.913c-57.885-6.135-107.804,39.421-107.804,96.913  c0,57.499,49.924,103.046,107.804,96.913C292.918,240.651,254.695,199.166,254.695,148.919z"/>
<path style="fill:#AA9A79;" d="M415.049,49.948c-2.383-1.621-42.14-39.129-104.737-28.887  C248.234,31.351,201.88,85.283,201.88,148.919c0,71.458,58.136,129.595,129.594,129.595  C450.185,278.514,508.576,128.898,415.049,49.948z M331.473,246.382c-53.741,0-97.463-43.721-97.463-97.463  c0-53.74,43.721-97.463,97.463-97.463c53.74,0,97.463,43.722,97.463,97.463C428.936,202.66,385.214,246.382,331.473,246.382z"/>
<path style="fill:#938265;" d="M222.634,148.919c0-67.943,52.557-123.836,119.15-129.174  c-75.846-6.005-139.903,54.145-139.903,129.174c0,75.251,64.323,135.213,139.972,129.178  C275.228,272.792,222.634,216.884,222.634,148.919z"/>
<g>
</g>
<g>
</g>
<g>
</g>
<g>
</g>
<g>
</g>
<g>
</g>
<g>
</g>
<g>
</g>
<g>
</g>
<g>
</g>
<g>
</g>
<g>
</g>
<g>
</g>
<g>
</g>
<g>
</g>
</svg>
