<?xml version="1.0" encoding="iso-8859-1"?>
<!-- Generator: Adobe Illustrator 19.0.0, SVG Export Plug-In . SVG Version: 6.00 Build 0)  -->
<svg xmlns="http://www.w3.org/2000/svg" xmlns:xlink="http://www.w3.org/1999/xlink" version="1.1" id="Capa_1" x="0px" y="0px" viewBox="0 0 512 512" style="enable-background:new 0 0 512 512;" xml:space="preserve">
<g>
	<g>
		<path d="M467,30h-47V15c0-8.284-6.716-15-15-15s-15,6.716-15,15v15H270V15c0-8.284-6.716-15-15-15s-15,6.716-15,15v15H120V15    c0-8.284-6.716-15-15-15S90,6.716,90,15v15H45C20.187,30,0,50.187,0,75v392c0,24.81,20.183,44.995,44.991,45    c0.002,0,0.003,0,0.005,0H45h422c24.739,0,44.879-20.068,44.999-44.779c0.001-0.042,0.001-0.085,0.001-0.127V75    C512,50.187,491.813,30,467,30z M482,467c0,8.271-6.729,15-15,15H45c-8.271,0-15-6.729-15-15V152h452V467z M482,122H30V75    c0-8.271,6.729-15,15-15h45v15c0,8.284,6.716,15,15,15s15-6.716,15-15V60h120v15c0,8.284,6.716,15,15,15s15-6.716,15-15V60h120v15    c0,8.284,6.716,15,15,15s15-6.716,15-15V60h47c8.271,0,15,6.729,15,15V122z"/>
	</g>
</g>
<g>
	<g>
		<path d="M386.345,246.059c-8.171-28.879-31.138-51.973-59.939-60.271c-24.665-7.106-50.145-4.056-71.431,8.267    c-13.059-7.538-28.015-11.81-43.597-12.045c-8.896-0.133-17.882,1.036-26.716,3.476c-29.355,8.107-52.732,31.318-61.009,60.576    c-7.037,24.875-3.843,50.435,8.994,71.969C144.162,337.344,150,362.009,150,391.34V407c0,24.813,20.187,45,45,45s45-20.187,45-45    v-30c0-8.271,6.732-15,15.004-15c8.269,0.002,14.996,6.731,14.996,15v30c0,24.813,20.187,45,45,45s45-20.187,45-45v-15.662    c0-29.33,5.838-53.994,17.351-73.306C390.19,296.498,393.384,270.937,386.345,246.059z M351.583,302.669    C337.262,326.692,330,356.524,330,391.338V407c0,8.271-6.729,15-15,15s-15-6.729-15-15v-30c0-24.807-20.182-44.993-44.992-45    C230.19,332,210,352.187,210,377v30c0,8.271-6.729,15-15,15s-15-6.729-15-15v-15.66c0-34.814-7.262-64.648-21.583-88.671    c-8.571-14.378-10.665-31.581-5.896-48.441c5.357-18.94,21.109-34.572,40.128-39.825c6.087-1.681,12.22-2.486,18.278-2.396    c21.721,0.328,41.625,12.435,51.943,31.597c3.928,7.293,13.021,10.023,20.319,6.095c7.294-3.928,10.022-13.025,6.095-20.319    c-2.682-4.979-5.794-9.64-9.279-13.947c11.926-4.185,25.147-4.548,38.095-0.818c18.632,5.368,34.088,20.916,39.377,39.61    C362.248,271.087,360.155,288.292,351.583,302.669z"/>
	</g>
</g>
<g>
</g>
<g>
</g>
<g>
</g>
<g>
</g>
<g>
</g>
<g>
</g>
<g>
</g>
<g>
</g>
<g>
</g>
<g>
</g>
<g>
</g>
<g>
</g>
<g>
</g>
<g>
</g>
<g>
</g>
</svg>
