<?xml version="1.0" encoding="iso-8859-1"?>
<!-- Generator: Adobe Illustrator 19.0.0, SVG Export Plug-In . SVG Version: 6.00 Build 0)  -->
<svg xmlns="http://www.w3.org/2000/svg" xmlns:xlink="http://www.w3.org/1999/xlink" version="1.1" id="Capa_1" x="0px" y="0px" viewBox="0 0 511.999 511.999" style="enable-background:new 0 0 511.999 511.999;" xml:space="preserve">
<g>
	<g>
		<path d="M507.607,486.399L352.19,330.982h144.752c8.282,0,14.996-6.714,14.996-14.996v-89.978c0-8.282-6.714-14.996-14.996-14.996    H232.219L25.601,4.392c-5.856-5.857-15.351-5.857-21.208,0s-5.857,15.351,0,21.208l185.41,185.41H60.046    c-33.076,0-59.986,26.91-59.986,59.986c0,33.076,26.91,59.986,59.986,59.986h249.728l176.625,176.625    c2.928,2.928,6.766,4.393,10.603,4.393c3.837,0,7.676-1.464,10.603-4.393C513.463,501.75,513.463,492.255,507.607,486.399z     M181.018,300.989H60.047c-16.539,0-29.993-13.455-29.993-29.993c0-16.538,13.455-29.993,29.993-29.993h120.971V300.989z     M451.953,241.004h29.993v59.986h-29.993V241.004z M211.011,300.989v-59.986h8.785l59.986,59.986H211.011z M262.212,241.004    H421.96v59.986h-99.763L262.212,241.004z"/>
	</g>
</g>
<g>
	<g>
		<path d="M416.031,119.581c14.233-9.489,22.729-25.365,22.729-42.47c0-17.106-8.497-32.983-22.729-42.471    c-6.89-4.593-16.201-2.731-20.796,4.16c-4.594,6.891-2.731,16.202,4.16,20.796c5.957,3.971,9.374,10.356,9.374,17.516    c0,7.159-3.416,13.543-9.374,17.515c-14.233,9.489-22.73,25.366-22.73,42.471s8.496,32.979,22.729,42.468    c2.556,1.705,5.446,2.52,8.305,2.52c4.846,0,9.602-2.345,12.492-6.679c4.594-6.891,2.731-16.202-4.16-20.796    c-5.957-3.971-9.373-10.355-9.373-17.515S410.074,123.552,416.031,119.581z"/>
	</g>
</g>
<g>
	<g>
		<path d="M489.013,119.581c14.233-9.489,22.73-25.365,22.73-42.47c0-17.106-8.497-32.983-22.73-42.471    c-6.889-4.593-16.201-2.731-20.796,4.16c-4.594,6.891-2.731,16.202,4.16,20.796c5.957,3.971,9.374,10.356,9.374,17.516    c0,7.159-3.416,13.543-9.374,17.515c-14.233,9.489-22.73,25.366-22.73,42.471s8.496,32.979,22.729,42.468    c2.556,1.705,5.446,2.52,8.305,2.52c4.846,0,9.602-2.345,12.492-6.679c4.594-6.891,2.731-16.202-4.16-20.796    c-5.957-3.971-9.373-10.355-9.373-17.515S483.057,123.552,489.013,119.581z"/>
	</g>
</g>
<g>
</g>
<g>
</g>
<g>
</g>
<g>
</g>
<g>
</g>
<g>
</g>
<g>
</g>
<g>
</g>
<g>
</g>
<g>
</g>
<g>
</g>
<g>
</g>
<g>
</g>
<g>
</g>
<g>
</g>
</svg>
