<?xml version="1.0" encoding="iso-8859-1"?>
<!-- Generator: Adobe Illustrator 19.0.0, SVG Export Plug-In . SVG Version: 6.00 Build 0)  -->
<svg xmlns="http://www.w3.org/2000/svg" xmlns:xlink="http://www.w3.org/1999/xlink" version="1.1" id="Capa_1" x="0px" y="0px" viewBox="0 0 512 512" style="enable-background:new 0 0 512 512;" xml:space="preserve">
<g>
	<g>
		<path d="M466,61h-38.953C369.308,61,311.89,40.503,265.37,3.287c-5.479-4.383-13.262-4.383-18.74,0    C200.109,40.503,142.691,61,84.953,61H46c-8.284,0-15,6.716-15,15v141.597c0,33.416,5.427,66.343,16.129,97.867    c10.444,30.764,25.68,59.54,45.282,85.528C157.028,486.658,247.484,512,256,512c5.952,0,97.258-23.071,163.589-111.008    c19.603-25.988,34.838-54.764,45.282-85.528C475.573,283.939,481,251.013,481,217.597V76C481,67.715,474.284,61,466,61z     M451,217.597c0,60.143-19.144,117.313-55.362,165.329c-35.434,46.976-84.89,81.806-139.638,98.437    c-54.748-16.631-104.204-51.461-139.638-98.437C80.143,334.91,61,277.74,61,217.597V91h23.953    C145.641,91,205.929,70.804,256,33.909C306.07,70.804,366.358,91,427.047,91H451V217.597z"/>
	</g>
</g>
<g>
	<g>
		<path d="M387.345,185.058c-8.17-28.878-31.138-51.972-59.939-60.27c-24.665-7.106-50.144-4.056-71.431,8.267    c-13.059-7.537-28.014-11.81-43.597-12.045c-8.891-0.132-17.882,1.036-26.716,3.476c-29.355,8.107-52.732,31.319-61.009,60.576    c-7.037,24.876-3.843,50.435,8.995,71.969C145.162,276.344,151,301.008,151,330.34V346c0,24.813,20.187,45,45,45s45-20.187,45-45    v-30c0-8.271,6.732-15,15.004-15c8.269,0.002,14.996,6.731,14.996,15v30c0,24.813,20.187,45,45,45s45-20.187,45-45v-15.663    c0-29.33,5.838-53.994,17.351-73.306C391.19,235.496,394.384,209.936,387.345,185.058z M352.583,241.669    C338.261,265.691,331,295.523,331,330.337V346c0,8.271-6.729,15-15,15s-15-6.729-15-15v-30c0-24.807-20.182-44.994-44.992-45    C231.19,271,211,291.187,211,316v30c0,8.271-6.729,15-15,15s-15-6.729-15-15v-15.66c0-34.815-7.262-64.648-21.583-88.671    c-8.571-14.378-10.665-31.582-5.896-48.441c5.357-18.94,21.109-34.572,40.128-39.825c6.087-1.681,12.22-2.499,18.277-2.396    c21.722,0.328,41.626,12.435,51.944,31.596c3.928,7.293,13.021,10.022,20.319,6.095c7.294-3.928,10.022-13.025,6.095-20.319    c-2.682-4.979-5.794-9.64-9.279-13.947c11.925-4.184,25.147-4.547,38.095-0.817c18.632,5.368,34.088,20.916,39.377,39.61    C363.248,210.087,361.154,227.291,352.583,241.669z"/>
	</g>
</g>
<g>
</g>
<g>
</g>
<g>
</g>
<g>
</g>
<g>
</g>
<g>
</g>
<g>
</g>
<g>
</g>
<g>
</g>
<g>
</g>
<g>
</g>
<g>
</g>
<g>
</g>
<g>
</g>
<g>
</g>
</svg>
