<?xml version="1.0" encoding="iso-8859-1"?>
<!-- Generator: Adobe Illustrator 19.0.0, SVG Export Plug-In . SVG Version: 6.00 Build 0)  -->
<svg xmlns="http://www.w3.org/2000/svg" xmlns:xlink="http://www.w3.org/1999/xlink" version="1.1" id="Capa_1" x="0px" y="0px" viewBox="0 0 511.999 511.999" style="enable-background:new 0 0 511.999 511.999;" xml:space="preserve">
<g>
	<g>
		<path d="M511.983,134.867c-0.007-0.479-0.036-0.956-0.089-1.431c-4.002-36.426-21.472-70.097-49.191-94.815    C434.898,13.829,399.107,0.175,361.922,0.175c-28.45,0-56.134,8.007-80.06,23.156c-14.895,9.431-34.836,9.424-49.722,0    C208.213,8.183,180.529,0.175,152.08,0.175c-37.255,0-73.361,13.618-101.666,38.346C21.968,63.371,4.103,97.079,0.108,133.437    c-0.052,0.476-0.082,0.953-0.088,1.431c-0.596,43.432,12.25,83.939,37.151,117.14c1.848,2.463,3.752,4.953,5.678,7.47    c8.077,10.558,16.428,21.475,21.731,32.162c2.53,5.1,7.733,8.327,13.427,8.327h17.711c4.472,13.182,11.95,25.157,22.009,35.077    c21.074,20.781,33.162,53.62,33.163,90.096l0.001,38.391c0,27.532,19.331,48.295,44.966,48.295    c24.794,0,44.966-20.172,44.966-44.966v-60.954c0-8.265,6.724-14.989,14.989-14.989s14.989,6.724,14.989,14.989v60.954    c0,24.794,20.172,44.966,44.966,44.966s44.966-20.172,44.966-44.966l0.001-41.766c0.001-36.45,12.088-69.271,33.161-90.048    c10.06-9.919,17.54-21.895,22.012-35.079h18.094c5.694,0,10.896-3.227,13.428-8.327c7.558-15.237,18.122-29.915,25.41-39.633    C498.645,217.594,512.547,175.993,511.983,134.867z M372.845,313.699c-26.749,26.373-42.09,66.974-42.091,111.393l-0.001,41.766    c0,8.265-6.724,14.989-14.989,14.989c-8.265,0-14.989-6.724-14.989-14.989v-60.954c0-24.794-20.172-44.966-44.966-44.966    s-44.966,20.172-44.966,44.966v60.954c0,8.265-6.724,14.989-14.989,14.989c-8.825,0-14.989-7.532-14.989-18.317l-0.001-38.391    c0-44.445-15.342-85.064-42.092-111.44c-4.157-4.099-7.649-8.722-10.419-13.732h254.912    C380.496,304.977,377.003,309.6,372.845,313.699z M448.854,234.02c-6.706,8.941-15.968,21.772-23.888,35.969H86.891    c-5.97-10.08-13.196-19.526-20.234-28.725c-1.867-2.44-3.714-4.854-5.505-7.242c-20.751-27.667-31.52-61.546-31.167-98.015    C36.897,76.593,90.383,30.152,152.08,30.152c22.763,0,44.902,6.399,64.025,18.507c24.686,15.628,57.11,15.626,81.792,0    c19.123-12.107,41.262-18.507,64.024-18.507c61.596,0,113.097,45.454,120.096,105.848    C482.318,170.301,470.555,205.083,448.854,234.02z"/>
	</g>
</g>
<g>
	<g>
		<path d="M449.875,137.716c-3.126-21.262-13.817-40.707-30.103-54.752c-16.314-14.069-37.214-21.818-58.85-21.818    c-17.057,0-33.639,4.779-47.951,13.823c-6.999,4.422-9.087,13.679-4.667,20.677c4.424,6.998,13.679,9.089,20.677,4.665    c9.514-6.01,20.558-9.188,31.94-9.188c30.016,0,54.954,21.429,59.294,50.953c1.096,7.451,7.497,12.81,14.811,12.81    c0.725,0,1.46-0.053,2.198-0.162C445.415,153.521,451.079,145.906,449.875,137.716z"/>
	</g>
</g>
<g>
</g>
<g>
</g>
<g>
</g>
<g>
</g>
<g>
</g>
<g>
</g>
<g>
</g>
<g>
</g>
<g>
</g>
<g>
</g>
<g>
</g>
<g>
</g>
<g>
</g>
<g>
</g>
<g>
</g>
</svg>
