<?xml version="1.0" encoding="iso-8859-1"?>
<!-- Generator: Adobe Illustrator 19.0.0, SVG Export Plug-In . SVG Version: 6.00 Build 0)  -->
<svg xmlns="http://www.w3.org/2000/svg" xmlns:xlink="http://www.w3.org/1999/xlink" version="1.1" id="Capa_1" x="0px" y="0px" viewBox="0 0 512.001 512.001" style="enable-background:new 0 0 512.001 512.001;" xml:space="preserve">
<g>
	<g>
		<path d="M511.983,135.892c-0.007-0.479-0.036-0.956-0.089-1.432c-4.832-43.976-28.779-83.357-65.699-108.044    c-4.599-3.075-10.516-3.366-15.394-0.76c-4.879,2.606-7.926,7.688-7.926,13.22v48.718c0,12.036-8.549,13.522-35.394,25.968    c-0.134,0.062-0.267,0.126-0.399,0.192c-27.439,13.721-33.158,32.801-56.138,78.759v-73.977c0-7.816,4.012-10.22,16.807-23.016    c8.247-8.246,13.17-20.505,13.17-32.794V16.012c0-4.262-1.814-8.323-4.989-11.166c-3.175-2.844-7.412-4.2-11.645-3.732    c-22.456,2.483-44.414,10.19-63.498,22.289c-15.509,9.832-34.07,9.817-49.648-0.045c-23.925-15.15-51.61-23.157-80.061-23.157    c-37.18,0-73.152,13.833-101.287,38.953C21.755,64.184,4.11,98.032,0.107,134.461c-0.053,0.476-0.082,0.953-0.089,1.431    c-0.562,40.868,11.677,80.064,35.391,113.347c36.447,51.156,55.713,104.398,55.714,153.969l0.001,41.157    c0,19.816,8.664,38.55,23.771,51.397c12.274,10.439,27.791,16.038,43.8,16.037c3.683,0,7.394-0.297,11.096-0.898    c32.059-5.215,56.232-35.027,56.232-69.345v-42.39c0-16.529,13.448-29.977,29.977-29.977c16.529,0,29.977,13.448,29.977,29.977    v45.199c0,19.817,8.664,38.55,23.771,51.398c15.097,12.84,35.106,18.359,54.896,15.138c32.056-5.215,56.231-35.027,56.232-69.345    v-38.348c0.001-49.574,19.265-102.814,55.714-153.968C500.304,215.955,512.543,176.76,511.983,135.892z M452.176,231.844    c-40.086,56.261-61.275,115.518-61.276,171.363v38.348c-0.001,19.784-13.357,36.876-31.07,39.758    c-11.26,1.832-22.148-1.146-30.662-8.386c-8.397-7.142-13.214-17.552-13.214-28.561v-45.199c0-33.059-26.896-59.955-59.955-59.955    s-59.955,26.896-59.955,59.955v42.391c0.001,19.783-13.355,36.874-31.068,39.756c-11.26,1.832-22.149-1.146-30.662-8.387    c-8.398-7.142-13.215-17.552-13.215-28.561l-0.001-41.157c-0.001-55.843-21.19-115.099-61.276-171.363    c-19.849-27.858-30.16-60.63-29.839-94.816c6.963-59.975,60.013-106.85,121.094-106.85c22.764,0,44.904,6.399,64.025,18.507    c25.244,15.982,56.561,15.994,81.734,0.036c10.66-6.758,22.079-11.704,34.105-14.785v28.79c0,9.211-5.137,12.345-16.806,24.015    c-8.494,8.494-13.171,19.785-13.171,31.795v137.47c0,6.952,4.779,12.99,11.545,14.588c6.762,1.6,13.741-1.666,16.849-7.885    c54.63-109.257,53.441-113.196,70.942-122.051c22.47-10.418,52.548-18.311,52.548-53.066V71.689    c16.047,18.136,26.325,40.832,29.165,65.339C482.335,171.213,472.024,203.986,452.176,231.844z"/>
	</g>
</g>
<g>
</g>
<g>
</g>
<g>
</g>
<g>
</g>
<g>
</g>
<g>
</g>
<g>
</g>
<g>
</g>
<g>
</g>
<g>
</g>
<g>
</g>
<g>
</g>
<g>
</g>
<g>
</g>
<g>
</g>
</svg>
