<?xml version="1.0" encoding="iso-8859-1"?>
<!-- Generator: Adobe Illustrator 19.0.0, SVG Export Plug-In . SVG Version: 6.00 Build 0)  -->
<svg xmlns="http://www.w3.org/2000/svg" xmlns:xlink="http://www.w3.org/1999/xlink" version="1.1" id="Capa_1" x="0px" y="0px" viewBox="0 0 512 512" style="enable-background:new 0 0 512 512;" xml:space="preserve">
<g>
	<g>
		<path d="M486.151,169.086c-16.448-9.546-36.003-9.683-52.305-0.367c-10.974,6.27-23.356,11.08-35.808,13.912    c-0.805,0.183-1.602,0.394-2.4,0.6c22.719-23.33,30.951-57.649,21.457-90.064c-0.015-0.048-0.028-0.096-0.043-0.144    c-8.739-28.767-32.157-51.373-61.136-59.02c-32.591-9.032-65.972-0.266-89.355,23.508c-2.812,2.883-6.563,4.471-10.561,4.472    c-3.999,0-7.75-1.588-10.607-4.518c-23.339-23.729-56.717-32.498-89.312-23.461c-28.975,7.648-52.396,30.254-61.134,59.019    c-0.014,0.048-0.029,0.096-0.042,0.144c-9.672,33.018-0.963,68.019,22.728,91.362c1.809,1.811,3.538,3.688,5.201,5.615    c-6.061-2.84-12.466-5.129-19.173-6.764c-12.615-3.075-24.076-9.82-31.442-18.506c-11.081-13.065-29.217-17.918-45.125-12.082    C10.382,158.924,0,175.282,0,195.483v241c0,24.813,20.187,45,45,45h422c24.813,0,45-20.187,45-45V213.496    C512,195.081,502.337,178.479,486.151,169.086z M123.672,101.676c5.76-18.877,21.133-33.696,40.136-38.685    c0.071-0.019,0.143-0.038,0.214-0.058c21.96-6.111,44.383-0.292,59.938,15.522c8.506,8.723,19.885,13.527,32.041,13.527    s23.534-4.805,31.995-13.481c15.602-15.862,38.025-21.68,59.982-15.568c0.071,0.02,0.143,0.039,0.214,0.058    c19.002,4.988,34.375,19.808,40.136,38.683c6.63,22.729,1.008,45.72-15.046,61.516c-0.029,0.028-0.058,0.057-0.087,0.085    c-7.398,7.398-13.882,15.59-19.224,24.273c-11.553,18.533-18.9,40.451-21.688,64.272c-0.87,4.932-1.321,9.949-1.317,14.996    L331,345.483c0,8.271-6.729,15-15,15s-15-6.729-15-15v-60c0-24.813-20.187-45-45-45s-45,20.187-45,45v60c0,8.271-6.729,15-15,15    c-7.728,0-13.416-5.761-14.718-14.419c-0.186-1.237-0.282-2.533-0.282-3.88c0-3.535,0.021-10.233,0.046-18.006    c0.052-16.367,0.117-36.736,0.04-43.746c-0.01-0.888-0.053-1.768-0.085-2.651v-3.998c0-32.309-7.943-62.128-22.924-86.16    c-5.388-8.758-11.871-16.949-19.27-24.348c-0.029-0.029-0.058-0.058-0.086-0.086C122.665,147.393,117.042,124.404,123.672,101.676    z M482,436.483L482,436.483c0,8.271-6.729,15-15,15H45c-8.271,0-15-6.729-15-15v-241c0-7.61,2.638-12.77,7.429-14.528    c1.059-0.388,2.264-0.607,3.526-0.607c2.855,0,6,1.12,8.384,3.93c11.541,13.607,28.31,23.639,47.217,28.248    c30.863,7.523,52.907,34.248,54.443,65.529v64.129c0,27.535,19.346,48.299,45,48.299c24.813,0,45-20.187,45-45v-60    c0-8.271,6.729-15,15-15s15,6.729,15,15v60c0,24.813,20.187,45,45,45c4.653,0,9.142-0.71,13.367-2.026    C347.674,382.75,361,365.643,361,345.483v-71.7c0-5.911,0.331-11.697,0.949-17.349c4.107-21.612,20.814-39.563,42.743-44.55    c15.519-3.529,30.334-9.288,44.037-17.116c6.911-3.949,15.271-3.85,22.364,0.266c3.279,1.903,10.907,7.513,10.907,18.464V436.483z    "/>
	</g>
</g>
<g>
</g>
<g>
</g>
<g>
</g>
<g>
</g>
<g>
</g>
<g>
</g>
<g>
</g>
<g>
</g>
<g>
</g>
<g>
</g>
<g>
</g>
<g>
</g>
<g>
</g>
<g>
</g>
<g>
</g>
</svg>
