<?xml version="1.0" encoding="iso-8859-1"?>
<!-- Generator: Adobe Illustrator 19.0.0, SVG Export Plug-In . SVG Version: 6.00 Build 0)  -->
<svg xmlns="http://www.w3.org/2000/svg" xmlns:xlink="http://www.w3.org/1999/xlink" version="1.1" id="Capa_1" x="0px" y="0px" viewBox="0 0 512 512" style="enable-background:new 0 0 512 512;" xml:space="preserve">
<g>
	<g>
		<path d="M511.924,135.794c-0.006-0.479-0.036-0.957-0.088-1.432c-3.928-35.753-20.884-68.991-47.807-93.853    c-1.768-3.264-4.656-5.672-8.012-6.908C429.015,11.881,395.68,0,361.249,0c-27.526,0-55.53,7.604-80.121,23.173    c-7.306,4.625-15.909,7.07-24.879,7.07c-8.971,0-17.574-2.445-24.879-7.07C208.11,8.446,178.178,0,149.249,0    C113.174,0,77.185,13.187,48.77,39.085C21.439,63.996,4.177,97.833,0.163,134.362c-0.052,0.476-0.082,0.954-0.088,1.432    c-1.62,117.968,91.174,133.484,91.174,271.199V444.5c0,37.22,30.28,67.5,67.5,67.5c37.22,0,67.5-30.28,67.5-67.5v-45.233    c0-16.804,13.738-31,30-31c16.262,0,30,14.196,30,31V444.5c0,37.22,30.28,67.5,67.5,67.5c37.22,0,67.5-30.28,67.5-67.5v-37.507    C421.249,264.701,513.576,256.097,511.924,135.794z M218.642,105.793c11.841-12.796,19.644-29.435,22.346-47.055    c4.98,0.99,10.088,1.506,15.261,1.506c14.661,0,28.814-4.054,40.928-11.724c10.408-6.59,21.714-11.475,33.523-14.574    c0.901,3.573,1.357,7.266,1.357,11.054c0,11.592-4.403,22.599-12.399,30.993c-11.025,11.575-17.604,28.398-17.601,45.007    c0,16.262-20.607,30-45,30s-45-13.738-45-30C212.057,114.313,215.638,109.04,218.642,105.793z M30.063,136.929    c5.839-50.476,41.832-90.618,88.639-102.978c0.9,3.571,1.355,7.262,1.355,11.049c0,11.652-4.455,22.69-12.544,31.081    C90.842,93.372,83.8,116.695,88.675,138.469c0.917,4.098,1.382,8.313,1.382,12.531c0,27.349-18.241,50.662-43.77,57.771    C35.491,186.491,29.835,161.799,30.063,136.929z M391.249,406.993V444.5c0,20.678-16.822,37.5-37.5,37.5    c-20.678,0-37.5-16.822-37.5-37.5v-45.233c0-16.003-6.185-31.19-17.415-42.765c-11.409-11.759-26.532-18.235-42.585-18.235    c-16.053,0-31.176,6.476-42.585,18.235c-11.23,11.575-17.415,26.762-17.415,42.765V444.5c0,20.678-16.822,37.5-37.5,37.5    c-20.678,0-37.5-16.822-37.5-37.5v-37.507c0-60.164-20.939-121.223-58.96-171.938c34.107-13.012,57.768-45.916,57.768-84.054    c0-6.418-0.709-12.839-2.107-19.085c-2.627-11.732,1.649-25.148,11.159-35.012C142.617,82.892,150.057,64.459,150.057,45    c0-5.045-0.521-10.071-1.523-14.992c0.239-0.001,0.476-0.008,0.715-0.008c22.04,0,44.681,5.992,62.772,16.522    c-0.371,14.359-6.056,28.801-15.398,38.896c-9.529,10.298-14.566,22.602-14.566,35.582c0,16.612,8.592,32.584,23.574,43.82    c13.912,10.434,32.175,16.18,51.426,16.18c19.25,0,37.514-5.746,51.426-16.18c14.982-11.236,23.574-27.208,23.574-43.831    c-0.002-8.952,3.57-18.266,9.323-24.305C354.714,82.687,362.057,64.332,362.057,45c0-5.043-0.521-10.067-1.522-14.987    c0.239-0.001,0.476-0.013,0.715-0.013c21.816,0,42.607,6.031,60.624,16.534C404.463,60.7,393.557,82.524,393.557,106    c0,6.734,0.93,13.427,2.763,19.893c2.124,7.494-0.028,15.53-5.616,20.973c-17.506,17.049-27.146,39.826-27.146,64.134    c0,20.484,7.091,40.543,19.967,56.482c8.741,10.82,19.894,19.457,32.383,25.242C399.815,329.026,391.249,368.104,391.249,406.993z     M449.746,235.005c-7.435,9.913-14.2,20.25-20.289,30.915c-21.324-9.455-35.9-31.022-35.9-54.919    c0-16.145,6.42-31.289,18.077-42.642c13.488-13.136,18.68-32.542,13.548-50.646c-1.079-3.805-1.625-7.745-1.625-11.711    c0-16.921,9.219-32.401,23.251-40.34c18.972,18.776,31.919,43.63,35.127,71.268C482.256,172.077,470.839,206.881,449.746,235.005z    "/>
	</g>
</g>
<g>
</g>
<g>
</g>
<g>
</g>
<g>
</g>
<g>
</g>
<g>
</g>
<g>
</g>
<g>
</g>
<g>
</g>
<g>
</g>
<g>
</g>
<g>
</g>
<g>
</g>
<g>
</g>
<g>
</g>
</svg>
