<?xml version="1.0" encoding="iso-8859-1"?>
<!-- Generator: Adobe Illustrator 19.0.0, SVG Export Plug-In . SVG Version: 6.00 Build 0)  -->
<svg xmlns="http://www.w3.org/2000/svg" xmlns:xlink="http://www.w3.org/1999/xlink" version="1.1" id="Capa_1" x="0px" y="0px" viewBox="0 0 512 512" style="enable-background:new 0 0 512 512;" xml:space="preserve">
<g>
	<g>
		<path d="M500.736,360.021l-50.715-108.757C438.436,226.428,415.821,211,391,211H271v-60h30v15c0,8.284,6.716,15,15,15h90    c8.284,0,15-6.716,15-15v-60c0-8.284-6.716-15-15-15h-90c-8.284,0-15,6.716-15,15v15h-30v-15c0-20.03-7.759-38.999-21.847-53.412    c-11.158-11.414-25.169-18.788-40.349-21.454C202.944,13.087,185.976,0,166,0c-24.813,0-45,20.187-45,45s20.187,45,45,45    c18.92,0,35.139-11.743,41.781-28.318C226.676,67.129,241,85.215,241,106v105h-83.797l-37.182-79.735    c-13.98-29.985-49.753-43.005-79.737-29.023c-29.983,13.984-43.001,49.753-29.021,79.736l50.715,108.756    C73.557,315.571,96.173,331,121,331h1.509c6.968,34.192,37.271,60,73.491,60h45v31h-15c-24.813,0-45,20.187-45,45v15h-15    c-8.284,0-15,6.716-15,15s6.716,15,15,15h180c8.284,0,15-6.716,15-15s-6.716-15-15-15h-15v-15c0-24.813-20.187-45-45-45h-15v-31    h45c21.62,0,41.515-9.173,55.402-24.39l20.576,44.126c10.169,21.807,31.859,34.639,54.471,34.639    c8.478,0,17.088-1.805,25.265-5.618C501.698,425.775,514.717,390.006,500.736,360.021z M331,121h60v30h-60V121z M166,60    c-8.271,0-15-6.729-15-15s6.729-15,15-15s15,6.729,15,15S174.272,60,166,60z M286,452c8.272,0,15,6.729,15,15v15h-90v-15    c0-8.271,6.729-15,15-15H286z M316,361H196c-19.555,0-36.228-12.542-42.42-30h201.217l1.94,4.162    C349.4,350.817,333.656,361,316,361z M459.036,412.567c-14.993,6.991-32.877,0.481-39.868-14.51l-41.221-88.396    c-2.464-5.283-7.766-8.661-13.595-8.661H121c-15.601,0-26.897-12.359-31.832-22.943L38.453,169.299    c-6.99-14.991-0.48-32.876,14.51-39.868c7.172-3.345,15.315-3.776,22.94-1.001c7.53,2.741,13.542,8.25,16.929,15.514    l41.221,88.396c2.464,5.283,7.766,8.661,13.595,8.661H391c15.596,0,26.896,12.36,31.832,22.943l50.714,108.755    C480.536,387.691,474.028,405.577,459.036,412.567z"/>
	</g>
</g>
<g>
</g>
<g>
</g>
<g>
</g>
<g>
</g>
<g>
</g>
<g>
</g>
<g>
</g>
<g>
</g>
<g>
</g>
<g>
</g>
<g>
</g>
<g>
</g>
<g>
</g>
<g>
</g>
<g>
</g>
</svg>
