<?xml version="1.0" encoding="iso-8859-1"?>
<!-- Generator: Adobe Illustrator 19.0.0, SVG Export Plug-In . SVG Version: 6.00 Build 0)  -->
<svg xmlns="http://www.w3.org/2000/svg" xmlns:xlink="http://www.w3.org/1999/xlink" version="1.1" id="Capa_1" x="0px" y="0px" viewBox="0 0 512.001 512.001" style="enable-background:new 0 0 512.001 512.001;" xml:space="preserve">
<g>
	<g>
		<path d="M490.016,382.865c-17.205-17.205-59.012-41.33-93.66-50.199L319.69,256l76.666-76.666    c34.648-8.869,76.455-32.994,93.658-50.197c14.177-14.177,21.985-33.204,21.985-53.576s-7.807-39.4-21.985-53.576    C475.839,7.807,456.812,0,436.44,0c-20.372,0-39.4,7.807-53.576,21.985c-17.204,17.203-41.329,59.01-50.198,93.659l-76.666,76.666    l-76.665-76.666c-8.868-34.648-32.994-76.455-50.198-93.658C114.959,7.807,95.932,0,75.56,0c-20.372,0-39.4,7.807-53.576,21.985    C7.807,36.162,0,55.188,0,75.561c0,20.371,7.807,39.399,21.985,53.576c17.204,17.204,59.011,41.329,93.659,50.197l76.665,76.665    l-76.665,76.665c-34.648,8.868-76.455,32.993-93.659,50.198C7.807,397.041,0,416.067,0,436.44s7.807,39.399,21.985,53.576    C36.161,504.193,55.188,512,75.56,512s39.4-7.807,53.576-21.985c17.204-17.204,41.329-59.011,50.198-93.658l76.666-76.666    l76.665,76.666c8.869,34.648,32.994,76.455,50.198,93.659c14.177,14.177,33.204,21.985,53.576,21.985s39.399-7.807,53.576-21.985    c14.177-14.177,21.985-33.204,21.985-53.576S504.194,397.041,490.016,382.865z M404.095,43.215    c8.506-8.506,19.993-13.191,32.345-13.191c12.352,0,23.839,4.685,32.346,13.192c8.507,8.506,13.191,19.993,13.191,32.345    c0,12.352-4.685,23.839-13.191,32.346c-13.107,13.107-47.829,32.933-75.508,41.126l-30.308-30.308    C371.16,91.044,390.986,56.322,404.095,43.215z M43.214,107.905c-8.505-8.506-13.19-19.993-13.19-32.345    c0-12.352,4.685-23.839,13.191-32.346c8.506-8.506,19.993-13.191,32.346-13.191c12.353,0,23.84,4.685,32.346,13.191    c13.107,13.107,32.933,47.83,41.125,75.508l-30.308,30.308C91.044,140.84,56.322,121.013,43.214,107.905z M144.492,165.723    l21.23-21.23l69.047,69.047l-21.231,21.231L144.492,165.723z M107.906,468.785c-17.534,17.533-47.159,17.533-64.692,0    c-17.533-17.533-17.533-47.158,0-64.691c13.107-13.107,47.83-32.934,75.508-41.126l30.308,30.308    C140.84,420.956,121.013,455.678,107.906,468.785z M165.723,367.507l-21.231-21.23l201.786-201.786l21.23,21.23L165.723,367.507z     M277.23,298.46l21.23-21.23l69.047,69.047l-21.23,21.23L277.23,298.46z M468.785,468.785    c-8.507,8.506-19.994,13.191-32.346,13.191c-12.352,0-23.839-4.685-32.346-13.191c-13.107-13.107-32.933-47.83-41.126-75.508    l30.308-30.308c27.679,8.192,62.401,28.018,75.508,41.126c8.507,8.507,13.191,19.994,13.191,32.346    C481.976,448.792,477.291,460.28,468.785,468.785z"/>
	</g>
</g>
<g>
</g>
<g>
</g>
<g>
</g>
<g>
</g>
<g>
</g>
<g>
</g>
<g>
</g>
<g>
</g>
<g>
</g>
<g>
</g>
<g>
</g>
<g>
</g>
<g>
</g>
<g>
</g>
<g>
</g>
</svg>
