<?xml version="1.0" encoding="iso-8859-1"?>
<!-- Generator: Adobe Illustrator 19.0.0, SVG Export Plug-In . SVG Version: 6.00 Build 0)  -->
<svg xmlns="http://www.w3.org/2000/svg" xmlns:xlink="http://www.w3.org/1999/xlink" version="1.1" id="Capa_1" x="0px" y="0px" viewBox="0 0 512 512" style="enable-background:new 0 0 512 512;" xml:space="preserve">
<g>
	<g>
		<path d="M436.812,75.188C388.327,26.702,324.113,0,256,0S123.673,26.702,75.188,75.188C26.702,123.673,0,187.887,0,256    s26.702,132.327,75.188,180.812C123.673,485.298,187.887,512,256,512s132.327-26.702,180.812-75.188    C485.298,388.327,512,324.113,512,256S485.298,123.673,436.812,75.188z M256,482C131.383,482,30,380.617,30,256S131.383,30,256,30    s226,101.383,226,226S380.617,482,256,482z"/>
	</g>
</g>
<g>
	<g>
		<path d="M399.819,315.305c-13.425-11.406-31.061-16.339-48.402-13.54c-36.881,5.367-72.083-15.061-85.86-49.761    c-8.652-30.502,5.285-63.174,33.333-77.888C318.696,163.688,331,143.334,331,121c0-33.084-26.916-60-60-60    c-32.284,0-58.613,25.178-59.937,57.253c-1.497,32.664-26.119,59.417-58.545,63.616c-0.447,0.058-0.887,0.135-1.32,0.231    C99.678,189.411,61,233.827,61,286c0,37.109,19.046,70.719,50.949,89.906c31.882,19.176,70.437,20.265,103.114,2.926    c33.604-17.762,75.447-9.298,99.501,20.135c11.698,14.286,28.515,22.039,46.046,22.038c6.823,0,13.755-1.175,20.534-3.596    C405.355,408.761,421,386.619,421,361C421,343.398,413.28,326.743,399.819,315.305z M371.053,389.157    c-9.631,3.44-23.429,2.831-33.269-9.186c-21.447-26.244-53.191-40.354-85.468-40.354c-17.457,0-35.074,4.131-51.293,12.703    c-23.314,12.372-50.833,11.578-73.611-2.123C104.612,336.485,91,312.486,91,286c0-37.598,28.124-69.554,65.418-74.333    c0.463-0.06,0.919-0.14,1.368-0.24c46.192-6.658,81.104-45.043,83.249-91.869C241.696,103.544,254.858,91,271,91    c16.542,0,30,13.458,30,30c0,11.165-6.164,21.346-16.067,26.561c-40.833,21.421-61.014,69.157-47.985,113.504    c0.119,0.405,0.255,0.806,0.408,1.199c8.983,23.146,25.718,42.787,47.123,55.307c21.459,12.551,46.822,17.473,71.411,13.859    c0.08-0.012,0.16-0.024,0.24-0.038c8.683-1.418,17.526,1.049,24.263,6.774C387.134,343.895,391,352.217,391,361    C391,376.507,380.696,385.713,371.053,389.157z"/>
	</g>
</g>
<g>
	<g>
		<path d="M391,151c-33.084,0-60,26.916-60,60s26.916,60,60,60s60-26.916,60-60S424.084,151,391,151z M391,241    c-16.542,0-30-13.458-30-30s13.458-30,30-30s30,13.458,30,30S407.542,241,391,241z"/>
	</g>
</g>
<g>
	<g>
		<circle cx="136" cy="316" r="15"/>
	</g>
</g>
<g>
	<g>
		<circle cx="166" cy="256" r="15"/>
	</g>
</g>
<g>
	<g>
		<circle cx="226" cy="316" r="15"/>
	</g>
</g>
<g>
</g>
<g>
</g>
<g>
</g>
<g>
</g>
<g>
</g>
<g>
</g>
<g>
</g>
<g>
</g>
<g>
</g>
<g>
</g>
<g>
</g>
<g>
</g>
<g>
</g>
<g>
</g>
<g>
</g>
</svg>
