<?xml version="1.0" encoding="iso-8859-1"?>
<!-- Generator: Adobe Illustrator 19.0.0, SVG Export Plug-In . SVG Version: 6.00 Build 0)  -->
<svg xmlns="http://www.w3.org/2000/svg" xmlns:xlink="http://www.w3.org/1999/xlink" version="1.1" id="Capa_1" x="0px" y="0px" viewBox="0 0 512 512" style="enable-background:new 0 0 512 512;" xml:space="preserve">
<g>
	<g>
		<path d="M496.989,151.778c-44.399,0-88.323-34.605-117.353-63.636C362.639,71.144,340.038,61.783,316,61.783    c-14.188,0-28.327,3.392-40.891,9.807c-6.886,3.517-13.324,7.951-19.106,13.123c-5.782-5.173-12.222-9.606-19.106-13.123    c-12.562-6.417-26.701-9.807-40.891-9.807c-24.039,0-46.639,9.361-63.636,26.358c-29.03,29.03-72.955,63.636-117.353,63.636    c-10.214,0-17.446,10.092-14.258,19.655l40.37,123.634c32.346,99.063,119.443,155.149,214.373,155.149    c94.782,0,181.945-55.927,214.353-155.089l41.355-123.59C514.462,161.922,507.253,151.778,496.989,151.778z M153.584,109.355    c11.332-11.331,26.398-17.572,42.424-17.572c9.602,0,18.769,2.195,27.244,6.525c8.1,4.137,15.278,10.18,20.761,17.477    c2.833,3.771,7.275,5.99,11.991,5.99c4.717,0,9.158-2.219,11.991-5.99c5.482-7.297,12.66-13.34,20.761-17.477    c8.477-4.33,17.643-6.525,27.244-6.525c16.025,0,31.092,6.241,42.424,17.572c25.22,25.22,50.044,43.905,74.286,55.977    c-114.035,20.868-234.313,21.795-353.413,0C103.539,153.259,128.364,134.575,153.584,109.355z M390.995,202.308v58.046    c-9.689,6.425-19.703,12.13-29.998,17.092v-71.563C371.012,204.842,381.013,203.65,390.995,202.308z M330.999,208.556v80.97    c-19.312,6.307-39.393,10.139-59.996,11.351v-89.654C291.019,210.927,311.029,210.035,330.999,208.556z M241.005,211.223v89.547    c-20.492-1.37-40.596-5.396-59.996-11.885v-80.328C200.976,210.036,220.985,210.928,241.005,211.223z M151.01,205.885v70.734    c-10.286-5.001-20.304-10.723-29.998-17.136v-57.173C130.994,203.651,140.995,204.843,151.01,205.885z M91.014,197.817v38.702    c-15.555-13.664-29.954-29.305-42.911-46.747C62.351,192.767,76.659,195.446,91.014,197.817z M441.395,285.652    c-0.012,0.034-0.023,0.069-0.034,0.104c-26.672,81.683-99.626,134.464-185.856,134.464S96.32,367.438,69.647,285.756    L56.463,245.38c17.979,17.99,37.697,33.512,58.724,46.121c86.194,51.687,192.047,54.228,281.546,0.555    c20.77-12.456,39.984-27.459,57.546-44.914L441.395,285.652z M420.993,237.241v-39.424c14.409-2.38,28.769-5.07,43.067-8.078    C450.975,207.562,436.545,223.444,420.993,237.241z"/>
	</g>
</g>
<g>
</g>
<g>
</g>
<g>
</g>
<g>
</g>
<g>
</g>
<g>
</g>
<g>
</g>
<g>
</g>
<g>
</g>
<g>
</g>
<g>
</g>
<g>
</g>
<g>
</g>
<g>
</g>
<g>
</g>
</svg>
