<?xml version="1.0" encoding="iso-8859-1"?>
<!-- Generator: Adobe Illustrator 19.0.0, SVG Export Plug-In . SVG Version: 6.00 Build 0)  -->
<svg xmlns="http://www.w3.org/2000/svg" xmlns:xlink="http://www.w3.org/1999/xlink" version="1.1" id="Capa_1" x="0px" y="0px" viewBox="0 0 512 512" style="enable-background:new 0 0 512 512;" xml:space="preserve">
<g>
	<g>
		<path d="M492.345,305.059c-8.171-28.878-31.138-51.973-59.938-60.271c-24.665-7.106-50.145-4.057-71.431,8.267    c-13.059-7.538-28.015-11.81-43.597-12.045c-0.459-0.007-0.919,0.004-1.379,0.005v-30.126c16.761-1.317,30-15.368,30-32.463V166    c0-41.355-33.645-75-75-75V45c0-24.813-20.187-45-45-45h-90c-24.813,0-45,20.187-45,45v46c-41.355,0-75,33.645-75,75v12.426    c0,17.094,13.239,31.145,30,32.463v180.222c-16.761,1.317-30,15.368-30,32.463c0,31.547,12.536,62.176,34.394,84.033    C53.207,510.42,57.021,512,61,512h240c24.813,0,45-20.187,45-45v-31c0-8.271,6.732-15,15.004-15    c8.269,0.002,14.996,6.731,14.996,15v31c0,24.813,20.187,45,45,45s45-20.187,45-45v-16.662c0-29.33,5.838-53.994,17.351-73.306    C496.189,355.498,499.384,329.937,492.345,305.059z M121,45c0-8.271,6.729-15,15-15h90c8.271,0,15,6.729,15,15v46H121V45z     M46,178.426V166c0-24.813,20.187-45,45-45h15h150h15c24.813,0,45,20.187,45,45v12.426c0,1.419-1.154,2.574-2.573,2.574H48.573    C47.154,181,46,179.846,46,178.426z M121,241c-8.284,0-15,6.716-15,15v90c0,8.284,6.716,15,15,15h110.125    c1.957,5.529,4.463,10.896,7.524,16.031c2.611,4.379,4.914,9.048,6.939,13.969H76V211h210v30H121z M248.331,271    c-8.591,9.706-15.069,21.309-18.677,34.062c-2.441,8.629-3.648,17.341-3.652,25.938H136v-60H248.331z M67.518,482    C53.779,466.131,46,445.167,46,423.574c0-1.419,1.154-2.574,2.573-2.574h205.226c1.455,9.18,2.201,18.961,2.201,29.34V467    c0,5.258,0.915,10.305,2.58,15H67.518z M457.583,361.669C443.262,385.692,436,415.524,436,450.338V467c0,8.271-6.729,15-15,15    s-15-6.729-15-15v-31c0-24.807-20.182-44.993-44.992-45C336.19,391,316,411.187,316,436v31c0,8.271-6.729,15-15,15    s-15-6.729-15-15v-16.66c0-16.943-1.734-32.695-5.15-47.183c-0.039-0.203-0.089-0.401-0.136-0.602    c-3.605-15.047-9.041-28.716-16.297-40.887c-8.571-14.378-10.665-31.581-5.896-48.441c5.357-18.94,21.109-34.572,40.128-39.825    c6.087-1.681,12.22-2.483,18.278-2.396c21.721,0.328,41.625,12.435,51.943,31.597c3.928,7.293,13.021,10.022,20.319,6.095    c7.294-3.928,10.022-13.025,6.095-20.319c-2.682-4.979-5.794-9.64-9.279-13.947c11.926-4.184,25.147-4.547,38.095-0.818    c18.632,5.368,34.088,20.916,39.377,39.61C468.248,330.087,466.155,347.292,457.583,361.669z"/>
	</g>
</g>
<g>
</g>
<g>
</g>
<g>
</g>
<g>
</g>
<g>
</g>
<g>
</g>
<g>
</g>
<g>
</g>
<g>
</g>
<g>
</g>
<g>
</g>
<g>
</g>
<g>
</g>
<g>
</g>
<g>
</g>
</svg>
