<?xml version="1.0" encoding="iso-8859-1"?>
<!-- Generator: Adobe Illustrator 19.0.0, SVG Export Plug-In . SVG Version: 6.00 Build 0)  -->
<svg xmlns="http://www.w3.org/2000/svg" xmlns:xlink="http://www.w3.org/1999/xlink" version="1.1" id="Capa_1" x="0px" y="0px" viewBox="0 0 512.002 512.002" style="enable-background:new 0 0 512.002 512.002;" xml:space="preserve">
<g>
	<g>
		<path d="M497.001,61.001h-92.672c-16.216,0-32.453-3.833-46.958-11.085l-69.324-34.663c-20.242-10.12-40.555-15.252-60.374-15.252    H45.001c-12.089,0-23.474,4.944-32.056,13.922C4.598,22.654,0.001,34.047,0.001,46.001v30c0,8.284,6.716,15,15,15h15v45    c0,24.813,20.187,45,45,45h121c24.813,0,45-20.187,45-45V91.87c11.675,1.505,23.109,4.956,33.63,10.216l69.324,34.663    c18.649,9.324,39.526,14.252,60.374,14.252h92.672c8.284,0,15-6.716,15-15v-60C512.001,67.717,505.285,61.001,497.001,61.001z     M91.001,151.001h-16c-8.271,0-15-6.729-15-15v-45h31V151.001z M151.001,151.001h-30v-60h30V151.001z M211.001,136.001    c0,8.271-6.728,15-15,15h-15v-60h30V136.001z M421.001,121.001h-16.672c-16.216,0-32.453-3.833-46.958-11.085l-69.324-34.663    c-18.649-9.324-39.525-14.252-60.374-14.252H30.001v-15c0-8.523,7.01-16,15-16h182.672c15.12,0,30.919,4.066,46.958,12.085    l69.324,34.663c18.649,9.324,39.526,14.252,60.374,14.252h16.672V121.001z M482.001,121.001h-31v-30h31V121.001z"/>
	</g>
</g>
<g>
	<g>
		<path d="M508.346,275.06c-8.171-28.878-31.138-51.973-59.939-60.271c-24.688-7.112-51.013-3.969-72.403,8.283    c-13.064-7.546-28.031-11.825-43.623-12.061c-8.913-0.132-17.883,1.035-26.717,3.476c-20.515,5.666-38.102,18.714-49.664,36.042    c-11.372-17.045-28.569-29.971-48.593-35.74c-24.8-7.145-50.416-4.024-71.769,8.463c-13.329-7.616-28.596-12.005-44.258-12.241    c-8.895-0.132-17.883,1.035-26.717,3.476c-29.355,8.107-52.732,31.319-61.009,60.576c-7.037,24.876-3.843,50.435,8.995,71.969    c11.352,19.041,17.352,44.737,17.352,74.31v45.659c0,24.813,20.187,45,45,45c11.954,0,23.347-4.597,32.078-12.944    c8.978-8.582,13.922-19.966,13.922-32.056v-30c0-8.271,6.732-15,15.004-15c8.269,0.002,14.996,6.731,14.996,15v30    c0,24.813,20.187,45,45,45s45-20.187,45-45v-45.662c0-27.451,5.178-51.552,15-70.1c9.822,18.549,15,42.651,15,70.103v45.659    c0,24.813,20.187,45,45,45s45-20.187,45-45v-30c0-8.271,6.732-15,15.004-15c8.269,0.002,14.996,6.731,14.996,15v30    c0,12.089,4.944,23.474,13.922,32.056c8.731,8.347,20.124,12.944,32.078,12.944c24.813,0,45-20.187,45-45v-45.662    c0-29.571,6-55.266,17.351-74.306C512.191,325.498,515.385,299.938,508.346,275.06z M232.584,331.671    c-14.321,24.022-21.583,54.191-21.583,89.668v45.662c0,8.271-6.729,15-15,15s-15-6.729-15-15v-30    c0-24.806-20.182-44.993-44.992-45c-24.818,0-45.008,20.187-45.008,45v30c0,7.991-7.477,15-16,15c-8.271,0-15-6.729-15-15v-45.66    c0-35.478-7.262-65.648-21.583-89.671c-8.571-14.378-10.665-31.581-5.896-48.441c5.357-18.94,21.109-34.572,40.128-39.825    c6.088-1.681,12.23-2.488,18.277-2.396c22.005,0.332,42.787,12.734,52.944,31.597c3.928,7.294,13.023,10.022,20.319,6.095    c7.294-3.928,10.022-13.025,6.095-20.319c-2.666-4.951-5.813-9.603-9.369-13.915c11.95-4.214,25.207-4.588,38.185-0.849    c18.632,5.368,34.088,20.916,39.377,39.61C243.249,300.088,241.155,317.292,232.584,331.671z M473.584,331.671    c-14.321,24.022-21.583,54.191-21.583,89.668v45.662c0,8.271-6.729,15-15,15c-8.523,0-16-7.009-16-15v-30    c0-24.806-20.182-44.993-44.992-45c-24.818,0-45.008,20.187-45.008,45v30c0,8.271-6.729,15-15,15s-15-6.729-15-15v-45.66    c0-35.478-7.262-65.648-21.583-89.671c-8.571-14.378-10.665-31.581-5.896-48.441c5.357-18.94,21.109-34.572,40.128-39.825    c6.087-1.681,12.244-2.488,18.277-2.396c21.722,0.328,41.626,12.435,51.944,31.597c3.929,7.294,13.022,10.022,20.319,6.095    c7.294-3.928,10.022-13.025,6.095-20.319c-2.67-4.957-5.769-9.601-9.234-13.891c12.222-4.24,25.938-4.65,39.05-0.873    c18.632,5.368,34.088,20.916,39.377,39.61C484.249,300.088,482.155,317.292,473.584,331.671z"/>
	</g>
</g>
<g>
</g>
<g>
</g>
<g>
</g>
<g>
</g>
<g>
</g>
<g>
</g>
<g>
</g>
<g>
</g>
<g>
</g>
<g>
</g>
<g>
</g>
<g>
</g>
<g>
</g>
<g>
</g>
<g>
</g>
</svg>
