<?xml version="1.0" encoding="iso-8859-1"?>
<!-- Generator: Adobe Illustrator 19.0.0, SVG Export Plug-In . SVG Version: 6.00 Build 0)  -->
<svg xmlns="http://www.w3.org/2000/svg" xmlns:xlink="http://www.w3.org/1999/xlink" version="1.1" id="Capa_1" x="0px" y="0px" viewBox="0 0 512 512" style="enable-background:new 0 0 512 512;" xml:space="preserve">
<g>
	<g>
		<path d="M121.359,211.054h-14.983c-24.784,0-44.948,20.164-44.948,44.948v74.913c0,8.274,6.708,14.983,14.982,14.983    s14.983-6.708,14.983-14.983v-74.913c0-8.261,6.721-14.983,14.983-14.983h14.983c8.274,0,14.982-6.708,14.982-14.983    S129.633,211.054,121.359,211.054z"/>
	</g>
</g>
<g>
	<g>
		<path d="M451.774,270.984h-71.731c21.862-17.452,33.297-35.724,34.09-37.017c2.994-4.877,2.948-11.033-0.119-15.865    c-3.066-4.832-8.62-7.496-14.304-6.863c-2.973,0.331-5.923,0.422-8.804,0.331c14.752-13.357,30.17-35.896,40.122-73.93    c7.869-30.069,22.101-54.318,42.302-72.073c14.682-12.905,27.418-17.557,28.272-17.86c6.252-1.962,10.409-7.731,10.399-14.287    c-0.01-6.575-4.403-12.345-10.69-14.271c-1.044-0.32-25.985-7.84-62.598-8.304c-2.175-0.028-4.346-0.021-6.513,0.003    c-0.693,0.006-1.386,0.013-2.08,0.025c-1.672,0.031-3.341,0.074-5.008,0.135c-1.292,0.046-2.583,0.109-3.872,0.174    c-0.408,0.021-0.815,0.043-1.223,0.066c-30.745,1.678-62.066,8.75-91.364,21.925c2.835-7.679,14.055-14.389,6.349-26.118    c-3.9-5.937-11.434-8.318-18.04-5.702c-1.258,0.498-30.631,12.305-61.05,37.944c-30.06-25.105-58.878-37.283-60.228-37.844    c-6.601-2.752-14.23-0.451-18.211,5.494c-3.98,5.944-3.204,13.873,1.855,18.931c1.957,1.957,3.388,4.505,4.42,7.31    c-33.78-15.162-71.407-22.836-110.308-22.342c-36.726,0.464-61.779,7.979-62.827,8.298C4.35,21.052,0.052,26.808,0,33.356    c-0.052,6.548,4.155,12.371,10.388,14.379c0.518,0.167,52.047,17.533,70.986,89.905c1.214,4.639,2.537,9.135,3.959,13.484H61.629    c-15.973,0-31.204,6.15-42.885,17.318C6.786,179.873,0.2,195.007,0.2,211.054v240.719c0,16.047,6.585,31.182,18.543,42.612    c11.681,11.167,26.912,17.318,42.885,17.318h119.66c5.188,0,10.133-0.647,14.987-1.961c4.85,1.311,9.793,1.961,14.978,1.961    h240.52c33.045,0,59.93-26.885,59.93-59.93V330.914C511.704,297.869,484.819,270.984,451.774,270.984z M56.959,41.592    c5.513-0.443,11.503-0.74,17.875-0.795c43.28-0.372,83,10.003,118.05,30.839c4.266,2.536,9.509,2.795,14.004,0.692    c4.495-2.103,7.657-6.294,8.444-11.193c0.221-1.373,1.003-6.819,0.848-14.148c5.702,3.795,11.811,8.208,18.014,13.238    c-13.837,15.323-24.691,31.937-32.399,49.549c-25.753-16.136-46.601-20.065-47.649-20.254c-8.144-1.468-15.972,3.937-17.44,12.081    s3.907,15.928,12.05,17.396c0.218,0.042,19.932,3.959,43.294,20.244c-0.944,4.121-1.719,8.285-2.345,12.485    c-2.752-0.389-5.56-0.603-8.416-0.603h-64.134c-2.541-6.496-4.819-13.54-6.79-21.068C98.759,85.706,76.527,58.143,56.959,41.592z     M211.254,285.967v165.807c0,12.701-7.984,23.988-19.867,28.086c-0.126,0.043-0.252,0.089-0.377,0.136    c-3.215,1.206-6.213,1.744-9.721,1.744H61.629v-0.001c-17.055,0-31.463-13.722-31.463-29.965V211.054    c0-16.243,14.408-29.965,31.463-29.965h45.54c0.035,0,0.069,0.004,0.104,0.004c0.023,0,0.045-0.004,0.068-0.004h73.949    c16.523,0,29.965,13.442,29.965,29.965V285.967z M218.391,164.04c0.774-8.79,2.359-17.353,4.753-25.678    c0.186-0.509,0.339-1.027,0.466-1.549c11.509-38.272,39.671-68.582,72.621-90.248c-0.182,7.001,0.501,12.351,0.78,14.2    c0.837,6.178,5.541,11.542,12.222,12.729c3.666,0.656,7.329-0.102,10.284-1.859c33.943-20.176,72.204-30.544,113.73-30.842    c1.181-0.006,2.362-0.008,3.548,0.002c6.391,0.055,12.384,0.359,17.889,0.812c-19.184,16.548-41.042,44.108-52.646,88.447    c-17.231,65.848-50.038,70.672-53.142,70.98c-6.87-0.093-12.6,4.495-14.358,11.163c-1.771,6.719,1.668,13.775,7.801,17.042    c0.743,0.396,12.205,6.411,28.519,9.887c-12.836,12.322-32.453,26.505-58.196,31.857h-68.074    c9.778-55.052,32.366-97.195,67.203-125.317c26.903-21.718,51.61-26.623,51.782-26.657c8.143-1.467,13.555-9.259,12.088-17.403    c-1.467-8.143-9.259-13.557-17.403-12.088c-1.257,0.227-31.147,5.842-63.774,31.621c-18.136,14.329-39.438,36.925-56.206,71.392    C234.577,181.171,227.567,171.296,218.391,164.04z M481.739,451.773c0,16.523-13.442,29.965-29.965,29.965H233.191    c2.804-4.848,5.064-10.443,6.406-16.102c1.024-4.309,1.622-9.145,1.622-13.863V300.949h72.967c0.022,0,0.044,0.003,0.067,0.003    c0.02,0,0.041-0.003,0.061-0.003h137.46c16.523,0,29.965,13.442,29.965,29.965V451.773z"/>
	</g>
</g>
<g>
	<g>
		<path d="M436.991,376.861c-8.274,0-14.983,6.708-14.983,14.983v14.982c0,8.261-6.721,14.983-14.983,14.983h-45.946    c-8.274,0-14.983,6.708-14.983,14.983s6.708,14.983,14.983,14.983h45.946c24.784,0,44.948-20.164,44.948-44.948v-14.982    C451.974,383.569,445.265,376.861,436.991,376.861z"/>
	</g>
</g>
<g>
</g>
<g>
</g>
<g>
</g>
<g>
</g>
<g>
</g>
<g>
</g>
<g>
</g>
<g>
</g>
<g>
</g>
<g>
</g>
<g>
</g>
<g>
</g>
<g>
</g>
<g>
</g>
<g>
</g>
</svg>
