<?xml version="1.0" encoding="iso-8859-1"?>
<!-- Generator: Adobe Illustrator 19.0.0, SVG Export Plug-In . SVG Version: 6.00 Build 0)  -->
<svg xmlns="http://www.w3.org/2000/svg" xmlns:xlink="http://www.w3.org/1999/xlink" version="1.1" id="Capa_1" x="0px" y="0px" viewBox="0 0 512 512" style="enable-background:new 0 0 512 512;" xml:space="preserve">
<g>
	<g>
		<path d="M431.058,81.917c-5.847-5.848-15.329-5.848-21.178,0s-5.848,15.329,0,21.177c16.769,16.768,17.662,43.744,2.034,61.412    c-5.479,6.195-4.9,15.659,1.295,21.139c2.849,2.52,6.389,3.759,9.916,3.759c4.141,0,8.263-1.708,11.222-5.054    C460.442,154.85,458.996,109.855,431.058,81.917z"/>
	</g>
</g>
<g>
	<g>
		<path d="M103.646,408.511c-8.576-8.53-13.298-19.764-13.298-31.632c0-11.877,4.675-23.07,13.165-31.515    c5.863-5.833,5.887-15.314,0.055-21.178c-5.832-5.863-15.314-5.887-21.177-0.055c-14.181,14.108-21.991,32.841-21.991,52.748    c0,19.897,7.857,38.671,22.123,52.864c2.922,2.907,6.742,4.359,10.561,4.359c3.846,0,7.69-1.471,10.616-4.414    C109.533,423.825,109.508,414.344,103.646,408.511z"/>
	</g>
</g>
<g>
	<g>
		<path d="M456.509,246.265l14.061-14.222c52.387-52.42,55.762-139.56,2.996-192.325C420.985-13.2,335.799-13.264,283.151,39.672    L160.688,161.138c-0.007,0.007-0.013,0.015-0.021,0.022c-0.007,0.007-0.016,0.013-0.023,0.021L40.18,281.646    c-53.016,52.678-52.884,137.913-0.034,190.427c26.255,26.255,60.737,39.376,95.217,39.376c34.455,0,68.91-13.111,95.118-39.318    l15.248-15.084C274.113,491.746,316.273,512,361.712,512c40.068,0,77.691-15.558,105.942-43.808    c28.25-28.25,43.808-65.874,43.808-105.941C511.462,316.805,491.201,274.638,456.509,246.265z M228.854,431.615l-19.492,19.28    c-40.815,40.815-107.223,40.814-148.072-0.034c-40.694-40.434-41.616-106.618,0.034-148.004l109.91-109.909l74.533,74.533    C206.218,315.321,202.438,381.265,228.854,431.615z M346.738,481.12c-35.36-4.402-66.972-24.272-86.507-55.042    c-45.949-72.058-1.652-171.891,86.507-182.714V481.12z M266.943,246.303l-74.489-74.489l111.82-110.908    c0.025-0.026,0.052-0.052,0.077-0.077c40.553-40.814,106.725-41.508,148.005,0.034c41.095,41.095,37.63,109.413-2.995,150.036    c-0.021,0.02-0.04,0.04-0.061,0.06l-18.223,18.431C378.981,202.055,313.469,207.846,266.943,246.303z M376.688,481.116V243.379    c59.046,7.231,104.824,57.627,104.824,118.872C481.513,423.238,435.704,473.724,376.688,481.116z"/>
	</g>
</g>
<g>
</g>
<g>
</g>
<g>
</g>
<g>
</g>
<g>
</g>
<g>
</g>
<g>
</g>
<g>
</g>
<g>
</g>
<g>
</g>
<g>
</g>
<g>
</g>
<g>
</g>
<g>
</g>
<g>
</g>
</svg>
