<?xml version="1.0" encoding="iso-8859-1"?>
<!-- Generator: Adobe Illustrator 19.0.0, SVG Export Plug-In . SVG Version: 6.00 Build 0)  -->
<svg xmlns="http://www.w3.org/2000/svg" xmlns:xlink="http://www.w3.org/1999/xlink" version="1.1" id="Capa_1" x="0px" y="0px" viewBox="0 0 512 512" style="enable-background:new 0 0 512 512;" xml:space="preserve">
<g>
	<g>
		<path d="M497,278.5H345c-12.017,0-23.317,4.682-31.817,13.182L270,334.865v-91.513c34.92-12.383,60-45.741,60-84.852v-60    c0-8.284-6.716-15-15-15s-15,6.716-15,15c0,16.542-13.458,30-30,30H90c-49.626,0-90,40.374-90,90v60c0,8.284,6.716,15,15,15    s15-6.716,15-15c0-16.542,13.458-30,30-30v92.58c-17.459,6.192-30,22.865-30,42.42c0,24.813,20.187,45,45,45h210    c12.017,0,23.317-4.682,31.817-13.182l46.818-46.818H497c8.284,0,15-6.716,15-15v-60C512,285.216,505.284,278.5,497,278.5z     M30,226.572V218.5c0-33.084,26.916-60,60-60h180c10.925,0,21.167-2.949,30-8.072v8.072c0,33.084-26.916,60-60,60H60    C49.075,218.5,38.833,221.449,30,226.572z M240,248.5v90h-30v-90H240z M180,248.5v90h-30v-90H180z M120,248.5v90H90v-90H120z     M357.422,338.5c-3.978,0-7.793,1.58-10.606,4.393l-51.211,51.211c-2.793,2.793-6.659,4.396-10.604,4.396H75    c-8.271,0-15-6.729-15-15s6.729-15,15-15h197.578c3.978,0,7.793-1.58,10.606-4.393l51.211-51.211    c2.793-2.793,6.659-4.396,10.604-4.396h137v30H357.422z"/>
	</g>
</g>
<g>
</g>
<g>
</g>
<g>
</g>
<g>
</g>
<g>
</g>
<g>
</g>
<g>
</g>
<g>
</g>
<g>
</g>
<g>
</g>
<g>
</g>
<g>
</g>
<g>
</g>
<g>
</g>
<g>
</g>
</svg>
