<svg width="48" height="32" xmlns="http://www.w3.org/2000/svg">
 <!-- Created with Method Draw - http://github.com/duopixel/Method-Draw/ -->

 <g>
  <title>background</title>
  <rect fill="#fff" id="canvas_background" height="34" width="50" y="-1" x="-1"/>
  <g display="none" overflow="visible" y="0" x="0" height="100%" width="100%" id="canvasGrid">
   <rect fill="url(#gridpattern)" stroke-width="0" y="1" x="1" height="400" width="311"/>
  </g>
 </g>
 <g>
  <title>Layer 1</title>
  <g transform="rotate(57.653663635253906 24.999992370605472,16.42106056213379) " id="svg_22">
   <g transform="matrix(0.14816283361796767,0,0,0.14816283361796767,0,0) " id="svg_5">
    <path id="svg_6" d="m199.639711,-4.530343c-4.284,-21.42 -15.3,-39.78 -28.764,-56.305c-3.061,-3.672 -9.181,-2.447 -11.629,1.225c-11.016,19.584 -20.196,41.004 -22.644,63.647c-0.612,6.732 9.792,7.345 11.016,1.225c4.284,-16.524 10.404,-32.437 18.36,-47.736c3.06,4.284 6.121,9.18 8.569,14.076c-4.284,-4.284 -14.077,-2.448 -14.077,5.508c-0.612,99.756 -23.256,202.571 -5.508,301.104c1.224,7.956 14.688,6.12 14.076,-1.836c-7.956,-100.368 7.345,-198.899 7.957,-299.268c0,-0.612 0,-1.224 0,-1.224c3.672,7.344 6.119,14.688 7.956,23.256c1.225,9.792 16.524,6.12 14.688,-3.672z"/>
   </g>
   <g transform="matrix(0.14816283361796767,0,0,0.14816283361796767,0,0) " id="svg_7"/>
   <g transform="matrix(0.14816283361796767,0,0,0.14816283361796767,0,0) " id="svg_8"/>
   <g transform="matrix(0.14816283361796767,0,0,0.14816283361796767,0,0) " id="svg_9"/>
   <g transform="matrix(0.14816283361796767,0,0,0.14816283361796767,0,0) " id="svg_10"/>
   <g transform="matrix(0.14816283361796767,0,0,0.14816283361796767,0,0) " id="svg_11"/>
   <g transform="matrix(0.14816283361796767,0,0,0.14816283361796767,0,0) " id="svg_12"/>
   <g transform="matrix(0.14816283361796767,0,0,0.14816283361796767,0,0) " id="svg_13"/>
   <g transform="matrix(0.14816283361796767,0,0,0.14816283361796767,0,0) " id="svg_14"/>
   <g transform="matrix(0.14816283361796767,0,0,0.14816283361796767,0,0) " id="svg_15"/>
   <g transform="matrix(0.14816283361796767,0,0,0.14816283361796767,0,0) " id="svg_16"/>
   <g transform="matrix(0.14816283361796767,0,0,0.14816283361796767,0,0) " id="svg_17"/>
   <g transform="matrix(0.14816283361796767,0,0,0.14816283361796767,0,0) " id="svg_18"/>
   <g transform="matrix(0.14816283361796767,0,0,0.14816283361796767,0,0) " id="svg_19"/>
   <g transform="matrix(0.14816283361796767,0,0,0.14816283361796767,0,0) " id="svg_20"/>
   <g transform="matrix(0.14816283361796767,0,0,0.14816283361796767,0,0) " id="svg_21"/>
  </g>
 </g>
</svg>