<?xml version="1.0" encoding="iso-8859-1"?>
<!-- Generator: Adobe Illustrator 19.0.0, SVG Export Plug-In . SVG Version: 6.00 Build 0)  -->
<svg xmlns="http://www.w3.org/2000/svg" xmlns:xlink="http://www.w3.org/1999/xlink" version="1.1" id="Layer_1" x="0px" y="0px" viewBox="0 0 512 512" style="enable-background:new 0 0 512 512;" xml:space="preserve">
<path style="fill:#AA9A79;" d="M198.269,340.982v117.51c0,2.328,0.979,4.551,2.694,6.125c53.125,48.698,50.466,47.38,54.92,47.38  c4.455,0,1.791,1.322,54.92-47.38c1.716-1.574,2.694-3.797,2.694-6.125v-117.51H198.269z"/>
<path style="fill:#938265;" d="M222.815,340.982H198.27v117.51c0,4.73,1.204,4.759,22.184,23.989  c-0.05-0.7-0.032-134.964-0.032-135.666C220.421,344.541,221.336,342.482,222.815,340.982z"/>
<g>
	<path style="fill:#776A57;" d="M310.502,388.967c3.976,1.657,8.534-0.228,10.185-4.194c1.653-3.971-0.223-8.532-4.194-10.185   l-80.648-33.606h-40.282C196.379,341.464,189.879,338.705,310.502,388.967z"/>
	<path style="fill:#776A57;" d="M310.487,464.733l-115.214-48.006c-3.972-1.654-5.848-6.216-4.194-10.185   c1.655-3.972,6.215-5.851,10.186-4.194l115.214,48.007c3.97,1.654,5.849,6.216,4.193,10.185   C319.011,464.528,314.431,466.384,310.487,464.733z"/>
	<path style="fill:#776A57;" d="M285.533,492.224l-90.26-37.61c-3.972-1.654-5.848-6.215-4.194-10.186   c1.655-3.971,6.215-5.851,10.186-4.193l90.26,37.61c3.97,1.654,5.849,6.215,4.193,10.185   C294.057,492.019,289.477,493.874,285.533,492.224z"/>
	<path style="fill:#776A57;" d="M310.438,426.826L195.273,378.84c-3.972-1.654-5.848-6.216-4.194-10.185   c1.655-3.972,6.215-5.85,10.186-4.193l115.165,47.986c3.97,1.654,5.849,6.215,4.193,10.185   C318.962,426.623,314.378,428.475,310.438,426.826z"/>
</g>
<path style="fill:#B0DCF7;" d="M320.821,240.73h28.509c-0.13-7.155-0.637-14.464-1.597-21.857  c45.563-31.586,64.731-90.301,56.892-133.491c-11.779-75.66-85.671-108.966-148.741-67.127  C229.099,0.484,196.156-5.961,165.549,6.36c-77.639,31.251-81.496,157.075-1.516,212.513c-0.958,7.393-1.467,14.702-1.597,21.857  h132.421"/>
<path style="fill:#7AC1DD;" d="M181.071,208.6L181.071,208.6c-71.679-53.769-73.183-169.736-2.22-206.382  C89.804,22.392,78.709,159.729,164.034,218.872c-0.958,7.393-1.467,14.702-1.597,21.857h20.83  c0.152-6.455,0.491-16.858,1.039-24.212C184.78,214.446,183.385,210.241,181.071,208.6z"/>
<path style="fill:#BBE6FC;" d="M259.598,15.896c-26.295,70.907-22.703,153.514,16.338,224.833c8.177,0,65.194,0,73.394,0  c-0.13-7.155-0.637-14.464-1.597-21.857c45.563-31.586,64.731-90.301,56.892-133.491C393.117,11.465,322.125-22.354,259.598,15.896z  "/>
<path style="fill:#C6A875;" d="M176.394,312.65c0,7.326,0,10.432,0,18.625c0,7.071,5.732,12.804,12.803,12.804h133.374  c7.071,0,12.804-5.733,12.804-12.804c0-3.404,0-14.584,0-18.625H176.394z"/>
<path style="fill:#B5915D;" d="M176.394,312.65c0,7.326,0,10.432,0,18.625c0,7.071,5.732,12.804,12.803,12.804h20.838  c-7.071,0-12.803-5.733-12.803-12.804c0-9.57,0-14.415,0-18.625H176.394z"/>
<path style="fill:#AA9A79;" d="M350.307,239.691c7.071,0,12.804,5.733,12.804,12.804v49.611c0,7.071-5.733,12.803-12.804,12.803  H161.462c-7.073,0-12.803-5.732-12.803-12.803v-49.611c0-7.072,5.73-12.804,12.803-12.804"/>
<path style="fill:#938265;" d="M169.429,302.107v-49.611c0-7.072,5.73-12.804,12.804-12.804h-20.772  c-7.073,0-12.803,5.733-12.803,12.804v49.611c0,7.071,5.73,12.803,12.803,12.803h20.771  C175.159,314.91,169.429,309.178,169.429,302.107z"/>
<path style="fill:#B7A68A;" d="M350.307,239.691h-74.944c15.46,28.539,35.885,53.992,60.106,75.219h14.838  c7.071,0,12.804-5.732,12.804-12.803v-49.611C363.111,245.424,357.378,239.691,350.307,239.691z"/>
<g>
</g>
<g>
</g>
<g>
</g>
<g>
</g>
<g>
</g>
<g>
</g>
<g>
</g>
<g>
</g>
<g>
</g>
<g>
</g>
<g>
</g>
<g>
</g>
<g>
</g>
<g>
</g>
<g>
</g>
</svg>
