<?xml version="1.0" encoding="iso-8859-1"?>
<!-- Generator: Adobe Illustrator 19.0.0, SVG Export Plug-In . SVG Version: 6.00 Build 0)  -->
<svg xmlns="http://www.w3.org/2000/svg" xmlns:xlink="http://www.w3.org/1999/xlink" version="1.1" id="Layer_1" x="0px" y="0px" viewBox="0 0 512 512" style="enable-background:new 0 0 512 512;" xml:space="preserve">
<g>
	<path style="fill:#A58659;" d="M254.7,0.005c-68.343,0-125.394,55.046-125.394,125.857c0,8.796,0,66.42,0,74.001h1.84   c3.576-9.842,12.581-17.078,23.399-18.079c0-0.399,0.001-0.791,0.001-1.194c0-1.35,1.044-2.471,2.391-2.568   c0.611-0.044,61.465-4.972,89.183-51.792c4.154-7.006,12.472-7.386,17.015,0.079c27.741,46.746,88.523,51.669,89.133,51.713   c1.349,0.098,2.393,1.218,2.393,2.568v1.194c10.817,1,19.821,8.236,23.396,18.079h2.037c0-7.857,0-67.554,0-74.462   C380.094,56.144,323.955,0.005,254.7,0.005z"/>
	<path style="fill:#A58659;" d="M394.348,274.281c-13.347-24.894-32.213-41.044-43.344-37.597   c-0.308,10.683-2.333,21.454-6.336,31.917c8.686,35.61,40.057,71.89,55.505,63.608C410.996,326.407,408.39,300.472,394.348,274.281   z"/>
</g>
<g>
	<path style="fill:#916B3F;" d="M353.755,243.872h-3.229c-0.859,8.429-2.764,16.647-5.857,24.73   c2.022,8.291,5.541,17.474,10.483,26.693c20.49,38.215,49.941,50.803,51.625,23.08C387.026,311.405,361.953,276.85,353.755,243.872   z"/>
	<path style="fill:#916B3F;" d="M154.546,181.784c0-1.121-0.058-1.528,0.179-2.133c0-19.987,0-48.099,0-54.252   c0-64.965,49.4-118.389,112.683-124.758c-26.033-2.627-52.738,2.789-76.358,16.714c-73.98,43.644-61.743,114.954-61.743,182.507   h1.84C134.723,190.02,143.728,182.784,154.546,181.784z"/>
</g>
<path style="fill:#B79465;" d="M288.803,4.7h-0.002c-18.551,38.6-27.019,79.941-26.44,120.479c0.266,0.357,0.527,0.727,0.773,1.13  c27.741,46.746,88.523,51.669,89.133,51.713c1.349,0.098,2.393,1.218,2.393,2.568v1.194c10.817,1,19.821,8.236,23.396,18.079h2.037  c0-7.857,0-67.554,0-74.462C380.094,68.119,341.595,19.595,288.803,4.7z"/>
<g>
	<path style="fill:#F9D7AF;" d="M379.715,205.293c0-15.262-12.37-27.633-27.63-27.633v55.267   C367.345,232.927,379.715,220.556,379.715,205.293z"/>
	<path style="fill:#F9D7AF;" d="M129.488,205.293c0-15.262,12.372-27.633,27.634-27.633v55.267   C141.86,232.927,129.488,220.556,129.488,205.293z"/>
</g>
<path style="fill:#A58659;" d="M157.175,236.837c-11.063-4.066-30.28,12.195-43.82,37.445  c-14.041,26.191-16.648,52.126-5.825,57.928c15.536,8.331,47.3-28.479,55.698-64.419  C159.684,258.253,157.517,248.127,157.175,236.837z"/>
<path style="fill:#916B3F;" d="M158.537,250.397c-0.755-4.427-1.224-8.951-1.362-13.561c-11.063-4.066-30.28,12.195-43.82,37.445  c-20.07,37.438-15.048,69.203,8.654,56.157C117.335,309.584,136.034,267.993,158.537,250.397z"/>
<path style="fill:#F9D7AF;" d="M216.924,323.77c0,2.954,0,26.494,0,29.965h0.007c0.135,21.468,17.571,38.828,39.069,38.828  s38.937-17.36,39.069-38.828h0.006c0-11.094,0-20.463,0-31.192C270.276,333.877,241.772,334.191,216.924,323.77z"/>
<path style="fill:#F2C497;" d="M238.784,353.735h-0.006c0-8.494,0-13.875,0-23.701c-7.616-1.243-14.938-3.363-21.854-6.264  c0,2.954,0,26.494,0,29.965h0.007c0.162,25.832,24.992,44.533,49.997,37.269C250.744,386.296,238.894,371.414,238.784,353.735z"/>
<path style="fill:#9FC95D;" d="M362.952,352.705c-7.769,0-60.71,0-67.883,0c-0.133,21.468-17.571,38.828-39.069,38.828  s-38.934-17.36-39.069-38.828c-10.312,0-60.354,0-67.881,0c-37.705,0-68.273,30.568-68.273,68.272v78.019  c0,7.183,5.82,13.004,13.004,13.004c2.604,0,316.447,0,324.442,0c7.181,0,13.002-5.821,13.002-13.004v-78.019  C431.224,383.272,400.661,352.705,362.952,352.705z"/>
<path style="fill:#81AA39;" d="M101.38,498.997v-78.019c0-37.705,30.568-68.272,68.273-68.272H149.05  c-37.705,0-68.273,30.568-68.273,68.272v78.019c0,7.183,5.82,13.004,13.004,13.004h20.604  C107.201,512,101.38,506.179,101.38,498.997z"/>
<g>
	<path style="fill:#F9D7AF;" d="M372.32,473.42V512h45.903c7.181,0,13.002-5.821,13.002-13.004V473.42L372.32,473.42L372.32,473.42z   "/>
	<path style="fill:#F9D7AF;" d="M139.685,473.42V512H93.782c-7.181,0-13.004-5.821-13.004-13.004V473.42L139.685,473.42   L139.685,473.42z"/>
</g>
<path style="fill:#F2C497;" d="M101.38,498.997V473.42H80.778v25.577c0,7.183,5.823,13.004,13.004,13.004h20.603  C107.201,512,101.38,506.179,101.38,498.997z"/>
<g>
	<path style="fill:#81AA39;" d="M372.32,444.669c-4.268,0-7.727,3.459-7.727,7.727V512h15.453v-59.605   C380.047,448.128,376.586,444.669,372.32,444.669z"/>
	<path style="fill:#81AA39;" d="M147.412,512v-59.605c0-4.268-3.459-7.727-7.727-7.727c-4.268,0-7.727,3.459-7.727,7.727V512   H147.412z"/>
</g>
<path style="fill:#FCDEB4;" d="M352.267,174.021c-0.609-0.044-61.393-4.967-89.133-51.713c-4.542-7.466-12.861-7.085-17.015-0.079  c-27.719,46.82-88.571,51.748-89.183,51.792c-1.347,0.098-2.391,1.218-2.391,2.568c0,61.783-1.804,73.355,7.865,96.193  c4.524,10.694,10.734,19.441,11.685,20.441c0.174,0.183,17.353,18.225,17.55,18.384c64.68,52.426,163.015,7.024,163.015-77.773  v-57.245C354.66,175.239,353.616,174.119,352.267,174.021z"/>
<path style="fill:#F4C9A2;" d="M212.25,311.608c-0.197-0.159-17.376-18.201-17.55-18.384c-0.951-1.001-19.55-24.468-19.55-59.391  c0-6.25,0-56.297,0-63.098c-10.664,2.677-18.003,3.271-18.214,3.285c-1.347,0.098-2.391,1.218-2.391,2.568v57.245  c0,21.059,6.559,41.727,19.339,59.138c0.183,0.252,17.616,18.519,17.761,18.637c19.739,15.999,45.938,24.566,73.357,21.737  C245.76,331.36,227.329,323.831,212.25,311.608z"/>
<path style="fill:#FCE3C5;" d="M352.267,174.021c-0.609-0.044-61.393-4.967-89.133-51.713c-0.227-0.373-0.507-0.787-0.803-1.179  c-1.543,57.251,20.792,125.788,67.513,178.668c15.473-17.62,24.815-40.755,24.815-65.963v-57.245  C354.66,175.239,353.616,174.119,352.267,174.021z"/>
<path style="fill:#F2C497;" d="M254.601,236.306c-4.268,0-7.727-3.459-7.727-7.727V211.08c0-4.268,3.459-7.727,7.727-7.727  c4.268,0,7.727,3.459,7.727,7.727v17.499C262.328,232.847,258.869,236.306,254.601,236.306z"/>
<path style="fill:#4F4A4C;" d="M307.399,212.28c0,5.15-4.176,9.325-9.326,9.325l0,0c-5.149,0-9.325-4.175-9.325-9.325l0,0  c0-5.142,4.17-9.325,9.325-9.325C303.223,202.955,307.399,207.132,307.399,212.28L307.399,212.28z"/>
<path style="fill:#A58659;" d="M315.538,199.21c-13.852-6.535-28.051-3.355-28.194-3.322c-4.143,0.965-8.302-1.605-9.28-5.743  c-0.98-4.139,1.552-8.288,5.686-9.286c0.787-0.191,19.468-4.547,38.382,4.376c3.859,1.82,5.512,6.425,3.69,10.284  C324.004,199.372,319.403,201.032,315.538,199.21z"/>
<path style="fill:#4F4A4C;" d="M202.191,212.28c0,5.147,4.169,9.325,9.324,9.325c5.149,0,9.326-4.175,9.326-9.325l0,0  c0-5.148-4.177-9.325-9.326-9.325l0,0C206.364,202.955,202.191,207.132,202.191,212.28L202.191,212.28z"/>
<path style="fill:#A58659;" d="M183.766,195.518c-1.821-3.859-0.169-8.464,3.691-10.284c18.911-8.922,37.596-4.567,38.381-4.376  c4.149,1.001,6.698,5.177,5.696,9.324c-1,4.139-5.157,6.686-9.296,5.703c-0.328-0.073-14.431-3.166-28.186,3.324  C190.179,201.033,185.581,199.369,183.766,195.518z"/>
<path style="fill:#F5F5F5;" d="M293.529,251.819c-83.944,0-78.817-0.426-80.124,0.993c-0.586,0.633-0.88,1.481-0.814,2.341  c1.711,21.762,20.164,38.809,42.01,38.809s40.299-17.047,42.01-38.809C296.752,253.365,295.336,251.819,293.529,251.819z"/>
<path style="fill:#F7414B;" d="M228.054,284.54c15.456,12.56,37.618,12.575,53.096,0C270.642,262.106,238.6,262.013,228.054,284.54z  "/>
<g>
</g>
<g>
</g>
<g>
</g>
<g>
</g>
<g>
</g>
<g>
</g>
<g>
</g>
<g>
</g>
<g>
</g>
<g>
</g>
<g>
</g>
<g>
</g>
<g>
</g>
<g>
</g>
<g>
</g>
</svg>
