<?xml version="1.0" encoding="iso-8859-1"?>
<!-- Generator: Adobe Illustrator 19.0.0, SVG Export Plug-In . SVG Version: 6.00 Build 0)  -->
<svg xmlns="http://www.w3.org/2000/svg" xmlns:xlink="http://www.w3.org/1999/xlink" version="1.1" id="Layer_1" x="0px" y="0px" viewBox="0 0 512 512" style="enable-background:new 0 0 512 512;" xml:space="preserve">
<path style="fill:#A58659;" d="M255.539,0C177.54,0,105.36,61.023,105.36,154.222c-2.808,71.589,48.063,117.025,41.725,163.607  c-0.242,1.768,0.294,3.554,1.469,4.898c2.639,3.024-11.775,2.116,208.14,2.116c3.746,0,6.627-3.308,6.125-7.016  c-2.981-21.913,6.908-44.097,17.382-67.591c19.354-43.405,21.124-55.64,23.921-77.697C417.827,80.405,346.25,0,255.539,0z"/>
<path style="fill:#916B3F;" d="M167.69,317.829c2.982-21.914-6.909-44.099-17.381-67.585  c-18.024-40.428-24.398-58.928-24.398-100.013c0-79.364,61.863-144.541,139.898-149.869C183.15-5.205,105.36,57.64,105.36,154.222  c-2.808,71.589,48.063,117.025,41.725,163.607c-0.242,1.768,0.294,3.554,1.469,4.898c2.391,2.739,3.083,2.116,25.261,2.116  C170.079,324.844,167.184,321.542,167.69,317.829z"/>
<path style="fill:#B79465;" d="M283.507,2.6c-52.881,107.631-28.758,240.464,65.226,322.244h7.962c3.746,0,6.627-3.308,6.125-7.016  c-2.981-21.913,6.908-44.097,17.382-67.591c19.354-43.405,21.124-55.64,23.921-77.697C416.271,90.867,361.093,17.191,283.507,2.6z"/>
<path style="fill:#E7E6ED;" d="M364.62,350.216h-33.531l-30.966-14.28l-4.439-22.421c-6.882,2.156-19.381,7.985-39.685,7.985  c-20.084,0-32.434-5.714-39.685-7.985l-4.437,22.421l-30.968,14.28H147.38c-38.301,0-69.341,31.046-69.341,69.34v79.237  c0,7.294,5.912,13.207,13.206,13.207h329.51c7.292,0,13.206-5.913,13.206-13.207c0-3.21,0-76.514,0-79.237  C433.961,381.262,402.919,350.216,364.62,350.216z"/>
<path style="fill:#D1D1D1;" d="M98.645,498.793v-79.237c0-38.294,31.04-69.34,69.34-69.34H147.38  c-38.301,0-69.341,31.046-69.341,69.34v79.237c0,7.294,5.912,13.207,13.206,13.207h20.604  C104.556,512,98.645,506.087,98.645,498.793z"/>
<path style="fill:#F9D7AF;" d="M300.204,397.268V336.41l-0.326-0.149l-4.429-22.38c-6.978,2.186-19.344,7.97-39.612,7.97  c-19.971,0-32.227-5.651-39.612-7.97c-5.651,28.557-4.429,11.693-4.429,83.601C238.401,414.37,272.922,414.776,300.204,397.268z"/>
<path style="fill:#F2C497;" d="M232.401,319.03c-7.842-1.918-9.989-3.207-16.177-5.15c-5.651,28.557-4.429,11.693-4.429,83.601  c6.335,4.022,13.257,7.205,20.606,9.391V319.03z"/>
<path style="fill:#B0DCF7;" d="M211.796,397.48V512h88.408V397.268C273.634,414.319,239.119,414.826,211.796,397.48z"/>
<path style="fill:#8EC3DD;" d="M232.401,406.871c-7.349-2.185-14.271-5.368-20.606-9.391V512h20.606V406.871z"/>
<g>
	<polygon style="fill:#EFEFEF;" points="211.879,335.936 211.879,512 196.406,512 160.988,423.969 180.911,406.773 167.628,389.618    180.911,350.216  "/>
	<polygon style="fill:#EFEFEF;" points="300.451,335.936 300.451,512 315.921,512 351.34,423.969 331.417,406.773 344.7,389.618    331.417,350.216  "/>
</g>
<g>
	<path style="fill:#FCDEB4;" d="M354.66,160.136c17.426-3.932,33.778,9.331,33.778,26.97c0,17.747-16.49,30.893-33.778,26.967   L354.66,160.136L354.66,160.136z"/>
	<path style="fill:#FCDEB4;" d="M157.01,160.136c-17.395-3.924-33.776,9.302-33.776,26.97c0,17.729,16.47,30.897,33.776,26.967   V160.136z"/>
</g>
<g>
	<path style="fill:#F9D7AF;" d="M354.66,160.136c17.426-3.932,33.778,9.331,33.778,26.97c0,17.747-16.49,30.893-33.778,26.967   L354.66,160.136L354.66,160.136z"/>
	<path style="fill:#F9D7AF;" d="M157.01,160.136c-17.395-3.924-33.776,9.302-33.776,26.97c0,17.729,16.47,30.897,33.776,26.967   V160.136z"/>
</g>
<g>
	<path style="fill:#C2C1C9;" d="M145.646,512v-60.426c0-4.268-3.459-7.727-7.727-7.727c-4.266,0-7.726,3.459-7.726,7.727V512   H145.646z"/>
	<path style="fill:#C2C1C9;" d="M381.48,512v-60.426c0-4.268-3.459-7.727-7.727-7.727c-4.266,0-7.727,3.459-7.727,7.727V512H381.48z   "/>
</g>
<path style="fill:#FCDEB4;" d="M343.207,119.564c-13.025-13.13-32.524-10.182-49.647-3.383  c-67.398,30.829-99.321,11.524-112.681,11.524c-11.359,0-24.899,5.508-24.899,31.741c0,68.428-1.021,73.979,3.789,90.914  c6.212,21.899,19.849,41.342,39.244,54.787c53.901,37.36,129.955,13.369,151.432-50.098c6.638-19.651,5.246-25.559,5.246-101.102  C355.698,153.066,355.725,132.185,343.207,119.564z"/>
<path style="fill:#F4C9A2;" d="M176.585,223.023v-63.576c0-18.854,6.994-27.002,15.145-30.096  c-19.74-5.859-35.751,2.457-35.751,30.096c0,68.428-1.021,73.979,3.789,90.914c12.999,45.825,57.274,77.033,106.367,71.98  C215.646,317.175,176.585,274.576,176.585,223.023z"/>
<path style="fill:#FCE3C5;" d="M293.56,116.182c-1,0.457-15.797,8.266-37.425,13.357c1.92,64.344,26.372,123.029,65.749,168.422  c12.634-11.138,22.762-25.775,28.561-42.91c6.638-19.651,5.246-25.559,5.246-101.102C355.848,136.342,345.841,95.423,293.56,116.182  z"/>
<path style="fill:#F2C497;" d="M255.835,232.317c-4.266,0-7.727-3.459-7.727-7.727v-9.83c0-4.268,3.461-7.727,7.727-7.727  c4.268,0,7.726,3.459,7.726,7.727v9.83C263.561,228.858,260.103,232.317,255.835,232.317z"/>
<path style="fill:#4F4A4C;" d="M303.394,199.874c0,5.22-4.231,9.453-9.453,9.453l0,0c-5.22,0-9.454-4.233-9.454-9.453l0,0  c0-5.218,4.233-9.454,9.454-9.454C299.162,190.42,303.394,194.654,303.394,199.874L303.394,199.874z"/>
<path style="fill:#A58659;" d="M284.326,166.805c0.752-0.32,18.683-7.759,39.038-1.979c4.107,1.166,6.489,5.439,5.322,9.544  c-1.165,4.106-5.438,6.489-9.544,5.322c-14.971-4.253-28.678,1.295-28.815,1.353C280.821,184.967,275.068,170.73,284.326,166.805z"/>
<path style="fill:#F2C497;" d="M228.702,265.55c-3.543-2.38-4.484-7.181-2.106-10.723c2.381-3.542,7.182-4.483,10.723-2.104  c10.549,7.082,26.474,7.093,37.039,0c3.541-2.38,8.343-1.438,10.721,2.104c2.381,3.542,1.439,8.343-2.104,10.723  C267.211,276.14,244.449,276.128,228.702,265.55z"/>
<path style="fill:#4F4A4C;" d="M208.28,199.874c0,5.219,4.232,9.453,9.454,9.453c5.22,0,9.453-4.233,9.453-9.453l0,0  c0-5.22-4.233-9.454-9.453-9.454l0,0C212.513,190.42,208.28,194.654,208.28,199.874L208.28,199.874z"/>
<path style="fill:#A58659;" d="M221,181.043c-0.3-0.123-13.933-5.577-28.813-1.351c-4.104,1.168-8.377-1.216-9.544-5.322  c-1.165-4.104,1.217-8.378,5.322-9.544c20.357-5.781,38.288,1.657,39.04,1.979c3.93,1.666,5.764,6.201,4.098,10.129  C229.45,180.836,224.945,182.695,221,181.043z"/>
<g>
</g>
<g>
</g>
<g>
</g>
<g>
</g>
<g>
</g>
<g>
</g>
<g>
</g>
<g>
</g>
<g>
</g>
<g>
</g>
<g>
</g>
<g>
</g>
<g>
</g>
<g>
</g>
<g>
</g>
</svg>
