<?xml version="1.0" encoding="iso-8859-1"?>
<!-- Generator: Adobe Illustrator 19.0.0, SVG Export Plug-In . SVG Version: 6.00 Build 0)  -->
<svg xmlns="http://www.w3.org/2000/svg" xmlns:xlink="http://www.w3.org/1999/xlink" version="1.1" id="Layer_1" x="0px" y="0px" viewBox="0 0 511.999 511.999" style="enable-background:new 0 0 511.999 511.999;" xml:space="preserve">
<path style="fill:#B0DCF7;" d="M443.034,271.12c66.797-100.666,34.943-234.621-63.08-265.216  c-12.908-2.116-17.546,7.176-17.546,7.176l0,0l-26.522,59.616h67.791l-83.125,131.548l18.561-91.196h-75.054l29.335-89.956v-0.004  c5.187-15.905-7.129-11.992-10.085-10.856c-9.363,4.002-18.49,8.928-27.247,14.738C174.755-26.979,78.098,2.644,44.797,92.327  c-29.79,78.014,1.845,180.473,75.382,231.435c-15.215,117.441,45.896,221.825,64.44,177.848c5.841-14.268,4.446-35.97,5.214-49.296  c1.376-26.346,7.801-42.757,8.076-43.757c11.959-34.371,44.92-49.058,78.093-39.088l0.012,0.008  c0.358,0.107,0.707,0.216,1.061,0.322c49.899,16.675,44.936,88.883,45.871,106.565c5.098,96.382,86.315-19.001,69.004-152.602  c12.609-8.738,24.908-19.774,36.175-32.832"/>
<path style="fill:#7AC1DD;" d="M138.994,320.24c0.427-4.614-1.781-8.804-4.859-10.873l0.004-0.002  C28.582,229.856,29.035,68.607,120.572,10.155C5.016,59.181,5.048,243.977,120.178,323.762  c-15.511,119.719,48.218,225.306,65.253,175.659C161.368,485.096,129.794,406.416,138.994,320.24z"/>
<path style="fill:#BBE6FC;" d="M379.954,5.904c-12.908-2.116-17.546,7.176-17.546,7.176l-26.522,59.616h67.791l-83.125,131.548  l18.561-91.196h-75.054l29.335-89.956v-0.004c5.187-15.905-7.129-11.992-10.085-10.856c-9.363,4.002-18.49,8.928-27.247,14.738  c-0.402-0.268-0.811-0.523-1.216-0.787c-27.89,120.679,29.649,243.054,137.362,299.725c-0.087-0.715-0.169-1.43-0.262-2.145  C511.901,240.634,505.082,44.959,379.954,5.904z"/>
<g>
</g>
<g>
</g>
<g>
</g>
<g>
</g>
<g>
</g>
<g>
</g>
<g>
</g>
<g>
</g>
<g>
</g>
<g>
</g>
<g>
</g>
<g>
</g>
<g>
</g>
<g>
</g>
<g>
</g>
</svg>
