<?xml version="1.0" encoding="iso-8859-1"?>
<!-- Generator: Adobe Illustrator 19.0.0, SVG Export Plug-In . SVG Version: 6.00 Build 0)  -->
<svg xmlns="http://www.w3.org/2000/svg" xmlns:xlink="http://www.w3.org/1999/xlink" version="1.1" id="Layer_1" x="0px" y="0px" viewBox="0 0 512 512" style="enable-background:new 0 0 512 512;" xml:space="preserve">
<path style="fill:#B0DCF7;" d="M437.996,154.214c-0.002,0.09-0.012,0.179-0.015,0.269l-0.709-1.526  c-30.422-51.172-92.306-69.19-149.563-38.084c-12.266,5.894-21.305,0-21.305,0c-57.664-31.335-119.368-12.693-149.563,38.084  l-0.707,1.526c-0.004-0.09-0.013-0.179-0.017-0.269c-38.217,66.047-13.644,161.003,51.481,206.148  C157.27,440.12,190.552,511.984,210.171,512c12.412,0.009,13.102-26.451,13.226-38.478c0.272-31.585,7.476-67.222,37.586-76.335  c0.002,0,0.01-0.002,0.01-0.002v-0.002c10.622-3.192,20.945-3.362,32.127,0v0.002c0.022,0.004,0.837,0.256,0.86,0.263  c30.127,10.03,36.751,45.915,36.751,77.792c0,91.543,70.1-3.441,55.785-114.878C451.84,315.079,476.082,220.016,437.996,154.214z"/>
<path style="fill:#7AC1DD;" d="M190.799,354.275c0.497-5.047-2.634-6.854-2.634-6.854l0.021-0.011  c-64.448-47.265-84.945-140.563-48.319-203.868c0.002,0.091,0.013,0.179,0.017,0.27c2.955-6.37,15.906-26.237,37.95-39.677  c-26.014,7.952-47.031,25.35-60.99,48.824l-0.707,1.526c-0.004-0.09-0.013-0.179-0.017-0.269  c-38.218,66.047-13.645,161.002,51.481,206.148c-13.19,101.845,44.67,190.531,54.406,133.991  C206.464,477.663,184.63,426.92,190.799,354.275z"/>
<path style="fill:#BBE6FC;" d="M437.996,154.214c-0.002,0.09-0.012,0.179-0.015,0.269l-0.709-1.526  c-30.422-51.172-92.306-69.19-149.563-38.084c-12.266,5.894-21.305,0-21.305,0c-6.566-3.568-13.184-6.481-19.803-8.779  c-5.348,115.307,53.951,207.492,139.959,254.63c-0.015-0.12-0.029-0.24-0.044-0.361C451.84,315.079,476.082,220.016,437.996,154.214  z"/>
<path style="fill:#CDE8F7;" d="M128.991,120.894c11.495-15.852,30.688-25.28,51.468-23.39c0.391-16.398-13.231-31.402-31.158-31.402  C120.348,66.103,107.238,102.179,128.991,120.894z"/>
<path style="fill:#ACD6E8;" d="M159.625,67.861c-32.787-11.505-56.312,30.942-30.634,53.034c3.359-4.633,7.405-8.731,11.976-12.171  C134.447,92.249,142.99,73.702,159.625,67.861z"/>
<circle style="fill:#CDE8F7;" cx="73.183" cy="138.444" r="17.291"/>
<path style="fill:#ACD6E8;" d="M81.826,123.486c-11.511-6.674-25.936,1.673-25.936,14.957c0,13.27,14.402,21.635,25.936,14.958  C70.303,146.724,70.32,130.153,81.826,123.486z"/>
<circle style="fill:#CDE8F7;" cx="187.876" cy="22.548" r="22.527"/>
<path style="fill:#ACD6E8;" d="M199.138,3.044c-14.934-8.642-33.79,2.138-33.79,19.505c0,17.372,18.857,28.145,33.79,19.503  C184.128,33.367,184.135,11.725,199.138,3.044z"/>
<path style="fill:#CDE8F7;" d="M226.618,172.44c-5.586,14.83-17.167,26.715-31.79,32.713c1.385,15.3,14.24,27.291,29.902,27.291  c16.59,0,30.036-13.447,30.036-30.034C254.767,186.457,242.33,173.416,226.618,172.44z"/>
<path style="fill:#ACD6E8;" d="M235.412,174.343c-2.761-1.05-5.711-1.711-8.793-1.903c-5.586,14.83-17.167,26.715-31.79,32.713  c1.787,19.743,22.004,32.403,40.583,25.33C209.677,220.686,209.65,184.146,235.412,174.343z"/>
<path style="fill:#EBF4F7;" d="M193.998,99.761c-37.252-13.763-76.894,13.882-76.894,53.579c0,31.539,25.569,57.106,57.107,57.106  c31.097,0,56.372-24.86,57.072-55.788C206.77,149.404,189.71,125.697,193.998,99.761z"/>
<path style="fill:#D9EFF9;" d="M137.741,153.34c0-28.025,20.194-51.319,46.821-56.164c-35.205-6.457-67.459,20.591-67.459,56.164  c0,35.484,32.123,62.603,67.427,56.159C157.919,204.64,137.741,181.354,137.741,153.34z"/>
<path style="fill:#F5FDFF;" d="M280.219,81.834L280.219,81.834c-5.105-7.553-12.302-13.57-20.756-17.236l-0.025-0.021  c-12.56-5.336-26.029-5.153-38.144,0l-0.024,0.021c-8.455,3.666-15.651,9.682-20.756,17.236l0,0  c-21.08,31.15,0.767,74.932,39.852,74.932C279.031,156.766,301.464,113.381,280.219,81.834z"/>
<path style="fill:#F2F8F9;" d="M221.163,81.834L221.163,81.834c5.103-7.553,12.3-13.569,20.756-17.236l0.024-0.021  c3.735-1.612,6.387-2.241,8.747-2.809c-8.581-1.995-19.31-1.481-29.396,2.809l-0.024,0.021c-8.455,3.666-15.651,9.682-20.756,17.236  l0,0c-23.684,34.998,6.995,83.261,50.177,73.808C217.348,148.34,202.409,109.549,221.163,81.834z"/>
<g>
</g>
<g>
</g>
<g>
</g>
<g>
</g>
<g>
</g>
<g>
</g>
<g>
</g>
<g>
</g>
<g>
</g>
<g>
</g>
<g>
</g>
<g>
</g>
<g>
</g>
<g>
</g>
<g>
</g>
</svg>
