<?xml version="1.0" encoding="iso-8859-1"?>
<!-- Generator: Adobe Illustrator 19.0.0, SVG Export Plug-In . SVG Version: 6.00 Build 0)  -->
<svg xmlns="http://www.w3.org/2000/svg" xmlns:xlink="http://www.w3.org/1999/xlink" version="1.1" id="Layer_1" x="0px" y="0px" viewBox="0 0 512 512" style="enable-background:new 0 0 512 512;" xml:space="preserve">
<path style="fill:#AA9A79;" d="M428.303,65.983v-0.036h-1.383h-95.878c-7.973,0-242.892,0-245.961,0  c-15.353,0-27.844,12.49-27.844,27.844v390.365c0,15.353,12.49,27.844,27.844,27.844H426.92c15.351,0,27.842-12.489,27.842-27.844  c0-17.135,0-373.44,0-390.365C454.762,78.902,443.014,66.706,428.303,65.983z"/>
<path style="fill:#938265;" d="M77.038,484.156V93.791c0-15.353,12.489-27.844,27.844-27.844H85.083  c-15.353,0-27.844,12.49-27.844,27.844v390.365c0,15.353,12.49,27.844,27.844,27.844h19.799  C89.527,512,77.038,499.51,77.038,484.156z"/>
<path style="fill:#BCA986;" d="M428.303,65.983v-0.036h-1.383h-95.878H251.53c-15.359,136.944,73.959,260.339,203.231,292.186  c0-4.677,0-258.116,0-264.342C454.762,78.902,443.014,66.706,428.303,65.983z"/>
<path style="fill:#D9EFF9;" d="M423.825,468.699c0,6.829-5.536,12.363-12.363,12.363H100.539c-6.828,0-12.363-5.535-12.363-12.363  V109.248c0-6.829,5.536-12.362,12.363-12.362h310.923c6.828,0,12.363,5.534,12.363,12.362L423.825,468.699L423.825,468.699z"/>
<path style="fill:#A8DFF4;" d="M109.004,468.699V109.248c0-6.829,5.536-12.362,12.363-12.362h-20.829  c-6.828,0-12.363,5.534-12.363,12.362v359.451c0,6.829,5.536,12.363,12.363,12.363h20.829  C114.54,481.062,109.004,475.528,109.004,468.699z"/>
<path style="fill:#E6F9FF;" d="M411.462,96.886H249.827c0.239,114.993,72.461,213.07,173.999,251.606V109.248  C423.825,102.419,418.29,96.886,411.462,96.886z"/>
<path style="fill:#C6A875;" d="M318.667,50.481h-22.372V40.318c0-22.253-18.042-40.295-40.295-40.295s-40.295,18.042-40.295,40.295  v10.163h-22.37c-6.836,0-12.375,5.539-12.375,12.375v34.026c0,6.834,5.54,12.374,12.375,12.374h125.332  c6.836,0,12.375-5.541,12.375-12.374V62.856C331.043,56.019,325.503,50.481,318.667,50.481z M256,53.194  c-6.977,0-12.633-5.654-12.633-12.633c0-6.977,5.657-12.631,12.633-12.631c6.977,0,12.633,5.655,12.633,12.631  C268.633,47.539,262.977,53.194,256,53.194z"/>
<path style="fill:#B28B52;" d="M201.565,96.883V62.856c0-6.837,5.54-12.375,12.375-12.375h-20.606  c-6.836,0-12.375,5.539-12.375,12.375v34.026c0,6.834,5.54,12.374,12.375,12.374h20.606  C207.105,109.257,201.565,103.716,201.565,96.883z"/>
<path style="fill:#D6B37F;" d="M318.667,50.481h-22.372V40.318c0-18.452-12.409-33.997-29.335-38.773  c-3.258,8.677-6.089,17.561-8.451,26.635c5.773,1.164,10.124,6.265,10.124,12.381c0,6.979-5.657,12.633-12.633,12.633  c-0.922,0-1.819-0.104-2.686-0.293c-3.082,19.039-4.061,37.744-3.18,56.356h68.533c6.836,0,12.375-5.541,12.375-12.374V62.856  C331.043,56.019,325.503,50.481,318.667,50.481z"/>
<path style="fill:#71BDE2;" d="M299.27,156.99c-13.282-9.495-29.771-8.361-43.27,0.596c-36.471-24.197-71.953,14.354-55.5,55.234  c4.184,10.392,11.012,18.754,19.067,24.339c-4.663,35.996,18.236,69.947,18.577,37.091c0.167-10.361,2.625-21.883,12.504-24.835  c0.002,0,0.004-0.003,0.004-0.003c3.58-1.075,7.018-1.104,10.693,0l0.002,0.003c5.284,1.546,10.393,6.243,12.067,18.47  c0.508,3.781,0.429,7.396,0.465,8.894c0.745,28.158,23.254-3.285,18.551-39.619C319.562,218.352,324.038,175.186,299.27,156.99z"/>
<path style="fill:#52AACC;" d="M234.363,228.063c0-0.001-0.002-0.002-0.002-0.002l0,0c-23.999-22.637-22.745-63.402,2.314-77.593  c-43.685-3.893-55.265,60.238-17.106,86.69c-4.643,35.848,17.152,66.749,18.501,40.914c0.132-2.356-0.302-12.431,2.936-19.679  C237.613,240.845,242.734,235.934,234.363,228.063z"/>
<path style="fill:#B0DCF7;" d="M299.27,156.99c-11.961-8.55-27.917-9.205-42.562,0.149c7.114,30.856,19.531,59.681,36.228,85.48  c-0.107-1.805-0.268-3.626-0.505-5.462C319.562,218.352,324.038,175.186,299.27,156.99z"/>
<g>
	<path style="fill:#71BDE2;" d="M384.081,335.339H165.457c-4.269,0-7.728-3.459-7.728-7.728c0-4.268,3.459-7.727,7.728-7.727   h218.624c4.267,0,7.728,3.459,7.728,7.727C391.809,331.88,388.348,335.339,384.081,335.339z"/>
	<path style="fill:#71BDE2;" d="M384.081,372.978H165.457c-4.269,0-7.728-3.459-7.728-7.727c0-4.269,3.459-7.727,7.728-7.727   h218.624c4.267,0,7.728,3.459,7.728,7.727C391.809,369.519,388.348,372.978,384.081,372.978z"/>
	<path style="fill:#71BDE2;" d="M384.081,410.618H165.457c-4.269,0-7.728-3.459-7.728-7.727c0-4.269,3.459-7.727,7.728-7.727   h218.624c4.267,0,7.728,3.459,7.728,7.727C391.809,407.16,388.348,410.618,384.081,410.618z"/>
	<path style="fill:#71BDE2;" d="M384.081,448.259H165.457c-4.269,0-7.728-3.459-7.728-7.727c0-4.269,3.459-7.727,7.728-7.727   h218.624c4.267,0,7.728,3.459,7.728,7.727C391.809,444.8,388.348,448.259,384.081,448.259z"/>
	<path style="fill:#71BDE2;" d="M139.676,335.339h-10.311c-4.268,0-7.727-3.459-7.727-7.728c0-4.268,3.459-7.727,7.727-7.727h10.311   c4.269,0,7.728,3.459,7.728,7.727C147.404,331.88,143.945,335.339,139.676,335.339z"/>
	<path style="fill:#71BDE2;" d="M139.676,372.978h-10.311c-4.268,0-7.727-3.459-7.727-7.727c0-4.269,3.459-7.727,7.727-7.727h10.311   c4.269,0,7.728,3.459,7.728,7.727C147.404,369.519,143.945,372.978,139.676,372.978z"/>
	<path style="fill:#71BDE2;" d="M139.676,410.618h-10.311c-4.268,0-7.727-3.459-7.727-7.727c0-4.269,3.459-7.727,7.727-7.727h10.311   c4.269,0,7.728,3.459,7.728,7.727C147.404,407.16,143.945,410.618,139.676,410.618z"/>
	<path style="fill:#71BDE2;" d="M139.676,448.259h-10.311c-4.268,0-7.727-3.459-7.727-7.727c0-4.269,3.459-7.727,7.727-7.727h10.311   c4.269,0,7.728,3.459,7.728,7.727C147.404,444.8,143.945,448.259,139.676,448.259z"/>
</g>
<path style="fill:#B28B52;" d="M215.705,40.318v10.163h11.18c7.685,0,9.174-6.223,9.426-9.503c0-1.245,0.024-1.972,0.024-1.972  l0.004,0.005c0.577-18.113,13.107-33.208,29.964-37.653C240.697-5.404,215.705,13.947,215.705,40.318z"/>
<g>
</g>
<g>
</g>
<g>
</g>
<g>
</g>
<g>
</g>
<g>
</g>
<g>
</g>
<g>
</g>
<g>
</g>
<g>
</g>
<g>
</g>
<g>
</g>
<g>
</g>
<g>
</g>
<g>
</g>
</svg>
