<?xml version="1.0" encoding="iso-8859-1"?>
<!-- Generator: Adobe Illustrator 18.0.0, SVG Export Plug-In . SVG Version: 6.00 Build 0)  -->
<!DOCTYPE svg PUBLIC "-//W3C//DTD SVG 1.1//EN" "http://www.w3.org/Graphics/SVG/1.1/DTD/svg11.dtd">
<svg version="1.1" id="Capa_1" xmlns="http://www.w3.org/2000/svg" xmlns:xlink="http://www.w3.org/1999/xlink" x="0px" y="0px"
	 viewBox="0 0 60 60" style="enable-background:new 0 0 60 60;" xml:space="preserve">
<g>
	<path d="M39.062,21.977c1.946,5.992,3.261,6.459,3.617,6.459c0.156,0,0.734-0.118,1.6-1.634c1.543-2.706,2.335-5.688,3.033-8.768
		c-0.047-0.042-0.092-0.087-0.14-0.128c-0.068-0.058-0.138-0.114-0.208-0.169c-0.132-0.105-0.267-0.207-0.405-0.303
		c-0.062-0.044-0.125-0.086-0.189-0.127c-0.152-0.099-0.307-0.194-0.466-0.283c-0.059-0.033-0.118-0.066-0.177-0.097
		c-0.166-0.088-0.336-0.169-0.509-0.246c-0.059-0.026-0.118-0.053-0.178-0.078c-0.174-0.072-0.353-0.136-0.533-0.195
		c-0.065-0.021-0.129-0.044-0.194-0.064c-0.177-0.054-0.359-0.098-0.541-0.139c-0.071-0.016-0.142-0.035-0.214-0.049
		c-0.185-0.037-0.373-0.063-0.563-0.086c-0.07-0.009-0.139-0.022-0.21-0.029C42.526,16.014,42.264,16,42,16
		c-0.341,0-0.677,0.029-1.01,0.071c-0.091,0.012-0.181,0.027-0.271,0.042c-0.272,0.044-0.54,0.101-0.805,0.173
		c-0.06,0.016-0.122,0.029-0.182,0.047c-0.33,0.098-0.653,0.216-0.968,0.357c-0.028,0.012-0.054,0.027-0.082,0.04
		c-0.311,0.143-0.614,0.306-0.907,0.49c-0.009,0.006-0.019,0.011-0.028,0.017c0.209,0.709,0.395,1.424,0.578,2.119
		C38.566,20.279,38.795,21.152,39.062,21.977z"/>
	<path d="M36.291,32.198c-0.271-0.189-0.531-0.392-0.781-0.606c-0.143-0.122-0.28-0.249-0.415-0.377
		c-0.135-0.129-0.264-0.264-0.392-0.4c-0.282-0.3-0.542-0.616-0.783-0.948c-0.071-0.097-0.148-0.19-0.215-0.29
		c-0.124-0.184-0.234-0.376-0.346-0.569c-0.086-0.148-0.169-0.297-0.248-0.449c-0.094-0.183-0.185-0.366-0.268-0.555
		c-0.103-0.234-0.192-0.474-0.276-0.717c-0.063-0.181-0.123-0.361-0.175-0.546c-0.087-0.303-0.16-0.611-0.218-0.925
		c-0.025-0.135-0.043-0.271-0.062-0.407c-0.042-0.298-0.07-0.601-0.086-0.907c-0.004-0.08-0.02-0.157-0.023-0.238
		c-0.262,0.068-0.52,0.153-0.766,0.256c-0.113,0.049-0.185,0.079-0.258,0.103c-0.138,0.049-0.253,0.093-0.347,0.13
		c-0.255,0.1-0.496,0.192-0.826,0.192c-0.289,0-0.551-0.07-0.947-0.188c-0.837-0.247-2.074-0.574-3.152-0.574
		c-0.448,0-0.835,0.056-1.148,0.167c-2.159,0.765-2.799,3.396-2.479,5.518L22.245,31H26c0.553,0,1,0.447,1,1s-0.447,1-1,1h-3.457
		c0.406,2.642,0.907,5.295,1.894,7.679l0.045,0.109c0.078,0.19,0.269,0.654,0.455,0.969c0.101-0.163,0.197-0.385,0.312-0.678
		c0.147-0.379,0.277-0.762,0.408-1.145c0.354-1.037,0.719-2.109,1.4-3.106c1.247-1.825,3.331-2.498,4.949-1.535
		c1.487,0.886,1.909,2.505,2.249,3.806c0.082,0.317,0.163,0.63,0.259,0.924c0.312,0.957,0.55,1.454,0.709,1.712
		c0.014-0.021,0.026-0.044,0.041-0.068c0.611-1.073,0.883-2.308,1.17-3.615l0.106-0.48c0.117-0.522,0.246-1.063,0.379-1.613
		c0.234-0.978,0.476-1.981,0.671-2.988c-0.026-0.013-0.049-0.03-0.075-0.043c-0.381-0.192-0.753-0.399-1.104-0.637
		C36.369,32.26,36.332,32.227,36.291,32.198z"/>
	<path d="M34.081,25.074c0.013,0.098,0.028,0.196,0.045,0.293c0.052,0.305,0.12,0.606,0.206,0.899
		c0.029,0.097,0.062,0.193,0.094,0.289c0.083,0.248,0.18,0.491,0.287,0.728c0.06,0.132,0.122,0.263,0.189,0.391
		c0.102,0.197,0.215,0.388,0.333,0.575c0.111,0.176,0.228,0.345,0.352,0.511c0.119,0.16,0.242,0.317,0.373,0.468
		c0.096,0.111,0.195,0.221,0.297,0.327c0.215,0.221,0.438,0.435,0.679,0.631c0.058,0.048,0.122,0.089,0.181,0.136
		c0.247,0.189,0.503,0.367,0.773,0.528c0.045,0.027,0.089,0.056,0.135,0.082c0.333,0.189,0.68,0.36,1.045,0.504
		C39.979,31.796,40.966,32,42,32c4.411,0,8-3.589,8-8c0-1.466-0.403-2.838-1.095-4.021c-0.652,2.654-1.484,5.349-2.89,7.813
		c-1.015,1.777-2.105,2.643-3.336,2.643c0,0,0,0-0.001,0c-2.618-0.001-4.259-3.965-5.519-7.842c-0.285-0.88-0.531-1.822-0.77-2.732
		c-0.104-0.399-0.211-0.805-0.322-1.21C34.787,20.07,34,21.943,34,24C34,24.364,34.034,24.721,34.081,25.074z"/>
	<path d="M0,3v54h60V3H0z M6,11h9c0.553,0,1,0.447,1,1s-0.447,1-1,1H6c-0.553,0-1-0.447-1-1S5.447,11,6,11z M5,16
		c0-0.553,0.447-1,1-1h17c0.553,0,1,0.447,1,1s-0.447,1-1,1H6C5.447,17,5,16.553,5,16z M11,48H7c-0.553,0-1-0.447-1-1s0.447-1,1-1h4
		c0.553,0,1,0.447,1,1S11.553,48,11,48z M6,43c0-0.553,0.447-1,1-1h1c0.553,0,1,0.447,1,1s-0.447,1-1,1H7C6.447,44,6,43.553,6,43z
		 M12,44h-1c-0.553,0-1-0.447-1-1s0.447-1,1-1h1c0.553,0,1,0.447,1,1S12.553,44,12,44z M16.71,47.71C16.52,47.89,16.26,48,16,48
		s-0.521-0.11-0.71-0.29C15.109,47.52,15,47.27,15,47c0-0.271,0.109-0.521,0.29-0.71c0.38-0.37,1.04-0.37,1.42,0
		C16.89,46.479,17,46.74,17,47C17,47.27,16.89,47.52,16.71,47.71z M16,44h-1c-0.553,0-1-0.447-1-1s0.447-1,1-1h1
		c0.553,0,1,0.447,1,1S16.553,44,16,44z M38.864,36.424c-0.13,0.541-0.257,1.07-0.372,1.584l-0.104,0.472
		c-0.307,1.396-0.624,2.84-1.386,4.177c-0.487,0.854-1.083,1.286-1.771,1.286c-1.358-0.001-2.062-1.588-2.619-3.302
		c-0.107-0.331-0.199-0.681-0.292-1.037c-0.285-1.094-0.555-2.126-1.337-2.592c-0.2-0.12-0.398-0.178-0.604-0.178
		c-0.55,0-1.206,0.44-1.671,1.122c-0.528,0.772-0.835,1.671-1.159,2.623c-0.139,0.41-0.279,0.82-0.438,1.227
		c-0.257,0.658-0.645,1.652-1.735,2.115L25.189,44h-0.203c-1.346,0-1.977-1.535-2.354-2.452l-0.043-0.104
		c-1.111-2.684-1.638-5.583-2.07-8.444h-4.621c-0.465,2.279-2.484,4-4.899,4c-2.757,0-5-2.243-5-5s2.243-5,5-5
		c2.414,0,4.434,1.721,4.899,4h4.325l-0.123-0.836c-0.451-3.004,0.545-6.55,3.79-7.699c0.529-0.188,1.14-0.282,1.816-0.282
		c1.322,0,2.682,0.351,3.718,0.656c0.193,0.057,0.311,0.096,0.403,0.106c-0.047-0.006,0.007-0.029,0.08-0.058
		c0.111-0.043,0.248-0.097,0.426-0.158l0.136-0.058c0.54-0.223,1.118-0.364,1.7-0.464c0.412-2.263,1.586-4.258,3.248-5.717
		l-0.01-0.03l0.564-0.428c0.042-0.031,0.086-0.058,0.128-0.089c0.161-0.118,0.324-0.234,0.492-0.343
		c0.082-0.053,0.165-0.101,0.248-0.151c0.162-0.098,0.323-0.198,0.491-0.287c0.209-0.111,0.422-0.212,0.637-0.308
		c0.125-0.055,0.251-0.105,0.378-0.155c0.193-0.076,0.386-0.15,0.583-0.214c0.102-0.033,0.206-0.061,0.31-0.091
		c0.195-0.056,0.39-0.108,0.588-0.152c0.104-0.023,0.209-0.045,0.315-0.065c0.211-0.04,0.424-0.071,0.638-0.098
		c0.095-0.012,0.188-0.026,0.283-0.035C41.375,14.019,41.686,14,42,14c0.342,0,0.682,0.018,1.018,0.052
		c0.027,0.003,0.053,0.009,0.08,0.012c2.171,0.236,4.181,1.175,5.782,2.698c0.066,0.062,0.136,0.12,0.2,0.184
		c0.015,0.015,0.031,0.027,0.046,0.042l0.382,0.388l-0.007,0.033C51.051,19.171,52,21.474,52,24c0,5.514-4.486,10-10,10
		c-0.872,0-1.714-0.124-2.521-0.335C39.289,34.602,39.08,35.527,38.864,36.424z M54,50h-4c-0.553,0-1-0.447-1-1s0.447-1,1-1h4
		c0.553,0,1,0.447,1,1S54.553,50,54,50z M54,46h-8c-0.553,0-1-0.447-1-1s0.447-1,1-1h8c0.553,0,1,0.447,1,1S54.553,46,54,46z M54,42
		h-4c-0.553,0-1-0.447-1-1s0.447-1,1-1h4c0.553,0,1,0.447,1,1S54.553,42,54,42z"/>
</g>
<g>
</g>
<g>
</g>
<g>
</g>
<g>
</g>
<g>
</g>
<g>
</g>
<g>
</g>
<g>
</g>
<g>
</g>
<g>
</g>
<g>
</g>
<g>
</g>
<g>
</g>
<g>
</g>
<g>
</g>
</svg>
