<?xml version="1.0" encoding="iso-8859-1"?>
<!-- Generator: Adobe Illustrator 19.0.0, SVG Export Plug-In . SVG Version: 6.00 Build 0)  -->
<svg version="1.1" id="Capa_1" xmlns="http://www.w3.org/2000/svg" xmlns:xlink="http://www.w3.org/1999/xlink" x="0px" y="0px"
	 viewBox="0 0 496 496" style="enable-background:new 0 0 496 496;" xml:space="preserve">
<g>
	<g>
		<g>
			<path d="M442.776,312c-15.856,0-31.008,7.576-40.528,20.264l-4.8,6.4l-4.8-6.4c-5.144-6.864-11.968-12.16-19.632-15.64
				c-15.184-17.824-23.576-40.384-23.576-63.848V216v-93.4c0-32.392-19.832-61.176-49.752-72.84C288.024,19.832,259.232,0,226.84,0
				h-21.4c-79.4,0-144,64.6-144,144v72v36.776c0,30.112-13.488,58.168-37,76.984l-4.008,3.2l1.248,4.984
				c2.584,10.312,11.904,27.776,30.36,34.88c-10.432,10.84-18.496,24.024-23.104,38.784L2.56,496h346.88v-0.248
				c1.048,0.144,2.112,0.248,3.184,0.248c11.32,0,20.944-7.72,23.4-18.776l9.744-43.872C387,427.848,391.8,424,397.44,424
				s10.44,3.848,11.664,9.352l9.744,43.872C421.304,488.28,430.936,496,442.256,496c10.04,0,19.096-6.336,22.528-15.784l15.416-42.4
				c8.784-24.16,13.24-49.44,13.24-75.152C493.44,334.728,470.712,312,442.776,312z M77.44,144c0-70.576,57.424-128,128-128h21.4
				c26.816,0,50.528,17.088,59.008,42.528l1.264,3.792l3.792,1.264c25.44,8.48,42.528,32.192,42.528,59.008V184.2
				c-4.672-3.536-10.056-6.184-16-7.392v-21.032c0-25.12-13.96-47.704-36.424-58.936l-4.152-2.072l-3.864,2.576
				C258.616,106.936,241.88,112,224.6,112h-83.16c-26.472,0-48,21.528-48,48v16.808c-5.944,1.216-11.328,3.856-16,7.392V144z
				 M333.44,216c0,10.536-6.872,19.416-16.336,22.632c0.128-2.208,0.336-4.392,0.336-6.632v-38.528
				C326.728,196.784,333.44,205.584,333.44,216z M238.616,218.992c-21.832-3.968-44.536-3.968-66.344,0l-62.832,11.424V160
				c0-17.648,14.352-32,32-32h83.16c18.808,0,37.072-5.072,53.12-14.704c14.736,9.04,23.72,24.936,23.72,42.48v74.64
				L238.616,218.992z M300.232,246.456C293.224,292.536,253.448,328,205.44,328s-87.784-35.464-94.792-81.544l64.488-11.72
				c19.928-3.632,40.672-3.632,60.624,0L300.232,246.456z M93.44,193.472V232c0,2.24,0.208,4.424,0.336,6.632
				C84.312,235.416,77.44,226.536,77.44,216C77.44,205.584,84.152,196.784,93.44,193.472z M38.816,338.568
				c24.616-21.76,38.624-52.712,38.624-85.792V247.8c5.312,4.024,11.608,6.688,18.512,7.648c6.704,31.328,26.568,57.776,53.488,73.4
				v8.288l-41.304,6.352c-14.856,2.288-28.72,8.016-40.768,16.312C50,358.784,41.896,345.712,38.816,338.568z M152.368,352.872
				l37.864,94.656L141.968,429.6l29.792-22.344L127.4,380.64l10.2-25.496L152.368,352.872z M197.44,480h-94.936l6.872-55.008
				l-15.872-1.984L86.376,480H24.32l19.888-63.624c9.344-29.904,35.392-52.312,66.36-57.072l8.672-1.336l-11.752,29.384
				l35.64,21.384l-34.208,25.656l88.52,32.888V480z M165.44,342.456v-5.968c12.44,4.784,25.896,7.512,40,7.512s27.56-2.728,40-7.512
				v5.968l-40,100L165.44,342.456z M308.376,480H213.44v-10.584l26.976-10.784l-5.944-14.856l-14.664,5.864l38.704-96.768
				l14.768,2.272l10.2,25.496l-44.36,26.616l30.128,22.6l-18.784,7.512l5.944,14.856l45.216-18.088l-33.872-25.4l35.272-21.16
				c1.4,12.288,3.808,24.416,7.264,36.312l-8.784,1.096L308.376,480z M302.8,385.856l-11.152-27.888l8.672,1.336
				c0.432,0.064,0.848,0.184,1.28,0.256c-0.064,1.032-0.16,2.056-0.16,3.104C301.44,370.448,301.984,378.176,302.8,385.856z
				 M305.064,343.952c-0.776-0.136-1.536-0.344-2.32-0.464l-41.304-6.352v-8.288c26.92-15.624,46.784-42.072,53.488-73.4
				c6.904-0.96,13.2-3.632,18.512-7.648v4.976c0,21.072,5.784,41.552,16.552,59.328C329.584,312.952,312.28,325.888,305.064,343.952
				z M324.504,480l-2.888-23.112l8.4,23.112H324.504z M465.16,432.352l-15.416,42.4c-1.136,3.136-4.152,5.248-7.488,5.248
				c-3.768,0-6.968-2.568-7.784-6.24l-9.744-43.88C421.856,417,410.632,408,397.44,408c-13.192,0-24.416,9-27.28,21.88
				l-9.744,43.872c-0.816,3.68-4.024,6.248-7.792,6.248c-3.336,0-6.352-2.112-7.496-5.248l-15.416-42.4
				c-8.152-22.4-12.28-45.84-12.28-69.68c0.008-19.12,15.56-34.672,34.672-34.672c10.848,0,21.216,5.184,27.736,13.864l17.6,23.472
				l17.6-23.472c6.512-8.68,16.88-13.864,27.736-13.864c19.112,0,34.664,15.552,34.664,34.664
				C477.44,386.504,473.312,409.952,465.16,432.352z"/>
			<path d="M153.44,160c-11.024,0-20,8.976-20,20s8.976,20,20,20s20-8.976,20-20S164.464,160,153.44,160z M153.44,184
				c-2.208,0-4-1.792-4-4s1.792-4,4-4s4,1.792,4,4S155.648,184,153.44,184z"/>
			<path d="M257.44,160c-11.024,0-20,8.976-20,20s8.976,20,20,20s20-8.976,20-20S268.464,160,257.44,160z M257.44,184
				c-2.208,0-4-1.792-4-4s1.792-4,4-4s4,1.792,4,4S259.648,184,257.44,184z"/>
		</g>
	</g>
</g>
<g>
</g>
<g>
</g>
<g>
</g>
<g>
</g>
<g>
</g>
<g>
</g>
<g>
</g>
<g>
</g>
<g>
</g>
<g>
</g>
<g>
</g>
<g>
</g>
<g>
</g>
<g>
</g>
<g>
</g>
</svg>
