<?xml version="1.0" encoding="iso-8859-1"?>
<!-- Generator: Adobe Illustrator 18.0.0, SVG Export Plug-In . SVG Version: 6.00 Build 0)  -->
<!DOCTYPE svg PUBLIC "-//W3C//DTD SVG 1.1//EN" "http://www.w3.org/Graphics/SVG/1.1/DTD/svg11.dtd">
<svg version="1.1" id="Capa_1" xmlns="http://www.w3.org/2000/svg" xmlns:xlink="http://www.w3.org/1999/xlink" x="0px" y="0px"
	 viewBox="0 0 487.803 487.803" style="enable-background:new 0 0 487.803 487.803;" xml:space="preserve">
<g>
	<path d="M331.552,147.94c-8.489,0-15.395,6.906-15.395,15.395s6.906,15.395,15.395,15.395c8.49,0,15.397-6.906,15.397-15.395
		S340.042,147.94,331.552,147.94z M331.552,170.229c-3.802,0-6.895-3.093-6.895-6.895s3.093-6.895,6.895-6.895
		c3.803,0,6.897,3.093,6.897,6.895S335.354,170.229,331.552,170.229z"/>
	<path d="M161.617,147.94c-8.488,0-15.394,6.906-15.394,15.395s6.906,15.395,15.394,15.395c8.489,0,15.395-6.906,15.395-15.395
		S170.106,147.94,161.617,147.94z M161.617,170.229c-3.801,0-6.894-3.093-6.894-6.895s3.092-6.895,6.894-6.895
		c3.802,0,6.895,3.093,6.895,6.895S165.419,170.229,161.617,170.229z"/>
	<path d="M315.499,217.938c-1.66-1.66-4.351-1.66-6.011,0c-24.536,24.536-43.936,35.478-62.902,35.478
		c-18.965,0-38.365-10.941-62.901-35.478c-1.66-1.66-4.351-1.66-6.011,0c-1.66,1.659-1.66,4.351,0,6.01
		c26.258,26.258,47.512,37.968,68.912,37.968c0.001,0-0.001,0,0.001,0c21.399,0,42.655-11.711,68.912-37.968
		C317.158,222.288,317.158,219.597,315.499,217.938z"/>
	<path d="M340.22,4.511c-35.484,0-69.536,12.672-96.318,35.763c-26.783-23.091-60.835-35.763-96.318-35.763
		C66.206,4.511,0,70.717,0,152.095c0,47.379,22.878,91.997,61.29,119.729c5.904,39.072,21.451,91.11,39.841,133.22
		c15.589,35.696,39.078,78.248,62.453,78.248c36.568,0,46.434-65.973,57.859-142.362c0.814-5.443,1.633-10.919,2.476-16.464
		c1.359-9.925,9.951-17.41,19.985-17.41c10.304,0,18.925,7.71,20.053,17.935c0.02,0.183,0.052,0.361,0.094,0.538
		c0.818,5.379,1.621,10.749,2.419,16.085c11.368,76.023,21.186,141.679,57.748,141.679c23.376,0,46.864-42.551,62.453-78.247
		c18.39-42.11,33.937-94.148,39.84-133.221c38.413-27.732,61.291-72.351,61.291-119.729C487.803,70.717,421.597,4.511,340.22,4.511z
		 M420.128,265.937c-0.957,0.673-1.593,1.71-1.761,2.867c-2.82,19.457-7.806,41.078-14.179,62.787h-71.974
		c-2.347,0-4.25,1.902-4.25,4.25c0,2.348,1.903,4.25,4.25,4.25h69.409c-2.452,7.914-5.077,15.8-7.833,23.564h-19.398
		c-2.347,0-4.25,1.902-4.25,4.25c0,2.348,1.903,4.25,4.25,4.25h16.31c-20.678,55.585-47.647,102.637-66.481,102.637
		c-29.239,0-39.003-65.301-49.342-134.435c-0.816-5.461-1.639-10.957-2.476-16.464c-0.012-0.076-0.025-0.151-0.041-0.227
		c-1.779-14.343-13.943-25.11-28.456-25.11c-14.262,0-26.474,10.644-28.398,24.694c-0.835,5.489-1.655,10.973-2.47,16.423
		c-4.725,31.59-9.33,62.38-15.696,86.572h-31.328c-2.347,0-4.25,1.902-4.25,4.25c0,2.348,1.903,4.25,4.25,4.25h28.928
		c-7.355,24.267-17.021,40.047-31.357,40.047c-30.426,0-82.088-122.782-94.148-205.988c-0.168-1.157-0.805-2.194-1.761-2.867
		C30.621,239.88,8.5,197.322,8.5,152.095c0-76.691,62.393-139.084,139.083-139.084c34.641,0,67.833,12.814,93.462,36.084
		c0.01,0.009,0.021,0.015,0.031,0.023c0.008,0.007,0.013,0.016,0.02,0.022c3.386,3.076,6.652,6.352,9.71,9.735
		c0.839,0.929,1.995,1.4,3.155,1.4c1.016,0,2.035-0.362,2.848-1.097c1.741-1.573,1.878-4.261,0.304-6.003
		c-2.202-2.436-4.512-4.813-6.889-7.114c25.121-21.343,56.894-33.052,89.996-33.052c76.69,0,139.083,62.393,139.083,139.084
		C479.303,197.322,457.181,239.88,420.128,265.937z"/>
	<path d="M81.508,234.069c-29.33-20.625-46.839-54.311-46.839-90.109c0-2.348-1.903-4.25-4.25-4.25c-2.347,0-4.25,1.902-4.25,4.25
		c0,38.563,18.86,74.848,50.45,97.063c0.744,0.523,1.597,0.773,2.441,0.773c1.337,0,2.653-0.629,3.48-1.806
		C83.89,238.07,83.428,235.42,81.508,234.069z"/>
	<path d="M418.568,72.356h-21.345V51.011c0-2.348-1.903-4.25-4.25-4.25c-2.347,0-4.25,1.902-4.25,4.25v21.346h-21.345
		c-2.347,0-4.25,1.902-4.25,4.25c0,2.348,1.903,4.25,4.25,4.25h21.345v20.023c0,2.348,1.903,4.25,4.25,4.25
		c2.347,0,4.25-1.902,4.25-4.25V80.856h21.345c2.347,0,4.25-1.902,4.25-4.25C422.818,74.259,420.916,72.356,418.568,72.356z"/>
	<path d="M291.318,367.905c0,2.348,1.903,4.25,4.25,4.25h38.645c2.347,0,4.25-1.902,4.25-4.25c0-2.348-1.903-4.25-4.25-4.25h-38.645
		C293.221,363.655,291.318,365.558,291.318,367.905z"/>
</g>
<g>
</g>
<g>
</g>
<g>
</g>
<g>
</g>
<g>
</g>
<g>
</g>
<g>
</g>
<g>
</g>
<g>
</g>
<g>
</g>
<g>
</g>
<g>
</g>
<g>
</g>
<g>
</g>
<g>
</g>
</svg>
