<?xml version="1.0" encoding="iso-8859-1"?>
<!-- Generator: Adobe Illustrator 19.0.0, SVG Export Plug-In . SVG Version: 6.00 Build 0)  -->
<svg version="1.1" id="Capa_1" xmlns="http://www.w3.org/2000/svg" xmlns:xlink="http://www.w3.org/1999/xlink" x="0px" y="0px"
	 viewBox="0 0 511.999 511.999" style="enable-background:new 0 0 511.999 511.999;" xml:space="preserve">
<g>
	<g>
		<path d="M473.152,149.433c-14.058-14.058-35.172-16.845-52.042-8.387l-54.171-54.171c0.609-3.872,0.932-7.817,0.932-11.812
			c0-20.045-7.806-38.891-21.981-53.065c-29.33-29.33-76.798-29.332-106.13,0c-5.861,5.861-5.861,15.363,0,21.224
			c16.4,16.4,7.923,55.758-10.613,74.296l-54.887,54.887c-0.288,0.288-0.573,0.578-0.867,0.881
			c-19.532,20.176-14.134,46.098,1.293,61.276c12.863,12.656,33.715,18.664,52.163,9.353l43.983,43.983
			c-21.813,19.95-44.749,26.844-71.058,34.748c-32.43,9.743-69.186,20.786-107.413,59.011l-53.483,53.507
			c-17.594,17.597-17.595,46.072,0.002,63.669c17.558,17.559,46.121,17.55,63.675-0.003l34.201-34.225
			c40.199-40.199,71.618-48.264,102.003-56.064c25.767-6.614,52.411-13.455,78.694-39.738l27.749-27.749
			c0.002-0.002,0.004-0.004,0.006-0.006l127.946-127.946C490.705,195.551,490.705,166.988,473.152,149.433z M354.886,117.269
			l43.38,43.38l-21.225,21.224l-42.447-42.448l11.297-11.297C349.259,124.759,352.255,121.119,354.886,117.269z M355.817,203.096
			l-21.224,21.224l-42.447-42.448l21.224-21.224L355.817,203.096z M217.865,213.705c0,0-0.002,0.001-0.003,0.002
			c-0.001,0.001-0.002,0.002-0.002,0.003l-0.129,0.129c-10.272,10.274-20.826,0.479-21.996-0.671
			c-2.953-2.905-8.94-10.573-0.789-18.993c0.177-0.183,0.356-0.365,0.537-0.545l54.887-54.887
			c13.844-13.844,23.985-34.847,27.128-56.185c2.622-17.809,0.324-33.936-6.494-46.906c16.824-9.347,38.899-7.192,53.663,7.572
			c8.505,8.505,13.19,19.813,13.19,31.841c0,12.028-4.684,23.336-13.19,31.841C319.729,111.842,222.076,209.496,217.865,213.705z
			 M249.698,224.321l21.224-21.224l42.447,42.448l-21.224,21.223L249.698,224.321z M231.294,379.47
			c-32.697,8.393-69.758,17.907-115.767,63.917l-34.201,34.224c-5.866,5.865-15.358,5.866-21.224,0
			c-5.866-5.866-5.866-15.358,0-21.224c0.001-0.001,0.002-0.002,0.002-0.002l53.481-53.505
			c32.876-32.876,64.368-42.338,94.822-51.488c20.799-6.248,42.101-12.655,62.903-26.083c2.23,5.835,5.674,11.191,10.223,15.74
			c3.66,3.66,7.841,6.607,12.372,8.782C274.259,368.433,255.192,373.335,231.294,379.47z M451.928,191.882L323.981,319.827
			c-5.865,5.865-15.357,5.866-21.224,0c-5.851-5.851-5.851-15.373,0-21.224L430.1,171.261l0.603-0.603
			c5.852-5.852,15.373-5.851,21.224,0C457.779,176.509,457.779,186.03,451.928,191.882z"/>
	</g>
</g>
<g>
</g>
<g>
</g>
<g>
</g>
<g>
</g>
<g>
</g>
<g>
</g>
<g>
</g>
<g>
</g>
<g>
</g>
<g>
</g>
<g>
</g>
<g>
</g>
<g>
</g>
<g>
</g>
<g>
</g>
</svg>
