<?xml version="1.0" encoding="iso-8859-1"?>
<!-- Generator: Adobe Illustrator 16.0.0, SVG Export Plug-In . SVG Version: 6.00 Build 0)  -->
<!DOCTYPE svg PUBLIC "-//W3C//DTD SVG 1.1//EN" "http://www.w3.org/Graphics/SVG/1.1/DTD/svg11.dtd">
<svg version="1.1" id="Capa_1" xmlns="http://www.w3.org/2000/svg" xmlns:xlink="http://www.w3.org/1999/xlink" x="0px" y="0px"
	 width="397.053px" height="397.053px" viewBox="0 0 397.053 397.053" style="enable-background:new 0 0 397.053 397.053;"
	 xml:space="preserve">
<g>
	<path d="M366.729,41.666c-20.547-23.405-48.82-36.295-79.625-36.295c-24.068,0-50.1,14.614-69.104,25.285
		c-7.42,4.165-16.637,9.34-19.473,9.642c-2.83-0.297-12.008-5.464-19.393-9.622c-18.967-10.679-44.945-25.305-69.182-25.305
		c-30.801,0-59.08,12.89-79.625,36.295C10.771,63.946,0,93.274,0,124.25c0,44.355,15.66,107.457,41.895,168.795
		c11.67,27.289,24.09,50.865,35.912,68.178c13.998,20.496,25.965,30.459,36.584,30.459c4.66,0,13.197-2.025,18.016-15.582
		c4.777-13.443,9.078-28.887,13.627-45.238c12.113-43.502,27.186-97.643,51.73-97.643h1.525c10.959,0,20.725,9.461,29.857,28.926
		c8.979,19.133,15.797,44.547,22.391,69.125c4.359,16.248,8.477,31.596,13.1,44.795c4.719,13.473,13.154,15.486,17.764,15.49h0.01
		c10.561-0.002,22.518-10.117,36.545-30.924c11.797-17.496,24.24-41.307,35.99-68.857c26.367-61.83,42.107-124.456,42.107-167.524
		C397.053,93.274,386.283,63.946,366.729,41.666z M340.936,285.588c-11.203,26.271-23.48,49.801-34.574,66.252
		c-12.865,19.084-21.061,24.766-23.951,24.174c-0.912-0.186-2.32-2.123-3.389-5.164c-4.43-12.646-8.473-27.717-12.754-43.675
		c-6.77-25.237-13.77-51.335-23.34-71.728c-11.926-25.414-26.199-37.768-43.639-37.768h-1.525
		c-16.789,0-30.729,12.254-42.615,37.463c-9.537,20.227-16.791,46.284-23.807,71.482c-4.477,16.078-8.705,31.266-13.297,44.189
		c-0.873,2.455-2.417,4.924-3.654,5.326c-1.423,0.463-8.252-0.668-24.043-23.789c-11.1-16.252-23.336-39.517-34.451-65.509
		C30.838,228.25,15.272,165.947,15.272,124.248c0-10.056,1.393-20.178,4.078-29.95l14.357,24.897
		c1.965,3.41,6.422,5.886,10.594,5.886c0.529,0,1.045-0.04,1.539-0.12l53.266-8.626c2.041-0.328,3.949,0.253,5.205,1.578
		c1.064,1.125,1.602,2.708,1.506,4.458l-3.021,55.279c-0.107,1.96,0.477,3.717,1.639,4.947c1.459,1.541,3.754,2.126,6.152,1.552
		l42.869-10.264c0.555-0.133,1.123-0.2,1.686-0.2c3.344,0,6.313,2.366,7.059,5.626l6.414,28.015c0.697,3.057,1.293,3.479,1.83,3.479
		c0.803,0,1.193-1.084,1.346-3.746l2.658-46.574c0.125-2.211-0.623-4.336-2.107-5.983c-1.484-1.648-3.52-2.613-5.732-2.717
		l-25.359-1.186c-1.934-0.09-3.645-0.925-4.82-2.349c-1.174-1.424-1.668-3.264-1.389-5.181l8.234-56.481
		c0.303-2.078-0.195-3.991-1.402-5.388c-1.346-1.558-3.412-2.308-5.789-2.046l-54.461,6.108c-2.027,0.229-3.773-0.396-4.881-1.693
		c-0.996-1.169-1.391-2.796-1.105-4.579l8.727-54.551c7.939-2.285,16.48-3.53,25.59-3.53c17.473,0,38.336,8.869,54.133,19.084
		c3.803,2.459,9.752,7.316,14.471,10.926c4.73,3.605,10.426,7.755,16.947,11.661c3.256,1.956,6.662,3.979,10.352,5.573
		c39.571,17.092,73.831,6.501,72.698,4.034c-0.934-2.031-23.967,0.366-47.03-5.85c-12.271-3.305-23.313-8.573-23.394-10.555
		c-0.076-1.929,8.812-6.787,17.246-11.521c17.553-9.855,41.592-23.351,61.729-23.351c59.268,0,94.682,52.542,94.682,103.339
		C381.783,164.686,366.129,226.507,340.936,285.588z"/>
</g>
<g>
</g>
<g>
</g>
<g>
</g>
<g>
</g>
<g>
</g>
<g>
</g>
<g>
</g>
<g>
</g>
<g>
</g>
<g>
</g>
<g>
</g>
<g>
</g>
<g>
</g>
<g>
</g>
<g>
</g>
</svg>
