<?xml version="1.0" encoding="iso-8859-1"?>
<!-- Generator: Adobe Illustrator 19.0.0, SVG Export Plug-In . SVG Version: 6.00 Build 0)  -->
<svg xmlns="http://www.w3.org/2000/svg" xmlns:xlink="http://www.w3.org/1999/xlink" version="1.1" id="Layer_1" x="0px" y="0px" viewBox="0 0 512 512" style="enable-background:new 0 0 512 512;" xml:space="preserve">
<path style="fill:#AA9A79;" d="M187.838,245.918c-36.558,5.985-69.599-22.201-69.599-59.076c0-33.065,26.805-59.872,59.872-59.872  c20.124,0,37.911,9.937,48.769,25.16c21.127-17.675,47.349-24.806,72.539-21.934c-0.863-1.844-1.769-3.665-2.709-5.464  l26.431-26.431c5.059-5.059,5.059-13.26,0-18.32l-38.168-38.168c-5.06-5.059-13.264-5.059-18.32,0l-26.431,26.431  c-7.046-3.697-14.457-6.792-22.171-9.2V21.687c0-7.154-5.799-12.955-12.953-12.955h-53.978c-7.152,0-12.953,5.801-12.953,12.955  v37.359c-7.715,2.409-15.124,5.503-22.171,9.202L89.572,41.817c-5.062-5.061-13.264-5.061-18.322,0L33.083,79.983  c-5.058,5.061-5.058,13.262,0,18.32l26.431,26.429c-3.697,7.046-6.791,14.456-9.199,22.173h-37.36  C5.799,146.904,0,152.702,0,159.856v53.975c0,7.154,5.799,12.955,12.953,12.955h37.361c2.407,7.716,5.502,15.124,9.199,22.171  l-26.428,26.426c-5.061,5.061-5.059,13.264-0.002,18.322l38.168,38.168c5.059,5.059,13.26,5.059,18.322,0l26.427-26.431  c7.046,3.697,14.455,6.792,22.171,9.201v37.359c0,7.153,5.801,12.956,12.953,12.956H205.1c7.154,0,12.953-5.803,12.953-12.956  v-17.63C199.657,309.501,188.39,278.079,187.838,245.918z"/>
<path style="fill:#938265;" d="M21.241,213.831l0.002-53.975c0-7.153,5.799-12.953,12.953-12.953H12.955  C5.799,146.904,0,152.702,0,159.856v53.975c0,7.154,5.799,12.955,12.953,12.955h21.243  C27.041,226.786,21.241,220.985,21.241,213.831z"/>
<path style="fill:#C6A875;" d="M198.982,102.077c-54.189-13.277-108.162,27.4-108.162,84.766c0,53.177,47.244,94.104,100.041,86.353  c-1.827-8.94-2.865-18.076-3.023-27.272c-0.001,0-0.001,0-0.002,0c0-0.001,0-0.003,0-0.005  c-50.773,8.16-86.686-46.439-61.408-89.288c22.085-37.696,75.384-39.642,100.451-4.5c0.006-0.005,0.011-0.01,0.018-0.014  l0.001,0.001c7.25-6.063,15.101-10.884,23.303-14.486C238.238,120.157,220.117,107.25,198.982,102.077z"/>
<g>
	<path style="fill:#938265;" d="M151.121,8.732c-7.152,0-12.953,5.801-12.953,12.955c0,13.379,0,23.971,0,37.359   c-7.715,2.409-15.124,5.503-22.171,9.202l4.856,5.125c0.001,0,0.001,0,0.001,0c2.183,2.306,5.512,1.924,8.421,0.57   c0,0,0.001,0,0.002-0.001c12.976-6.636,22.682-7.561,22.682-7.561c1.778-0.314,7.448-1.979,7.448-10.541V21.687   c0-7.154,5.803-12.955,12.956-12.955C172.364,8.732,151.121,8.732,151.121,8.732z"/>
	<path style="fill:#938265;" d="M284.972,41.815c-5.06-5.059-13.264-5.059-18.32,0c-10.002,10.002-16.737,16.737-26.431,26.431   c0,0,3.807,2.138,7.908,5.094l0,0c0,0,4.988,3.745,9.933-1.38c0.001-0.001,0.003-0.002,0.004-0.004   c10.774-11.166,4.957-5.269,28.367-28.679L284.972,41.815z"/>
	<path style="fill:#938265;" d="M159.409,352.002v-25.766c0-7.483-5.639-8.495-5.639-8.495l0.003-0.002   c-5.83-0.85-11.044-2.004-15.605-3.27c0,12.298,0,20.947,0,37.533c0,7.153,5.801,12.956,12.953,12.956h21.244   C165.212,364.957,159.409,359.155,159.409,352.002z"/>
	<path style="fill:#938265;" d="M54.324,293.705c-5.056-5.059-5.058-13.262,0.005-18.322l22.682-22.68   c0-0.001,0.001-0.002,0.002-0.003c2.772-2.773,2.915-5.883,1.647-7.914l0.004-0.001c-9.92-20.629-1.191-17.999-28.349-17.999   c2.407,7.716,5.502,15.124,9.199,22.171l-26.429,26.426c-5.061,5.061-5.059,13.264-0.002,18.322l38.168,38.168   c5.059,5.059,13.26,5.059,18.322,0l1.46-1.461L54.324,293.705z"/>
	<path style="fill:#938265;" d="M54.324,98.302c-5.058-5.059-5.058-13.26,0-18.32l36.708-36.705l-1.46-1.461   c-5.062-5.061-13.264-5.061-18.322,0L33.083,79.983c-5.058,5.061-5.058,13.262,0,18.32l26.431,26.429   c-3.697,7.046-6.791,14.456-9.199,22.173c28.953,0,17.331,3.294,29.025-19.394c1.234-2.565-0.554-4.723-1.118-5.313   C77.991,121.966,54.474,98.453,54.324,98.302z"/>
</g>
<path style="fill:#B28B52;" d="M110.432,186.843c0-43.102,31.721-81.248,77.501-86.734c-50.554-5.867-97.112,33.687-97.112,86.734  c0,53.23,47.219,93.018,97.112,86.731C141.634,267.821,110.432,229.623,110.432,186.843z"/>
<path style="fill:#B0DCF7;" d="M499.809,186.548c-0.032-0.067-1.324-2.761-1.377-2.812c-17.902-35.317-49.656-55.247-90.504-55.03  l0,0c-15.344,0-38.194,6.254-58.57,19.724c-17.215-11.423-40.053-19.724-58.57-19.724l0,0c-41.788-0.223-73.31,21.033-90.503,55.03  c-0.077,0.073-1.714,3.528-1.759,3.622c-28.37,61.347-3.397,140.144,51.441,178.164c-9.193,70.869,20.093,137.687,38.657,137.687  c12.053,0.01,11.807-26.903,12.072-38.514c0.394-15.304,3.145-35.526,11.599-48.275c5.986-9.029,14.856-15.174,22.466-17.462  c0.002,0,0.004,0,0.006-0.003c0.002,0,0.005-0.002,0.005-0.002c9.323-2.803,18.636-3.166,29.172,0c0,0,0.002,0.002,0.004,0.002  c0.002,0.003,0.004,0.003,0.006,0.003c27.831,8.338,34.14,41.95,34.14,70.874c0,83.417,63.725-3.536,50.655-104.31  C505.644,326.077,528.061,245.399,499.809,186.548z"/>
<path style="fill:#7AC1DD;" d="M269.58,355.716c-54.962-38.105-78.557-115.813-52.769-175.199c0.137-0.324,2.838-6.338,3.086-6.586  c7.994-15.767,19.679-29.601,34.805-39.529c-24.334,8.832-42.968,26.699-54.416,49.336c-0.077,0.073-1.714,3.528-1.759,3.622  c-28.37,61.347-3.397,140.144,51.441,178.163c-11.858,91.422,39.47,171.362,49.116,123.22  C281.294,471.803,261.775,415.889,269.58,355.716z"/>
<path style="fill:#BBE6FC;" d="M499.809,186.548c-0.032-0.067-1.324-2.761-1.377-2.812c-26.588-52.452-90.201-74.225-149.074-35.305  c-0.216-0.143-0.438-0.274-0.655-0.414c-34.596,107.316,0.648,228.248,95.141,299.176c6.221-24.309,8.599-53.19,4.905-81.671  C505.654,326.07,528.038,245.35,499.809,186.548z"/>
<path style="fill:#579ADF;" d="M436.969,185.065c-21.099-14.605-56.185-11.159-73.68,5.545c-16.646,15.182-26.02-0.074-36.345-6.215  c-20.594-12.244-50.011-10.708-65.376,0.799c-45.457,33.912-39.702,109.793,13.117,146.758c-2.718,28.357,1.895,64.344,3.382,69.391  c1.906,6.452,11.462,5.631,12.171-1.104c1.819-16.893,9.125-43.545,21.435-60.736c20.645-28.849,55.72-29.113,76.577,1.734  c16.355,24.224,20.192,58.661,20.228,59.003c0.705,6.67,10.242,7.643,12.171,1.104c0.891-3.016,6.349-38.442,3.383-69.391  C478.212,294.178,481.557,215.281,436.969,185.065z"/>
<path style="fill:#3481C6;" d="M294.823,330.221c0.381-9.144-4.022-8.581-13.947-18.672c-22.941-22.718-33.416-57.769-28.141-84.966  c3.732-22.111,15.953-40.23,29.725-49.821c-57.151,9.846-75.913,107.504-7.774,155.19c-2.718,28.357,1.895,64.344,3.382,69.391  c1.005,3.4,4.601,5.174,7.843,4.163c6.494-2.006,2.451-6.691,10.101-32.234C293.391,347.527,294.823,331.416,294.823,330.221z"/>
<path style="fill:#62ACEF;" d="M436.969,185.065c-21.099-14.605-56.185-11.159-73.68,5.545c-8.092,7.38-16.105,8.866-24.923,2.437  c-5.943,42.309-1.906,85.135,11.707,125.096c16.455,0.273,28.882,9.348,38.177,23.094c16.355,24.224,20.192,58.661,20.228,59.003  c0.705,6.67,10.242,7.643,12.171,1.104c0.891-3.016,6.349-38.442,3.383-69.391C478.212,294.178,481.557,215.281,436.969,185.065z"/>
<g>
</g>
<g>
</g>
<g>
</g>
<g>
</g>
<g>
</g>
<g>
</g>
<g>
</g>
<g>
</g>
<g>
</g>
<g>
</g>
<g>
</g>
<g>
</g>
<g>
</g>
<g>
</g>
<g>
</g>
</svg>
