<?xml version="1.0" encoding="iso-8859-1"?>
<!-- Generator: Adobe Illustrator 19.0.0, SVG Export Plug-In . SVG Version: 6.00 Build 0)  -->
<svg xmlns="http://www.w3.org/2000/svg" xmlns:xlink="http://www.w3.org/1999/xlink" version="1.1" id="Layer_1" x="0px" y="0px" viewBox="0 0 512.001 512.001" style="enable-background:new 0 0 512.001 512.001;" xml:space="preserve">
<path style="fill:#AA9A79;" d="M178.664,184.382c0,71.538,0,224.885,0,236.135c0,15.615-2.63,44.105,23.441,69.587  c48.795,47.412,131.23,12.767,131.23-55.438c0-8.146,0-175.278,0-250.283H178.664V184.382z"/>
<path style="fill:#938264;" d="M178.664,184.382c0,75.29,0,240.948,0,250.108c1.583,50.689,43.802,82.822,87.371,76.753  c-37.705-5.038-66.683-37.679-66.683-76.578c0-47.002,0-176.584,0-250.283L178.664,184.382L178.664,184.382z"/>
<path style="fill:#B5A588;" d="M286.795,184.382c12.908,20.99,28.582,40.096,46.541,56.785c0-6.125,0-33.285,0-56.785H286.795z"/>
<path id="SVGCleanerId_0" style="fill:#C6A875;" d="M130.2,139.382c0.003,2.703,0.012,1.723,0.037,2.395H130.2v27.215  c0,10.293,8.346,18.637,18.638,18.637h214.324c10.294,0,18.638-8.344,18.638-18.637v-27.215h-0.036  c0.025-0.672,0.034,0.315,0.037-2.395H130.2z"/>
<g>
	<path id="SVGCleanerId_0_1_" style="fill:#C6A875;" d="M130.2,139.382c0.003,2.703,0.012,1.723,0.037,2.395H130.2v27.215   c0,10.293,8.346,18.637,18.638,18.637h214.324c10.294,0,18.638-8.344,18.638-18.637v-27.215h-0.036   c0.025-0.672,0.034,0.315,0.037-2.395H130.2z"/>
</g>
<path style="fill:#91714D;" d="M150.889,168.991v-27.215h0.036c-0.025-0.672-0.034,0.315-0.037-2.395H130.2c0,0.167,0,0.32,0,0.46  c0,0.016,0,0.029,0,0.045c0,0.119,0,0.231,0.001,0.332c0,0.018,0,0.032,0,0.049c0.001,0.208,0.001,0.38,0.002,0.519  c0,0.024,0,0.043,0,0.065c0.001,0.12,0.002,0.218,0.003,0.292c0,0.021,0,0.036,0.001,0.054c0,0.021,0.001,0.044,0.001,0.061  c0,0,0,0.006,0,0.009c0.004,0.203,0.01,0.178,0.019,0.311l0.001,0.011v0.003c0.003,0.043,0.005,0.099,0.008,0.182l0,0l0,0H130.2  v27.215c0,10.293,8.346,18.637,18.638,18.637h20.688C159.234,187.628,150.889,179.284,150.889,168.991z"/>
<g>
	<path style="fill:#C6A875;" d="M336.955,247.713c-0.354-0.088-35.858-8.861-154.172-38.105c-8.322-2.056-16.73,3.023-18.787,11.342   c-2.055,8.318,3.021,16.73,11.343,18.786c165.714,40.954,155.126,38.558,157.906,38.558c6.969,0,13.305-4.728,15.05-11.796   C350.352,258.179,345.275,249.768,336.955,247.713z"/>
	<path style="fill:#C6A875;" d="M333.245,340.027c-2.78,0,7.808,2.397-157.906-38.558c-8.321-2.057-13.397-10.468-11.343-18.784   c2.057-8.321,10.465-13.399,18.787-11.342l154.172,38.102c8.319,2.056,13.397,10.467,11.34,18.786   C346.55,335.301,340.214,340.027,333.245,340.027z"/>
	<path style="fill:#C6A875;" d="M329.51,401.306l-154.171-38.102c-8.321-2.056-13.397-10.467-11.343-18.785   c2.057-8.319,10.465-13.398,18.787-11.341l154.172,38.103c8.319,2.055,13.397,10.465,11.34,18.786   C346.237,398.303,337.806,403.36,329.51,401.306z"/>
	<path style="fill:#C6A875;" d="M336.955,432.914l-154.172-38.103c-8.322-2.055-16.73,3.022-18.787,11.34   c-2.055,8.319,3.021,16.73,11.343,18.786c8.067,1.994,147.386,36.426,154.171,38.103c8.343,2.053,16.735-3.037,18.785-11.342   C350.352,443.381,345.275,434.97,336.955,432.914z"/>
</g>
<path style="fill:#D3B485;" d="M381.764,141.776c0.025-0.672,0.034,0.315,0.037-2.395H264.618c0.305,0.797,0.59,1.599,0.903,2.395  h-0.02c0.103,0.262,0.215,0.521,0.319,0.783c0.033,0.083,0.062,0.167,0.095,0.25c0.002,0,0.005,0,0.005,0  c6.254,15.716,13.93,30.71,22.88,44.818h74.363c10.294,0,18.638-8.344,18.638-18.637v-26.182v-1.033L381.764,141.776  L381.764,141.776z"/>
<path style="fill:#AA9A79;" d="M443.637,0h-67.801c-75.66,35.475-163.911,35.52-239.672,0h-67.8  c-10.88,0-19.701,8.819-19.701,19.697v103.414c0,10.879,8.821,19.698,19.701,19.698c16.659,0,358.759,0,375.272,0  c10.881,0,19.7-8.819,19.7-19.698V19.697C463.337,8.819,454.518,0,443.637,0z"/>
<path style="fill:#938264;" d="M69.353,123.111V19.697C69.353,8.819,78.173,0,89.053,0H68.365c-10.88,0-19.701,8.819-19.701,19.697  v103.414c0,10.879,8.821,19.698,19.701,19.698h20.688C78.173,142.809,69.353,133.99,69.353,123.111z"/>
<path style="fill:#B5A588;" d="M443.637,0h-67.801c-39.096,18.331-82.7,27.839-128.493,26.471  c-2.323,38.739,3.483,78.402,18.571,116.339c6.267,0,170.292,0,177.723,0c10.881,0,19.7-8.819,19.7-19.698V19.697  C463.337,8.819,454.518,0,443.637,0z"/>
<g>
</g>
<g>
</g>
<g>
</g>
<g>
</g>
<g>
</g>
<g>
</g>
<g>
</g>
<g>
</g>
<g>
</g>
<g>
</g>
<g>
</g>
<g>
</g>
<g>
</g>
<g>
</g>
<g>
</g>
</svg>
