<?xml version="1.0" encoding="iso-8859-1"?>
<!-- Generator: Adobe Illustrator 19.0.0, SVG Export Plug-In . SVG Version: 6.00 Build 0)  -->
<svg xmlns="http://www.w3.org/2000/svg" xmlns:xlink="http://www.w3.org/1999/xlink" version="1.1" id="Layer_1" x="0px" y="0px" viewBox="0 0 512.001 512.001" style="enable-background:new 0 0 512.001 512.001;" xml:space="preserve">
<path style="fill:#F9D7AF;" d="M216.93,323.806c0,10.659,0,19.662,0,29.958h0.007c0.133,21.464,17.566,38.822,39.061,38.822  c21.493,0,38.927-17.357,39.059-38.822h0.008c0-10.873,0-20.172,0-31.186C270.27,333.911,241.774,334.223,216.93,323.806z"/>
<path style="fill:#F2C497;" d="M238.898,353.763h-0.006c0-8.486,0-13.862,0-23.678c-7.657-1.241-15.013-3.366-21.962-6.28  c0,10.659,0,19.662,0,29.958h0.007c0.16,25.861,25.05,44.557,50.043,37.246C250.825,386.287,239.007,371.419,238.898,353.763z"/>
<path style="fill:#64B573;" d="M362.928,352.734c-7.506,0-60.591,0-67.863,0l0,0h-0.008c-0.133,21.463-17.566,38.82-39.059,38.82  c-21.495,0-38.928-17.357-39.061-38.82c-6.479,0-60.763,0-67.87,0c-37.698,0-68.26,30.562-68.26,68.26v78.005  c0,7.182,5.819,13.002,13,13.002c2.604,0,316.388,0,324.383,0c7.181,0,13.002-5.82,13.002-13.002v-78.005  C431.192,383.296,400.633,352.734,362.928,352.734z"/>
<path style="fill:#4B9B56;" d="M101.409,498.999v-78.005c0-37.698,30.562-68.26,68.261-68.26h-20.603  c-37.698,0-68.26,30.562-68.26,68.26v78.005c0,7.182,5.819,13.002,13,13.002h20.602  C107.228,512.001,101.409,506.181,101.409,498.999z"/>
<g>
	<path style="fill:#F9D7AF;" d="M372.295,473.427v38.574h45.894c7.181,0,13.002-5.82,13.002-13.002v-25.572H372.295z"/>
	<path style="fill:#F9D7AF;" d="M139.705,473.427v38.574H93.811c-7.183,0-13.002-5.82-13.002-13.002v-25.572H139.705z"/>
</g>
<path style="fill:#F2C497;" d="M101.409,498.999v-25.572H80.809v25.572c0,7.182,5.819,13.002,13.002,13.002h20.598  C107.228,512.001,101.409,506.181,101.409,498.999z"/>
<g>
	<path style="fill:#F9D7AF;" d="M379.695,205.347c0-15.259-12.368-27.627-27.627-27.627v55.257   C367.327,232.977,379.695,220.609,379.695,205.347z"/>
	<path style="fill:#F9D7AF;" d="M129.503,205.347c0-15.259,12.372-27.627,27.629-27.627v55.257   C141.875,232.977,129.503,220.609,129.503,205.347z"/>
</g>
<path style="fill:#A58659;" d="M380.431,116.393c0.989-22.013-1.366-75.901-47.85-78.63C311.765-0.771,260.453-4.386,217.389,3.444  c-8.156,1.611-66.233,15.096-81.681,74.879c-2.39,11.065-3.848,23.692-4.206,38.071h-0.004c0,0-0.089,3.391-0.089,6.991h0.089  v71.661c4.084-10.153,14.021-17.325,25.636-17.325V149.41c82.496,18.124,150.256-41.37,150.256-41.37  c16.279,31.961,44.68,41.37,44.68,41.37v28.311c14.475,0,26.341,11.129,27.523,25.298h0.998v-86.624L380.431,116.393  L380.431,116.393z"/>
<path style="fill:#916B3F;" d="M154.58,123.384h-0.089c0-3.472,0.089-6.991,0.089-6.991h0.004  c0.358-14.379,1.818-27.005,4.206-38.071c15.448-59.783,73.526-73.268,81.681-74.879c7.841-1.426,15.489-2.428,23.793-2.966  c-71.461-5.08-116.453,31.006-128.557,77.844c-2.39,11.065-3.848,23.692-4.206,38.071h-0.004c0,0-0.089,3.391-0.089,6.991h0.089  v71.661c3.781-9.399,12.581-16.232,23.083-17.197L154.58,123.384L154.58,123.384z"/>
<path style="fill:#B79465;" d="M332.581,37.764c-9.772-18.091-25.937-28.058-43.718-33.125  c-19.195,39.877-28.582,84.599-26.161,131.106c27.539-12.656,44.685-27.706,44.685-27.706c16.279,31.961,44.68,41.37,44.68,41.37  v28.311c14.475,0,26.341,11.129,27.523,25.298h0.998v-86.624h-0.157C381.42,94.381,379.066,40.492,332.581,37.764z"/>
<g>
	<path style="fill:#4B9B56;" d="M372.295,444.682c-4.267,0-7.725,3.457-7.725,7.724V512h15.449v-59.594   C380.02,448.139,376.562,444.682,372.295,444.682z"/>
	<path style="fill:#4B9B56;" d="M147.43,512.001v-59.594c0-4.266-3.46-7.724-7.726-7.724c-4.267,0-7.725,3.457-7.725,7.724v59.594   H147.43z"/>
</g>
<path style="fill:#FCDEB4;" d="M354.437,146.475c-0.271-0.091-27.373-9.362-42.896-39.839c-0.911-1.791-3.273-2.25-4.792-0.921  c-0.503,0.44-50.998,44.036-116.399,44.038c-10.514,0-20.995-1.132-31.155-3.362c-1.928-0.424-3.753,1.047-3.753,3.018  c0,86.186-4.111,106.77,15.276,137.773c3.999,6.593,10.298,14.408,17.488,20.975h0.002c48.474,43.354,122.036,31.562,154.762-23.771  c17.236-29.569,13.586-49.821,13.586-134.976C356.555,148.077,355.703,146.894,354.437,146.475z"/>
<path style="fill:#F4C9A2;" d="M208.809,308.156h-0.002c-19.663-17.958-31.633-42.947-32.708-70.985  c-0.083-2.641-0.096-87.509-0.017-88.127c-16.317-1.598-17.275-3.826-19.488-2.044c-1.649,1.323-1.154-4.154-1.154,86.884  c0,27.188,11.04,54.429,32.765,74.271h0.002c22.764,20.359,50.542,28.559,78.091,25.759  C244.031,331.629,223.732,321.99,208.809,308.156z"/>
<path style="fill:#FCE3C5;" d="M354.437,146.475c-0.271-0.091-27.373-9.362-42.896-39.839c-0.911-1.791-3.273-2.25-4.792-0.921  c-0.29,0.255-17.267,14.911-44.162,27.246c2.716,64.45,28.052,123.04,68.283,168.049c31.808-35.468,25.686-65.878,25.686-151.603  C356.555,148.077,355.703,146.894,354.437,146.475z"/>
<path style="fill:#F5F5F5;" d="M293.519,251.866c-83.926,0-78.798-0.426-80.11,0.993c-0.586,0.633-0.88,1.481-0.811,2.34  c1.71,21.758,20.158,38.802,42.002,38.802c21.842,0,40.289-17.044,42.001-38.802C296.74,253.401,295.321,251.866,293.519,251.866z"/>
<path style="fill:#F2C497;" d="M254.601,238.535c-4.267,0-7.726-3.458-7.726-7.726v-17.496c0-4.267,3.458-7.726,7.726-7.726  c4.265,0,7.726,3.458,7.726,7.726v17.496C262.325,235.076,258.865,238.535,254.601,238.535z"/>
<path style="fill:#4F4A4C;" d="M307.388,207.975c0,5.149-4.172,9.324-9.322,9.324l0,0c-5.147,0-9.323-4.175-9.323-9.324l0,0  c0-5.145,4.172-9.324,9.323-9.324C303.216,198.65,307.388,202.827,307.388,207.975L307.388,207.975z"/>
<path style="fill:#A58659;" d="M278.564,189.795c-1.643-3.923,0.177-8.429,4.094-10.089c0.742-0.314,18.46-7.666,38.572-1.952  c4.103,1.166,6.485,5.438,5.321,9.541c-1.166,4.104-5.439,6.489-9.542,5.321c-14.73-4.183-28.217,1.273-28.351,1.328  C284.732,195.565,280.206,193.724,278.564,189.795z"/>
<path style="fill:#4F4A4C;" d="M201.812,207.975c0,5.146,4.171,9.324,9.323,9.324c5.15,0,9.322-4.175,9.322-9.324l0,0  c0-5.148-4.172-9.324-9.322-9.324l0,0C205.987,198.65,201.812,202.827,201.812,207.975L201.812,207.975z"/>
<path style="fill:#A58659;" d="M220.541,193.943c-0.309-0.126-13.717-5.48-28.349-1.326c-4.102,1.164-8.376-1.217-9.542-5.321  c-1.165-4.103,1.218-8.376,5.321-9.541c20.11-5.715,37.83,1.637,38.576,1.952c3.927,1.666,5.762,6.201,4.096,10.128  C228.982,193.751,224.467,195.589,220.541,193.943z"/>
<path style="fill:#F7414B;" d="M228.057,284.582c15.455,12.559,37.611,12.573,53.086,0  C270.608,262.092,238.582,262.108,228.057,284.582z"/>
<g>
</g>
<g>
</g>
<g>
</g>
<g>
</g>
<g>
</g>
<g>
</g>
<g>
</g>
<g>
</g>
<g>
</g>
<g>
</g>
<g>
</g>
<g>
</g>
<g>
</g>
<g>
</g>
<g>
</g>
</svg>
