<?xml version="1.0" encoding="iso-8859-1"?>
<!-- Generator: Adobe Illustrator 19.0.0, SVG Export Plug-In . SVG Version: 6.00 Build 0)  -->
<svg xmlns="http://www.w3.org/2000/svg" xmlns:xlink="http://www.w3.org/1999/xlink" version="1.1" id="Layer_1" x="0px" y="0px" viewBox="0 0 512.001 512.001" style="enable-background:new 0 0 512.001 512.001;" xml:space="preserve">
<path style="fill:#E7E6ED;" d="M364.591,350.261h-33.524l-29.152-13.444h-91.829l-29.155,13.444h-33.523  c-38.288,0-69.321,31.037-69.321,69.321v79.215c0,7.292,5.911,13.203,13.203,13.203H420.71c7.292,0,13.202-5.911,13.202-13.203  c0-3.209,0-76.493,0-79.215C433.911,381.298,402.88,350.261,364.591,350.261z"/>
<path style="fill:#F9D7AF;" d="M296.479,310.35c-24.871,11.164-54.065,12.046-80.32,0.345c-0.725,1.827-1.246,2.957-1.411,2.874  l-4.237,34.083l45.612,23.237c0.004-0.002,22.178-11.299,45.362-23.11l-4.254-34.21C297.035,313.668,296.773,312.357,296.479,310.35  z"/>
<path style="fill:#F2C497;" d="M243.874,364.647l-9.295-10.208l4.57-36.758c-7.789-1.344-15.507-3.652-22.986-6.985  c-0.095,0.238-0.189,0.469-0.281,0.692c-0.476,1.162-0.836,1.928-1.029,2.126c-0.002,0.002-0.004,0.005-0.005,0.006  c-0.039,0.039-0.074,0.061-0.098,0.049l-4.237,34.083L243.874,364.647z"/>
<path style="fill:#B0DCF7;" d="M256.135,370.888l-44.245-22.258V512h88.549V348.602  C277.563,360.109,256.138,370.886,256.135,370.888z"/>
<path style="fill:#A58659;" d="M324.735,19.856c-85.652-53.713-198.287,7.77-198.287,109.839v43.861  c5.786-10.823,18.145-16.78,30.571-13.971V136.78c0,0,15.259-13.253,20.238-32.063c37.122-14.376,118.426-15.127,157.485,0  c4.979,18.81,20.238,32.063,20.238,32.063v22.805c12.439-2.811,24.793,3.159,30.574,13.976v-43.867  c0-37.24-15.71-70.809-40.863-94.439"/>
<path style="fill:#916B3F;" d="M155.126,129.696c0-66.714,50.418-121.634,115.228-128.763  c-77.197-8.506-143.907,51.884-143.907,128.763v43.861c5.504-10.296,16.916-16.159,28.678-14.323L155.126,129.696L155.126,129.696z"/>
<path style="fill:#B79465;" d="M283.197,3.007c-13.651,27.858-22.645,58.411-25.948,90.654  c49.385,0.183,77.493,11.057,77.493,11.057c4.979,18.81,20.238,32.063,20.238,32.063v22.805  c12.439-2.811,24.793,3.159,30.574,13.976v-43.867C385.554,67.526,341.759,15.517,283.197,3.007z"/>
<g>
	<path style="fill:#F9D7AF;" d="M352.921,155.466c17.38-3.929,33.831,9.283,33.831,27.012c0,17.741-16.466,30.941-33.831,27.01   V155.466z"/>
	<path style="fill:#F9D7AF;" d="M159.079,155.466c-17.373-3.928-33.831,9.277-33.831,27.012c0,17.74,16.466,30.942,33.831,27.01   V155.466z"/>
</g>
<path style="fill:#D1D1D1;" d="M99.112,498.797v-79.215c0-38.283,31.032-69.321,69.321-69.321h-21.024  c-38.288,0-69.321,31.037-69.321,69.321v79.215c0,7.292,5.911,13.203,13.203,13.203h21.025  C105.024,512.001,99.112,506.089,99.112,498.797z"/>
<polygon style="fill:#8EC3DD;" points="232.49,358.994 211.89,348.631 211.89,512.001 232.49,512.001 "/>
<g>
	<polygon style="fill:#F5F5F5;" points="211.89,335.984 211.89,512.001 196.424,512.001 161.013,423.993 180.932,406.803    167.654,389.652 180.932,350.261  "/>
	<polygon style="fill:#F5F5F5;" points="300.114,335.984 300.114,512.001 315.582,512.001 350.991,423.993 331.074,406.803    344.351,389.652 331.074,350.261  "/>
</g>
<path style="fill:#F95565;" d="M267.44,415.656c-8.27,0-14.602,0-22.882,0l-14.939,96.344c16.396,0,36.395,0,52.758,0  L267.44,415.656z"/>
<path style="fill:#EA425B;" d="M244.558,415.656l-14.939,96.344h20.059l14.938-96.344  C253.39,415.656,255.818,415.656,244.558,415.656z"/>
<path style="fill:#FCDEB4;" d="M355.993,135.614c-0.149-0.129-14.955-13.15-19.757-31.292c-0.63-2.369-35.27-12.215-80.237-12.215  c-44.276,0-79.582,9.757-80.236,12.215c-4.794,18.109-19.609,31.163-19.759,31.293c-0.337,0.293-0.531,0.719-0.531,1.166  c0,95.429-1.811,100.4,6.974,122.65c7.318,18.561,19.888,34.404,36.347,45.813c55.936,38.777,134.94,11.735,153.917-55.155  c4.925-17.346,3.814-20.214,3.814-113.31C356.526,136.333,356.331,135.908,355.993,135.614z"/>
<path style="fill:#F4C9A2;" d="M181.781,254.812c-7.064-20.904-5.282-23.157-5.282-151.43c-0.358,0.203-0.629,0.535-0.736,0.94  c-4.794,18.109-19.609,31.163-19.759,31.293c-0.827,0.719-0.531-4.535-0.531,86.955c0,59.594,51.515,106.178,111.034,99.971  C227.286,318.474,194.284,291.765,181.781,254.812z"/>
<path style="fill:#FCE3C5;" d="M336.236,104.323c-0.639-2.402-34.996-12.018-78.812-12.205  c-8.164,75.528,15.323,149.684,64.612,206.286c15.251-13.282,25.581-30.356,30.676-48.313c4.925-17.346,3.814-20.214,3.814-113.31  c0-0.448-0.195-0.873-0.533-1.167C355.843,135.486,341.038,122.464,336.236,104.323z"/>
<g>
	<circle style="fill:#B0DCF7;" cx="303.086" cy="196.067" r="27.78"/>
	<circle style="fill:#B0DCF7;" cx="208.572" cy="196.067" r="27.781"/>
</g>
<path style="fill:#F2C497;" d="M255.999,231.866c-4.266,0-7.725-3.458-7.725-7.725v-9.844c0-4.267,3.459-7.725,7.725-7.725  c4.267,0,7.725,3.458,7.725,7.725v9.844C263.724,228.408,260.266,231.866,255.999,231.866z"/>
<path style="fill:#4F4A4C;" d="M312.928,196.066c0,5.229-4.239,9.468-9.469,9.468l0,0c-5.227,0-9.467-4.239-9.467-9.468l0,0  c0-5.226,4.238-9.469,9.467-9.469C308.688,186.597,312.928,190.838,312.928,196.066L312.928,196.066z"/>
<path style="fill:#A58659;" d="M284.538,139.335c0.755-0.32,18.709-7.769,39.09-1.979c4.106,1.166,6.487,5.438,5.323,9.541  c-1.167,4.104-5.44,6.483-9.541,5.321c-14.961-4.249-28.706,1.284-28.841,1.342C281.044,157.594,275.253,143.272,284.538,139.335z"/>
<path style="fill:#F2C497;" d="M228.829,265.151c-3.541-2.378-4.483-7.179-2.103-10.72c2.38-3.541,7.18-4.484,10.72-2.103  c10.581,7.11,26.551,7.101,37.11,0c3.54-2.38,8.341-1.439,10.72,2.101c2.382,3.542,1.441,8.342-2.1,10.722  C267.43,275.735,244.626,275.767,228.829,265.151z"/>
<path style="fill:#4F4A4C;" d="M198.73,196.066c0,5.228,4.238,9.468,9.468,9.468c5.229,0,9.468-4.239,9.468-9.468l0,0  c0-5.228-4.24-9.469-9.468-9.469l0,0C202.969,186.597,198.73,190.838,198.73,196.066L198.73,196.066z"/>
<path style="fill:#A58659;" d="M221.117,153.571c-0.204-0.084-13.906-5.605-28.87-1.355c-4.103,1.166-8.376-1.218-9.541-5.321  c-1.165-4.103,1.217-8.376,5.322-9.541c20.382-5.786,38.337,1.66,39.091,1.979C236.386,143.265,230.63,157.552,221.117,153.571z"/>
<path style="fill:#8EC3DD;" d="M271.966,198.537c-18.251-9.879-31.268-0.648-31.397-0.554c-3.446,2.514-8.279,1.76-10.793-1.688  c-2.515-3.445-1.761-8.277,1.686-10.793c0.851-0.62,21.124-15.024,47.859-0.554c3.752,2.03,5.149,6.719,3.116,10.471  C280.403,199.179,275.71,200.563,271.966,198.537z"/>
<g>
	<path style="fill:#C2C1C9;" d="M145.624,512.001v-60.519c0-4.267-3.459-7.725-7.725-7.725s-7.725,3.458-7.725,7.725v60.519H145.624   z"/>
	<path style="fill:#C2C1C9;" d="M381.829,512.001v-60.519c0-4.267-3.46-7.725-7.726-7.725c-4.266,0-7.725,3.458-7.725,7.725v60.519   H381.829z"/>
</g>
<path style="fill:#F7414B;" d="M255.999,367.444l-28.682,19.787l17.242,29.455c8.294,0,14.601,0,22.882,0l17.239-29.455  L255.999,367.444z"/>
<path style="fill:#D82E3F;" d="M227.316,387.231l17.242,29.455c22.827,0,17.538,0,19.891,0l-22.965-39.228L227.316,387.231z"/>
<polygon style="fill:#71ADE2;" points="211.89,337.015 255.999,367.444 211.89,397.874 "/>
<polygon style="fill:#589ACC;" points="232.49,351.225 211.89,337.015 211.89,397.874 232.49,383.664 "/>
<polygon style="fill:#71ADE2;" points="300.108,337.015 255.999,367.444 300.108,397.874 "/>
<g>
</g>
<g>
</g>
<g>
</g>
<g>
</g>
<g>
</g>
<g>
</g>
<g>
</g>
<g>
</g>
<g>
</g>
<g>
</g>
<g>
</g>
<g>
</g>
<g>
</g>
<g>
</g>
<g>
</g>
</svg>
