<?xml version="1.0" encoding="iso-8859-1"?>
<!-- Generator: Adobe Illustrator 19.0.0, SVG Export Plug-In . SVG Version: 6.00 Build 0)  -->
<svg xmlns="http://www.w3.org/2000/svg" xmlns:xlink="http://www.w3.org/1999/xlink" version="1.1" id="Layer_1" x="0px" y="0px" viewBox="0 0 512 512" style="enable-background:new 0 0 512 512;" xml:space="preserve">
<path style="fill:#AA9A79;" d="M115.462,0.257l0.018,0.02c-7.783-0.515-13.908-0.252-20.654,0.445  c-5.506,0.621-8.62,2.575-8.62,8.169l3.1,27.678c0.733,6.546,9.002,5.878,9.002,5.878v0.004  c38.728-3.029,75.944,26.427,83.678,65.207c17.213-1.271,34.741,2.887,49.817,12.482C229.471,52.527,170.993,2.131,115.462,0.257z"/>
<path style="fill:#938264;" d="M102.625,17.555l0.019,0.02c-5.17-0.343-10.335-0.321-15.46,0.05l2.121,18.943  c0.733,6.546,9.002,5.878,9.002,5.878v0.004c38.728-3.029,75.944,26.427,83.678,65.207c9.602-0.709,19.297,0.275,28.613,2.945  C198.225,55.556,147.933,19.085,102.625,17.555z"/>
<path style="fill:#B5A588;" d="M231.801,120.14c-0.665-19.306-6.11-38.764-16.26-56.455c-6.775,14.192-12.341,29.066-16.588,44.491  C210.45,109.72,221.681,113.696,231.801,120.14z"/>
<path style="fill:#A89473;" d="M204.313,90.978c-1.969,5.651-3.758,11.386-5.358,17.197c3.808,0.491,8.305,1.472,11.644,2.427  C209.103,103.958,207.006,97.389,204.313,90.978z"/>
<path style="fill:#AD8D63;" d="M511.74,351.45c-11.906-38.685-34.749-79.129-67.336-116.038l-16.258-17.295  c-59.531-59.53-131.261-92.441-190.557-93.125c21.109,16.715,32.132,41.94,30.931,67.817c78.767,4.674,178.76,83.69,223.382,172.115  c4.115,7.48,9.149,5.68,15.363-0.532C513.124,358.531,512.004,352.534,511.74,351.45z"/>
<path style="fill:#9B7B54;" d="M491.902,364.924c3.89,7.072,8.58,5.943,14.652,0.153  c-38.47-102.036-144.255-194.736-245.049-209.395c5.254,11.754,7.602,24.493,7.015,37.127  C347.287,197.483,447.28,276.499,491.902,364.924z"/>
<path style="fill:#AA9A79;" d="M364.212,491.988c6.912,3.605,5.687,8.734-0.785,15.213c-5.867,5.862-11.862,4.74-12.947,4.477  c-119.565-36.805-225.211-165.995-226.458-274.154c16.862,21.273,42.136,32.125,67.816,30.934  C196.51,347.212,275.423,447.172,364.212,491.988z"/>
<path style="fill:#938264;" d="M158.404,262.978c-13.191-5.134-25.042-13.67-34.383-25.455  c1.254,108.743,107.587,237.563,226.458,274.154c5.576,1.355,10.709-1.841,14.528-6.165  C263.507,466.066,173.526,361.535,158.404,262.978z"/>
<path style="fill:#9B7B54;" d="M0.957,93.304c1.137-8.016,7.973-7.162,7.995-7.158l27.68,3.097c6.547,0.733,5.878,9.001,5.878,9.001  h0.002c-3.032,38.743,26.44,75.942,65.21,83.678c-1.275,17.213,2.887,34.741,12.484,49.817  C48.367,229.263-8.107,162.86,0.957,93.304z"/>
<path style="fill:#A58659;" d="M110.285,209.118c-2.374-8.88-3.238-18.082-2.563-27.197c-38.834-7.748-68.237-44.999-65.21-83.678  H42.51c0,0,0.669-8.268-5.878-9.001l-16.426-1.838v0.008C14.262,144.03,54.589,197.313,110.285,209.118z"/>
<path style="fill:#C6A875;" d="M269.405,181.626c-7.481-92.321-138.516-102.311-160.552-13.264  c-1.995,8.038-2.688,15.868-2.315,23.64C112.38,304.888,277.758,287.559,269.405,181.626z"/>
<path style="fill:#B5976D;" d="M129.748,157.647c5.183-19.355,17.337-36.649,35.243-47.949  c-24.331,7.189-44.153,25.218-53.305,49.51c-27.57,72.912,53.754,139.302,119.956,97.738  C170.745,274.744,113.339,219.441,129.748,157.647z"/>
<path style="fill:#D3B485;" d="M199.235,107.145c-14.657,52.437-13.219,108.885,4.616,160.883  c22.029-4.334,40.504-17.324,52.209-34.948C289.299,182.972,258.564,115.321,199.235,107.145z"/>
<path style="fill:#C6A477;" d="M231.642,256.947c-10.624,3.105-21.29,3.932-30.405,3.004c0.836,2.71,1.7,5.406,2.615,8.078  C213.596,266.095,222.826,262.481,231.642,256.947z"/>
<path style="fill:#E5C59A;" d="M210.537,165.488c12.422,12.424,12.422,32.563,0,44.987c-12.423,12.421-32.562,12.421-44.989,0  c-12.421-12.426-12.421-32.563,0-44.987C177.972,153.066,198.114,153.064,210.537,165.488z"/>
<path style="fill:#EFD1AC;" d="M192.119,219.523c26.094-3.353,37.074-35.377,18.418-54.035c-5.632-5.633-12.849-8.7-20.215-9.226  C188.487,177.265,189.009,198.183,192.119,219.523z"/>
<g>
</g>
<g>
</g>
<g>
</g>
<g>
</g>
<g>
</g>
<g>
</g>
<g>
</g>
<g>
</g>
<g>
</g>
<g>
</g>
<g>
</g>
<g>
</g>
<g>
</g>
<g>
</g>
<g>
</g>
</svg>
