<?xml version="1.0" encoding="iso-8859-1"?>
<!-- Generator: Adobe Illustrator 19.0.0, SVG Export Plug-In . SVG Version: 6.00 Build 0)  -->
<svg xmlns="http://www.w3.org/2000/svg" xmlns:xlink="http://www.w3.org/1999/xlink" version="1.1" id="Layer_1" x="0px" y="0px" viewBox="0 0 512 512" style="enable-background:new 0 0 512 512;" xml:space="preserve">
<g>
	<path style="fill:#E8E8E8;" d="M144.18,39.19h-36.666c-4.204,0-7.613-3.407-7.613-7.613c0-4.204,3.408-7.612,7.613-7.612h36.666   c4.204,0,7.613,3.407,7.613,7.612C151.792,35.782,148.384,39.19,144.18,39.19z"/>
	<path style="fill:#E8E8E8;" d="M42.134,156.324C-2.345,87.164,0.022,91.76,0.022,88.608v-41.24   c0-15.696,10.23-23.403,20.312-23.403H40.7c4.204,0,7.613,3.407,7.613,7.612c0,4.205-3.408,7.613-7.613,7.613H20.546   c-2.502,0.161-5.299,1.306-5.299,8.179v39.004l39.692,61.717c2.274,3.535,1.251,8.246-2.285,10.52   C49.12,160.885,44.409,159.861,42.134,156.324z"/>
</g>
<path style="fill:#C6A875;" d="M26.022,346.085c0,54.198,0,143.994,0,146.104c0,7.461,6.047,13.509,13.508,13.509h18.011  c7.46,0,13.508-6.049,13.508-13.509c0-9.982,0-94.275,0-146.104H26.022z"/>
<path style="fill:#B5915D;" d="M59.78,505.497c0.004-0.001,0.008-0.001,0.012-0.002c-6.387-1.074-11.256-6.616-11.256-13.306  c0-2.11,0-91.906,0-146.104H26.022c0,54.198,0,143.994,0,146.104c0,7.46,6.046,13.509,13.508,13.509  C58.371,505.697,58.036,505.789,59.78,505.497z"/>
<path style="fill:#AA9A79;" d="M84.558,182.413v153.475c0,7.461-6.047,13.509-13.508,13.509H26.022  c-7.463,0-13.508-6.049-13.508-13.509V162.527c0-7.46,6.047-13.508,13.508-13.508H71.05c7.462,0,13.508,6.049,13.508,13.508V182.413  "/>
<path style="fill:#A08D70;" d="M48.536,335.888V162.527c0-7.46,6.047-13.508,13.508-13.508H26.022  c-7.463,0-13.508,6.049-13.508,13.508v173.362c0,7.461,6.047,13.509,13.508,13.509h36.022  C54.582,349.397,48.536,343.349,48.536,335.888z"/>
<rect x="12.513" y="182.417" style="fill:#C6A875;" width="72.047" height="133.583"/>
<rect x="12.513" y="182.417" style="fill:#B5915D;" width="36.023" height="133.583"/>
<path style="fill:#B0DCF7;" d="M475.523,102.772c-14.497-15.165-29.988-23.649-37.435-25.986l0.006,0.021  c-38.607-16.347-81.097-8.891-116.017,14.289c-14.971-9.94-31.195-16.903-47.812-20.418c-5.51-0.913-9.148,2.498-9.98,7.361  l-0.002-0.002c-6.235,21.244-30.237,31.599-49.919,21.686c0,0,0,0-0.002,0c-8.993-4.559-10.814,3.739-12.273,5.148  c-9.694,14.525-25.978,24.253-44.582,24.945l0.008,0.023c0,0-8.691-0.212-11.685,6.705c-32.553,69.827-5.298,162.911,60.091,208.247  c-14.796,114.212,54.643,212.839,58.985,130.441c0.724-13.504-3.271-78.831,40.111-91.364c0.003,0,0.015-0.008,0.015-0.008  c11.155-3.359,22.146-3.593,34.09,0l0.01,0.008c12.524,3.606,25.66,14.758,32.679,33.466c0.409,1.158,0.881,2.62,0.881,2.62  c10.527,33.098,3.021,53.832,9.51,74.262c14.044,44.173,69.388-46.276,56.027-149.425  C517.376,289.921,537.582,168.709,475.523,102.772z"/>
<path style="fill:#7AC1DD;" d="M227.304,346.053c0.673-12.684-7.243-18.789-7.243-18.789l0.009-0.01  c-57.641-46.058-82.21-131.54-53.035-198.625c-3.09,0.652-6.271,1.065-9.526,1.187l0.008,0.023c0,0-8.691-0.212-11.685,6.705  c-32.681,70.103-5.083,163.059,60.091,208.247c-13.794,106.475,45.716,199.758,57.307,144.444  C246.156,473.41,222.853,419.937,227.304,346.053z"/>
<path style="fill:#BBE6FC;" d="M475.523,102.772c-14.497-15.165-29.988-23.649-37.435-25.986l0.006,0.021  c-36.771-15.569-77.934-9.771-113.013,12.345c-39.575,117.375,7.168,247.214,114.079,312.153c1.661-17.826,1.604-36.94-0.932-56.512  C517.376,289.921,537.582,168.709,475.523,102.772z"/>
<path style="fill:#DBDADF;" d="M107.513,21.463v20.229c0,8.381-6.794,15.172-15.171,15.172H55.872  c-8.378,0-15.171-6.792-15.171-15.172V21.463c0-8.38,6.794-15.174,15.171-15.174h36.469C100.72,6.288,107.513,13.083,107.513,21.463  z"/>
<path style="fill:#B8BFC1;" d="M92.342,33.18H55.872c-7.793,0-14.207-5.879-15.066-13.443c-0.145,1.28-0.105-0.085-0.105,21.955  c0,8.381,6.794,15.172,15.171,15.172h36.469c8.378,0,15.171-6.792,15.171-15.172c0-22.028,0.04-20.684-0.105-21.955  C106.55,27.302,100.134,33.18,92.342,33.18z"/>
<g>
</g>
<g>
</g>
<g>
</g>
<g>
</g>
<g>
</g>
<g>
</g>
<g>
</g>
<g>
</g>
<g>
</g>
<g>
</g>
<g>
</g>
<g>
</g>
<g>
</g>
<g>
</g>
<g>
</g>
</svg>
