<?xml version="1.0" encoding="UTF-8" standalone="no"?>
<!DOCTYPE svg PUBLIC "-//W3C//DTD SVG 1.1//EN"
 "http://www.w3.org/Graphics/SVG/1.1/DTD/svg11.dtd">
<!-- Generated by graphviz version 2.40.1 (20161225.0304)
 -->
<!-- Title: dependencies Pages: 1 -->
<svg width="1185pt" height="211pt"
 viewBox="0.00 0.00 1185.00 211.00" xmlns="http://www.w3.org/2000/svg" xmlns:xlink="http://www.w3.org/1999/xlink">
<g id="graph0" class="graph" transform="scale(1 1) rotate(0) translate(4 207)">
<title>dependencies</title>
<polygon fill="#ffffff" stroke="transparent" points="-4,4 -4,-207 1181,-207 1181,4 -4,4"/>
<text text-anchor="start" x="567.5091" y="-42.4" font-family="sans-serif" font-weight="bold" font-size="14.00" fill="#000000">Legend</text>
<polygon fill="#ffffb3" stroke="transparent" points="354.5,-10 354.5,-30 374.5,-30 374.5,-10 354.5,-10"/>
<text text-anchor="start" x="378.129" y="-15.4" font-family="sans-serif" font-size="14.00" fill="#000000"> &#160;Declarations</text>
<polygon fill="#8dd3c7" stroke="transparent" points="467.5,-10 467.5,-30 487.5,-30 487.5,-10 467.5,-10"/>
<text text-anchor="start" x="491.2251" y="-15.4" font-family="sans-serif" font-size="14.00" fill="#000000"> &#160;Module</text>
<polygon fill="#80b1d3" stroke="transparent" points="553.5,-10 553.5,-30 573.5,-30 573.5,-10 553.5,-10"/>
<text text-anchor="start" x="577.2812" y="-15.4" font-family="sans-serif" font-size="14.00" fill="#000000"> &#160;Bootstrap</text>
<polygon fill="#fdb462" stroke="transparent" points="650.5,-10 650.5,-30 670.5,-30 670.5,-10 650.5,-10"/>
<text text-anchor="start" x="674.1732" y="-15.4" font-family="sans-serif" font-size="14.00" fill="#000000"> &#160;Providers</text>
<polygon fill="#fb8072" stroke="transparent" points="746.5,-10 746.5,-30 766.5,-30 766.5,-10 746.5,-10"/>
<text text-anchor="start" x="770.2258" y="-15.4" font-family="sans-serif" font-size="14.00" fill="#000000"> &#160;Exports</text>
<g id="clust1" class="cluster">
<title>cluster_ClinicInfoModule</title>
<polygon fill="none" stroke="#000000" stroke-dasharray="1,5" points="8,-70 8,-195 1169,-195 1169,-70 8,-70"/>
</g>
<g id="clust2" class="cluster">
<title>cluster_ClinicInfoModule_declarations</title>
<polygon fill="none" stroke="#000000" points="709,-78 709,-130 1161,-130 1161,-78 709,-78"/>
</g>
<g id="clust6" class="cluster">
<title>cluster_ClinicInfoModule_imports</title>
<polygon fill="none" stroke="#000000" points="407,-78 407,-130 701,-130 701,-78 407,-78"/>
</g>
<g id="clust9" class="cluster">
<title>cluster_ClinicInfoModule_providers</title>
<polygon fill="none" stroke="#000000" points="16,-78 16,-130 399,-130 399,-78 16,-78"/>
</g>
<!-- ClinicInfoComponent -->
<g id="node1" class="node">
<title>ClinicInfoComponent</title>
<polygon fill="#ffffb3" stroke="#000000" points="1153.3767,-122 1014.6233,-122 1014.6233,-86 1153.3767,-86 1153.3767,-122"/>
<text text-anchor="middle" x="1084" y="-99.8" font-family="Times,serif" font-size="14.00" fill="#000000">ClinicInfoComponent</text>
</g>
<!-- ClinicInfoModule -->
<g id="node4" class="node">
<title>ClinicInfoModule</title>
<polygon fill="#8dd3c7" stroke="#000000" points="702.594,-187 699.594,-191 678.594,-191 675.594,-187 585.406,-187 585.406,-151 702.594,-151 702.594,-187"/>
<text text-anchor="middle" x="644" y="-164.8" font-family="Times,serif" font-size="14.00" fill="#000000">ClinicInfoModule</text>
</g>
<!-- ClinicInfoComponent&#45;&gt;ClinicInfoModule -->
<g id="edge1" class="edge">
<title>ClinicInfoComponent&#45;&gt;ClinicInfoModule</title>
<path fill="none" stroke="#000000" d="M1084,-122.2843C1084,-143.3211 1084,-175 1084,-175 1084,-175 712.8838,-175 712.8838,-175"/>
<polygon fill="#000000" stroke="#000000" points="712.8838,-171.5001 702.8838,-175 712.8838,-178.5001 712.8838,-171.5001"/>
</g>
<!-- ClinicComponent -->
<g id="node2" class="node">
<title>ClinicComponent</title>
<polygon fill="#ffffb3" stroke="#000000" points="996.5563,-122 881.4437,-122 881.4437,-86 996.5563,-86 996.5563,-122"/>
<text text-anchor="middle" x="939" y="-99.8" font-family="Times,serif" font-size="14.00" fill="#000000">ClinicComponent</text>
</g>
<!-- ClinicComponent&#45;&gt;ClinicInfoModule -->
<g id="edge2" class="edge">
<title>ClinicComponent&#45;&gt;ClinicInfoModule</title>
<path fill="none" stroke="#000000" d="M939,-122.0225C939,-139.3734 939,-163 939,-163 939,-163 712.6352,-163 712.6352,-163"/>
<polygon fill="#000000" stroke="#000000" points="712.6352,-159.5001 702.6352,-163 712.6352,-166.5001 712.6352,-159.5001"/>
</g>
<!-- ClinicFormComponent -->
<g id="node3" class="node">
<title>ClinicFormComponent</title>
<polygon fill="#ffffb3" stroke="#000000" points="862.8892,-122 717.1108,-122 717.1108,-86 862.8892,-86 862.8892,-122"/>
<text text-anchor="middle" x="790" y="-99.8" font-family="Times,serif" font-size="14.00" fill="#000000">ClinicFormComponent</text>
</g>
<!-- ClinicFormComponent&#45;&gt;ClinicInfoModule -->
<g id="edge3" class="edge">
<title>ClinicFormComponent&#45;&gt;ClinicInfoModule</title>
<path fill="none" stroke="#000000" d="M716.9666,-104C705.7859,-104 697.8791,-104 697.8791,-104 697.8791,-104 697.8791,-140.8939 697.8791,-140.8939"/>
<polygon fill="#000000" stroke="#000000" points="694.3791,-140.8938 697.8791,-150.8939 701.3791,-140.8939 694.3791,-140.8938"/>
</g>
<!-- SharedModule -->
<g id="node5" class="node">
<title>SharedModule</title>
<polygon fill="#8dd3c7" stroke="#000000" points="693.4231,-122 690.4231,-126 669.4231,-126 666.4231,-122 594.5769,-122 594.5769,-86 693.4231,-86 693.4231,-122"/>
<text text-anchor="middle" x="644" y="-99.8" font-family="Times,serif" font-size="14.00" fill="#000000">SharedModule</text>
</g>
<!-- SharedModule&#45;&gt;ClinicInfoModule -->
<g id="edge4" class="edge">
<title>SharedModule&#45;&gt;ClinicInfoModule</title>
<path fill="none" stroke="#000000" d="M644,-122.1061C644,-122.1061 644,-140.991 644,-140.991"/>
<polygon fill="#000000" stroke="#000000" points="640.5001,-140.9909 644,-150.991 647.5001,-140.991 640.5001,-140.9909"/>
</g>
<!-- ClinicInfoRoutingModule -->
<g id="node6" class="node">
<title>ClinicInfoRoutingModule</title>
<polygon fill="#8dd3c7" stroke="#000000" points="577.2119,-122 574.2119,-126 553.2119,-126 550.2119,-122 414.7881,-122 414.7881,-86 577.2119,-86 577.2119,-122"/>
<text text-anchor="middle" x="496" y="-99.8" font-family="Times,serif" font-size="14.00" fill="#000000">ClinicInfoRoutingModule</text>
</g>
<!-- ClinicInfoRoutingModule&#45;&gt;ClinicInfoModule -->
<g id="edge5" class="edge">
<title>ClinicInfoRoutingModule&#45;&gt;ClinicInfoModule</title>
<path fill="none" stroke="#000000" d="M577.4274,-104C585.1216,-104 590.121,-104 590.121,-104 590.121,-104 590.121,-140.8939 590.121,-140.8939"/>
<polygon fill="#000000" stroke="#000000" points="586.621,-140.8938 590.121,-150.8939 593.621,-140.8939 586.621,-140.8938"/>
</g>
<!-- ClinicService -->
<g id="node7" class="node">
<title>ClinicService</title>
<ellipse fill="#fdb462" stroke="#000000" cx="327" cy="-104" rx="63.6967" ry="18"/>
<text text-anchor="middle" x="327" y="-99.8" font-family="Times,serif" font-size="14.00" fill="#000000">ClinicService</text>
</g>
<!-- ClinicService&#45;&gt;ClinicInfoModule -->
<g id="edge6" class="edge">
<title>ClinicService&#45;&gt;ClinicInfoModule</title>
<path fill="none" stroke="#000000" d="M327,-122.0225C327,-139.3734 327,-163 327,-163 327,-163 575.1176,-163 575.1176,-163"/>
<polygon fill="#000000" stroke="#000000" points="575.1177,-166.5001 585.1176,-163 575.1176,-159.5001 575.1177,-166.5001"/>
</g>
<!-- ClinicInfoResolveService -->
<g id="node8" class="node">
<title>ClinicInfoResolveService</title>
<ellipse fill="#fdb462" stroke="#000000" cx="135" cy="-104" rx="110.5897" ry="18"/>
<text text-anchor="middle" x="135" y="-99.8" font-family="Times,serif" font-size="14.00" fill="#000000">ClinicInfoResolveService</text>
</g>
<!-- ClinicInfoResolveService&#45;&gt;ClinicInfoModule -->
<g id="edge7" class="edge">
<title>ClinicInfoResolveService&#45;&gt;ClinicInfoModule</title>
<path fill="none" stroke="#000000" d="M135,-122.2843C135,-143.3211 135,-175 135,-175 135,-175 575.114,-175 575.114,-175"/>
<polygon fill="#000000" stroke="#000000" points="575.114,-178.5001 585.114,-175 575.1139,-171.5001 575.114,-178.5001"/>
</g>
</g>
</svg>
