<?xml version="1.0" encoding="UTF-8" standalone="no"?>
<!DOCTYPE svg PUBLIC "-//W3C//DTD SVG 1.1//EN"
 "http://www.w3.org/Graphics/SVG/1.1/DTD/svg11.dtd">
<!-- Generated by graphviz version 2.40.1 (20161225.0304)
 -->
<!-- Title: dependencies Pages: 1 -->
<svg width="2104pt" height="284pt"
 viewBox="0.00 0.00 2104.00 284.00" xmlns="http://www.w3.org/2000/svg" xmlns:xlink="http://www.w3.org/1999/xlink">
<g id="graph0" class="graph" transform="scale(1 1) rotate(0) translate(4 280)">
<title>dependencies</title>
<polygon fill="#ffffff" stroke="transparent" points="-4,4 -4,-280 2100,-280 2100,4 -4,4"/>
<text text-anchor="start" x="1027.0091" y="-42.4" font-family="sans-serif" font-weight="bold" font-size="14.00" fill="#000000">Legend</text>
<polygon fill="#ffffb3" stroke="transparent" points="814,-10 814,-30 834,-30 834,-10 814,-10"/>
<text text-anchor="start" x="837.629" y="-15.4" font-family="sans-serif" font-size="14.00" fill="#000000"> &#160;Declarations</text>
<polygon fill="#8dd3c7" stroke="transparent" points="927,-10 927,-30 947,-30 947,-10 927,-10"/>
<text text-anchor="start" x="950.7251" y="-15.4" font-family="sans-serif" font-size="14.00" fill="#000000"> &#160;Module</text>
<polygon fill="#80b1d3" stroke="transparent" points="1013,-10 1013,-30 1033,-30 1033,-10 1013,-10"/>
<text text-anchor="start" x="1036.7812" y="-15.4" font-family="sans-serif" font-size="14.00" fill="#000000"> &#160;Bootstrap</text>
<polygon fill="#fdb462" stroke="transparent" points="1110,-10 1110,-30 1130,-30 1130,-10 1110,-10"/>
<text text-anchor="start" x="1133.6732" y="-15.4" font-family="sans-serif" font-size="14.00" fill="#000000"> &#160;Providers</text>
<polygon fill="#fb8072" stroke="transparent" points="1206,-10 1206,-30 1226,-30 1226,-10 1206,-10"/>
<text text-anchor="start" x="1229.7258" y="-15.4" font-family="sans-serif" font-size="14.00" fill="#000000"> &#160;Exports</text>
<g id="clust1" class="cluster">
<title>cluster_SharedModule</title>
<polygon fill="none" stroke="#000000" stroke-dasharray="1,5" points="8,-70 8,-268 2088,-268 2088,-70 8,-70"/>
</g>
<g id="clust2" class="cluster">
<title>cluster_SharedModule_declarations</title>
<polygon fill="none" stroke="#000000" points="41,-78 41,-130 2064,-130 2064,-78 41,-78"/>
</g>
<g id="clust16" class="cluster">
<title>cluster_SharedModule_exports</title>
<polygon fill="none" stroke="#000000" points="16,-208 16,-260 2080,-260 2080,-208 16,-208"/>
</g>
<!-- SecondNavComponent -->
<g id="node1" class="node">
<title>SecondNavComponent</title>
<polygon fill="#ffffb3" stroke="#000000" points="2055.8655,-122 1910.1345,-122 1910.1345,-86 2055.8655,-86 2055.8655,-122"/>
<text text-anchor="middle" x="1983" y="-99.8" font-family="Times,serif" font-size="14.00" fill="#000000">SecondNavComponent</text>
</g>
<!-- SharedModule -->
<g id="node13" class="node">
<title>SharedModule</title>
<polygon fill="#8dd3c7" stroke="#000000" points="1029.4231,-187 1026.4231,-191 1005.4231,-191 1002.4231,-187 930.5769,-187 930.5769,-151 1029.4231,-151 1029.4231,-187"/>
<text text-anchor="middle" x="980" y="-164.8" font-family="Times,serif" font-size="14.00" fill="#000000">SharedModule</text>
</g>
<!-- SecondNavComponent&#45;&gt;SharedModule -->
<g id="edge1" class="edge">
<title>SecondNavComponent&#45;&gt;SharedModule</title>
<path fill="none" stroke="#000000" d="M1916.1923,-122.1686C1916.1923,-141.0898 1916.1923,-168 1916.1923,-168 1916.1923,-168 1039.3437,-168 1039.3437,-168"/>
<polygon fill="#000000" stroke="#000000" points="1039.3438,-164.5001 1029.3437,-168 1039.3437,-171.5001 1039.3438,-164.5001"/>
</g>
<!-- LoadingOverlayComponent -->
<g id="node2" class="node">
<title>LoadingOverlayComponent</title>
<polygon fill="#ffffb3" stroke="#000000" points="1892.5772,-122 1719.4228,-122 1719.4228,-86 1892.5772,-86 1892.5772,-122"/>
<text text-anchor="middle" x="1806" y="-99.8" font-family="Times,serif" font-size="14.00" fill="#000000">LoadingOverlayComponent</text>
</g>
<!-- LoadingOverlayComponent&#45;&gt;SharedModule -->
<g id="edge2" class="edge">
<title>LoadingOverlayComponent&#45;&gt;SharedModule</title>
<path fill="none" stroke="#000000" d="M1723.5864,-122.302C1723.5864,-140.2699 1723.5864,-165 1723.5864,-165 1723.5864,-165 1039.3646,-165 1039.3646,-165"/>
<polygon fill="#000000" stroke="#000000" points="1039.3647,-161.5001 1029.3646,-165 1039.3646,-168.5001 1039.3647,-161.5001"/>
</g>
<!-- FloatingButtonComponent -->
<g id="node3" class="node">
<title>FloatingButtonComponent</title>
<polygon fill="#ffffb3" stroke="#000000" points="1701.1192,-122 1534.8808,-122 1534.8808,-86 1701.1192,-86 1701.1192,-122"/>
<text text-anchor="middle" x="1618" y="-99.8" font-family="Times,serif" font-size="14.00" fill="#000000">FloatingButtonComponent</text>
</g>
<!-- FloatingButtonComponent&#45;&gt;SharedModule -->
<g id="edge3" class="edge">
<title>FloatingButtonComponent&#45;&gt;SharedModule</title>
<path fill="none" stroke="#000000" d="M1647.4365,-122.0225C1647.4365,-139.3734 1647.4365,-163 1647.4365,-163 1647.4365,-163 1039.3493,-163 1039.3493,-163"/>
<polygon fill="#000000" stroke="#000000" points="1039.3493,-159.5001 1029.3493,-163 1039.3492,-166.5001 1039.3493,-159.5001"/>
</g>
<!-- AvatarComponent -->
<g id="node4" class="node">
<title>AvatarComponent</title>
<polygon fill="#ffffb3" stroke="#000000" points="1516.9201,-122 1397.0799,-122 1397.0799,-86 1516.9201,-86 1516.9201,-122"/>
<text text-anchor="middle" x="1457" y="-99.8" font-family="Times,serif" font-size="14.00" fill="#000000">AvatarComponent</text>
</g>
<!-- AvatarComponent&#45;&gt;SharedModule -->
<g id="edge4" class="edge">
<title>AvatarComponent&#45;&gt;SharedModule</title>
<path fill="none" stroke="#000000" d="M1477.6532,-122.027C1477.6532,-138.3976 1477.6532,-160 1477.6532,-160 1477.6532,-160 1039.5363,-160 1039.5363,-160"/>
<polygon fill="#000000" stroke="#000000" points="1039.5363,-156.5001 1029.5363,-160 1039.5362,-163.5001 1039.5363,-156.5001"/>
</g>
<!-- PaginationComponent -->
<g id="node5" class="node">
<title>PaginationComponent</title>
<polygon fill="#ffffb3" stroke="#000000" points="1379.7162,-122 1238.2838,-122 1238.2838,-86 1379.7162,-86 1379.7162,-122"/>
<text text-anchor="middle" x="1309" y="-99.8" font-family="Times,serif" font-size="14.00" fill="#000000">PaginationComponent</text>
</g>
<!-- PaginationComponent&#45;&gt;SharedModule -->
<g id="edge5" class="edge">
<title>PaginationComponent&#45;&gt;SharedModule</title>
<path fill="none" stroke="#000000" d="M1285.464,-122.2396C1285.464,-137.5706 1285.464,-157 1285.464,-157 1285.464,-157 1039.4176,-157 1039.4176,-157"/>
<polygon fill="#000000" stroke="#000000" points="1039.4176,-153.5001 1029.4176,-157 1039.4175,-160.5001 1039.4176,-153.5001"/>
</g>
<!-- ModalActionComponent -->
<g id="node6" class="node">
<title>ModalActionComponent</title>
<polygon fill="#ffffb3" stroke="#000000" points="1219.9846,-122 1064.0154,-122 1064.0154,-86 1219.9846,-86 1219.9846,-122"/>
<text text-anchor="middle" x="1142" y="-99.8" font-family="Times,serif" font-size="14.00" fill="#000000">ModalActionComponent</text>
</g>
<!-- ModalActionComponent&#45;&gt;SharedModule -->
<g id="edge6" class="edge">
<title>ModalActionComponent&#45;&gt;SharedModule</title>
<path fill="none" stroke="#000000" d="M1115.5859,-122.0511C1115.5859,-136.373 1115.5859,-154 1115.5859,-154 1115.5859,-154 1039.3332,-154 1039.3332,-154"/>
<polygon fill="#000000" stroke="#000000" points="1039.3332,-150.5001 1029.3332,-154 1039.3331,-157.5001 1039.3332,-150.5001"/>
</g>
<!-- PatientFormComponent -->
<g id="node7" class="node">
<title>PatientFormComponent</title>
<polygon fill="#ffffb3" stroke="#000000" points="1046.0505,-122 895.9495,-122 895.9495,-86 1046.0505,-86 1046.0505,-122"/>
<text text-anchor="middle" x="971" y="-99.8" font-family="Times,serif" font-size="14.00" fill="#000000">PatientFormComponent</text>
</g>
<!-- PatientFormComponent&#45;&gt;SharedModule -->
<g id="edge7" class="edge">
<title>PatientFormComponent&#45;&gt;SharedModule</title>
<path fill="none" stroke="#000000" d="M980,-122.1061C980,-122.1061 980,-140.991 980,-140.991"/>
<polygon fill="#000000" stroke="#000000" points="976.5001,-140.9909 980,-150.991 983.5001,-140.991 976.5001,-140.9909"/>
</g>
<!-- TransitionElementDirective -->
<g id="node8" class="node">
<title>TransitionElementDirective</title>
<polygon fill="#ffffb3" stroke="#000000" points="878.2808,-122 705.7192,-122 705.7192,-86 878.2808,-86 878.2808,-122"/>
<text text-anchor="middle" x="792" y="-99.8" font-family="Times,serif" font-size="14.00" fill="#000000">TransitionElementDirective</text>
</g>
<!-- TransitionElementDirective&#45;&gt;SharedModule -->
<g id="edge8" class="edge">
<title>TransitionElementDirective&#45;&gt;SharedModule</title>
<path fill="none" stroke="#000000" d="M873.5153,-122.1243C873.5153,-136.7832 873.5153,-155 873.5153,-155 873.5153,-155 920.4985,-155 920.4985,-155"/>
<polygon fill="#000000" stroke="#000000" points="920.4985,-158.5001 930.4985,-155 920.4985,-151.5001 920.4985,-158.5001"/>
</g>
<!-- SpecialityConverterPipe -->
<g id="node9" class="node">
<title>SpecialityConverterPipe</title>
<polygon fill="#ffffb3" stroke="#000000" points="687.3543,-122 534.6457,-122 534.6457,-86 687.3543,-86 687.3543,-122"/>
<text text-anchor="middle" x="611" y="-99.8" font-family="Times,serif" font-size="14.00" fill="#000000">SpecialityConverterPipe</text>
</g>
<!-- SpecialityConverterPipe&#45;&gt;SharedModule -->
<g id="edge9" class="edge">
<title>SpecialityConverterPipe&#45;&gt;SharedModule</title>
<path fill="none" stroke="#000000" d="M681.3021,-122.2819C681.3021,-137.9478 681.3021,-158 681.3021,-158 681.3021,-158 920.6761,-158 920.6761,-158"/>
<polygon fill="#000000" stroke="#000000" points="920.6762,-161.5001 930.6761,-158 920.6761,-154.5001 920.6762,-161.5001"/>
</g>
<!-- TimeConverterPipe -->
<g id="node10" class="node">
<title>TimeConverterPipe</title>
<polygon fill="#ffffb3" stroke="#000000" points="516.4145,-122 389.5855,-122 389.5855,-86 516.4145,-86 516.4145,-122"/>
<text text-anchor="middle" x="453" y="-99.8" font-family="Times,serif" font-size="14.00" fill="#000000">TimeConverterPipe</text>
</g>
<!-- TimeConverterPipe&#45;&gt;SharedModule -->
<g id="edge10" class="edge">
<title>TimeConverterPipe&#45;&gt;SharedModule</title>
<path fill="none" stroke="#000000" d="M508.5819,-122.0352C508.5819,-138.7344 508.5819,-161 508.5819,-161 508.5819,-161 920.441,-161 920.441,-161"/>
<polygon fill="#000000" stroke="#000000" points="920.441,-164.5001 930.441,-161 920.441,-157.5001 920.441,-164.5001"/>
</g>
<!-- StatusConverterPipe -->
<g id="node11" class="node">
<title>StatusConverterPipe</title>
<polygon fill="#ffffb3" stroke="#000000" points="371.5884,-122 240.4116,-122 240.4116,-86 371.5884,-86 371.5884,-122"/>
<text text-anchor="middle" x="306" y="-99.8" font-family="Times,serif" font-size="14.00" fill="#000000">StatusConverterPipe</text>
</g>
<!-- StatusConverterPipe&#45;&gt;SharedModule -->
<g id="edge11" class="edge">
<title>StatusConverterPipe&#45;&gt;SharedModule</title>
<path fill="none" stroke="#000000" d="M362.1686,-122.302C362.1686,-140.2699 362.1686,-165 362.1686,-165 362.1686,-165 920.7443,-165 920.7443,-165"/>
<polygon fill="#000000" stroke="#000000" points="920.7443,-168.5001 930.7443,-165 920.7443,-161.5001 920.7443,-168.5001"/>
</g>
<!-- DoctorActiveConverterPipe -->
<g id="node12" class="node">
<title>DoctorActiveConverterPipe</title>
<polygon fill="#ffffb3" stroke="#000000" points="222.5548,-122 49.4452,-122 49.4452,-86 222.5548,-86 222.5548,-122"/>
<text text-anchor="middle" x="136" y="-99.8" font-family="Times,serif" font-size="14.00" fill="#000000">DoctorActiveConverterPipe</text>
</g>
<!-- DoctorActiveConverterPipe&#45;&gt;SharedModule -->
<g id="edge12" class="edge">
<title>DoctorActiveConverterPipe&#45;&gt;SharedModule</title>
<path fill="none" stroke="#000000" d="M209.4916,-122.1686C209.4916,-141.0898 209.4916,-168 209.4916,-168 209.4916,-168 920.6291,-168 920.6291,-168"/>
<polygon fill="#000000" stroke="#000000" points="920.6292,-171.5001 930.6291,-168 920.6291,-164.5001 920.6292,-171.5001"/>
</g>
<!-- SecondNavComponent  -->
<g id="node14" class="node">
<title>SecondNavComponent </title>
<polygon fill="#fb8072" stroke="#000000" points="2071.8658,-252 1922.1342,-252 1922.1342,-216 2071.8658,-216 2071.8658,-252"/>
<text text-anchor="middle" x="1997" y="-229.8" font-family="Times,serif" font-size="14.00" fill="#000000">SecondNavComponent </text>
</g>
<!-- SharedModule&#45;&gt;SecondNavComponent  -->
<g id="edge13" class="edge">
<title>SharedModule&#45;&gt;SecondNavComponent </title>
<path fill="none" stroke="#000000" stroke-dasharray="5,2" d="M1029.3553,-171C1231.9569,-171 1989.125,-171 1989.125,-171 1989.125,-171 1989.125,-205.7778 1989.125,-205.7778"/>
<polygon fill="#000000" stroke="#000000" points="1985.6251,-205.7778 1989.125,-215.7778 1992.6251,-205.7778 1985.6251,-205.7778"/>
</g>
<!-- LoadingOverlayComponent  -->
<g id="node15" class="node">
<title>LoadingOverlayComponent </title>
<polygon fill="#fb8072" stroke="#000000" points="1904.0777,-252 1727.9223,-252 1727.9223,-216 1904.0777,-216 1904.0777,-252"/>
<text text-anchor="middle" x="1816" y="-229.8" font-family="Times,serif" font-size="14.00" fill="#000000">LoadingOverlayComponent </text>
</g>
<!-- SharedModule&#45;&gt;LoadingOverlayComponent  -->
<g id="edge14" class="edge">
<title>SharedModule&#45;&gt;LoadingOverlayComponent </title>
<path fill="none" stroke="#000000" stroke-dasharray="5,2" d="M1029.4421,-174C1208.1526,-174 1810.125,-174 1810.125,-174 1810.125,-174 1810.125,-205.998 1810.125,-205.998"/>
<polygon fill="#000000" stroke="#000000" points="1806.6251,-205.998 1810.125,-215.998 1813.6251,-205.9981 1806.6251,-205.998"/>
</g>
<!-- FloatingButtonComponent  -->
<g id="node16" class="node">
<title>FloatingButtonComponent </title>
<polygon fill="#fb8072" stroke="#000000" points="1709.6196,-252 1540.3804,-252 1540.3804,-216 1709.6196,-216 1709.6196,-252"/>
<text text-anchor="middle" x="1625" y="-229.8" font-family="Times,serif" font-size="14.00" fill="#000000">FloatingButtonComponent </text>
</g>
<!-- SharedModule&#45;&gt;FloatingButtonComponent  -->
<g id="edge15" class="edge">
<title>SharedModule&#45;&gt;FloatingButtonComponent </title>
<path fill="none" stroke="#000000" stroke-dasharray="5,2" d="M1029.4519,-176C1175.3441,-176 1593.8135,-176 1593.8135,-176 1593.8135,-176 1593.8135,-205.9664 1593.8135,-205.9664"/>
<polygon fill="#000000" stroke="#000000" points="1590.3136,-205.9663 1593.8135,-215.9664 1597.3136,-205.9664 1590.3136,-205.9663"/>
</g>
<!-- AvatarComponent  -->
<g id="node17" class="node">
<title>AvatarComponent </title>
<polygon fill="#fb8072" stroke="#000000" points="1522.4194,-252 1399.5806,-252 1399.5806,-216 1522.4194,-216 1522.4194,-252"/>
<text text-anchor="middle" x="1461" y="-229.8" font-family="Times,serif" font-size="14.00" fill="#000000">AvatarComponent </text>
</g>
<!-- SharedModule&#45;&gt;AvatarComponent  -->
<g id="edge16" class="edge">
<title>SharedModule&#45;&gt;AvatarComponent </title>
<path fill="none" stroke="#000000" stroke-dasharray="5,2" d="M1029.5136,-179C1148.0967,-179 1438.5968,-179 1438.5968,-179 1438.5968,-179 1438.5968,-205.9909 1438.5968,-205.9909"/>
<polygon fill="#000000" stroke="#000000" points="1435.0969,-205.9909 1438.5968,-215.9909 1442.0969,-205.991 1435.0969,-205.9909"/>
</g>
<!-- PaginationComponent  -->
<g id="node18" class="node">
<title>PaginationComponent </title>
<polygon fill="#fb8072" stroke="#000000" points="1381.2163,-252 1236.7837,-252 1236.7837,-216 1381.2163,-216 1381.2163,-252"/>
<text text-anchor="middle" x="1309" y="-229.8" font-family="Times,serif" font-size="14.00" fill="#000000">PaginationComponent </text>
</g>
<!-- SharedModule&#45;&gt;PaginationComponent  -->
<g id="edge17" class="edge">
<title>SharedModule&#45;&gt;PaginationComponent </title>
<path fill="none" stroke="#000000" stroke-dasharray="5,2" d="M1029.3898,-182C1126.4127,-182 1332.536,-182 1332.536,-182 1332.536,-182 1332.536,-205.8129 1332.536,-205.8129"/>
<polygon fill="#000000" stroke="#000000" points="1329.0361,-205.8129 1332.536,-215.8129 1336.0361,-205.813 1329.0361,-205.8129"/>
</g>
<!-- ModalActionComponent  -->
<g id="node19" class="node">
<title>ModalActionComponent </title>
<polygon fill="#fb8072" stroke="#000000" points="1218.9853,-252 1059.0147,-252 1059.0147,-216 1218.9853,-216 1218.9853,-252"/>
<text text-anchor="middle" x="1139" y="-229.8" font-family="Times,serif" font-size="14.00" fill="#000000">ModalActionComponent </text>
</g>
<!-- SharedModule&#45;&gt;ModalActionComponent  -->
<g id="edge18" class="edge">
<title>SharedModule&#45;&gt;ModalActionComponent </title>
<path fill="none" stroke="#000000" stroke-dasharray="5,2" d="M1029.6652,-185C1085.1135,-185 1167.1641,-185 1167.1641,-185 1167.1641,-185 1167.1641,-205.7542 1167.1641,-205.7542"/>
<polygon fill="#000000" stroke="#000000" points="1163.6642,-205.7542 1167.1641,-215.7542 1170.6642,-205.7542 1163.6642,-205.7542"/>
</g>
<!-- PatientFormComponent  -->
<g id="node20" class="node">
<title>PatientFormComponent </title>
<polygon fill="#fb8072" stroke="#000000" points="1041.0498,-252 886.9502,-252 886.9502,-216 1041.0498,-216 1041.0498,-252"/>
<text text-anchor="middle" x="964" y="-229.8" font-family="Times,serif" font-size="14.00" fill="#000000">PatientFormComponent </text>
</g>
<!-- SharedModule&#45;&gt;PatientFormComponent  -->
<g id="edge19" class="edge">
<title>SharedModule&#45;&gt;PatientFormComponent </title>
<path fill="none" stroke="#000000" stroke-dasharray="5,2" d="M980,-187.1061C980,-187.1061 980,-205.991 980,-205.991"/>
<polygon fill="#000000" stroke="#000000" points="976.5001,-205.9909 980,-215.991 983.5001,-205.991 976.5001,-205.9909"/>
</g>
<!-- TransitionElementDirective  -->
<g id="node21" class="node">
<title>TransitionElementDirective </title>
<polygon fill="#fb8072" stroke="#000000" points="868.7807,-252 693.2193,-252 693.2193,-216 868.7807,-216 868.7807,-252"/>
<text text-anchor="middle" x="781" y="-229.8" font-family="Times,serif" font-size="14.00" fill="#000000">TransitionElementDirective </text>
</g>
<!-- SharedModule&#45;&gt;TransitionElementDirective  -->
<g id="edge20" class="edge">
<title>SharedModule&#45;&gt;TransitionElementDirective </title>
<path fill="none" stroke="#000000" stroke-dasharray="5,2" d="M930.3943,-184C873.3209,-184 787.375,-184 787.375,-184 787.375,-184 787.375,-205.9489 787.375,-205.9489"/>
<polygon fill="#000000" stroke="#000000" points="783.8751,-205.9488 787.375,-215.9489 790.8751,-205.9489 783.8751,-205.9488"/>
</g>
<!-- SpecialityConverterPipe  -->
<g id="node22" class="node">
<title>SpecialityConverterPipe </title>
<polygon fill="#fb8072" stroke="#000000" points="675.3546,-252 518.6454,-252 518.6454,-216 675.3546,-216 675.3546,-252"/>
<text text-anchor="middle" x="597" y="-229.8" font-family="Times,serif" font-size="14.00" fill="#000000">SpecialityConverterPipe </text>
</g>
<!-- SharedModule&#45;&gt;SpecialityConverterPipe  -->
<g id="edge21" class="edge">
<title>SharedModule&#45;&gt;SpecialityConverterPipe </title>
<path fill="none" stroke="#000000" stroke-dasharray="5,2" d="M930.5732,-181C828.7105,-181 604.875,-181 604.875,-181 604.875,-181 604.875,-205.7604 604.875,-205.7604"/>
<polygon fill="#000000" stroke="#000000" points="601.3751,-205.7604 604.875,-215.7604 608.3751,-205.7604 601.3751,-205.7604"/>
</g>
<!-- TimeConverterPipe  -->
<g id="node23" class="node">
<title>TimeConverterPipe </title>
<polygon fill="#fb8072" stroke="#000000" points="500.9138,-252 371.0862,-252 371.0862,-216 500.9138,-216 500.9138,-252"/>
<text text-anchor="middle" x="436" y="-229.8" font-family="Times,serif" font-size="14.00" fill="#000000">TimeConverterPipe </text>
</g>
<!-- SharedModule&#45;&gt;TimeConverterPipe  -->
<g id="edge22" class="edge">
<title>SharedModule&#45;&gt;TimeConverterPipe </title>
<path fill="none" stroke="#000000" stroke-dasharray="5,2" d="M930.662,-178C798.311,-178 445.375,-178 445.375,-178 445.375,-178 445.375,-205.973 445.375,-205.973"/>
<polygon fill="#000000" stroke="#000000" points="441.8751,-205.973 445.375,-215.973 448.8751,-205.973 441.8751,-205.973"/>
</g>
<!-- StatusConverterPipe  -->
<g id="node24" class="node">
<title>StatusConverterPipe </title>
<polygon fill="#fb8072" stroke="#000000" points="353.089,-252 218.911,-252 218.911,-216 353.089,-216 353.089,-252"/>
<text text-anchor="middle" x="286" y="-229.8" font-family="Times,serif" font-size="14.00" fill="#000000">StatusConverterPipe </text>
</g>
<!-- SharedModule&#45;&gt;StatusConverterPipe  -->
<g id="edge23" class="edge">
<title>SharedModule&#45;&gt;StatusConverterPipe </title>
<path fill="none" stroke="#000000" stroke-dasharray="5,2" d="M930.5965,-174C773.6794,-174 296.875,-174 296.875,-174 296.875,-174 296.875,-205.998 296.875,-205.998"/>
<polygon fill="#000000" stroke="#000000" points="293.3751,-205.998 296.875,-215.998 300.3751,-205.9981 293.3751,-205.998"/>
</g>
<!-- DoctorActiveConverterPipe  -->
<g id="node25" class="node">
<title>DoctorActiveConverterPipe </title>
<polygon fill="#fb8072" stroke="#000000" points="200.0554,-252 23.9446,-252 23.9446,-216 200.0554,-216 200.0554,-252"/>
<text text-anchor="middle" x="112" y="-229.8" font-family="Times,serif" font-size="14.00" fill="#000000">DoctorActiveConverterPipe </text>
</g>
<!-- SharedModule&#45;&gt;DoctorActiveConverterPipe  -->
<g id="edge24" class="edge">
<title>SharedModule&#45;&gt;DoctorActiveConverterPipe </title>
<path fill="none" stroke="#000000" stroke-dasharray="5,2" d="M930.6415,-171C748.537,-171 124.875,-171 124.875,-171 124.875,-171 124.875,-205.7778 124.875,-205.7778"/>
<polygon fill="#000000" stroke="#000000" points="121.3751,-205.7778 124.875,-215.7778 128.3751,-205.7778 121.3751,-205.7778"/>
</g>
</g>
</svg>
