<?xml version="1.0" encoding="iso-8859-1"?>
<!-- Generator: Adobe Illustrator 19.0.0, SVG Export Plug-In . SVG Version: 6.00 Build 0)  -->
<svg xmlns="http://www.w3.org/2000/svg" xmlns:xlink="http://www.w3.org/1999/xlink" version="1.1" id="Layer_1" x="0px" y="0px" viewBox="0 0 512 512" style="enable-background:new 0 0 512 512;" xml:space="preserve">
<g>
	<g>
		<path d="M456.579,82.939c-3.907-3.906-10.237-3.905-14.143,0l-82.926,82.929l-47.964-47.965c-3.906-3.905-10.236-3.905-14.143,0    c-3.905,3.905-3.905,10.237,0,14.142l55.035,55.036c1.876,1.875,4.419,2.929,7.071,2.929c2.652,0,5.196-1.053,7.073-2.929    l89.997-90C460.484,93.176,460.484,86.844,456.579,82.939z"/>
	</g>
</g>
<g>
	<g>
		<path d="M134.225,160.125c-42.858,0-77.725,34.867-77.725,77.724c0,15.358,1.07,28.867,14.534,51.033    c1.882,3.098,5.178,4.81,8.557,4.81c1.768,0,3.559-0.469,5.182-1.455c4.72-2.867,6.222-9.018,3.355-13.738    C76.5,259.355,76.5,248.909,76.5,237.849c0-31.829,25.896-57.724,57.725-57.724c5.522,0,10-4.477,10-10    S139.747,160.125,134.225,160.125z"/>
	</g>
</g>
<g>
	<g>
		<path d="M104.632,301.694l-0.188-0.239c-3.445-4.306-9.71-4.987-14.025-1.547c-4.308,3.436-5.005,9.732-1.585,14.05    c1.971,2.53,4.917,3.855,7.896,3.855c2.137,0,4.291-0.682,6.109-2.091C107.208,312.343,108.011,306.063,104.632,301.694z"/>
	</g>
</g>
<g>
	<g>
		<path d="M472.456,39.543C446.956,14.043,413.053,0,376.99,0c-36.063,0-69.967,14.043-95.468,39.544    c-20.949,20.95-34.176,47.495-38.249,76.764c-0.546,3.926-0.897,7.873-1.092,11.826c-8.302,7.942-14.771,16.571-20.479,24.196    c-6.479,8.654-13.179,17.603-17.515,17.603s-11.036-8.949-17.516-17.604c-14.521-19.395-36.464-48.705-81.157-48.705    C47.334,103.625,0,150.959,0,209.14c0,28.378,3.213,52.513,44.795,104.89c17.177,21.636,25.765,63.632,33.343,100.685    c4.9,23.964,9.53,46.599,16.185,63.836C97.517,486.824,107.236,512,130.102,512c31.267,0,42.984-42.15,53.322-79.339    c4.021-14.464,7.819-28.126,12.248-37.911c4.08-9.014,7.272-11.419,8.516-11.419c1.244,0,4.436,2.405,8.516,11.419    c4.429,9.784,8.227,23.446,12.248,37.911C235.289,469.85,247.007,512,278.273,512c22.865,0,32.585-25.176,35.779-33.449    c6.654-17.237,11.284-39.872,16.185-63.836c7.578-37.052,16.166-79.048,33.343-100.685c13.588-17.115,23.64-31.929,30.62-45.123    c0.497-0.063,0.995-0.112,1.49-0.181c29.271-4.073,55.815-17.299,76.766-38.25c25.5-25.5,39.544-59.404,39.544-95.467    C512,98.946,497.956,65.043,472.456,39.543z M458.313,216.335c-35.65,35.65-91.514,43.865-135.854,19.974    c-4.862-2.62-10.926-0.802-13.547,4.06c-2.619,4.862-0.802,10.927,4.061,13.547c17.685,9.53,37.537,14.936,57.648,15.91    c-5.863,9.506-13.371,20.01-22.706,31.769c-20.148,25.381-28.854,67.947-37.272,109.113C302.851,448.812,294.018,492,278.273,492    c-16.068,0-26.04-35.872-34.054-64.696c-4.233-15.228-8.231-29.612-13.296-40.801c-2.594-5.731-10.488-23.172-26.736-23.172    s-24.143,17.441-26.736,23.172c-5.064,11.189-9.063,25.573-13.296,40.801C156.142,456.128,146.17,492,130.102,492    c-15.744,0-24.577-43.188-32.37-81.292c-8.418-41.166-17.124-83.732-37.272-109.113C20,250.632,20,230.478,20,209.14    c0-47.153,38.361-85.515,85.515-85.515c34.683,0,50.868,21.618,65.147,40.691c9.863,13.174,19.179,25.617,33.525,25.617    s23.662-12.443,33.525-25.617c1.91-2.551,3.915-5.226,6.032-7.923c2.383,14.891,7.193,29.372,14.337,42.631    c2.621,4.862,8.685,6.68,13.547,4.06s6.68-8.685,4.061-13.547c-23.89-44.336-15.676-100.2,19.976-135.851    C317.388,31.963,346.27,20,376.99,20c30.72,0,59.602,11.963,81.323,33.686C480.037,75.408,492,104.29,492,135.01    C492,165.73,480.037,194.612,458.313,216.335z"/>
	</g>
</g>
<g>
	<g>
		<path d="M295.672,216.323c-3.907-3.905-10.237-3.905-14.143,0l-0.081,0.081c-3.905,3.906-3.905,10.238,0,14.143    c1.953,1.953,4.511,2.929,7.071,2.929c2.559,0,5.118-0.976,7.072-2.929l0.081-0.081    C299.577,226.56,299.577,220.228,295.672,216.323z"/>
	</g>
</g>
<g>
</g>
<g>
</g>
<g>
</g>
<g>
</g>
<g>
</g>
<g>
</g>
<g>
</g>
<g>
</g>
<g>
</g>
<g>
</g>
<g>
</g>
<g>
</g>
<g>
</g>
<g>
</g>
<g>
</g>
</svg>
