<?xml version="1.0" encoding="iso-8859-1"?>
<!-- Generator: Adobe Illustrator 19.0.0, SVG Export Plug-In . SVG Version: 6.00 Build 0)  -->
<svg xmlns="http://www.w3.org/2000/svg" xmlns:xlink="http://www.w3.org/1999/xlink" version="1.1" id="Layer_1" x="0px" y="0px" viewBox="0 0 512 512" style="enable-background:new 0 0 512 512;" xml:space="preserve">
<g>
	<g>
		<path d="M433.165,263.143c-5.482-0.692-10.486,3.183-11.181,8.663c-2.231,17.587-6.879,36.697-13.814,56.801    c-8.862,25.693-19.435,47.02-24.948,57.445c-3.801,7.188-7.908,13.862-12.21,19.837c-3.227,4.483-2.209,10.733,2.273,13.96    c1.768,1.272,3.811,1.885,5.835,1.885c3.108,0,6.171-1.444,8.126-4.16c4.836-6.716,9.431-14.177,13.66-22.173    c5.782-10.936,16.872-33.309,26.174-60.273c7.381-21.399,12.343-41.858,14.747-60.806    C442.524,268.844,438.645,263.838,433.165,263.143z"/>
	</g>
</g>
<g>
	<g>
		<path d="M365.973,428.15c-3.533-4.244-9.862-4.798-14.109-1.266c-0.002,0.001-0.056,0.047-0.058,0.048    c-4.243,3.536-4.817,9.842-1.28,14.086c1.978,2.374,4.824,3.6,7.689,3.6c2.257,0,4.528-0.76,6.397-2.318l0.105-0.087    C368.958,438.677,369.506,432.394,365.973,428.15z"/>
	</g>
</g>
<g>
	<g>
		<path d="M158.987,136.344c-0.668-5.483-5.654-9.386-11.139-8.716c-16.221,1.978-31.846,8.823-46.445,20.345    c-19.982,15.77-32.16,36.767-36.195,62.409c-3.159,20.076-1.278,43.13,5.592,68.524c1.205,4.458,5.241,7.392,9.647,7.392    c0.865,0,1.744-0.113,2.618-0.351c5.333-1.442,8.485-6.934,7.043-12.266c-13.508-49.93-5.539-86.941,23.687-110.007    c11.677-9.215,23.948-14.662,36.474-16.19C155.753,146.815,159.656,141.827,158.987,136.344z"/>
	</g>
</g>
<g>
	<g>
		<path d="M99.436,301.691c-2.001-5.148-7.799-7.699-12.946-5.696c-5.148,2.001-7.698,7.798-5.696,12.946    c0.007,0.02,0.018,0.046,0.027,0.069c1.548,3.929,5.308,6.325,9.293,6.325c1.208,0,2.436-0.22,3.631-0.684    C98.892,312.649,101.438,306.839,99.436,301.691z"/>
	</g>
</g>
<g>
	<g>
		<path d="M495.476,190.031c-7.553-33.585-24.523-60.984-50.438-81.435c-49.294-38.901-96.898-33.567-132.467-18.183    c1.098-2.245,2.108-4.577,3.006-6.997c7.359-19.829,5.898-39.266,3.376-52.079c-1.587-8.069-6.292-27.212-15.661-30.69    c-9.371-3.475-25.424,7.963-31.89,13.043c-10.27,8.067-24.057,21.845-31.416,41.673c-7.214,19.439-5.216,39.39-2.269,52.702    c0.479,2.167,0.994,4.193,1.518,6.091c-0.729-0.46-1.444-0.953-2.14-1.479c-33.453-25.267-100.038-59.397-170.133-4.081    c-25.916,20.452-42.885,47.851-50.438,81.435c-6.147,27.335-6.063,58.946,0.251,93.956c11.179,61.988,39.4,119.767,51.013,141.731    C97.209,481.358,137.094,512,180.095,512c27.692,0,42.626-9.384,54.626-16.924c7.833-4.922,13.492-8.478,21.122-8.478h0.314    c7.629,0,13.289,3.557,21.122,8.478c12.001,7.54,26.935,16.924,54.626,16.924c43.001,0,82.886-30.642,112.307-86.282    c11.615-21.964,39.836-79.743,51.014-141.731C501.539,248.976,501.623,217.365,495.476,190.031z M258.74,62.322    c8.109-21.85,27.386-35.696,36.716-40.555c3.902,9.769,9.478,32.839,1.37,54.689c-7.5,20.207-25.913,33.49-36.14,39.286    C256.654,104.477,251.321,82.313,258.74,62.322z M475.54,280.438c-10.681,59.23-37.833,114.792-49.012,135.931    c-14.935,28.245-47.089,75.629-94.623,75.629c-21.928,0-33.141-7.045-43.983-13.859c-9.032-5.676-18.372-11.544-31.764-11.544    h-0.314c-13.393,0-22.732,5.869-31.764,11.544c-10.843,6.814-22.055,13.859-43.983,13.859c-47.535,0-79.688-47.384-94.623-75.629    c-11.178-21.139-38.33-76.701-49.012-135.931c-12.811-71.035,1.621-123.568,42.893-156.14    c56.564-44.639,110.445-22.278,145.685,4.34c18.175,13.728,43.566,13.738,61.748,0.024c35.312-26.636,89.282-49.014,145.859-4.364    C473.919,156.869,488.35,209.401,475.54,280.438z"/>
	</g>
</g>
<g>
</g>
<g>
</g>
<g>
</g>
<g>
</g>
<g>
</g>
<g>
</g>
<g>
</g>
<g>
</g>
<g>
</g>
<g>
</g>
<g>
</g>
<g>
</g>
<g>
</g>
<g>
</g>
<g>
</g>
</svg>
