<?xml version="1.0" encoding="iso-8859-1"?>
<!-- Generator: Adobe Illustrator 19.0.0, SVG Export Plug-In . SVG Version: 6.00 Build 0)  -->
<svg xmlns="http://www.w3.org/2000/svg" xmlns:xlink="http://www.w3.org/1999/xlink" version="1.1" id="Layer_1" x="0px" y="0px" viewBox="0 0 512 512" style="enable-background:new 0 0 512 512;" xml:space="preserve">
<g>
	<g>
		<path d="M462.466,49.476C430.545,17.572,388.12,0.005,342.992,0.005c-0.014,0-0.033,0-0.046,0    c-45.142,0.013-87.58,17.604-119.492,49.534c-33.151,33.169-50.791,78.013-49.379,124.523c-1.685-0.049-3.373-0.082-5.065-0.082    c-0.014,0-0.033,0-0.047,0c-45.144,0.012-87.582,17.603-119.494,49.532C17.556,255.443-0.012,297.888,0,343.032    c0.012,45.145,17.603,87.582,49.532,119.494c31.92,31.903,74.345,49.468,119.473,49.468c0.014,0,0.033,0,0.046,0    c45.145-0.012,87.582-17.603,119.494-49.532c31.913-31.93,49.48-74.375,49.468-119.519c0-1.673-0.033-3.341-0.081-5.006    c1.732,0.053,3.464,0.088,5.191,0.088c44.68,0,87.463-17.578,119.404-49.536c31.915-31.931,49.482-74.377,49.471-119.519    C511.988,123.826,494.396,81.39,462.466,49.476z M274.399,448.325c-2.379,2.38-4.83,4.663-7.337,6.86L163.527,351.647    c-3.905-3.904-10.237-3.904-14.143,0c-3.905,3.905-3.905,10.237,0,14.143l101.647,101.647    c-24.121,15.969-52.39,24.55-81.984,24.558c-0.015,0-0.026,0-0.041,0c-39.785-0.001-77.195-15.489-105.336-43.613    C35.52,420.244,20.011,382.83,20,343.027c-0.008-29.621,8.574-57.92,24.558-82.064l56.273,56.272    c1.953,1.953,4.512,2.929,7.071,2.929c2.559,0,5.119-0.977,7.071-2.929c3.905-3.905,3.905-10.237,0-14.143L56.81,244.932    c2.181-2.488,4.444-4.92,6.804-7.282c2.379-2.38,4.83-4.662,7.337-6.86l210.252,210.253    C279.022,443.531,276.759,445.963,274.399,448.325z M293.457,425.011L86.983,218.538c24.121-15.969,52.391-24.551,81.984-24.559    c0.015,0,0.026,0,0.041,0c4.897,0,9.757,0.237,14.569,0.701c0.119,0.014,0.238,0.024,0.358,0.034    c34.149,3.375,65.818,18.302,90.41,42.879c24.607,24.594,39.553,56.278,42.934,90.449c0.01,0.13,0.021,0.259,0.036,0.388    c0.462,4.795,0.699,9.637,0.701,14.516C318.023,372.568,309.441,400.867,293.457,425.011z M352.99,317.695    c-5.566,0.369-11.181,0.424-16.82,0.164c-0.802-5.416-1.865-10.767-3.179-16.041V171.263c0-5.523-4.477-10-10-10s-10,4.477-10,10    v83.127c-6.859-11.1-15.049-21.486-24.51-30.941c-25.914-25.9-58.75-42.349-94.338-47.623    c-1.925-41.85,13.668-82.346,43.453-112.148c20.94-20.951,47.018-34.893,75.393-40.662v79.582c0,5.523,4.477,10,10,10    c5.523,0,10-4.477,10-10V20.343c3.301-0.217,6.621-0.337,9.96-0.338c0.015,0,0.026,0,0.041,0c3.352,0,6.685,0.119,9.999,0.338    V317.695z M448.383,274.35c-20.93,20.941-47.139,34.872-75.393,40.648V23.016c28.348,5.765,54.406,19.687,75.337,40.606    c28.153,28.138,43.662,65.552,43.672,105.353C492.01,208.774,476.52,246.198,448.383,274.35z"/>
	</g>
</g>
<g>
	<g>
		<path d="M322.992,128.002c-5.523,0-10,4.477-10,10v0.219c0,5.523,4.477,10,10,10s10-4.477,10-10v-0.219    C332.991,132.479,328.515,128.002,322.992,128.002z"/>
	</g>
</g>
<g>
	<g>
		<path d="M140.173,328.295l-0.155-0.155c-3.9-3.912-10.231-3.922-14.142-0.022c-3.911,3.899-3.921,10.23-0.022,14.142l0.155,0.155    c1.954,1.959,4.518,2.94,7.082,2.94c2.554,0,5.108-0.972,7.06-2.918C144.062,338.538,144.072,332.207,140.173,328.295z"/>
	</g>
</g>
<g>
</g>
<g>
</g>
<g>
</g>
<g>
</g>
<g>
</g>
<g>
</g>
<g>
</g>
<g>
</g>
<g>
</g>
<g>
</g>
<g>
</g>
<g>
</g>
<g>
</g>
<g>
</g>
<g>
</g>
</svg>
