<?xml version="1.0" encoding="iso-8859-1"?>
<!-- Generator: Adobe Illustrator 19.0.0, SVG Export Plug-In . SVG Version: 6.00 Build 0)  -->
<svg xmlns="http://www.w3.org/2000/svg" xmlns:xlink="http://www.w3.org/1999/xlink" version="1.1" id="Layer_1" x="0px" y="0px" viewBox="0 0 512 512" style="enable-background:new 0 0 512 512;" xml:space="preserve">
<g>
	<g>
		<path d="M403.496,57.008l-10.967-10.967L403.5,35.056c3.901-3.906,3.899-10.234-0.004-14.138L385.507,2.929    C383.631,1.054,381.088,0,378.435,0h-99.36c-5.523,0-10,4.477-10,10v492c0,5.523,4.477,10,10,10h28c5.523,0,10-4.477,10-10    V164.183h61.36c2.654,0,5.2-1.055,7.076-2.934l17.989-18.012c3.901-3.906,3.899-10.234-0.004-14.138l-10.923-10.923l10.927-10.941    c3.901-3.906,3.899-10.234-0.004-14.138L392.529,82.13L403.5,71.146C407.401,67.24,407.399,60.912,403.496,57.008z M297.075,492    h-8V20h8V492z M374.289,144.183h-57.212v-16.001h57.216l7.994,7.994L374.289,144.183z M374.289,108.182h-57.212V92.18h57.216    l7.994,7.994L374.289,108.182z M374.289,72.092h-57.212V56.09h57.216l7.994,7.994L374.289,72.092z M374.289,36.002h-57.212V20    h57.216l7.994,7.994L374.289,36.002z"/>
	</g>
</g>
<g>
	<g>
		<path d="M199.838,99.499h-0.131c-5.523,0-10,4.477-10,10c0,5.523,4.477,10,10,10h0.131c5.523,0,10-4.477,10-10    C209.838,103.976,205.361,99.499,199.838,99.499z"/>
	</g>
</g>
<g>
	<g>
		<path d="M220.404,334.983c-4.249-1.761-9.381-9.594-9.381-16.682v-65.999c-0.001-24.481-19.916-44.397-44.396-44.397h-24.051    c-4.707,0-8.776,3.282-9.773,7.882c-0.997,4.6,1.348,9.272,5.633,11.221c4.617,2.1,10.474,10.439,10.474,16.818v65.952    c0,24.506,19.937,44.443,44.443,44.443h23.223c4.771,0,8.877-3.37,9.808-8.049C227.315,341.493,224.811,336.808,220.404,334.983z     M193.353,334.22v0.001c-13.478,0-24.443-10.965-24.443-24.443v-65.952c0-5.245-1.449-10.776-3.922-15.92h1.64    c13.452,0,24.396,10.944,24.396,24.396V318.3c0,5.387,1.287,10.878,3.519,15.92H193.353z"/>
	</g>
</g>
<g>
	<g>
		<path d="M250.857,102.835l-40.282-42.801V10c0-5.523-4.477-10-10-10h-42c-5.523,0-10,4.477-10,10v50.034l-40.282,42.802    c-1.746,1.855-2.718,4.306-2.718,6.854V502c0,5.523,4.477,10,10,10h128c5.523,0,10-4.477,10-10V109.689    C253.575,107.142,252.603,104.69,250.857,102.835z M168.575,20h22v34h-22V20z M233.575,492h-108v-24h108V492z M233.575,448h-108    V119.5h41.78c5.523,0,10-4.477,10-10s-4.477-10-10-10h-28.457L162.896,74h33.358l37.321,39.655V448z"/>
	</g>
</g>
<g>
</g>
<g>
</g>
<g>
</g>
<g>
</g>
<g>
</g>
<g>
</g>
<g>
</g>
<g>
</g>
<g>
</g>
<g>
</g>
<g>
</g>
<g>
</g>
<g>
</g>
<g>
</g>
<g>
</g>
</svg>
