<?xml version="1.0" encoding="iso-8859-1"?>
<!-- Generator: Adobe Illustrator 19.0.0, SVG Export Plug-In . SVG Version: 6.00 Build 0)  -->
<svg xmlns="http://www.w3.org/2000/svg" xmlns:xlink="http://www.w3.org/1999/xlink" version="1.1" id="Layer_1" x="0px" y="0px" viewBox="0 0 512.003 512.003" style="enable-background:new 0 0 512.003 512.003;" xml:space="preserve">
<g>
	<g>
		<path d="M332.22,96.001c-35.663,0-53.024,23.189-64.512,38.534c-3.553,4.745-9.498,12.686-11.708,12.686    c-2.21,0-8.155-7.941-11.708-12.686c-11.489-15.345-28.849-38.534-64.512-38.534c-46.196,0-83.78,37.583-83.78,83.78    c0,22.386,2.518,41.403,35.095,82.438c12.93,16.287,19.507,48.444,25.309,76.815c3.805,18.607,7.399,36.182,12.609,49.674    c2.606,6.75,10.537,27.293,29.76,27.293c25.881,0,35.178-33.444,43.381-62.951c2.721-9.788,5.291-19.034,8.168-26.197    c2.78-6.921,4.829-9.272,5.679-10.014c0.85,0.742,2.9,3.093,5.679,10.014c2.877,7.163,5.447,16.409,8.168,26.197    c8.203,29.507,17.5,62.951,43.381,62.951c19.223,0,27.155-20.543,29.758-27.293c5.21-13.492,8.803-31.067,12.609-49.674    c5.802-28.371,12.379-60.528,25.309-76.815C413.482,221.183,416,202.167,416,179.781C416,133.584,378.416,96.001,332.22,96.001z     M365.244,249.783c-15.902,20.031-22.682,53.183-29.239,85.243c-3.633,17.765-7.065,34.545-11.672,46.478    c-2.554,6.613-6.553,14.497-11.103,14.497c-10.681,0-18.763-29.071-24.111-48.308c-3.295-11.85-6.407-23.043-10.391-31.845    c-2.154-4.758-8.707-19.237-22.726-19.237c-14.019,0-20.573,14.479-22.724,19.237c-3.985,8.802-7.096,19.995-10.391,31.845    c-5.347,19.237-13.429,48.308-24.111,48.308c-4.55,0-8.549-7.884-11.103-14.497c-4.608-11.934-8.039-28.713-11.672-46.478    c-6.556-32.06-13.337-65.212-29.239-85.243c-30.759-38.745-30.759-53.23-30.759-70.002c0-35.168,28.611-63.78,63.78-63.78    c25.652,0,37.791,16.214,48.502,30.52c7.97,10.645,15.497,20.7,27.718,20.7c12.221,0,19.748-10.055,27.718-20.7    c10.711-14.306,22.85-30.52,48.502-30.52c35.169,0,63.78,28.612,63.78,63.78C396.003,196.554,396.003,211.038,365.244,249.783z"/>
	</g>
</g>
<g>
	<g>
		<path d="M421.039,406.724c-3.916-3.894-10.247-3.876-14.142,0.041l-0.172,0.173c-3.895,3.916-3.877,10.247,0.04,14.142    c1.951,1.94,4.501,2.909,7.051,2.909c2.569,0,5.137-0.984,7.091-2.95l0.172-0.173C424.974,416.95,424.956,410.619,421.039,406.724    z"/>
	</g>
</g>
<g>
	<g>
		<path d="M105.277,90.963c-3.895-3.917-10.228-3.934-14.142-0.04l-0.173,0.172c-3.917,3.894-3.935,10.226-0.04,14.142    c1.954,1.966,4.523,2.949,7.091,2.949c2.55,0,5.101-0.969,7.051-2.909l0.173-0.172C109.154,101.211,109.172,94.879,105.277,90.963    z"/>
	</g>
</g>
<g>
	<g>
		<path d="M285.766,472.236l-22.693-22.694c-2.859-2.861-7.161-3.715-10.898-2.168c-3.736,1.548-6.173,5.194-6.173,9.239v12.458    c-53.221-2.44-102.906-24.316-140.83-62.24C30.65,332.31,22.001,212.6,85.052,128.376c3.311-4.421,2.409-10.688-2.012-13.998    s-10.688-2.408-13.998,2.013c-33.304,44.487-49.574,99.678-45.814,155.407c3.797,56.271,27.876,109.25,67.802,149.176    c41.706,41.705,96.406,65.66,154.973,68.111v12.917c0,4.044,2.437,7.691,6.173,9.239c1.237,0.513,2.537,0.762,3.825,0.762    c2.603,0,5.16-1.017,7.073-2.93l22.693-22.694C289.672,482.473,289.672,476.141,285.766,472.236z"/>
	</g>
</g>
<g>
	<g>
		<path d="M488.767,240.079c-3.823-56.223-27.899-109.157-67.793-149.051c-41.672-41.672-96.336-65.626-154.857-68.106V10.001    c0-4.044-2.437-7.691-6.173-9.239c-3.737-1.549-8.038-0.692-10.898,2.168l-22.693,22.694c-3.905,3.905-3.905,10.237,0,14.142    l22.693,22.694c1.913,1.914,4.471,2.93,7.073,2.93c1.288,0,2.588-0.25,3.825-0.762c3.736-1.548,6.173-5.194,6.173-9.239V42.934    c53.178,2.466,102.82,24.341,140.715,62.236c74.437,74.437,83.148,194.063,20.264,278.262c-3.305,4.425-2.397,10.691,2.028,13.996    c1.796,1.341,3.895,1.988,5.976,1.988c3.047,0,6.057-1.388,8.02-4.017C476.343,350.917,492.554,295.756,488.767,240.079z"/>
	</g>
</g>
<g>
</g>
<g>
</g>
<g>
</g>
<g>
</g>
<g>
</g>
<g>
</g>
<g>
</g>
<g>
</g>
<g>
</g>
<g>
</g>
<g>
</g>
<g>
</g>
<g>
</g>
<g>
</g>
<g>
</g>
</svg>
