<?xml version="1.0" encoding="iso-8859-1"?>
<!-- Generator: Adobe Illustrator 19.0.0, SVG Export Plug-In . SVG Version: 6.00 Build 0)  -->
<svg xmlns="http://www.w3.org/2000/svg" xmlns:xlink="http://www.w3.org/1999/xlink" version="1.1" id="Layer_1" x="0px" y="0px" viewBox="0 0 512 512" style="enable-background:new 0 0 512 512;" xml:space="preserve">
<g>
	<g>
		<path d="M256.345,100.001h-0.137c-5.522,0-10,4.477-10,10s4.478,10,10,10h0.137c5.522,0,10-4.477,10-10    S261.867,100.001,256.345,100.001z"/>
	</g>
</g>
<g>
	<g>
		<path d="M438,65.012h-61.068V42c0-5.523-4.478-10-10-10h-70.144C292.289,13.655,275.713,0,256,0s-36.289,13.655-40.788,32h-70.144    c-5.522,0-10,4.477-10,10v23.012H74c-5.522,0-10,4.477-10,10V502c0,5.523,4.478,10,10,10h364c5.522,0,10-4.477,10-10V75.012    C448,69.489,443.522,65.012,438,65.012z M256,20c8.531,0,15.938,4.884,19.586,12h-39.172C240.062,24.884,247.469,20,256,20z     M135.069,110c0,5.523,4.478,10,10,10h78.529c5.522,0,10-4.477,10-10s-4.478-10-10-10H155.23c0-0.595-0.062-1.174-0.161-1.74    V76.074c0.037-0.349,0.058-0.703,0.058-1.062c0-0.359-0.021-0.713-0.058-1.062V52h201.863v21.951    c-0.037,0.349-0.058,0.703-0.058,1.062s0.021,0.713,0.058,1.062V98.26c-0.1,0.566-0.161,1.145-0.161,1.74H289.99    c-5.522,0-10,4.477-10,10s4.478,10,10,10h76.942c5.522,0,10-4.477,10-10h9.1v340H125.969V110H135.069z M428,492H84V85.012h51.068    V90h-19.1c-5.522,0-10,4.477-10,10v360c0,5.523,4.478,10,10,10h280.063c5.522,0,10-4.477,10-10V100c0-5.523-4.478-10-10-10h-19.1    v-4.988H428V492z"/>
	</g>
</g>
<g>
	<g>
		<path d="M288.312,156.022c-18.086,0-26.867,11.731-32.114,18.739c-0.13,0.174-0.266,0.355-0.405,0.541    c-0.139-0.187-0.276-0.368-0.406-0.542c-5.247-7.008-14.029-18.738-32.114-18.738c-22.872,0-41.479,18.608-41.479,41.48    c0,10.376,1.195,19.817,16.217,38.738c4.665,5.876,7.325,18.883,9.672,30.359c1.672,8.18,3.252,15.907,5.647,22.11    c4.887,12.656,12.511,15.313,18.046,15.313c15.399,0,20.187-17.22,24.034-31.057c0.122-0.439,0.25-0.9,0.384-1.377    c0.133,0.476,0.262,0.938,0.384,1.377c3.846,13.837,8.634,31.057,24.033,31.057c5.535,0,13.16-2.657,18.044-15.314    c2.395-6.203,3.975-13.93,5.648-22.11c2.348-11.476,5.007-24.483,9.672-30.358c15.023-18.923,16.217-28.363,16.217-38.738    C329.792,174.63,311.184,156.022,288.312,156.022z M297.914,223.804c-7.637,9.62-10.669,24.448-13.602,38.787    c-1.182,5.775-2.805,13.713-4.519,18.507c-1.667-3.852-3.319-9.793-4.346-13.49c-3.387-12.183-7.225-25.992-19.653-25.992    c-12.427,0-16.267,13.809-19.65,25.992c-1.028,3.697-2.68,9.637-4.346,13.49c-1.714-4.794-3.337-12.731-4.519-18.506    c-2.932-14.34-5.964-29.167-13.602-38.788c-11.881-14.964-11.881-19.968-11.881-26.302c0-11.844,9.635-21.48,21.479-21.48    c7.531,0,11.108,4.052,16.104,10.725c3.712,4.958,8.332,11.129,16.416,11.129s12.703-6.171,16.416-11.129    c4.996-6.673,8.573-10.725,16.104-10.725c11.844,0,21.48,9.636,21.48,21.48C309.795,203.836,309.795,208.839,297.914,223.804z"/>
	</g>
</g>
<g>
	<g>
		<path d="M160.433,328.603h-0.131c-5.522,0-10,4.477-10,10s4.478,10,10,10h0.131c5.522,0,10-4.477,10-10    S165.955,328.603,160.433,328.603z"/>
	</g>
</g>
<g>
	<g>
		<path d="M355.42,328.602H192.784c-5.522,0-10,4.477-10,10s4.478,10,10,10H355.42c5.522,0,10-4.477,10-10    S360.942,328.602,355.42,328.602z"/>
	</g>
</g>
<g>
	<g>
		<path d="M160.433,379.889h-0.131c-5.522,0-10,4.477-10,10s4.478,10,10,10h0.131c5.522,0,10-4.477,10-10    S165.955,379.889,160.433,379.889z"/>
	</g>
</g>
<g>
	<g>
		<path d="M355.42,379.888H192.784c-5.522,0-10,4.477-10,10s4.478,10,10,10H355.42c5.522,0,10-4.477,10-10    S360.942,379.888,355.42,379.888z"/>
	</g>
</g>
<g>
</g>
<g>
</g>
<g>
</g>
<g>
</g>
<g>
</g>
<g>
</g>
<g>
</g>
<g>
</g>
<g>
</g>
<g>
</g>
<g>
</g>
<g>
</g>
<g>
</g>
<g>
</g>
<g>
</g>
</svg>
