<?xml version="1.0" encoding="iso-8859-1"?>
<!-- Generator: Adobe Illustrator 19.0.0, SVG Export Plug-In . SVG Version: 6.00 Build 0)  -->
<svg xmlns="http://www.w3.org/2000/svg" xmlns:xlink="http://www.w3.org/1999/xlink" version="1.1" id="Layer_1" x="0px" y="0px" viewBox="0 0 512.001 512.001" style="enable-background:new 0 0 512.001 512.001;" xml:space="preserve">
<g>
	<g>
		<path d="M411.572,421.431c-3.905-3.906-10.247-3.894-14.152,0.011c-3.967,3.842-4.069,10.17-0.228,14.138    c1.962,2.026,4.572,3.044,7.185,3.044c2.505,0,5.013-0.936,6.953-2.816l0.252-0.247    C415.488,431.656,415.477,425.336,411.572,421.431z"/>
	</g>
</g>
<g>
	<g>
		<path d="M422.722,399.469c-3.408-20.278-20.824-34.997-41.413-34.997c-23.157,0-41.997,18.841-41.997,41.998    c0,20.677,15.407,38.54,35.838,41.549c0.494,0.073,0.985,0.108,1.47,0.108c4.878-0.001,9.148-3.575,9.88-8.544    c0.804-5.464-2.973-10.544-8.436-11.349c-10.691-1.575-18.754-10.932-18.754-21.764c0-12.13,9.868-21.999,21.998-21.999    c10.785,0.001,19.907,7.702,21.691,18.314c0.915,5.446,6.07,9.121,11.518,8.204C419.965,410.072,423.638,404.914,422.722,399.469z    "/>
	</g>
</g>
<g>
	<g>
		<path d="M334.976,344.814c-3.842-3.968-10.171-4.071-14.139-0.229c-0.012,0.011-0.117,0.113-0.142,0.138    c-3.964,3.843-4.065,10.169-0.225,14.135c1.962,2.026,4.572,3.044,7.185,3.044c2.504,0,5.012-0.936,6.954-2.815l0.137-0.134    C338.715,355.112,338.818,348.782,334.976,344.814z"/>
	</g>
</g>
<g>
	<g>
		<path d="M346.001,322.747c-3.409-20.278-20.826-34.997-41.414-34.997c-11.218,0-21.763,4.369-29.696,12.301    c-7.932,7.933-12.301,18.48-12.3,29.697c-0.001,20.676,15.406,38.539,35.838,41.549c0.494,0.072,0.985,0.108,1.47,0.108    c4.878-0.001,9.147-3.575,9.88-8.543c0.804-5.464-2.973-10.544-8.436-11.349c-10.691-1.575-18.755-10.931-18.754-21.764    c0-5.877,2.287-11.401,6.443-15.556c4.156-4.155,9.679-6.444,15.555-6.444c10.785,0.001,19.908,7.702,21.692,18.315    c0.916,5.447,6.068,9.117,11.519,8.203C343.245,333.35,346.917,328.192,346.001,322.747z"/>
	</g>
</g>
<g>
	<g>
		<path d="M466.552,393.867L286.577,213.892c-24.587-24.587-63.218-26.764-90.305-6.552l-70.396-70.396l43.383-43.384    c1.877-1.877,2.931-4.423,2.929-7.076l-0.017-25.455c-0.004-5.521-4.479-9.993-9.999-9.993h-15.508l-0.01-15.525    c-0.004-5.521-4.479-9.993-9.999-9.993h-15.508l-0.01-15.525C121.132,4.473,116.657,0,111.137,0H85.699    c-2.652,0-5.195,1.054-7.07,2.929L28.175,53.385c-3.905,3.905-3.905,10.236,0,14.141l1.555,1.555    c0.002,0.002,0.003,0.003,0.005,0.005l152.391,152.391c-8.853,11.856-13.645,26.225-13.645,41.365    c0,18.536,7.175,35.917,20.202,48.945l179.974,179.974c13.494,13.494,31.219,20.24,48.944,20.24    c17.726,0,35.454-6.748,48.95-20.244c13.027-13.028,20.202-30.411,20.202-48.945C486.754,424.277,479.579,406.894,466.552,393.867    z M49.388,60.455L89.841,20h11.304l0.007,11.316L60.701,71.768L49.388,60.455z M74.905,85.972l40.454-40.455h11.304l0.007,11.316    L86.218,97.286L74.905,85.972z M100.423,111.49l40.454-40.455h11.304l0.007,11.316l-40.451,40.452L100.423,111.49z     M452.406,477.62c-9.597,9.597-22.198,14.395-34.804,14.394c-12.603-0.001-25.21-4.799-34.804-14.394L217.274,312.097    l39.611-39.611c3.905-3.905,3.905-10.236,0-14.141c-3.906-3.905-10.235-3.905-14.142,0l-39.611,39.611l-0.309-0.309    c-9.25-9.25-14.346-21.611-14.346-34.804c0-12.417,4.516-24.093,12.758-33.136c0.648-0.4,1.264-0.871,1.826-1.433    c0.56-0.56,1.031-1.175,1.43-1.821c9.363-8.537,21.25-12.811,33.139-12.811c12.604,0,25.209,4.798,34.804,14.394l179.974,179.974    c9.25,9.25,14.346,21.61,14.346,34.804C466.756,456.005,461.66,468.365,452.406,477.62z"/>
	</g>
</g>
<g>
</g>
<g>
</g>
<g>
</g>
<g>
</g>
<g>
</g>
<g>
</g>
<g>
</g>
<g>
</g>
<g>
</g>
<g>
</g>
<g>
</g>
<g>
</g>
<g>
</g>
<g>
</g>
<g>
</g>
</svg>
