<?xml version="1.0" encoding="UTF-8" standalone="no"?>
<!DOCTYPE svg PUBLIC "-//W3C//DTD SVG 1.1//EN"
 "http://www.w3.org/Graphics/SVG/1.1/DTD/svg11.dtd">
<!-- Generated by graphviz version 2.40.1 (20161225.0304)
 -->
<!-- Title: dependencies Pages: 1 -->
<svg width="1262pt" height="211pt"
 viewBox="0.00 0.00 1262.00 211.00" xmlns="http://www.w3.org/2000/svg" xmlns:xlink="http://www.w3.org/1999/xlink">
<g id="graph0" class="graph" transform="scale(1 1) rotate(0) translate(4 207)">
<title>dependencies</title>
<polygon fill="#ffffff" stroke="transparent" points="-4,4 -4,-207 1258,-207 1258,4 -4,4"/>
<text text-anchor="start" x="606.0091" y="-42.4" font-family="sans-serif" font-weight="bold" font-size="14.00" fill="#000000">Legend</text>
<polygon fill="#ffffb3" stroke="transparent" points="393,-10 393,-30 413,-30 413,-10 393,-10"/>
<text text-anchor="start" x="416.629" y="-15.4" font-family="sans-serif" font-size="14.00" fill="#000000"> &#160;Declarations</text>
<polygon fill="#8dd3c7" stroke="transparent" points="506,-10 506,-30 526,-30 526,-10 506,-10"/>
<text text-anchor="start" x="529.7251" y="-15.4" font-family="sans-serif" font-size="14.00" fill="#000000"> &#160;Module</text>
<polygon fill="#80b1d3" stroke="transparent" points="592,-10 592,-30 612,-30 612,-10 592,-10"/>
<text text-anchor="start" x="615.7812" y="-15.4" font-family="sans-serif" font-size="14.00" fill="#000000"> &#160;Bootstrap</text>
<polygon fill="#fdb462" stroke="transparent" points="689,-10 689,-30 709,-30 709,-10 689,-10"/>
<text text-anchor="start" x="712.6732" y="-15.4" font-family="sans-serif" font-size="14.00" fill="#000000"> &#160;Providers</text>
<polygon fill="#fb8072" stroke="transparent" points="785,-10 785,-30 805,-30 805,-10 785,-10"/>
<text text-anchor="start" x="808.7258" y="-15.4" font-family="sans-serif" font-size="14.00" fill="#000000"> &#160;Exports</text>
<g id="clust1" class="cluster">
<title>cluster_DentalOfficesModule</title>
<polygon fill="none" stroke="#000000" stroke-dasharray="1,5" points="8,-70 8,-195 1246,-195 1246,-70 8,-70"/>
</g>
<g id="clust2" class="cluster">
<title>cluster_DentalOfficesModule_declarations</title>
<polygon fill="none" stroke="#000000" points="762,-78 762,-130 1238,-130 1238,-78 762,-78"/>
</g>
<g id="clust6" class="cluster">
<title>cluster_DentalOfficesModule_imports</title>
<polygon fill="none" stroke="#000000" points="438,-78 438,-130 754,-130 754,-78 438,-78"/>
</g>
<g id="clust9" class="cluster">
<title>cluster_DentalOfficesModule_providers</title>
<polygon fill="none" stroke="#000000" points="16,-78 16,-130 430,-130 430,-78 16,-78"/>
</g>
<!-- DentalOfficesComponent -->
<g id="node1" class="node">
<title>DentalOfficesComponent</title>
<polygon fill="#ffffb3" stroke="#000000" points="1229.8417,-122 1070.1583,-122 1070.1583,-86 1229.8417,-86 1229.8417,-122"/>
<text text-anchor="middle" x="1150" y="-99.8" font-family="Times,serif" font-size="14.00" fill="#000000">DentalOfficesComponent</text>
</g>
<!-- DentalOfficesModule -->
<g id="node4" class="node">
<title>DentalOfficesModule</title>
<polygon fill="#8dd3c7" stroke="#000000" points="766.059,-187 763.059,-191 742.059,-191 739.059,-187 627.941,-187 627.941,-151 766.059,-151 766.059,-187"/>
<text text-anchor="middle" x="697" y="-164.8" font-family="Times,serif" font-size="14.00" fill="#000000">DentalOfficesModule</text>
</g>
<!-- DentalOfficesComponent&#45;&gt;DentalOfficesModule -->
<g id="edge1" class="edge">
<title>DentalOfficesComponent&#45;&gt;DentalOfficesModule</title>
<path fill="none" stroke="#000000" d="M1150,-122.2843C1150,-143.3211 1150,-175 1150,-175 1150,-175 776.2941,-175 776.2941,-175"/>
<polygon fill="#000000" stroke="#000000" points="776.2941,-171.5001 766.2941,-175 776.294,-178.5001 776.2941,-171.5001"/>
</g>
<!-- OfficeComponent -->
<g id="node2" class="node">
<title>OfficeComponent</title>
<polygon fill="#ffffb3" stroke="#000000" points="1052.58,-122 935.42,-122 935.42,-86 1052.58,-86 1052.58,-122"/>
<text text-anchor="middle" x="994" y="-99.8" font-family="Times,serif" font-size="14.00" fill="#000000">OfficeComponent</text>
</g>
<!-- OfficeComponent&#45;&gt;DentalOfficesModule -->
<g id="edge2" class="edge">
<title>OfficeComponent&#45;&gt;DentalOfficesModule</title>
<path fill="none" stroke="#000000" d="M994,-122.0225C994,-139.3734 994,-163 994,-163 994,-163 776.2585,-163 776.2585,-163"/>
<polygon fill="#000000" stroke="#000000" points="776.2585,-159.5001 766.2585,-163 776.2584,-166.5001 776.2585,-159.5001"/>
</g>
<!-- OfficeFormComponent -->
<g id="node3" class="node">
<title>OfficeFormComponent</title>
<polygon fill="#ffffb3" stroke="#000000" points="917.9144,-122 770.0856,-122 770.0856,-86 917.9144,-86 917.9144,-122"/>
<text text-anchor="middle" x="844" y="-99.8" font-family="Times,serif" font-size="14.00" fill="#000000">OfficeFormComponent</text>
</g>
<!-- OfficeFormComponent&#45;&gt;DentalOfficesModule -->
<g id="edge3" class="edge">
<title>OfficeFormComponent&#45;&gt;DentalOfficesModule</title>
<path fill="none" stroke="#000000" d="M770.2397,-104C761.7858,-104 756.1203,-104 756.1203,-104 756.1203,-104 756.1203,-140.8939 756.1203,-140.8939"/>
<polygon fill="#000000" stroke="#000000" points="752.6204,-140.8938 756.1203,-150.8939 759.6204,-140.8939 752.6204,-140.8938"/>
</g>
<!-- SharedModule -->
<g id="node5" class="node">
<title>SharedModule</title>
<polygon fill="#8dd3c7" stroke="#000000" points="746.4231,-122 743.4231,-126 722.4231,-126 719.4231,-122 647.5769,-122 647.5769,-86 746.4231,-86 746.4231,-122"/>
<text text-anchor="middle" x="697" y="-99.8" font-family="Times,serif" font-size="14.00" fill="#000000">SharedModule</text>
</g>
<!-- SharedModule&#45;&gt;DentalOfficesModule -->
<g id="edge4" class="edge">
<title>SharedModule&#45;&gt;DentalOfficesModule</title>
<path fill="none" stroke="#000000" d="M697,-122.1061C697,-122.1061 697,-140.991 697,-140.991"/>
<polygon fill="#000000" stroke="#000000" points="693.5001,-140.9909 697,-150.991 700.5001,-140.991 693.5001,-140.9909"/>
</g>
<!-- DentalOfficesRoutingModule -->
<g id="node6" class="node">
<title>DentalOfficesRoutingModule</title>
<polygon fill="#8dd3c7" stroke="#000000" points="629.6769,-122 626.6769,-126 605.6769,-126 602.6769,-122 446.3231,-122 446.3231,-86 629.6769,-86 629.6769,-122"/>
<text text-anchor="middle" x="538" y="-99.8" font-family="Times,serif" font-size="14.00" fill="#000000">DentalOfficesRoutingModule</text>
</g>
<!-- DentalOfficesRoutingModule&#45;&gt;DentalOfficesModule -->
<g id="edge5" class="edge">
<title>DentalOfficesRoutingModule&#45;&gt;DentalOfficesModule</title>
<path fill="none" stroke="#000000" d="M629.7532,-104C635.2948,-104 638.6887,-104 638.6887,-104 638.6887,-104 638.6887,-140.8939 638.6887,-140.8939"/>
<polygon fill="#000000" stroke="#000000" points="635.1887,-140.8938 638.6887,-150.8939 642.1887,-140.8939 635.1887,-140.8938"/>
</g>
<!-- OfficeService -->
<g id="node7" class="node">
<title>OfficeService</title>
<ellipse fill="#fdb462" stroke="#000000" cx="357" cy="-104" rx="64.8002" ry="18"/>
<text text-anchor="middle" x="357" y="-99.8" font-family="Times,serif" font-size="14.00" fill="#000000">OfficeService</text>
</g>
<!-- OfficeService&#45;&gt;DentalOfficesModule -->
<g id="edge6" class="edge">
<title>OfficeService&#45;&gt;DentalOfficesModule</title>
<path fill="none" stroke="#000000" d="M357,-122.0225C357,-139.3734 357,-163 357,-163 357,-163 617.7861,-163 617.7861,-163"/>
<polygon fill="#000000" stroke="#000000" points="617.7861,-166.5001 627.7861,-163 617.7861,-159.5001 617.7861,-166.5001"/>
</g>
<!-- DentalOfficesResolveService -->
<g id="node8" class="node">
<title>DentalOfficesResolveService</title>
<ellipse fill="#fdb462" stroke="#000000" cx="149" cy="-104" rx="125.0124" ry="18"/>
<text text-anchor="middle" x="149" y="-99.8" font-family="Times,serif" font-size="14.00" fill="#000000">DentalOfficesResolveService</text>
</g>
<!-- DentalOfficesResolveService&#45;&gt;DentalOfficesModule -->
<g id="edge7" class="edge">
<title>DentalOfficesResolveService&#45;&gt;DentalOfficesModule</title>
<path fill="none" stroke="#000000" d="M149,-122.2843C149,-143.3211 149,-175 149,-175 149,-175 617.8731,-175 617.8731,-175"/>
<polygon fill="#000000" stroke="#000000" points="617.8731,-178.5001 627.8731,-175 617.873,-171.5001 617.8731,-178.5001"/>
</g>
</g>
</svg>
