<?xml version="1.0" encoding="iso-8859-1"?>
<!-- Generator: Adobe Illustrator 19.0.0, SVG Export Plug-In . SVG Version: 6.00 Build 0)  -->
<svg xmlns="http://www.w3.org/2000/svg" xmlns:xlink="http://www.w3.org/1999/xlink" version="1.1" id="Layer_1" x="0px" y="0px" viewBox="0 0 512 512" style="enable-background:new 0 0 512 512;" xml:space="preserve">
<path style="fill:#916B3F;" d="M161.971,194.073v-26.927c-20.644,0-22.323,0.626-26.411-2.251v55.892h0.146  C135.503,205.83,147.501,194.073,161.971,194.073z"/>
<g>
	<path style="fill:#F9D7AF;" d="M346.333,193.036v54.628c17.521,0,28.349-13.313,28.349-27.314   C374.682,206.342,363.849,193.036,346.333,193.036z"/>
	<path style="fill:#F9D7AF;" d="M134.657,220.349c0,14.018,10.841,27.314,28.351,27.314v-54.628   C145.505,193.036,134.657,206.335,134.657,220.349z"/>
</g>
<path style="fill:#64B573;" d="M354.729,360.525c-3.663,0-192.978,0-200.428,0c-35.854,0-64.922,29.067-64.922,64.921v74.188  c0,6.83,5.536,12.366,12.365,12.366h308.514c6.829,0,12.365-5.536,12.365-12.366v-74.188  C422.623,392.136,397.108,360.525,354.729,360.525z"/>
<path style="fill:#FCDEB4;" d="M309.279,360.525h-16.122v-32.009c-23.698,10.829-50.79,11.03-74.313,1.168v30.841h-18.78  C222.2,406.072,287.106,406.146,309.279,360.525z"/>
<path style="fill:#F2C497;" d="M239.217,367.278v-31.705c-7.095-1.192-13.919-3.184-20.372-5.889v30.841h-18.78  c3.147,6.476,7.419,12.303,12.55,17.245c5.454,0,10.019,0,15.34,0C227.954,377.77,239.217,377.469,239.217,367.278z"/>
<path style="fill:#B79465;" d="M347.37,167.146v26.927c14.446,0,26.459,11.724,26.266,26.715h0.146v-55.892  C369.672,167.784,367.957,167.146,347.37,167.146z"/>
<path style="fill:#4C9B57;" d="M110.106,499.634v-74.188c0-35.854,29.067-64.921,64.921-64.921h-20.726  c-35.854,0-64.922,29.067-64.922,64.921v74.188c0,6.83,5.536,12.366,12.365,12.366h20.726  C115.641,512,110.106,506.464,110.106,499.634z"/>
<path style="fill:#FCDEB4;" d="M333.056,297.004c9.065-14.323,14.314-31.305,14.314-49.512v-80.345h-62.56  c-16.244,17.633-44.038,17.634-60.278,0h-62.561v80.345c0,80.674,96.065,122.447,155.179,68.482"/>
<path style="fill:#F2C497;" d="M183.383,247.492v-80.345h-21.411v80.345c0,55.102,47.91,98.415,103.326,92.072  C219.182,334.222,183.383,295.043,183.383,247.492z"/>
<path style="fill:#FCE3C5;" d="M259.556,180.073c8.102,49.782,29.75,95.01,61.046,131.784l12.454-14.852  c9.065-14.323,14.314-31.305,14.314-49.512v-80.345h-62.56C278.358,174.148,269.506,178.889,259.556,180.073z"/>
<path style="fill:#B3E5BD;" d="M309.279,360.525c-22.137,45.546-87.043,45.622-109.214,0h-33.091  c10.049,33.279,38.562,58.612,73.57,64.057V512h30.916c0-7.179,0-76.914,0-87.875c33.785-6.287,61.116-31.168,70.908-63.6H309.279z"/>
<path style="fill:#F2C497;" d="M254.67,252.339c-4.293,0-7.772-3.479-7.772-7.772v-16.642c0-4.293,3.478-7.773,7.772-7.773  c4.293,0,7.772,3.479,7.772,7.773v16.642C262.442,248.86,258.963,252.339,254.67,252.339z"/>
<path style="fill:#4F4A4C;" d="M304.877,222.849c0,4.896-3.969,8.867-8.867,8.867l0,0c-4.896,0-8.867-3.971-8.867-8.867l0,0  c0-4.897,3.971-8.868,8.867-8.868C300.907,213.981,304.877,217.953,304.877,222.849L304.877,222.849z"/>
<path style="fill:#A58659;" d="M277.068,205.761c-1.676-3.951,0.168-8.514,4.12-10.189c0.713-0.302,17.697-7.349,36.968-1.876  c4.129,1.174,6.525,5.472,5.353,9.6c-1.172,4.13-5.471,6.526-9.6,5.354c-13.833-3.932-26.527,1.181-26.653,1.233  C283.296,211.561,278.738,209.705,277.068,205.761z"/>
<path style="fill:#4F4A4C;" d="M204.465,222.849c0,4.898,3.97,8.867,8.867,8.867c4.898,0,8.867-3.971,8.867-8.867l0,0  c0-4.896-3.969-8.868-8.867-8.868l0,0C208.434,213.981,204.465,217.953,204.465,222.849L204.465,222.849z"/>
<path style="fill:#A58659;" d="M222.118,209.896c-0.26-0.105-12.904-5.162-26.685-1.246c-4.127,1.173-8.425-1.226-9.6-5.354  c-1.172-4.128,1.225-8.426,5.353-9.6c19.271-5.473,36.255,1.572,36.97,1.876c3.952,1.676,5.797,6.238,4.12,10.189  C230.607,209.699,226.066,211.55,222.118,209.896z"/>
<g>
	<path style="fill:#4B9B56;" d="M153.168,512v-56.679c0-4.293-3.478-7.773-7.772-7.773c-4.293,0-7.773,3.479-7.773,7.773V512   H153.168z"/>
	<path style="fill:#4B9B56;" d="M374.381,512v-56.679c0-4.293-3.479-7.773-7.772-7.773c-4.293,0-7.773,3.479-7.773,7.773V512   H374.381z"/>
</g>
<g>
	<path style="fill:#A58659;" d="M287.976,118.66c0.013,0.015,0.026,0.033,0.037,0.052   C288.002,118.693,287.988,118.675,287.976,118.66z"/>
	<path style="fill:#A58659;" d="M222.338,117.357c-0.637,1.241,9.911-15.821,32.332-15.821c21.355,0,32.334,15.821,32.334,15.821   c86.601,0,82.313-0.806,86.639,2.147h0.002c0,0,10.821-80.315-44.808-83.579C309.114-0.585,260.135-4.317,219.28,3.285   c-7.757,1.533-62.993,14.357-77.685,71.216c-2.635,12.198-4.089,26.38-4.089,42.856   C137.506,117.357,215.239,117.357,222.338,117.357z"/>
	<path style="fill:#A58659;" d="M287.976,118.66c0.013,0.015,0.026,0.033,0.037,0.052   C288.002,118.693,287.988,118.675,287.976,118.66z"/>
	<path style="fill:#A58659;" d="M311.534,118.66c0.013,0.015,0.026,0.033,0.036,0.052   C311.56,118.693,311.547,118.675,311.534,118.66z"/>
</g>
<path style="fill:#916B3F;" d="M242.837,3.285c7.092-1.316,14.527-2.261,21.761-2.764c-68.099-5.2-111.408,29.106-123.003,73.979  c-2.635,12.198-4.089,26.38-4.089,42.856c0.006,0,23.558,0,23.558,0c0-16.476,1.455-30.658,4.088-42.856  C179.844,17.643,235.081,4.818,242.837,3.285z"/>
<path style="fill:#B79465;" d="M328.837,35.926c-8.845-16.372-23.196-25.747-39.135-30.768  c-16.192,29.295-27.137,61.895-31.531,96.545c11.712,0.994,22.016,6.901,28.842,15.666c-0.005-0.003-0.007-0.006-0.009-0.01  c86.601,0,82.313-0.806,86.639,2.147h0.002C373.645,119.505,384.466,39.19,328.837,35.926z"/>
<g>
	<path style="fill:#DBDADF;" d="M366.683,115.284h-79.679c12.357,15.866,11.318,38.229-2.194,52.898h81.873   c6.83,0,12.365-5.536,12.365-12.366V127.65C379.047,120.821,373.512,115.284,366.683,115.284z"/>
	<path style="fill:#DBDADF;" d="M222.338,115.284h-79.679c-6.829,0-12.367,5.537-12.367,12.366v28.167   c0,6.83,5.538,12.366,12.367,12.366h81.873C210.977,153.471,210.015,131.106,222.338,115.284z"/>
</g>
<path style="fill:#B8BFC1;" d="M152.945,155.817V127.65c0-6.829,5.538-12.366,12.367-12.366h-22.653  c-6.829,0-12.367,5.537-12.367,12.366v28.167c0,6.83,5.538,12.366,12.367,12.366h22.653  C158.483,168.183,152.945,162.647,152.945,155.817z"/>
<path style="fill:#F2F2F2;" d="M244.095,100.317c-22.121,5.831-35.375,28.574-29.544,50.696  c5.833,22.121,28.574,35.375,50.697,29.543c22.121-5.832,35.375-28.574,29.543-50.696  C288.96,107.737,266.215,94.485,244.095,100.317z"/>
<path style="fill:#DEDEE0;" d="M253.666,98.981c-27.042,0.649-45.866,26.419-39.115,52.032  c5.325,20.198,24.751,32.995,44.926,30.628C228.161,165.264,223.31,120.75,253.666,98.981z"/>
<path style="fill:#F5F5FC;" d="M259.807,181.595c20.461-2.541,36.354-20.022,36.354-41.161c0-21.576-16.558-39.351-37.634-41.305  C254.763,126.718,255.217,154.351,259.807,181.595z"/>
<path style="fill:#FFFFFF;" d="M263.539,140.436c0,4.897-3.971,8.867-8.869,8.867l0,0c-4.897,0-8.865-3.97-8.865-8.867l0,0  c0-4.897,3.969-8.867,8.865-8.867C259.569,131.567,263.539,135.539,263.539,140.436L263.539,140.436z"/>
<path style="fill:#B3E5BD;" d="M161.971,246.627c0,82.478,96.473,122.943,155.179,69.346l16.765-20.354  c8.874-14.582,13.455-30.858,13.455-48.991L161.971,246.627L161.971,246.627z"/>
<path style="fill:#93CC9D;" d="M265.298,339.564c-44.853-5.195-81.915-42.934-81.915-92.936h-21.411  C161.971,304.493,211.685,345.944,265.298,339.564z"/>
<path style="fill:#BFEFC7;" d="M320.571,311.821l13.345-16.202c8.874-14.582,13.455-30.858,13.455-48.991h-67.922  C290.042,270.356,303.947,292.28,320.571,311.821z"/>
<path style="fill:#93CC9D;" d="M256.002,512V394.747c-24.17,0.534-45.745-13.249-55.937-34.222h-33.091  c10.049,33.279,38.562,58.612,73.57,64.057V512H256.002z"/>
<g>
</g>
<g>
</g>
<g>
</g>
<g>
</g>
<g>
</g>
<g>
</g>
<g>
</g>
<g>
</g>
<g>
</g>
<g>
</g>
<g>
</g>
<g>
</g>
<g>
</g>
<g>
</g>
<g>
</g>
</svg>
