<?xml version="1.0" encoding="iso-8859-1"?>
<!-- Generator: Adobe Illustrator 19.0.0, SVG Export Plug-In . SVG Version: 6.00 Build 0)  -->
<svg xmlns="http://www.w3.org/2000/svg" xmlns:xlink="http://www.w3.org/1999/xlink" version="1.1" id="Layer_1" x="0px" y="0px" viewBox="0 0 512 512" style="enable-background:new 0 0 512 512;" xml:space="preserve">
<path style="fill:#A58659;" d="M462.701,49.036H55.076c-8.155,0-14.77,6.614-14.77,14.77V84.73h96.308l31.966,43.076  c7.519,0,326.65,0,328.65,0c8.155,0,14.77,6.613,14.77,14.769V63.806c0-8.155-6.614-14.77-14.77-14.77H462.701"/>
<path style="fill:#7C5F39;" d="M75.681,49.036H55.076c-8.155,0-14.77,6.614-14.77,14.77V84.73H60.91V63.806  C60.911,55.65,67.525,49.036,75.681,49.036z"/>
<path style="fill:#B29166;" d="M512,63.806c0-8.155-6.614-14.77-14.77-14.77c-17.768,0-238.397,0-245.813,0  c-6.67,25.052-9.817,51.279-8.898,78.77c2.457,0,251.388,0,254.71,0c8.155,0,14.77,6.613,14.77,14.769V63.806H512z"/>
<path style="fill:#E5C59A;" d="M497.23,125.745c-2.003,0-321.143,0-328.65,0l-31.966-43.076H14.769C6.612,82.669,0,89.282,0,97.437  v350.757c0,8.157,6.612,14.77,14.769,14.77c8.549,0,469.308,0,482.461,0c8.155,0,14.77-6.612,14.77-14.77  c0-2.558,0-296.066,0-303.386v-4.294C512,132.358,505.386,125.745,497.23,125.745z"/>
<path style="fill:#D8A96F;" d="M21.183,448.194V97.437c0-8.155,6.614-14.769,14.77-14.769H14.769C6.612,82.669,0,89.282,0,97.437  v350.757c0,8.157,6.612,14.77,14.769,14.77h21.183C27.797,462.964,21.183,456.352,21.183,448.194z"/>
<path style="fill:#EFD1AC;" d="M512,144.809v-4.294c0-8.156-6.614-14.77-14.77-14.77c-5.704,0-251.548,0-254.789,0  C246.241,271.357,365.47,388.231,512,388.231C512,370.507,512,152.359,512,144.809z"/>
<path style="fill:#B0DCF7;" d="M281.587,180.607L281.587,180.607h-0.002l0,0c-6.725,0.045-16.523,2.602-25.587,8.617  c-8.986-5.964-18.814-8.572-25.585-8.617c0,0,0,0-0.002,0c0.007,0-0.376-0.007-0.93,0.009c-29.979-0.513-50.7,29.842-42.884,64.037  c3.475,15.373,12.414,29.916,25.979,39.414c-5.213,40.275,17.583,75.397,21.553,53.345c1.295-7.13-0.49-15.668,3.275-26.225  c0.002-0.002,0.002-0.004,0.002-0.004c0.5-1,3.366-9.938,12.216-12.509l0.002-0.002c1-0.5,7.127-1.874,12.748,0l0.002,0.002  c11.903,3.519,14.686,17.487,14.906,29.941c0.445,38.518,27.724-1.618,22.138-44.549c4.942-3.462,9.317-7.585,13.162-12.44  l0.002-0.006C341.165,235.375,325.715,180.057,281.587,180.607z"/>
<path style="fill:#7AC1DD;" d="M232.731,277.612c-33.172-23.247-38.048-76.108-6.128-96.933  c-48.194,2.538-56.601,73.578-14.026,103.388c-5.166,39.91,17.086,74.472,21.381,54.137c1.401-6.302-0.03-9.909,1.906-21.333  C232.275,304.941,230.99,291.06,232.731,277.612z"/>
<path style="fill:#C5E7F9;" d="M281.587,180.607L281.587,180.607h-0.002l0,0c-6.725,0.045-16.523,2.602-25.587,8.617  c-1.658-1.1-3.36-2.092-5.091-2.993c9.379,36.304,26.133,69.64,48.565,98.321c-0.021-0.162-0.03-0.322-0.053-0.485  c4.942-3.462,9.317-7.585,13.162-12.44l0.002-0.006C341.165,235.375,325.715,180.057,281.587,180.607z"/>
<g>
	<path style="fill:#FCDEB4;" d="M363.999,389.777h-210.46c-4.269,0-7.728-3.459-7.728-7.727c0-4.268,3.459-7.727,7.728-7.727h210.46   c4.268,0,7.727,3.459,7.727,7.727C371.726,386.318,368.267,389.777,363.999,389.777z"/>
	<path style="fill:#FCDEB4;" d="M363.999,421.703h-210.46c-4.269,0-7.728-3.459-7.728-7.728c0-4.267,3.459-7.727,7.728-7.727h210.46   c4.268,0,7.727,3.459,7.727,7.727C371.726,418.244,368.267,421.703,363.999,421.703z"/>
</g>
<g>
</g>
<g>
</g>
<g>
</g>
<g>
</g>
<g>
</g>
<g>
</g>
<g>
</g>
<g>
</g>
<g>
</g>
<g>
</g>
<g>
</g>
<g>
</g>
<g>
</g>
<g>
</g>
<g>
</g>
</svg>
