<?xml version="1.0" encoding="iso-8859-1"?>
<!-- Generator: Adobe Illustrator 19.0.0, SVG Export Plug-In . SVG Version: 6.00 Build 0)  -->
<svg xmlns="http://www.w3.org/2000/svg" xmlns:xlink="http://www.w3.org/1999/xlink" version="1.1" id="Layer_1" x="0px" y="0px" viewBox="0 0 512 512" style="enable-background:new 0 0 512 512;" xml:space="preserve">
<path style="fill:#B0DCF7;" d="M295.193,160.993L295.193,160.993c0,0-2.793-0.006-2.794-0.006l0,0  c-10.814,0-25.835,5.205-36.567,12.316c-20.4-13.483-38.821-12.316-36.568-12.316c-74.672,0-86.742,105.316-25.486,147.851  c-8.168,62.869,31.626,117.141,31.626,65.125c0-18.185,3.9-39.079,21.315-44.246c0.003-0.003,0.005-0.001,0.008-0.004  c6.062-1.823,11.9-1.894,18.21,0c0,0.002,0.004,0.002,0.006,0.004c17.351,5.085,21.315,26.098,21.315,44.246  c0,51.736,39.843-1.788,31.628-65.125C382.446,264.063,362.971,160.993,295.193,160.993z"/>
<path style="fill:#BBE6FC;" d="M292.399,160.987L292.399,160.987c-9.841,0-23.32,4.423-32.16,9.614  c-10.443,61.921,11.43,124.406,58.323,166.244c0.668-9.316,0.609-18.099-0.677-28.007  C380.47,265.435,365.942,160.342,292.399,160.987z"/>
<path style="fill:#9FC95D;" d="M426.531,223.486c0.353,0.844,1.128,1.433,2.035,1.548c40.414,5.106,70.465-35.439,55.022-72.367  c-0.588-1.401-1.654-1.96-8.619-1.96C437.052,150.707,412.222,189.262,426.531,223.486z"/>
<path style="fill:#8CB543;" d="M456.323,154.092c-27.62,10.407-41.265,41.953-29.792,69.393c0.353,0.844,1.128,1.433,2.035,1.548  c12.554,1.586,25.915-1.324,37.058-9.283C441.516,204.224,436.824,172.083,456.323,154.092z"/>
<path style="fill:#9FC95D;" d="M510.858,247.766c-33.764-22.386-78.86,0.296-81.424,40.424c-0.06,0.911,0.374,1.785,1.136,2.291  c33.782,22.39,78.865-0.296,81.425-40.427C512.053,249.144,511.621,248.27,510.858,247.766z"/>
<path style="fill:#8CB543;" d="M453.814,247.094c-14.107,8.915-23.303,24.222-24.379,41.096c-0.06,0.911,0.374,1.785,1.136,2.291  c15.99,10.599,36.443,11.716,53.503,2.716C462.79,289.606,448.541,268.583,453.814,247.094z"/>
<path style="fill:#9FC95D;" d="M403.447,356.034c-0.384,0.828-0.298,1.799,0.228,2.547c23.793,33.821,73.878,27.75,90.549-8.041  c0.387-0.828,0.301-1.799-0.225-2.547C470.651,314.819,420.443,319.559,403.447,356.034z"/>
<path style="fill:#8CB543;" d="M433.605,328.668c-13.13,4.653-24.134,14.437-30.159,27.366c-0.384,0.828-0.298,1.799,0.228,2.547  c16.211,23.043,47.76,29.306,71.551,13.813C450.159,375.404,429.39,353.484,433.605,328.668z"/>
<path style="fill:#9FC95D;" d="M402.016,162.772c0.693,0.612,1.659,0.793,2.507,0.501c38.242-13.005,48.029-62.544,17.765-89.153  c-0.687-0.605-1.644-0.794-2.507-0.501C381.607,86.605,371.694,136.11,402.016,162.772z"/>
<path style="fill:#8CB543;" d="M396.81,89.209c-19.027,22.189-16.015,54.903,5.206,73.564c0.693,0.612,1.659,0.793,2.507,0.501  c14.913-5.07,26.65-16.605,32.173-31.052C410.506,141.025,386.011,114.71,396.81,89.209z"/>
<path style="fill:#9FC95D;" d="M362.705,115.774c3.496-39.85-37.447-69.36-74.399-52.24c-0.829,0.384-1.389,1.182-1.47,2.093  c-3.54,40.282,37.839,69.185,74.398,52.24C362.065,117.481,362.625,116.683,362.705,115.774z"/>
<path style="fill:#8CB543;" d="M311.664,58.669c-8.162-0.201-16.259,1.575-23.359,4.864c-0.829,0.384-1.389,1.182-1.47,2.093  c-3.217,36.611,31.459,65.664,67.429,54.863C325.054,115.504,306.071,87.364,311.664,58.669z"/>
<path style="fill:#9FC95D;" d="M353.772,410.764c-0.664,0.63-0.939,1.565-0.726,2.453c9.493,39.251,57.871,53.561,87.181,25.764  c0.662-0.63,0.939-1.565,0.725-2.453C431.49,397.392,383.136,382.928,353.772,410.764z"/>
<path style="fill:#8CB543;" d="M374.611,400.879c-0.23-0.96,0.119-1.94,0.802-2.521c-8.016,2.305-15.428,6.517-21.639,12.406  c-0.664,0.63-0.939,1.565-0.726,2.453c9.42,38.949,57.622,53.686,87.105,25.834C411.468,447.307,381.626,429.885,374.611,400.879z"/>
<path style="fill:#C0E57A;" d="M308.257,434.522c-1.467-3.966,0.559-8.371,4.525-9.838  c123.827-45.807,151.74-215.742,46.664-300.271c-3.296-2.652-3.819-7.473-1.167-10.766c2.65-3.296,7.471-3.821,10.766-1.167  c114.21,91.877,84.2,276.57-50.949,326.568C314.139,440.513,309.726,438.498,308.257,434.522z"/>
<path style="fill:#7AC1DD;" d="M212.705,325.082c-1.006-31.254,5.963-16.096-10.779-32.875  c-38.548-38.409-36.953-106.739,6.185-130.553c-64.444,9.614-72.518,106.782-14.331,147.184  c-8.061,62.048,30.615,115.781,31.604,67.041C221.106,368.421,213.84,350.055,212.705,325.082z"/>
<path style="fill:#9FC95D;" d="M85.469,223.486c-0.353,0.844-1.128,1.433-2.035,1.548c-40.415,5.106-70.465-35.439-55.022-72.367  c0.588-1.401,1.654-1.96,8.619-1.96C74.949,150.707,99.779,189.262,85.469,223.486z"/>
<path style="fill:#8CB543;" d="M55.677,154.092c27.62,10.407,41.264,41.953,29.792,69.393c-0.353,0.844-1.128,1.433-2.035,1.548  c-12.554,1.586-25.915-1.324-37.057-9.283C70.484,204.224,75.176,172.083,55.677,154.092z"/>
<path style="fill:#9FC95D;" d="M1.142,247.766c33.764-22.386,78.86,0.296,81.424,40.424c0.061,0.911-0.374,1.785-1.136,2.291  c-33.782,22.39-78.865-0.296-81.425-40.427C-0.052,249.144,0.379,248.27,1.142,247.766z"/>
<path style="fill:#8CB543;" d="M58.186,247.094c14.106,8.915,23.303,24.222,24.379,41.096c0.061,0.911-0.374,1.785-1.136,2.291  c-15.99,10.599-36.443,11.716-53.503,2.716C49.21,289.606,63.459,268.583,58.186,247.094z"/>
<path style="fill:#9FC95D;" d="M108.554,356.034c0.384,0.828,0.298,1.799-0.228,2.547c-23.793,33.821-73.878,27.75-90.549-8.041  c-0.387-0.828-0.301-1.799,0.225-2.547C41.35,314.819,91.557,319.559,108.554,356.034z"/>
<path style="fill:#8CB543;" d="M78.395,328.668c13.13,4.653,24.134,14.437,30.159,27.366c0.384,0.828,0.298,1.799-0.228,2.547  c-16.211,23.043-47.76,29.306-71.551,13.813C61.842,375.404,82.61,353.484,78.395,328.668z"/>
<path style="fill:#9FC95D;" d="M109.984,162.772c-0.693,0.612-1.659,0.793-2.507,0.501c-38.242-13.005-48.029-62.544-17.765-89.153  c0.687-0.605,1.644-0.794,2.507-0.501C130.393,86.605,140.306,136.11,109.984,162.772z"/>
<path style="fill:#8CB543;" d="M115.191,89.209c19.027,22.189,16.015,54.903-5.206,73.564c-0.693,0.612-1.659,0.793-2.507,0.501  c-14.913-5.07-26.65-16.605-32.173-31.052C101.494,141.025,125.99,114.71,115.191,89.209z"/>
<path style="fill:#9FC95D;" d="M149.295,115.774c-3.496-39.85,37.447-69.36,74.399-52.24c0.829,0.384,1.389,1.182,1.47,2.093  c3.54,40.282-37.839,69.185-74.398,52.24C149.935,117.481,149.376,116.683,149.295,115.774z"/>
<path style="fill:#8CB543;" d="M200.336,58.669c8.162-0.201,16.259,1.575,23.359,4.864c0.829,0.384,1.389,1.182,1.47,2.093  c3.217,36.611-31.459,65.664-67.429,54.863C186.946,115.504,205.929,87.364,200.336,58.669z"/>
<path style="fill:#9FC95D;" d="M158.228,410.764c0.664,0.63,0.939,1.565,0.726,2.453c-9.493,39.251-57.871,53.561-87.181,25.764  c-0.662-0.63-0.939-1.565-0.725-2.453C80.51,397.392,128.865,382.928,158.228,410.764z"/>
<path style="fill:#8CB543;" d="M137.389,400.879c0.23-0.96-0.119-1.94-0.802-2.521c8.016,2.305,15.428,6.517,21.639,12.406  c0.664,0.63,0.939,1.565,0.726,2.453c-9.42,38.949-57.622,53.686-87.105,25.834C100.532,447.307,130.374,429.885,137.389,400.879z"/>
<path style="fill:#C0E57A;" d="M203.743,434.522c1.468-3.966-0.559-8.371-4.525-9.838  c-123.827-45.807-151.74-215.742-46.664-300.271c3.296-2.652,3.82-7.473,1.167-10.766c-2.65-3.296-7.471-3.821-10.766-1.167  c-114.209,91.877-84.199,276.57,50.95,326.568C197.861,440.513,202.274,438.498,203.743,434.522z"/>
<g>
</g>
<g>
</g>
<g>
</g>
<g>
</g>
<g>
</g>
<g>
</g>
<g>
</g>
<g>
</g>
<g>
</g>
<g>
</g>
<g>
</g>
<g>
</g>
<g>
</g>
<g>
</g>
<g>
</g>
</svg>
