<?xml version="1.0" encoding="iso-8859-1"?>
<!-- Generator: Adobe Illustrator 19.0.0, SVG Export Plug-In . SVG Version: 6.00 Build 0)  -->
<svg xmlns="http://www.w3.org/2000/svg" xmlns:xlink="http://www.w3.org/1999/xlink" version="1.1" id="Layer_1" x="0px" y="0px" viewBox="0 0 512.001 512.001" style="enable-background:new 0 0 512.001 512.001;" xml:space="preserve">
<path style="fill:#B0DCF7;" d="M334.257,0.01c0,0,0,0-0.002,0c0.002,0-5.565-0.01-5.565-0.01l0,0h-0.002c0,0,0,0-0.002,0  c-19.457,0.131-47.441,7.661-72.84,24.533C231.548,8.392,202.697,0.133,183.006,0c0,0,0,0-0.002,0c0,0-5.57,0.01-5.569,0.01  C78.83,0.01,24.191,114.103,70.093,217.968c13.055,29.72,34.373,57.296,62.141,76.55c-11.67,90.058,25.925,171.237,48.082,171.237  c0,0-0.813-0.059,16.284-0.059c13.896-1.05,14.637-15.597,14.576-19.612h1.999l-6.039-154.502c0-8.978,2.646-17.641,7.652-25.052  c13.7-20.299,34.27-19.938,43.04-19.779c30.024,0.533,46.706,22.469,46.724,44.793l-6.038,154.54h2  c-0.199,12.766,6.893,19.612,14.578,19.612c17.82,0,17.505,0.405,20.595-0.877c22.308-9.246,54.722-85.767,43.768-170.302  C508.217,205.327,469.8,1.205,334.257,0.01z"/>
<path style="fill:#7AC1DD;" d="M200.921,456.483c-21.587,0-58.037-77.369-48.802-165.035c0.353-4.655-1.734-8.21-4.276-9.818  l0.003-0.003C53.255,210.684,49.132,58.47,140.441,6.26C64.322,32.076,30.9,129.286,70.092,217.968  c13.055,29.72,34.373,57.296,62.141,76.55c-11.67,90.058,25.925,171.237,48.082,171.237c0,0-0.813-0.059,16.284-0.059  c7.26-0.55,10.927-4.782,12.766-9.272C200.625,456.425,200.886,456.483,200.921,456.483z"/>
<path style="fill:#BBE6FC;" d="M334.257,0.01c0,0,0,0-0.002,0c0.002,0-5.565-0.01-5.565-0.01l0,0h-0.002c0,0,0,0-0.002,0l0,0  c-17.862,0.121-43.735,6.452-69.104,22.139c-31.433,116.375,17.879,239.662,122.024,302.012c-0.169-9.699-0.851-19.607-2.15-29.632  C508.217,205.327,469.8,1.205,334.257,0.01z"/>
<path style="fill:#AA9A79;" d="M306.552,291.583c0-25.835-20.935-46.808-46.808-46.808l0,0c-7.709,0-31.209-2.187-46.614,20.637  c-5.047,7.472-7.994,16.479-7.994,26.171l7.439,190.324l0,0c0.239,1.348,2.303,30.093,17.082,30.093c12.606,0,42.062,0,52.375,0  c14.985,0,17.066-29.857,17.082-30.082v-0.011l0,0L306.552,291.583z"/>
<path style="fill:#938264;" d="M234.213,481.918c-0.003-0.016-7.441-190.316-7.441-190.335c0-23.367,17.165-42.915,39.892-46.284  c-2.26-0.334-4.565-0.523-6.918-0.523l0,0c-7.709,0-31.209-2.187-46.614,20.637c-5.047,7.472-7.994,16.479-7.994,26.171  c0.001,0.019,7.438,190.319,7.44,190.335c0.015,0.226,2.095,30.082,17.08,30.082c2.54,0,19.079,0,21.635,0  C236.307,512,234.226,482.144,234.213,481.918z"/>
<g>
	<path style="fill:#776A57;" d="M304.797,315.687l-100.833-23.55c-4.154-0.972-6.736-5.126-5.767-9.282   c0.972-4.155,5.125-6.737,9.282-5.768l100.832,23.55c4.155,0.972,6.737,5.126,5.767,9.282   C313.11,314.066,308.964,316.659,304.797,315.687z"/>
	<path style="fill:#776A57;" d="M302.367,361.217l-98.988-23.121c-4.155-0.971-6.737-5.126-5.767-9.282   c0.97-4.155,5.129-6.732,9.281-5.767l98.989,23.121c4.155,0.971,6.737,5.126,5.768,9.282   C310.677,359.61,306.518,362.19,302.367,361.217z"/>
	<path style="fill:#776A57;" d="M300.583,406.9l-93.868-21.928c-4.155-0.971-6.738-5.127-5.767-9.281   c0.97-4.156,5.127-6.734,9.282-5.767l93.867,21.927c4.156,0.972,6.737,5.127,5.767,9.282   C308.898,405.269,304.763,407.873,300.583,406.9z"/>
	<path style="fill:#776A57;" d="M300.52,452.775c-1.305,0,4.494,1.256-92.021-21.285c-4.155-0.971-6.737-5.126-5.767-9.282   c0.972-4.157,5.127-6.734,9.281-5.768l90.257,21.081C311.171,439.599,309.617,452.775,300.52,452.775z"/>
	<path style="fill:#776A57;" d="M297.915,498.469l-87.59-20.457c-4.155-0.971-6.737-5.126-5.768-9.282   c0.973-4.154,5.127-6.734,9.282-5.767l87.588,20.457C311.272,485.719,307.963,500.818,297.915,498.469z"/>
</g>
<g>
</g>
<g>
</g>
<g>
</g>
<g>
</g>
<g>
</g>
<g>
</g>
<g>
</g>
<g>
</g>
<g>
</g>
<g>
</g>
<g>
</g>
<g>
</g>
<g>
</g>
<g>
</g>
<g>
</g>
</svg>
