<?xml version="1.0" encoding="iso-8859-1"?>
<!-- Generator: Adobe Illustrator 19.0.0, SVG Export Plug-In . SVG Version: 6.00 Build 0)  -->
<svg xmlns="http://www.w3.org/2000/svg" xmlns:xlink="http://www.w3.org/1999/xlink" version="1.1" id="Layer_1" x="0px" y="0px" viewBox="0 0 512 512" style="enable-background:new 0 0 512 512;" xml:space="preserve">
<path style="fill:#5BB26B;" d="M438.619,298.885V72.856L255.933,32.497L73.248,72.856v279.289  c0,67.872,116.93,111.837,182.681,127.362c66.02-15.632,182.691-59.544,182.691-127.362v-28.535"/>
<path style="fill:#449950;" d="M93.852,369.596V68.304l-20.604,4.552v279.289c0,24.413,15.115,45.194,35.598,62.147  C99.541,400.788,93.852,385.875,93.852,369.596z"/>
<path style="fill:#6DC180;" d="M255.933,32.497v447.008c66.02-15.635,182.687-59.543,182.687-127.361c0-2.973,0-276.5,0-279.289  L255.933,32.497L255.933,32.497z"/>
<path style="fill:#9FC95D;" d="M333.249,16.724L458.12,44.31c7.347,1.624,12.577,8.137,12.577,15.662c0,8.248,0,272.732,0,292.172  c0,27.609-12.068,53.425-35.869,76.725c-53.477,52.337-169.492,85.47-182.243,82.778c-2.101-0.448-52.06-11.253-102.821-35.034  C96.202,451.516,41.168,411.471,41.168,352.144V59.972c0-7.525,5.231-14.038,12.579-15.662L252.474,0.409  c4.615-1.019,2.393-1,55.502,10.732 M438.619,298.885V72.856L255.933,32.497L73.248,72.856v279.289  c0,67.872,116.93,111.837,182.681,127.362c66.02-15.632,182.691-59.544,182.691-127.362v-28.535"/>
<path style="fill:#83AD3A;" d="M61.771,361.652V42.537l-8.024,1.772c-7.349,1.624-12.579,8.137-12.579,15.662v292.172  c0,46.02,33.244,80.401,72.404,104.925C83.69,432.361,61.771,400.728,61.771,361.652z"/>
<path style="fill:#B3DB6E;" d="M458.12,44.31C245.099-2.75,258.644,0.032,255.933,0.032v32.466c0,0,182.685,40.358,182.687,40.358  c0,2.79,0,276.32,0,279.289c0,67.839-116.732,111.742-182.687,127.361V512c7.327,0,214.765-45.873,214.765-159.855  c0-6.208,0-263.582,0-292.172C470.697,52.447,465.467,45.934,458.12,44.31z"/>
<path id="SVGCleanerId_0" style="fill:#BFE27A;" d="M458.12,44.31C249.129-1.86,385.676,28.305,277.544,4.418  c-4.26,9.849-7.945,20.002-11.023,30.417l172.098,38.02c0,300.693,0.721,283.417-1.704,293.356  c10.062,3.481,20.395,6.381,30.955,8.663c3.895-15.37,2.827,3.006,2.827-314.903C470.697,52.447,465.467,45.934,458.12,44.31z"/>
<path style="fill:#7ACE8A;" d="M436.915,366.212c2.399-9.832,1.704,11.679,1.704-293.356L266.521,34.835  C225.334,174.257,301.986,319.516,436.915,366.212z"/>
<g>
	<path id="SVGCleanerId_0_1_" style="fill:#BFE27A;" d="M458.12,44.31C249.129-1.86,385.676,28.305,277.544,4.418   c-4.26,9.849-7.945,20.002-11.023,30.417l172.098,38.02c0,300.693,0.721,283.417-1.704,293.356   c10.062,3.481,20.395,6.381,30.955,8.663c3.895-15.37,2.827,3.006,2.827-314.903C470.697,52.447,465.467,45.934,458.12,44.31z"/>
</g>
<path style="fill:#B0DCF7;" d="M300.119,122.575L300.119,122.575c-0.001,0-3.136-0.006-3.137-0.006l0,0  c-10.068,0-26.273,4.019-41.05,13.827c-14.382-9.549-30.142-13.751-41.048-13.827l0,0c-0.001,0-3.136,0.006-3.136,0.006h-0.001  c-0.002,0-0.002,0-0.002,0c-65.48,0.614-92.241,85.517-47.91,144.267c6.749,8.897,14.431,16.14,22.439,21.699  c-8.984,69.344,34.048,129.773,35.469,75.753c0.122-4.643-0.415-18.509,4.377-32.286c10.092-29.016,51.41-30.374,60.964,4.292  c5.544,20.114-0.244,48.739,11.414,48.739c12.456-0.011,33.678-45.685,27.092-96.498  C395.368,240.193,379.141,123.304,300.119,122.575z"/>
<path style="fill:#7AC1DD;" d="M205.719,286.514c0.364-7.212-4.268-11.834-4.895-12.339l0.002-0.005  c-48.132-38.816-51.704-116.81-7.538-148.84c-51.383,15.269-69.673,88.209-29.452,141.513c6.749,8.897,14.431,16.14,22.439,21.699  c-8.975,69.273,33.876,129.337,35.447,76.292C212.174,349.873,203.988,323.041,205.719,286.514z"/>
<path style="fill:#BBE6FC;" d="M300.119,122.575L300.119,122.575c-15.764-0.112-30.613,4.998-43.5,13.389  c5.467,60.393,30.833,115.04,69.509,157.32c-0.152-1.575-0.33-3.156-0.537-4.743C395.368,240.193,379.141,123.304,300.119,122.575z"/>
<g>
</g>
<g>
</g>
<g>
</g>
<g>
</g>
<g>
</g>
<g>
</g>
<g>
</g>
<g>
</g>
<g>
</g>
<g>
</g>
<g>
</g>
<g>
</g>
<g>
</g>
<g>
</g>
<g>
</g>
</svg>
